ISO-10303-21;
HEADER;
/* Generated by software containing ST-Developer
 * from STEP Tools, Inc. (www.steptools.com) 
 */
/* OPTION: using custom renumber hook */

FILE_DESCRIPTION(
/* description */ ('STEP AP242 Edition 2',
'CAx-IF Rec.Pracs.---Representation and Presentation of Product Manufa
cturing Information (PMI)---4.0---2014-10-13',
'CAx-IF Rec.Pracs.---3D Tessellated Geometry---0.4---2014-09-14','2;1',
'CAx-IF Rec.Pracs.---User Defined Attributes---1.5---2016-08-15'),
/* implementation_level */ '2;1');

FILE_NAME(
/* name */ 'Part Studio 1 - Body_Butt_Left',
/* time_stamp */ '2026-06-21T21:08:36Z',
/* author */ (''),
/* organization */ (''),
/* preprocessor_version */ 'ST-DEVELOPER v20',
/* originating_system */ 'ONSHAPE BY PTC INC, 1.216',
/* authorisation */ '  ');

FILE_SCHEMA (('AP242_MANAGED_MODEL_BASED_3D_ENGINEERING_MIM_LF { 1 0 10303 442 3 1 4 }'));
ENDSEC;

DATA;
#10=SHAPE_REPRESENTATION_RELATIONSHIP('','',#632,#11);
#11=ADVANCED_BREP_SHAPE_REPRESENTATION('',(#630),#1236);
#12=ORIENTED_CLOSED_SHELL('',*,#621,.F.);
#13=(
BOUNDED_SURFACE()
B_SPLINE_SURFACE(3,2,((#944,#945,#946),(#947,#948,#949),(#950,#951,#952),
(#953,#954,#955),(#956,#957,#958),(#959,#960,#961),(#962,#963,#964),(#965,
#966,#967),(#968,#969,#970),(#971,#972,#973),(#974,#975,#976),(#977,#978,
#979),(#980,#981,#982),(#983,#984,#985),(#986,#987,#988),(#989,#990,#991),
(#992,#993,#994)),.UNSPECIFIED.,.F.,.F.,.F.)
B_SPLINE_SURFACE_WITH_KNOTS((4,1,1,1,1,1,1,1,1,1,1,1,1,1,4),(3,3),(0.0667919520220872,
0.0703781899293182,0.0739644278365492,0.0811369036510113,0.0883093794654733,
0.0954818552799353,0.102654331094397,0.109826806908859,0.116999282723321,
0.118792401676937,0.120585520630552,0.12148208010736,0.122378639584168,
0.123275199060976,0.124171758537783),(0.,1.),.UNSPECIFIED.)
GEOMETRIC_REPRESENTATION_ITEM()
RATIONAL_B_SPLINE_SURFACE(((1.,0.707106781186548,1.),(1.,0.707106781186548,
1.),(1.,0.707106781186547,1.),(1.,0.707106781186548,1.),(1.,0.707106781186547,
1.),(1.,0.70710678118655,1.),(1.,0.707106781186547,1.),(1.,0.707106781186548,
1.),(1.,0.707106781186545,1.),(1.,0.707106781186546,1.),(1.,0.707106781186549,
1.),(1.,0.707106781186543,1.),(1.,0.707106781186551,1.),(1.,0.707106781186547,
1.),(1.,0.707106781186545,1.),(1.,0.707106781186548,1.),(1.,0.707106781186548,
1.)))
REPRESENTATION_ITEM('')
SURFACE()
);
#14=(
BOUNDED_SURFACE()
B_SPLINE_SURFACE(3,2,((#1159,#1160,#1161),(#1162,#1163,#1164),(#1165,#1166,
#1167),(#1168,#1169,#1170),(#1171,#1172,#1173),(#1174,#1175,#1176),(#1177,
#1178,#1179),(#1180,#1181,#1182),(#1183,#1184,#1185),(#1186,#1187,#1188)),
 .UNSPECIFIED.,.F.,.F.,.F.)
B_SPLINE_SURFACE_WITH_KNOTS((4,1,1,1,1,1,1,4),(3,3),(0.0727781871594598,
0.0850100081972326,0.0911259187161189,0.0972418292350053,0.103357739753892,
0.109473650272778,0.115589560791665,0.121705471310551),(0.,1.),
 .UNSPECIFIED.)
GEOMETRIC_REPRESENTATION_ITEM()
RATIONAL_B_SPLINE_SURFACE(((1.,0.707106781186548,1.),(1.,0.707106781186548,
1.),(1.,0.707106781186543,1.),(1.,0.707106781186549,1.),(1.,0.707106781186547,
1.),(1.,0.707106781186548,1.),(1.,0.707106781186548,1.),(1.,0.707106781186542,
1.),(1.,0.707106781186547,1.),(1.,0.707106781186547,1.)))
REPRESENTATION_ITEM('')
SURFACE()
);
#15=ELLIPSE('',#643,0.0984587972260796,0.0579504284943004);
#16=ELLIPSE('',#644,0.0984587972260796,0.0579504284943004);
#17=ELLIPSE('',#654,0.0984587972260796,0.0579504284943004);
#18=ELLIPSE('',#656,0.0984587972260796,0.0579504284943004);
#19=PLANE('',#642);
#20=PLANE('',#645);
#21=PLANE('',#646);
#22=PLANE('',#647);
#23=PLANE('',#648);
#24=PLANE('',#649);
#25=PLANE('',#650);
#26=PLANE('',#651);
#27=PLANE('',#652);
#28=PLANE('',#653);
#29=PLANE('',#655);
#30=PLANE('',#667);
#31=PLANE('',#668);
#32=PLANE('',#669);
#33=PLANE('',#670);
#34=PLANE('',#671);
#35=PLANE('',#672);
#36=PLANE('',#673);
#37=PLANE('',#674);
#38=PLANE('',#675);
#39=PLANE('',#676);
#40=PLANE('',#677);
#41=B_SPLINE_SURFACE_WITH_KNOTS('',3,1,((#858,#859),(#860,#861),(#862,#863),
(#864,#865),(#866,#867)),.SURF_OF_LINEAR_EXTRUSION.,.F.,.F.,.F.,(4,1,4),
(2,2),(0.,0.5,1.),(0.,1.),.UNSPECIFIED.);
#42=B_SPLINE_SURFACE_WITH_KNOTS('',3,1,((#1017,#1018),(#1019,#1020),(#1021,
#1022),(#1023,#1024)),.SURF_OF_LINEAR_EXTRUSION.,.F.,.F.,.F.,(4,4),(2,2),
(0.520387513977336,0.790531640828245),(0.,1.),.PIECEWISE_BEZIER_KNOTS.);
#43=B_SPLINE_SURFACE_WITH_KNOTS('',3,1,((#1027,#1028),(#1029,#1030),(#1031,
#1032),(#1033,#1034)),.SURF_OF_LINEAR_EXTRUSION.,.F.,.F.,.F.,(4,4),(2,2),
(0.0521152812060407,0.298488807365426),(0.,1.),.PIECEWISE_BEZIER_KNOTS.);
#44=B_SPLINE_SURFACE_WITH_KNOTS('',3,1,((#1080,#1081),(#1082,#1083),(#1084,
#1085),(#1086,#1087),(#1088,#1089),(#1090,#1091)),
 .SURF_OF_LINEAR_EXTRUSION.,.F.,.F.,.F.,(4,1,1,4),(2,2),(0.108389104842581,
0.322568152862716,0.53674720088285,0.965105296923118),(0.,1.),
 .UNSPECIFIED.);
#45=B_SPLINE_SURFACE_WITH_KNOTS('',3,1,((#1214,#1215),(#1216,#1217),(#1218,
#1219),(#1220,#1221)),.SURF_OF_LINEAR_EXTRUSION.,.F.,.F.,.F.,(4,4),(2,2),
(0.53679296931317,0.716089931735245),(0.,1.),.PIECEWISE_BEZIER_KNOTS.);
#46=B_SPLINE_SURFACE_WITH_KNOTS('',3,1,((#1227,#1228),(#1229,#1230),(#1231,
#1232),(#1233,#1234)),.SURF_OF_LINEAR_EXTRUSION.,.F.,.F.,.F.,(4,4),(2,2),
(0.0840628875119293,0.298275072184813),(0.,1.),.PIECEWISE_BEZIER_KNOTS.);
#47=CIRCLE('',#635,0.0391922294933279);
#48=CIRCLE('',#636,0.0391922294933279);
#49=CIRCLE('',#638,0.0308398656564895);
#50=CIRCLE('',#639,0.0308398656564895);
#51=CIRCLE('',#640,0.0308398656564895);
#52=CIRCLE('',#641,0.0308398656564895);
#53=CIRCLE('',#658,0.0414922294933279);
#54=CIRCLE('',#659,0.0414922294933279);
#55=CIRCLE('',#660,0.0414922294933279);
#56=CIRCLE('',#662,0.0285398656564895);
#57=CIRCLE('',#663,0.0285398656564895);
#58=CIRCLE('',#664,0.0285398656564895);
#59=CIRCLE('',#665,0.0285398656564895);
#60=CIRCLE('',#666,0.0285398656564895);
#61=B_SPLINE_CURVE_WITH_KNOTS('',3,(#823,#824,#825,#826,#827,#828,#829),
 .UNSPECIFIED.,.F.,.F.,(4,1,1,1,4),(0.,0.00238534810341427,0.00477069620682855,
0.00715604431024282,0.00954139241365709),.UNSPECIFIED.);
#62=B_SPLINE_CURVE_WITH_KNOTS('',3,(#847,#848,#849,#850,#851,#852,#853),
 .UNSPECIFIED.,.F.,.F.,(4,1,1,1,4),(0.,0.00303895870869984,0.00607791741739967,
0.00911687612609951,0.0121558348347993),.UNSPECIFIED.);
#63=B_SPLINE_CURVE_WITH_KNOTS('',3,(#871,#872,#873,#874,#875),
 .UNSPECIFIED.,.F.,.F.,(4,1,4),(0.,0.515698376922231,1.),.UNSPECIFIED.);
#64=B_SPLINE_CURVE_WITH_KNOTS('',3,(#879,#880,#881,#882,#883),
 .UNSPECIFIED.,.F.,.F.,(4,1,4),(0.,0.515698376922231,1.),.UNSPECIFIED.);
#65=B_SPLINE_CURVE_WITH_KNOTS('',3,(#884,#885,#886,#887,#888),
 .UNSPECIFIED.,.F.,.F.,(4,1,4),(0.,0.515698376922231,1.),.UNSPECIFIED.);
#66=B_SPLINE_CURVE_WITH_KNOTS('',3,(#892,#893,#894,#895,#896),
 .UNSPECIFIED.,.F.,.F.,(4,1,4),(0.,0.515698376922231,1.),.UNSPECIFIED.);
#67=B_SPLINE_CURVE_WITH_KNOTS('',3,(#900,#901,#902,#903,#904),
 .UNSPECIFIED.,.F.,.F.,(4,1,4),(0.,0.515698376922231,1.),.UNSPECIFIED.);
#68=B_SPLINE_CURVE_WITH_KNOTS('',3,(#908,#909,#910,#911,#912),
 .UNSPECIFIED.,.F.,.F.,(4,1,4),(0.,0.515698376922231,1.),.UNSPECIFIED.);
#69=B_SPLINE_CURVE_WITH_KNOTS('',3,(#913,#914,#915,#916,#917,#918,#919,
#920,#921,#922),.UNSPECIFIED.,.F.,.F.,(4,1,1,1,1,1,1,4),(0.,0.0125063079796092,
0.0187594619694139,0.0250126159592185,0.0312657699490231,0.0375189239388277,
0.0437720779286324,0.050025231918437),.UNSPECIFIED.);
#70=B_SPLINE_CURVE_WITH_KNOTS('',3,(#933,#934,#935,#936,#937,#938,#939,
#940,#941,#942,#943),.UNSPECIFIED.,.F.,.F.,(4,1,1,1,1,1,1,1,4),(0.,0.00310101271892788,
0.00620202543785576,0.0124040508757115,0.0186060763135673,0.024808101751423,
0.0310101271892788,0.0372121526271346,0.0496162035028461),.UNSPECIFIED.);
#71=B_SPLINE_CURVE_WITH_KNOTS('',3,(#1045,#1046,#1047,#1048,#1049),
 .UNSPECIFIED.,.F.,.F.,(4,1,4),(0.,0.00295541580078343,0.00591083160156685),
 .UNSPECIFIED.);
#72=B_SPLINE_CURVE_WITH_KNOTS('',3,(#1060,#1061,#1062,#1063,#1064,#1065,
#1066),.UNSPECIFIED.,.F.,.F.,(4,1,1,1,4),(0.,0.00213326372579217,0.00426652745158434,
0.00639979117737652,0.00853305490316869),.UNSPECIFIED.);
#73=B_SPLINE_CURVE_WITH_KNOTS('',3,(#1095,#1096,#1097,#1098),
 .UNSPECIFIED.,.F.,.F.,(4,4),(0.,0.0173102429446234),.UNSPECIFIED.);
#74=B_SPLINE_CURVE_WITH_KNOTS('',3,(#1102,#1103,#1104,#1105),
 .UNSPECIFIED.,.F.,.F.,(4,4),(0.,0.0173102429446234),.UNSPECIFIED.);
#75=B_SPLINE_CURVE_WITH_KNOTS('',3,(#1106,#1107,#1108,#1109),
 .UNSPECIFIED.,.F.,.F.,(4,4),(0.0272303862584418,0.0405883718653661),
 .UNSPECIFIED.);
#76=B_SPLINE_CURVE_WITH_KNOTS('',3,(#1111,#1112,#1113,#1114,#1115,#1116,
#1117,#1118,#1119),.UNSPECIFIED.,.F.,.F.,(4,1,1,1,1,1,4),(0.,0.0110059708060065,
0.0165089562090098,0.0220119416120131,0.0275149270150163,0.0330179124180196,
0.0440238832240262),.UNSPECIFIED.);
#77=B_SPLINE_CURVE_WITH_KNOTS('',3,(#1120,#1121,#1122,#1123,#1124),
 .UNSPECIFIED.,.F.,.F.,(4,1,4),(0.00567250968857093,0.0184071123879238,
0.0311417150872766),.UNSPECIFIED.);
#78=B_SPLINE_CURVE_WITH_KNOTS('',3,(#1128,#1129,#1130,#1131),
 .UNSPECIFIED.,.F.,.F.,(4,4),(0.,0.00516047072472657),.UNSPECIFIED.);
#79=B_SPLINE_CURVE_WITH_KNOTS('',3,(#1135,#1136,#1137,#1138),
 .UNSPECIFIED.,.F.,.F.,(4,4),(0.,0.0135813406216755),.UNSPECIFIED.);
#80=B_SPLINE_CURVE_WITH_KNOTS('',3,(#1145,#1146,#1147,#1148),
 .UNSPECIFIED.,.F.,.F.,(4,4),(0.,0.0137384431936767),.UNSPECIFIED.);
#81=B_SPLINE_CURVE_WITH_KNOTS('',3,(#1150,#1151,#1152,#1153,#1154,#1155,
#1156,#1157,#1158),.UNSPECIFIED.,.F.,.F.,(4,1,1,1,1,1,4),(0.,0.00531922247386338,
0.0106384449477268,0.0212768898954535,0.0265961123693169,0.0319153348431803,
0.0425537797909071),.UNSPECIFIED.);
#82=B_SPLINE_CURVE_WITH_KNOTS('',3,(#1210,#1211,#1212,#1213),
 .UNSPECIFIED.,.F.,.F.,(4,4),(0.,0.0137384431936572),.UNSPECIFIED.);
#83=B_SPLINE_CURVE_WITH_KNOTS('',3,(#1223,#1224,#1225,#1226),
 .UNSPECIFIED.,.F.,.F.,(4,4),(0.0297866042367265,0.0433502609274267),
 .UNSPECIFIED.);
#84=ORIENTED_EDGE('',*,*,#262,.T.);
#85=ORIENTED_EDGE('',*,*,#263,.T.);
#86=ORIENTED_EDGE('',*,*,#264,.T.);
#87=ORIENTED_EDGE('',*,*,#265,.F.);
#88=ORIENTED_EDGE('',*,*,#266,.F.);
#89=ORIENTED_EDGE('',*,*,#267,.T.);
#90=ORIENTED_EDGE('',*,*,#268,.T.);
#91=ORIENTED_EDGE('',*,*,#269,.T.);
#92=ORIENTED_EDGE('',*,*,#270,.T.);
#93=ORIENTED_EDGE('',*,*,#271,.F.);
#94=ORIENTED_EDGE('',*,*,#272,.T.);
#95=ORIENTED_EDGE('',*,*,#273,.T.);
#96=ORIENTED_EDGE('',*,*,#274,.F.);
#97=ORIENTED_EDGE('',*,*,#275,.F.);
#98=ORIENTED_EDGE('',*,*,#266,.T.);
#99=ORIENTED_EDGE('',*,*,#276,.T.);
#100=ORIENTED_EDGE('',*,*,#277,.T.);
#101=ORIENTED_EDGE('',*,*,#278,.T.);
#102=ORIENTED_EDGE('',*,*,#279,.F.);
#103=ORIENTED_EDGE('',*,*,#280,.F.);
#104=ORIENTED_EDGE('',*,*,#281,.T.);
#105=ORIENTED_EDGE('',*,*,#282,.F.);
#106=ORIENTED_EDGE('',*,*,#283,.F.);
#107=ORIENTED_EDGE('',*,*,#284,.F.);
#108=ORIENTED_EDGE('',*,*,#285,.T.);
#109=ORIENTED_EDGE('',*,*,#286,.F.);
#110=ORIENTED_EDGE('',*,*,#274,.T.);
#111=ORIENTED_EDGE('',*,*,#287,.T.);
#112=ORIENTED_EDGE('',*,*,#263,.F.);
#113=ORIENTED_EDGE('',*,*,#288,.F.);
#114=ORIENTED_EDGE('',*,*,#267,.F.);
#115=ORIENTED_EDGE('',*,*,#275,.T.);
#116=ORIENTED_EDGE('',*,*,#286,.T.);
#117=ORIENTED_EDGE('',*,*,#289,.F.);
#118=ORIENTED_EDGE('',*,*,#290,.F.);
#119=ORIENTED_EDGE('',*,*,#291,.F.);
#120=ORIENTED_EDGE('',*,*,#292,.F.);
#121=ORIENTED_EDGE('',*,*,#282,.T.);
#122=ORIENTED_EDGE('',*,*,#265,.T.);
#123=ORIENTED_EDGE('',*,*,#293,.T.);
#124=ORIENTED_EDGE('',*,*,#272,.F.);
#125=ORIENTED_EDGE('',*,*,#273,.F.);
#126=ORIENTED_EDGE('',*,*,#293,.F.);
#127=ORIENTED_EDGE('',*,*,#264,.F.);
#128=ORIENTED_EDGE('',*,*,#287,.F.);
#129=ORIENTED_EDGE('',*,*,#294,.F.);
#130=ORIENTED_EDGE('',*,*,#276,.F.);
#131=ORIENTED_EDGE('',*,*,#295,.T.);
#132=ORIENTED_EDGE('',*,*,#270,.F.);
#133=ORIENTED_EDGE('',*,*,#296,.F.);
#134=ORIENTED_EDGE('',*,*,#278,.F.);
#135=ORIENTED_EDGE('',*,*,#297,.T.);
#136=ORIENTED_EDGE('',*,*,#268,.F.);
#137=ORIENTED_EDGE('',*,*,#297,.F.);
#138=ORIENTED_EDGE('',*,*,#277,.F.);
#139=ORIENTED_EDGE('',*,*,#294,.T.);
#140=ORIENTED_EDGE('',*,*,#269,.F.);
#141=ORIENTED_EDGE('',*,*,#271,.T.);
#142=ORIENTED_EDGE('',*,*,#295,.F.);
#143=ORIENTED_EDGE('',*,*,#279,.T.);
#144=ORIENTED_EDGE('',*,*,#296,.T.);
#145=ORIENTED_EDGE('',*,*,#298,.F.);
#146=ORIENTED_EDGE('',*,*,#299,.F.);
#147=ORIENTED_EDGE('',*,*,#291,.T.);
#148=ORIENTED_EDGE('',*,*,#300,.T.);
#149=ORIENTED_EDGE('',*,*,#301,.F.);
#150=ORIENTED_EDGE('',*,*,#300,.F.);
#151=ORIENTED_EDGE('',*,*,#290,.T.);
#152=ORIENTED_EDGE('',*,*,#302,.T.);
#153=ORIENTED_EDGE('',*,*,#283,.T.);
#154=ORIENTED_EDGE('',*,*,#292,.T.);
#155=ORIENTED_EDGE('',*,*,#299,.T.);
#156=ORIENTED_EDGE('',*,*,#303,.F.);
#157=ORIENTED_EDGE('',*,*,#284,.T.);
#158=ORIENTED_EDGE('',*,*,#303,.T.);
#159=ORIENTED_EDGE('',*,*,#298,.T.);
#160=ORIENTED_EDGE('',*,*,#301,.T.);
#161=ORIENTED_EDGE('',*,*,#304,.T.);
#162=ORIENTED_EDGE('',*,*,#304,.F.);
#163=ORIENTED_EDGE('',*,*,#302,.F.);
#164=ORIENTED_EDGE('',*,*,#289,.T.);
#165=ORIENTED_EDGE('',*,*,#285,.F.);
#166=ORIENTED_EDGE('',*,*,#280,.T.);
#167=ORIENTED_EDGE('',*,*,#305,.T.);
#168=ORIENTED_EDGE('',*,*,#288,.T.);
#169=ORIENTED_EDGE('',*,*,#281,.F.);
#170=ORIENTED_EDGE('',*,*,#305,.F.);
#171=ORIENTED_EDGE('',*,*,#262,.F.);
#172=ORIENTED_EDGE('',*,*,#306,.F.);
#173=ORIENTED_EDGE('',*,*,#307,.F.);
#174=ORIENTED_EDGE('',*,*,#308,.T.);
#175=ORIENTED_EDGE('',*,*,#309,.T.);
#176=ORIENTED_EDGE('',*,*,#310,.F.);
#177=ORIENTED_EDGE('',*,*,#311,.F.);
#178=ORIENTED_EDGE('',*,*,#312,.T.);
#179=ORIENTED_EDGE('',*,*,#313,.T.);
#180=ORIENTED_EDGE('',*,*,#314,.T.);
#181=ORIENTED_EDGE('',*,*,#315,.F.);
#182=ORIENTED_EDGE('',*,*,#316,.F.);
#183=ORIENTED_EDGE('',*,*,#308,.F.);
#184=ORIENTED_EDGE('',*,*,#317,.T.);
#185=ORIENTED_EDGE('',*,*,#318,.T.);
#186=ORIENTED_EDGE('',*,*,#319,.F.);
#187=ORIENTED_EDGE('',*,*,#320,.T.);
#188=ORIENTED_EDGE('',*,*,#321,.F.);
#189=ORIENTED_EDGE('',*,*,#322,.F.);
#190=ORIENTED_EDGE('',*,*,#323,.F.);
#191=ORIENTED_EDGE('',*,*,#324,.T.);
#192=ORIENTED_EDGE('',*,*,#325,.F.);
#193=ORIENTED_EDGE('',*,*,#326,.F.);
#194=ORIENTED_EDGE('',*,*,#327,.T.);
#195=ORIENTED_EDGE('',*,*,#311,.T.);
#196=ORIENTED_EDGE('',*,*,#328,.F.);
#197=ORIENTED_EDGE('',*,*,#314,.F.);
#198=ORIENTED_EDGE('',*,*,#329,.T.);
#199=ORIENTED_EDGE('',*,*,#330,.T.);
#200=ORIENTED_EDGE('',*,*,#331,.T.);
#201=ORIENTED_EDGE('',*,*,#332,.F.);
#202=ORIENTED_EDGE('',*,*,#333,.T.);
#203=ORIENTED_EDGE('',*,*,#331,.F.);
#204=ORIENTED_EDGE('',*,*,#334,.T.);
#205=ORIENTED_EDGE('',*,*,#335,.T.);
#206=ORIENTED_EDGE('',*,*,#336,.T.);
#207=ORIENTED_EDGE('',*,*,#337,.T.);
#208=ORIENTED_EDGE('',*,*,#317,.F.);
#209=ORIENTED_EDGE('',*,*,#307,.T.);
#210=ORIENTED_EDGE('',*,*,#309,.F.);
#211=ORIENTED_EDGE('',*,*,#316,.T.);
#212=ORIENTED_EDGE('',*,*,#338,.F.);
#213=ORIENTED_EDGE('',*,*,#315,.T.);
#214=ORIENTED_EDGE('',*,*,#328,.T.);
#215=ORIENTED_EDGE('',*,*,#310,.T.);
#216=ORIENTED_EDGE('',*,*,#338,.T.);
#217=ORIENTED_EDGE('',*,*,#339,.T.);
#218=ORIENTED_EDGE('',*,*,#321,.T.);
#219=ORIENTED_EDGE('',*,*,#340,.F.);
#220=ORIENTED_EDGE('',*,*,#323,.T.);
#221=ORIENTED_EDGE('',*,*,#341,.T.);
#222=ORIENTED_EDGE('',*,*,#319,.T.);
#223=ORIENTED_EDGE('',*,*,#342,.F.);
#224=ORIENTED_EDGE('',*,*,#325,.T.);
#225=ORIENTED_EDGE('',*,*,#342,.T.);
#226=ORIENTED_EDGE('',*,*,#322,.T.);
#227=ORIENTED_EDGE('',*,*,#339,.F.);
#228=ORIENTED_EDGE('',*,*,#326,.T.);
#229=ORIENTED_EDGE('',*,*,#320,.F.);
#230=ORIENTED_EDGE('',*,*,#341,.F.);
#231=ORIENTED_EDGE('',*,*,#324,.F.);
#232=ORIENTED_EDGE('',*,*,#340,.T.);
#233=ORIENTED_EDGE('',*,*,#343,.T.);
#234=ORIENTED_EDGE('',*,*,#344,.F.);
#235=ORIENTED_EDGE('',*,*,#335,.F.);
#236=ORIENTED_EDGE('',*,*,#345,.T.);
#237=ORIENTED_EDGE('',*,*,#346,.T.);
#238=ORIENTED_EDGE('',*,*,#347,.F.);
#239=ORIENTED_EDGE('',*,*,#336,.F.);
#240=ORIENTED_EDGE('',*,*,#344,.T.);
#241=ORIENTED_EDGE('',*,*,#330,.F.);
#242=ORIENTED_EDGE('',*,*,#348,.T.);
#243=ORIENTED_EDGE('',*,*,#345,.F.);
#244=ORIENTED_EDGE('',*,*,#334,.F.);
#245=ORIENTED_EDGE('',*,*,#349,.F.);
#246=ORIENTED_EDGE('',*,*,#346,.F.);
#247=ORIENTED_EDGE('',*,*,#343,.F.);
#248=ORIENTED_EDGE('',*,*,#348,.F.);
#249=ORIENTED_EDGE('',*,*,#329,.F.);
#250=ORIENTED_EDGE('',*,*,#313,.F.);
#251=ORIENTED_EDGE('',*,*,#337,.F.);
#252=ORIENTED_EDGE('',*,*,#347,.T.);
#253=ORIENTED_EDGE('',*,*,#349,.T.);
#254=ORIENTED_EDGE('',*,*,#318,.F.);
#255=ORIENTED_EDGE('',*,*,#327,.F.);
#256=ORIENTED_EDGE('',*,*,#350,.F.);
#257=ORIENTED_EDGE('',*,*,#312,.F.);
#258=ORIENTED_EDGE('',*,*,#333,.F.);
#259=ORIENTED_EDGE('',*,*,#306,.T.);
#260=ORIENTED_EDGE('',*,*,#350,.T.);
#261=ORIENTED_EDGE('',*,*,#332,.T.);
#262=EDGE_CURVE('',#351,#352,#410,.T.);
#263=EDGE_CURVE('',#352,#353,#411,.T.);
#264=EDGE_CURVE('',#353,#354,#61,.T.);
#265=EDGE_CURVE('',#355,#354,#47,.T.);
#266=EDGE_CURVE('',#356,#355,#412,.T.);
#267=EDGE_CURVE('',#356,#351,#48,.T.);
#268=EDGE_CURVE('',#357,#358,#413,.T.);
#269=EDGE_CURVE('',#358,#359,#49,.T.);
#270=EDGE_CURVE('',#359,#360,#414,.F.);
#271=EDGE_CURVE('',#357,#360,#50,.T.);
#272=EDGE_CURVE('',#355,#361,#51,.T.);
#273=EDGE_CURVE('',#361,#362,#62,.T.);
#274=EDGE_CURVE('',#363,#362,#415,.T.);
#275=EDGE_CURVE('',#356,#363,#52,.T.);
#276=EDGE_CURVE('',#364,#365,#416,.T.);
#277=EDGE_CURVE('',#365,#366,#63,.F.);
#278=EDGE_CURVE('',#366,#367,#417,.F.);
#279=EDGE_CURVE('',#364,#367,#64,.F.);
#280=EDGE_CURVE('',#368,#352,#65,.T.);
#281=EDGE_CURVE('',#368,#369,#418,.T.);
#282=EDGE_CURVE('',#370,#369,#66,.T.);
#283=EDGE_CURVE('',#371,#370,#419,.F.);
#284=EDGE_CURVE('',#372,#371,#67,.T.);
#285=EDGE_CURVE('',#372,#373,#420,.T.);
#286=EDGE_CURVE('',#363,#373,#68,.T.);
#287=EDGE_CURVE('',#362,#353,#69,.T.);
#288=EDGE_CURVE('',#351,#369,#15,.T.);
#289=EDGE_CURVE('',#374,#373,#16,.T.);
#290=EDGE_CURVE('',#375,#374,#421,.T.);
#291=EDGE_CURVE('',#376,#375,#422,.T.);
#292=EDGE_CURVE('',#370,#376,#423,.T.);
#293=EDGE_CURVE('',#354,#361,#70,.T.);
#294=EDGE_CURVE('',#365,#359,#424,.T.);
#295=EDGE_CURVE('',#364,#360,#425,.T.);
#296=EDGE_CURVE('',#367,#357,#426,.T.);
#297=EDGE_CURVE('',#366,#358,#427,.T.);
#298=EDGE_CURVE('',#377,#378,#428,.T.);
#299=EDGE_CURVE('',#376,#377,#429,.T.);
#300=EDGE_CURVE('',#375,#378,#430,.T.);
#301=EDGE_CURVE('',#378,#379,#431,.T.);
#302=EDGE_CURVE('',#374,#379,#432,.T.);
#303=EDGE_CURVE('',#371,#377,#433,.T.);
#304=EDGE_CURVE('',#379,#372,#17,.T.);
#305=EDGE_CURVE('',#352,#368,#18,.T.);
#306=EDGE_CURVE('',#380,#381,#434,.F.);
#307=EDGE_CURVE('',#382,#380,#53,.T.);
#308=EDGE_CURVE('',#382,#383,#435,.T.);
#309=EDGE_CURVE('',#383,#384,#54,.T.);
#310=EDGE_CURVE('',#385,#384,#71,.T.);
#311=EDGE_CURVE('',#386,#385,#436,.T.);
#312=EDGE_CURVE('',#386,#381,#55,.F.);
#313=EDGE_CURVE('',#387,#388,#56,.T.);
#314=EDGE_CURVE('',#388,#389,#437,.T.);
#315=EDGE_CURVE('',#390,#389,#72,.T.);
#316=EDGE_CURVE('',#383,#390,#57,.T.);
#317=EDGE_CURVE('',#382,#391,#58,.T.);
#318=EDGE_CURVE('',#391,#387,#438,.F.);
#319=EDGE_CURVE('',#392,#393,#439,.T.);
#320=EDGE_CURVE('',#392,#394,#59,.T.);
#321=EDGE_CURVE('',#395,#394,#440,.F.);
#322=EDGE_CURVE('',#393,#395,#60,.T.);
#323=EDGE_CURVE('',#396,#397,#441,.T.);
#324=EDGE_CURVE('',#396,#398,#73,.T.);
#325=EDGE_CURVE('',#399,#398,#442,.F.);
#326=EDGE_CURVE('',#397,#399,#74,.T.);
#327=EDGE_CURVE('',#400,#386,#75,.T.);
#328=EDGE_CURVE('',#389,#385,#76,.T.);
#329=EDGE_CURVE('',#388,#401,#77,.T.);
#330=EDGE_CURVE('',#401,#402,#443,.F.);
#331=EDGE_CURVE('',#402,#403,#78,.T.);
#332=EDGE_CURVE('',#400,#403,#444,.T.);
#333=EDGE_CURVE('',#380,#403,#79,.T.);
#334=EDGE_CURVE('',#402,#404,#445,.T.);
#335=EDGE_CURVE('',#404,#405,#446,.T.);
#336=EDGE_CURVE('',#405,#406,#447,.T.);
#337=EDGE_CURVE('',#406,#391,#80,.T.);
#338=EDGE_CURVE('',#384,#390,#81,.T.);
#339=EDGE_CURVE('',#397,#395,#448,.F.);
#340=EDGE_CURVE('',#396,#394,#449,.F.);
#341=EDGE_CURVE('',#398,#392,#450,.T.);
#342=EDGE_CURVE('',#399,#393,#451,.T.);
#343=EDGE_CURVE('',#407,#408,#452,.T.);
#344=EDGE_CURVE('',#405,#408,#453,.T.);
#345=EDGE_CURVE('',#404,#407,#454,.T.);
#346=EDGE_CURVE('',#408,#409,#455,.T.);
#347=EDGE_CURVE('',#406,#409,#456,.F.);
#348=EDGE_CURVE('',#401,#407,#457,.T.);
#349=EDGE_CURVE('',#409,#387,#82,.T.);
#350=EDGE_CURVE('',#381,#400,#83,.F.);
#351=VERTEX_POINT('',#819);
#352=VERTEX_POINT('',#820);
#353=VERTEX_POINT('',#822);
#354=VERTEX_POINT('',#830);
#355=VERTEX_POINT('',#832);
#356=VERTEX_POINT('',#834);
#357=VERTEX_POINT('',#838);
#358=VERTEX_POINT('',#839);
#359=VERTEX_POINT('',#841);
#360=VERTEX_POINT('',#843);
#361=VERTEX_POINT('',#846);
#362=VERTEX_POINT('',#854);
#363=VERTEX_POINT('',#856);
#364=VERTEX_POINT('',#869);
#365=VERTEX_POINT('',#870);
#366=VERTEX_POINT('',#876);
#367=VERTEX_POINT('',#878);
#368=VERTEX_POINT('',#889);
#369=VERTEX_POINT('',#891);
#370=VERTEX_POINT('',#897);
#371=VERTEX_POINT('',#899);
#372=VERTEX_POINT('',#905);
#373=VERTEX_POINT('',#907);
#374=VERTEX_POINT('',#926);
#375=VERTEX_POINT('',#928);
#376=VERTEX_POINT('',#930);
#377=VERTEX_POINT('',#1005);
#378=VERTEX_POINT('',#1006);
#379=VERTEX_POINT('',#1011);
#380=VERTEX_POINT('',#1037);
#381=VERTEX_POINT('',#1038);
#382=VERTEX_POINT('',#1040);
#383=VERTEX_POINT('',#1042);
#384=VERTEX_POINT('',#1044);
#385=VERTEX_POINT('',#1050);
#386=VERTEX_POINT('',#1052);
#387=VERTEX_POINT('',#1056);
#388=VERTEX_POINT('',#1057);
#389=VERTEX_POINT('',#1059);
#390=VERTEX_POINT('',#1067);
#391=VERTEX_POINT('',#1070);
#392=VERTEX_POINT('',#1073);
#393=VERTEX_POINT('',#1074);
#394=VERTEX_POINT('',#1076);
#395=VERTEX_POINT('',#1078);
#396=VERTEX_POINT('',#1093);
#397=VERTEX_POINT('',#1094);
#398=VERTEX_POINT('',#1099);
#399=VERTEX_POINT('',#1101);
#400=VERTEX_POINT('',#1110);
#401=VERTEX_POINT('',#1125);
#402=VERTEX_POINT('',#1127);
#403=VERTEX_POINT('',#1132);
#404=VERTEX_POINT('',#1140);
#405=VERTEX_POINT('',#1142);
#406=VERTEX_POINT('',#1144);
#407=VERTEX_POINT('',#1199);
#408=VERTEX_POINT('',#1200);
#409=VERTEX_POINT('',#1205);
#410=LINE('',#818,#458);
#411=LINE('',#821,#459);
#412=LINE('',#833,#460);
#413=LINE('',#837,#461);
#414=LINE('',#842,#462);
#415=LINE('',#855,#463);
#416=LINE('',#868,#464);
#417=LINE('',#877,#465);
#418=LINE('',#890,#466);
#419=LINE('',#898,#467);
#420=LINE('',#906,#468);
#421=LINE('',#927,#469);
#422=LINE('',#929,#470);
#423=LINE('',#931,#471);
#424=LINE('',#996,#472);
#425=LINE('',#997,#473);
#426=LINE('',#999,#474);
#427=LINE('',#1000,#475);
#428=LINE('',#1004,#476);
#429=LINE('',#1007,#477);
#430=LINE('',#1008,#478);
#431=LINE('',#1010,#479);
#432=LINE('',#1012,#480);
#433=LINE('',#1014,#481);
#434=LINE('',#1036,#482);
#435=LINE('',#1041,#483);
#436=LINE('',#1051,#484);
#437=LINE('',#1058,#485);
#438=LINE('',#1071,#486);
#439=LINE('',#1072,#487);
#440=LINE('',#1077,#488);
#441=LINE('',#1092,#489);
#442=LINE('',#1100,#490);
#443=LINE('',#1126,#491);
#444=LINE('',#1133,#492);
#445=LINE('',#1139,#493);
#446=LINE('',#1141,#494);
#447=LINE('',#1143,#495);
#448=LINE('',#1190,#496);
#449=LINE('',#1191,#497);
#450=LINE('',#1193,#498);
#451=LINE('',#1194,#499);
#452=LINE('',#1198,#500);
#453=LINE('',#1201,#501);
#454=LINE('',#1202,#502);
#455=LINE('',#1204,#503);
#456=LINE('',#1206,#504);
#457=LINE('',#1208,#505);
#458=VECTOR('',#682,1.);
#459=VECTOR('',#683,1.);
#460=VECTOR('',#686,1.);
#461=VECTOR('',#691,1.);
#462=VECTOR('',#694,1.);
#463=VECTOR('',#699,1.);
#464=VECTOR('',#702,1.);
#465=VECTOR('',#703,1.);
#466=VECTOR('',#704,1.);
#467=VECTOR('',#705,1.);
#468=VECTOR('',#706,1.);
#469=VECTOR('',#713,1.);
#470=VECTOR('',#714,1.);
#471=VECTOR('',#715,1.);
#472=VECTOR('',#720,1.);
#473=VECTOR('',#721,1.);
#474=VECTOR('',#724,1.);
#475=VECTOR('',#725,1.);
#476=VECTOR('',#732,1.);
#477=VECTOR('',#733,1.);
#478=VECTOR('',#734,1.);
#479=VECTOR('',#737,1.);
#480=VECTOR('',#738,1.);
#481=VECTOR('',#741,1.);
#482=VECTOR('',#752,1.);
#483=VECTOR('',#755,1.);
#484=VECTOR('',#758,1.);
#485=VECTOR('',#765,1.);
#486=VECTOR('',#770,1.);
#487=VECTOR('',#771,1.);
#488=VECTOR('',#774,1.);
#489=VECTOR('',#777,1.);
#490=VECTOR('',#778,1.);
#491=VECTOR('',#779,1.);
#492=VECTOR('',#780,1.);
#493=VECTOR('',#783,1.);
#494=VECTOR('',#784,1.);
#495=VECTOR('',#785,1.);
#496=VECTOR('',#790,1.);
#497=VECTOR('',#791,1.);
#498=VECTOR('',#794,1.);
#499=VECTOR('',#795,1.);
#500=VECTOR('',#802,1.);
#501=VECTOR('',#803,1.);
#502=VECTOR('',#804,1.);
#503=VECTOR('',#807,1.);
#504=VECTOR('',#808,1.);
#505=VECTOR('',#811,1.);
#506=EDGE_LOOP('',(#84,#85,#86,#87,#88,#89));
#507=EDGE_LOOP('',(#90,#91,#92,#93));
#508=EDGE_LOOP('',(#94,#95,#96,#97,#98));
#509=EDGE_LOOP('',(#99,#100,#101,#102));
#510=EDGE_LOOP('',(#103,#104,#105,#106,#107,#108,#109,#110,#111,#112));
#511=EDGE_LOOP('',(#113,#114,#115,#116,#117,#118,#119,#120,#121));
#512=EDGE_LOOP('',(#122,#123,#124));
#513=EDGE_LOOP('',(#125,#126,#127,#128));
#514=EDGE_LOOP('',(#129,#130,#131,#132));
#515=EDGE_LOOP('',(#133,#134,#135,#136));
#516=EDGE_LOOP('',(#137,#138,#139,#140));
#517=EDGE_LOOP('',(#141,#142,#143,#144));
#518=EDGE_LOOP('',(#145,#146,#147,#148));
#519=EDGE_LOOP('',(#149,#150,#151,#152));
#520=EDGE_LOOP('',(#153,#154,#155,#156));
#521=EDGE_LOOP('',(#157,#158,#159,#160,#161));
#522=EDGE_LOOP('',(#162,#163,#164,#165));
#523=EDGE_LOOP('',(#166,#167));
#524=EDGE_LOOP('',(#168,#169,#170,#171));
#525=EDGE_LOOP('',(#172,#173,#174,#175,#176,#177,#178));
#526=EDGE_LOOP('',(#179,#180,#181,#182,#183,#184,#185));
#527=EDGE_LOOP('',(#186,#187,#188,#189));
#528=EDGE_LOOP('',(#190,#191,#192,#193));
#529=EDGE_LOOP('',(#194,#195,#196,#197,#198,#199,#200,#201));
#530=EDGE_LOOP('',(#202,#203,#204,#205,#206,#207,#208,#209));
#531=EDGE_LOOP('',(#210,#211,#212));
#532=EDGE_LOOP('',(#213,#214,#215,#216));
#533=EDGE_LOOP('',(#217,#218,#219,#220));
#534=EDGE_LOOP('',(#221,#222,#223,#224));
#535=EDGE_LOOP('',(#225,#226,#227,#228));
#536=EDGE_LOOP('',(#229,#230,#231,#232));
#537=EDGE_LOOP('',(#233,#234,#235,#236));
#538=EDGE_LOOP('',(#237,#238,#239,#240));
#539=EDGE_LOOP('',(#241,#242,#243,#244));
#540=EDGE_LOOP('',(#245,#246,#247,#248,#249,#250));
#541=EDGE_LOOP('',(#251,#252,#253,#254));
#542=EDGE_LOOP('',(#255,#256,#257));
#543=EDGE_LOOP('',(#258,#259,#260,#261));
#544=FACE_BOUND('',#506,.T.);
#545=FACE_BOUND('',#507,.T.);
#546=FACE_BOUND('',#508,.T.);
#547=FACE_BOUND('',#509,.T.);
#548=FACE_BOUND('',#510,.T.);
#549=FACE_BOUND('',#511,.T.);
#550=FACE_BOUND('',#512,.T.);
#551=FACE_BOUND('',#513,.T.);
#552=FACE_BOUND('',#514,.T.);
#553=FACE_BOUND('',#515,.T.);
#554=FACE_BOUND('',#516,.T.);
#555=FACE_BOUND('',#517,.T.);
#556=FACE_BOUND('',#518,.T.);
#557=FACE_BOUND('',#519,.T.);
#558=FACE_BOUND('',#520,.T.);
#559=FACE_BOUND('',#521,.T.);
#560=FACE_BOUND('',#522,.T.);
#561=FACE_BOUND('',#523,.T.);
#562=FACE_BOUND('',#524,.T.);
#563=FACE_BOUND('',#525,.T.);
#564=FACE_BOUND('',#526,.T.);
#565=FACE_BOUND('',#527,.T.);
#566=FACE_BOUND('',#528,.T.);
#567=FACE_BOUND('',#529,.T.);
#568=FACE_BOUND('',#530,.T.);
#569=FACE_BOUND('',#531,.T.);
#570=FACE_BOUND('',#532,.T.);
#571=FACE_BOUND('',#533,.T.);
#572=FACE_BOUND('',#534,.T.);
#573=FACE_BOUND('',#535,.T.);
#574=FACE_BOUND('',#536,.T.);
#575=FACE_BOUND('',#537,.T.);
#576=FACE_BOUND('',#538,.T.);
#577=FACE_BOUND('',#539,.T.);
#578=FACE_BOUND('',#540,.T.);
#579=FACE_BOUND('',#541,.T.);
#580=FACE_BOUND('',#542,.T.);
#581=FACE_BOUND('',#543,.T.);
#582=CYLINDRICAL_SURFACE('',#634,0.0391922294933279);
#583=CYLINDRICAL_SURFACE('',#637,0.0308398656564895);
#584=CYLINDRICAL_SURFACE('',#657,0.0414922294933279);
#585=CYLINDRICAL_SURFACE('',#661,0.0285398656564895);
#586=ADVANCED_FACE('Face appearance 15',(#544),#582,.F.);
#587=ADVANCED_FACE('Face appearance 15',(#545,#546),#583,.T.);
#588=ADVANCED_FACE('Face appearance 15',(#547,#548),#41,.F.);
#589=ADVANCED_FACE('Face appearance 6',(#549),#19,.T.);
#590=ADVANCED_FACE('Face appearance 15',(#550),#20,.F.);
#591=ADVANCED_FACE('',(#551),#13,.T.);
#592=ADVANCED_FACE('',(#552),#21,.T.);
#593=ADVANCED_FACE('',(#553),#22,.F.);
#594=ADVANCED_FACE('',(#554),#23,.F.);
#595=ADVANCED_FACE('',(#555),#24,.T.);
#596=ADVANCED_FACE('',(#556),#25,.T.);
#597=ADVANCED_FACE('',(#557),#26,.T.);
#598=ADVANCED_FACE('',(#558),#27,.T.);
#599=ADVANCED_FACE('',(#559),#28,.T.);
#600=ADVANCED_FACE('',(#560),#42,.F.);
#601=ADVANCED_FACE('',(#561),#29,.T.);
#602=ADVANCED_FACE('',(#562),#43,.F.);
#603=ADVANCED_FACE('',(#563),#584,.T.);
#604=ADVANCED_FACE('',(#564,#565),#585,.F.);
#605=ADVANCED_FACE('',(#566,#567),#44,.T.);
#606=ADVANCED_FACE('',(#568),#30,.F.);
#607=ADVANCED_FACE('',(#569),#31,.T.);
#608=ADVANCED_FACE('',(#570),#14,.F.);
#609=ADVANCED_FACE('',(#571),#32,.F.);
#610=ADVANCED_FACE('',(#572),#33,.T.);
#611=ADVANCED_FACE('',(#573),#34,.T.);
#612=ADVANCED_FACE('',(#574),#35,.F.);
#613=ADVANCED_FACE('',(#575),#36,.F.);
#614=ADVANCED_FACE('',(#576),#37,.F.);
#615=ADVANCED_FACE('',(#577),#38,.F.);
#616=ADVANCED_FACE('',(#578),#39,.F.);
#617=ADVANCED_FACE('',(#579),#45,.T.);
#618=ADVANCED_FACE('',(#580),#40,.F.);
#619=ADVANCED_FACE('',(#581),#46,.T.);
#620=CLOSED_SHELL('',(#586,#587,#588,#589,#590,#591,#592,#593,#594,#595,
#596,#597,#598,#599,#600,#601,#602));
#621=CLOSED_SHELL('',(#603,#604,#605,#606,#607,#608,#609,#610,#611,#612,
#613,#614,#615,#616,#617,#618,#619));
#622=STYLED_ITEM('',(#623),#630);
#623=PRESENTATION_STYLE_ASSIGNMENT((#624));
#624=SURFACE_STYLE_USAGE(.BOTH.,#625);
#625=SURFACE_SIDE_STYLE('',(#626));
#626=SURFACE_STYLE_FILL_AREA(#627);
#627=FILL_AREA_STYLE('',(#628));
#628=FILL_AREA_STYLE_COLOUR('',#629);
#629=COLOUR_RGB('',0.458823529411765,0.105882352941176,0.);
#630=BREP_WITH_VOIDS('Body_Butt_Left',#620,(#12));
#631=SHAPE_DEFINITION_REPRESENTATION(#1241,#632);
#632=SHAPE_REPRESENTATION('Body_Butt_Left',(#633),#1236);
#633=AXIS2_PLACEMENT_3D('',#816,#678,#679);
#634=AXIS2_PLACEMENT_3D('',#817,#680,#681);
#635=AXIS2_PLACEMENT_3D('',#831,#684,#685);
#636=AXIS2_PLACEMENT_3D('',#835,#687,#688);
#637=AXIS2_PLACEMENT_3D('',#836,#689,#690);
#638=AXIS2_PLACEMENT_3D('',#840,#692,#693);
#639=AXIS2_PLACEMENT_3D('',#844,#695,#696);
#640=AXIS2_PLACEMENT_3D('',#845,#697,#698);
#641=AXIS2_PLACEMENT_3D('',#857,#700,#701);
#642=AXIS2_PLACEMENT_3D('',#923,#707,#708);
#643=AXIS2_PLACEMENT_3D('',#924,#709,#710);
#644=AXIS2_PLACEMENT_3D('',#925,#711,#712);
#645=AXIS2_PLACEMENT_3D('',#932,#716,#717);
#646=AXIS2_PLACEMENT_3D('',#995,#718,#719);
#647=AXIS2_PLACEMENT_3D('',#998,#722,#723);
#648=AXIS2_PLACEMENT_3D('',#1001,#726,#727);
#649=AXIS2_PLACEMENT_3D('',#1002,#728,#729);
#650=AXIS2_PLACEMENT_3D('',#1003,#730,#731);
#651=AXIS2_PLACEMENT_3D('',#1009,#735,#736);
#652=AXIS2_PLACEMENT_3D('',#1013,#739,#740);
#653=AXIS2_PLACEMENT_3D('',#1015,#742,#743);
#654=AXIS2_PLACEMENT_3D('',#1016,#744,#745);
#655=AXIS2_PLACEMENT_3D('',#1025,#746,#747);
#656=AXIS2_PLACEMENT_3D('',#1026,#748,#749);
#657=AXIS2_PLACEMENT_3D('',#1035,#750,#751);
#658=AXIS2_PLACEMENT_3D('',#1039,#753,#754);
#659=AXIS2_PLACEMENT_3D('',#1043,#756,#757);
#660=AXIS2_PLACEMENT_3D('',#1053,#759,#760);
#661=AXIS2_PLACEMENT_3D('',#1054,#761,#762);
#662=AXIS2_PLACEMENT_3D('',#1055,#763,#764);
#663=AXIS2_PLACEMENT_3D('',#1068,#766,#767);
#664=AXIS2_PLACEMENT_3D('',#1069,#768,#769);
#665=AXIS2_PLACEMENT_3D('',#1075,#772,#773);
#666=AXIS2_PLACEMENT_3D('',#1079,#775,#776);
#667=AXIS2_PLACEMENT_3D('',#1134,#781,#782);
#668=AXIS2_PLACEMENT_3D('',#1149,#786,#787);
#669=AXIS2_PLACEMENT_3D('',#1189,#788,#789);
#670=AXIS2_PLACEMENT_3D('',#1192,#792,#793);
#671=AXIS2_PLACEMENT_3D('',#1195,#796,#797);
#672=AXIS2_PLACEMENT_3D('',#1196,#798,#799);
#673=AXIS2_PLACEMENT_3D('',#1197,#800,#801);
#674=AXIS2_PLACEMENT_3D('',#1203,#805,#806);
#675=AXIS2_PLACEMENT_3D('',#1207,#809,#810);
#676=AXIS2_PLACEMENT_3D('',#1209,#812,#813);
#677=AXIS2_PLACEMENT_3D('',#1222,#814,#815);
#678=DIRECTION('',(0.,0.,1.));
#679=DIRECTION('',(1.,0.,0.));
#680=DIRECTION('',(0.,0.,-1.));
#681=DIRECTION('',(-1.,0.,0.));
#682=DIRECTION('',(0.,0.,-1.));
#683=DIRECTION('',(0.,0.,-1.));
#684=DIRECTION('',(0.,0.,1.));
#685=DIRECTION('',(1.,0.,0.));
#686=DIRECTION('',(0.,0.,-1.));
#687=DIRECTION('',(0.,0.,1.));
#688=DIRECTION('',(1.,0.,0.));
#689=DIRECTION('',(0.,0.,-1.));
#690=DIRECTION('',(-1.,0.,0.));
#691=DIRECTION('',(0.,0.,-1.));
#692=DIRECTION('',(0.,0.,-1.));
#693=DIRECTION('',(-1.,0.,0.));
#694=DIRECTION('',(0.,0.,-1.));
#695=DIRECTION('',(0.,0.,-1.));
#696=DIRECTION('',(-1.,0.,0.));
#697=DIRECTION('',(0.,0.,1.));
#698=DIRECTION('',(1.,0.,0.));
#699=DIRECTION('',(0.,0.,-1.));
#700=DIRECTION('',(0.,0.,1.));
#701=DIRECTION('',(1.,0.,0.));
#702=DIRECTION('',(0.,0.,-1.));
#703=DIRECTION('',(0.,0.,-1.));
#704=DIRECTION('',(0.,0.,1.));
#705=DIRECTION('',(0.,0.,-1.));
#706=DIRECTION('',(0.,0.,1.));
#707=DIRECTION('',(0.,0.,1.));
#708=DIRECTION('',(1.,0.,0.));
#709=DIRECTION('',(0.,0.,1.));
#710=DIRECTION('',(0.987638729782156,-0.156747374569046,0.));
#711=DIRECTION('',(0.,0.,1.));
#712=DIRECTION('',(0.987638729782156,-0.156747374569046,0.));
#713=DIRECTION('',(-1.,0.,0.));
#714=DIRECTION('',(0.,1.,0.));
#715=DIRECTION('',(1.,0.,0.));
#716=DIRECTION('',(0.,0.,1.));
#717=DIRECTION('',(1.,0.,0.));
#718=DIRECTION('',(0.,1.,0.));
#719=DIRECTION('',(1.,0.,0.));
#720=DIRECTION('',(1.,0.,0.));
#721=DIRECTION('',(1.,0.,0.));
#722=DIRECTION('',(0.,1.,0.));
#723=DIRECTION('',(1.,0.,0.));
#724=DIRECTION('',(1.,0.,0.));
#725=DIRECTION('',(1.,0.,0.));
#726=DIRECTION('',(0.,0.,-1.));
#727=DIRECTION('',(1.,0.,0.));
#728=DIRECTION('',(0.,0.,-1.));
#729=DIRECTION('',(1.,0.,0.));
#730=DIRECTION('',(-1.,0.,0.));
#731=DIRECTION('',(0.,0.,1.));
#732=DIRECTION('',(0.,1.,0.));
#733=DIRECTION('',(0.,0.,-1.));
#734=DIRECTION('',(0.,0.,-1.));
#735=DIRECTION('',(0.,-1.,0.));
#736=DIRECTION('',(0.,0.,-1.));
#737=DIRECTION('',(-1.,0.,0.));
#738=DIRECTION('',(0.,0.,-1.));
#739=DIRECTION('',(0.,1.,0.));
#740=DIRECTION('',(0.,0.,1.));
#741=DIRECTION('',(1.,0.,0.));
#742=DIRECTION('',(0.,0.,1.));
#743=DIRECTION('',(1.,0.,0.));
#744=DIRECTION('',(0.,0.,1.));
#745=DIRECTION('',(0.987638729782156,-0.156747374569046,0.));
#746=DIRECTION('',(0.,0.,1.));
#747=DIRECTION('',(1.,0.,0.));
#748=DIRECTION('',(0.,0.,1.));
#749=DIRECTION('',(0.987638729782156,-0.156747374569046,0.));
#750=DIRECTION('',(0.,0.,-1.));
#751=DIRECTION('',(-1.,0.,0.));
#752=DIRECTION('',(0.,0.,1.));
#753=DIRECTION('',(0.,0.,1.));
#754=DIRECTION('',(1.,0.,0.));
#755=DIRECTION('',(0.,0.,-1.));
#756=DIRECTION('',(0.,0.,1.));
#757=DIRECTION('',(1.,0.,0.));
#758=DIRECTION('',(0.,0.,-1.));
#759=DIRECTION('',(0.,0.,1.));
#760=DIRECTION('',(1.,0.,0.));
#761=DIRECTION('',(0.,0.,-1.));
#762=DIRECTION('',(-1.,0.,0.));
#763=DIRECTION('',(0.,0.,1.));
#764=DIRECTION('',(1.,0.,0.));
#765=DIRECTION('',(0.,0.,-1.));
#766=DIRECTION('',(0.,0.,1.));
#767=DIRECTION('',(1.,0.,0.));
#768=DIRECTION('',(0.,0.,1.));
#769=DIRECTION('',(1.,0.,0.));
#770=DIRECTION('',(0.,0.,1.));
#771=DIRECTION('',(0.,0.,-1.));
#772=DIRECTION('',(0.,0.,-1.));
#773=DIRECTION('',(-1.,0.,0.));
#774=DIRECTION('',(0.,0.,-1.));
#775=DIRECTION('',(0.,0.,-1.));
#776=DIRECTION('',(-1.,0.,0.));
#777=DIRECTION('',(0.,0.,-1.));
#778=DIRECTION('',(0.,0.,-1.));
#779=DIRECTION('',(0.,0.,-1.));
#780=DIRECTION('',(0.,0.,1.));
#781=DIRECTION('',(0.,0.,1.));
#782=DIRECTION('',(1.,0.,0.));
#783=DIRECTION('',(1.,0.,0.));
#784=DIRECTION('',(0.,1.,0.));
#785=DIRECTION('',(-1.,0.,0.));
#786=DIRECTION('',(0.,0.,1.));
#787=DIRECTION('',(1.,0.,0.));
#788=DIRECTION('',(0.,1.,0.));
#789=DIRECTION('',(1.,0.,0.));
#790=DIRECTION('',(-1.,0.,0.));
#791=DIRECTION('',(-1.,0.,0.));
#792=DIRECTION('',(0.,1.,0.));
#793=DIRECTION('',(1.,0.,0.));
#794=DIRECTION('',(1.,0.,0.));
#795=DIRECTION('',(1.,0.,0.));
#796=DIRECTION('',(0.,0.,-1.));
#797=DIRECTION('',(1.,0.,0.));
#798=DIRECTION('',(0.,0.,-1.));
#799=DIRECTION('',(1.,0.,0.));
#800=DIRECTION('',(-1.,0.,0.));
#801=DIRECTION('',(0.,0.,1.));
#802=DIRECTION('',(0.,1.,0.));
#803=DIRECTION('',(0.,0.,-1.));
#804=DIRECTION('',(0.,0.,-1.));
#805=DIRECTION('',(0.,-1.,0.));
#806=DIRECTION('',(0.,0.,-1.));
#807=DIRECTION('',(-1.,0.,0.));
#808=DIRECTION('',(0.,0.,1.));
#809=DIRECTION('',(0.,1.,0.));
#810=DIRECTION('',(0.,0.,1.));
#811=DIRECTION('',(1.,0.,0.));
#812=DIRECTION('',(0.,0.,1.));
#813=DIRECTION('',(1.,0.,0.));
#814=DIRECTION('',(0.,0.,1.));
#815=DIRECTION('',(1.,0.,0.));
#816=CARTESIAN_POINT('',(0.,0.,0.));
#817=CARTESIAN_POINT('',(0.175070208290117,-0.134604813630976,0.02));
#818=CARTESIAN_POINT('',(0.182741988545747,-0.0961707839129378,0.02));
#819=CARTESIAN_POINT('',(0.182741988545747,-0.0961707839129378,0.02));
#820=CARTESIAN_POINT('',(0.182741988545747,-0.0961707839129378,0.01));
#821=CARTESIAN_POINT('',(0.182741988545747,-0.0961707839129378,0.02));
#822=CARTESIAN_POINT('',(0.182741988545747,-0.0961707839129378,-0.029));
#823=CARTESIAN_POINT('',(0.182741988545747,-0.0961707839129378,-0.029));
#824=CARTESIAN_POINT('',(0.182741988545747,-0.0961707839129378,-0.0298065801577622));
#825=CARTESIAN_POINT('',(0.183065180862436,-0.0962331972345355,-0.0313954736564218));
#826=CARTESIAN_POINT('',(0.184429594568049,-0.0965329496540267,-0.0334061200987762));
#827=CARTESIAN_POINT('',(0.186424152758137,-0.0970700902002517,-0.0347073720883104));
#828=CARTESIAN_POINT('',(0.187941806930847,-0.0975777654543698,-0.035));
#829=CARTESIAN_POINT('',(0.188697434886525,-0.0978579831833323,-0.035));
#830=CARTESIAN_POINT('',(0.188697434886525,-0.0978579831833323,-0.035));
#831=CARTESIAN_POINT('',(0.175070208290117,-0.134604813630976,-0.035));
#832=CARTESIAN_POINT('',(0.190154967003503,-0.0984318830444638,-0.035));
#833=CARTESIAN_POINT('',(0.190154967003503,-0.0984318830444638,0.02));
#834=CARTESIAN_POINT('',(0.190154967003503,-0.0984318830444638,0.02));
#835=CARTESIAN_POINT('',(0.175070208290117,-0.134604813630976,0.02));
#836=CARTESIAN_POINT('',(0.16265679854628,-0.0844695034045709,0.02));
#837=CARTESIAN_POINT('',(0.192868545594772,-0.078276955141679,0.02));
#838=CARTESIAN_POINT('',(0.192868545594772,-0.078276955141679,-0.015));
#839=CARTESIAN_POINT('',(0.192868545594772,-0.078276955141679,-0.025));
#840=CARTESIAN_POINT('',(0.16265679854628,-0.0844695034045709,-0.025));
#841=CARTESIAN_POINT('',(0.192898623098713,-0.0905134558737928,-0.025));
#842=CARTESIAN_POINT('',(0.192898623098713,-0.0905134558737928,0.02));
#843=CARTESIAN_POINT('',(0.192898623098713,-0.0905134558737928,-0.015));
#844=CARTESIAN_POINT('',(0.16265679854628,-0.0844695034045709,-0.015));
#845=CARTESIAN_POINT('',(0.16265679854628,-0.0844695034045709,-0.035));
#846=CARTESIAN_POINT('',(0.169130593512729,-0.0543167706520872,-0.035));
#847=CARTESIAN_POINT('',(0.169130593512729,-0.0543167706520872,-0.035));
#848=CARTESIAN_POINT('',(0.168125211260683,-0.0541009149743918,-0.035));
#849=CARTESIAN_POINT('',(0.166131343549362,-0.0537763898046578,-0.0348533178241677));
#850=CARTESIAN_POINT('',(0.16315559840984,-0.0535889172065006,-0.0339663109573872));
#851=CARTESIAN_POINT('',(0.160614437530296,-0.0536775123891329,-0.0320648023174985));
#852=CARTESIAN_POINT('',(0.159847655344281,-0.0537578439218762,-0.0300421161992519));
#853=CARTESIAN_POINT('',(0.159847655344281,-0.0537578439218762,-0.029));
#854=CARTESIAN_POINT('',(0.159847655344281,-0.0537578439218762,-0.029));
#855=CARTESIAN_POINT('',(0.159847655344281,-0.0537578439218762,0.02));
#856=CARTESIAN_POINT('',(0.159847655344281,-0.0537578439218762,0.02));
#857=CARTESIAN_POINT('',(0.16265679854628,-0.0844695034045709,0.02));
#858=CARTESIAN_POINT('',(0.159847655344281,-0.0537578439218762,0.02));
#859=CARTESIAN_POINT('',(0.159847655344281,-0.0537578439218762,-0.029));
#860=CARTESIAN_POINT('',(0.166405082027472,-0.0598299201859727,0.02));
#861=CARTESIAN_POINT('',(0.166405082027472,-0.0598299201859727,-0.029));
#862=CARTESIAN_POINT('',(0.178873222335146,-0.0723028957784105,0.02));
#863=CARTESIAN_POINT('',(0.178873222335146,-0.0723028957784105,-0.029));
#864=CARTESIAN_POINT('',(0.182985498864778,-0.0874046990938165,0.02));
#865=CARTESIAN_POINT('',(0.182985498864778,-0.0874046990938165,-0.029));
#866=CARTESIAN_POINT('',(0.182741988545747,-0.0961707839129378,0.02));
#867=CARTESIAN_POINT('',(0.182741988545747,-0.0961707839129378,-0.029));
#868=CARTESIAN_POINT('',(0.182568626325495,-0.0905134558737927,0.02));
#869=CARTESIAN_POINT('',(0.182568626325467,-0.0905134558734967,-0.015));
#870=CARTESIAN_POINT('',(0.182568626325467,-0.0905134558737928,-0.025));
#871=CARTESIAN_POINT('',(0.159847655344281,-0.0537578439218762,-0.025));
#872=CARTESIAN_POINT('',(0.166610963938897,-0.0600205636697613,-0.025));
#873=CARTESIAN_POINT('',(0.179035110837638,-0.072502870233812,-0.025));
#874=CARTESIAN_POINT('',(0.182977853431233,-0.0876799257010621,-0.025));
#875=CARTESIAN_POINT('',(0.182741988545747,-0.0961707839129378,-0.025));
#876=CARTESIAN_POINT('',(0.179509695284629,-0.078276955141679,-0.025));
#877=CARTESIAN_POINT('',(0.179509695285517,-0.078276955141679,0.02));
#878=CARTESIAN_POINT('',(0.179509695284629,-0.078276955141679,-0.015));
#879=CARTESIAN_POINT('',(0.159847655344281,-0.0537578439218762,-0.015));
#880=CARTESIAN_POINT('',(0.166610963938897,-0.0600205636697613,-0.015));
#881=CARTESIAN_POINT('',(0.179035110837638,-0.072502870233812,-0.015));
#882=CARTESIAN_POINT('',(0.182977853431233,-0.0876799257010621,-0.015));
#883=CARTESIAN_POINT('',(0.182741988545747,-0.0961707839129378,-0.015));
#884=CARTESIAN_POINT('',(0.159847655344281,-0.0537578439218762,0.01));
#885=CARTESIAN_POINT('',(0.166610963938897,-0.0600205636697613,0.01));
#886=CARTESIAN_POINT('',(0.179035110837638,-0.072502870233812,0.01));
#887=CARTESIAN_POINT('',(0.182977853431233,-0.0876799257010621,0.01));
#888=CARTESIAN_POINT('',(0.182741988545747,-0.0961707839129378,0.01));
#889=CARTESIAN_POINT('',(0.180772262019629,-0.0816595529709096,0.01));
#890=CARTESIAN_POINT('',(0.180772262019629,-0.0816595529709095,0.01));
#891=CARTESIAN_POINT('',(0.180772262019629,-0.0816595529709076,0.02));
#892=CARTESIAN_POINT('',(0.159847655344281,-0.0537578439218762,0.02));
#893=CARTESIAN_POINT('',(0.166610963938897,-0.0600205636697613,0.02));
#894=CARTESIAN_POINT('',(0.179035110837638,-0.072502870233812,0.02));
#895=CARTESIAN_POINT('',(0.182977853431233,-0.0876799257010621,0.02));
#896=CARTESIAN_POINT('',(0.182741988545747,-0.0961707839129378,0.02));
#897=CARTESIAN_POINT('',(0.177298479580708,-0.0738350003558479,0.02));
#898=CARTESIAN_POINT('',(0.177298479581748,-0.0738350003558479,0.02));
#899=CARTESIAN_POINT('',(0.177298479581748,-0.0738350003558479,0.01));
#900=CARTESIAN_POINT('',(0.159847655344281,-0.0537578439218762,0.01));
#901=CARTESIAN_POINT('',(0.166610963938897,-0.0600205636697613,0.01));
#902=CARTESIAN_POINT('',(0.179035110837638,-0.072502870233812,0.01));
#903=CARTESIAN_POINT('',(0.182977853431233,-0.0876799257010621,0.01));
#904=CARTESIAN_POINT('',(0.182741988545747,-0.0961707839129378,0.01));
#905=CARTESIAN_POINT('',(0.160021456626276,-0.0539188937763432,0.01));
#906=CARTESIAN_POINT('',(0.160021456626315,-0.053918893776375,0.01));
#907=CARTESIAN_POINT('',(0.160021456626276,-0.053918893776343,0.02));
#908=CARTESIAN_POINT('',(0.159847655344281,-0.0537578439218762,0.02));
#909=CARTESIAN_POINT('',(0.166610963938897,-0.0600205636697613,0.02));
#910=CARTESIAN_POINT('',(0.179035110837638,-0.072502870233812,0.02));
#911=CARTESIAN_POINT('',(0.182977853431233,-0.0876799257010621,0.02));
#912=CARTESIAN_POINT('',(0.182741988545747,-0.0961707839129378,0.02));
#913=CARTESIAN_POINT('',(0.159847655344281,-0.0537578439218762,-0.029));
#914=CARTESIAN_POINT('',(0.162906526866124,-0.05659031190971,-0.029));
#915=CARTESIAN_POINT('',(0.1674254008817,-0.0609201111169111,-0.029));
#916=CARTESIAN_POINT('',(0.172857078497594,-0.0671771809970279,-0.029));
#917=CARTESIAN_POINT('',(0.176507699023507,-0.0722421516475945,-0.029));
#918=CARTESIAN_POINT('',(0.179485436239062,-0.0778153092863272,-0.029));
#919=CARTESIAN_POINT('',(0.181526672680262,-0.0836531727388461,-0.029));
#920=CARTESIAN_POINT('',(0.182659872157829,-0.0898745085265091,-0.029));
#921=CARTESIAN_POINT('',(0.182800412791171,-0.0940675798560571,-0.029));
#922=CARTESIAN_POINT('',(0.182741988545747,-0.0961707839129378,-0.029));
#923=CARTESIAN_POINT('',(0.218029362888731,-0.120463024231546,0.02));
#924=CARTESIAN_POINT('',(0.0851591126763599,-0.08374,0.02));
#925=CARTESIAN_POINT('',(0.0851591126763599,-0.08374,0.02));
#926=CARTESIAN_POINT('',(0.174045117209249,-0.068672491294884,0.02));
#927=CARTESIAN_POINT('',(0.177989055694015,-0.068672491294884,0.02));
#928=CARTESIAN_POINT('',(0.181932994178781,-0.068672491294884,0.02));
#929=CARTESIAN_POINT('',(0.181932994178781,-0.0712537458253659,0.02));
#930=CARTESIAN_POINT('',(0.181932994178781,-0.0738350003558479,0.02));
#931=CARTESIAN_POINT('',(0.179613621241066,-0.0738350003558479,0.02));
#932=CARTESIAN_POINT('',(0.218029362888731,-0.120463024231546,-0.035));
#933=CARTESIAN_POINT('',(0.188697434886525,-0.0978579831833323,-0.035));
#934=CARTESIAN_POINT('',(0.188726220700459,-0.0968217277690368,-0.035));
#935=CARTESIAN_POINT('',(0.188793671172889,-0.0947480538868489,-0.035));
#936=CARTESIAN_POINT('',(0.188670853265934,-0.0906186164811797,-0.035));
#937=CARTESIAN_POINT('',(0.188052865699275,-0.08544310743657,-0.035));
#938=CARTESIAN_POINT('',(0.186514288120685,-0.0794773115896549,-0.035));
#939=CARTESIAN_POINT('',(0.184213482082739,-0.0738010606819394,-0.035));
#940=CARTESIAN_POINT('',(0.181127136075326,-0.0683678233718171,-0.035));
#941=CARTESIAN_POINT('',(0.176286018888403,-0.061726133477587,-0.035));
#942=CARTESIAN_POINT('',(0.17206672005557,-0.0572200483425432,-0.035));
#943=CARTESIAN_POINT('',(0.169130593512729,-0.0543167706520872,-0.035));
#944=CARTESIAN_POINT('',(0.163674627161158,-0.0491242685897235,-0.035));
#945=CARTESIAN_POINT('',(0.159598039848974,-0.0535267038119775,-0.035));
#946=CARTESIAN_POINT('',(0.159598039848974,-0.0535267038119775,-0.029));
#947=CARTESIAN_POINT('',(0.164551748276535,-0.0499364692536335,-0.035));
#948=CARTESIAN_POINT('',(0.160475160964436,-0.0543389044759324,-0.0350000000000059));
#949=CARTESIAN_POINT('',(0.160475160964406,-0.0543389044759067,-0.029));
#950=CARTESIAN_POINT('',(0.166300781916936,-0.0515667867331897,-0.035));
#951=CARTESIAN_POINT('',(0.162172583910376,-0.0559213011062782,-0.0349999999999974));
#952=CARTESIAN_POINT('',(0.162172583910389,-0.0559213011062899,-0.029));
#953=CARTESIAN_POINT('',(0.169744221136811,-0.0548838170943358,-0.035));
#954=CARTESIAN_POINT('',(0.165514988422285,-0.0591410590234615,-0.0350000000000015));
#955=CARTESIAN_POINT('',(0.165514988422277,-0.0591410590234548,-0.029));
#956=CARTESIAN_POINT('',(0.173898575414561,-0.0591566272592698,-0.035));
#957=CARTESIAN_POINT('',(0.169466162670378,-0.0632076550728919,-0.0349999999999995));
#958=CARTESIAN_POINT('',(0.169466162670381,-0.0632076550728942,-0.029));
#959=CARTESIAN_POINT('',(0.178487370507832,-0.0645990982980651,-0.035));
#960=CARTESIAN_POINT('',(0.173720918710077,-0.0682610799515889,-0.0350000000000001));
#961=CARTESIAN_POINT('',(0.173720918710076,-0.0682610799515884,-0.029));
#962=CARTESIAN_POINT('',(0.182535540294948,-0.0705595317183102,-0.035));
#963=CARTESIAN_POINT('',(0.177339573049772,-0.0736009457800512,-0.035));
#964=CARTESIAN_POINT('',(0.177339573049773,-0.0736009457800513,-0.029));
#965=CARTESIAN_POINT('',(0.185680731270486,-0.0770309071295121,-0.035));
#966=CARTESIAN_POINT('',(0.18007579194976,-0.0792407238208535,-0.035));
#967=CARTESIAN_POINT('',(0.18007579194976,-0.0792407238208535,-0.029));
#968=CARTESIAN_POINT('',(0.187767503420669,-0.0838224813603318,-0.035));
#969=CARTESIAN_POINT('',(0.18188791983978,-0.0851351448660819,-0.0350000000000001));
#970=CARTESIAN_POINT('',(0.18188791983978,-0.0851351448660818,-0.029));
#971=CARTESIAN_POINT('',(0.18854434711084,-0.0892216654330358,-0.035));
#972=CARTESIAN_POINT('',(0.182569142836539,-0.0898532368406383,-0.0349999999999999));
#973=CARTESIAN_POINT('',(0.18256914283654,-0.0898532368406386,-0.029));
#974=CARTESIAN_POINT('',(0.188735885721652,-0.0928073556762796,-0.035));
#975=CARTESIAN_POINT('',(0.182738673606333,-0.0930261813444792,-0.035));
#976=CARTESIAN_POINT('',(0.182738673606333,-0.093026181344479,-0.029));
#977=CARTESIAN_POINT('',(0.188764932021164,-0.0943039882247354,-0.035));
#978=CARTESIAN_POINT('',(0.182764624236967,-0.0943523453036767,-0.0349999999999999));
#979=CARTESIAN_POINT('',(0.182764624236968,-0.0943523453036774,-0.029));
#980=CARTESIAN_POINT('',(0.188759505817982,-0.0955019277870851,-0.035));
#981=CARTESIAN_POINT('',(0.182759592723432,-0.0954281895333794,-0.0350000000000002));
#982=CARTESIAN_POINT('',(0.182759592723431,-0.0954281895333783,-0.029));
#983=CARTESIAN_POINT('',(0.18873881970117,-0.0964009102886025,-0.035));
#984=CARTESIAN_POINT('',(0.182741732830509,-0.0962092990890176,-0.0349999999999991));
#985=CARTESIAN_POINT('',(0.182741732830516,-0.0962092990890219,-0.029));
#986=CARTESIAN_POINT('',(0.188712673803365,-0.0973000481984874,-0.035));
#987=CARTESIAN_POINT('',(0.182714816144404,-0.0971405841659794,-0.0350000000000035));
#988=CARTESIAN_POINT('',(0.182714816144379,-0.0971405841659634,-0.029));
#989=CARTESIAN_POINT('',(0.188696283163127,-0.0978994438701128,-0.035));
#990=CARTESIAN_POINT('',(0.182698596790373,-0.0977328360226525,-0.0349999999999926));
#991=CARTESIAN_POINT('',(0.182698596790427,-0.097732836022687,-0.029));
#992=CARTESIAN_POINT('',(0.188687957848208,-0.0981991454061621,-0.035));
#993=CARTESIAN_POINT('',(0.182690271475515,-0.0980325375587366,-0.035));
#994=CARTESIAN_POINT('',(0.182690271475515,-0.0980325375587366,-0.029));
#995=CARTESIAN_POINT('',(0.169360306325231,-0.0905134558737928,-0.02));
#996=CARTESIAN_POINT('',(0.0924087326965014,-0.0905134558737928,-0.025));
#997=CARTESIAN_POINT('',(0.0924087326965014,-0.0905134558737928,-0.015));
#998=CARTESIAN_POINT('',(0.169360306325231,-0.078276955141679,-0.02));
#999=CARTESIAN_POINT('',(0.0924087326965014,-0.078276955141679,-0.015));
#1000=CARTESIAN_POINT('',(0.0924087326965014,-0.078276955141679,-0.025));
#1001=CARTESIAN_POINT('',(0.0924087326965014,-0.08374,-0.025));
#1002=CARTESIAN_POINT('',(0.0924087326965014,-0.08374,-0.015));
#1003=CARTESIAN_POINT('',(0.181932994178781,-0.0712537458253659,0.02));
#1004=CARTESIAN_POINT('',(0.181932994178781,-0.0712537458253659,0.01));
#1005=CARTESIAN_POINT('',(0.181932994178781,-0.0738350003558479,0.01));
#1006=CARTESIAN_POINT('',(0.181932994178781,-0.068672491294884,0.01));
#1007=CARTESIAN_POINT('',(0.181932994178781,-0.0738350003558479,0.02));
#1008=CARTESIAN_POINT('',(0.181932994178781,-0.068672491294884,0.02));
#1009=CARTESIAN_POINT('',(0.177989055694015,-0.068672491294884,0.02));
#1010=CARTESIAN_POINT('',(0.177989055694015,-0.068672491294884,0.01));
#1011=CARTESIAN_POINT('',(0.174045117209249,-0.068672491294884,0.01));
#1012=CARTESIAN_POINT('',(0.174045117209249,-0.068672491294884,0.02));
#1013=CARTESIAN_POINT('',(0.179613621241066,-0.0738350003558479,0.02));
#1014=CARTESIAN_POINT('',(0.179613621241066,-0.0738350003558479,0.01));
#1015=CARTESIAN_POINT('',(0.0851591126763599,-0.08374,0.01));
#1016=CARTESIAN_POINT('',(0.0851591126763599,-0.08374,0.01));
#1017=CARTESIAN_POINT('',(0.174045117209249,-0.0686724912948841,0.01));
#1018=CARTESIAN_POINT('',(0.174045117209249,-0.0686724912948841,0.02));
#1019=CARTESIAN_POINT('',(0.170400960756401,-0.0635099078988201,0.01));
#1020=CARTESIAN_POINT('',(0.170400960756401,-0.0635099078988201,0.02));
#1021=CARTESIAN_POINT('',(0.165669481476847,-0.0585321533000949,0.01));
#1022=CARTESIAN_POINT('',(0.165669481476847,-0.0585321533000949,0.02));
#1023=CARTESIAN_POINT('',(0.160021456626276,-0.0539188937763433,0.01));
#1024=CARTESIAN_POINT('',(0.160021456626276,-0.0539188937763433,0.02));
#1025=CARTESIAN_POINT('',(0.0851591126763599,-0.08374,0.01));
#1026=CARTESIAN_POINT('',(0.0851591126763599,-0.08374,0.01));
#1027=CARTESIAN_POINT('',(0.182741988545747,-0.0961707839129378,0.01));
#1028=CARTESIAN_POINT('',(0.182741988545747,-0.0961707839129378,0.02));
#1029=CARTESIAN_POINT('',(0.183070959523509,-0.0914108210625197,0.01));
#1030=CARTESIAN_POINT('',(0.183070959523509,-0.0914108210625197,0.02));
#1031=CARTESIAN_POINT('',(0.182407734939051,-0.0865247594778827,0.01));
#1032=CARTESIAN_POINT('',(0.182407734939051,-0.0865247594778827,0.02));
#1033=CARTESIAN_POINT('',(0.18077226201963,-0.0816595529709096,0.01));
#1034=CARTESIAN_POINT('',(0.18077226201963,-0.0816595529709096,0.02));
#1035=CARTESIAN_POINT('',(0.175070208290117,-0.134604813630976,0.02));
#1036=CARTESIAN_POINT('',(0.185119880736762,-0.0943480229983116,0.015));
#1037=CARTESIAN_POINT('',(0.185119880736762,-0.0943480229983116,0.0177));
#1038=CARTESIAN_POINT('',(0.185119880736762,-0.0943480229983116,0.0077));
#1039=CARTESIAN_POINT('',(0.175070208290117,-0.134604813630976,0.0177));
#1040=CARTESIAN_POINT('',(0.188974063822393,-0.0955114905480681,0.0177));
#1041=CARTESIAN_POINT('',(0.188974063822393,-0.0955114905480681,0.0177));
#1042=CARTESIAN_POINT('',(0.188974063822393,-0.0955114905480681,-0.0327));
#1043=CARTESIAN_POINT('',(0.175070208290117,-0.134604813630976,-0.0327));
#1044=CARTESIAN_POINT('',(0.188757567015029,-0.0954351656945622,-0.0327));
#1045=CARTESIAN_POINT('',(0.185059530984902,-0.0943330053722639,-0.029));
#1046=CARTESIAN_POINT('',(0.185059530984902,-0.0943330053722639,-0.0299994726437415));
#1047=CARTESIAN_POINT('',(0.1859153918558,-0.094533754331721,-0.0319449167639385));
#1048=CARTESIAN_POINT('',(0.187815100282088,-0.0951058321176813,-0.0327));
#1049=CARTESIAN_POINT('',(0.188757567015029,-0.0954351656945622,-0.0327));
#1050=CARTESIAN_POINT('',(0.185059530984902,-0.0943330053722639,-0.029));
#1051=CARTESIAN_POINT('',(0.185059530984902,-0.0943330053722639,-0.0095));
#1052=CARTESIAN_POINT('',(0.185059530984902,-0.0943330053722639,0.0077));
#1053=CARTESIAN_POINT('',(0.175070208290117,-0.134604813630976,0.0077));
#1054=CARTESIAN_POINT('',(0.16265679854628,-0.0844695034045709,0.02));
#1055=CARTESIAN_POINT('',(0.16265679854628,-0.0844695034045709,0.0077));
#1056=CARTESIAN_POINT('',(0.166050271457303,-0.056132102795259,0.0077));
#1057=CARTESIAN_POINT('',(0.165652131982753,-0.0560872570295072,0.0077));
#1058=CARTESIAN_POINT('',(0.165652131982753,-0.0560872570295072,0.0177));
#1059=CARTESIAN_POINT('',(0.165652131982753,-0.0560872570295072,-0.029));
#1060=CARTESIAN_POINT('',(0.172378644325561,-0.0576365079263477,-0.0327));
#1061=CARTESIAN_POINT('',(0.171702860184147,-0.0573916649974898,-0.0327));
#1062=CARTESIAN_POINT('',(0.170349745785276,-0.0569588554195994,-0.0326185481129663));
#1063=CARTESIAN_POINT('',(0.168301860420552,-0.0564674621255792,-0.0321305869588727));
#1064=CARTESIAN_POINT('',(0.166389162038852,-0.0561595837139678,-0.0310751256367166));
#1065=CARTESIAN_POINT('',(0.165652131982753,-0.0560872570295072,-0.0297297704247303));
#1066=CARTESIAN_POINT('',(0.165652131982753,-0.0560872570295072,-0.029));
#1067=CARTESIAN_POINT('',(0.172378644325561,-0.0576365079263477,-0.0327));
#1068=CARTESIAN_POINT('',(0.16265679854628,-0.0844695034045709,-0.0327));
#1069=CARTESIAN_POINT('',(0.16265679854628,-0.0844695034045709,0.0177));
#1070=CARTESIAN_POINT('',(0.166050271457284,-0.0561321027952496,0.0177));
#1071=CARTESIAN_POINT('',(0.166050271457303,-0.056132102795259,0.0177));
#1072=CARTESIAN_POINT('',(0.189903826929076,-0.075976955141679,-0.0127));
#1073=CARTESIAN_POINT('',(0.189903826929076,-0.075976955141679,-0.0127));
#1074=CARTESIAN_POINT('',(0.189903826929076,-0.075976955141679,-0.0273));
#1075=CARTESIAN_POINT('',(0.16265679854628,-0.0844695034045709,-0.0127));
#1076=CARTESIAN_POINT('',(0.189949698518285,-0.0928134558737927,-0.0127));
#1077=CARTESIAN_POINT('',(0.189949698518285,-0.0928134558737927,-0.0273));
#1078=CARTESIAN_POINT('',(0.189949698518285,-0.0928134558737927,-0.0273));
#1079=CARTESIAN_POINT('',(0.16265679854628,-0.0844695034045709,-0.0273));
#1080=CARTESIAN_POINT('',(0.165652131982754,-0.056087257029507,0.0177));
#1081=CARTESIAN_POINT('',(0.165652131982754,-0.056087257029507,-0.029));
#1082=CARTESIAN_POINT('',(0.168400742317109,-0.0587644364196057,0.0177));
#1083=CARTESIAN_POINT('',(0.168400742317109,-0.0587644364196057,-0.029));
#1084=CARTESIAN_POINT('',(0.173671849641729,-0.0642517073327561,0.0177));
#1085=CARTESIAN_POINT('',(0.173671849641729,-0.0642517073327561,-0.029));
#1086=CARTESIAN_POINT('',(0.182225990801897,-0.0762143549690728,0.0177));
#1087=CARTESIAN_POINT('',(0.182225990801897,-0.0762143549690728,-0.029));
#1088=CARTESIAN_POINT('',(0.18499239041828,-0.0866169851430819,0.0177));
#1089=CARTESIAN_POINT('',(0.18499239041828,-0.0866169851430819,-0.029));
#1090=CARTESIAN_POINT('',(0.185059530984902,-0.0943330053722639,0.0177));
#1091=CARTESIAN_POINT('',(0.185059530984902,-0.0943330053722639,-0.029));
#1092=CARTESIAN_POINT('',(0.185023296032854,-0.0928134558737928,-0.0127));
#1093=CARTESIAN_POINT('',(0.185023296032854,-0.0928134558737928,-0.0127));
#1094=CARTESIAN_POINT('',(0.185023296032854,-0.0928134558737928,-0.0273));
#1095=CARTESIAN_POINT('',(0.185023296032854,-0.0928134558737928,-0.0127));
#1096=CARTESIAN_POINT('',(0.184792944516549,-0.086936045618087,-0.0127));
#1097=CARTESIAN_POINT('',(0.183497564475953,-0.0813130576160005,-0.0127));
#1098=CARTESIAN_POINT('',(0.181001262480108,-0.075976955141679,-0.0127));
#1099=CARTESIAN_POINT('',(0.181001262480108,-0.075976955141679,-0.0127));
#1100=CARTESIAN_POINT('',(0.181001262480108,-0.075976955141679,-0.0273));
#1101=CARTESIAN_POINT('',(0.181001262480108,-0.075976955141679,-0.0273));
#1102=CARTESIAN_POINT('',(0.185023296032854,-0.0928134558737928,-0.0273));
#1103=CARTESIAN_POINT('',(0.184792944516549,-0.086936045618087,-0.0273));
#1104=CARTESIAN_POINT('',(0.183497564475953,-0.0813130576160005,-0.0273));
#1105=CARTESIAN_POINT('',(0.181001262480108,-0.075976955141679,-0.0273));
#1106=CARTESIAN_POINT('',(0.182956862807702,-0.0809400340916739,0.0077));
#1107=CARTESIAN_POINT('',(0.184348837504403,-0.0852502707755757,0.0077));
#1108=CARTESIAN_POINT('',(0.18502015378975,-0.0898076453754023,0.0077));
#1109=CARTESIAN_POINT('',(0.185059530984902,-0.0943330053722639,0.0077));
#1110=CARTESIAN_POINT('',(0.182956862807702,-0.0809400340916739,0.0077));
#1111=CARTESIAN_POINT('',(0.165652131982753,-0.0560872570295072,-0.029));
#1112=CARTESIAN_POINT('',(0.1682957912145,-0.0586622127885,-0.029));
#1113=CARTESIAN_POINT('',(0.172129408615923,-0.0626387234234494,-0.029));
#1114=CARTESIAN_POINT('',(0.176648748762918,-0.0684082473036711,-0.029));
#1115=CARTESIAN_POINT('',(0.179656686127801,-0.0731029150407326,-0.029));
#1116=CARTESIAN_POINT('',(0.182047737985411,-0.0780878090741882,-0.029));
#1117=CARTESIAN_POINT('',(0.184340207177853,-0.0850251696250181,-0.029));
#1118=CARTESIAN_POINT('',(0.185027162415329,-0.0906131002511206,-0.029));
#1119=CARTESIAN_POINT('',(0.185059530984902,-0.0943330053722639,-0.029));
#1120=CARTESIAN_POINT('',(0.165652131982754,-0.0560872570295071,0.00770000000000001));
#1121=CARTESIAN_POINT('',(0.168693456962658,-0.0590495439906751,0.00770000000000001));
#1122=CARTESIAN_POINT('',(0.174597520033953,-0.0652220898060778,0.00769999999999999));
#1123=CARTESIAN_POINT('',(0.179279471936166,-0.0722569583673724,0.0077));
#1124=CARTESIAN_POINT('',(0.18107481368551,-0.0761350003558479,0.0077));
#1125=CARTESIAN_POINT('',(0.18107481368551,-0.0761350003558479,0.0077));
#1126=CARTESIAN_POINT('',(0.18107481368551,-0.0761350003558479,0.0077));
#1127=CARTESIAN_POINT('',(0.18107481368551,-0.076135000355848,0.0177));
#1128=CARTESIAN_POINT('',(0.18107481368551,-0.076135000355848,0.0177));
#1129=CARTESIAN_POINT('',(0.181798790090101,-0.0776988312513833,0.0177));
#1130=CARTESIAN_POINT('',(0.182427244653595,-0.0793000764101831,0.0177));
#1131=CARTESIAN_POINT('',(0.182956862807702,-0.0809400340916731,0.0177));
#1132=CARTESIAN_POINT('',(0.182956862807702,-0.0809400340916732,0.0177));
#1133=CARTESIAN_POINT('',(0.182956862807702,-0.0809400340916739,0.0077));
#1134=CARTESIAN_POINT('',(0.218029362888731,-0.120463024231546,0.0177));
#1135=CARTESIAN_POINT('',(0.185119880736762,-0.0943480229983116,0.0177));
#1136=CARTESIAN_POINT('',(0.185189763592462,-0.0897511047485791,0.0177));
#1137=CARTESIAN_POINT('',(0.184417630277289,-0.0852900231322775,0.0177));
#1138=CARTESIAN_POINT('',(0.182956862807702,-0.0809400340916732,0.0177));
#1139=CARTESIAN_POINT('',(0.179613621241066,-0.0761350003558479,0.0177));
#1140=CARTESIAN_POINT('',(0.184232994178781,-0.0761350003558479,0.0177));
#1141=CARTESIAN_POINT('',(0.184232994178781,-0.0712537458253659,0.0177));
#1142=CARTESIAN_POINT('',(0.184232994178781,-0.066372491294884,0.0177));
#1143=CARTESIAN_POINT('',(0.177989055694015,-0.066372491294884,0.0177));
#1144=CARTESIAN_POINT('',(0.175222988117408,-0.066372491294884,0.0177));
#1145=CARTESIAN_POINT('',(0.175222988117408,-0.066372491294884,0.0177));
#1146=CARTESIAN_POINT('',(0.172487562374993,-0.0626482021699782,0.0177));
#1147=CARTESIAN_POINT('',(0.169398850909527,-0.0592647843530994,0.0177));
#1148=CARTESIAN_POINT('',(0.166050271457288,-0.0561321027952457,0.0177));
#1149=CARTESIAN_POINT('',(0.218029362888731,-0.120463024231546,-0.0327));
#1150=CARTESIAN_POINT('',(0.188757567015029,-0.0954351656945622,-0.0327));
#1151=CARTESIAN_POINT('',(0.188778606283392,-0.0936564214426824,-0.0327));
#1152=CARTESIAN_POINT('',(0.188652560089458,-0.0901149775256219,-0.0327));
#1153=CARTESIAN_POINT('',(0.187638434231663,-0.0830491563404357,-0.0327));
#1154=CARTESIAN_POINT('',(0.185482140352278,-0.0764074962234522,-0.0327));
#1155=CARTESIAN_POINT('',(0.182188611171946,-0.0701261924102352,-0.0327));
#1156=CARTESIAN_POINT('',(0.178259721034489,-0.0642280062375936,-0.0327));
#1157=CARTESIAN_POINT('',(0.174810256424105,-0.0602153271942379,-0.0327));
#1158=CARTESIAN_POINT('',(0.172378644325561,-0.0576365079263477,-0.0327));
#1159=CARTESIAN_POINT('',(0.168025956196197,-0.0532346754696842,-0.0327));
#1160=CARTESIAN_POINT('',(0.165448644954981,-0.0558893820007157,-0.0327));
#1161=CARTESIAN_POINT('',(0.165448644954981,-0.0558893820007157,-0.029));
#1162=CARTESIAN_POINT('',(0.170949293361151,-0.056072785689145,-0.0327));
#1163=CARTESIAN_POINT('',(0.168312035360416,-0.0586692931487693,-0.03269999999994));
#1164=CARTESIAN_POINT('',(0.168312035361175,-0.0586692931493152,-0.0290000000000777));
#1165=CARTESIAN_POINT('',(0.175180871032085,-0.060464389674601,-0.0327));
#1166=CARTESIAN_POINT('',(0.172406421004384,-0.062924559009473,-0.0327000000000136));
#1167=CARTESIAN_POINT('',(0.172406421004212,-0.0629245590093495,-0.0289999999999824));
#1168=CARTESIAN_POINT('',(0.180120058267582,-0.0668842565810708,-0.0327));
#1169=CARTESIAN_POINT('',(0.177081660049614,-0.0690073097839343,-0.0326999999999974));
#1170=CARTESIAN_POINT('',(0.177081660049648,-0.0690073097839579,-0.0290000000000033));
#1171=CARTESIAN_POINT('',(0.183366216591766,-0.0721427832113533,-0.0327));
#1172=CARTESIAN_POINT('',(0.180094678293753,-0.0738924856394748,-0.032700000000001));
#1173=CARTESIAN_POINT('',(0.18009467829374,-0.0738924856394668,-0.0289999999999989));
#1174=CARTESIAN_POINT('',(0.185880763031749,-0.0776934866163649,-0.0327));
#1175=CARTESIAN_POINT('',(0.182408474009588,-0.0790025318626101,-0.0326999999999988));
#1176=CARTESIAN_POINT('',(0.182408474009605,-0.0790025318626185,-0.0290000000000009));
#1177=CARTESIAN_POINT('',(0.187641496118943,-0.0834956310500663,-0.0327));
#1178=CARTESIAN_POINT('',(0.184026062850079,-0.0843323124108441,-0.0327000000000038));
#1179=CARTESIAN_POINT('',(0.184026062850023,-0.0843323124108182,-0.0289999999999973));
#1180=CARTESIAN_POINT('',(0.188637220492242,-0.0896033471588606,-0.0327));
#1181=CARTESIAN_POINT('',(0.184945011047433,-0.089962166111081,-0.0326999999999861));
#1182=CARTESIAN_POINT('',(0.184945011047642,-0.089962166111176,-0.0290000000000099));
#1183=CARTESIAN_POINT('',(0.188788128772183,-0.0936821913843909,-0.0327));
#1184=CARTESIAN_POINT('',(0.185086382847345,-0.0937534032663634,-0.0327000000000301));
#1185=CARTESIAN_POINT('',(0.185086382846896,-0.0937534032661591,-0.0289999999999787));
#1186=CARTESIAN_POINT('',(0.188753373937538,-0.0957259554398503,-0.0327));
#1187=CARTESIAN_POINT('',(0.185053908805374,-0.0956630449009714,-0.0327));
#1188=CARTESIAN_POINT('',(0.185053908805374,-0.0956630449009714,-0.029));
#1189=CARTESIAN_POINT('',(0.169360306325231,-0.0928134558737927,-0.02));
#1190=CARTESIAN_POINT('',(0.169360306325231,-0.0928134558737927,-0.0273));
#1191=CARTESIAN_POINT('',(0.169360306325231,-0.0928134558737927,-0.0127));
#1192=CARTESIAN_POINT('',(0.169360306325231,-0.075976955141679,-0.02));
#1193=CARTESIAN_POINT('',(0.0924087326965014,-0.075976955141679,-0.0127));
#1194=CARTESIAN_POINT('',(0.0924087326965014,-0.075976955141679,-0.0273));
#1195=CARTESIAN_POINT('',(0.0924087326965014,-0.08374,-0.0273));
#1196=CARTESIAN_POINT('',(0.0924087326965014,-0.08374,-0.0127));
#1197=CARTESIAN_POINT('',(0.184232994178781,-0.0712537458253659,0.02));
#1198=CARTESIAN_POINT('',(0.184232994178781,-0.0712537458253659,0.0077));
#1199=CARTESIAN_POINT('',(0.184232994178781,-0.0761350003558479,0.0077));
#1200=CARTESIAN_POINT('',(0.184232994178781,-0.066372491294884,0.0077));
#1201=CARTESIAN_POINT('',(0.184232994178781,-0.066372491294884,0.02));
#1202=CARTESIAN_POINT('',(0.184232994178781,-0.0761350003558479,0.02));
#1203=CARTESIAN_POINT('',(0.177989055694015,-0.066372491294884,0.02));
#1204=CARTESIAN_POINT('',(0.177989055694015,-0.066372491294884,0.0077));
#1205=CARTESIAN_POINT('',(0.175222988117408,-0.066372491294884,0.0077));
#1206=CARTESIAN_POINT('',(0.175222988117408,-0.066372491294884,0.0177));
#1207=CARTESIAN_POINT('',(0.179613621241066,-0.0761350003558479,0.02));
#1208=CARTESIAN_POINT('',(0.179613621241066,-0.0761350003558479,0.0077));
#1209=CARTESIAN_POINT('',(0.0851591126763599,-0.08374,0.0077));
#1210=CARTESIAN_POINT('',(0.175222988117408,-0.066372491294884,0.0077));
#1211=CARTESIAN_POINT('',(0.172487562374997,-0.0626482021699835,0.0077));
#1212=CARTESIAN_POINT('',(0.169398850909535,-0.059264784353109,0.0077));
#1213=CARTESIAN_POINT('',(0.166050271457302,-0.0561321027952591,0.0077));
#1214=CARTESIAN_POINT('',(0.175222988117408,-0.0663724912948841,0.0077));
#1215=CARTESIAN_POINT('',(0.175222988117408,-0.0663724912948841,0.0177));
#1216=CARTESIAN_POINT('',(0.172624931732081,-0.0628352309000093,0.0077));
#1217=CARTESIAN_POINT('',(0.172624931732081,-0.0628352309000093,0.0177));
#1218=CARTESIAN_POINT('',(0.169549843981548,-0.0594060422264248,0.0077));
#1219=CARTESIAN_POINT('',(0.169549843981548,-0.0594060422264248,0.0177));
#1220=CARTESIAN_POINT('',(0.166050271457288,-0.0561321027952454,0.0077));
#1221=CARTESIAN_POINT('',(0.166050271457288,-0.0561321027952454,0.0177));
#1222=CARTESIAN_POINT('',(0.0851591126763599,-0.08374,0.0077));
#1223=CARTESIAN_POINT('',(0.182956862807702,-0.0809400340916739,0.0077));
#1224=CARTESIAN_POINT('',(0.184397589076932,-0.0852303428589092,0.0077));
#1225=CARTESIAN_POINT('',(0.18518913422065,-0.0897925050425133,0.0077));
#1226=CARTESIAN_POINT('',(0.185119880736762,-0.0943480229983116,0.0077));
#1227=CARTESIAN_POINT('',(0.185119880736762,-0.0943480229983116,0.0077));
#1228=CARTESIAN_POINT('',(0.185119880736762,-0.0943480229983116,0.0177));
#1229=CARTESIAN_POINT('',(0.18518738079043,-0.0899078462845749,0.0077));
#1230=CARTESIAN_POINT('',(0.18518738079043,-0.0899078462845749,0.0177));
#1231=CARTESIAN_POINT('',(0.18445376441045,-0.0853976262152567,0.0077));
#1232=CARTESIAN_POINT('',(0.18445376441045,-0.0853976262152567,0.0177));
#1233=CARTESIAN_POINT('',(0.182956862807702,-0.0809400340916732,0.0077));
#1234=CARTESIAN_POINT('',(0.182956862807702,-0.0809400340916732,0.0177));
#1235=MECHANICAL_DESIGN_GEOMETRIC_PRESENTATION_REPRESENTATION('',(#622),
#1236);
#1236=(
GEOMETRIC_REPRESENTATION_CONTEXT(3)
GLOBAL_UNCERTAINTY_ASSIGNED_CONTEXT((#1237))
GLOBAL_UNIT_ASSIGNED_CONTEXT((#1240,#1239,#1238))
REPRESENTATION_CONTEXT('Body_Butt_Left','TOP_LEVEL_ASSEMBLY_PART')
);
#1237=UNCERTAINTY_MEASURE_WITH_UNIT(LENGTH_MEASURE(2.E-5),#1240,
'DISTANCE_ACCURACY_VALUE','Maximum Tolerance applied to model');
#1238=(
NAMED_UNIT(*)
SI_UNIT($,.STERADIAN.)
SOLID_ANGLE_UNIT()
);
#1239=(
NAMED_UNIT(*)
PLANE_ANGLE_UNIT()
SI_UNIT($,.RADIAN.)
);
#1240=(
LENGTH_UNIT()
NAMED_UNIT(*)
SI_UNIT($,.METRE.)
);
#1241=PRODUCT_DEFINITION_SHAPE('','',#1242);
#1242=PRODUCT_DEFINITION('','',#1244,#1243);
#1243=PRODUCT_DEFINITION_CONTEXT('',#1250,'design');
#1244=PRODUCT_DEFINITION_FORMATION_WITH_SPECIFIED_SOURCE('','',#1246,
 .NOT_KNOWN.);
#1245=PRODUCT_RELATED_PRODUCT_CATEGORY('','',(#1246));
#1246=PRODUCT('Body_Butt_Left','Body_Butt_Left','Body_Butt_Left',(#1248));
#1247=PRODUCT_CATEGORY('','');
#1248=PRODUCT_CONTEXT('',#1250,'mechanical');
#1249=APPLICATION_PROTOCOL_DEFINITION('international standard',
'ap242_managed_model_based_3d_engineering',2020,#1250);
#1250=APPLICATION_CONTEXT('managed model based 3d engineering');
ENDSEC;
END-ISO-10303-21;
