ISO-10303-21;
HEADER;
/* Generated by software containing ST-Developer
 * from STEP Tools, Inc. (www.steptools.com) 
 */
/* OPTION: using custom renumber hook */

FILE_DESCRIPTION(
/* description */ ('STEP AP242 Edition 2',
'CAx-IF Rec.Pracs.---Representation and Presentation of Product Manufa
cturing Information (PMI)---4.0---2014-10-13',
'CAx-IF Rec.Pracs.---3D Tessellated Geometry---0.4---2014-09-14','2;1',
'CAx-IF Rec.Pracs.---User Defined Attributes---1.5---2016-08-15'),
/* implementation_level */ '2;1');

FILE_NAME(
/* name */ 'Part Studio 1 - Body_Bottom Case_Red',
/* time_stamp */ '2026-06-21T21:08:36Z',
/* author */ (''),
/* organization */ (''),
/* preprocessor_version */ 'ST-DEVELOPER v20',
/* originating_system */ 'ONSHAPE BY PTC INC, 1.216',
/* authorisation */ '  ');

FILE_SCHEMA (('AP242_MANAGED_MODEL_BASED_3D_ENGINEERING_MIM_LF { 1 0 10303 442 3 1 4 }'));
ENDSEC;

DATA;
#10=SHAPE_REPRESENTATION_RELATIONSHIP('','',#319,#11);
#11=ADVANCED_BREP_SHAPE_REPRESENTATION('',(#317),#555);
#12=PLANE('',#327);
#13=PLANE('',#328);
#14=PLANE('',#329);
#15=PLANE('',#330);
#16=PLANE('',#331);
#17=PLANE('',#332);
#18=PLANE('',#333);
#19=PLANE('',#334);
#20=PLANE('',#335);
#21=PLANE('',#336);
#22=PLANE('',#337);
#23=PLANE('',#338);
#24=PLANE('',#339);
#25=LINE('',#442,#61);
#26=LINE('',#446,#62);
#27=LINE('',#457,#63);
#28=LINE('',#462,#64);
#29=LINE('',#487,#65);
#30=LINE('',#492,#66);
#31=LINE('',#496,#67);
#32=LINE('',#499,#68);
#33=LINE('',#501,#69);
#34=LINE('',#502,#70);
#35=LINE('',#504,#71);
#36=LINE('',#506,#72);
#37=LINE('',#508,#73);
#38=LINE('',#510,#74);
#39=LINE('',#511,#75);
#40=LINE('',#512,#76);
#41=LINE('',#514,#77);
#42=LINE('',#516,#78);
#43=LINE('',#518,#79);
#44=LINE('',#520,#80);
#45=LINE('',#522,#81);
#46=LINE('',#524,#82);
#47=LINE('',#525,#83);
#48=LINE('',#526,#84);
#49=LINE('',#528,#85);
#50=LINE('',#530,#86);
#51=LINE('',#532,#87);
#52=LINE('',#534,#88);
#53=LINE('',#537,#89);
#54=LINE('',#538,#90);
#55=LINE('',#540,#91);
#56=LINE('',#542,#92);
#57=LINE('',#544,#93);
#58=LINE('',#546,#94);
#59=LINE('',#547,#95);
#60=LINE('',#549,#96);
#61=VECTOR('',#344,1.);
#62=VECTOR('',#347,1.);
#63=VECTOR('',#348,1.);
#64=VECTOR('',#351,1.);
#65=VECTOR('',#354,1.);
#66=VECTOR('',#357,1.);
#67=VECTOR('',#362,1.);
#68=VECTOR('',#363,1.);
#69=VECTOR('',#364,1.);
#70=VECTOR('',#365,1.);
#71=VECTOR('',#366,1.);
#72=VECTOR('',#367,1.);
#73=VECTOR('',#368,1.);
#74=VECTOR('',#369,1.);
#75=VECTOR('',#370,1.);
#76=VECTOR('',#371,1.);
#77=VECTOR('',#372,1.);
#78=VECTOR('',#375,1.);
#79=VECTOR('',#376,1.);
#80=VECTOR('',#377,1.);
#81=VECTOR('',#378,1.);
#82=VECTOR('',#379,1.);
#83=VECTOR('',#380,1.);
#84=VECTOR('',#381,1.);
#85=VECTOR('',#382,1.);
#86=VECTOR('',#383,1.);
#87=VECTOR('',#384,1.);
#88=VECTOR('',#385,1.);
#89=VECTOR('',#390,1.);
#90=VECTOR('',#391,1.);
#91=VECTOR('',#394,1.);
#92=VECTOR('',#397,1.);
#93=VECTOR('',#400,1.);
#94=VECTOR('',#403,1.);
#95=VECTOR('',#404,1.);
#96=VECTOR('',#407,1.);
#97=ORIENTED_EDGE('',*,*,#181,.F.);
#98=ORIENTED_EDGE('',*,*,#182,.T.);
#99=ORIENTED_EDGE('',*,*,#183,.T.);
#100=ORIENTED_EDGE('',*,*,#184,.F.);
#101=ORIENTED_EDGE('',*,*,#185,.F.);
#102=ORIENTED_EDGE('',*,*,#186,.F.);
#103=ORIENTED_EDGE('',*,*,#187,.T.);
#104=ORIENTED_EDGE('',*,*,#188,.T.);
#105=ORIENTED_EDGE('',*,*,#189,.F.);
#106=ORIENTED_EDGE('',*,*,#190,.F.);
#107=ORIENTED_EDGE('',*,*,#191,.F.);
#108=ORIENTED_EDGE('',*,*,#192,.T.);
#109=ORIENTED_EDGE('',*,*,#193,.T.);
#110=ORIENTED_EDGE('',*,*,#194,.T.);
#111=ORIENTED_EDGE('',*,*,#195,.T.);
#112=ORIENTED_EDGE('',*,*,#186,.T.);
#113=ORIENTED_EDGE('',*,*,#196,.T.);
#114=ORIENTED_EDGE('',*,*,#197,.T.);
#115=ORIENTED_EDGE('',*,*,#198,.T.);
#116=ORIENTED_EDGE('',*,*,#199,.T.);
#117=ORIENTED_EDGE('',*,*,#200,.T.);
#118=ORIENTED_EDGE('',*,*,#181,.T.);
#119=ORIENTED_EDGE('',*,*,#201,.F.);
#120=ORIENTED_EDGE('',*,*,#190,.T.);
#121=ORIENTED_EDGE('',*,*,#202,.T.);
#122=ORIENTED_EDGE('',*,*,#203,.T.);
#123=ORIENTED_EDGE('',*,*,#204,.F.);
#124=ORIENTED_EDGE('',*,*,#205,.T.);
#125=ORIENTED_EDGE('',*,*,#206,.F.);
#126=ORIENTED_EDGE('',*,*,#207,.T.);
#127=ORIENTED_EDGE('',*,*,#208,.F.);
#128=ORIENTED_EDGE('',*,*,#192,.F.);
#129=ORIENTED_EDGE('',*,*,#209,.T.);
#130=ORIENTED_EDGE('',*,*,#183,.F.);
#131=ORIENTED_EDGE('',*,*,#210,.F.);
#132=ORIENTED_EDGE('',*,*,#211,.T.);
#133=ORIENTED_EDGE('',*,*,#212,.F.);
#134=ORIENTED_EDGE('',*,*,#213,.T.);
#135=ORIENTED_EDGE('',*,*,#214,.F.);
#136=ORIENTED_EDGE('',*,*,#188,.F.);
#137=ORIENTED_EDGE('',*,*,#201,.T.);
#138=ORIENTED_EDGE('',*,*,#184,.T.);
#139=ORIENTED_EDGE('',*,*,#209,.F.);
#140=ORIENTED_EDGE('',*,*,#191,.T.);
#141=ORIENTED_EDGE('',*,*,#206,.T.);
#142=ORIENTED_EDGE('',*,*,#215,.T.);
#143=ORIENTED_EDGE('',*,*,#193,.F.);
#144=ORIENTED_EDGE('',*,*,#216,.T.);
#145=ORIENTED_EDGE('',*,*,#195,.F.);
#146=ORIENTED_EDGE('',*,*,#217,.T.);
#147=ORIENTED_EDGE('',*,*,#204,.T.);
#148=ORIENTED_EDGE('',*,*,#187,.F.);
#149=ORIENTED_EDGE('',*,*,#208,.T.);
#150=ORIENTED_EDGE('',*,*,#218,.T.);
#151=ORIENTED_EDGE('',*,*,#202,.F.);
#152=ORIENTED_EDGE('',*,*,#189,.T.);
#153=ORIENTED_EDGE('',*,*,#200,.F.);
#154=ORIENTED_EDGE('',*,*,#219,.T.);
#155=ORIENTED_EDGE('',*,*,#210,.T.);
#156=ORIENTED_EDGE('',*,*,#182,.F.);
#157=ORIENTED_EDGE('',*,*,#212,.T.);
#158=ORIENTED_EDGE('',*,*,#220,.T.);
#159=ORIENTED_EDGE('',*,*,#198,.F.);
#160=ORIENTED_EDGE('',*,*,#221,.T.);
#161=ORIENTED_EDGE('',*,*,#214,.T.);
#162=ORIENTED_EDGE('',*,*,#222,.T.);
#163=ORIENTED_EDGE('',*,*,#196,.F.);
#164=ORIENTED_EDGE('',*,*,#185,.T.);
#165=ORIENTED_EDGE('',*,*,#194,.F.);
#166=ORIENTED_EDGE('',*,*,#215,.F.);
#167=ORIENTED_EDGE('',*,*,#205,.F.);
#168=ORIENTED_EDGE('',*,*,#217,.F.);
#169=ORIENTED_EDGE('',*,*,#203,.F.);
#170=ORIENTED_EDGE('',*,*,#218,.F.);
#171=ORIENTED_EDGE('',*,*,#207,.F.);
#172=ORIENTED_EDGE('',*,*,#216,.F.);
#173=ORIENTED_EDGE('',*,*,#199,.F.);
#174=ORIENTED_EDGE('',*,*,#220,.F.);
#175=ORIENTED_EDGE('',*,*,#211,.F.);
#176=ORIENTED_EDGE('',*,*,#219,.F.);
#177=ORIENTED_EDGE('',*,*,#197,.F.);
#178=ORIENTED_EDGE('',*,*,#222,.F.);
#179=ORIENTED_EDGE('',*,*,#213,.F.);
#180=ORIENTED_EDGE('',*,*,#221,.F.);
#181=EDGE_CURVE('',#223,#224,#251,.T.);
#182=EDGE_CURVE('',#223,#225,#25,.T.);
#183=EDGE_CURVE('',#225,#226,#252,.T.);
#184=EDGE_CURVE('',#224,#226,#26,.F.);
#185=EDGE_CURVE('',#227,#228,#27,.T.);
#186=EDGE_CURVE('',#229,#227,#253,.T.);
#187=EDGE_CURVE('',#229,#230,#28,.T.);
#188=EDGE_CURVE('',#230,#228,#254,.T.);
#189=EDGE_CURVE('',#231,#232,#29,.T.);
#190=EDGE_CURVE('',#233,#231,#255,.T.);
#191=EDGE_CURVE('',#234,#233,#30,.T.);
#192=EDGE_CURVE('',#234,#232,#256,.T.);
#193=EDGE_CURVE('',#235,#236,#31,.T.);
#194=EDGE_CURVE('',#236,#237,#32,.F.);
#195=EDGE_CURVE('',#237,#229,#33,.T.);
#196=EDGE_CURVE('',#227,#238,#34,.T.);
#197=EDGE_CURVE('',#238,#239,#35,.F.);
#198=EDGE_CURVE('',#239,#240,#36,.T.);
#199=EDGE_CURVE('',#240,#241,#37,.F.);
#200=EDGE_CURVE('',#241,#223,#38,.T.);
#201=EDGE_CURVE('',#233,#224,#39,.T.);
#202=EDGE_CURVE('',#231,#242,#40,.T.);
#203=EDGE_CURVE('',#242,#235,#41,.F.);
#204=EDGE_CURVE('',#243,#230,#42,.T.);
#205=EDGE_CURVE('',#243,#244,#43,.F.);
#206=EDGE_CURVE('',#245,#244,#44,.T.);
#207=EDGE_CURVE('',#245,#246,#45,.F.);
#208=EDGE_CURVE('',#232,#246,#46,.T.);
#209=EDGE_CURVE('',#234,#226,#47,.T.);
#210=EDGE_CURVE('',#247,#225,#48,.T.);
#211=EDGE_CURVE('',#247,#248,#49,.F.);
#212=EDGE_CURVE('',#249,#248,#50,.T.);
#213=EDGE_CURVE('',#249,#250,#51,.F.);
#214=EDGE_CURVE('',#228,#250,#52,.T.);
#215=EDGE_CURVE('',#244,#236,#53,.T.);
#216=EDGE_CURVE('',#235,#245,#54,.T.);
#217=EDGE_CURVE('',#237,#243,#55,.T.);
#218=EDGE_CURVE('',#246,#242,#56,.T.);
#219=EDGE_CURVE('',#241,#247,#57,.T.);
#220=EDGE_CURVE('',#248,#240,#58,.T.);
#221=EDGE_CURVE('',#239,#249,#59,.T.);
#222=EDGE_CURVE('',#250,#238,#60,.T.);
#223=VERTEX_POINT('',#440);
#224=VERTEX_POINT('',#441);
#225=VERTEX_POINT('',#443);
#226=VERTEX_POINT('',#445);
#227=VERTEX_POINT('',#458);
#228=VERTEX_POINT('',#459);
#229=VERTEX_POINT('',#461);
#230=VERTEX_POINT('',#463);
#231=VERTEX_POINT('',#488);
#232=VERTEX_POINT('',#489);
#233=VERTEX_POINT('',#491);
#234=VERTEX_POINT('',#493);
#235=VERTEX_POINT('',#497);
#236=VERTEX_POINT('',#498);
#237=VERTEX_POINT('',#500);
#238=VERTEX_POINT('',#503);
#239=VERTEX_POINT('',#505);
#240=VERTEX_POINT('',#507);
#241=VERTEX_POINT('',#509);
#242=VERTEX_POINT('',#513);
#243=VERTEX_POINT('',#517);
#244=VERTEX_POINT('',#519);
#245=VERTEX_POINT('',#521);
#246=VERTEX_POINT('',#523);
#247=VERTEX_POINT('',#527);
#248=VERTEX_POINT('',#529);
#249=VERTEX_POINT('',#531);
#250=VERTEX_POINT('',#533);
#251=ELLIPSE('',#321,0.0984587972260796,0.0579504284943004);
#252=ELLIPSE('',#322,0.0984587972260796,0.0579504284943004);
#253=ELLIPSE('',#323,0.0984587972260796,0.0579504284943004);
#254=ELLIPSE('',#324,0.0984587972260796,0.0579504284943004);
#255=ELLIPSE('',#325,0.0984587972260796,0.0579504284943004);
#256=ELLIPSE('',#326,0.0984587972260796,0.0579504284943004);
#257=EDGE_LOOP('',(#97,#98,#99,#100));
#258=EDGE_LOOP('',(#101,#102,#103,#104));
#259=EDGE_LOOP('',(#105,#106,#107,#108));
#260=EDGE_LOOP('',(#109,#110,#111,#112,#113,#114,#115,#116,#117,#118,#119,
#120,#121,#122));
#261=EDGE_LOOP('',(#123,#124,#125,#126,#127,#128,#129,#130,#131,#132,#133,
#134,#135,#136));
#262=EDGE_LOOP('',(#137,#138,#139,#140));
#263=EDGE_LOOP('',(#141,#142,#143,#144));
#264=EDGE_LOOP('',(#145,#146,#147,#148));
#265=EDGE_LOOP('',(#149,#150,#151,#152));
#266=EDGE_LOOP('',(#153,#154,#155,#156));
#267=EDGE_LOOP('',(#157,#158,#159,#160));
#268=EDGE_LOOP('',(#161,#162,#163,#164));
#269=EDGE_LOOP('',(#165,#166,#167,#168));
#270=EDGE_LOOP('',(#169,#170,#171,#172));
#271=EDGE_LOOP('',(#173,#174,#175,#176));
#272=EDGE_LOOP('',(#177,#178,#179,#180));
#273=FACE_BOUND('',#257,.T.);
#274=FACE_BOUND('',#258,.T.);
#275=FACE_BOUND('',#259,.T.);
#276=FACE_BOUND('',#260,.T.);
#277=FACE_BOUND('',#261,.T.);
#278=FACE_BOUND('',#262,.T.);
#279=FACE_BOUND('',#263,.T.);
#280=FACE_BOUND('',#264,.T.);
#281=FACE_BOUND('',#265,.T.);
#282=FACE_BOUND('',#266,.T.);
#283=FACE_BOUND('',#267,.T.);
#284=FACE_BOUND('',#268,.T.);
#285=FACE_BOUND('',#269,.T.);
#286=FACE_BOUND('',#270,.T.);
#287=FACE_BOUND('',#271,.T.);
#288=FACE_BOUND('',#272,.T.);
#289=B_SPLINE_SURFACE_WITH_KNOTS('',3,1,((#417,#418),(#419,#420),(#421,
#422),(#423,#424),(#425,#426),(#427,#428),(#429,#430),(#431,#432),(#433,
#434),(#435,#436),(#437,#438)),.SURF_OF_LINEAR_EXTRUSION.,.F.,.F.,.F.,(4,
1,1,1,1,1,1,1,4),(2,2),(0.520387513977336,0.812530737190031,1.10467396040273,
1.39681718361542,1.68896040682811,1.98110363004081,2.2732468532535,2.5653900764662,
2.85753329967889),(0.,1.),.UNSPECIFIED.);
#290=B_SPLINE_SURFACE_WITH_KNOTS('',3,1,((#447,#448),(#449,#450),(#451,
#452),(#453,#454),(#455,#456)),.SURF_OF_LINEAR_EXTRUSION.,.F.,.F.,.F.,(4,
1,4),(2,2),(5.85641972635284,6.28543545160582,6.7144511768588),(0.,1.),
 .UNSPECIFIED.);
#291=B_SPLINE_SURFACE_WITH_KNOTS('',3,1,((#465,#466),(#467,#468),(#469,
#470),(#471,#472),(#473,#474),(#475,#476),(#477,#478),(#479,#480),(#481,
#482),(#483,#484),(#485,#486)),.SURF_OF_LINEAR_EXTRUSION.,.F.,.F.,.F.,(4,
1,1,1,1,1,1,1,4),(2,2),(3.6119361284033,3.87689812479142,4.14186012117953,
4.40682211756764,4.67178411395575,4.93674611034386,5.20170810673198,5.46667010312009,
5.7316320995082),(0.,1.),.UNSPECIFIED.);
#292=ADVANCED_FACE('',(#273),#289,.T.);
#293=ADVANCED_FACE('',(#274),#290,.T.);
#294=ADVANCED_FACE('',(#275),#291,.T.);
#295=ADVANCED_FACE('',(#276),#12,.T.);
#296=ADVANCED_FACE('',(#277),#13,.F.);
#297=ADVANCED_FACE('',(#278),#14,.F.);
#298=ADVANCED_FACE('',(#279),#15,.F.);
#299=ADVANCED_FACE('',(#280),#16,.F.);
#300=ADVANCED_FACE('',(#281),#17,.F.);
#301=ADVANCED_FACE('',(#282),#18,.F.);
#302=ADVANCED_FACE('',(#283),#19,.F.);
#303=ADVANCED_FACE('',(#284),#20,.F.);
#304=ADVANCED_FACE('',(#285),#21,.F.);
#305=ADVANCED_FACE('',(#286),#22,.F.);
#306=ADVANCED_FACE('',(#287),#23,.F.);
#307=ADVANCED_FACE('',(#288),#24,.F.);
#308=CLOSED_SHELL('',(#292,#293,#294,#295,#296,#297,#298,#299,#300,#301,
#302,#303,#304,#305,#306,#307));
#309=STYLED_ITEM('',(#310),#317);
#310=PRESENTATION_STYLE_ASSIGNMENT((#311));
#311=SURFACE_STYLE_USAGE(.BOTH.,#312);
#312=SURFACE_SIDE_STYLE('',(#313));
#313=SURFACE_STYLE_FILL_AREA(#314);
#314=FILL_AREA_STYLE('',(#315));
#315=FILL_AREA_STYLE_COLOUR('',#316);
#316=COLOUR_RGB('',0.458823529411765,0.105882352941176,0.);
#317=MANIFOLD_SOLID_BREP('Body_Bottom Case_Red',#308);
#318=SHAPE_DEFINITION_REPRESENTATION(#560,#319);
#319=SHAPE_REPRESENTATION('Body_Bottom Case_Red',(#320),#555);
#320=AXIS2_PLACEMENT_3D('',#416,#340,#341);
#321=AXIS2_PLACEMENT_3D('',#439,#342,#343);
#322=AXIS2_PLACEMENT_3D('',#444,#345,#346);
#323=AXIS2_PLACEMENT_3D('',#460,#349,#350);
#324=AXIS2_PLACEMENT_3D('',#464,#352,#353);
#325=AXIS2_PLACEMENT_3D('',#490,#355,#356);
#326=AXIS2_PLACEMENT_3D('',#494,#358,#359);
#327=AXIS2_PLACEMENT_3D('',#495,#360,#361);
#328=AXIS2_PLACEMENT_3D('',#515,#373,#374);
#329=AXIS2_PLACEMENT_3D('',#535,#386,#387);
#330=AXIS2_PLACEMENT_3D('',#536,#388,#389);
#331=AXIS2_PLACEMENT_3D('',#539,#392,#393);
#332=AXIS2_PLACEMENT_3D('',#541,#395,#396);
#333=AXIS2_PLACEMENT_3D('',#543,#398,#399);
#334=AXIS2_PLACEMENT_3D('',#545,#401,#402);
#335=AXIS2_PLACEMENT_3D('',#548,#405,#406);
#336=AXIS2_PLACEMENT_3D('',#550,#408,#409);
#337=AXIS2_PLACEMENT_3D('',#551,#410,#411);
#338=AXIS2_PLACEMENT_3D('',#552,#412,#413);
#339=AXIS2_PLACEMENT_3D('',#553,#414,#415);
#340=DIRECTION('',(0.,0.,1.));
#341=DIRECTION('',(1.,0.,0.));
#342=DIRECTION('',(0.,0.,1.));
#343=DIRECTION('',(0.987638729782156,-0.156747374569046,0.));
#344=DIRECTION('',(0.,0.,-1.));
#345=DIRECTION('',(0.,0.,1.));
#346=DIRECTION('',(0.987638729782156,-0.156747374569046,0.));
#347=DIRECTION('',(0.,0.,1.));
#348=DIRECTION('',(0.,0.,-1.));
#349=DIRECTION('',(0.,0.,1.));
#350=DIRECTION('',(0.987638729782156,-0.156747374569046,0.));
#351=DIRECTION('',(0.,0.,-1.));
#352=DIRECTION('',(0.,0.,1.));
#353=DIRECTION('',(0.987638729782156,-0.156747374569046,0.));
#354=DIRECTION('',(0.,0.,-1.));
#355=DIRECTION('',(0.,0.,1.));
#356=DIRECTION('',(0.987638729782156,-0.156747374569046,0.));
#357=DIRECTION('',(0.,0.,1.));
#358=DIRECTION('',(0.,0.,1.));
#359=DIRECTION('',(0.987638729782156,-0.156747374569046,0.));
#360=DIRECTION('',(0.,0.,1.));
#361=DIRECTION('',(1.,0.,0.));
#362=DIRECTION('',(0.,1.,0.));
#363=DIRECTION('',(0.707106781186548,-0.707106781186548,0.));
#364=DIRECTION('',(-1.,0.,0.));
#365=DIRECTION('',(1.,0.,0.));
#366=DIRECTION('',(-0.707106781186548,-0.707106781186548,0.));
#367=DIRECTION('',(0.,1.,0.));
#368=DIRECTION('',(0.707106781186548,-0.707106781186548,0.));
#369=DIRECTION('',(-1.,0.,0.));
#370=DIRECTION('',(0.,1.,0.));
#371=DIRECTION('',(1.,0.,0.));
#372=DIRECTION('',(-0.707106781186548,-0.707106781186548,0.));
#373=DIRECTION('',(0.,0.,1.));
#374=DIRECTION('',(1.,0.,0.));
#375=DIRECTION('',(-1.,0.,0.));
#376=DIRECTION('',(-0.707106781186548,0.707106781186548,0.));
#377=DIRECTION('',(0.,1.,0.));
#378=DIRECTION('',(0.707106781186548,0.707106781186548,0.));
#379=DIRECTION('',(1.,0.,0.));
#380=DIRECTION('',(0.,1.,0.));
#381=DIRECTION('',(-1.,0.,0.));
#382=DIRECTION('',(-0.707106781186548,0.707106781186548,0.));
#383=DIRECTION('',(0.,1.,0.));
#384=DIRECTION('',(0.707106781186548,0.707106781186548,0.));
#385=DIRECTION('',(1.,0.,0.));
#386=DIRECTION('',(1.,0.,0.));
#387=DIRECTION('',(0.,1.,0.));
#388=DIRECTION('',(-1.,0.,0.));
#389=DIRECTION('',(0.,0.,1.));
#390=DIRECTION('',(0.,0.,1.));
#391=DIRECTION('',(0.,0.,-1.));
#392=DIRECTION('',(0.,-1.,0.));
#393=DIRECTION('',(0.,0.,-1.));
#394=DIRECTION('',(0.,0.,-1.));
#395=DIRECTION('',(0.,1.,0.));
#396=DIRECTION('',(0.,0.,1.));
#397=DIRECTION('',(0.,0.,1.));
#398=DIRECTION('',(0.,-1.,0.));
#399=DIRECTION('',(0.,0.,-1.));
#400=DIRECTION('',(0.,0.,-1.));
#401=DIRECTION('',(-1.,0.,0.));
#402=DIRECTION('',(0.,0.,1.));
#403=DIRECTION('',(0.,0.,1.));
#404=DIRECTION('',(0.,0.,-1.));
#405=DIRECTION('',(0.,1.,0.));
#406=DIRECTION('',(0.,0.,1.));
#407=DIRECTION('',(0.,0.,1.));
#408=DIRECTION('',(-0.707106781186548,-0.707106781186548,0.));
#409=DIRECTION('',(0.,0.,-1.));
#410=DIRECTION('',(-0.707106781186548,0.707106781186548,0.));
#411=DIRECTION('',(0.,0.,-1.));
#412=DIRECTION('',(-0.707106781186548,-0.707106781186548,0.));
#413=DIRECTION('',(0.,0.,-1.));
#414=DIRECTION('',(-0.707106781186548,0.707106781186548,0.));
#415=DIRECTION('',(0.,0.,-1.));
#416=CARTESIAN_POINT('',(0.,0.,0.));
#417=CARTESIAN_POINT('',(0.174045117209249,-0.0686724912948841,0.01));
#418=CARTESIAN_POINT('',(0.174045117209249,-0.0686724912948841,0.02));
#419=CARTESIAN_POINT('',(0.17010420009794,-0.0630894946515298,0.01));
#420=CARTESIAN_POINT('',(0.17010420009794,-0.0630894946515298,0.02));
#421=CARTESIAN_POINT('',(0.159676150493815,-0.0523560082802134,0.01));
#422=CARTESIAN_POINT('',(0.159676150493815,-0.0523560082802134,0.02));
#423=CARTESIAN_POINT('',(0.137718883673262,-0.0389147057154592,0.01));
#424=CARTESIAN_POINT('',(0.137718883673262,-0.0389147057154592,0.02));
#425=CARTESIAN_POINT('',(0.111307695334397,-0.0292721734182528,0.01));
#426=CARTESIAN_POINT('',(0.111307695334397,-0.0292721734182528,0.02));
#427=CARTESIAN_POINT('',(0.0826805844396395,-0.0242453259151783,0.01));
#428=CARTESIAN_POINT('',(0.0826805844396395,-0.0242453259151783,0.02));
#429=CARTESIAN_POINT('',(0.0542635108436681,-0.0242602207056906,0.01));
#430=CARTESIAN_POINT('',(0.0542635108436681,-0.0242602207056906,0.02));
#431=CARTESIAN_POINT('',(0.0284646296697638,-0.0293155299256679,0.01));
#432=CARTESIAN_POINT('',(0.0284646296697638,-0.0293155299256679,0.02));
#433=CARTESIAN_POINT('',(0.00747006854057374,-0.0389830467395327,0.01));
#434=CARTESIAN_POINT('',(0.00747006854057374,-0.0389830467395327,0.02));
#435=CARTESIAN_POINT('',(-0.00213700782896011,-0.0479562291488121,0.01));
#436=CARTESIAN_POINT('',(-0.00213700782896011,-0.0479562291488121,0.02));
#437=CARTESIAN_POINT('',(-0.00563999999999998,-0.0528851973113877,0.01));
#438=CARTESIAN_POINT('',(-0.00563999999999998,-0.0528851973113877,0.02));
#439=CARTESIAN_POINT('',(0.0851591126763599,-0.08374,0.02));
#440=CARTESIAN_POINT('',(0.174045117209249,-0.068672491294884,0.02));
#441=CARTESIAN_POINT('',(-0.00564,-0.0528851973113876,0.02));
#442=CARTESIAN_POINT('',(0.174045117209249,-0.068672491294884,0.02));
#443=CARTESIAN_POINT('',(0.174045117209249,-0.068672491294884,0.01));
#444=CARTESIAN_POINT('',(0.0851591126763599,-0.08374,0.01));
#445=CARTESIAN_POINT('',(-0.00564,-0.0528851973113876,0.01));
#446=CARTESIAN_POINT('',(-0.00564,-0.0528851973113876,0.01));
#447=CARTESIAN_POINT('',(0.169919205745101,-0.121479776307754,0.01));
#448=CARTESIAN_POINT('',(0.169919205745101,-0.121479776307754,0.02));
#449=CARTESIAN_POINT('',(0.176857820059972,-0.11494264954623,0.01));
#450=CARTESIAN_POINT('',(0.176857820059972,-0.11494264954623,0.02));
#451=CARTESIAN_POINT('',(0.185449533470196,-0.0995208748425696,0.01));
#452=CARTESIAN_POINT('',(0.185449533470196,-0.0995208748425696,0.02));
#453=CARTESIAN_POINT('',(0.181927222095967,-0.0821929369435606,0.01));
#454=CARTESIAN_POINT('',(0.181927222095967,-0.0821929369435606,0.02));
#455=CARTESIAN_POINT('',(0.17729424830335,-0.0738350003558479,0.01));
#456=CARTESIAN_POINT('',(0.17729424830335,-0.0738350003558479,0.02));
#457=CARTESIAN_POINT('',(0.17729424830335,-0.0738350003558479,0.02));
#458=CARTESIAN_POINT('',(0.17729424830335,-0.0738350003558479,0.02));
#459=CARTESIAN_POINT('',(0.17729424830335,-0.0738350003558479,0.01));
#460=CARTESIAN_POINT('',(0.0851591126763599,-0.08374,0.02));
#461=CARTESIAN_POINT('',(0.1699192057451,-0.121479776307754,0.02));
#462=CARTESIAN_POINT('',(0.1699192057451,-0.121479776307754,0.02));
#463=CARTESIAN_POINT('',(0.1699192057451,-0.121479776307754,0.01));
#464=CARTESIAN_POINT('',(0.0851591126763599,-0.08374,0.01));
#465=CARTESIAN_POINT('',(-0.00563999999999998,-0.095920745947575,0.01));
#466=CARTESIAN_POINT('',(-0.00563999999999998,-0.095920745947575,0.02));
#467=CARTESIAN_POINT('',(-0.00246292887453045,-0.101044526515531,0.01));
#468=CARTESIAN_POINT('',(-0.00246292887453045,-0.101044526515531,0.02));
#469=CARTESIAN_POINT('',(0.00602821592805331,-0.111004876833405,0.01));
#470=CARTESIAN_POINT('',(0.00602821592805331,-0.111004876833405,0.02));
#471=CARTESIAN_POINT('',(0.0242881226798864,-0.124042837186018,0.01));
#472=CARTESIAN_POINT('',(0.0242881226798864,-0.124042837186018,0.02));
#473=CARTESIAN_POINT('',(0.0467964616717771,-0.134267752573033,0.01));
#474=CARTESIAN_POINT('',(0.0467964616717771,-0.134267752573033,0.02));
#475=CARTESIAN_POINT('',(0.0719823407472023,-0.140966108151527,0.01));
#476=CARTESIAN_POINT('',(0.0719823407472023,-0.140966108151527,0.02));
#477=CARTESIAN_POINT('',(0.0980878967737724,-0.143670349469428,0.01));
#478=CARTESIAN_POINT('',(0.0980878967737724,-0.143670349469428,0.02));
#479=CARTESIAN_POINT('',(0.123291060078767,-0.142191768095625,0.01));
#480=CARTESIAN_POINT('',(0.123291060078767,-0.142191768095625,0.02));
#481=CARTESIAN_POINT('',(0.145832905800109,-0.136633466489329,0.01));
#482=CARTESIAN_POINT('',(0.145832905800109,-0.136633466489329,0.02));
#483=CARTESIAN_POINT('',(0.158037385051454,-0.130466977858332,0.01));
#484=CARTESIAN_POINT('',(0.158037385051454,-0.130466977858332,0.02));
#485=CARTESIAN_POINT('',(0.163221127670776,-0.126875877380371,0.01));
#486=CARTESIAN_POINT('',(0.163221127670776,-0.126875877380371,0.02));
#487=CARTESIAN_POINT('',(0.163221127670775,-0.126875877380371,0.02));
#488=CARTESIAN_POINT('',(0.163221127670775,-0.126875877380371,0.02));
#489=CARTESIAN_POINT('',(0.163221127670775,-0.126875877380371,0.01));
#490=CARTESIAN_POINT('',(0.0851591126763599,-0.08374,0.02));
#491=CARTESIAN_POINT('',(-0.00564,-0.095920745947575,0.02));
#492=CARTESIAN_POINT('',(-0.00564,-0.095920745947575,0.01));
#493=CARTESIAN_POINT('',(-0.00564,-0.095920745947575,0.01));
#494=CARTESIAN_POINT('',(0.0851591126763599,-0.08374,0.01));
#495=CARTESIAN_POINT('',(0.0851591126763599,-0.08374,0.02));
#496=CARTESIAN_POINT('',(0.171757325530052,-0.124177826844062,0.02));
#497=CARTESIAN_POINT('',(0.171757325530052,-0.126375877380371,0.02));
#498=CARTESIAN_POINT('',(0.171757325530052,-0.121979776307754,0.02));
#499=CARTESIAN_POINT('',(0.109338330949329,-0.0595607817270307,0.02));
#500=CARTESIAN_POINT('',(0.171257325530052,-0.121479776307754,0.02));
#501=CARTESIAN_POINT('',(0.170838265637577,-0.121479776307754,0.02));
#502=CARTESIAN_POINT('',(0.179613621241066,-0.0738350003558479,0.02));
#503=CARTESIAN_POINT('',(0.181432994178781,-0.0738350003558479,0.02));
#504=CARTESIAN_POINT('',(0.128343553605494,-0.126924440929134,0.02));
#505=CARTESIAN_POINT('',(0.181932994178781,-0.0733350003558479,0.02));
#506=CARTESIAN_POINT('',(0.181932994178781,-0.0712537458253659,0.02));
#507=CARTESIAN_POINT('',(0.181932994178781,-0.069172491294884,0.02));
#508=CARTESIAN_POINT('',(0.140829807780128,-0.0280693048962316,0.02));
#509=CARTESIAN_POINT('',(0.181432994178781,-0.068672491294884,0.02));
#510=CARTESIAN_POINT('',(0.177989055694015,-0.068672491294884,0.02));
#511=CARTESIAN_POINT('',(-0.00564,-0.08374,0.02));
#512=CARTESIAN_POINT('',(0.167489226600414,-0.126875877380371,0.02));
#513=CARTESIAN_POINT('',(0.171257325530052,-0.126875877380371,0.02));
#514=CARTESIAN_POINT('',(0.149776157793392,-0.148357045117032,0.02));
#515=CARTESIAN_POINT('',(0.0851591126763599,-0.08374,0.01));
#516=CARTESIAN_POINT('',(0.170838265637577,-0.121479776307754,0.01));
#517=CARTESIAN_POINT('',(0.171257325530052,-0.121479776307754,0.01));
#518=CARTESIAN_POINT('',(0.171257325530052,-0.121479776307754,0.01));
#519=CARTESIAN_POINT('',(0.171757325530052,-0.121979776307754,0.01));
#520=CARTESIAN_POINT('',(0.171757325530052,-0.124177826844062,0.01));
#521=CARTESIAN_POINT('',(0.171757325530052,-0.126375877380371,0.01));
#522=CARTESIAN_POINT('',(0.171757325530052,-0.126375877380371,0.01));
#523=CARTESIAN_POINT('',(0.171257325530052,-0.126875877380371,0.01));
#524=CARTESIAN_POINT('',(0.167489226600414,-0.126875877380371,0.01));
#525=CARTESIAN_POINT('',(-0.00564,-0.08374,0.01));
#526=CARTESIAN_POINT('',(0.177989055694015,-0.068672491294884,0.01));
#527=CARTESIAN_POINT('',(0.181432994178781,-0.068672491294884,0.01));
#528=CARTESIAN_POINT('',(0.181432994178781,-0.068672491294884,0.01));
#529=CARTESIAN_POINT('',(0.181932994178781,-0.069172491294884,0.01));
#530=CARTESIAN_POINT('',(0.181932994178781,-0.0712537458253659,0.01));
#531=CARTESIAN_POINT('',(0.181932994178781,-0.0733350003558479,0.01));
#532=CARTESIAN_POINT('',(0.181932994178781,-0.0733350003558479,0.01));
#533=CARTESIAN_POINT('',(0.181432994178781,-0.0738350003558479,0.01));
#534=CARTESIAN_POINT('',(0.179613621241066,-0.0738350003558479,0.01));
#535=CARTESIAN_POINT('',(-0.00564,-0.0842415774387694,-0.0214271345428955));
#536=CARTESIAN_POINT('',(0.171757325530052,-0.124177826844062,0.02));
#537=CARTESIAN_POINT('',(0.171757325530052,-0.121979776307754,0.02));
#538=CARTESIAN_POINT('',(0.171757325530052,-0.126375877380371,0.02));
#539=CARTESIAN_POINT('',(0.170838265637577,-0.121479776307754,0.02));
#540=CARTESIAN_POINT('',(0.171257325530052,-0.121479776307754,0.02));
#541=CARTESIAN_POINT('',(0.167489226600414,-0.126875877380371,0.02));
#542=CARTESIAN_POINT('',(0.171257325530052,-0.126875877380371,0.02));
#543=CARTESIAN_POINT('',(0.177989055694015,-0.068672491294884,0.02));
#544=CARTESIAN_POINT('',(0.181432994178781,-0.068672491294884,0.02));
#545=CARTESIAN_POINT('',(0.181932994178781,-0.0712537458253659,0.02));
#546=CARTESIAN_POINT('',(0.181932994178781,-0.069172491294884,0.02));
#547=CARTESIAN_POINT('',(0.181932994178781,-0.0733350003558479,0.02));
#548=CARTESIAN_POINT('',(0.179613621241066,-0.0738350003558479,0.02));
#549=CARTESIAN_POINT('',(0.181432994178781,-0.0738350003558479,0.02));
#550=CARTESIAN_POINT('',(0.171257325530052,-0.121479776307754,0.02));
#551=CARTESIAN_POINT('',(0.171757325530052,-0.126375877380371,0.02));
#552=CARTESIAN_POINT('',(0.181432994178781,-0.068672491294884,0.02));
#553=CARTESIAN_POINT('',(0.181932994178781,-0.0733350003558479,0.02));
#554=MECHANICAL_DESIGN_GEOMETRIC_PRESENTATION_REPRESENTATION('',(#309),
#555);
#555=(
GEOMETRIC_REPRESENTATION_CONTEXT(3)
GLOBAL_UNCERTAINTY_ASSIGNED_CONTEXT((#556))
GLOBAL_UNIT_ASSIGNED_CONTEXT((#559,#558,#557))
REPRESENTATION_CONTEXT('Body_Bottom Case_Red','TOP_LEVEL_ASSEMBLY_PART')
);
#556=UNCERTAINTY_MEASURE_WITH_UNIT(LENGTH_MEASURE(2.E-5),#559,
'DISTANCE_ACCURACY_VALUE','Maximum Tolerance applied to model');
#557=(
NAMED_UNIT(*)
SI_UNIT($,.STERADIAN.)
SOLID_ANGLE_UNIT()
);
#558=(
NAMED_UNIT(*)
PLANE_ANGLE_UNIT()
SI_UNIT($,.RADIAN.)
);
#559=(
LENGTH_UNIT()
NAMED_UNIT(*)
SI_UNIT($,.METRE.)
);
#560=PRODUCT_DEFINITION_SHAPE('','',#561);
#561=PRODUCT_DEFINITION('','',#563,#562);
#562=PRODUCT_DEFINITION_CONTEXT('',#569,'design');
#563=PRODUCT_DEFINITION_FORMATION_WITH_SPECIFIED_SOURCE('','',#565,
 .NOT_KNOWN.);
#564=PRODUCT_RELATED_PRODUCT_CATEGORY('','',(#565));
#565=PRODUCT('Body_Bottom Case_Red','Body_Bottom Case_Red',
'Body_Bottom Case_Red',(#567));
#566=PRODUCT_CATEGORY('','');
#567=PRODUCT_CONTEXT('',#569,'mechanical');
#568=APPLICATION_PROTOCOL_DEFINITION('international standard',
'ap242_managed_model_based_3d_engineering',2020,#569);
#569=APPLICATION_CONTEXT('managed model based 3d engineering');
ENDSEC;
END-ISO-10303-21;
