ISO-10303-21;
HEADER;
/* Generated by software containing ST-Developer
 * from STEP Tools, Inc. (www.steptools.com) 
 */
/* OPTION: using custom renumber hook */

FILE_DESCRIPTION(
/* description */ ('STEP AP242 Edition 2',
'CAx-IF Rec.Pracs.---Representation and Presentation of Product Manufa
cturing Information (PMI)---4.0---2014-10-13',
'CAx-IF Rec.Pracs.---3D Tessellated Geometry---0.4---2014-09-14','2;1',
'CAx-IF Rec.Pracs.---User Defined Attributes---1.5---2016-08-15'),
/* implementation_level */ '2;1');

FILE_NAME(
/* name */ 'Part Studio 1 - Part 18',
/* time_stamp */ '2026-06-18T16:33:49Z',
/* author */ (''),
/* organization */ (''),
/* preprocessor_version */ 'ST-DEVELOPER v20',
/* originating_system */ 'ONSHAPE BY PTC INC, 1.216',
/* authorisation */ '  ');

FILE_SCHEMA (('AP242_MANAGED_MODEL_BASED_3D_ENGINEERING_MIM_LF { 1 0 10303 442 3 1 4 }'));
ENDSEC;

DATA;
#10=SHAPE_REPRESENTATION_RELATIONSHIP('','',#98,#11);
#11=ADVANCED_BREP_SHAPE_REPRESENTATION('',(#96),#188);
#12=PLANE('',#100);
#13=PLANE('',#101);
#14=B_SPLINE_CURVE_WITH_KNOTS('',3,(#122,#123,#124,#125),.UNSPECIFIED.,
 .F.,.F.,(4,4),(0.,0.274759153282396),.UNSPECIFIED.);
#15=B_SPLINE_CURVE_WITH_KNOTS('',3,(#129,#130,#131,#132),.UNSPECIFIED.,
 .F.,.F.,(4,4),(0.,0.274759153282396),.PIECEWISE_BEZIER_KNOTS.);
#16=B_SPLINE_CURVE_WITH_KNOTS('',3,(#171,#172,#173,#174,#175,#176,#177),
 .UNSPECIFIED.,.F.,.F.,(4,1,1,1,4),(0.274759153282396,0.437440444030725,
0.632059103289701,0.839500759157922,1.),.UNSPECIFIED.);
#17=B_SPLINE_CURVE_WITH_KNOTS('',3,(#178,#179,#180,#181,#182,#183,#184),
 .UNSPECIFIED.,.F.,.F.,(4,1,1,1,4),(0.274759153282396,0.437440444030725,
0.632059103289701,0.839500759157922,1.),.UNSPECIFIED.);
#18=ORIENTED_EDGE('',*,*,#30,.F.);
#19=ORIENTED_EDGE('',*,*,#31,.T.);
#20=ORIENTED_EDGE('',*,*,#32,.T.);
#21=ORIENTED_EDGE('',*,*,#33,.F.);
#22=ORIENTED_EDGE('',*,*,#34,.T.);
#23=ORIENTED_EDGE('',*,*,#30,.T.);
#24=ORIENTED_EDGE('',*,*,#35,.F.);
#25=ORIENTED_EDGE('',*,*,#32,.F.);
#26=ORIENTED_EDGE('',*,*,#33,.T.);
#27=ORIENTED_EDGE('',*,*,#35,.T.);
#28=ORIENTED_EDGE('',*,*,#31,.F.);
#29=ORIENTED_EDGE('',*,*,#34,.F.);
#30=EDGE_CURVE('',#36,#37,#40,.T.);
#31=EDGE_CURVE('',#36,#38,#14,.T.);
#32=EDGE_CURVE('',#38,#39,#41,.T.);
#33=EDGE_CURVE('',#37,#39,#15,.T.);
#34=EDGE_CURVE('',#38,#36,#16,.T.);
#35=EDGE_CURVE('',#39,#37,#17,.T.);
#36=VERTEX_POINT('',#120);
#37=VERTEX_POINT('',#121);
#38=VERTEX_POINT('',#126);
#39=VERTEX_POINT('',#128);
#40=LINE('',#119,#42);
#41=LINE('',#127,#43);
#42=VECTOR('',#104,1.);
#43=VECTOR('',#105,1.);
#44=EDGE_LOOP('',(#18,#19,#20,#21));
#45=EDGE_LOOP('',(#22,#23,#24,#25));
#46=EDGE_LOOP('',(#26,#27));
#47=EDGE_LOOP('',(#28,#29));
#48=FACE_BOUND('',#44,.T.);
#49=FACE_BOUND('',#45,.T.);
#50=FACE_BOUND('',#46,.T.);
#51=FACE_BOUND('',#47,.T.);
#52=B_SPLINE_SURFACE_WITH_KNOTS('',3,1,((#111,#112),(#113,#114),(#115,#116),
(#117,#118)),.SURF_OF_LINEAR_EXTRUSION.,.F.,.F.,.F.,(4,4),(2,2),(0.,0.274759153282396),
(0.,1.),.PIECEWISE_BEZIER_KNOTS.);
#53=B_SPLINE_SURFACE_WITH_KNOTS('',3,1,((#133,#134),(#135,#136),(#137,#138),
(#139,#140),(#141,#142),(#143,#144),(#145,#146),(#147,#148),(#149,#150),
(#151,#152),(#153,#154),(#155,#156),(#157,#158),(#159,#160),(#161,#162),
(#163,#164),(#165,#166),(#167,#168),(#169,#170)),
 .SURF_OF_LINEAR_EXTRUSION.,.F.,.F.,.F.,(4,1,1,1,1,1,1,1,1,1,1,1,1,1,1,
1,4),(2,2),(0.274759153282396,0.320086706202246,0.365414259122096,0.410741812041947,
0.433405588501872,0.456069364961797,0.501396917881647,0.546724470801498,
0.637379576641198,0.682707129561048,0.728034682480899,0.773362235400749,
0.818689788320599,0.864017341240449,0.9093448941603,0.95467244708015,1.),
(0.,1.),.UNSPECIFIED.);
#54=OVER_RIDING_STYLED_ITEM('',(#66),#59,#64);
#55=OVER_RIDING_STYLED_ITEM('',(#67),#60,#64);
#56=OVER_RIDING_STYLED_ITEM('',(#68),#61,#64);
#57=OVER_RIDING_STYLED_ITEM('',(#69),#62,#64);
#58=DRAUGHTING_PRE_DEFINED_COLOUR('black');
#59=ADVANCED_FACE('Face appearance 11',(#48),#52,.T.);
#60=ADVANCED_FACE('Face appearance 11',(#49),#53,.T.);
#61=ADVANCED_FACE('Face appearance 11',(#50),#12,.T.);
#62=ADVANCED_FACE('Face appearance 11',(#51),#13,.F.);
#63=CLOSED_SHELL('',(#59,#60,#61,#62));
#64=STYLED_ITEM('',(#65),#96);
#65=PRESENTATION_STYLE_ASSIGNMENT((#70));
#66=PRESENTATION_STYLE_ASSIGNMENT((#71));
#67=PRESENTATION_STYLE_ASSIGNMENT((#72));
#68=PRESENTATION_STYLE_ASSIGNMENT((#73));
#69=PRESENTATION_STYLE_ASSIGNMENT((#74));
#70=SURFACE_STYLE_USAGE(.BOTH.,#75);
#71=SURFACE_STYLE_USAGE(.BOTH.,#76);
#72=SURFACE_STYLE_USAGE(.BOTH.,#77);
#73=SURFACE_STYLE_USAGE(.BOTH.,#78);
#74=SURFACE_STYLE_USAGE(.BOTH.,#79);
#75=SURFACE_SIDE_STYLE('',(#80));
#76=SURFACE_SIDE_STYLE('',(#81));
#77=SURFACE_SIDE_STYLE('',(#82));
#78=SURFACE_SIDE_STYLE('',(#83));
#79=SURFACE_SIDE_STYLE('',(#84));
#80=SURFACE_STYLE_FILL_AREA(#85);
#81=SURFACE_STYLE_FILL_AREA(#86);
#82=SURFACE_STYLE_FILL_AREA(#87);
#83=SURFACE_STYLE_FILL_AREA(#88);
#84=SURFACE_STYLE_FILL_AREA(#89);
#85=FILL_AREA_STYLE('',(#90));
#86=FILL_AREA_STYLE('',(#91));
#87=FILL_AREA_STYLE('',(#92));
#88=FILL_AREA_STYLE('',(#93));
#89=FILL_AREA_STYLE('',(#94));
#90=FILL_AREA_STYLE_COLOUR('',#95);
#91=FILL_AREA_STYLE_COLOUR('',#58);
#92=FILL_AREA_STYLE_COLOUR('',#58);
#93=FILL_AREA_STYLE_COLOUR('',#58);
#94=FILL_AREA_STYLE_COLOUR('',#58);
#95=COLOUR_RGB('',0.647058823529412,0.647058823529412,0.647058823529412);
#96=MANIFOLD_SOLID_BREP('Part 18',#63);
#97=SHAPE_DEFINITION_REPRESENTATION(#193,#98);
#98=SHAPE_REPRESENTATION('Part 18',(#99),#188);
#99=AXIS2_PLACEMENT_3D('',#110,#102,#103);
#100=AXIS2_PLACEMENT_3D('',#185,#106,#107);
#101=AXIS2_PLACEMENT_3D('',#186,#108,#109);
#102=DIRECTION('',(0.,0.,1.));
#103=DIRECTION('',(1.,0.,0.));
#104=DIRECTION('',(1.,0.,0.));
#105=DIRECTION('',(1.,0.,0.));
#106=DIRECTION('',(1.,0.,0.));
#107=DIRECTION('',(0.,1.,0.));
#108=DIRECTION('',(1.,0.,0.));
#109=DIRECTION('',(0.,1.,0.));
#110=CARTESIAN_POINT('',(0.,0.,0.));
#111=CARTESIAN_POINT('',(-0.07564,-0.0488634834117085,-0.0179118191799392));
#112=CARTESIAN_POINT('',(-0.00564000000000001,-0.0488634834117085,-0.0179118191799392));
#113=CARTESIAN_POINT('',(-0.07564,-0.0513573542488593,-0.014950677576342));
#114=CARTESIAN_POINT('',(-0.00564000000000001,-0.0513573542488593,-0.014950677576342));
#115=CARTESIAN_POINT('',(-0.07564,-0.059660636210308,-0.0145087086692424));
#116=CARTESIAN_POINT('',(-0.00564000000000001,-0.059660636210308,-0.0145087086692424));
#117=CARTESIAN_POINT('',(-0.07564,-0.0621569603681585,-0.0172678216815017));
#118=CARTESIAN_POINT('',(-0.00564000000000001,-0.0621569603681585,-0.0172678216815017));
#119=CARTESIAN_POINT('',(-0.00564,-0.0488634834117085,-0.0179118191799392));
#120=CARTESIAN_POINT('',(-0.07564,-0.0488634834117085,-0.0179118191799392));
#121=CARTESIAN_POINT('',(-0.00564,-0.0488634834117085,-0.0179118191799392));
#122=CARTESIAN_POINT('',(-0.07564,-0.0488634834117085,-0.0179118191799392));
#123=CARTESIAN_POINT('',(-0.07564,-0.0513573542488593,-0.014950677576342));
#124=CARTESIAN_POINT('',(-0.07564,-0.059660636210308,-0.0145087086692424));
#125=CARTESIAN_POINT('',(-0.07564,-0.0621569603681585,-0.0172678216815017));
#126=CARTESIAN_POINT('',(-0.07564,-0.0621569603681585,-0.0172678216815017));
#127=CARTESIAN_POINT('',(-0.00564,-0.0621569603681585,-0.0172678216815017));
#128=CARTESIAN_POINT('',(-0.00564,-0.0621569603681585,-0.0172678216815017));
#129=CARTESIAN_POINT('',(-0.00564,-0.0488634834117085,-0.0179118191799392));
#130=CARTESIAN_POINT('',(-0.00564,-0.0513573542488593,-0.014950677576342));
#131=CARTESIAN_POINT('',(-0.00564,-0.059660636210308,-0.0145087086692424));
#132=CARTESIAN_POINT('',(-0.00564,-0.0621569603681585,-0.0172678216815017));
#133=CARTESIAN_POINT('',(-0.07564,-0.0621569603681585,-0.0172678216815017));
#134=CARTESIAN_POINT('',(-0.00564000000000002,-0.0621569603681585,-0.0172678216815017));
#135=CARTESIAN_POINT('',(-0.07564,-0.0625687838288812,-0.0177229979316134));
#136=CARTESIAN_POINT('',(-0.00564000000000002,-0.0625687838288812,-0.0177229979316134));
#137=CARTESIAN_POINT('',(-0.07564,-0.0630763593493229,-0.0188075144031368));
#138=CARTESIAN_POINT('',(-0.00564000000000002,-0.0630763593493229,-0.0188075144031368));
#139=CARTESIAN_POINT('',(-0.07564,-0.0630755443469763,-0.0204892114967843));
#140=CARTESIAN_POINT('',(-0.00564000000000002,-0.0630755443469763,-0.0204892114967843));
#141=CARTESIAN_POINT('',(-0.07564,-0.0625950450744628,-0.0215444827324213));
#142=CARTESIAN_POINT('',(-0.00563999999999998,-0.0625950450744628,-0.0215444827324213));
#143=CARTESIAN_POINT('',(-0.07564,-0.062015323756195,-0.0219506347388548));
#144=CARTESIAN_POINT('',(-0.00564000000000001,-0.062015323756195,-0.0219506347388548));
#145=CARTESIAN_POINT('',(-0.07564,-0.061338080529932,-0.0219739874577756));
#146=CARTESIAN_POINT('',(-0.00564000000000002,-0.061338080529932,-0.0219739874577756));
#147=CARTESIAN_POINT('',(-0.07564,-0.0603313870234329,-0.0214068682024786));
#148=CARTESIAN_POINT('',(-0.00563999999999999,-0.0603313870234329,-0.0214068682024786));
#149=CARTESIAN_POINT('',(-0.07564,-0.0584509403850284,-0.0199225664687638));
#150=CARTESIAN_POINT('',(-0.00564000000000002,-0.0584509403850284,-0.0199225664687638));
#151=CARTESIAN_POINT('',(-0.07564,-0.0562764554317989,-0.0186403361116883));
#152=CARTESIAN_POINT('',(-0.00564000000000002,-0.0562764554317989,-0.0186403361116883));
#153=CARTESIAN_POINT('',(-0.07564,-0.0540324660130788,-0.01949276391961));
#154=CARTESIAN_POINT('',(-0.00564000000000001,-0.0540324660130788,-0.01949276391961));
#155=CARTESIAN_POINT('',(-0.07564,-0.0523970515232156,-0.02063501870721));
#156=CARTESIAN_POINT('',(-0.00564000000000002,-0.0523970515232156,-0.02063501870721));
#157=CARTESIAN_POINT('',(-0.07564,-0.0508878844550472,-0.0218178459415547));
#158=CARTESIAN_POINT('',(-0.00564000000000002,-0.0508878844550472,-0.0218178459415547));
#159=CARTESIAN_POINT('',(-0.07564,-0.0495877973295071,-0.0225817358170096));
#160=CARTESIAN_POINT('',(-0.00563999999999998,-0.0495877973295071,-0.0225817358170096));
#161=CARTESIAN_POINT('',(-0.07564,-0.0485666319332716,-0.0223537381448957));
#162=CARTESIAN_POINT('',(-0.00564000000000002,-0.0485666319332716,-0.0223537381448957));
#163=CARTESIAN_POINT('',(-0.07564,-0.047957307129378,-0.0211567628240758));
#164=CARTESIAN_POINT('',(-0.00564000000000001,-0.047957307129378,-0.0211567628240758));
#165=CARTESIAN_POINT('',(-0.07564,-0.0479455349470222,-0.0195153397973049));
#166=CARTESIAN_POINT('',(-0.00564000000000003,-0.0479455349470222,-0.0195153397973049));
#167=CARTESIAN_POINT('',(-0.07564,-0.0484520646800821,-0.0184003244804422));
#168=CARTESIAN_POINT('',(-0.00564000000000002,-0.0484520646800821,-0.0184003244804422));
#169=CARTESIAN_POINT('',(-0.07564,-0.0488634834117085,-0.0179118191799392));
#170=CARTESIAN_POINT('',(-0.00564000000000002,-0.0488634834117085,-0.0179118191799392));
#171=CARTESIAN_POINT('',(-0.07564,-0.0621569603681585,-0.0172678216815017));
#172=CARTESIAN_POINT('',(-0.07564,-0.0636350011586964,-0.0189014563058347));
#173=CARTESIAN_POINT('',(-0.07564,-0.0624101444034398,-0.024954132508283));
#174=CARTESIAN_POINT('',(-0.07564,-0.0558871228423118,-0.0155688617468417));
#175=CARTESIAN_POINT('',(-0.07564,-0.0486114829482063,-0.0255775661768128));
#176=CARTESIAN_POINT('',(-0.07564,-0.0474067007300797,-0.0196415558373914));
#177=CARTESIAN_POINT('',(-0.07564,-0.0488634834117085,-0.0179118191799391));
#178=CARTESIAN_POINT('',(-0.00564,-0.0621569603681585,-0.0172678216815017));
#179=CARTESIAN_POINT('',(-0.00564,-0.0636350011586964,-0.0189014563058347));
#180=CARTESIAN_POINT('',(-0.00564,-0.0624101444034398,-0.024954132508283));
#181=CARTESIAN_POINT('',(-0.00564,-0.0558871228423118,-0.0155688617468417));
#182=CARTESIAN_POINT('',(-0.00564,-0.0486114829482063,-0.0255775661768128));
#183=CARTESIAN_POINT('',(-0.00564,-0.0474067007300797,-0.0196415558373914));
#184=CARTESIAN_POINT('',(-0.00564,-0.0488634834117085,-0.0179118191799391));
#185=CARTESIAN_POINT('',(-0.00564,-0.0785833531866038,-0.024257448981059));
#186=CARTESIAN_POINT('',(-0.07564,-0.0785833531866038,-0.024257448981059));
#187=MECHANICAL_DESIGN_GEOMETRIC_PRESENTATION_REPRESENTATION('',(#64,#54,
#55,#56,#57),#188);
#188=(
GEOMETRIC_REPRESENTATION_CONTEXT(3)
GLOBAL_UNCERTAINTY_ASSIGNED_CONTEXT((#189))
GLOBAL_UNIT_ASSIGNED_CONTEXT((#192,#191,#190))
REPRESENTATION_CONTEXT('Part 18','TOP_LEVEL_ASSEMBLY_PART')
);
#189=UNCERTAINTY_MEASURE_WITH_UNIT(LENGTH_MEASURE(2.E-5),#192,
'DISTANCE_ACCURACY_VALUE','Maximum Tolerance applied to model');
#190=(
NAMED_UNIT(*)
SI_UNIT($,.STERADIAN.)
SOLID_ANGLE_UNIT()
);
#191=(
NAMED_UNIT(*)
PLANE_ANGLE_UNIT()
SI_UNIT($,.RADIAN.)
);
#192=(
LENGTH_UNIT()
NAMED_UNIT(*)
SI_UNIT($,.METRE.)
);
#193=PRODUCT_DEFINITION_SHAPE('','',#194);
#194=PRODUCT_DEFINITION('','',#196,#195);
#195=PRODUCT_DEFINITION_CONTEXT('',#202,'design');
#196=PRODUCT_DEFINITION_FORMATION_WITH_SPECIFIED_SOURCE('','',#198,
 .NOT_KNOWN.);
#197=PRODUCT_RELATED_PRODUCT_CATEGORY('','',(#198));
#198=PRODUCT('Part 18','Part 18','Part 18',(#200));
#199=PRODUCT_CATEGORY('','');
#200=PRODUCT_CONTEXT('',#202,'mechanical');
#201=APPLICATION_PROTOCOL_DEFINITION('international standard',
'ap242_managed_model_based_3d_engineering',2020,#202);
#202=APPLICATION_CONTEXT('managed model based 3d engineering');
ENDSEC;
END-ISO-10303-21;
