ISO-10303-21;
HEADER;
/* Generated by software containing ST-Developer
 * from STEP Tools, Inc. (www.steptools.com) 
 */
/* OPTION: using custom renumber hook */

FILE_DESCRIPTION(
/* description */ ('STEP AP242 Edition 2',
'CAx-IF Rec.Pracs.---Representation and Presentation of Product Manufa
cturing Information (PMI)---4.0---2014-10-13',
'CAx-IF Rec.Pracs.---3D Tessellated Geometry---0.4---2014-09-14','2;1',
'CAx-IF Rec.Pracs.---User Defined Attributes---1.5---2016-08-15'),
/* implementation_level */ '2;1');

FILE_NAME(
/* name */ 'Part Studio 1 - Part 8',
/* time_stamp */ '2026-06-18T16:33:50Z',
/* author */ (''),
/* organization */ (''),
/* preprocessor_version */ 'ST-DEVELOPER v20',
/* originating_system */ 'ONSHAPE BY PTC INC, 1.216',
/* authorisation */ '  ');

FILE_SCHEMA (('AP242_MANAGED_MODEL_BASED_3D_ENGINEERING_MIM_LF { 1 0 10303 442 3 1 4 }'));
ENDSEC;

DATA;
#10=SHAPE_REPRESENTATION_RELATIONSHIP('','',#265,#11);
#11=ADVANCED_BREP_SHAPE_REPRESENTATION('',(#263),#518);
#12=ORIENTED_CLOSED_SHELL('',*,#254,.F.);
#13=TOROIDAL_SURFACE('',#283,0.0580458897862317,0.006);
#14=TOROIDAL_SURFACE('',#284,0.0409031697332331,0.006);
#15=TOROIDAL_SURFACE('',#301,0.0580458897862317,0.0037);
#16=TOROIDAL_SURFACE('',#302,0.0409031697332331,0.0037);
#17=PLANE('',#279);
#18=PLANE('',#280);
#19=PLANE('',#297);
#20=PLANE('',#298);
#21=CIRCLE('',#268,0.0165475059662871);
#22=CIRCLE('',#269,0.0165475059662871);
#23=CIRCLE('',#271,0.0349031697332331);
#24=CIRCLE('',#272,0.0349031697332331);
#25=CIRCLE('',#274,0.0146863823255677);
#26=CIRCLE('',#275,0.0146863823255677);
#27=CIRCLE('',#277,0.0640458897862316);
#28=CIRCLE('',#278,0.0640458897862316);
#29=CIRCLE('',#281,0.0580458897862317);
#30=CIRCLE('',#282,0.0409031697332331);
#31=CIRCLE('',#286,0.0188475059662871);
#32=CIRCLE('',#287,0.0188475059662871);
#33=CIRCLE('',#289,0.0372031697332331);
#34=CIRCLE('',#290,0.0372031697332331);
#35=CIRCLE('',#292,0.0123863823255677);
#36=CIRCLE('',#293,0.0123863823255677);
#37=CIRCLE('',#295,0.0617458897862317);
#38=CIRCLE('',#296,0.0617458897862317);
#39=CIRCLE('',#299,0.0409031697332331);
#40=CIRCLE('',#300,0.0580458897862317);
#41=B_SPLINE_CURVE_WITH_KNOTS('',3,(#390,#391,#392,#393,#394,#395,#396,
#397,#398,#399,#400,#401),.UNSPECIFIED.,.F.,.F.,(4,1,1,1,1,1,1,1,1,4),(0.,
0.000999102774364199,0.0019982055487284,0.0029973083230926,0.0039964110974568,
0.00599461664618519,0.00799282219491359,0.00999102774364199,0.0119892332923704,
0.0159856443898272),.UNSPECIFIED.);
#42=B_SPLINE_CURVE_WITH_KNOTS('',3,(#405,#406,#407,#408,#409,#410,#411),
 .UNSPECIFIED.,.F.,.F.,(4,1,1,1,4),(0.,0.00252881175019605,0.0050576235003921,
0.00758643525058815,0.0101152470007842),.UNSPECIFIED.);
#43=B_SPLINE_CURVE_WITH_KNOTS('',3,(#426,#427,#428,#429,#430,#431,#432,
#433,#434,#435),.UNSPECIFIED.,.F.,.F.,(4,1,1,1,1,1,1,4),(0.,0.00339670494489267,
0.00679340988978533,0.00849176236223167,0.010190114834678,0.0118884673071243,
0.0127376435433475,0.0135868197795707),.UNSPECIFIED.);
#44=B_SPLINE_CURVE_WITH_KNOTS('',3,(#440,#441,#442,#443,#444,#445,#446),
 .UNSPECIFIED.,.F.,.F.,(4,1,1,1,4),(0.,0.00255061573773258,0.00510123147546517,
0.00765184721319775,0.0102024629509303),.UNSPECIFIED.);
#45=B_SPLINE_CURVE_WITH_KNOTS('',3,(#464,#465,#466,#467,#468),
 .UNSPECIFIED.,.F.,.F.,(4,1,4),(0.,0.00296128036553274,0.00592256073106548),
 .UNSPECIFIED.);
#46=B_SPLINE_CURVE_WITH_KNOTS('',3,(#472,#473,#474,#475,#476,#477,#478),
 .UNSPECIFIED.,.F.,.F.,(4,1,1,1,4),(0.,0.00180957079808978,0.00361914159617957,
0.00542871239426935,0.00723828319235913),.UNSPECIFIED.);
#47=B_SPLINE_CURVE_WITH_KNOTS('',3,(#489,#490,#491,#492,#493,#494),
 .UNSPECIFIED.,.F.,.F.,(4,1,1,4),(0.,0.00160199082709536,0.00320398165419072,
0.00640796330838143),.UNSPECIFIED.);
#48=B_SPLINE_CURVE_WITH_KNOTS('',3,(#499,#500,#501,#502,#503,#504,#505,
#506,#507),.UNSPECIFIED.,.F.,.F.,(4,1,1,1,1,1,4),(0.,0.00218945489127812,
0.00437890978255624,0.0054736372281953,0.00656836467383435,0.00766309211947341,
0.00875781956511247),.UNSPECIFIED.);
#49=ORIENTED_EDGE('',*,*,#121,.T.);
#50=ORIENTED_EDGE('',*,*,#122,.T.);
#51=ORIENTED_EDGE('',*,*,#123,.F.);
#52=ORIENTED_EDGE('',*,*,#124,.T.);
#53=ORIENTED_EDGE('',*,*,#125,.F.);
#54=ORIENTED_EDGE('',*,*,#126,.T.);
#55=ORIENTED_EDGE('',*,*,#125,.T.);
#56=ORIENTED_EDGE('',*,*,#127,.T.);
#57=ORIENTED_EDGE('',*,*,#128,.F.);
#58=ORIENTED_EDGE('',*,*,#129,.T.);
#59=ORIENTED_EDGE('',*,*,#130,.T.);
#60=ORIENTED_EDGE('',*,*,#131,.T.);
#61=ORIENTED_EDGE('',*,*,#132,.F.);
#62=ORIENTED_EDGE('',*,*,#133,.F.);
#63=ORIENTED_EDGE('',*,*,#128,.T.);
#64=ORIENTED_EDGE('',*,*,#134,.T.);
#65=ORIENTED_EDGE('',*,*,#132,.T.);
#66=ORIENTED_EDGE('',*,*,#135,.T.);
#67=ORIENTED_EDGE('',*,*,#121,.F.);
#68=ORIENTED_EDGE('',*,*,#136,.F.);
#69=ORIENTED_EDGE('',*,*,#126,.F.);
#70=ORIENTED_EDGE('',*,*,#129,.F.);
#71=ORIENTED_EDGE('',*,*,#133,.T.);
#72=ORIENTED_EDGE('',*,*,#136,.T.);
#73=ORIENTED_EDGE('',*,*,#123,.T.);
#74=ORIENTED_EDGE('',*,*,#137,.T.);
#75=ORIENTED_EDGE('',*,*,#130,.F.);
#76=ORIENTED_EDGE('',*,*,#138,.T.);
#77=ORIENTED_EDGE('',*,*,#131,.F.);
#78=ORIENTED_EDGE('',*,*,#137,.F.);
#79=ORIENTED_EDGE('',*,*,#122,.F.);
#80=ORIENTED_EDGE('',*,*,#135,.F.);
#81=ORIENTED_EDGE('',*,*,#134,.F.);
#82=ORIENTED_EDGE('',*,*,#127,.F.);
#83=ORIENTED_EDGE('',*,*,#124,.F.);
#84=ORIENTED_EDGE('',*,*,#138,.F.);
#85=ORIENTED_EDGE('',*,*,#139,.F.);
#86=ORIENTED_EDGE('',*,*,#140,.F.);
#87=ORIENTED_EDGE('',*,*,#141,.T.);
#88=ORIENTED_EDGE('',*,*,#142,.F.);
#89=ORIENTED_EDGE('',*,*,#143,.T.);
#90=ORIENTED_EDGE('',*,*,#144,.F.);
#91=ORIENTED_EDGE('',*,*,#141,.F.);
#92=ORIENTED_EDGE('',*,*,#145,.F.);
#93=ORIENTED_EDGE('',*,*,#146,.T.);
#94=ORIENTED_EDGE('',*,*,#147,.F.);
#95=ORIENTED_EDGE('',*,*,#148,.F.);
#96=ORIENTED_EDGE('',*,*,#149,.F.);
#97=ORIENTED_EDGE('',*,*,#146,.F.);
#98=ORIENTED_EDGE('',*,*,#150,.T.);
#99=ORIENTED_EDGE('',*,*,#151,.T.);
#100=ORIENTED_EDGE('',*,*,#152,.F.);
#101=ORIENTED_EDGE('',*,*,#151,.F.);
#102=ORIENTED_EDGE('',*,*,#153,.T.);
#103=ORIENTED_EDGE('',*,*,#139,.T.);
#104=ORIENTED_EDGE('',*,*,#154,.F.);
#105=ORIENTED_EDGE('',*,*,#140,.T.);
#106=ORIENTED_EDGE('',*,*,#153,.F.);
#107=ORIENTED_EDGE('',*,*,#150,.F.);
#108=ORIENTED_EDGE('',*,*,#145,.T.);
#109=ORIENTED_EDGE('',*,*,#143,.F.);
#110=ORIENTED_EDGE('',*,*,#155,.F.);
#111=ORIENTED_EDGE('',*,*,#148,.T.);
#112=ORIENTED_EDGE('',*,*,#156,.F.);
#113=ORIENTED_EDGE('',*,*,#152,.T.);
#114=ORIENTED_EDGE('',*,*,#154,.T.);
#115=ORIENTED_EDGE('',*,*,#144,.T.);
#116=ORIENTED_EDGE('',*,*,#156,.T.);
#117=ORIENTED_EDGE('',*,*,#149,.T.);
#118=ORIENTED_EDGE('',*,*,#155,.T.);
#119=ORIENTED_EDGE('',*,*,#142,.T.);
#120=ORIENTED_EDGE('',*,*,#147,.T.);
#121=EDGE_CURVE('',#157,#158,#181,.T.);
#122=EDGE_CURVE('',#158,#159,#41,.T.);
#123=EDGE_CURVE('',#160,#159,#21,.T.);
#124=EDGE_CURVE('',#160,#161,#42,.T.);
#125=EDGE_CURVE('',#162,#161,#182,.T.);
#126=EDGE_CURVE('',#162,#157,#22,.T.);
#127=EDGE_CURVE('',#161,#163,#23,.F.);
#128=EDGE_CURVE('',#164,#163,#183,.T.);
#129=EDGE_CURVE('',#164,#162,#24,.T.);
#130=EDGE_CURVE('',#165,#166,#25,.T.);
#131=EDGE_CURVE('',#166,#167,#43,.T.);
#132=EDGE_CURVE('',#168,#167,#184,.T.);
#133=EDGE_CURVE('',#164,#168,#26,.T.);
#134=EDGE_CURVE('',#163,#165,#44,.T.);
#135=EDGE_CURVE('',#167,#158,#27,.T.);
#136=EDGE_CURVE('',#168,#157,#28,.T.);
#137=EDGE_CURVE('',#159,#166,#29,.F.);
#138=EDGE_CURVE('',#165,#160,#30,.T.);
#139=EDGE_CURVE('',#169,#170,#185,.T.);
#140=EDGE_CURVE('',#171,#169,#31,.T.);
#141=EDGE_CURVE('',#171,#172,#186,.T.);
#142=EDGE_CURVE('',#173,#172,#45,.T.);
#143=EDGE_CURVE('',#173,#174,#32,.T.);
#144=EDGE_CURVE('',#170,#174,#46,.T.);
#145=EDGE_CURVE('',#175,#171,#33,.T.);
#146=EDGE_CURVE('',#175,#176,#187,.T.);
#147=EDGE_CURVE('',#172,#176,#34,.T.);
#148=EDGE_CURVE('',#177,#178,#35,.T.);
#149=EDGE_CURVE('',#176,#177,#47,.T.);
#150=EDGE_CURVE('',#175,#179,#36,.T.);
#151=EDGE_CURVE('',#179,#180,#188,.T.);
#152=EDGE_CURVE('',#178,#180,#48,.T.);
#153=EDGE_CURVE('',#179,#169,#37,.T.);
#154=EDGE_CURVE('',#180,#170,#38,.F.);
#155=EDGE_CURVE('',#177,#173,#39,.T.);
#156=EDGE_CURVE('',#174,#178,#40,.F.);
#157=VERTEX_POINT('',#388);
#158=VERTEX_POINT('',#389);
#159=VERTEX_POINT('',#402);
#160=VERTEX_POINT('',#404);
#161=VERTEX_POINT('',#412);
#162=VERTEX_POINT('',#414);
#163=VERTEX_POINT('',#418);
#164=VERTEX_POINT('',#420);
#165=VERTEX_POINT('',#424);
#166=VERTEX_POINT('',#425);
#167=VERTEX_POINT('',#436);
#168=VERTEX_POINT('',#438);
#169=VERTEX_POINT('',#458);
#170=VERTEX_POINT('',#459);
#171=VERTEX_POINT('',#461);
#172=VERTEX_POINT('',#463);
#173=VERTEX_POINT('',#469);
#174=VERTEX_POINT('',#471);
#175=VERTEX_POINT('',#481);
#176=VERTEX_POINT('',#483);
#177=VERTEX_POINT('',#487);
#178=VERTEX_POINT('',#488);
#179=VERTEX_POINT('',#496);
#180=VERTEX_POINT('',#498);
#181=LINE('',#387,#189);
#182=LINE('',#413,#190);
#183=LINE('',#419,#191);
#184=LINE('',#437,#192);
#185=LINE('',#457,#193);
#186=LINE('',#462,#194);
#187=LINE('',#482,#195);
#188=LINE('',#497,#196);
#189=VECTOR('',#307,1.);
#190=VECTOR('',#310,1.);
#191=VECTOR('',#317,1.);
#192=VECTOR('',#324,1.);
#193=VECTOR('',#347,1.);
#194=VECTOR('',#350,1.);
#195=VECTOR('',#357,1.);
#196=VECTOR('',#366,1.);
#197=EDGE_LOOP('',(#49,#50,#51,#52,#53,#54));
#198=EDGE_LOOP('',(#55,#56,#57,#58));
#199=EDGE_LOOP('',(#59,#60,#61,#62,#63,#64));
#200=EDGE_LOOP('',(#65,#66,#67,#68));
#201=EDGE_LOOP('',(#69,#70,#71,#72));
#202=EDGE_LOOP('',(#73,#74,#75,#76));
#203=EDGE_LOOP('',(#77,#78,#79,#80));
#204=EDGE_LOOP('',(#81,#82,#83,#84));
#205=EDGE_LOOP('',(#85,#86,#87,#88,#89,#90));
#206=EDGE_LOOP('',(#91,#92,#93,#94));
#207=EDGE_LOOP('',(#95,#96,#97,#98,#99,#100));
#208=EDGE_LOOP('',(#101,#102,#103,#104));
#209=EDGE_LOOP('',(#105,#106,#107,#108));
#210=EDGE_LOOP('',(#109,#110,#111,#112));
#211=EDGE_LOOP('',(#113,#114,#115,#116));
#212=EDGE_LOOP('',(#117,#118,#119,#120));
#213=FACE_BOUND('',#197,.T.);
#214=FACE_BOUND('',#198,.T.);
#215=FACE_BOUND('',#199,.T.);
#216=FACE_BOUND('',#200,.T.);
#217=FACE_BOUND('',#201,.T.);
#218=FACE_BOUND('',#202,.T.);
#219=FACE_BOUND('',#203,.T.);
#220=FACE_BOUND('',#204,.T.);
#221=FACE_BOUND('',#205,.T.);
#222=FACE_BOUND('',#206,.T.);
#223=FACE_BOUND('',#207,.T.);
#224=FACE_BOUND('',#208,.T.);
#225=FACE_BOUND('',#209,.T.);
#226=FACE_BOUND('',#210,.T.);
#227=FACE_BOUND('',#211,.T.);
#228=FACE_BOUND('',#212,.T.);
#229=CYLINDRICAL_SURFACE('',#267,0.0165475059662871);
#230=CYLINDRICAL_SURFACE('',#270,0.0349031697332331);
#231=CYLINDRICAL_SURFACE('',#273,0.0146863823255677);
#232=CYLINDRICAL_SURFACE('',#276,0.0640458897862316);
#233=CYLINDRICAL_SURFACE('',#285,0.0188475059662871);
#234=CYLINDRICAL_SURFACE('',#288,0.0372031697332331);
#235=CYLINDRICAL_SURFACE('',#291,0.0123863823255677);
#236=CYLINDRICAL_SURFACE('',#294,0.0617458897862317);
#237=ADVANCED_FACE('Face appearance 5',(#213),#229,.F.);
#238=ADVANCED_FACE('Face appearance 5',(#214),#230,.F.);
#239=ADVANCED_FACE('Face appearance 5',(#215),#231,.T.);
#240=ADVANCED_FACE('Face appearance 5',(#216),#232,.T.);
#241=ADVANCED_FACE('Face appearance 5',(#217),#17,.T.);
#242=ADVANCED_FACE('Face appearance 5',(#218),#18,.F.);
#243=ADVANCED_FACE('',(#219),#13,.T.);
#244=ADVANCED_FACE('',(#220),#14,.T.);
#245=ADVANCED_FACE('',(#221),#233,.T.);
#246=ADVANCED_FACE('',(#222),#234,.T.);
#247=ADVANCED_FACE('',(#223),#235,.F.);
#248=ADVANCED_FACE('',(#224),#236,.F.);
#249=ADVANCED_FACE('',(#225),#19,.F.);
#250=ADVANCED_FACE('',(#226),#20,.T.);
#251=ADVANCED_FACE('',(#227),#15,.F.);
#252=ADVANCED_FACE('',(#228),#16,.F.);
#253=CLOSED_SHELL('',(#237,#238,#239,#240,#241,#242,#243,#244));
#254=CLOSED_SHELL('',(#245,#246,#247,#248,#249,#250,#251,#252));
#255=STYLED_ITEM('',(#256),#263);
#256=PRESENTATION_STYLE_ASSIGNMENT((#257));
#257=SURFACE_STYLE_USAGE(.BOTH.,#258);
#258=SURFACE_SIDE_STYLE('',(#259));
#259=SURFACE_STYLE_FILL_AREA(#260);
#260=FILL_AREA_STYLE('',(#261));
#261=FILL_AREA_STYLE_COLOUR('',#262);
#262=COLOUR_RGB('',0.458823529411765,0.105882352941176,0.);
#263=BREP_WITH_VOIDS('Part 8',#253,(#12));
#264=SHAPE_DEFINITION_REPRESENTATION(#523,#265);
#265=SHAPE_REPRESENTATION('Part 8',(#266),#518);
#266=AXIS2_PLACEMENT_3D('',#385,#303,#304);
#267=AXIS2_PLACEMENT_3D('',#386,#305,#306);
#268=AXIS2_PLACEMENT_3D('',#403,#308,#309);
#269=AXIS2_PLACEMENT_3D('',#415,#311,#312);
#270=AXIS2_PLACEMENT_3D('',#416,#313,#314);
#271=AXIS2_PLACEMENT_3D('',#417,#315,#316);
#272=AXIS2_PLACEMENT_3D('',#421,#318,#319);
#273=AXIS2_PLACEMENT_3D('',#422,#320,#321);
#274=AXIS2_PLACEMENT_3D('',#423,#322,#323);
#275=AXIS2_PLACEMENT_3D('',#439,#325,#326);
#276=AXIS2_PLACEMENT_3D('',#447,#327,#328);
#277=AXIS2_PLACEMENT_3D('',#448,#329,#330);
#278=AXIS2_PLACEMENT_3D('',#449,#331,#332);
#279=AXIS2_PLACEMENT_3D('',#450,#333,#334);
#280=AXIS2_PLACEMENT_3D('',#451,#335,#336);
#281=AXIS2_PLACEMENT_3D('',#452,#337,#338);
#282=AXIS2_PLACEMENT_3D('',#453,#339,#340);
#283=AXIS2_PLACEMENT_3D('',#454,#341,#342);
#284=AXIS2_PLACEMENT_3D('',#455,#343,#344);
#285=AXIS2_PLACEMENT_3D('',#456,#345,#346);
#286=AXIS2_PLACEMENT_3D('',#460,#348,#349);
#287=AXIS2_PLACEMENT_3D('',#470,#351,#352);
#288=AXIS2_PLACEMENT_3D('',#479,#353,#354);
#289=AXIS2_PLACEMENT_3D('',#480,#355,#356);
#290=AXIS2_PLACEMENT_3D('',#484,#358,#359);
#291=AXIS2_PLACEMENT_3D('',#485,#360,#361);
#292=AXIS2_PLACEMENT_3D('',#486,#362,#363);
#293=AXIS2_PLACEMENT_3D('',#495,#364,#365);
#294=AXIS2_PLACEMENT_3D('',#508,#367,#368);
#295=AXIS2_PLACEMENT_3D('',#509,#369,#370);
#296=AXIS2_PLACEMENT_3D('',#510,#371,#372);
#297=AXIS2_PLACEMENT_3D('',#511,#373,#374);
#298=AXIS2_PLACEMENT_3D('',#512,#375,#376);
#299=AXIS2_PLACEMENT_3D('',#513,#377,#378);
#300=AXIS2_PLACEMENT_3D('',#514,#379,#380);
#301=AXIS2_PLACEMENT_3D('',#515,#381,#382);
#302=AXIS2_PLACEMENT_3D('',#516,#383,#384);
#303=DIRECTION('',(0.,0.,1.));
#304=DIRECTION('',(1.,0.,0.));
#305=DIRECTION('',(0.,0.,-1.));
#306=DIRECTION('',(-1.,0.,0.));
#307=DIRECTION('',(0.,0.,-1.));
#308=DIRECTION('',(0.,0.,1.));
#309=DIRECTION('',(1.,0.,0.));
#310=DIRECTION('',(0.,0.,-1.));
#311=DIRECTION('',(0.,0.,1.));
#312=DIRECTION('',(1.,0.,0.));
#313=DIRECTION('',(0.,0.,-1.));
#314=DIRECTION('',(-1.,0.,0.));
#315=DIRECTION('',(0.,0.,1.));
#316=DIRECTION('',(1.,0.,0.));
#317=DIRECTION('',(0.,0.,-1.));
#318=DIRECTION('',(0.,0.,1.));
#319=DIRECTION('',(1.,0.,0.));
#320=DIRECTION('',(0.,0.,-1.));
#321=DIRECTION('',(-1.,0.,0.));
#322=DIRECTION('',(0.,0.,1.));
#323=DIRECTION('',(1.,0.,0.));
#324=DIRECTION('',(0.,0.,-1.));
#325=DIRECTION('',(0.,0.,1.));
#326=DIRECTION('',(1.,0.,0.));
#327=DIRECTION('',(0.,0.,-1.));
#328=DIRECTION('',(-1.,0.,0.));
#329=DIRECTION('',(0.,0.,1.));
#330=DIRECTION('',(1.,0.,0.));
#331=DIRECTION('',(0.,0.,1.));
#332=DIRECTION('',(1.,0.,0.));
#333=DIRECTION('',(0.,0.,1.));
#334=DIRECTION('',(1.,0.,0.));
#335=DIRECTION('',(0.,0.,1.));
#336=DIRECTION('',(1.,0.,0.));
#337=DIRECTION('',(0.,0.,1.));
#338=DIRECTION('',(1.,0.,0.));
#339=DIRECTION('',(0.,0.,1.));
#340=DIRECTION('',(1.,0.,0.));
#341=DIRECTION('',(0.,0.,1.));
#342=DIRECTION('',(1.,0.,0.));
#343=DIRECTION('',(0.,0.,1.));
#344=DIRECTION('',(1.,0.,0.));
#345=DIRECTION('',(0.,0.,-1.));
#346=DIRECTION('',(-1.,0.,0.));
#347=DIRECTION('',(0.,0.,-1.));
#348=DIRECTION('',(0.,0.,1.));
#349=DIRECTION('',(1.,0.,0.));
#350=DIRECTION('',(0.,0.,-1.));
#351=DIRECTION('',(0.,0.,1.));
#352=DIRECTION('',(1.,0.,0.));
#353=DIRECTION('',(0.,0.,-1.));
#354=DIRECTION('',(-1.,0.,0.));
#355=DIRECTION('',(0.,0.,1.));
#356=DIRECTION('',(1.,0.,0.));
#357=DIRECTION('',(0.,0.,-1.));
#358=DIRECTION('',(0.,0.,-1.));
#359=DIRECTION('',(-1.,0.,0.));
#360=DIRECTION('',(0.,0.,-1.));
#361=DIRECTION('',(-1.,0.,0.));
#362=DIRECTION('',(0.,0.,1.));
#363=DIRECTION('',(1.,0.,0.));
#364=DIRECTION('',(0.,0.,1.));
#365=DIRECTION('',(1.,0.,0.));
#366=DIRECTION('',(0.,0.,-1.));
#367=DIRECTION('',(0.,0.,-1.));
#368=DIRECTION('',(-1.,0.,0.));
#369=DIRECTION('',(0.,0.,1.));
#370=DIRECTION('',(1.,0.,0.));
#371=DIRECTION('',(0.,0.,-1.));
#372=DIRECTION('',(-1.,0.,0.));
#373=DIRECTION('',(0.,0.,1.));
#374=DIRECTION('',(1.,0.,0.));
#375=DIRECTION('',(0.,0.,1.));
#376=DIRECTION('',(1.,0.,0.));
#377=DIRECTION('',(0.,0.,1.));
#378=DIRECTION('',(1.,0.,0.));
#379=DIRECTION('',(0.,0.,1.));
#380=DIRECTION('',(1.,0.,0.));
#381=DIRECTION('',(0.,0.,1.));
#382=DIRECTION('',(1.,0.,0.));
#383=DIRECTION('',(0.,0.,1.));
#384=DIRECTION('',(1.,0.,0.));
#385=CARTESIAN_POINT('',(0.,0.,0.));
#386=CARTESIAN_POINT('',(0.22036333074897,-0.156895030770277,0.02));
#387=CARTESIAN_POINT('',(0.207007428264765,-0.166664361481062,0.02));
#388=CARTESIAN_POINT('',(0.207007428264765,-0.166664361481062,0.02));
#389=CARTESIAN_POINT('',(0.207007428264765,-0.166664361481062,-0.029));
#390=CARTESIAN_POINT('',(0.207007428264765,-0.166664361481062,-0.029));
#391=CARTESIAN_POINT('',(0.207007428264765,-0.166664361481062,-0.02933974745613));
#392=CARTESIAN_POINT('',(0.206743694689522,-0.166303663951302,-0.0299024997551019));
#393=CARTESIAN_POINT('',(0.206313503368444,-0.165649634954716,-0.0304930093804658));
#394=CARTESIAN_POINT('',(0.205884709901195,-0.164922138241042,-0.0310291869602247));
#395=CARTESIAN_POINT('',(0.205356524269823,-0.163908577523772,-0.0316781697769679));
#396=CARTESIAN_POINT('',(0.204782072497169,-0.162562323892391,-0.0324205993809156));
#397=CARTESIAN_POINT('',(0.20425226871848,-0.160816363945418,-0.0332313955940503));
#398=CARTESIAN_POINT('',(0.203915830866188,-0.159004659681105,-0.033927394573737));
#399=CARTESIAN_POINT('',(0.203734729054517,-0.156489981392272,-0.0346830978659627));
#400=CARTESIAN_POINT('',(0.203933696883749,-0.154514081070922,-0.035));
#401=CARTESIAN_POINT('',(0.204230743449257,-0.153212697173026,-0.035));
#402=CARTESIAN_POINT('',(0.204230743449257,-0.153212697173026,-0.035));
#403=CARTESIAN_POINT('',(0.22036333074897,-0.156895030770277,-0.035));
#404=CARTESIAN_POINT('',(0.214461038149776,-0.141435959136515,-0.035));
#405=CARTESIAN_POINT('',(0.214461038149777,-0.141435959136515,-0.035));
#406=CARTESIAN_POINT('',(0.215261163265267,-0.141130470381467,-0.035));
#407=CARTESIAN_POINT('',(0.216875337753103,-0.140659807636093,-0.0346671386814602));
#408=CARTESIAN_POINT('',(0.219100076841657,-0.140353428021598,-0.0333917184118016));
#409=CARTESIAN_POINT('',(0.220868554631391,-0.140337357621267,-0.0315155579698731));
#410=CARTESIAN_POINT('',(0.221435777778191,-0.140382314122983,-0.0298594506298503));
#411=CARTESIAN_POINT('',(0.221435777778191,-0.140382314122983,-0.029));
#412=CARTESIAN_POINT('',(0.221435777778191,-0.140382314122983,-0.029));
#413=CARTESIAN_POINT('',(0.221435777778191,-0.140382314122983,0.02));
#414=CARTESIAN_POINT('',(0.221435777778191,-0.140382314122983,0.02));
#415=CARTESIAN_POINT('',(0.22036333074897,-0.156895030770277,0.02));
#416=CARTESIAN_POINT('',(0.246862921717603,-0.116472240753975,0.02));
#417=CARTESIAN_POINT('',(0.246862921717603,-0.116472240753975,-0.029));
#418=CARTESIAN_POINT('',(0.214923068306158,-0.130546224606544,-0.029));
#419=CARTESIAN_POINT('',(0.214923068306158,-0.130546224606544,0.02));
#420=CARTESIAN_POINT('',(0.214923068306158,-0.130546224606544,0.02));
#421=CARTESIAN_POINT('',(0.246862921717603,-0.116472240753975,0.02));
#422=CARTESIAN_POINT('',(0.208292517372848,-0.143650636845691,0.02));
#423=CARTESIAN_POINT('',(0.208292517372848,-0.143650636845691,-0.035));
#424=CARTESIAN_POINT('',(0.20791554735907,-0.12896909334981,-0.035));
#425=CARTESIAN_POINT('',(0.196811910845389,-0.134491734096211,-0.035));
#426=CARTESIAN_POINT('',(0.196811910845389,-0.134491734096211,-0.035));
#427=CARTESIAN_POINT('',(0.196095943474616,-0.135389193092684,-0.035));
#428=CARTESIAN_POINT('',(0.194904623494418,-0.137321233662584,-0.034620546298763));
#429=CARTESIAN_POINT('',(0.194045380419398,-0.139835121778113,-0.033608183871632));
#430=CARTESIAN_POINT('',(0.193694036899383,-0.141834355127176,-0.0325531047723133));
#431=CARTESIAN_POINT('',(0.193589166505067,-0.143257129492241,-0.031652997778127));
#432=CARTESIAN_POINT('',(0.193614745276449,-0.144378021575598,-0.0307563995739941));
#433=CARTESIAN_POINT('',(0.193675234707048,-0.145093806422636,-0.0298485508052348));
#434=CARTESIAN_POINT('',(0.193696080593115,-0.145273553709864,-0.0292902957500907));
#435=CARTESIAN_POINT('',(0.193696080593115,-0.145273553709864,-0.029));
#436=CARTESIAN_POINT('',(0.193696080593115,-0.145273553709864,-0.029));
#437=CARTESIAN_POINT('',(0.193696080593115,-0.145273553709864,0.02));
#438=CARTESIAN_POINT('',(0.193696080593115,-0.145273553709864,0.02));
#439=CARTESIAN_POINT('',(0.208292517372848,-0.143650636845691,0.02));
#440=CARTESIAN_POINT('',(0.214923068306158,-0.130546224606544,-0.029));
#441=CARTESIAN_POINT('',(0.214923068306158,-0.130546224606544,-0.0298682406406405));
#442=CARTESIAN_POINT('',(0.214373591227369,-0.130257435013939,-0.0315182801464195));
#443=CARTESIAN_POINT('',(0.2126780264393,-0.129583220848685,-0.0333786151039326));
#444=CARTESIAN_POINT('',(0.210484405256599,-0.129061383360916,-0.0346548306745053));
#445=CARTESIAN_POINT('',(0.208779909294636,-0.128946899598121,-0.035));
#446=CARTESIAN_POINT('',(0.20791554735907,-0.12896909334981,-0.035));
#447=CARTESIAN_POINT('',(0.253666400054587,-0.122791632479703,0.02));
#448=CARTESIAN_POINT('',(0.253666400054587,-0.122791632479703,-0.029));
#449=CARTESIAN_POINT('',(0.253666400054587,-0.122791632479703,0.02));
#450=CARTESIAN_POINT('',(0.233402002858431,-0.141733597313975,0.02));
#451=CARTESIAN_POINT('',(0.233402002858431,-0.141733597313975,-0.035));
#452=CARTESIAN_POINT('',(0.253666400054587,-0.122791632479703,-0.035));
#453=CARTESIAN_POINT('',(0.246862921717603,-0.116472240753975,-0.035));
#454=CARTESIAN_POINT('',(0.253666400054587,-0.122791632479703,-0.029));
#455=CARTESIAN_POINT('',(0.246862921717603,-0.116472240753975,-0.029));
#456=CARTESIAN_POINT('',(0.22036333074897,-0.156895030770277,0.02));
#457=CARTESIAN_POINT('',(0.201542516305335,-0.155892322025208,0.0177));
#458=CARTESIAN_POINT('',(0.201542516305335,-0.155892322025208,0.0177));
#459=CARTESIAN_POINT('',(0.201542516305335,-0.155892322025208,-0.029));
#460=CARTESIAN_POINT('',(0.22036333074897,-0.156895030770277,0.0177));
#461=CARTESIAN_POINT('',(0.216799695166487,-0.138387492236358,0.0177));
#462=CARTESIAN_POINT('',(0.216799695166487,-0.138387492236358,0.0177));
#463=CARTESIAN_POINT('',(0.216799695166487,-0.138387492236358,-0.029));
#464=CARTESIAN_POINT('',(0.213068853622985,-0.139516334484085,-0.0327));
#465=CARTESIAN_POINT('',(0.21399259842761,-0.139128604861758,-0.0327000000000001));
#466=CARTESIAN_POINT('',(0.215867409557132,-0.13854415794855,-0.0319173756808912));
#467=CARTESIAN_POINT('',(0.216799695166487,-0.138387492236358,-0.0300031135345862));
#468=CARTESIAN_POINT('',(0.216799695166487,-0.138387492236358,-0.029));
#469=CARTESIAN_POINT('',(0.213068853622985,-0.139516334484085,-0.0327));
#470=CARTESIAN_POINT('',(0.22036333074897,-0.156895030770277,-0.0327));
#471=CARTESIAN_POINT('',(0.202644664615379,-0.150470285514973,-0.0327));
#472=CARTESIAN_POINT('',(0.201542516305335,-0.155892322025208,-0.029));
#473=CARTESIAN_POINT('',(0.201542516305335,-0.155892322025208,-0.0296162102324191));
#474=CARTESIAN_POINT('',(0.201567335988372,-0.155336165406708,-0.0307617549615096));
#475=CARTESIAN_POINT('',(0.201738178716786,-0.153858868342713,-0.0318664368361084));
#476=CARTESIAN_POINT('',(0.202081460106348,-0.1522010034634,-0.0325339763993225));
#477=CARTESIAN_POINT('',(0.202436691728771,-0.151043849445717,-0.0327));
#478=CARTESIAN_POINT('',(0.202644664615379,-0.150470285514973,-0.0327));
#479=CARTESIAN_POINT('',(0.246862921717603,-0.116472240753975,0.02));
#480=CARTESIAN_POINT('',(0.246862921717603,-0.116472240753975,0.0177));
#481=CARTESIAN_POINT('',(0.213180190466324,-0.132269375103404,0.0177));
#482=CARTESIAN_POINT('',(0.213180190466324,-0.132269375103404,0.0177));
#483=CARTESIAN_POINT('',(0.213180190466324,-0.132269375103404,-0.029));
#484=CARTESIAN_POINT('',(0.246862921717603,-0.116472240753975,-0.029));
#485=CARTESIAN_POINT('',(0.208292517372848,-0.143650636845691,0.02));
#486=CARTESIAN_POINT('',(0.208292517372848,-0.143650636845691,-0.0327));
#487=CARTESIAN_POINT('',(0.208731100664261,-0.131272021744977,-0.0327));
#488=CARTESIAN_POINT('',(0.197523177088825,-0.137531504802495,-0.0327));
#489=CARTESIAN_POINT('',(0.213180190466324,-0.132269375103404,-0.029));
#490=CARTESIAN_POINT('',(0.213180190466324,-0.132269375103404,-0.0295445492017342));
#491=CARTESIAN_POINT('',(0.212833974157036,-0.132115868038042,-0.0305864779608288));
#492=CARTESIAN_POINT('',(0.211372884986509,-0.131597485565427,-0.0321216156645516));
#493=CARTESIAN_POINT('',(0.209814146431223,-0.1313103948403,-0.0327));
#494=CARTESIAN_POINT('',(0.208731100664261,-0.131272021744977,-0.0327));
#495=CARTESIAN_POINT('',(0.208292517372848,-0.143650636845691,0.0177));
#496=CARTESIAN_POINT('',(0.195954442124966,-0.144743507511764,0.0177));
#497=CARTESIAN_POINT('',(0.195954442124966,-0.144743507511764,0.0177));
#498=CARTESIAN_POINT('',(0.195954442124966,-0.144743507511764,-0.029));
#499=CARTESIAN_POINT('',(0.197523177088825,-0.137531504802495,-0.0327));
#500=CARTESIAN_POINT('',(0.197157282574309,-0.138175459289351,-0.0327));
#501=CARTESIAN_POINT('',(0.196557002720819,-0.139499541849298,-0.0324915313760183));
#502=CARTESIAN_POINT('',(0.19612015759204,-0.14119304548882,-0.0318991612085286));
#503=CARTESIAN_POINT('',(0.195946979167183,-0.142498996123625,-0.0312742812625289));
#504=CARTESIAN_POINT('',(0.195896162424866,-0.143454849550337,-0.0307053494396453));
#505=CARTESIAN_POINT('',(0.195915930702033,-0.144321456220262,-0.0300327608409751));
#506=CARTESIAN_POINT('',(0.195954442124966,-0.144743507511764,-0.029374458325568));
#507=CARTESIAN_POINT('',(0.195954442124966,-0.144743507511764,-0.029));
#508=CARTESIAN_POINT('',(0.253666400054587,-0.122791632479703,0.02));
#509=CARTESIAN_POINT('',(0.253666400054587,-0.122791632479703,0.0177));
#510=CARTESIAN_POINT('',(0.253666400054587,-0.122791632479703,-0.029));
#511=CARTESIAN_POINT('',(0.233402002858431,-0.141733597313975,0.0177));
#512=CARTESIAN_POINT('',(0.233402002858431,-0.141733597313975,-0.0327));
#513=CARTESIAN_POINT('',(0.246862921717603,-0.116472240753975,-0.0327));
#514=CARTESIAN_POINT('',(0.253666400054587,-0.122791632479703,-0.0327));
#515=CARTESIAN_POINT('',(0.253666400054587,-0.122791632479703,-0.029));
#516=CARTESIAN_POINT('',(0.246862921717603,-0.116472240753975,-0.029));
#517=MECHANICAL_DESIGN_GEOMETRIC_PRESENTATION_REPRESENTATION('',(#255),
#518);
#518=(
GEOMETRIC_REPRESENTATION_CONTEXT(3)
GLOBAL_UNCERTAINTY_ASSIGNED_CONTEXT((#519))
GLOBAL_UNIT_ASSIGNED_CONTEXT((#522,#521,#520))
REPRESENTATION_CONTEXT('Part 8','TOP_LEVEL_ASSEMBLY_PART')
);
#519=UNCERTAINTY_MEASURE_WITH_UNIT(LENGTH_MEASURE(2.E-5),#522,
'DISTANCE_ACCURACY_VALUE','Maximum Tolerance applied to model');
#520=(
NAMED_UNIT(*)
SI_UNIT($,.STERADIAN.)
SOLID_ANGLE_UNIT()
);
#521=(
NAMED_UNIT(*)
PLANE_ANGLE_UNIT()
SI_UNIT($,.RADIAN.)
);
#522=(
LENGTH_UNIT()
NAMED_UNIT(*)
SI_UNIT($,.METRE.)
);
#523=PRODUCT_DEFINITION_SHAPE('','',#524);
#524=PRODUCT_DEFINITION('','',#526,#525);
#525=PRODUCT_DEFINITION_CONTEXT('',#532,'design');
#526=PRODUCT_DEFINITION_FORMATION_WITH_SPECIFIED_SOURCE('','',#528,
 .NOT_KNOWN.);
#527=PRODUCT_RELATED_PRODUCT_CATEGORY('','',(#528));
#528=PRODUCT('Part 8','Part 8','Part 8',(#530));
#529=PRODUCT_CATEGORY('','');
#530=PRODUCT_CONTEXT('',#532,'mechanical');
#531=APPLICATION_PROTOCOL_DEFINITION('international standard',
'ap242_managed_model_based_3d_engineering',2020,#532);
#532=APPLICATION_CONTEXT('managed model based 3d engineering');
ENDSEC;
END-ISO-10303-21;
