ISO-10303-21;
HEADER;
/* Generated by software containing ST-Developer
 * from STEP Tools, Inc. (www.steptools.com) 
 */
/* OPTION: using custom renumber hook */

FILE_DESCRIPTION(
/* description */ ('STEP AP242 Edition 2',
'CAx-IF Rec.Pracs.---Representation and Presentation of Product Manufa
cturing Information (PMI)---4.0---2014-10-13',
'CAx-IF Rec.Pracs.---3D Tessellated Geometry---0.4---2014-09-14','2;1',
'CAx-IF Rec.Pracs.---User Defined Attributes---1.5---2016-08-15'),
/* implementation_level */ '2;1');

FILE_NAME(
/* name */ 'Part Studio 1 - Part 22',
/* time_stamp */ '2026-06-18T16:33:50Z',
/* author */ (''),
/* organization */ (''),
/* preprocessor_version */ 'ST-DEVELOPER v20',
/* originating_system */ 'ONSHAPE BY PTC INC, 1.216',
/* authorisation */ '  ');

FILE_SCHEMA (('AP242_MANAGED_MODEL_BASED_3D_ENGINEERING_MIM_LF { 1 0 10303 442 3 1 4 }'));
ENDSEC;

DATA;
#10=SHAPE_REPRESENTATION_RELATIONSHIP('','',#362,#11);
#11=ADVANCED_BREP_SHAPE_REPRESENTATION('',(#360),#893);
#12=ORIENTED_CLOSED_SHELL('',*,#314,.F.);
#13=TOROIDAL_SURFACE('',#380,0.0107878365422663,0.006);
#14=TOROIDAL_SURFACE('',#397,0.0107878365422663,0.005);
#15=(
BOUNDED_SURFACE()
B_SPLINE_SURFACE(3,2,((#564,#565,#566),(#567,#568,#569),(#570,#571,#572),
(#573,#574,#575),(#576,#577,#578),(#579,#580,#581),(#582,#583,#584),(#585,
#586,#587),(#588,#589,#590),(#591,#592,#593),(#594,#595,#596),(#597,#598,
#599),(#600,#601,#602),(#603,#604,#605),(#606,#607,#608),(#609,#610,#611),
(#612,#613,#614),(#615,#616,#617),(#618,#619,#620),(#621,#622,#623),(#624,
#625,#626),(#627,#628,#629),(#630,#631,#632),(#633,#634,#635),(#636,#637,
#638),(#639,#640,#641),(#642,#643,#644),(#645,#646,#647)),.UNSPECIFIED.,
 .F.,.F.,.F.)
B_SPLINE_SURFACE_WITH_KNOTS((4,1,1,1,1,1,1,1,1,1,1,1,1,1,1,1,1,1,1,1,1,
1,1,1,1,4),(3,3),(0.0716764718044015,0.0717378613438643,0.0717992508833271,
0.0719220299622526,0.0721675881201037,0.0726587044358059,0.0731498207515081,
0.0736409370672102,0.0746231696986146,0.0756054023300189,0.0765876349614233,
0.0775698675928276,0.0795343328556363,0.0805165654870407,0.081498798118445,
0.0824810307498494,0.0829721470655516,0.0834632633812537,0.0837088215391048,
0.0838316006180304,0.0839543796969559,0.084199937854807,0.0844454960126581,
0.0849366123283603,0.0854277286440624,0.0873921939068711),(0.,1.),
 .UNSPECIFIED.)
GEOMETRIC_REPRESENTATION_ITEM()
RATIONAL_B_SPLINE_SURFACE(((1.,0.707106781186548,1.),(1.,0.707106781186548,
1.),(1.,0.707106781186548,1.),(1.,0.707106781186548,1.),(1.,0.707106781186548,
1.),(1.,0.707106781186547,1.),(1.,0.707106781186548,1.),(1.,0.707106781186548,
1.),(1.,0.707106781186548,1.),(1.,0.707106781186548,1.),(1.,0.707106781186548,
1.),(1.,0.707106781186547,1.),(1.,0.707106781186548,1.),(1.,0.707106781186548,
1.),(1.,0.707106781186547,1.),(1.,0.707106781186548,1.),(1.,0.707106781186547,
1.),(1.,0.707106781186548,1.),(1.,0.707106781186548,1.),(1.,0.707106781186548,
1.),(1.,0.707106781186547,1.),(1.,0.707106781186548,1.),(1.,0.707106781186547,
1.),(1.,0.707106781186548,1.),(1.,0.707106781186547,1.),(1.,0.707106781186548,
1.),(1.,0.707106781186548,1.),(1.,0.707106781186548,1.)))
REPRESENTATION_ITEM('')
SURFACE()
);
#16=(
BOUNDED_SURFACE()
B_SPLINE_SURFACE(3,2,((#662,#663,#664),(#665,#666,#667),(#668,#669,#670),
(#671,#672,#673),(#674,#675,#676),(#677,#678,#679),(#680,#681,#682),(#683,
#684,#685),(#686,#687,#688),(#689,#690,#691),(#692,#693,#694),(#695,#696,
#697),(#698,#699,#700)),.UNSPECIFIED.,.F.,.F.,.F.)
B_SPLINE_SURFACE_WITH_KNOTS((4,1,1,1,1,1,1,1,1,1,4),(3,3),(-2.81892564846231E-17,
0.00188052043121792,0.00282078064682689,0.00376104086243586,0.00564156129365381,
0.00752208172487175,0.00940260215608969,0.0103428623716987,0.0112831225873076,
0.0131636430185256,0.0150441634497435),(0.,1.),.UNSPECIFIED.)
GEOMETRIC_REPRESENTATION_ITEM()
RATIONAL_B_SPLINE_SURFACE(((1.,0.707106781186548,1.),(1.,0.707313984427936,
1.),(1.,0.714254130370691,1.),(1.,0.734535641231709,1.),(1.,0.759983024051128,
1.),(1.,0.798883020070372,1.),(1.,0.846459241038084,1.),(1.,0.883523425940611,
1.),(1.,0.908691072537305,1.),(1.,0.928336738366012,1.),(1.,0.948098018087935,
1.),(1.,0.954037880526421,1.),(1.,0.954037880508637,1.)))
REPRESENTATION_ITEM('')
SURFACE()
);
#17=(
BOUNDED_SURFACE()
B_SPLINE_SURFACE(3,2,((#786,#787,#788),(#789,#790,#791),(#792,#793,#794),
(#795,#796,#797),(#798,#799,#800),(#801,#802,#803),(#804,#805,#806),(#807,
#808,#809),(#810,#811,#812),(#813,#814,#815),(#816,#817,#818),(#819,#820,
#821),(#822,#823,#824),(#825,#826,#827),(#828,#829,#830),(#831,#832,#833),
(#834,#835,#836),(#837,#838,#839)),.UNSPECIFIED.,.F.,.F.,.F.)
B_SPLINE_SURFACE_WITH_KNOTS((4,1,1,1,1,1,1,1,1,1,1,1,1,1,1,4),(3,3),(0.0727637213208231,
0.0764192183199448,0.0782469668195057,0.0800747153190665,0.0809885895688469,
0.0819024638186274,0.0828163380684078,0.083273275193298,0.0835017437557431,
0.0837302123181882,0.0838444465994108,0.0839586808806334,0.0841871494430785,
0.0846440865679687,0.0855579608177491,0.08738570931731),(0.,1.),
 .UNSPECIFIED.)
GEOMETRIC_REPRESENTATION_ITEM()
RATIONAL_B_SPLINE_SURFACE(((1.,0.707106781186548,1.),(1.,0.707106781186548,
1.),(1.,0.707106781186548,1.),(1.,0.707106781186547,1.),(1.,0.707106781186548,
1.),(1.,0.707106781186548,1.),(1.,0.707106781186547,1.),(1.,0.707106781186548,
1.),(1.,0.707106781186547,1.),(1.,0.707106781186548,1.),(1.,0.707106781186548,
1.),(1.,0.707106781186548,1.),(1.,0.707106781186548,1.),(1.,0.707106781186548,
1.),(1.,0.707106781186548,1.),(1.,0.707106781186548,1.),(1.,0.707106781186548,
1.),(1.,0.707106781186548,1.)))
REPRESENTATION_ITEM('')
SURFACE()
);
#18=(
BOUNDED_SURFACE()
B_SPLINE_SURFACE(3,2,((#854,#855,#856),(#857,#858,#859),(#860,#861,#862),
(#863,#864,#865),(#866,#867,#868),(#869,#870,#871),(#872,#873,#874),(#875,
#876,#877),(#878,#879,#880),(#881,#882,#883),(#884,#885,#886),(#887,#888,
#889)),.UNSPECIFIED.,.F.,.F.,.F.)
B_SPLINE_SURFACE_WITH_KNOTS((4,1,1,1,1,1,1,1,1,4),(3,3),(-2.81892564846231E-17,
0.00188052043121792,0.00376104086243586,0.00564156129365381,0.00752208172487175,
0.00940260215608969,0.0103428623716987,0.0112831225873076,0.0131636430185256,
0.0150441634497435),(0.,1.),.UNSPECIFIED.)
GEOMETRIC_REPRESENTATION_ITEM()
RATIONAL_B_SPLINE_SURFACE(((1.,0.707106781186548,1.),(1.,0.707313984427901,
1.),(1.,0.716635628146083,1.),(1.,0.752265364831206,1.),(1.,0.798866289604721,
1.),(1.,0.846463822916761,1.),(1.,0.883522858712842,1.),(1.,0.908691177171553,
1.),(1.,0.92833667778829,1.),(1.,0.948098040116197,1.),(1.,0.954037880526421,
1.),(1.,0.954037880508637,1.)))
REPRESENTATION_ITEM('')
SURFACE()
);
#19=PLANE('',#373);
#20=PLANE('',#375);
#21=PLANE('',#390);
#22=PLANE('',#392);
#23=B_SPLINE_SURFACE_WITH_KNOTS('',3,1,((#498,#499),(#500,#501),(#502,#503),
(#504,#505)),.SURF_OF_LINEAR_EXTRUSION.,.F.,.F.,.F.,(4,4),(2,2),(0.427754601046387,
0.627128497522787),(0.,1.),.PIECEWISE_BEZIER_KNOTS.);
#24=B_SPLINE_SURFACE_WITH_KNOTS('',3,1,((#722,#723),(#724,#725),(#726,#727),
(#728,#729)),.SURF_OF_LINEAR_EXTRUSION.,.F.,.F.,.F.,(4,4),(2,2),(0.427754601046386,
0.603462621025927),(0.,1.),.PIECEWISE_BEZIER_KNOTS.);
#25=B_SPLINE_CURVE_WITH_KNOTS('',3,(#485,#486,#487,#488,#489,#490,#491,
#492,#493),.UNSPECIFIED.,.F.,.F.,(4,1,1,1,1,1,4),(0.,0.00501779195266123,
0.0100355839053225,0.0125444798816531,0.0150533758579837,0.0175622718343143,
0.0200711678106449),.UNSPECIFIED.);
#26=B_SPLINE_CURVE_WITH_KNOTS('',3,(#506,#507,#508,#509),.UNSPECIFIED.,
 .F.,.F.,(4,4),(0.407285300979432,0.627128497522787),
 .PIECEWISE_BEZIER_KNOTS.);
#27=B_SPLINE_CURVE_WITH_KNOTS('',3,(#514,#515,#516,#517,#518),
 .UNSPECIFIED.,.F.,.F.,(4,1,4),(0.0017177919820535,0.0101408865688625,0.0185639811556715),
 .UNSPECIFIED.);
#28=B_SPLINE_CURVE_WITH_KNOTS('',3,(#522,#523,#524,#525,#526,#527,#528,
#529,#530),.UNSPECIFIED.,.F.,.F.,(4,1,1,1,1,1,4),(0.,0.00321552258127407,
0.00643104516254814,0.00964656774382221,0.0128620903250963,0.0192931354876444,
0.0257241806501926),.UNSPECIFIED.);
#29=B_SPLINE_CURVE_WITH_KNOTS('',3,(#540,#541,#542,#543,#544,#545,#546,
#547,#548,#549,#550,#551),.UNSPECIFIED.,.F.,.F.,(4,1,1,1,1,1,1,1,1,4),(0.,
0.00306711461766681,0.00460067192650022,0.00613422923533363,0.00766778654416704,
0.00920134385300044,0.00996812250741715,0.0107349011618338,0.0115016798162506,
0.0122684584706673),.UNSPECIFIED.);
#30=B_SPLINE_CURVE_WITH_KNOTS('',3,(#556,#557,#558,#559,#560,#561),
 .UNSPECIFIED.,.F.,.F.,(4,1,1,4),(0.,0.00401503634179452,0.00602255451269177,
0.00803007268358903),.UNSPECIFIED.);
#31=B_SPLINE_CURVE_WITH_KNOTS('',3,(#648,#649,#650,#651,#652,#653,#654,
#655,#656,#657,#658,#659),.UNSPECIFIED.,.F.,.F.,(4,1,1,1,1,1,1,1,1,4),(0.,
0.00305206444018182,0.00610412888036363,0.00763016110045454,0.00915619332054545,
0.0122082577607273,0.0152603222009091,0.0183123866410909,0.0213644510812727,
0.0244165155214545),.UNSPECIFIED.);
#32=B_SPLINE_CURVE_WITH_KNOTS('',3,(#711,#712,#713,#714,#715,#716,#717,
#718,#719),.UNSPECIFIED.,.F.,.F.,(4,1,1,1,1,1,4),(0.,0.00480119321609921,
0.00960238643219842,0.012002983040248,0.0144035796482976,0.0168041762563472,
0.0192047728643968),.UNSPECIFIED.);
#33=B_SPLINE_CURVE_WITH_KNOTS('',3,(#730,#731,#732,#733,#734),
 .UNSPECIFIED.,.F.,.F.,(4,1,4),(0.,0.00727909443638599,0.014558188872772),
 .UNSPECIFIED.);
#34=B_SPLINE_CURVE_WITH_KNOTS('',3,(#739,#740,#741,#742,#743),
 .UNSPECIFIED.,.F.,.F.,(4,1,4),(0.,0.00728412772263155,0.0145682554452631),
 .UNSPECIFIED.);
#35=B_SPLINE_CURVE_WITH_KNOTS('',3,(#753,#754,#755,#756,#757,#758,#759,
#760,#761),.UNSPECIFIED.,.F.,.F.,(4,1,1,1,1,1,4),(0.,0.00302500095016122,
0.00605000190032244,0.00907500285048366,0.0121000038006449,0.0181500057009673,
0.0242000076012898),.UNSPECIFIED.);
#36=B_SPLINE_CURVE_WITH_KNOTS('',3,(#766,#767,#768,#769,#770,#771,#772,
#773,#774,#775,#776),.UNSPECIFIED.,.F.,.F.,(4,1,1,1,1,1,1,1,4),(0.,0.00250077582627034,
0.00375116373940551,0.00500155165254068,0.00625193956567585,0.00750232747881102,
0.00875271539194619,0.00937790934851378,0.0100031033050814),
 .UNSPECIFIED.);
#37=B_SPLINE_CURVE_WITH_KNOTS('',3,(#780,#781,#782,#783),.UNSPECIFIED.,
 .F.,.F.,(4,4),(0.,0.00684918163455388),.UNSPECIFIED.);
#38=B_SPLINE_CURVE_WITH_KNOTS('',3,(#840,#841,#842,#843,#844,#845,#846,
#847,#848,#849,#850,#851),.UNSPECIFIED.,.F.,.F.,(4,1,1,1,1,1,1,1,1,4),(0.,
0.00285949529226545,0.00571899058453091,0.00714873823066363,0.00857848587679636,
0.0114379811690618,0.0142974764613273,0.0171569717535927,0.0200164670458582,
0.0228759623381236),.UNSPECIFIED.);
#39=CIRCLE('',#365,0.0167878365422663);
#40=CIRCLE('',#366,0.0167878365422663);
#41=CIRCLE('',#368,0.0521781370254422);
#42=CIRCLE('',#369,0.0521781370254422);
#43=CIRCLE('',#371,0.0062459212255701);
#44=CIRCLE('',#372,0.00624592122557007);
#45=CIRCLE('',#374,0.006);
#46=CIRCLE('',#376,0.0107878365422663);
#47=CIRCLE('',#378,0.006);
#48=CIRCLE('',#379,0.006);
#49=CIRCLE('',#382,0.0157878365422663);
#50=CIRCLE('',#383,0.0157878365422663);
#51=CIRCLE('',#385,0.0531781370254422);
#52=CIRCLE('',#386,0.0531781370254422);
#53=CIRCLE('',#388,0.0052459212255701);
#54=CIRCLE('',#389,0.0052459212255701);
#55=CIRCLE('',#391,0.005);
#56=CIRCLE('',#393,0.0107878365422663);
#57=CIRCLE('',#395,0.005);
#58=CIRCLE('',#396,0.005);
#59=ORIENTED_EDGE('',*,*,#147,.F.);
#60=ORIENTED_EDGE('',*,*,#148,.T.);
#61=ORIENTED_EDGE('',*,*,#149,.T.);
#62=ORIENTED_EDGE('',*,*,#150,.T.);
#63=ORIENTED_EDGE('',*,*,#151,.T.);
#64=ORIENTED_EDGE('',*,*,#152,.F.);
#65=ORIENTED_EDGE('',*,*,#153,.T.);
#66=ORIENTED_EDGE('',*,*,#154,.T.);
#67=ORIENTED_EDGE('',*,*,#155,.T.);
#68=ORIENTED_EDGE('',*,*,#155,.F.);
#69=ORIENTED_EDGE('',*,*,#156,.T.);
#70=ORIENTED_EDGE('',*,*,#157,.T.);
#71=ORIENTED_EDGE('',*,*,#158,.T.);
#72=ORIENTED_EDGE('',*,*,#159,.F.);
#73=ORIENTED_EDGE('',*,*,#160,.F.);
#74=ORIENTED_EDGE('',*,*,#161,.T.);
#75=ORIENTED_EDGE('',*,*,#147,.T.);
#76=ORIENTED_EDGE('',*,*,#162,.T.);
#77=ORIENTED_EDGE('',*,*,#158,.F.);
#78=ORIENTED_EDGE('',*,*,#151,.F.);
#79=ORIENTED_EDGE('',*,*,#163,.T.);
#80=ORIENTED_EDGE('',*,*,#152,.T.);
#81=ORIENTED_EDGE('',*,*,#159,.T.);
#82=ORIENTED_EDGE('',*,*,#162,.F.);
#83=ORIENTED_EDGE('',*,*,#164,.T.);
#84=ORIENTED_EDGE('',*,*,#165,.T.);
#85=ORIENTED_EDGE('',*,*,#160,.T.);
#86=ORIENTED_EDGE('',*,*,#157,.F.);
#87=ORIENTED_EDGE('',*,*,#154,.F.);
#88=ORIENTED_EDGE('',*,*,#166,.T.);
#89=ORIENTED_EDGE('',*,*,#164,.F.);
#90=ORIENTED_EDGE('',*,*,#156,.F.);
#91=ORIENTED_EDGE('',*,*,#163,.F.);
#92=ORIENTED_EDGE('',*,*,#150,.F.);
#93=ORIENTED_EDGE('',*,*,#167,.F.);
#94=ORIENTED_EDGE('',*,*,#153,.F.);
#95=ORIENTED_EDGE('',*,*,#167,.T.);
#96=ORIENTED_EDGE('',*,*,#149,.F.);
#97=ORIENTED_EDGE('',*,*,#168,.F.);
#98=ORIENTED_EDGE('',*,*,#166,.F.);
#99=ORIENTED_EDGE('',*,*,#168,.T.);
#100=ORIENTED_EDGE('',*,*,#148,.F.);
#101=ORIENTED_EDGE('',*,*,#161,.F.);
#102=ORIENTED_EDGE('',*,*,#165,.F.);
#103=ORIENTED_EDGE('',*,*,#169,.T.);
#104=ORIENTED_EDGE('',*,*,#170,.F.);
#105=ORIENTED_EDGE('',*,*,#171,.F.);
#106=ORIENTED_EDGE('',*,*,#172,.F.);
#107=ORIENTED_EDGE('',*,*,#173,.F.);
#108=ORIENTED_EDGE('',*,*,#174,.T.);
#109=ORIENTED_EDGE('',*,*,#175,.F.);
#110=ORIENTED_EDGE('',*,*,#176,.F.);
#111=ORIENTED_EDGE('',*,*,#177,.F.);
#112=ORIENTED_EDGE('',*,*,#175,.T.);
#113=ORIENTED_EDGE('',*,*,#178,.T.);
#114=ORIENTED_EDGE('',*,*,#179,.F.);
#115=ORIENTED_EDGE('',*,*,#180,.F.);
#116=ORIENTED_EDGE('',*,*,#181,.F.);
#117=ORIENTED_EDGE('',*,*,#182,.T.);
#118=ORIENTED_EDGE('',*,*,#179,.T.);
#119=ORIENTED_EDGE('',*,*,#183,.F.);
#120=ORIENTED_EDGE('',*,*,#169,.F.);
#121=ORIENTED_EDGE('',*,*,#184,.F.);
#122=ORIENTED_EDGE('',*,*,#170,.T.);
#123=ORIENTED_EDGE('',*,*,#183,.T.);
#124=ORIENTED_EDGE('',*,*,#178,.F.);
#125=ORIENTED_EDGE('',*,*,#174,.F.);
#126=ORIENTED_EDGE('',*,*,#185,.F.);
#127=ORIENTED_EDGE('',*,*,#186,.F.);
#128=ORIENTED_EDGE('',*,*,#180,.T.);
#129=ORIENTED_EDGE('',*,*,#182,.F.);
#130=ORIENTED_EDGE('',*,*,#187,.F.);
#131=ORIENTED_EDGE('',*,*,#176,.T.);
#132=ORIENTED_EDGE('',*,*,#181,.T.);
#133=ORIENTED_EDGE('',*,*,#186,.T.);
#134=ORIENTED_EDGE('',*,*,#188,.F.);
#135=ORIENTED_EDGE('',*,*,#185,.T.);
#136=ORIENTED_EDGE('',*,*,#177,.T.);
#137=ORIENTED_EDGE('',*,*,#189,.T.);
#138=ORIENTED_EDGE('',*,*,#171,.T.);
#139=ORIENTED_EDGE('',*,*,#189,.F.);
#140=ORIENTED_EDGE('',*,*,#188,.T.);
#141=ORIENTED_EDGE('',*,*,#190,.T.);
#142=ORIENTED_EDGE('',*,*,#172,.T.);
#143=ORIENTED_EDGE('',*,*,#190,.F.);
#144=ORIENTED_EDGE('',*,*,#187,.T.);
#145=ORIENTED_EDGE('',*,*,#184,.T.);
#146=ORIENTED_EDGE('',*,*,#173,.T.);
#147=EDGE_CURVE('',#191,#192,#219,.T.);
#148=EDGE_CURVE('',#191,#193,#39,.T.);
#149=EDGE_CURVE('',#193,#194,#25,.T.);
#150=EDGE_CURVE('',#194,#195,#220,.T.);
#151=EDGE_CURVE('',#195,#192,#40,.T.);
#152=EDGE_CURVE('',#196,#197,#26,.T.);
#153=EDGE_CURVE('',#196,#198,#221,.F.);
#154=EDGE_CURVE('',#198,#199,#27,.T.);
#155=EDGE_CURVE('',#199,#197,#222,.T.);
#156=EDGE_CURVE('',#199,#200,#28,.T.);
#157=EDGE_CURVE('',#200,#201,#41,.T.);
#158=EDGE_CURVE('',#201,#202,#223,.T.);
#159=EDGE_CURVE('',#197,#202,#42,.T.);
#160=EDGE_CURVE('',#203,#201,#43,.T.);
#161=EDGE_CURVE('',#203,#191,#29,.T.);
#162=EDGE_CURVE('',#192,#202,#44,.T.);
#163=EDGE_CURVE('',#195,#196,#45,.T.);
#164=EDGE_CURVE('',#200,#204,#30,.T.);
#165=EDGE_CURVE('',#204,#203,#46,.F.);
#166=EDGE_CURVE('',#198,#204,#31,.T.);
#167=EDGE_CURVE('',#198,#194,#47,.T.);
#168=EDGE_CURVE('',#204,#193,#48,.T.);
#169=EDGE_CURVE('',#205,#206,#224,.T.);
#170=EDGE_CURVE('',#207,#206,#49,.F.);
#171=EDGE_CURVE('',#208,#207,#225,.T.);
#172=EDGE_CURVE('',#209,#208,#32,.T.);
#173=EDGE_CURVE('',#205,#209,#50,.T.);
#174=EDGE_CURVE('',#210,#211,#33,.T.);
#175=EDGE_CURVE('',#212,#211,#226,.T.);
#176=EDGE_CURVE('',#213,#212,#34,.T.);
#177=EDGE_CURVE('',#210,#213,#227,.F.);
#178=EDGE_CURVE('',#211,#214,#51,.F.);
#179=EDGE_CURVE('',#215,#214,#228,.T.);
#180=EDGE_CURVE('',#216,#215,#52,.F.);
#181=EDGE_CURVE('',#212,#216,#35,.T.);
#182=EDGE_CURVE('',#217,#215,#53,.F.);
#183=EDGE_CURVE('',#206,#214,#54,.F.);
#184=EDGE_CURVE('',#217,#205,#36,.T.);
#185=EDGE_CURVE('',#207,#210,#55,.T.);
#186=EDGE_CURVE('',#216,#218,#37,.T.);
#187=EDGE_CURVE('',#218,#217,#56,.F.);
#188=EDGE_CURVE('',#213,#218,#38,.T.);
#189=EDGE_CURVE('',#213,#208,#57,.T.);
#190=EDGE_CURVE('',#218,#209,#58,.T.);
#191=VERTEX_POINT('',#481);
#192=VERTEX_POINT('',#482);
#193=VERTEX_POINT('',#484);
#194=VERTEX_POINT('',#494);
#195=VERTEX_POINT('',#496);
#196=VERTEX_POINT('',#510);
#197=VERTEX_POINT('',#511);
#198=VERTEX_POINT('',#513);
#199=VERTEX_POINT('',#519);
#200=VERTEX_POINT('',#531);
#201=VERTEX_POINT('',#533);
#202=VERTEX_POINT('',#535);
#203=VERTEX_POINT('',#539);
#204=VERTEX_POINT('',#562);
#205=VERTEX_POINT('',#705);
#206=VERTEX_POINT('',#706);
#207=VERTEX_POINT('',#708);
#208=VERTEX_POINT('',#710);
#209=VERTEX_POINT('',#720);
#210=VERTEX_POINT('',#735);
#211=VERTEX_POINT('',#736);
#212=VERTEX_POINT('',#738);
#213=VERTEX_POINT('',#744);
#214=VERTEX_POINT('',#748);
#215=VERTEX_POINT('',#750);
#216=VERTEX_POINT('',#752);
#217=VERTEX_POINT('',#764);
#218=VERTEX_POINT('',#784);
#219=LINE('',#480,#229);
#220=LINE('',#495,#230);
#221=LINE('',#512,#231);
#222=LINE('',#520,#232);
#223=LINE('',#534,#233);
#224=LINE('',#704,#234);
#225=LINE('',#709,#235);
#226=LINE('',#737,#236);
#227=LINE('',#745,#237);
#228=LINE('',#749,#238);
#229=VECTOR('',#402,1.);
#230=VECTOR('',#405,1.);
#231=VECTOR('',#408,1.);
#232=VECTOR('',#409,1.);
#233=VECTOR('',#414,1.);
#234=VECTOR('',#441,1.);
#235=VECTOR('',#444,1.);
#236=VECTOR('',#447,1.);
#237=VECTOR('',#448,1.);
#238=VECTOR('',#453,1.);
#239=EDGE_LOOP('',(#59,#60,#61,#62,#63));
#240=EDGE_LOOP('',(#64,#65,#66,#67));
#241=EDGE_LOOP('',(#68,#69,#70,#71,#72));
#242=EDGE_LOOP('',(#73,#74,#75,#76,#77));
#243=EDGE_LOOP('',(#78,#79,#80,#81,#82));
#244=EDGE_LOOP('',(#83,#84,#85,#86));
#245=EDGE_LOOP('',(#87,#88,#89,#90));
#246=EDGE_LOOP('',(#91,#92,#93,#94));
#247=EDGE_LOOP('',(#95,#96,#97,#98));
#248=EDGE_LOOP('',(#99,#100,#101,#102));
#249=EDGE_LOOP('',(#103,#104,#105,#106,#107));
#250=EDGE_LOOP('',(#108,#109,#110,#111));
#251=EDGE_LOOP('',(#112,#113,#114,#115,#116));
#252=EDGE_LOOP('',(#117,#118,#119,#120,#121));
#253=EDGE_LOOP('',(#122,#123,#124,#125,#126));
#254=EDGE_LOOP('',(#127,#128,#129,#130));
#255=EDGE_LOOP('',(#131,#132,#133,#134));
#256=EDGE_LOOP('',(#135,#136,#137,#138));
#257=EDGE_LOOP('',(#139,#140,#141,#142));
#258=EDGE_LOOP('',(#143,#144,#145,#146));
#259=FACE_BOUND('',#239,.T.);
#260=FACE_BOUND('',#240,.T.);
#261=FACE_BOUND('',#241,.T.);
#262=FACE_BOUND('',#242,.T.);
#263=FACE_BOUND('',#243,.T.);
#264=FACE_BOUND('',#244,.T.);
#265=FACE_BOUND('',#245,.T.);
#266=FACE_BOUND('',#246,.T.);
#267=FACE_BOUND('',#247,.T.);
#268=FACE_BOUND('',#248,.T.);
#269=FACE_BOUND('',#249,.T.);
#270=FACE_BOUND('',#250,.T.);
#271=FACE_BOUND('',#251,.T.);
#272=FACE_BOUND('',#252,.T.);
#273=FACE_BOUND('',#253,.T.);
#274=FACE_BOUND('',#254,.T.);
#275=FACE_BOUND('',#255,.T.);
#276=FACE_BOUND('',#256,.T.);
#277=FACE_BOUND('',#257,.T.);
#278=FACE_BOUND('',#258,.T.);
#279=CYLINDRICAL_SURFACE('',#364,0.0167878365422663);
#280=CYLINDRICAL_SURFACE('',#367,0.0521781370254422);
#281=CYLINDRICAL_SURFACE('',#370,0.0062459212255701);
#282=CYLINDRICAL_SURFACE('',#377,0.006);
#283=CYLINDRICAL_SURFACE('',#381,0.0157878365422663);
#284=CYLINDRICAL_SURFACE('',#384,0.0531781370254422);
#285=CYLINDRICAL_SURFACE('',#387,0.0052459212255701);
#286=CYLINDRICAL_SURFACE('',#394,0.005);
#287=OVER_RIDING_STYLED_ITEM('',(#317),#293,#315);
#288=OVER_RIDING_STYLED_ITEM('',(#318),#294,#315);
#289=OVER_RIDING_STYLED_ITEM('',(#319),#295,#315);
#290=OVER_RIDING_STYLED_ITEM('',(#320),#296,#315);
#291=OVER_RIDING_STYLED_ITEM('',(#321),#297,#315);
#292=OVER_RIDING_STYLED_ITEM('',(#322),#298,#315);
#293=ADVANCED_FACE('Face appearance 12',(#259),#279,.T.);
#294=ADVANCED_FACE('Face appearance 12',(#260),#23,.T.);
#295=ADVANCED_FACE('Face appearance 12',(#261),#280,.F.);
#296=ADVANCED_FACE('Face appearance 12',(#262),#281,.T.);
#297=ADVANCED_FACE('Face appearance 12',(#263),#19,.T.);
#298=ADVANCED_FACE('Face appearance 12',(#264),#20,.F.);
#299=ADVANCED_FACE('',(#265),#15,.T.);
#300=ADVANCED_FACE('',(#266),#282,.T.);
#301=ADVANCED_FACE('',(#267),#16,.T.);
#302=ADVANCED_FACE('',(#268),#13,.T.);
#303=ADVANCED_FACE('',(#269),#283,.F.);
#304=ADVANCED_FACE('',(#270),#24,.F.);
#305=ADVANCED_FACE('',(#271),#284,.T.);
#306=ADVANCED_FACE('',(#272),#285,.F.);
#307=ADVANCED_FACE('',(#273),#21,.F.);
#308=ADVANCED_FACE('',(#274),#22,.T.);
#309=ADVANCED_FACE('',(#275),#17,.F.);
#310=ADVANCED_FACE('',(#276),#286,.F.);
#311=ADVANCED_FACE('',(#277),#18,.F.);
#312=ADVANCED_FACE('',(#278),#14,.F.);
#313=CLOSED_SHELL('',(#293,#294,#295,#296,#297,#298,#299,#300,#301,#302));
#314=CLOSED_SHELL('',(#303,#304,#305,#306,#307,#308,#309,#310,#311,#312));
#315=STYLED_ITEM('',(#316),#360);
#316=PRESENTATION_STYLE_ASSIGNMENT((#323));
#317=PRESENTATION_STYLE_ASSIGNMENT((#324));
#318=PRESENTATION_STYLE_ASSIGNMENT((#325));
#319=PRESENTATION_STYLE_ASSIGNMENT((#326));
#320=PRESENTATION_STYLE_ASSIGNMENT((#327));
#321=PRESENTATION_STYLE_ASSIGNMENT((#328));
#322=PRESENTATION_STYLE_ASSIGNMENT((#329));
#323=SURFACE_STYLE_USAGE(.BOTH.,#330);
#324=SURFACE_STYLE_USAGE(.BOTH.,#331);
#325=SURFACE_STYLE_USAGE(.BOTH.,#332);
#326=SURFACE_STYLE_USAGE(.BOTH.,#333);
#327=SURFACE_STYLE_USAGE(.BOTH.,#334);
#328=SURFACE_STYLE_USAGE(.BOTH.,#335);
#329=SURFACE_STYLE_USAGE(.BOTH.,#336);
#330=SURFACE_SIDE_STYLE('',(#337));
#331=SURFACE_SIDE_STYLE('',(#338));
#332=SURFACE_SIDE_STYLE('',(#339));
#333=SURFACE_SIDE_STYLE('',(#340));
#334=SURFACE_SIDE_STYLE('',(#341));
#335=SURFACE_SIDE_STYLE('',(#342));
#336=SURFACE_SIDE_STYLE('',(#343));
#337=SURFACE_STYLE_FILL_AREA(#344);
#338=SURFACE_STYLE_FILL_AREA(#345);
#339=SURFACE_STYLE_FILL_AREA(#346);
#340=SURFACE_STYLE_FILL_AREA(#347);
#341=SURFACE_STYLE_FILL_AREA(#348);
#342=SURFACE_STYLE_FILL_AREA(#349);
#343=SURFACE_STYLE_FILL_AREA(#350);
#344=FILL_AREA_STYLE('',(#351));
#345=FILL_AREA_STYLE('',(#352));
#346=FILL_AREA_STYLE('',(#353));
#347=FILL_AREA_STYLE('',(#354));
#348=FILL_AREA_STYLE('',(#355));
#349=FILL_AREA_STYLE('',(#356));
#350=FILL_AREA_STYLE('',(#357));
#351=FILL_AREA_STYLE_COLOUR('',#358);
#352=FILL_AREA_STYLE_COLOUR('',#359);
#353=FILL_AREA_STYLE_COLOUR('',#359);
#354=FILL_AREA_STYLE_COLOUR('',#359);
#355=FILL_AREA_STYLE_COLOUR('',#359);
#356=FILL_AREA_STYLE_COLOUR('',#359);
#357=FILL_AREA_STYLE_COLOUR('',#359);
#358=COLOUR_RGB('',0.917647058823529,0.917647058823529,0.917647058823529);
#359=COLOUR_RGB('',0.901960784313726,0.901960784313726,0.901960784313726);
#360=BREP_WITH_VOIDS('Part 22',#313,(#12));
#361=SHAPE_DEFINITION_REPRESENTATION(#898,#362);
#362=SHAPE_REPRESENTATION('Part 22',(#363),#893);
#363=AXIS2_PLACEMENT_3D('',#478,#398,#399);
#364=AXIS2_PLACEMENT_3D('',#479,#400,#401);
#365=AXIS2_PLACEMENT_3D('',#483,#403,#404);
#366=AXIS2_PLACEMENT_3D('',#497,#406,#407);
#367=AXIS2_PLACEMENT_3D('',#521,#410,#411);
#368=AXIS2_PLACEMENT_3D('',#532,#412,#413);
#369=AXIS2_PLACEMENT_3D('',#536,#415,#416);
#370=AXIS2_PLACEMENT_3D('',#537,#417,#418);
#371=AXIS2_PLACEMENT_3D('',#538,#419,#420);
#372=AXIS2_PLACEMENT_3D('',#552,#421,#422);
#373=AXIS2_PLACEMENT_3D('',#553,#423,#424);
#374=AXIS2_PLACEMENT_3D('',#554,#425,#426);
#375=AXIS2_PLACEMENT_3D('',#555,#427,#428);
#376=AXIS2_PLACEMENT_3D('',#563,#429,#430);
#377=AXIS2_PLACEMENT_3D('',#660,#431,#432);
#378=AXIS2_PLACEMENT_3D('',#661,#433,#434);
#379=AXIS2_PLACEMENT_3D('',#701,#435,#436);
#380=AXIS2_PLACEMENT_3D('',#702,#437,#438);
#381=AXIS2_PLACEMENT_3D('',#703,#439,#440);
#382=AXIS2_PLACEMENT_3D('',#707,#442,#443);
#383=AXIS2_PLACEMENT_3D('',#721,#445,#446);
#384=AXIS2_PLACEMENT_3D('',#746,#449,#450);
#385=AXIS2_PLACEMENT_3D('',#747,#451,#452);
#386=AXIS2_PLACEMENT_3D('',#751,#454,#455);
#387=AXIS2_PLACEMENT_3D('',#762,#456,#457);
#388=AXIS2_PLACEMENT_3D('',#763,#458,#459);
#389=AXIS2_PLACEMENT_3D('',#765,#460,#461);
#390=AXIS2_PLACEMENT_3D('',#777,#462,#463);
#391=AXIS2_PLACEMENT_3D('',#778,#464,#465);
#392=AXIS2_PLACEMENT_3D('',#779,#466,#467);
#393=AXIS2_PLACEMENT_3D('',#785,#468,#469);
#394=AXIS2_PLACEMENT_3D('',#852,#470,#471);
#395=AXIS2_PLACEMENT_3D('',#853,#472,#473);
#396=AXIS2_PLACEMENT_3D('',#890,#474,#475);
#397=AXIS2_PLACEMENT_3D('',#891,#476,#477);
#398=DIRECTION('',(0.,0.,1.));
#399=DIRECTION('',(1.,0.,0.));
#400=DIRECTION('',(1.,0.,0.));
#401=DIRECTION('',(0.,0.,-1.));
#402=DIRECTION('',(1.,0.,0.));
#403=DIRECTION('',(1.,0.,0.));
#404=DIRECTION('',(0.,0.,-1.));
#405=DIRECTION('',(1.,0.,0.));
#406=DIRECTION('',(-1.,0.,0.));
#407=DIRECTION('',(0.,0.,-1.));
#408=DIRECTION('',(1.,0.,0.));
#409=DIRECTION('',(1.,0.,0.));
#410=DIRECTION('',(1.,0.,0.));
#411=DIRECTION('',(0.,0.,-1.));
#412=DIRECTION('',(-1.,0.,0.));
#413=DIRECTION('',(0.,0.,1.));
#414=DIRECTION('',(1.,0.,0.));
#415=DIRECTION('',(-1.,0.,0.));
#416=DIRECTION('',(0.,0.,-1.));
#417=DIRECTION('',(1.,0.,0.));
#418=DIRECTION('',(0.,0.,-1.));
#419=DIRECTION('',(-1.,0.,0.));
#420=DIRECTION('',(0.,0.,1.));
#421=DIRECTION('',(-1.,0.,0.));
#422=DIRECTION('',(0.,0.,-1.));
#423=DIRECTION('',(1.,0.,0.));
#424=DIRECTION('',(0.,1.,0.));
#425=DIRECTION('',(1.,0.,0.));
#426=DIRECTION('',(0.,0.,-1.));
#427=DIRECTION('',(1.,0.,0.));
#428=DIRECTION('',(0.,1.,0.));
#429=DIRECTION('',(1.,0.,0.));
#430=DIRECTION('',(0.,0.,-1.));
#431=DIRECTION('',(1.,0.,0.));
#432=DIRECTION('',(0.,0.,-1.));
#433=DIRECTION('',(-1.,0.,0.));
#434=DIRECTION('',(0.,0.,1.));
#435=DIRECTION('',(1.27052329419342E-16,-0.898269944490904,-0.439444088393858));
#436=DIRECTION('',(0.,0.439444088393858,-0.898269944490904));
#437=DIRECTION('',(1.,0.,0.));
#438=DIRECTION('',(0.,0.,-1.));
#439=DIRECTION('',(1.,0.,0.));
#440=DIRECTION('',(0.,0.,-1.));
#441=DIRECTION('',(1.,0.,0.));
#442=DIRECTION('',(1.,0.,0.));
#443=DIRECTION('',(0.,0.,-1.));
#444=DIRECTION('',(1.,0.,0.));
#445=DIRECTION('',(1.,0.,0.));
#446=DIRECTION('',(0.,0.,-1.));
#447=DIRECTION('',(1.,0.,0.));
#448=DIRECTION('',(1.,0.,0.));
#449=DIRECTION('',(1.,0.,0.));
#450=DIRECTION('',(0.,0.,-1.));
#451=DIRECTION('',(1.,0.,0.));
#452=DIRECTION('',(0.,0.,-1.));
#453=DIRECTION('',(1.,0.,0.));
#454=DIRECTION('',(1.,0.,0.));
#455=DIRECTION('',(0.,0.,-1.));
#456=DIRECTION('',(1.,0.,0.));
#457=DIRECTION('',(0.,0.,-1.));
#458=DIRECTION('',(1.,0.,0.));
#459=DIRECTION('',(0.,0.,-1.));
#460=DIRECTION('',(1.,0.,0.));
#461=DIRECTION('',(0.,0.,-1.));
#462=DIRECTION('',(1.,0.,0.));
#463=DIRECTION('',(0.,1.,0.));
#464=DIRECTION('',(1.,0.,0.));
#465=DIRECTION('',(0.,0.,-1.));
#466=DIRECTION('',(1.,0.,0.));
#467=DIRECTION('',(0.,1.,0.));
#468=DIRECTION('',(1.,0.,0.));
#469=DIRECTION('',(0.,0.,-1.));
#470=DIRECTION('',(1.,0.,0.));
#471=DIRECTION('',(0.,0.,-1.));
#472=DIRECTION('',(-1.,0.,0.));
#473=DIRECTION('',(0.,0.,1.));
#474=DIRECTION('',(0.,-0.898269944490904,-0.439444088393858));
#475=DIRECTION('',(0.,0.439444088393858,-0.898269944490904));
#476=DIRECTION('',(1.,0.,0.));
#477=DIRECTION('',(0.,0.,-1.));
#478=CARTESIAN_POINT('',(0.,0.,0.));
#479=CARTESIAN_POINT('',(-0.00564,-0.046837971903524,-0.00218461135112349));
#480=CARTESIAN_POINT('',(-0.00564,-0.0411620708814006,-0.0179838392865927));
#481=CARTESIAN_POINT('',(-0.07464,-0.0411620708814006,-0.0179838392865927));
#482=CARTESIAN_POINT('',(-0.00564,-0.0411620708814006,-0.0179838392865927));
#483=CARTESIAN_POINT('',(-0.07464,-0.046837971903524,-0.00218461135112349));
#484=CARTESIAN_POINT('',(-0.07464,-0.0394606563781027,-0.0172646203500674));
#485=CARTESIAN_POINT('',(-0.07464,-0.0394606563781027,-0.0172646203500674));
#486=CARTESIAN_POINT('',(-0.07464,-0.0379415243950117,-0.0165214433423609));
#487=CARTESIAN_POINT('',(-0.0742446547112859,-0.0351687840439157,-0.0145893936310986));
#488=CARTESIAN_POINT('',(-0.072863985987028,-0.0326754796467179,-0.0114210390420109));
#489=CARTESIAN_POINT('',(-0.0712981796505499,-0.0313437435706568,-0.00876490811705786));
#490=CARTESIAN_POINT('',(-0.0698759742745912,-0.0306565420751082,-0.00680319728989439));
#491=CARTESIAN_POINT('',(-0.068120036514907,-0.0302669003842752,-0.00501242080431828));
#492=CARTESIAN_POINT('',(-0.0664958852169906,-0.030184648256935,-0.00430552325212507));
#493=CARTESIAN_POINT('',(-0.06564,-0.030184648256935,-0.00430552325212507));
#494=CARTESIAN_POINT('',(-0.06564,-0.030184648256935,-0.00430552325212506));
#495=CARTESIAN_POINT('',(-0.00564,-0.030184648256935,-0.00430552325212505));
#496=CARTESIAN_POINT('',(-0.00564,-0.030184648256935,-0.00430552325212505));
#497=CARTESIAN_POINT('',(-0.00564,-0.046837971903524,-0.00218461135112349));
#498=CARTESIAN_POINT('',(-0.06564,-0.0308203012442756,-0.00076591404664117));
#499=CARTESIAN_POINT('',(-0.00564,-0.0308203012442756,-0.00076591404664117));
#500=CARTESIAN_POINT('',(-0.06564,-0.0334199531505472,0.00420262809435539));
#501=CARTESIAN_POINT('',(-0.00564,-0.0334199531505472,0.00420262809435539));
#502=CARTESIAN_POINT('',(-0.06564,-0.0369861416894611,0.00893959801603512));
#503=CARTESIAN_POINT('',(-0.00564,-0.0369861416894611,0.00893959801603512));
#504=CARTESIAN_POINT('',(-0.06564,-0.0411620708814006,0.0124009178657634));
#505=CARTESIAN_POINT('',(-0.00564,-0.0411620708814006,0.0124009178657634));
#506=CARTESIAN_POINT('',(-0.00564,-0.0300505488423977,-0.00230243637629889));
#507=CARTESIAN_POINT('',(-0.00564,-0.0326941140377031,0.00321651230503416));
#508=CARTESIAN_POINT('',(-0.00564,-0.0365574077920008,0.00858423156193073));
#509=CARTESIAN_POINT('',(-0.00564,-0.0411620708814006,0.0124009178657634));
#510=CARTESIAN_POINT('',(-0.00564,-0.0308203012442758,-0.000765914046640867));
#511=CARTESIAN_POINT('',(-0.00564,-0.0411620708814006,0.0124009178657634));
#512=CARTESIAN_POINT('',(-0.00564,-0.0308203012442755,-0.000765914046641245));
#513=CARTESIAN_POINT('',(-0.06564,-0.0308203012442755,-0.000765914046641253));
#514=CARTESIAN_POINT('',(-0.06564,-0.0308203012442756,-0.000765914046641261));
#515=CARTESIAN_POINT('',(-0.06564,-0.0321220237557085,0.00172198178984964));
#516=CARTESIAN_POINT('',(-0.06564,-0.0351481204843023,0.00648194961040134));
#517=CARTESIAN_POINT('',(-0.06564,-0.038997082223369,0.0106064146852627));
#518=CARTESIAN_POINT('',(-0.06564,-0.0411620708814006,0.0124009178657634));
#519=CARTESIAN_POINT('',(-0.06564,-0.0411620708814006,0.0124009178657634));
#520=CARTESIAN_POINT('',(-0.00564,-0.0411620708814006,0.0124009178657634));
#521=CARTESIAN_POINT('',(-0.00564,-0.093110408904102,0.017292559729695));
#522=CARTESIAN_POINT('',(-0.06564,-0.0411620708814006,0.0124009178657634));
#523=CARTESIAN_POINT('',(-0.0667288581449463,-0.0411620708814005,0.0124009178657634));
#524=CARTESIAN_POINT('',(-0.068858458286273,-0.0411873943158389,0.0121198757584924));
#525=CARTESIAN_POINT('',(-0.0718953253612117,-0.0413171678762385,0.0109021974009273));
#526=CARTESIAN_POINT('',(-0.0745508934136591,-0.041575531070574,0.00903235530557788));
#527=CARTESIAN_POINT('',(-0.0774879368571129,-0.0421391258247562,0.00591000132074913));
#528=CARTESIAN_POINT('',(-0.0799722954243346,-0.0433566505379733,0.00116308139503377));
#529=CARTESIAN_POINT('',(-0.08064,-0.044917382355664,-0.00282457003336151));
#530=CARTESIAN_POINT('',(-0.08064,-0.0458357675752743,-0.00479060740449372));
#531=CARTESIAN_POINT('',(-0.08064,-0.0458357675752743,-0.00479060740449372));
#532=CARTESIAN_POINT('',(-0.08064,-0.093110408904102,0.017292559729695));
#533=CARTESIAN_POINT('',(-0.08064,-0.0482849813305031,-0.00941397554333993));
#534=CARTESIAN_POINT('',(-0.00564,-0.0482849813305031,-0.00941397554333993));
#535=CARTESIAN_POINT('',(-0.00564,-0.0482849813305031,-0.00941397554333993));
#536=CARTESIAN_POINT('',(-0.00564,-0.093110408904102,0.017292559729695));
#537=CARTESIAN_POINT('',(-0.00564,-0.0425528436899185,-0.0118947274506092));
#538=CARTESIAN_POINT('',(-0.08064,-0.0425528436899185,-0.0118947274506092));
#539=CARTESIAN_POINT('',(-0.08064,-0.0487320984125772,-0.0128048609729713));
#540=CARTESIAN_POINT('',(-0.08064,-0.0487320984125772,-0.0128048609729713));
#541=CARTESIAN_POINT('',(-0.08064,-0.0485806133833195,-0.0138333524629049));
#542=CARTESIAN_POINT('',(-0.080282984178276,-0.0479679975156346,-0.0152595777005747));
#543=CARTESIAN_POINT('',(-0.0794371520235163,-0.0466813279282376,-0.0166489458962045));
#544=CARTESIAN_POINT('',(-0.0786743548459768,-0.0455672005451405,-0.0174177955959914));
#545=CARTESIAN_POINT('',(-0.077826503506061,-0.0443747866339341,-0.0179136030425594));
#546=CARTESIAN_POINT('',(-0.077062049505523,-0.0433552968261629,-0.0181116717424563));
#547=CARTESIAN_POINT('',(-0.0764209568013599,-0.0425600587080588,-0.018150006533998));
#548=CARTESIAN_POINT('',(-0.0759089151697915,-0.0419753781293686,-0.0181225700650848));
#549=CARTESIAN_POINT('',(-0.0753636926294898,-0.0414384782220084,-0.01804749878746));
#550=CARTESIAN_POINT('',(-0.0749047651739998,-0.0411620708814006,-0.0179838392865927));
#551=CARTESIAN_POINT('',(-0.07464,-0.0411620708814006,-0.0179838392865927));
#552=CARTESIAN_POINT('',(-0.00564,-0.0425528436899186,-0.0118947274506092));
#553=CARTESIAN_POINT('',(-0.00564,-0.0785833531866038,-0.024257448981059));
#554=CARTESIAN_POINT('',(-0.00564,-0.0361365731299208,-0.00354750589986106));
#555=CARTESIAN_POINT('',(-0.08064,-0.0785833531866038,-0.024257448981059));
#556=CARTESIAN_POINT('',(-0.08064,-0.0458357675752743,-0.00479060740449372));
#557=CARTESIAN_POINT('',(-0.08064,-0.0450989787209634,-0.00590827453908485));
#558=CARTESIAN_POINT('',(-0.08064,-0.0440994499766996,-0.00765072793493771));
#559=CARTESIAN_POINT('',(-0.08064,-0.0429662987463846,-0.010069731974468));
#560=CARTESIAN_POINT('',(-0.08064,-0.0423858217383671,-0.0112726999426013));
#561=CARTESIAN_POINT('',(-0.08064,-0.0420973209084658,-0.011875000683122));
#562=CARTESIAN_POINT('',(-0.08064,-0.0420973209084659,-0.011875000683122));
#563=CARTESIAN_POINT('',(-0.08064,-0.046837971903524,-0.00218461135112349));
#564=CARTESIAN_POINT('',(-0.06564,-0.0412338079073414,0.0124603788337149));
#565=CARTESIAN_POINT('',(-0.08064,-0.0412338079073414,0.0124603788337149));
#566=CARTESIAN_POINT('',(-0.08064,-0.0508061487731551,0.000911773275091274));
#567=CARTESIAN_POINT('',(-0.06564,-0.041218053161193,0.012447320131552));
#568=CARTESIAN_POINT('',(-0.08064,-0.041218053161193,0.012447320131552));
#569=CARTESIAN_POINT('',(-0.08064,-0.0507903940270067,0.000898714572928397));
#570=CARTESIAN_POINT('',(-0.06564,-0.0411914046037145,0.0124252229827487));
#571=CARTESIAN_POINT('',(-0.08064,-0.0411914046037145,0.0124252229827487));
#572=CARTESIAN_POINT('',(-0.08064,-0.0507588870289223,0.00087259446846055));
#573=CARTESIAN_POINT('',(-0.06564,-0.0410992200102093,0.0123488666409607));
#574=CARTESIAN_POINT('',(-0.08064,-0.0410992200102093,0.0123488666409607));
#575=CARTESIAN_POINT('',(-0.08064,-0.0506958530790524,0.000820375860659603));
#576=CARTESIAN_POINT('',(-0.06564,-0.0408790692888507,0.012164533504325));
#577=CARTESIAN_POINT('',(-0.08064,-0.0408790692888507,0.012164533504325));
#578=CARTESIAN_POINT('',(-0.08064,-0.0505860901767399,0.000728401522835388));
#579=CARTESIAN_POINT('',(-0.06564,-0.0404917619858221,0.0118327664660837));
#580=CARTESIAN_POINT('',(-0.08064,-0.0404917619858221,0.0118327664660837));
#581=CARTESIAN_POINT('',(-0.08064,-0.0503685745051367,0.000542275137441441));
#582=CARTESIAN_POINT('',(-0.06564,-0.0399404001035122,0.011341651495089));
#583=CARTESIAN_POINT('',(-0.08064,-0.0399404001035122,0.011341651495089));
#584=CARTESIAN_POINT('',(-0.08064,-0.0500634117553084,0.000270350637438027));
#585=CARTESIAN_POINT('',(-0.06564,-0.0393219820951502,0.0107620395942078));
#586=CARTESIAN_POINT('',(-0.08064,-0.0393219820951502,0.0107620395942078));
#587=CARTESIAN_POINT('',(-0.08064,-0.0497054529751115,-6.49085923780907E-5));
#588=CARTESIAN_POINT('',(-0.06564,-0.0385327424979738,0.00998752236941114));
#589=CARTESIAN_POINT('',(-0.08064,-0.0385327424979738,0.00998752236941115));
#590=CARTESIAN_POINT('',(-0.08064,-0.0492385587957077,-0.000523020494787709));
#591=CARTESIAN_POINT('',(-0.06564,-0.0376096979994667,0.00901943003241867));
#592=CARTESIAN_POINT('',(-0.08064,-0.0376096979994666,0.00901943003241866));
#593=CARTESIAN_POINT('',(-0.08064,-0.048672716950154,-0.00111593099113285));
#594=CARTESIAN_POINT('',(-0.06564,-0.0365862788266539,0.00785779947975516));
#595=CARTESIAN_POINT('',(-0.08064,-0.0365862788266539,0.00785779947975515));
#596=CARTESIAN_POINT('',(-0.08064,-0.0480234235923032,-0.00185250594111778));
#597=CARTESIAN_POINT('',(-0.06564,-0.0356324888115418,0.00669283806924852));
#598=CARTESIAN_POINT('',(-0.08064,-0.0356324888115418,0.00669283806924853));
#599=CARTESIAN_POINT('',(-0.08064,-0.0474015686229395,-0.00261171364220744));
#600=CARTESIAN_POINT('',(-0.06564,-0.0344377709648353,0.00512841983109887));
#601=CARTESIAN_POINT('',(-0.08064,-0.0344377709648353,0.00512841983109887));
#602=CARTESIAN_POINT('',(-0.08064,-0.0466059366357184,-0.00365318900530329));
#603=CARTESIAN_POINT('',(-0.06564,-0.0333478004496804,0.00354892231127745));
#604=CARTESIAN_POINT('',(-0.08064,-0.0333478004496803,0.00354892231127746));
#605=CARTESIAN_POINT('',(-0.08064,-0.0458618775732427,-0.00473055172788074));
#606=CARTESIAN_POINT('',(-0.06564,-0.0323405332837329,0.00194229689057987));
#607=CARTESIAN_POINT('',(-0.08064,-0.0323405332837329,0.00194229689057986));
#608=CARTESIAN_POINT('',(-0.08064,-0.0451662532459423,-0.00584001052105376));
#609=CARTESIAN_POINT('',(-0.06564,-0.0316235524128174,0.000721116397049713));
#610=CARTESIAN_POINT('',(-0.08064,-0.0316235524128174,0.000721116397049713));
#611=CARTESIAN_POINT('',(-0.08064,-0.0446686182223703,-0.00668758278238835));
#612=CARTESIAN_POINT('',(-0.06564,-0.0310568354109348,-0.000311172326090816));
#613=CARTESIAN_POINT('',(-0.08064,-0.0310568354109348,-0.000311172326090812));
#614=CARTESIAN_POINT('',(-0.08064,-0.0442752370659664,-0.00740406115702239));
#615=CARTESIAN_POINT('',(-0.06564,-0.0306220696311709,-0.00114504486866076));
#616=CARTESIAN_POINT('',(-0.08064,-0.0306220696311709,-0.00114504486866076));
#617=CARTESIAN_POINT('',(-0.08064,-0.0439730762074719,-0.00798372340233644));
#618=CARTESIAN_POINT('',(-0.06564,-0.030354346795728,-0.00167757942779699));
#619=CARTESIAN_POINT('',(-0.08064,-0.030354346795728,-0.00167757942779699));
#620=CARTESIAN_POINT('',(-0.08064,-0.0437895216914205,-0.0083486781343808));
#621=CARTESIAN_POINT('',(-0.06564,-0.0301766475585372,-0.0020405191446669));
#622=CARTESIAN_POINT('',(-0.08064,-0.0301766475585372,-0.0020405191446669));
#623=CARTESIAN_POINT('',(-0.08064,-0.0436638185120796,-0.00860555888789779));
#624=CARTESIAN_POINT('',(-0.06564,-0.0300665828114198,-0.00226879604379187));
#625=CARTESIAN_POINT('',(-0.08064,-0.0300665828114198,-0.00226879604379187));
#626=CARTESIAN_POINT('',(-0.08064,-0.0435928109624983,-0.00875276411243023));
#627=CARTESIAN_POINT('',(-0.06564,-0.0299930462571869,-0.00242257999049));
#628=CARTESIAN_POINT('',(-0.08064,-0.0299930462571869,-0.00242257999049));
#629=CARTESIAN_POINT('',(-0.08064,-0.0435222727358748,-0.00890020694298596));
#630=CARTESIAN_POINT('',(-0.06564,-0.0299062130557741,-0.00260373314770497));
#631=CARTESIAN_POINT('',(-0.08064,-0.0299062130557741,-0.00260373314770497));
#632=CARTESIAN_POINT('',(-0.08064,-0.0434339788930678,-0.00908444918782919));
#633=CARTESIAN_POINT('',(-0.06564,-0.0297644370004784,-0.00289976799506796));
#634=CARTESIAN_POINT('',(-0.08064,-0.0297644370004784,-0.00289976799506796));
#635=CARTESIAN_POINT('',(-0.08064,-0.0432927763936602,-0.00937927103081947));
#636=CARTESIAN_POINT('',(-0.06564,-0.0295881889636096,-0.00326769519026029));
#637=CARTESIAN_POINT('',(-0.08064,-0.0295881889636096,-0.00326769519026029));
#638=CARTESIAN_POINT('',(-0.08064,-0.0431162501393829,-0.0097477866236553));
#639=CARTESIAN_POINT('',(-0.06564,-0.0291643909646222,-0.00415246816577329));
#640=CARTESIAN_POINT('',(-0.08064,-0.0291643909646222,-0.00415246816577333));
#641=CARTESIAN_POINT('',(-0.08064,-0.0426926062300378,-0.0106322337173964));
#642=CARTESIAN_POINT('',(-0.06564,-0.0288114350046471,-0.0048893238466816));
#643=CARTESIAN_POINT('',(-0.08064,-0.0288114350046469,-0.0048893238466813));
#644=CARTESIAN_POINT('',(-0.08064,-0.0423395646646993,-0.011369270443735));
#645=CARTESIAN_POINT('',(-0.06564,-0.0285290033441446,-0.00547895403362194));
#646=CARTESIAN_POINT('',(-0.08064,-0.0285290033441446,-0.00547895403362194));
#647=CARTESIAN_POINT('',(-0.08064,-0.0420571330042031,-0.0119589006306739));
#648=CARTESIAN_POINT('',(-0.06564,-0.0308203012442755,-0.000765914046641255));
#649=CARTESIAN_POINT('',(-0.0666597098675335,-0.0308203012442755,-0.000765914046641255));
#650=CARTESIAN_POINT('',(-0.0686816294718255,-0.0309061140377413,-0.00105167875024175));
#651=CARTESIAN_POINT('',(-0.0710378699911375,-0.0312643797123607,-0.00197453874209245));
#652=CARTESIAN_POINT('',(-0.0727466012724182,-0.0317089111372337,-0.00292494051323711));
#653=CARTESIAN_POINT('',(-0.0743790850340281,-0.0323183957959223,-0.00391786603717385));
#654=CARTESIAN_POINT('',(-0.0762566034390117,-0.0333532821185161,-0.00529913787770931));
#655=CARTESIAN_POINT('',(-0.0781034940948025,-0.0349744348142196,-0.00703713129875875));
#656=CARTESIAN_POINT('',(-0.0795366886405604,-0.0370192859832606,-0.00880043343713538));
#657=CARTESIAN_POINT('',(-0.0804355148703287,-0.0394250929558427,-0.010464590301162));
#658=CARTESIAN_POINT('',(-0.08064,-0.0411810362127356,-0.0114304959359843));
#659=CARTESIAN_POINT('',(-0.08064,-0.0420973209084659,-0.011875000683122));
#660=CARTESIAN_POINT('',(-0.06564,-0.0361365731299208,-0.00354750589986106));
#661=CARTESIAN_POINT('',(-0.06564,-0.0361365731299207,-0.0035475058998611));
#662=CARTESIAN_POINT('',(-0.08064,-0.0420973209084659,-0.011875000683122));
#663=CARTESIAN_POINT('',(-0.08064,-0.0394606563781027,-0.0172646203500674));
#664=CARTESIAN_POINT('',(-0.07464,-0.0394606563781027,-0.0172646203500674));
#665=CARTESIAN_POINT('',(-0.08064,-0.0411414245654829,-0.0114112796738841));
#666=CARTESIAN_POINT('',(-0.0806364846711968,-0.0381881937067909,-0.0166421168290414));
#667=CARTESIAN_POINT('',(-0.0746399999980537,-0.0385695455960146,-0.0168286786070599));
#668=CARTESIAN_POINT('',(-0.0804746629208021,-0.0397844837163997,-0.0106606565807138));
#669=CARTESIAN_POINT('',(-0.0803560238954536,-0.0364700246503694,-0.0155347065710389));
#670=CARTESIAN_POINT('',(-0.074540797752919,-0.0373269654917643,-0.0160768581116987));
#671=CARTESIAN_POINT('',(-0.0799398040300214,-0.038095635736772,-0.00954574454496315));
#672=CARTESIAN_POINT('',(-0.0795204482177527,-0.0345695612997086,-0.0138090827044534));
#673=CARTESIAN_POINT('',(-0.0742198824179322,-0.035824278340441,-0.0148809370525532));
#674=CARTESIAN_POINT('',(-0.0792255087862852,-0.0365563407305207,-0.00840793684228148));
#675=CARTESIAN_POINT('',(-0.0784958843077832,-0.0330494999422444,-0.0120961648429861));
#676=CARTESIAN_POINT('',(-0.0737913052718177,-0.0344841307283001,-0.0136158230977352));
#677=CARTESIAN_POINT('',(-0.0780114596692307,-0.0348780657322964,-0.00694169238084693));
#678=CARTESIAN_POINT('',(-0.0769444388930022,-0.0317053586353899,-0.00999520043773441));
#679=CARTESIAN_POINT('',(-0.0730628758015226,-0.0330778978352018,-0.0119111366665354));
#680=CARTESIAN_POINT('',(-0.0762000336545016,-0.0333223064594531,-0.00525803655170043));
#681=CARTESIAN_POINT('',(-0.0749326136294817,-0.0307639394861157,-0.00774627861380473));
#682=CARTESIAN_POINT('',(-0.0719760201927053,-0.0318522267304476,-0.00986513389840606));
#683=CARTESIAN_POINT('',(-0.0743999170868107,-0.0323333652761832,-0.0039329821275207));
#684=CARTESIAN_POINT('',(-0.0731466598325202,-0.0303282695841057,-0.00607363622843058));
#685=CARTESIAN_POINT('',(-0.0708959502520859,-0.0311372830129095,-0.00819320761234304));
#686=CARTESIAN_POINT('',(-0.0728299303685591,-0.0317355111990058,-0.0029766267589904));
#687=CARTESIAN_POINT('',(-0.07169788258877,-0.0301278740605008,-0.00491392372510822));
#688=CARTESIAN_POINT('',(-0.0699539582211356,-0.0307375308014688,-0.00696850291784369));
#689=CARTESIAN_POINT('',(-0.0711550671932594,-0.0312888839376801,-0.00203078521349077));
#690=CARTESIAN_POINT('',(-0.070234324545598,-0.0299924436689076,-0.00384563480878638));
#691=CARTESIAN_POINT('',(-0.0689490403159553,-0.0304374763155446,-0.00584631591716861));
#692=CARTESIAN_POINT('',(-0.0688059782753765,-0.0309153056372604,-0.00108155116175211));
#693=CARTESIAN_POINT('',(-0.068250966890907,-0.0299427099687129,-0.00278424612864221));
#694=CARTESIAN_POINT('',(-0.067539586965228,-0.0302275864397711,-0.00468693232604674));
#695=CARTESIAN_POINT('',(-0.066705795346898,-0.0308203012421319,-0.00076591405073834));
#696=CARTESIAN_POINT('',(-0.0665136694917536,-0.0299465369377119,-0.00243588177591341));
#697=CARTESIAN_POINT('',(-0.0662794772081343,-0.0301846482573365,-0.00430552325527811));
#698=CARTESIAN_POINT('',(-0.06564,-0.0308203012442755,-0.000765914046641267));
#699=CARTESIAN_POINT('',(-0.06564,-0.0299465369374876,-0.00243588177158989));
#700=CARTESIAN_POINT('',(-0.06564,-0.0301846482569349,-0.00430552325212507));
#701=CARTESIAN_POINT('',(-0.07464,-0.0420973209084659,-0.011875000683122));
#702=CARTESIAN_POINT('',(-0.07464,-0.046837971903524,-0.00218461135112349));
#703=CARTESIAN_POINT('',(-0.00564,-0.046837971903524,-0.00218461135112349));
#704=CARTESIAN_POINT('',(-0.07464,-0.0414418964960799,-0.017021664727131));
#705=CARTESIAN_POINT('',(-0.07464,-0.0414418964960799,-0.017021664727131));
#706=CARTESIAN_POINT('',(-0.00664,-0.0414418964960806,-0.0170216647271314));
#707=CARTESIAN_POINT('',(-0.00664,-0.046837971903524,-0.00218461135112349));
#708=CARTESIAN_POINT('',(-0.00664,-0.0311766357357659,-0.00417918702674772));
#709=CARTESIAN_POINT('',(-0.00564,-0.0311766357357659,-0.00417918702674772));
#710=CARTESIAN_POINT('',(-0.06564,-0.0311766357357659,-0.00417918702674773));
#711=CARTESIAN_POINT('',(-0.07464,-0.0399001004664966,-0.0163663504055765));
#712=CARTESIAN_POINT('',(-0.07464,-0.0384457668989042,-0.0156548735352317));
#713=CARTESIAN_POINT('',(-0.0742289844632554,-0.0357981446599834,-0.0137968545908252));
#714=CARTESIAN_POINT('',(-0.0728135425805595,-0.0334553500979905,-0.0107737373900408));
#715=CARTESIAN_POINT('',(-0.0712217783466946,-0.0322209265075144,-0.00826318452988376));
#716=CARTESIAN_POINT('',(-0.0697922850125321,-0.0315946820409896,-0.00643247189594794));
#717=CARTESIAN_POINT('',(-0.0680303653203261,-0.0312466697774016,-0.00478833672045916));
#718=CARTESIAN_POINT('',(-0.0664585854711511,-0.0311766357357659,-0.00417918702674774));
#719=CARTESIAN_POINT('',(-0.06564,-0.0311766357357659,-0.00417918702674774));
#720=CARTESIAN_POINT('',(-0.07464,-0.0399001004664966,-0.0163663504055765));
#721=CARTESIAN_POINT('',(-0.07464,-0.046837971903524,-0.00218461135112349));
#722=CARTESIAN_POINT('',(-0.06564,-0.0317063465585498,-0.00122951268884456));
#723=CARTESIAN_POINT('',(-0.00664,-0.0317063465585498,-0.00122951268884456));
#724=CARTESIAN_POINT('',(-0.06564,-0.0339506042542802,0.00305978808622923));
#725=CARTESIAN_POINT('',(-0.00664,-0.0339506042542802,0.00305978808622923));
#726=CARTESIAN_POINT('',(-0.06564,-0.0369352520551309,0.00717364863829165));
#727=CARTESIAN_POINT('',(-0.00664,-0.0369352520551309,0.00717364863829165));
#728=CARTESIAN_POINT('',(-0.06564,-0.0403828933240361,0.0103843502474478));
#729=CARTESIAN_POINT('',(-0.00664,-0.0403828933240361,0.0103843502474478));
#730=CARTESIAN_POINT('',(-0.00664,-0.0317063465585498,-0.00122951268884447));
#731=CARTESIAN_POINT('',(-0.00664,-0.0328327873689677,0.000923378866520222));
#732=CARTESIAN_POINT('',(-0.00664,-0.0354049208507039,0.00505550466994615));
#733=CARTESIAN_POINT('',(-0.00664,-0.0386040713377887,0.0087277780671698));
#734=CARTESIAN_POINT('',(-0.00664,-0.0403828933240361,0.0103843502474478));
#735=CARTESIAN_POINT('',(-0.00664,-0.0317063465585498,-0.00122951268884447));
#736=CARTESIAN_POINT('',(-0.00664,-0.0403828933240361,0.0103843502474478));
#737=CARTESIAN_POINT('',(-0.06564,-0.0403828933240361,0.0103843502474478));
#738=CARTESIAN_POINT('',(-0.06564,-0.0403828933240361,0.0103843502474478));
#739=CARTESIAN_POINT('',(-0.06564,-0.0317063465585498,-0.00122951268884456));
#740=CARTESIAN_POINT('',(-0.06564,-0.0328324401523477,0.000922715254440276));
#741=CARTESIAN_POINT('',(-0.06564,-0.0354043127837919,0.00505493954604184));
#742=CARTESIAN_POINT('',(-0.06564,-0.0386048315563976,0.00872848603964156));
#743=CARTESIAN_POINT('',(-0.06564,-0.0403828933240361,0.0103843502474478));
#744=CARTESIAN_POINT('',(-0.06564,-0.0317063465585498,-0.00122951268884456));
#745=CARTESIAN_POINT('',(-0.00564,-0.0317063465585498,-0.00122951268884447));
#746=CARTESIAN_POINT('',(-0.00564,-0.093110408904102,0.017292559729695));
#747=CARTESIAN_POINT('',(-0.00664,-0.093110408904102,0.017292559729695));
#748=CARTESIAN_POINT('',(-0.00664,-0.0473913045114817,-0.00986766396292924));
#749=CARTESIAN_POINT('',(-0.07964,-0.0473913045114817,-0.00986766396292924));
#750=CARTESIAN_POINT('',(-0.07964,-0.0473913045114817,-0.00986766396292924));
#751=CARTESIAN_POINT('',(-0.07964,-0.093110408904102,0.017292559729695));
#752=CARTESIAN_POINT('',(-0.07964,-0.045202727306843,-0.00578921449743836));
#753=CARTESIAN_POINT('',(-0.06564,-0.0403828933240361,0.0103843502474478));
#754=CARTESIAN_POINT('',(-0.0666644924819673,-0.0403828933240361,0.0103843502474478));
#755=CARTESIAN_POINT('',(-0.0686677893192606,-0.0404171895511268,0.0101146306559743));
#756=CARTESIAN_POINT('',(-0.0715157239828825,-0.0405833968058732,0.0089512220241622));
#757=CARTESIAN_POINT('',(-0.0739960610739349,-0.0408904221638594,0.00717498203445809));
#758=CARTESIAN_POINT('',(-0.0767281484158786,-0.0415184083694814,0.00422553026887503));
#759=CARTESIAN_POINT('',(-0.0790251660507518,-0.0427850442606846,-0.000224446346253811));
#760=CARTESIAN_POINT('',(-0.07964,-0.0443168562872642,-0.00395053319310725));
#761=CARTESIAN_POINT('',(-0.07964,-0.045202727306843,-0.00578921449743835));
#762=CARTESIAN_POINT('',(-0.00564,-0.0425528436899185,-0.0118947274506092));
#763=CARTESIAN_POINT('',(-0.07964,-0.0425528436899185,-0.0118947274506092));
#764=CARTESIAN_POINT('',(-0.07964,-0.047693889737374,-0.0129384395961883));
#765=CARTESIAN_POINT('',(-0.00664,-0.0425528436899185,-0.0118947274506092));
#766=CARTESIAN_POINT('',(-0.07964,-0.047693889737374,-0.0129384395961883));
#767=CARTESIAN_POINT('',(-0.07964,-0.0475251344787809,-0.0137696827304685));
#768=CARTESIAN_POINT('',(-0.0793456518341554,-0.0469727748558638,-0.0149054753083791));
#769=CARTESIAN_POINT('',(-0.0786421827585313,-0.0458870745335843,-0.0159961494404159));
#770=CARTESIAN_POINT('',(-0.0780071163249857,-0.0449662872192453,-0.0165929902387145));
#771=CARTESIAN_POINT('',(-0.07730292257011,-0.0439961293004167,-0.0169725026023227));
#772=CARTESIAN_POINT('',(-0.0765358479273314,-0.0430067832771347,-0.0171516842853744));
#773=CARTESIAN_POINT('',(-0.0758557238130523,-0.0422134065846498,-0.0171447211269623));
#774=CARTESIAN_POINT('',(-0.0752387645007389,-0.0416421140623139,-0.0170659238074889));
#775=CARTESIAN_POINT('',(-0.0748534483631577,-0.0414418964960799,-0.017021664727131));
#776=CARTESIAN_POINT('',(-0.07464,-0.0414418964960799,-0.017021664727131));
#777=CARTESIAN_POINT('',(-0.00664,-0.0785833531866038,-0.024257448981059));
#778=CARTESIAN_POINT('',(-0.00664,-0.0361365731299208,-0.00354750589986106));
#779=CARTESIAN_POINT('',(-0.07964,-0.0785833531866038,-0.024257448981059));
#780=CARTESIAN_POINT('',(-0.07964,-0.045202727306843,-0.00578921449743836));
#781=CARTESIAN_POINT('',(-0.07964,-0.044014623670199,-0.00773879525247589));
#782=CARTESIAN_POINT('',(-0.07964,-0.0430814118672197,-0.00982052231853646));
#783=CARTESIAN_POINT('',(-0.07964,-0.0420973209084659,-0.011875000683122));
#784=CARTESIAN_POINT('',(-0.07964,-0.0420973209084659,-0.011875000683122));
#785=CARTESIAN_POINT('',(-0.07964,-0.046837971903524,-0.00218461135112349));
#786=CARTESIAN_POINT('',(-0.06564,-0.0404904709176643,0.0104841044461237));
#787=CARTESIAN_POINT('',(-0.07964,-0.0404904709176643,0.0104841044461237));
#788=CARTESIAN_POINT('',(-0.07964,-0.0499875489908753,0.000197924004806584));
#789=CARTESIAN_POINT('',(-0.06564,-0.0389716973289181,0.00908184328318361));
#790=CARTESIAN_POINT('',(-0.0796400000000119,-0.0389716973347893,0.00908184327683834));
#791=CARTESIAN_POINT('',(-0.07964,-0.0490935652210861,-0.00062747797459175));
#792=CARTESIAN_POINT('',(-0.06564,-0.0370851859595194,0.00698359170236816));
#793=CARTESIAN_POINT('',(-0.0796399999999973,-0.037085185958192,0.00698359170380269));
#794=CARTESIAN_POINT('',(-0.07964,-0.0478614943169373,-0.00198409487489994));
#795=CARTESIAN_POINT('',(-0.06564,-0.0349472463095011,0.00413361003423535));
#796=CARTESIAN_POINT('',(-0.0796400000000005,-0.0349472463097563,0.00413361003395956));
#797=CARTESIAN_POINT('',(-0.07964,-0.0463980799028855,-0.00393497427836262));
#798=CARTESIAN_POINT('',(-0.06564,-0.033748214526777,0.00232482582259424));
#799=CARTESIAN_POINT('',(-0.0796399999999999,-0.0337482145267453,0.00232482582262847));
#800=CARTESIAN_POINT('',(-0.07964,-0.0455566270231094,-0.00520329588647975));
#801=CARTESIAN_POINT('',(-0.06564,-0.0328540245750661,0.000849838452154998));
#802=CARTESIAN_POINT('',(-0.07964,-0.032854024575072,0.000849838452148538));
#803=CARTESIAN_POINT('',(-0.07964,-0.044924453904374,-0.006246085449161));
#804=CARTESIAN_POINT('',(-0.06564,-0.0322162321166081,-0.000269162514256801));
#805=CARTESIAN_POINT('',(-0.07964,-0.0322162321166065,-0.000269162514255028));
#806=CARTESIAN_POINT('',(-0.07964,-0.0444721558713712,-0.00703963921791379));
#807=CARTESIAN_POINT('',(-0.06564,-0.031709653713523,-0.00121598827503442));
#808=CARTESIAN_POINT('',(-0.07964,-0.0317096537135232,-0.00121598827503465));
#809=CARTESIAN_POINT('',(-0.07964,-0.0441134402903059,-0.00771005214272744));
#810=CARTESIAN_POINT('',(-0.06564,-0.0313688928092373,-0.00188481577857061));
#811=CARTESIAN_POINT('',(-0.07964,-0.0313688928092373,-0.00188481577857059));
#812=CARTESIAN_POINT('',(-0.07964,-0.0438719084061286,-0.0081842022113819));
#813=CARTESIAN_POINT('',(-0.06564,-0.031175882766586,-0.00227355015312254));
#814=CARTESIAN_POINT('',(-0.07964,-0.031175882766586,-0.00227355015312254));
#815=CARTESIAN_POINT('',(-0.07964,-0.0437366546713747,-0.00845654266992544));
#816=CARTESIAN_POINT('',(-0.06564,-0.0310610257752124,-0.0025086413769995));
#817=CARTESIAN_POINT('',(-0.07964,-0.0310610257752124,-0.0025086413769995));
#818=CARTESIAN_POINT('',(-0.07964,-0.0436532621906777,-0.00862733324953518));
#819=CARTESIAN_POINT('',(-0.06564,-0.030960123899288,-0.00271821507035518));
#820=CARTESIAN_POINT('',(-0.07964,-0.030960123899288,-0.00271821507035518));
#821=CARTESIAN_POINT('',(-0.07964,-0.0435872757460201,-0.00876433393174788));
#822=CARTESIAN_POINT('',(-0.06564,-0.0308958994636673,-0.00285252040006061));
#823=CARTESIAN_POINT('',(-0.07964,-0.0308958994636673,-0.00285252040006061));
#824=CARTESIAN_POINT('',(-0.07964,-0.0435216426822808,-0.00890151349261715));
#825=CARTESIAN_POINT('',(-0.06564,-0.0307800239182535,-0.00309429359353171));
#826=CARTESIAN_POINT('',(-0.07964,-0.0307800239182535,-0.00309429359353171));
#827=CARTESIAN_POINT('',(-0.07964,-0.0434066404863005,-0.00914150466276666));
#828=CARTESIAN_POINT('',(-0.06564,-0.0305507416356841,-0.00357306306245637));
#829=CARTESIAN_POINT('',(-0.0796400000000002,-0.0305507416356841,-0.00357306306245637));
#830=CARTESIAN_POINT('',(-0.07964,-0.0431767384073589,-0.00962153879340342));
#831=CARTESIAN_POINT('',(-0.06564,-0.0300904136360683,-0.00453401408461826));
#832=CARTESIAN_POINT('',(-0.0796399999999979,-0.0300904136360678,-0.00453401408461824));
#833=CARTESIAN_POINT('',(-0.07964,-0.0427168611687409,-0.0105815700615929));
#834=CARTESIAN_POINT('',(-0.06564,-0.0296964513853932,-0.00535651653178322));
#835=CARTESIAN_POINT('',(-0.079640000000009,-0.0296964513853956,-0.00535651653178327));
#836=CARTESIAN_POINT('',(-0.07964,-0.0423227057347821,-0.0114044666890317));
#837=CARTESIAN_POINT('',(-0.06564,-0.029433675527988,-0.00590511146497709));
#838=CARTESIAN_POINT('',(-0.07964,-0.029433675527988,-0.00590511146497709));
#839=CARTESIAN_POINT('',(-0.07964,-0.042059929877376,-0.0119530616222256));
#840=CARTESIAN_POINT('',(-0.06564,-0.0317063465585498,-0.00122951268884456));
#841=CARTESIAN_POINT('',(-0.0665954806925752,-0.0317063465585498,-0.00122951268884456));
#842=CARTESIAN_POINT('',(-0.0684891150120886,-0.0317826911399784,-0.00150709240628746));
#843=CARTESIAN_POINT('',(-0.0706878385127323,-0.0321038553843635,-0.00239923892357536));
#844=CARTESIAN_POINT('',(-0.0722793979487332,-0.0325061214436923,-0.00331150369758879));
#845=CARTESIAN_POINT('',(-0.0737977929571383,-0.0330567156533855,-0.00427122560971962));
#846=CARTESIAN_POINT('',(-0.0755434487245671,-0.0339951318366139,-0.00560415266238568));
#847=CARTESIAN_POINT('',(-0.0772645645939332,-0.0354780255226813,-0.00727366036988892));
#848=CARTESIAN_POINT('',(-0.0786044350913024,-0.0373631893229317,-0.00896169803157344));
#849=CARTESIAN_POINT('',(-0.0794477411795308,-0.0395984540130952,-0.0105467248594419));
#850=CARTESIAN_POINT('',(-0.07964,-0.0412390702256278,-0.0114582731470709));
#851=CARTESIAN_POINT('',(-0.07964,-0.0420973209084659,-0.011875000683122));
#852=CARTESIAN_POINT('',(-0.06564,-0.0361365731299208,-0.00354750589986106));
#853=CARTESIAN_POINT('',(-0.06564,-0.0361365731299207,-0.00354750589986108));
#854=CARTESIAN_POINT('',(-0.07964,-0.0420973209084659,-0.011875000683122));
#855=CARTESIAN_POINT('',(-0.07964,-0.0399001004664966,-0.0163663504055765));
#856=CARTESIAN_POINT('',(-0.07464,-0.0399001004664966,-0.0163663504055765));
#857=CARTESIAN_POINT('',(-0.07964,-0.0412053028988087,-0.0114418772656487));
#858=CARTESIAN_POINT('',(-0.0796370705590202,-0.038744305142096,-0.0158009219060894));
#859=CARTESIAN_POINT('',(-0.0746399999980537,-0.0390620704241364,-0.015956376376867));
#860=CARTESIAN_POINT('',(-0.0794325008686415,-0.0395132244854257,-0.0104961768765025));
#861=CARTESIAN_POINT('',(-0.0793022689974647,-0.0366588140039919,-0.0144626478058535));
#862=CARTESIAN_POINT('',(-0.0745066077021728,-0.0374976826559733,-0.0150091583028819));
#863=CARTESIAN_POINT('',(-0.0785448324582905,-0.0372503477537464,-0.00887193483861956));
#864=CARTESIAN_POINT('',(-0.0780106163091642,-0.034289484016618,-0.0120753898377166));
#865=CARTESIAN_POINT('',(-0.0739359637229447,-0.0354787360457058,-0.0132514090188362));
#866=CARTESIAN_POINT('',(-0.0771871246193344,-0.0353993844537893,-0.00719161362560639));
#867=CARTESIAN_POINT('',(-0.0763013849852711,-0.0327586314178389,-0.00974095107302877));
#868=CARTESIAN_POINT('',(-0.0730631515410656,-0.0338990914824924,-0.0113328631859343));
#869=CARTESIAN_POINT('',(-0.0754959139427511,-0.0339694821992063,-0.00556809065233037));
#870=CARTESIAN_POINT('',(-0.0744433842889262,-0.0318395427540586,-0.00764559368989569));
#871=CARTESIAN_POINT('',(-0.0719759446774651,-0.0327444576752433,-0.00940732584652404));
#872=CARTESIAN_POINT('',(-0.0738159371566837,-0.0330693178553996,-0.00428514196701272));
#873=CARTESIAN_POINT('',(-0.0727736200654031,-0.0313990202810708,-0.00607082582353169));
#874=CARTESIAN_POINT('',(-0.0708959596007274,-0.0320725774467774,-0.00783533143023498));
#875=CARTESIAN_POINT('',(-0.0723505989947566,-0.0325282244521856,-0.00335697105661804));
#876=CARTESIAN_POINT('',(-0.0714079592844721,-0.0311886982516787,-0.00497195507042149));
#877=CARTESIAN_POINT('',(-0.0699539564966289,-0.0316965750781393,-0.0066835342347081));
#878=CARTESIAN_POINT('',(-0.0707873976001063,-0.0321239161129886,-0.00244859431010854));
#879=CARTESIAN_POINT('',(-0.0700216498225234,-0.031043791074891,-0.00396199648926808));
#880=CARTESIAN_POINT('',(-0.0689490413143539,-0.0314144092070296,-0.00562820339636252));
#881=CARTESIAN_POINT('',(-0.0685949124922661,-0.0317901133139484,-0.00153339103143848));
#882=CARTESIAN_POINT('',(-0.0681342601837382,-0.0309796984977502,-0.00295292596433303));
#883=CARTESIAN_POINT('',(-0.067539586602174,-0.0312170141841498,-0.00453787527442034));
#884=CARTESIAN_POINT('',(-0.0666347423237744,-0.0317063465566362,-0.00122951269250176));
#885=CARTESIAN_POINT('',(-0.0664746374450181,-0.0309782096364699,-0.00262115246357667));
#886=CARTESIAN_POINT('',(-0.0662794772081343,-0.0311766357361436,-0.00417918702971365));
#887=CARTESIAN_POINT('',(-0.06564,-0.0317063465585497,-0.00122951268884457));
#888=CARTESIAN_POINT('',(-0.06564,-0.0309782096362264,-0.00262115245963509));
#889=CARTESIAN_POINT('',(-0.06564,-0.0311766357357659,-0.00417918702674774));
#890=CARTESIAN_POINT('',(-0.07464,-0.0420973209084659,-0.011875000683122));
#891=CARTESIAN_POINT('',(-0.07464,-0.046837971903524,-0.00218461135112349));
#892=MECHANICAL_DESIGN_GEOMETRIC_PRESENTATION_REPRESENTATION('',(#315,#287,
#288,#289,#290,#291,#292),#893);
#893=(
GEOMETRIC_REPRESENTATION_CONTEXT(3)
GLOBAL_UNCERTAINTY_ASSIGNED_CONTEXT((#894))
GLOBAL_UNIT_ASSIGNED_CONTEXT((#897,#896,#895))
REPRESENTATION_CONTEXT('Part 22','TOP_LEVEL_ASSEMBLY_PART')
);
#894=UNCERTAINTY_MEASURE_WITH_UNIT(LENGTH_MEASURE(2.E-5),#897,
'DISTANCE_ACCURACY_VALUE','Maximum Tolerance applied to model');
#895=(
NAMED_UNIT(*)
SI_UNIT($,.STERADIAN.)
SOLID_ANGLE_UNIT()
);
#896=(
NAMED_UNIT(*)
PLANE_ANGLE_UNIT()
SI_UNIT($,.RADIAN.)
);
#897=(
LENGTH_UNIT()
NAMED_UNIT(*)
SI_UNIT($,.METRE.)
);
#898=PRODUCT_DEFINITION_SHAPE('','',#899);
#899=PRODUCT_DEFINITION('','',#901,#900);
#900=PRODUCT_DEFINITION_CONTEXT('',#907,'design');
#901=PRODUCT_DEFINITION_FORMATION_WITH_SPECIFIED_SOURCE('','',#903,
 .NOT_KNOWN.);
#902=PRODUCT_RELATED_PRODUCT_CATEGORY('','',(#903));
#903=PRODUCT('Part 22','Part 22','Part 22',(#905));
#904=PRODUCT_CATEGORY('','');
#905=PRODUCT_CONTEXT('',#907,'mechanical');
#906=APPLICATION_PROTOCOL_DEFINITION('international standard',
'ap242_managed_model_based_3d_engineering',2020,#907);
#907=APPLICATION_CONTEXT('managed model based 3d engineering');
ENDSEC;
END-ISO-10303-21;
