ISO-10303-21;
HEADER;
/* Generated by software containing ST-Developer
 * from STEP Tools, Inc. (www.steptools.com) 
 */
/* OPTION: using custom renumber hook */

FILE_DESCRIPTION(
/* description */ ('STEP AP242 Edition 2',
'CAx-IF Rec.Pracs.---Representation and Presentation of Product Manufa
cturing Information (PMI)---4.0---2014-10-13',
'CAx-IF Rec.Pracs.---3D Tessellated Geometry---0.4---2014-09-14','2;1',
'CAx-IF Rec.Pracs.---User Defined Attributes---1.5---2016-08-15'),
/* implementation_level */ '2;1');

FILE_NAME(
/* name */ 'Part Studio 1 - Part 96',
/* time_stamp */ '2026-06-18T16:33:50Z',
/* author */ (''),
/* organization */ (''),
/* preprocessor_version */ 'ST-DEVELOPER v20',
/* originating_system */ 'ONSHAPE BY PTC INC, 1.216',
/* authorisation */ '  ');

FILE_SCHEMA (('AP242_MANAGED_MODEL_BASED_3D_ENGINEERING_MIM_LF { 1 0 10303 442 3 1 4 }'));
ENDSEC;

DATA;
#10=SHAPE_REPRESENTATION_RELATIONSHIP('','',#195,#11);
#11=ADVANCED_BREP_SHAPE_REPRESENTATION('',(#193),#1087);
#12=PLANE('',#201);
#13=PLANE('',#202);
#14=PLANE('',#203);
#15=PLANE('',#204);
#16=PLANE('',#205);
#17=PLANE('',#206);
#18=PLANE('',#207);
#19=PLANE('',#208);
#20=ELLIPSE('',#197,0.0984587972260796,0.0579504284943004);
#21=ELLIPSE('',#198,0.0984587972260796,0.0579504284943004);
#22=ELLIPSE('',#199,0.0984587972260796,0.0579504284943004);
#23=ELLIPSE('',#200,0.0984587972260796,0.0579504284943004);
#24=B_SPLINE_CURVE_WITH_KNOTS('',3,(#339,#340,#341,#342,#343,#344,#345,
#346,#347,#348,#349,#350,#351,#352,#353,#354,#355,#356,#357,#358,#359,#360,
#361,#362,#363,#364,#365,#366,#367,#368,#369,#370,#371,#372,#373,#374,#375,
#376,#377,#378,#379,#380,#381,#382,#383,#384,#385,#386,#387,#388,#389,#390,
#391,#392,#393,#394,#395,#396,#397,#398,#399,#400,#401,#402,#403,#404,#405,
#406,#407,#408,#409,#410,#411,#412,#413,#414,#415,#416,#417,#418,#419,#420,
#421,#422,#423,#424,#425,#426,#427,#428,#429,#430,#431,#432,#433,#434,#435,
#436,#437,#438,#439,#440,#441,#442,#443,#444,#445,#446,#447,#448,#449,#450,
#451,#452,#453,#454,#455,#456,#457,#458,#459,#460,#461,#462,#463,#464,#465,
#466,#467,#468,#469,#470,#471,#472,#473,#474,#475,#476,#477,#478,#479,#480,
#481,#482,#483,#484,#485,#486,#487,#488,#489,#490,#491,#492,#493,#494,#495,
#496,#497,#498,#499,#500,#501,#502,#503,#504,#505),.UNSPECIFIED.,.T.,.F.,
(1,3,1,1,1,1,1,1,1,1,1,1,1,1,1,1,1,1,1,1,1,1,1,1,1,1,1,1,1,1,1,1,1,1,1,
1,1,1,1,1,1,1,1,1,1,1,1,1,1,1,1,1,1,1,1,1,1,1,1,1,1,1,1,1,1,1,1,1,1,1,1,
1,1,1,1,1,1,1,1,1,1,1,1,1,1,1,1,1,1,1,1,1,1,1,1,1,1,1,1,1,1,1,1,1,1,1,1,
1,1,1,1,1,1,1,1,1,1,1,1,1,1,1,1,1,1,1,1,1,1,1,1,1,1,1,1,1,1,1,1,1,1,1,1,
1,1,1,1,1,1,1,1,1,1,1,1,1,1,1,1,1,1,1,1,1,1,3,1),(-0.001953125,0.,0.001953125,
0.00390625,0.0078125,0.01171875,0.015625,0.0234375,0.03125,0.0390625,0.046875,
0.0625,0.078125,0.0859375,0.09375,0.1015625,0.109375,0.11328125,0.1171875,
0.12109375,0.123046875,0.125,0.126953125,0.12890625,0.1328125,0.13671875,
0.140625,0.1484375,0.15625,0.1640625,0.171875,0.1875,0.1953125,0.203125,
0.2109375,0.21875,0.2265625,0.234375,0.23828125,0.2421875,0.24609375,0.248046875,
0.25,0.251953125,0.25390625,0.2578125,0.26171875,0.265625,0.2734375,0.28125,
0.2890625,0.296875,0.3046875,0.3125,0.328125,0.3359375,0.34375,0.3515625,
0.359375,0.36328125,0.3671875,0.37109375,0.373046875,0.375,0.376953125,
0.37890625,0.3828125,0.38671875,0.390625,0.3984375,0.40625,0.4140625,0.421875,
0.4375,0.453125,0.4609375,0.46875,0.4765625,0.484375,0.48828125,0.4921875,
0.49609375,0.498046875,0.5,0.501953125,0.50390625,0.5078125,0.51171875,
0.515625,0.5234375,0.53125,0.5390625,0.546875,0.5625,0.578125,0.5859375,
0.59375,0.6015625,0.609375,0.61328125,0.6171875,0.62109375,0.623046875,
0.625,0.626953125,0.62890625,0.6328125,0.63671875,0.640625,0.6484375,0.65625,
0.6640625,0.671875,0.6875,0.6953125,0.703125,0.7109375,0.71875,0.7265625,
0.734375,0.73828125,0.7421875,0.74609375,0.748046875,0.75,0.751953125,0.75390625,
0.7578125,0.76171875,0.765625,0.7734375,0.78125,0.7890625,0.796875,0.8046875,
0.8125,0.828125,0.8359375,0.84375,0.8515625,0.859375,0.86328125,0.8671875,
0.87109375,0.873046875,0.875,0.876953125,0.87890625,0.8828125,0.88671875,
0.890625,0.8984375,0.90625,0.9140625,0.921875,0.9375,0.953125,0.9609375,
0.96875,0.9765625,0.984375,0.98828125,0.9921875,0.99609375,0.998046875,
1.,1.001953125),.UNSPECIFIED.);
#25=B_SPLINE_CURVE_WITH_KNOTS('',3,(#509,#510,#511,#512,#513,#514,#515,
#516,#517,#518,#519,#520,#521,#522,#523,#524,#525,#526,#527,#528,#529,#530,
#531,#532,#533,#534,#535,#536,#537,#538,#539,#540,#541,#542,#543,#544,#545,
#546,#547,#548,#549,#550,#551,#552,#553,#554,#555,#556,#557,#558,#559,#560,
#561,#562,#563,#564,#565,#566,#567,#568,#569,#570,#571,#572,#573,#574,#575,
#576,#577,#578,#579,#580,#581,#582,#583,#584,#585,#586,#587,#588,#589,#590,
#591,#592,#593,#594,#595,#596,#597,#598,#599,#600,#601,#602,#603,#604,#605,
#606,#607,#608,#609,#610,#611,#612,#613,#614,#615,#616,#617,#618,#619,#620,
#621,#622,#623,#624,#625,#626,#627,#628,#629,#630,#631,#632,#633,#634,#635,
#636,#637,#638,#639,#640,#641,#642,#643,#644,#645,#646,#647,#648,#649,#650,
#651,#652,#653,#654,#655,#656,#657,#658,#659,#660,#661,#662,#663,#664,#665,
#666,#667,#668,#669,#670,#671,#672,#673,#674,#675),.UNSPECIFIED.,.T.,.F.,
(1,3,1,1,1,1,1,1,1,1,1,1,1,1,1,1,1,1,1,1,1,1,1,1,1,1,1,1,1,1,1,1,1,1,1,
1,1,1,1,1,1,1,1,1,1,1,1,1,1,1,1,1,1,1,1,1,1,1,1,1,1,1,1,1,1,1,1,1,1,1,1,
1,1,1,1,1,1,1,1,1,1,1,1,1,1,1,1,1,1,1,1,1,1,1,1,1,1,1,1,1,1,1,1,1,1,1,1,
1,1,1,1,1,1,1,1,1,1,1,1,1,1,1,1,1,1,1,1,1,1,1,1,1,1,1,1,1,1,1,1,1,1,1,1,
1,1,1,1,1,1,1,1,1,1,1,1,1,1,1,1,1,1,1,1,1,1,3,1),(-0.001953125,0.,0.001953125,
0.00390625,0.0078125,0.01171875,0.015625,0.0234375,0.03125,0.0390625,0.046875,
0.0625,0.078125,0.0859375,0.09375,0.1015625,0.109375,0.11328125,0.1171875,
0.12109375,0.123046875,0.125,0.126953125,0.12890625,0.1328125,0.13671875,
0.140625,0.1484375,0.15625,0.1640625,0.171875,0.1875,0.1953125,0.203125,
0.2109375,0.21875,0.2265625,0.234375,0.23828125,0.2421875,0.24609375,0.248046875,
0.25,0.251953125,0.25390625,0.2578125,0.26171875,0.265625,0.2734375,0.28125,
0.2890625,0.296875,0.3046875,0.3125,0.328125,0.3359375,0.34375,0.3515625,
0.359375,0.36328125,0.3671875,0.37109375,0.373046875,0.375,0.376953125,
0.37890625,0.3828125,0.38671875,0.390625,0.3984375,0.40625,0.4140625,0.421875,
0.4375,0.453125,0.4609375,0.46875,0.4765625,0.484375,0.48828125,0.4921875,
0.49609375,0.498046875,0.5,0.501953125,0.50390625,0.5078125,0.51171875,
0.515625,0.5234375,0.53125,0.5390625,0.546875,0.5625,0.578125,0.5859375,
0.59375,0.6015625,0.609375,0.61328125,0.6171875,0.62109375,0.623046875,
0.625,0.626953125,0.62890625,0.6328125,0.63671875,0.640625,0.6484375,0.65625,
0.6640625,0.671875,0.6875,0.6953125,0.703125,0.7109375,0.71875,0.7265625,
0.734375,0.73828125,0.7421875,0.74609375,0.748046875,0.75,0.751953125,0.75390625,
0.7578125,0.76171875,0.765625,0.7734375,0.78125,0.7890625,0.796875,0.8046875,
0.8125,0.828125,0.8359375,0.84375,0.8515625,0.859375,0.86328125,0.8671875,
0.87109375,0.873046875,0.875,0.876953125,0.87890625,0.8828125,0.88671875,
0.890625,0.8984375,0.90625,0.9140625,0.921875,0.9375,0.953125,0.9609375,
0.96875,0.9765625,0.984375,0.98828125,0.9921875,0.99609375,0.998046875,
1.,1.001953125),.UNSPECIFIED.);
#26=B_SPLINE_CURVE_WITH_KNOTS('',3,(#676,#677,#678,#679,#680,#681,#682,
#683,#684,#685,#686,#687,#688,#689,#690,#691,#692,#693,#694,#695,#696,#697,
#698,#699,#700,#701,#702,#703,#704,#705,#706,#707,#708,#709,#710,#711,#712,
#713,#714,#715,#716,#717,#718,#719,#720,#721,#722,#723,#724,#725,#726,#727,
#728,#729,#730,#731,#732,#733,#734,#735,#736,#737,#738,#739,#740,#741,#742,
#743,#744,#745,#746,#747,#748,#749,#750,#751,#752,#753,#754,#755,#756,#757,
#758,#759,#760,#761,#762,#763,#764,#765,#766,#767,#768,#769,#770,#771,#772,
#773,#774,#775,#776,#777,#778,#779,#780,#781,#782,#783,#784,#785,#786,#787,
#788,#789,#790,#791,#792,#793,#794,#795,#796,#797,#798,#799,#800,#801,#802,
#803,#804,#805,#806,#807,#808,#809,#810,#811,#812,#813,#814,#815,#816,#817,
#818,#819,#820,#821,#822,#823,#824,#825,#826,#827,#828,#829,#830,#831,#832,
#833,#834,#835,#836,#837,#838,#839,#840,#841,#842),.UNSPECIFIED.,.T.,.F.,
(1,3,1,1,1,1,1,1,1,1,1,1,1,1,1,1,1,1,1,1,1,1,1,1,1,1,1,1,1,1,1,1,1,1,1,
1,1,1,1,1,1,1,1,1,1,1,1,1,1,1,1,1,1,1,1,1,1,1,1,1,1,1,1,1,1,1,1,1,1,1,1,
1,1,1,1,1,1,1,1,1,1,1,1,1,1,1,1,1,1,1,1,1,1,1,1,1,1,1,1,1,1,1,1,1,1,1,1,
1,1,1,1,1,1,1,1,1,1,1,1,1,1,1,1,1,1,1,1,1,1,1,1,1,1,1,1,1,1,1,1,1,1,1,1,
1,1,1,1,1,1,1,1,1,1,1,1,1,1,1,1,1,1,1,1,1,1,3,1),(-0.001953125,0.,0.001953125,
0.00390625,0.0078125,0.01171875,0.015625,0.0234375,0.03125,0.0390625,0.046875,
0.0625,0.078125,0.0859375,0.09375,0.1015625,0.109375,0.11328125,0.1171875,
0.12109375,0.123046875,0.125,0.126953125,0.12890625,0.1328125,0.13671875,
0.140625,0.1484375,0.15625,0.1640625,0.171875,0.1875,0.1953125,0.203125,
0.2109375,0.21875,0.2265625,0.234375,0.23828125,0.2421875,0.24609375,0.248046875,
0.25,0.251953125,0.25390625,0.2578125,0.26171875,0.265625,0.2734375,0.28125,
0.2890625,0.296875,0.3046875,0.3125,0.328125,0.3359375,0.34375,0.3515625,
0.359375,0.36328125,0.3671875,0.37109375,0.373046875,0.375,0.376953125,
0.37890625,0.3828125,0.38671875,0.390625,0.3984375,0.40625,0.4140625,0.421875,
0.4375,0.453125,0.4609375,0.46875,0.4765625,0.484375,0.48828125,0.4921875,
0.49609375,0.498046875,0.5,0.501953125,0.50390625,0.5078125,0.51171875,
0.515625,0.5234375,0.53125,0.5390625,0.546875,0.5625,0.578125,0.5859375,
0.59375,0.6015625,0.609375,0.61328125,0.6171875,0.62109375,0.623046875,
0.625,0.626953125,0.62890625,0.6328125,0.63671875,0.640625,0.6484375,0.65625,
0.6640625,0.671875,0.6875,0.6953125,0.703125,0.7109375,0.71875,0.7265625,
0.734375,0.73828125,0.7421875,0.74609375,0.748046875,0.75,0.751953125,0.75390625,
0.7578125,0.76171875,0.765625,0.7734375,0.78125,0.7890625,0.796875,0.8046875,
0.8125,0.828125,0.8359375,0.84375,0.8515625,0.859375,0.86328125,0.8671875,
0.87109375,0.873046875,0.875,0.876953125,0.87890625,0.8828125,0.88671875,
0.890625,0.8984375,0.90625,0.9140625,0.921875,0.9375,0.953125,0.9609375,
0.96875,0.9765625,0.984375,0.98828125,0.9921875,0.99609375,0.998046875,
1.,1.001953125),.UNSPECIFIED.);
#27=B_SPLINE_CURVE_WITH_KNOTS('',3,(#847,#848,#849,#850,#851,#852,#853,
#854,#855,#856,#857,#858,#859,#860,#861,#862,#863,#864,#865,#866,#867,#868,
#869,#870,#871,#872,#873,#874,#875,#876,#877,#878,#879,#880,#881,#882,#883,
#884,#885,#886,#887,#888,#889,#890,#891,#892,#893,#894,#895,#896,#897,#898,
#899,#900,#901,#902,#903,#904,#905,#906,#907,#908,#909,#910,#911,#912,#913,
#914,#915,#916,#917,#918,#919,#920,#921,#922,#923,#924,#925,#926,#927,#928,
#929,#930,#931,#932,#933,#934,#935,#936,#937,#938,#939,#940,#941,#942,#943,
#944,#945,#946,#947,#948,#949,#950,#951,#952,#953,#954,#955,#956,#957,#958,
#959,#960,#961,#962,#963,#964,#965,#966,#967,#968,#969,#970,#971,#972,#973,
#974,#975,#976,#977,#978,#979,#980,#981,#982,#983,#984,#985,#986,#987,#988,
#989,#990,#991,#992,#993,#994,#995,#996,#997,#998,#999,#1000,#1001,#1002,
#1003,#1004,#1005,#1006,#1007,#1008,#1009,#1010,#1011,#1012,#1013),
 .UNSPECIFIED.,.T.,.F.,(1,3,1,1,1,1,1,1,1,1,1,1,1,1,1,1,1,1,1,1,1,1,1,1,
1,1,1,1,1,1,1,1,1,1,1,1,1,1,1,1,1,1,1,1,1,1,1,1,1,1,1,1,1,1,1,1,1,1,1,1,
1,1,1,1,1,1,1,1,1,1,1,1,1,1,1,1,1,1,1,1,1,1,1,1,1,1,1,1,1,1,1,1,1,1,1,1,
1,1,1,1,1,1,1,1,1,1,1,1,1,1,1,1,1,1,1,1,1,1,1,1,1,1,1,1,1,1,1,1,1,1,1,1,
1,1,1,1,1,1,1,1,1,1,1,1,1,1,1,1,1,1,1,1,1,1,1,1,1,1,1,1,1,1,1,1,1,3,1),
(-0.001953125,0.,0.001953125,0.00390625,0.0078125,0.01171875,0.015625,0.0234375,
0.03125,0.0390625,0.046875,0.0625,0.078125,0.0859375,0.09375,0.1015625,
0.109375,0.11328125,0.1171875,0.12109375,0.123046875,0.125,0.126953125,
0.12890625,0.1328125,0.13671875,0.140625,0.1484375,0.15625,0.1640625,0.171875,
0.1875,0.1953125,0.203125,0.2109375,0.21875,0.2265625,0.234375,0.23828125,
0.2421875,0.24609375,0.248046875,0.25,0.251953125,0.25390625,0.2578125,
0.26171875,0.265625,0.2734375,0.28125,0.2890625,0.296875,0.3046875,0.3125,
0.328125,0.3359375,0.34375,0.3515625,0.359375,0.36328125,0.3671875,0.37109375,
0.373046875,0.375,0.376953125,0.37890625,0.3828125,0.38671875,0.390625,
0.3984375,0.40625,0.4140625,0.421875,0.4375,0.453125,0.4609375,0.46875,
0.4765625,0.484375,0.48828125,0.4921875,0.49609375,0.498046875,0.5,0.501953125,
0.50390625,0.5078125,0.51171875,0.515625,0.5234375,0.53125,0.5390625,0.546875,
0.5625,0.578125,0.5859375,0.59375,0.6015625,0.609375,0.61328125,0.6171875,
0.62109375,0.623046875,0.625,0.626953125,0.62890625,0.6328125,0.63671875,
0.640625,0.6484375,0.65625,0.6640625,0.671875,0.6875,0.6953125,0.703125,
0.7109375,0.71875,0.7265625,0.734375,0.73828125,0.7421875,0.74609375,0.748046875,
0.75,0.751953125,0.75390625,0.7578125,0.76171875,0.765625,0.7734375,0.78125,
0.7890625,0.796875,0.8046875,0.8125,0.828125,0.8359375,0.84375,0.8515625,
0.859375,0.86328125,0.8671875,0.87109375,0.873046875,0.875,0.876953125,
0.87890625,0.8828125,0.88671875,0.890625,0.8984375,0.90625,0.9140625,0.921875,
0.9375,0.953125,0.9609375,0.96875,0.9765625,0.984375,0.98828125,0.9921875,
0.99609375,0.998046875,1.,1.001953125),.UNSPECIFIED.);
#28=ORIENTED_EDGE('',*,*,#76,.F.);
#29=ORIENTED_EDGE('',*,*,#77,.F.);
#30=ORIENTED_EDGE('',*,*,#78,.F.);
#31=ORIENTED_EDGE('',*,*,#79,.T.);
#32=ORIENTED_EDGE('',*,*,#80,.F.);
#33=ORIENTED_EDGE('',*,*,#81,.F.);
#34=ORIENTED_EDGE('',*,*,#82,.T.);
#35=ORIENTED_EDGE('',*,*,#83,.F.);
#36=ORIENTED_EDGE('',*,*,#84,.F.);
#37=ORIENTED_EDGE('',*,*,#85,.F.);
#38=ORIENTED_EDGE('',*,*,#86,.F.);
#39=ORIENTED_EDGE('',*,*,#87,.T.);
#40=ORIENTED_EDGE('',*,*,#88,.F.);
#41=ORIENTED_EDGE('',*,*,#89,.F.);
#42=ORIENTED_EDGE('',*,*,#90,.T.);
#43=ORIENTED_EDGE('',*,*,#91,.F.);
#44=ORIENTED_EDGE('',*,*,#92,.F.);
#45=ORIENTED_EDGE('',*,*,#85,.T.);
#46=ORIENTED_EDGE('',*,*,#93,.F.);
#47=ORIENTED_EDGE('',*,*,#79,.F.);
#48=ORIENTED_EDGE('',*,*,#87,.F.);
#49=ORIENTED_EDGE('',*,*,#94,.T.);
#50=ORIENTED_EDGE('',*,*,#77,.T.);
#51=ORIENTED_EDGE('',*,*,#95,.T.);
#52=ORIENTED_EDGE('',*,*,#83,.T.);
#53=ORIENTED_EDGE('',*,*,#96,.T.);
#54=ORIENTED_EDGE('',*,*,#89,.T.);
#55=ORIENTED_EDGE('',*,*,#97,.F.);
#56=ORIENTED_EDGE('',*,*,#81,.T.);
#57=ORIENTED_EDGE('',*,*,#98,.T.);
#58=ORIENTED_EDGE('',*,*,#91,.T.);
#59=ORIENTED_EDGE('',*,*,#99,.F.);
#60=ORIENTED_EDGE('',*,*,#80,.T.);
#61=ORIENTED_EDGE('',*,*,#97,.T.);
#62=ORIENTED_EDGE('',*,*,#88,.T.);
#63=ORIENTED_EDGE('',*,*,#98,.F.);
#64=ORIENTED_EDGE('',*,*,#99,.T.);
#65=ORIENTED_EDGE('',*,*,#90,.F.);
#66=ORIENTED_EDGE('',*,*,#96,.F.);
#67=ORIENTED_EDGE('',*,*,#82,.F.);
#68=ORIENTED_EDGE('',*,*,#93,.T.);
#69=ORIENTED_EDGE('',*,*,#84,.T.);
#70=ORIENTED_EDGE('',*,*,#95,.F.);
#71=ORIENTED_EDGE('',*,*,#76,.T.);
#72=ORIENTED_EDGE('',*,*,#92,.T.);
#73=ORIENTED_EDGE('',*,*,#78,.T.);
#74=ORIENTED_EDGE('',*,*,#94,.F.);
#75=ORIENTED_EDGE('',*,*,#86,.T.);
#76=EDGE_CURVE('',#100,#101,#116,.T.);
#77=EDGE_CURVE('',#102,#100,#24,.T.);
#78=EDGE_CURVE('',#103,#102,#117,.F.);
#79=EDGE_CURVE('',#103,#101,#25,.T.);
#80=EDGE_CURVE('',#104,#105,#26,.F.);
#81=EDGE_CURVE('',#106,#104,#118,.F.);
#82=EDGE_CURVE('',#106,#107,#27,.F.);
#83=EDGE_CURVE('',#105,#107,#119,.T.);
#84=EDGE_CURVE('',#108,#109,#120,.F.);
#85=EDGE_CURVE('',#110,#108,#20,.T.);
#86=EDGE_CURVE('',#111,#110,#121,.T.);
#87=EDGE_CURVE('',#111,#109,#21,.T.);
#88=EDGE_CURVE('',#112,#113,#22,.T.);
#89=EDGE_CURVE('',#114,#112,#122,.F.);
#90=EDGE_CURVE('',#114,#115,#23,.T.);
#91=EDGE_CURVE('',#113,#115,#123,.T.);
#92=EDGE_CURVE('',#110,#103,#124,.T.);
#93=EDGE_CURVE('',#101,#108,#125,.T.);
#94=EDGE_CURVE('',#111,#102,#126,.T.);
#95=EDGE_CURVE('',#100,#109,#127,.T.);
#96=EDGE_CURVE('',#107,#114,#128,.T.);
#97=EDGE_CURVE('',#105,#112,#129,.T.);
#98=EDGE_CURVE('',#104,#113,#130,.T.);
#99=EDGE_CURVE('',#106,#115,#131,.T.);
#100=VERTEX_POINT('',#337);
#101=VERTEX_POINT('',#338);
#102=VERTEX_POINT('',#506);
#103=VERTEX_POINT('',#508);
#104=VERTEX_POINT('',#843);
#105=VERTEX_POINT('',#844);
#106=VERTEX_POINT('',#846);
#107=VERTEX_POINT('',#1014);
#108=VERTEX_POINT('',#1055);
#109=VERTEX_POINT('',#1056);
#110=VERTEX_POINT('',#1058);
#111=VERTEX_POINT('',#1060);
#112=VERTEX_POINT('',#1063);
#113=VERTEX_POINT('',#1064);
#114=VERTEX_POINT('',#1066);
#115=VERTEX_POINT('',#1068);
#116=LINE('',#336,#132);
#117=LINE('',#507,#133);
#118=LINE('',#845,#134);
#119=LINE('',#1015,#135);
#120=LINE('',#1054,#136);
#121=LINE('',#1059,#137);
#122=LINE('',#1065,#138);
#123=LINE('',#1069,#139);
#124=LINE('',#1071,#140);
#125=LINE('',#1072,#141);
#126=LINE('',#1074,#142);
#127=LINE('',#1075,#143);
#128=LINE('',#1077,#144);
#129=LINE('',#1078,#145);
#130=LINE('',#1080,#146);
#131=LINE('',#1081,#147);
#132=VECTOR('',#211,1.);
#133=VECTOR('',#212,1.);
#134=VECTOR('',#213,1.);
#135=VECTOR('',#214,1.);
#136=VECTOR('',#215,1.);
#137=VECTOR('',#218,1.);
#138=VECTOR('',#223,1.);
#139=VECTOR('',#226,1.);
#140=VECTOR('',#229,1.);
#141=VECTOR('',#230,1.);
#142=VECTOR('',#233,1.);
#143=VECTOR('',#234,1.);
#144=VECTOR('',#237,1.);
#145=VECTOR('',#238,1.);
#146=VECTOR('',#241,1.);
#147=VECTOR('',#242,1.);
#148=EDGE_LOOP('',(#28,#29,#30,#31));
#149=EDGE_LOOP('',(#32,#33,#34,#35));
#150=EDGE_LOOP('',(#36,#37,#38,#39));
#151=EDGE_LOOP('',(#40,#41,#42,#43));
#152=EDGE_LOOP('',(#44,#45,#46,#47));
#153=EDGE_LOOP('',(#48,#49,#50,#51));
#154=EDGE_LOOP('',(#52,#53,#54,#55));
#155=EDGE_LOOP('',(#56,#57,#58,#59));
#156=EDGE_LOOP('',(#60,#61,#62,#63));
#157=EDGE_LOOP('',(#64,#65,#66,#67));
#158=EDGE_LOOP('',(#68,#69,#70,#71));
#159=EDGE_LOOP('',(#72,#73,#74,#75));
#160=FACE_BOUND('',#148,.T.);
#161=FACE_BOUND('',#149,.T.);
#162=FACE_BOUND('',#150,.T.);
#163=FACE_BOUND('',#151,.T.);
#164=FACE_BOUND('',#152,.T.);
#165=FACE_BOUND('',#153,.T.);
#166=FACE_BOUND('',#154,.T.);
#167=FACE_BOUND('',#155,.T.);
#168=FACE_BOUND('',#156,.T.);
#169=FACE_BOUND('',#157,.T.);
#170=FACE_BOUND('',#158,.T.);
#171=FACE_BOUND('',#159,.T.);
#172=B_SPLINE_SURFACE_WITH_KNOTS('',3,1,((#252,#253),(#254,#255),(#256,
#257),(#258,#259),(#260,#261),(#262,#263),(#264,#265),(#266,#267),(#268,
#269),(#270,#271),(#272,#273),(#274,#275),(#276,#277),(#278,#279),(#280,
#281),(#282,#283),(#284,#285),(#286,#287),(#288,#289),(#290,#291),(#292,
#293),(#294,#295),(#296,#297),(#298,#299),(#300,#301),(#302,#303),(#304,
#305),(#306,#307),(#308,#309),(#310,#311),(#312,#313),(#314,#315),(#316,
#317),(#318,#319),(#320,#321),(#322,#323),(#324,#325),(#326,#327),(#328,
#329),(#330,#331),(#332,#333),(#334,#335)),.SURF_OF_LINEAR_EXTRUSION.,.F.,
 .F.,.F.,(4,1,1,1,1,1,1,1,1,1,1,1,1,1,1,1,1,1,1,1,1,1,1,1,1,1,1,1,1,1,1,
1,1,1,1,1,1,1,1,4),(2,2),(0.548089701773116,0.606412951994513,0.620993764549862,
0.635574577105211,0.66473620221591,0.693897827326608,0.723059452437306,
0.737640264992656,0.752221077548005,0.766801890103354,0.781382702658703,
0.810544327769402,0.8397059528801,0.868867577990798,0.883448390546147,0.898029203101496,
0.927190828212195,0.956352453322893,0.985514078433592,1.01467570354429,
1.04383732865499,1.07299895376569,1.10216057887638,1.11674139143173,1.13132220398708,
1.16048382909778,1.18964545420848,1.21880707931918,1.23338789187453,1.24796870442988,
1.26254951698523,1.27713032954057,1.30629195465127,1.33545357976197,1.36461520487267,
1.37919601742802,1.39377682998337,1.42293845509407,1.45210008020476,1.48126170531546),
(0.,1.),.UNSPECIFIED.);
#173=B_SPLINE_SURFACE_WITH_KNOTS('',3,1,((#1016,#1017),(#1018,#1019),(#1020,
#1021),(#1022,#1023),(#1024,#1025),(#1026,#1027),(#1028,#1029),(#1030,#1031),
(#1032,#1033),(#1034,#1035),(#1036,#1037),(#1038,#1039),(#1040,#1041),(#1042,
#1043),(#1044,#1045),(#1046,#1047),(#1048,#1049),(#1050,#1051),(#1052,#1053)),
 .SURF_OF_LINEAR_EXTRUSION.,.F.,.F.,.F.,(4,1,1,1,1,1,1,1,1,1,1,1,1,1,1,
1,4),(2,2),(3.6119361284033,3.95748503330675,4.3030339382102,4.64858284311365,
4.9941317480171,5.33968065292055,5.68522955782399,6.03077846272744,6.37632736763089,
6.72187627253434,7.06742517743779,7.41297408234124,7.75852298724469,8.10407189214813,
8.44962079705158,8.79516970195503,9.14071860685848),(0.,1.),
 .UNSPECIFIED.);
#174=ADVANCED_FACE('',(#160,#161),#172,.F.);
#175=ADVANCED_FACE('',(#162,#163),#173,.T.);
#176=ADVANCED_FACE('',(#164),#12,.T.);
#177=ADVANCED_FACE('',(#165),#13,.F.);
#178=ADVANCED_FACE('',(#166),#14,.T.);
#179=ADVANCED_FACE('',(#167),#15,.F.);
#180=ADVANCED_FACE('',(#168),#16,.F.);
#181=ADVANCED_FACE('',(#169),#17,.T.);
#182=ADVANCED_FACE('',(#170),#18,.F.);
#183=ADVANCED_FACE('',(#171),#19,.F.);
#184=CLOSED_SHELL('',(#174,#175,#176,#177,#178,#179,#180,#181,#182,#183));
#185=STYLED_ITEM('',(#186),#193);
#186=PRESENTATION_STYLE_ASSIGNMENT((#187));
#187=SURFACE_STYLE_USAGE(.BOTH.,#188);
#188=SURFACE_SIDE_STYLE('',(#189));
#189=SURFACE_STYLE_FILL_AREA(#190);
#190=FILL_AREA_STYLE('',(#191));
#191=FILL_AREA_STYLE_COLOUR('',#192);
#192=COLOUR_RGB('',0.458823529411765,0.105882352941176,0.);
#193=MANIFOLD_SOLID_BREP('Part 96',#184);
#194=SHAPE_DEFINITION_REPRESENTATION(#1092,#195);
#195=SHAPE_REPRESENTATION('Part 96',(#196),#1087);
#196=AXIS2_PLACEMENT_3D('',#251,#209,#210);
#197=AXIS2_PLACEMENT_3D('',#1057,#216,#217);
#198=AXIS2_PLACEMENT_3D('',#1061,#219,#220);
#199=AXIS2_PLACEMENT_3D('',#1062,#221,#222);
#200=AXIS2_PLACEMENT_3D('',#1067,#224,#225);
#201=AXIS2_PLACEMENT_3D('',#1070,#227,#228);
#202=AXIS2_PLACEMENT_3D('',#1073,#231,#232);
#203=AXIS2_PLACEMENT_3D('',#1076,#235,#236);
#204=AXIS2_PLACEMENT_3D('',#1079,#239,#240);
#205=AXIS2_PLACEMENT_3D('',#1082,#243,#244);
#206=AXIS2_PLACEMENT_3D('',#1083,#245,#246);
#207=AXIS2_PLACEMENT_3D('',#1084,#247,#248);
#208=AXIS2_PLACEMENT_3D('',#1085,#249,#250);
#209=DIRECTION('',(0.,0.,1.));
#210=DIRECTION('',(1.,0.,0.));
#211=DIRECTION('',(0.,0.,1.));
#212=DIRECTION('',(0.,0.,1.));
#213=DIRECTION('',(0.,0.,1.));
#214=DIRECTION('',(0.,0.,1.));
#215=DIRECTION('',(0.,0.,1.));
#216=DIRECTION('',(0.,0.,1.));
#217=DIRECTION('',(0.987638729782156,-0.156747374569046,0.));
#218=DIRECTION('',(0.,0.,1.));
#219=DIRECTION('',(0.,0.,1.));
#220=DIRECTION('',(0.987638729782156,-0.156747374569046,0.));
#221=DIRECTION('',(0.,0.,1.));
#222=DIRECTION('',(0.987638729782156,-0.156747374569046,0.));
#223=DIRECTION('',(0.,0.,1.));
#224=DIRECTION('',(0.,0.,1.));
#225=DIRECTION('',(0.987638729782156,-0.156747374569046,0.));
#226=DIRECTION('',(0.,0.,1.));
#227=DIRECTION('',(0.,0.,1.));
#228=DIRECTION('',(1.,0.,0.));
#229=DIRECTION('',(0.,1.,0.));
#230=DIRECTION('',(0.,1.,0.));
#231=DIRECTION('',(0.,0.,1.));
#232=DIRECTION('',(1.,0.,0.));
#233=DIRECTION('',(0.,1.,0.));
#234=DIRECTION('',(0.,1.,0.));
#235=DIRECTION('',(0.,1.,0.));
#236=DIRECTION('',(1.,0.,0.));
#237=DIRECTION('',(1.,0.,0.));
#238=DIRECTION('',(1.,0.,0.));
#239=DIRECTION('',(0.,1.,0.));
#240=DIRECTION('',(1.,0.,0.));
#241=DIRECTION('',(1.,0.,0.));
#242=DIRECTION('',(1.,0.,0.));
#243=DIRECTION('',(0.,0.,-1.));
#244=DIRECTION('',(1.,0.,0.));
#245=DIRECTION('',(0.,0.,-1.));
#246=DIRECTION('',(1.,0.,0.));
#247=DIRECTION('',(1.,0.,0.));
#248=DIRECTION('',(0.,1.,0.));
#249=DIRECTION('',(1.,0.,0.));
#250=DIRECTION('',(0.,1.,0.));
#251=CARTESIAN_POINT('',(0.,0.,0.));
#252=CARTESIAN_POINT('',(-0.00564000000049108,-0.0844469464879239,-0.03));
#253=CARTESIAN_POINT('',(-0.00564000000049108,-0.0844469464879239,0.01));
#254=CARTESIAN_POINT('',(-0.00345776999832737,-0.0908083843371515,-0.03));
#255=CARTESIAN_POINT('',(-0.00345776999832737,-0.0908083843371515,0.01));
#256=CARTESIAN_POINT('',(0.00171169777092368,-0.0989575140681884,-0.03));
#257=CARTESIAN_POINT('',(0.00171169777092368,-0.0989575140681884,0.01));
#258=CARTESIAN_POINT('',(0.0115624842399357,-0.108221114698062,-0.03));
#259=CARTESIAN_POINT('',(0.0115624842399357,-0.108221114698062,0.01));
#260=CARTESIAN_POINT('',(0.0190625590454049,-0.114180492911081,-0.03));
#261=CARTESIAN_POINT('',(0.0190625590454049,-0.114180492911081,0.01));
#262=CARTESIAN_POINT('',(0.0298250251642142,-0.120922729910668,-0.03));
#263=CARTESIAN_POINT('',(0.0298250251642142,-0.120922729910668,0.01));
#264=CARTESIAN_POINT('',(0.0446108189522389,-0.127710747775166,-0.03));
#265=CARTESIAN_POINT('',(0.0446108189522389,-0.127710747775166,0.01));
#266=CARTESIAN_POINT('',(0.0581374642681523,-0.132103253570138,-0.03));
#267=CARTESIAN_POINT('',(0.0581374642681523,-0.132103253570138,0.01));
#268=CARTESIAN_POINT('',(0.0694614599972602,-0.134767071005394,-0.03));
#269=CARTESIAN_POINT('',(0.0694614599972602,-0.134767071005394,0.01));
#270=CARTESIAN_POINT('',(0.0781882765442102,-0.136322680991437,-0.03));
#271=CARTESIAN_POINT('',(0.0781882765442102,-0.136322680991437,0.01));
#272=CARTESIAN_POINT('',(0.0869424967761566,-0.137393429441029,-0.03));
#273=CARTESIAN_POINT('',(0.0869424967761566,-0.137393429441029,0.01));
#274=CARTESIAN_POINT('',(0.0985017068172975,-0.138170775433814,-0.03));
#275=CARTESIAN_POINT('',(0.0985017068172975,-0.138170775433814,0.01));
#276=CARTESIAN_POINT('',(0.112631875823997,-0.13793920002796,-0.03));
#277=CARTESIAN_POINT('',(0.112631875823997,-0.13793920002796,0.01));
#278=CARTESIAN_POINT('',(0.128612778695628,-0.135781324536927,-0.03));
#279=CARTESIAN_POINT('',(0.128612778695628,-0.135781324536927,0.01));
#280=CARTESIAN_POINT('',(0.140736497436296,-0.13247363784255,-0.03));
#281=CARTESIAN_POINT('',(0.140736497436296,-0.13247363784255,0.01));
#282=CARTESIAN_POINT('',(0.149495368512327,-0.128963046022639,-0.03));
#283=CARTESIAN_POINT('',(0.149495368512327,-0.128963046022639,0.01));
#284=CARTESIAN_POINT('',(0.157379988198446,-0.124989863080018,-0.03));
#285=CARTESIAN_POINT('',(0.157379988198446,-0.124989863080018,0.01));
#286=CARTESIAN_POINT('',(0.16558932662964,-0.119236268020173,-0.03));
#287=CARTESIAN_POINT('',(0.16558932662964,-0.119236268020173,0.01));
#288=CARTESIAN_POINT('',(0.172639321997996,-0.111395842042866,-0.0300000000000001));
#289=CARTESIAN_POINT('',(0.172639321997996,-0.111395842042866,0.01));
#290=CARTESIAN_POINT('',(0.176866950728036,-0.102918665062309,-0.03));
#291=CARTESIAN_POINT('',(0.176866950728036,-0.102918665062309,0.01));
#292=CARTESIAN_POINT('',(0.178298637234878,-0.0938381651916597,-0.03));
#293=CARTESIAN_POINT('',(0.178298637234878,-0.0938381651916597,0.01));
#294=CARTESIAN_POINT('',(0.176884998687373,-0.084466715739422,-0.03));
#295=CARTESIAN_POINT('',(0.176884998687373,-0.084466715739422,0.01));
#296=CARTESIAN_POINT('',(0.172589852516365,-0.0748277144939025,-0.03));
#297=CARTESIAN_POINT('',(0.172589852516365,-0.0748277144939025,0.01));
#298=CARTESIAN_POINT('',(0.166549474117621,-0.0668162525846506,-0.03));
#299=CARTESIAN_POINT('',(0.166549474117621,-0.0668162525846506,0.01));
#300=CARTESIAN_POINT('',(0.1602697860498,-0.0605989236321499,-0.03));
#301=CARTESIAN_POINT('',(0.1602697860498,-0.0605989236321499,0.01));
#302=CARTESIAN_POINT('',(0.153016704280219,-0.0545523514605462,-0.03));
#303=CARTESIAN_POINT('',(0.153016704280219,-0.0545523514605462,0.01));
#304=CARTESIAN_POINT('',(0.142501848632917,-0.0476602439740229,-0.03));
#305=CARTESIAN_POINT('',(0.142501848632917,-0.0476602439740229,0.01));
#306=CARTESIAN_POINT('',(0.127963065680337,-0.0406693021015274,-0.03));
#307=CARTESIAN_POINT('',(0.127963065680337,-0.0406693021015274,0.01));
#308=CARTESIAN_POINT('',(0.114591844535922,-0.0360827253132632,-0.03));
#309=CARTESIAN_POINT('',(0.114591844535922,-0.0360827253132632,0.01));
#310=CARTESIAN_POINT('',(0.103355912995941,-0.0332503843513327,-0.03));
#311=CARTESIAN_POINT('',(0.103355912995941,-0.0332503843513327,0.01));
#312=CARTESIAN_POINT('',(0.0946971540616773,-0.0315638179897369,-0.03));
#313=CARTESIAN_POINT('',(0.0946971540616773,-0.0315638179897369,0.01));
#314=CARTESIAN_POINT('',(0.0859181474886392,-0.0303474535452616,-0.03));
#315=CARTESIAN_POINT('',(0.0859181474886392,-0.0303474535452616,0.01));
#316=CARTESIAN_POINT('',(0.0743272200072248,-0.0293826373407856,-0.03));
#317=CARTESIAN_POINT('',(0.0743272200072248,-0.0293826373407856,0.01));
#318=CARTESIAN_POINT('',(0.0601089762036809,-0.0293815676406848,-0.03));
#319=CARTESIAN_POINT('',(0.0601089762036809,-0.0293815676406848,0.01));
#320=CARTESIAN_POINT('',(0.0439554142290241,-0.0312701503497914,-0.03));
#321=CARTESIAN_POINT('',(0.0439554142290241,-0.0312701503497914,0.01));
#322=CARTESIAN_POINT('',(0.0316429125095292,-0.0343584976749514,-0.03));
#323=CARTESIAN_POINT('',(0.0316429125095292,-0.0343584976749514,0.01));
#324=CARTESIAN_POINT('',(0.0226746373295746,-0.0377102662685511,-0.03));
#325=CARTESIAN_POINT('',(0.0226746373295746,-0.0377102662685511,0.01));
#326=CARTESIAN_POINT('',(0.0145309079222306,-0.0415547874270964,-0.03));
#327=CARTESIAN_POINT('',(0.0145309079222306,-0.0415547874270964,0.01));
#328=CARTESIAN_POINT('',(0.00599438109017216,-0.0471710352309781,-0.03));
#329=CARTESIAN_POINT('',(0.00599438109017216,-0.0471710352309781,0.01));
#330=CARTESIAN_POINT('',(-0.0014704519312558,-0.054893643334621,-0.03));
#331=CARTESIAN_POINT('',(-0.0014704519312558,-0.054893643334621,0.01));
#332=CARTESIAN_POINT('',(-0.00456007104875535,-0.060495790352415,-0.03));
#333=CARTESIAN_POINT('',(-0.00456007104875535,-0.060495790352415,0.01));
#334=CARTESIAN_POINT('',(-0.00564000001490621,-0.0633897142816586,-0.03));
#335=CARTESIAN_POINT('',(-0.00564000001490621,-0.0633897142816586,0.01));
#336=CARTESIAN_POINT('',(-0.00564,-0.0633897142417139,-0.02));
#337=CARTESIAN_POINT('',(-0.00564,-0.0633897142870767,-0.03));
#338=CARTESIAN_POINT('',(-0.00564,-0.0633897142417139,0.01));
#339=CARTESIAN_POINT('',(0.177462640455694,-0.0983894210955688,-0.03));
#340=CARTESIAN_POINT('',(0.177494758759608,-0.0981870490879463,-0.03));
#341=CARTESIAN_POINT('',(0.177554725224825,-0.0977816273616889,-0.03));
#342=CARTESIAN_POINT('',(0.177657422981088,-0.0969694120563546,-0.03));
#343=CARTESIAN_POINT('',(0.177753687258656,-0.0959508720269238,-0.03));
#344=CARTESIAN_POINT('',(0.177818065125919,-0.094723391116623,-0.03));
#345=CARTESIAN_POINT('',(0.177835945011487,-0.0930794870658492,-0.03));
#346=CARTESIAN_POINT('',(0.177731110953329,-0.0910106883692981,-0.03));
#347=CARTESIAN_POINT('',(0.177401613850976,-0.088505602069458,-0.03));
#348=CARTESIAN_POINT('',(0.176867319343345,-0.0859789435208105,-0.03));
#349=CARTESIAN_POINT('',(0.175879855613711,-0.0825843595399029,-0.03));
#350=CARTESIAN_POINT('',(0.174125574993853,-0.0783010896415439,-0.03));
#351=CARTESIAN_POINT('',(0.171669607944338,-0.0739972134932763,-0.03));
#352=CARTESIAN_POINT('',(0.169282674045468,-0.0705667514610252,-0.03));
#353=CARTESIAN_POINT('',(0.167281931309689,-0.0680069188641862,-0.03));
#354=CARTESIAN_POINT('',(0.165071485198101,-0.0654668417988641,-0.03));
#355=CARTESIAN_POINT('',(0.163055743951624,-0.0633722319379355,-0.03));
#356=CARTESIAN_POINT('',(0.161339710521859,-0.0617131810078265,-0.03));
#357=CARTESIAN_POINT('',(0.16000120553618,-0.0604780583170805,-0.03));
#358=CARTESIAN_POINT('',(0.158843029043058,-0.0594570764333201,-0.03));
#359=CARTESIAN_POINT('',(0.157891075036495,-0.0586457699579254,-0.03));
#360=CARTESIAN_POINT('',(0.157164140120062,-0.0580398882864103,-0.03));
#361=CARTESIAN_POINT('',(0.156425471320338,-0.0574376979669408,-0.03));
#362=CARTESIAN_POINT('',(0.155426690303526,-0.0566411204920452,-0.03));
#363=CARTESIAN_POINT('',(0.15415172049321,-0.0556568683079796,-0.03));
#364=CARTESIAN_POINT('',(0.15258052840152,-0.0544948940233038,-0.03));
#365=CARTESIAN_POINT('',(0.150431808554901,-0.0529717996486015,-0.03));
#366=CARTESIAN_POINT('',(0.147647452015716,-0.051118520378655,-0.03));
#367=CARTESIAN_POINT('',(0.144156392144278,-0.0489799510861395,-0.03));
#368=CARTESIAN_POINT('',(0.140523321733455,-0.046931039113505,-0.03));
#369=CARTESIAN_POINT('',(0.135500404253894,-0.0443242281718182,-0.03));
#370=CARTESIAN_POINT('',(0.130225130974209,-0.0419131343699133,-0.03));
#371=CARTESIAN_POINT('',(0.124729479826859,-0.0397132120337367,-0.03));
#372=CARTESIAN_POINT('',(0.120505580743358,-0.0381725485919652,-0.03));
#373=CARTESIAN_POINT('',(0.116187550123277,-0.0367448032019511,-0.03));
#374=CARTESIAN_POINT('',(0.111783423595669,-0.0354335296317332,-0.03));
#375=CARTESIAN_POINT('',(0.107301234916738,-0.0342422126581431,-0.03));
#376=CARTESIAN_POINT('',(0.10350772437452,-0.0333522625223137,-0.03));
#377=CARTESIAN_POINT('',(0.100441908839317,-0.0327036676634783,-0.03));
#378=CARTESIAN_POINT('',(0.0981280706728345,-0.0322493215248851,-0.03));
#379=CARTESIAN_POINT('',(0.0961885623934352,-0.0318977793535346,-0.03));
#380=CARTESIAN_POINT('',(0.0946308547695921,-0.0316330261825323,-0.03));
#381=CARTESIAN_POINT('',(0.0934591800096514,-0.0314426777596997,-0.03));
#382=CARTESIAN_POINT('',(0.092286145142687,-0.0312608991414783,-0.03));
#383=CARTESIAN_POINT('',(0.0907230097004982,-0.0310303457370182,-0.03));
#384=CARTESIAN_POINT('',(0.08876996351626,-0.0307641036172678,-0.03));
#385=CARTESIAN_POINT('',(0.0864291517018394,-0.0304797138780109,-0.03));
#386=CARTESIAN_POINT('',(0.0833131710922355,-0.0301472006792133,-0.03));
#387=CARTESIAN_POINT('',(0.0794305257153765,-0.0298188740800231,-0.03));
#388=CARTESIAN_POINT('',(0.0747997344201003,-0.0295638770904373,-0.03));
#389=CARTESIAN_POINT('',(0.0702060284345459,-0.0294471116614543,-0.03));
#390=CARTESIAN_POINT('',(0.0656581256953765,-0.0294677516643871,-0.03));
#391=CARTESIAN_POINT('',(0.0611647672811039,-0.0296249059494047,-0.03));
#392=CARTESIAN_POINT('',(0.0552580305905861,-0.0300151641811795,-0.03));
#393=CARTESIAN_POINT('',(0.049495459698739,-0.0306744503204066,-0.03));
#394=CARTESIAN_POINT('',(0.0439122461206202,-0.0315979704519069,-0.03));
#395=CARTESIAN_POINT('',(0.0398233196815708,-0.0324213303110525,-0.03));
#396=CARTESIAN_POINT('',(0.0358416657984501,-0.0333739110162316,-0.03));
#397=CARTESIAN_POINT('',(0.0326203195841916,-0.0342740298737145,-0.03));
#398=CARTESIAN_POINT('',(0.0301056069072844,-0.0350569945000585,-0.03));
#399=CARTESIAN_POINT('',(0.0282518524142725,-0.0356753981763704,-0.03));
#400=CARTESIAN_POINT('',(0.0267347902319514,-0.0362165291346664,-0.03));
#401=CARTESIAN_POINT('',(0.0255384528298458,-0.0366647210727681,-0.03));
#402=CARTESIAN_POINT('',(0.0246496319307564,-0.0370086137680817,-0.03));
#403=CARTESIAN_POINT('',(0.0237708254032668,-0.0373596494640576,-0.03));
#404=CARTESIAN_POINT('',(0.0226144535699381,-0.0378363451853642,-0.03));
#405=CARTESIAN_POINT('',(0.0211970733087631,-0.0384485624600466,-0.03));
#406=CARTESIAN_POINT('',(0.0195419236216366,-0.0392085645462857,-0.03));
#407=CARTESIAN_POINT('',(0.0173965405682486,-0.0402547730699558,-0.03));
#408=CARTESIAN_POINT('',(0.0148313196213738,-0.0416223419844783,-0.03));
#409=CARTESIAN_POINT('',(0.0119430361470326,-0.0433532036432641,-0.03));
#410=CARTESIAN_POINT('',(0.00924803463500161,-0.0451677783231172,-0.03));
#411=CARTESIAN_POINT('',(0.00591625529329152,-0.0476906278252563,-0.03));
#412=CARTESIAN_POINT('',(0.00224840896332505,-0.0510225983154741,-0.03));
#413=CARTESIAN_POINT('',(-0.000745851344522878,-0.0545522309768489,-0.03));
#414=CARTESIAN_POINT('',(-0.00273582120548484,-0.0574742687885894,-0.03));
#415=CARTESIAN_POINT('',(-0.00402616365701944,-0.0597113406247415,-0.03));
#416=CARTESIAN_POINT('',(-0.00511509315095189,-0.0619913095428081,-0.03));
#417=CARTESIAN_POINT('',(-0.005855316251656,-0.063925989875004,-0.03));
#418=CARTESIAN_POINT('',(-0.00634729981637954,-0.0654946492996403,-0.03));
#419=CARTESIAN_POINT('',(-0.00666613753820347,-0.0666817450843553,-0.03));
#420=CARTESIAN_POINT('',(-0.00688996354857872,-0.0676800398903961,-0.03));
#421=CARTESIAN_POINT('',(-0.00704379004861631,-0.0684841405925765,-0.03));
#422=CARTESIAN_POINT('',(-0.00714655017428004,-0.0690902400489249,-0.03));
#423=CARTESIAN_POINT('',(-0.00723649987210457,-0.0696983726383111,-0.03));
#424=CARTESIAN_POINT('',(-0.0073391976283684,-0.0705105879436453,-0.03));
#425=CARTESIAN_POINT('',(-0.00743546190593611,-0.0715291279730762,-0.03));
#426=CARTESIAN_POINT('',(-0.0074998397731999,-0.0727566088833769,-0.03));
#427=CARTESIAN_POINT('',(-0.00751771965876653,-0.0744005129341507,-0.03));
#428=CARTESIAN_POINT('',(-0.00741288560060914,-0.0764693116307018,-0.03));
#429=CARTESIAN_POINT('',(-0.00708338849825596,-0.0789743979305419,-0.03));
#430=CARTESIAN_POINT('',(-0.00654909399062576,-0.0815010564791895,-0.03));
#431=CARTESIAN_POINT('',(-0.00556163026099139,-0.0848956404600971,-0.03));
#432=CARTESIAN_POINT('',(-0.00380734964113337,-0.089178910358456,-0.03));
#433=CARTESIAN_POINT('',(-0.00135138259161844,-0.0934827865067237,-0.03));
#434=CARTESIAN_POINT('',(0.00103555130725132,-0.0969132485389747,-0.03));
#435=CARTESIAN_POINT('',(0.00303629404303073,-0.0994730811358138,-0.03));
#436=CARTESIAN_POINT('',(0.00524674015461801,-0.102013158201136,-0.03));
#437=CARTESIAN_POINT('',(0.0072624814010963,-0.104107768062065,-0.03));
#438=CARTESIAN_POINT('',(0.00897851483086088,-0.105766818992173,-0.03));
#439=CARTESIAN_POINT('',(0.0103170198165396,-0.107001941682919,-0.03));
#440=CARTESIAN_POINT('',(0.0114751963096619,-0.10802292356668,-0.03));
#441=CARTESIAN_POINT('',(0.0124271503162245,-0.108834230042075,-0.03));
#442=CARTESIAN_POINT('',(0.0131540852326578,-0.10944011171359,-0.03));
#443=CARTESIAN_POINT('',(0.0138927540323815,-0.110042302033059,-0.03));
#444=CARTESIAN_POINT('',(0.014891535049194,-0.110838879507955,-0.03));
#445=CARTESIAN_POINT('',(0.0161665048595099,-0.11182313169202,-0.03));
#446=CARTESIAN_POINT('',(0.0177376969512004,-0.112985105976696,-0.03));
#447=CARTESIAN_POINT('',(0.0198864167978192,-0.114508200351398,-0.03));
#448=CARTESIAN_POINT('',(0.0226707733370039,-0.116361479621345,-0.03));
#449=CARTESIAN_POINT('',(0.0261618332084412,-0.11850004891386,-0.03));
#450=CARTESIAN_POINT('',(0.0297949036192651,-0.120548960886495,-0.03));
#451=CARTESIAN_POINT('',(0.034817821098826,-0.123155771828182,-0.03));
#452=CARTESIAN_POINT('',(0.0400930943785108,-0.125566865630087,-0.03));
#453=CARTESIAN_POINT('',(0.0455887455258607,-0.127766787966263,-0.03));
#454=CARTESIAN_POINT('',(0.0498126446093619,-0.129307451408035,-0.03));
#455=CARTESIAN_POINT('',(0.0541306752294431,-0.130735196798049,-0.03));
#456=CARTESIAN_POINT('',(0.0585348017570502,-0.132046470368267,-0.03));
#457=CARTESIAN_POINT('',(0.0630169904359814,-0.133237787341857,-0.03));
#458=CARTESIAN_POINT('',(0.0668105009781992,-0.134127737477686,-0.03));
#459=CARTESIAN_POINT('',(0.0698763165134026,-0.134776332336522,-0.03));
#460=CARTESIAN_POINT('',(0.0721901546798852,-0.135230678475115,-0.03));
#461=CARTESIAN_POINT('',(0.0741296629592845,-0.135582220646465,-0.03));
#462=CARTESIAN_POINT('',(0.0756873705831276,-0.135846973817468,-0.03));
#463=CARTESIAN_POINT('',(0.0768590453430683,-0.1360373222403,-0.03));
#464=CARTESIAN_POINT('',(0.0780320802100327,-0.136219100858522,-0.03));
#465=CARTESIAN_POINT('',(0.0795952156522216,-0.136449654262982,-0.03));
#466=CARTESIAN_POINT('',(0.0815482618364596,-0.136715896382732,-0.03));
#467=CARTESIAN_POINT('',(0.0838890736508804,-0.137000286121989,-0.03));
#468=CARTESIAN_POINT('',(0.0870050542604842,-0.137332799320787,-0.03));
#469=CARTESIAN_POINT('',(0.0908876996373432,-0.137661125919977,-0.03));
#470=CARTESIAN_POINT('',(0.0955184909326194,-0.137916122909563,-0.03));
#471=CARTESIAN_POINT('',(0.100112196918174,-0.138032888338546,-0.03));
#472=CARTESIAN_POINT('',(0.104660099657343,-0.138012248335613,-0.03));
#473=CARTESIAN_POINT('',(0.109153458071616,-0.137855094050595,-0.03));
#474=CARTESIAN_POINT('',(0.115060194762133,-0.137464835818821,-0.03));
#475=CARTESIAN_POINT('',(0.120822765653981,-0.136805549679593,-0.03));
#476=CARTESIAN_POINT('',(0.126405979232099,-0.135882029548093,-0.03));
#477=CARTESIAN_POINT('',(0.130494905671149,-0.135058669688948,-0.03));
#478=CARTESIAN_POINT('',(0.13447655955427,-0.134106088983768,-0.03));
#479=CARTESIAN_POINT('',(0.137697905768528,-0.133205970126286,-0.03));
#480=CARTESIAN_POINT('',(0.140212618445435,-0.132423005499942,-0.03));
#481=CARTESIAN_POINT('',(0.142066372938447,-0.13180460182363,-0.03));
#482=CARTESIAN_POINT('',(0.143583435120768,-0.131263470865334,-0.03));
#483=CARTESIAN_POINT('',(0.144779772522874,-0.130815278927232,-0.03));
#484=CARTESIAN_POINT('',(0.145668593421963,-0.130471386231918,-0.03));
#485=CARTESIAN_POINT('',(0.146547399949453,-0.130120350535942,-0.03));
#486=CARTESIAN_POINT('',(0.147703771782782,-0.129643654814636,-0.03));
#487=CARTESIAN_POINT('',(0.149121152043957,-0.129031437539953,-0.03));
#488=CARTESIAN_POINT('',(0.150776301731083,-0.128271435453714,-0.03));
#489=CARTESIAN_POINT('',(0.152921684784471,-0.127225226930044,-0.03));
#490=CARTESIAN_POINT('',(0.155486905731346,-0.125857658015522,-0.03));
#491=CARTESIAN_POINT('',(0.158375189205687,-0.124126796356736,-0.03));
#492=CARTESIAN_POINT('',(0.161070190717718,-0.122312221676883,-0.03));
#493=CARTESIAN_POINT('',(0.164401970059428,-0.119789372174744,-0.03));
#494=CARTESIAN_POINT('',(0.168069816389394,-0.116457401684526,-0.03));
#495=CARTESIAN_POINT('',(0.171064076697242,-0.112927769023151,-0.03));
#496=CARTESIAN_POINT('',(0.173054046558204,-0.110005731211411,-0.03));
#497=CARTESIAN_POINT('',(0.174344389009739,-0.107768659375258,-0.03));
#498=CARTESIAN_POINT('',(0.175433318503671,-0.105488690457192,-0.03));
#499=CARTESIAN_POINT('',(0.176173541604376,-0.103554010124996,-0.03));
#500=CARTESIAN_POINT('',(0.1766655251691,-0.10198535070036,-0.03));
#501=CARTESIAN_POINT('',(0.176984362890923,-0.100798254915645,-0.03));
#502=CARTESIAN_POINT('',(0.177208188901298,-0.0997999601096039,-0.03));
#503=CARTESIAN_POINT('',(0.177362015401336,-0.0989958594074236,-0.03));
#504=CARTESIAN_POINT('',(0.177430522151778,-0.0985917931031912,-0.03));
#505=CARTESIAN_POINT('',(0.177462640455694,-0.0983894210955688,-0.03));
#506=CARTESIAN_POINT('',(-0.0056400000004911,-0.0844469464879239,-0.03));
#507=CARTESIAN_POINT('',(-0.00564,-0.0844469464893555,-0.02));
#508=CARTESIAN_POINT('',(-0.00564,-0.0844469464893555,0.01));
#509=CARTESIAN_POINT('',(0.177462640455694,-0.0983894210955688,0.01));
#510=CARTESIAN_POINT('',(0.177494758759608,-0.0981870490879463,0.01));
#511=CARTESIAN_POINT('',(0.177554725224825,-0.0977816273616889,0.01));
#512=CARTESIAN_POINT('',(0.177657422981088,-0.0969694120563546,0.01));
#513=CARTESIAN_POINT('',(0.177753687258656,-0.0959508720269238,0.01));
#514=CARTESIAN_POINT('',(0.177818065125919,-0.094723391116623,0.01));
#515=CARTESIAN_POINT('',(0.177835945011487,-0.0930794870658492,0.01));
#516=CARTESIAN_POINT('',(0.177731110953329,-0.0910106883692981,0.01));
#517=CARTESIAN_POINT('',(0.177401613850976,-0.088505602069458,0.01));
#518=CARTESIAN_POINT('',(0.176867319343345,-0.0859789435208105,0.01));
#519=CARTESIAN_POINT('',(0.175879855613711,-0.0825843595399029,0.01));
#520=CARTESIAN_POINT('',(0.174125574993853,-0.0783010896415439,0.01));
#521=CARTESIAN_POINT('',(0.171669607944338,-0.0739972134932763,0.01));
#522=CARTESIAN_POINT('',(0.169282674045468,-0.0705667514610252,0.01));
#523=CARTESIAN_POINT('',(0.167281931309689,-0.0680069188641862,0.01));
#524=CARTESIAN_POINT('',(0.165071485198101,-0.0654668417988641,0.01));
#525=CARTESIAN_POINT('',(0.163055743951624,-0.0633722319379355,0.01));
#526=CARTESIAN_POINT('',(0.161339710521859,-0.0617131810078265,0.01));
#527=CARTESIAN_POINT('',(0.16000120553618,-0.0604780583170805,0.01));
#528=CARTESIAN_POINT('',(0.158843029043058,-0.0594570764333201,0.01));
#529=CARTESIAN_POINT('',(0.157891075036495,-0.0586457699579254,0.01));
#530=CARTESIAN_POINT('',(0.157164140120062,-0.0580398882864103,0.01));
#531=CARTESIAN_POINT('',(0.156425471320338,-0.0574376979669408,0.01));
#532=CARTESIAN_POINT('',(0.155426690303526,-0.0566411204920452,0.01));
#533=CARTESIAN_POINT('',(0.15415172049321,-0.0556568683079796,0.01));
#534=CARTESIAN_POINT('',(0.15258052840152,-0.0544948940233038,0.01));
#535=CARTESIAN_POINT('',(0.150431808554901,-0.0529717996486015,0.01));
#536=CARTESIAN_POINT('',(0.147647452015716,-0.051118520378655,0.01));
#537=CARTESIAN_POINT('',(0.144156392144278,-0.0489799510861395,0.01));
#538=CARTESIAN_POINT('',(0.140523321733455,-0.046931039113505,0.01));
#539=CARTESIAN_POINT('',(0.135500404253894,-0.0443242281718182,0.01));
#540=CARTESIAN_POINT('',(0.130225130974209,-0.0419131343699133,0.01));
#541=CARTESIAN_POINT('',(0.124729479826859,-0.0397132120337367,0.01));
#542=CARTESIAN_POINT('',(0.120505580743358,-0.0381725485919652,0.01));
#543=CARTESIAN_POINT('',(0.116187550123277,-0.0367448032019511,0.01));
#544=CARTESIAN_POINT('',(0.111783423595669,-0.0354335296317332,0.01));
#545=CARTESIAN_POINT('',(0.107301234916738,-0.0342422126581431,0.01));
#546=CARTESIAN_POINT('',(0.10350772437452,-0.0333522625223137,0.01));
#547=CARTESIAN_POINT('',(0.100441908839317,-0.0327036676634783,0.01));
#548=CARTESIAN_POINT('',(0.0981280706728345,-0.0322493215248851,0.01));
#549=CARTESIAN_POINT('',(0.0961885623934352,-0.0318977793535346,0.01));
#550=CARTESIAN_POINT('',(0.0946308547695921,-0.0316330261825323,0.01));
#551=CARTESIAN_POINT('',(0.0934591800096514,-0.0314426777596997,0.01));
#552=CARTESIAN_POINT('',(0.092286145142687,-0.0312608991414783,0.01));
#553=CARTESIAN_POINT('',(0.0907230097004982,-0.0310303457370182,0.01));
#554=CARTESIAN_POINT('',(0.08876996351626,-0.0307641036172678,0.01));
#555=CARTESIAN_POINT('',(0.0864291517018394,-0.0304797138780109,0.01));
#556=CARTESIAN_POINT('',(0.0833131710922355,-0.0301472006792133,0.01));
#557=CARTESIAN_POINT('',(0.0794305257153765,-0.0298188740800231,0.01));
#558=CARTESIAN_POINT('',(0.0747997344201003,-0.0295638770904373,0.01));
#559=CARTESIAN_POINT('',(0.0702060284345459,-0.0294471116614543,0.01));
#560=CARTESIAN_POINT('',(0.0656581256953765,-0.0294677516643871,0.01));
#561=CARTESIAN_POINT('',(0.0611647672811039,-0.0296249059494047,0.01));
#562=CARTESIAN_POINT('',(0.0552580305905861,-0.0300151641811795,0.01));
#563=CARTESIAN_POINT('',(0.049495459698739,-0.0306744503204066,0.01));
#564=CARTESIAN_POINT('',(0.0439122461206202,-0.0315979704519069,0.01));
#565=CARTESIAN_POINT('',(0.0398233196815708,-0.0324213303110525,0.01));
#566=CARTESIAN_POINT('',(0.0358416657984501,-0.0333739110162316,0.01));
#567=CARTESIAN_POINT('',(0.0326203195841916,-0.0342740298737145,0.01));
#568=CARTESIAN_POINT('',(0.0301056069072844,-0.0350569945000585,0.01));
#569=CARTESIAN_POINT('',(0.0282518524142725,-0.0356753981763704,0.01));
#570=CARTESIAN_POINT('',(0.0267347902319514,-0.0362165291346664,0.01));
#571=CARTESIAN_POINT('',(0.0255384528298458,-0.0366647210727681,0.01));
#572=CARTESIAN_POINT('',(0.0246496319307564,-0.0370086137680817,0.01));
#573=CARTESIAN_POINT('',(0.0237708254032668,-0.0373596494640576,0.01));
#574=CARTESIAN_POINT('',(0.0226144535699381,-0.0378363451853642,0.01));
#575=CARTESIAN_POINT('',(0.0211970733087631,-0.0384485624600466,0.01));
#576=CARTESIAN_POINT('',(0.0195419236216366,-0.0392085645462857,0.01));
#577=CARTESIAN_POINT('',(0.0173965405682486,-0.0402547730699558,0.01));
#578=CARTESIAN_POINT('',(0.0148313196213738,-0.0416223419844783,0.01));
#579=CARTESIAN_POINT('',(0.0119430361470326,-0.0433532036432641,0.01));
#580=CARTESIAN_POINT('',(0.00924803463500161,-0.0451677783231172,0.01));
#581=CARTESIAN_POINT('',(0.00591625529329152,-0.0476906278252563,0.01));
#582=CARTESIAN_POINT('',(0.00224840896332505,-0.0510225983154741,0.01));
#583=CARTESIAN_POINT('',(-0.000745851344522878,-0.0545522309768489,0.01));
#584=CARTESIAN_POINT('',(-0.00273582120548484,-0.0574742687885894,0.01));
#585=CARTESIAN_POINT('',(-0.00402616365701944,-0.0597113406247415,0.01));
#586=CARTESIAN_POINT('',(-0.00511509315095189,-0.0619913095428081,0.01));
#587=CARTESIAN_POINT('',(-0.005855316251656,-0.063925989875004,0.01));
#588=CARTESIAN_POINT('',(-0.00634729981637954,-0.0654946492996403,0.01));
#589=CARTESIAN_POINT('',(-0.00666613753820347,-0.0666817450843553,0.01));
#590=CARTESIAN_POINT('',(-0.00688996354857872,-0.0676800398903961,0.01));
#591=CARTESIAN_POINT('',(-0.00704379004861631,-0.0684841405925765,0.01));
#592=CARTESIAN_POINT('',(-0.00714655017428004,-0.0690902400489249,0.01));
#593=CARTESIAN_POINT('',(-0.00723649987210457,-0.0696983726383111,0.01));
#594=CARTESIAN_POINT('',(-0.0073391976283684,-0.0705105879436453,0.01));
#595=CARTESIAN_POINT('',(-0.00743546190593611,-0.0715291279730762,0.01));
#596=CARTESIAN_POINT('',(-0.0074998397731999,-0.0727566088833769,0.01));
#597=CARTESIAN_POINT('',(-0.00751771965876653,-0.0744005129341507,0.01));
#598=CARTESIAN_POINT('',(-0.00741288560060914,-0.0764693116307018,0.01));
#599=CARTESIAN_POINT('',(-0.00708338849825596,-0.0789743979305419,0.01));
#600=CARTESIAN_POINT('',(-0.00654909399062576,-0.0815010564791895,0.01));
#601=CARTESIAN_POINT('',(-0.00556163026099139,-0.0848956404600971,0.01));
#602=CARTESIAN_POINT('',(-0.00380734964113337,-0.089178910358456,0.01));
#603=CARTESIAN_POINT('',(-0.00135138259161844,-0.0934827865067237,0.01));
#604=CARTESIAN_POINT('',(0.00103555130725132,-0.0969132485389747,0.01));
#605=CARTESIAN_POINT('',(0.00303629404303073,-0.0994730811358138,0.01));
#606=CARTESIAN_POINT('',(0.00524674015461801,-0.102013158201136,0.01));
#607=CARTESIAN_POINT('',(0.0072624814010963,-0.104107768062065,0.01));
#608=CARTESIAN_POINT('',(0.00897851483086088,-0.105766818992173,0.01));
#609=CARTESIAN_POINT('',(0.0103170198165396,-0.107001941682919,0.01));
#610=CARTESIAN_POINT('',(0.0114751963096619,-0.10802292356668,0.01));
#611=CARTESIAN_POINT('',(0.0124271503162245,-0.108834230042075,0.01));
#612=CARTESIAN_POINT('',(0.0131540852326578,-0.10944011171359,0.01));
#613=CARTESIAN_POINT('',(0.0138927540323815,-0.110042302033059,0.01));
#614=CARTESIAN_POINT('',(0.014891535049194,-0.110838879507955,0.01));
#615=CARTESIAN_POINT('',(0.0161665048595099,-0.11182313169202,0.01));
#616=CARTESIAN_POINT('',(0.0177376969512004,-0.112985105976696,0.01));
#617=CARTESIAN_POINT('',(0.0198864167978192,-0.114508200351398,0.01));
#618=CARTESIAN_POINT('',(0.0226707733370039,-0.116361479621345,0.01));
#619=CARTESIAN_POINT('',(0.0261618332084412,-0.11850004891386,0.01));
#620=CARTESIAN_POINT('',(0.0297949036192651,-0.120548960886495,0.01));
#621=CARTESIAN_POINT('',(0.034817821098826,-0.123155771828182,0.01));
#622=CARTESIAN_POINT('',(0.0400930943785108,-0.125566865630087,0.01));
#623=CARTESIAN_POINT('',(0.0455887455258607,-0.127766787966263,0.01));
#624=CARTESIAN_POINT('',(0.0498126446093619,-0.129307451408035,0.01));
#625=CARTESIAN_POINT('',(0.0541306752294431,-0.130735196798049,0.01));
#626=CARTESIAN_POINT('',(0.0585348017570502,-0.132046470368267,0.01));
#627=CARTESIAN_POINT('',(0.0630169904359814,-0.133237787341857,0.01));
#628=CARTESIAN_POINT('',(0.0668105009781992,-0.134127737477686,0.01));
#629=CARTESIAN_POINT('',(0.0698763165134026,-0.134776332336522,0.01));
#630=CARTESIAN_POINT('',(0.0721901546798852,-0.135230678475115,0.01));
#631=CARTESIAN_POINT('',(0.0741296629592845,-0.135582220646465,0.01));
#632=CARTESIAN_POINT('',(0.0756873705831276,-0.135846973817468,0.01));
#633=CARTESIAN_POINT('',(0.0768590453430683,-0.1360373222403,0.01));
#634=CARTESIAN_POINT('',(0.0780320802100327,-0.136219100858522,0.01));
#635=CARTESIAN_POINT('',(0.0795952156522216,-0.136449654262982,0.01));
#636=CARTESIAN_POINT('',(0.0815482618364596,-0.136715896382732,0.01));
#637=CARTESIAN_POINT('',(0.0838890736508804,-0.137000286121989,0.01));
#638=CARTESIAN_POINT('',(0.0870050542604842,-0.137332799320787,0.01));
#639=CARTESIAN_POINT('',(0.0908876996373432,-0.137661125919977,0.01));
#640=CARTESIAN_POINT('',(0.0955184909326194,-0.137916122909563,0.01));
#641=CARTESIAN_POINT('',(0.100112196918174,-0.138032888338546,0.01));
#642=CARTESIAN_POINT('',(0.104660099657343,-0.138012248335613,0.01));
#643=CARTESIAN_POINT('',(0.109153458071616,-0.137855094050595,0.01));
#644=CARTESIAN_POINT('',(0.115060194762133,-0.137464835818821,0.01));
#645=CARTESIAN_POINT('',(0.120822765653981,-0.136805549679593,0.01));
#646=CARTESIAN_POINT('',(0.126405979232099,-0.135882029548093,0.01));
#647=CARTESIAN_POINT('',(0.130494905671149,-0.135058669688948,0.01));
#648=CARTESIAN_POINT('',(0.13447655955427,-0.134106088983768,0.01));
#649=CARTESIAN_POINT('',(0.137697905768528,-0.133205970126286,0.01));
#650=CARTESIAN_POINT('',(0.140212618445435,-0.132423005499942,0.01));
#651=CARTESIAN_POINT('',(0.142066372938447,-0.13180460182363,0.01));
#652=CARTESIAN_POINT('',(0.143583435120768,-0.131263470865334,0.01));
#653=CARTESIAN_POINT('',(0.144779772522874,-0.130815278927232,0.01));
#654=CARTESIAN_POINT('',(0.145668593421963,-0.130471386231918,0.01));
#655=CARTESIAN_POINT('',(0.146547399949453,-0.130120350535942,0.01));
#656=CARTESIAN_POINT('',(0.147703771782782,-0.129643654814636,0.01));
#657=CARTESIAN_POINT('',(0.149121152043957,-0.129031437539953,0.01));
#658=CARTESIAN_POINT('',(0.150776301731083,-0.128271435453714,0.01));
#659=CARTESIAN_POINT('',(0.152921684784471,-0.127225226930044,0.01));
#660=CARTESIAN_POINT('',(0.155486905731346,-0.125857658015522,0.01));
#661=CARTESIAN_POINT('',(0.158375189205687,-0.124126796356736,0.01));
#662=CARTESIAN_POINT('',(0.161070190717718,-0.122312221676883,0.01));
#663=CARTESIAN_POINT('',(0.164401970059428,-0.119789372174744,0.01));
#664=CARTESIAN_POINT('',(0.168069816389394,-0.116457401684526,0.01));
#665=CARTESIAN_POINT('',(0.171064076697242,-0.112927769023151,0.01));
#666=CARTESIAN_POINT('',(0.173054046558204,-0.110005731211411,0.01));
#667=CARTESIAN_POINT('',(0.174344389009739,-0.107768659375258,0.01));
#668=CARTESIAN_POINT('',(0.175433318503671,-0.105488690457192,0.01));
#669=CARTESIAN_POINT('',(0.176173541604376,-0.103554010124996,0.01));
#670=CARTESIAN_POINT('',(0.1766655251691,-0.10198535070036,0.01));
#671=CARTESIAN_POINT('',(0.176984362890923,-0.100798254915645,0.01));
#672=CARTESIAN_POINT('',(0.177208188901298,-0.0997999601096039,0.01));
#673=CARTESIAN_POINT('',(0.177362015401336,-0.0989958594074236,0.01));
#674=CARTESIAN_POINT('',(0.177430522151778,-0.0985917931031912,0.01));
#675=CARTESIAN_POINT('',(0.177462640455694,-0.0983894210955688,0.01));
#676=CARTESIAN_POINT('',(0.177462640455694,-0.0983894210955688,-0.025));
#677=CARTESIAN_POINT('',(0.177494758759608,-0.0981870490879463,-0.025));
#678=CARTESIAN_POINT('',(0.177554725224825,-0.0977816273616889,-0.025));
#679=CARTESIAN_POINT('',(0.177657422981088,-0.0969694120563546,-0.025));
#680=CARTESIAN_POINT('',(0.177753687258656,-0.0959508720269238,-0.025));
#681=CARTESIAN_POINT('',(0.177818065125919,-0.094723391116623,-0.025));
#682=CARTESIAN_POINT('',(0.177835945011487,-0.0930794870658492,-0.025));
#683=CARTESIAN_POINT('',(0.177731110953329,-0.0910106883692981,-0.025));
#684=CARTESIAN_POINT('',(0.177401613850976,-0.088505602069458,-0.025));
#685=CARTESIAN_POINT('',(0.176867319343345,-0.0859789435208105,-0.025));
#686=CARTESIAN_POINT('',(0.175879855613711,-0.0825843595399029,-0.025));
#687=CARTESIAN_POINT('',(0.174125574993853,-0.0783010896415439,-0.025));
#688=CARTESIAN_POINT('',(0.171669607944338,-0.0739972134932763,-0.025));
#689=CARTESIAN_POINT('',(0.169282674045468,-0.0705667514610252,-0.025));
#690=CARTESIAN_POINT('',(0.167281931309689,-0.0680069188641862,-0.025));
#691=CARTESIAN_POINT('',(0.165071485198101,-0.0654668417988641,-0.025));
#692=CARTESIAN_POINT('',(0.163055743951624,-0.0633722319379355,-0.025));
#693=CARTESIAN_POINT('',(0.161339710521859,-0.0617131810078265,-0.025));
#694=CARTESIAN_POINT('',(0.16000120553618,-0.0604780583170805,-0.025));
#695=CARTESIAN_POINT('',(0.158843029043058,-0.0594570764333201,-0.025));
#696=CARTESIAN_POINT('',(0.157891075036495,-0.0586457699579254,-0.025));
#697=CARTESIAN_POINT('',(0.157164140120062,-0.0580398882864103,-0.025));
#698=CARTESIAN_POINT('',(0.156425471320338,-0.0574376979669408,-0.025));
#699=CARTESIAN_POINT('',(0.155426690303526,-0.0566411204920452,-0.025));
#700=CARTESIAN_POINT('',(0.15415172049321,-0.0556568683079796,-0.025));
#701=CARTESIAN_POINT('',(0.15258052840152,-0.0544948940233038,-0.025));
#702=CARTESIAN_POINT('',(0.150431808554901,-0.0529717996486015,-0.025));
#703=CARTESIAN_POINT('',(0.147647452015716,-0.051118520378655,-0.025));
#704=CARTESIAN_POINT('',(0.144156392144278,-0.0489799510861395,-0.025));
#705=CARTESIAN_POINT('',(0.140523321733455,-0.046931039113505,-0.025));
#706=CARTESIAN_POINT('',(0.135500404253894,-0.0443242281718182,-0.025));
#707=CARTESIAN_POINT('',(0.130225130974209,-0.0419131343699133,-0.025));
#708=CARTESIAN_POINT('',(0.124729479826859,-0.0397132120337367,-0.025));
#709=CARTESIAN_POINT('',(0.120505580743358,-0.0381725485919652,-0.025));
#710=CARTESIAN_POINT('',(0.116187550123277,-0.0367448032019511,-0.025));
#711=CARTESIAN_POINT('',(0.111783423595669,-0.0354335296317332,-0.025));
#712=CARTESIAN_POINT('',(0.107301234916738,-0.0342422126581431,-0.025));
#713=CARTESIAN_POINT('',(0.10350772437452,-0.0333522625223137,-0.025));
#714=CARTESIAN_POINT('',(0.100441908839317,-0.0327036676634783,-0.025));
#715=CARTESIAN_POINT('',(0.0981280706728345,-0.0322493215248851,-0.025));
#716=CARTESIAN_POINT('',(0.0961885623934352,-0.0318977793535346,-0.025));
#717=CARTESIAN_POINT('',(0.0946308547695921,-0.0316330261825323,-0.025));
#718=CARTESIAN_POINT('',(0.0934591800096514,-0.0314426777596997,-0.025));
#719=CARTESIAN_POINT('',(0.092286145142687,-0.0312608991414783,-0.025));
#720=CARTESIAN_POINT('',(0.0907230097004982,-0.0310303457370182,-0.025));
#721=CARTESIAN_POINT('',(0.08876996351626,-0.0307641036172678,-0.025));
#722=CARTESIAN_POINT('',(0.0864291517018394,-0.0304797138780109,-0.025));
#723=CARTESIAN_POINT('',(0.0833131710922355,-0.0301472006792133,-0.025));
#724=CARTESIAN_POINT('',(0.0794305257153765,-0.0298188740800231,-0.025));
#725=CARTESIAN_POINT('',(0.0747997344201003,-0.0295638770904373,-0.025));
#726=CARTESIAN_POINT('',(0.0702060284345459,-0.0294471116614543,-0.025));
#727=CARTESIAN_POINT('',(0.0656581256953765,-0.0294677516643871,-0.025));
#728=CARTESIAN_POINT('',(0.0611647672811039,-0.0296249059494047,-0.025));
#729=CARTESIAN_POINT('',(0.0552580305905861,-0.0300151641811795,-0.025));
#730=CARTESIAN_POINT('',(0.049495459698739,-0.0306744503204066,-0.025));
#731=CARTESIAN_POINT('',(0.0439122461206202,-0.0315979704519069,-0.025));
#732=CARTESIAN_POINT('',(0.0398233196815708,-0.0324213303110525,-0.025));
#733=CARTESIAN_POINT('',(0.0358416657984501,-0.0333739110162316,-0.025));
#734=CARTESIAN_POINT('',(0.0326203195841916,-0.0342740298737145,-0.025));
#735=CARTESIAN_POINT('',(0.0301056069072844,-0.0350569945000585,-0.025));
#736=CARTESIAN_POINT('',(0.0282518524142725,-0.0356753981763704,-0.025));
#737=CARTESIAN_POINT('',(0.0267347902319514,-0.0362165291346664,-0.025));
#738=CARTESIAN_POINT('',(0.0255384528298458,-0.0366647210727681,-0.025));
#739=CARTESIAN_POINT('',(0.0246496319307564,-0.0370086137680817,-0.025));
#740=CARTESIAN_POINT('',(0.0237708254032668,-0.0373596494640576,-0.025));
#741=CARTESIAN_POINT('',(0.0226144535699381,-0.0378363451853642,-0.025));
#742=CARTESIAN_POINT('',(0.0211970733087631,-0.0384485624600466,-0.025));
#743=CARTESIAN_POINT('',(0.0195419236216366,-0.0392085645462857,-0.025));
#744=CARTESIAN_POINT('',(0.0173965405682486,-0.0402547730699558,-0.025));
#745=CARTESIAN_POINT('',(0.0148313196213738,-0.0416223419844783,-0.025));
#746=CARTESIAN_POINT('',(0.0119430361470326,-0.0433532036432641,-0.025));
#747=CARTESIAN_POINT('',(0.00924803463500161,-0.0451677783231172,-0.025));
#748=CARTESIAN_POINT('',(0.00591625529329152,-0.0476906278252563,-0.025));
#749=CARTESIAN_POINT('',(0.00224840896332505,-0.0510225983154741,-0.025));
#750=CARTESIAN_POINT('',(-0.000745851344522878,-0.0545522309768489,-0.025));
#751=CARTESIAN_POINT('',(-0.00273582120548484,-0.0574742687885894,-0.025));
#752=CARTESIAN_POINT('',(-0.00402616365701944,-0.0597113406247415,-0.025));
#753=CARTESIAN_POINT('',(-0.00511509315095189,-0.0619913095428081,-0.025));
#754=CARTESIAN_POINT('',(-0.005855316251656,-0.063925989875004,-0.025));
#755=CARTESIAN_POINT('',(-0.00634729981637954,-0.0654946492996403,-0.025));
#756=CARTESIAN_POINT('',(-0.00666613753820347,-0.0666817450843553,-0.025));
#757=CARTESIAN_POINT('',(-0.00688996354857872,-0.0676800398903961,-0.025));
#758=CARTESIAN_POINT('',(-0.00704379004861631,-0.0684841405925765,-0.025));
#759=CARTESIAN_POINT('',(-0.00714655017428004,-0.0690902400489249,-0.025));
#760=CARTESIAN_POINT('',(-0.00723649987210457,-0.0696983726383111,-0.025));
#761=CARTESIAN_POINT('',(-0.0073391976283684,-0.0705105879436453,-0.025));
#762=CARTESIAN_POINT('',(-0.00743546190593611,-0.0715291279730762,-0.025));
#763=CARTESIAN_POINT('',(-0.0074998397731999,-0.0727566088833769,-0.025));
#764=CARTESIAN_POINT('',(-0.00751771965876653,-0.0744005129341507,-0.025));
#765=CARTESIAN_POINT('',(-0.00741288560060914,-0.0764693116307018,-0.025));
#766=CARTESIAN_POINT('',(-0.00708338849825596,-0.0789743979305419,-0.025));
#767=CARTESIAN_POINT('',(-0.00654909399062576,-0.0815010564791895,-0.025));
#768=CARTESIAN_POINT('',(-0.00556163026099139,-0.0848956404600971,-0.025));
#769=CARTESIAN_POINT('',(-0.00380734964113337,-0.089178910358456,-0.025));
#770=CARTESIAN_POINT('',(-0.00135138259161844,-0.0934827865067237,-0.025));
#771=CARTESIAN_POINT('',(0.00103555130725132,-0.0969132485389747,-0.025));
#772=CARTESIAN_POINT('',(0.00303629404303073,-0.0994730811358138,-0.025));
#773=CARTESIAN_POINT('',(0.00524674015461801,-0.102013158201136,-0.025));
#774=CARTESIAN_POINT('',(0.0072624814010963,-0.104107768062065,-0.025));
#775=CARTESIAN_POINT('',(0.00897851483086088,-0.105766818992173,-0.025));
#776=CARTESIAN_POINT('',(0.0103170198165396,-0.107001941682919,-0.025));
#777=CARTESIAN_POINT('',(0.0114751963096619,-0.10802292356668,-0.025));
#778=CARTESIAN_POINT('',(0.0124271503162245,-0.108834230042075,-0.025));
#779=CARTESIAN_POINT('',(0.0131540852326578,-0.10944011171359,-0.025));
#780=CARTESIAN_POINT('',(0.0138927540323815,-0.110042302033059,-0.025));
#781=CARTESIAN_POINT('',(0.014891535049194,-0.110838879507955,-0.025));
#782=CARTESIAN_POINT('',(0.0161665048595099,-0.11182313169202,-0.025));
#783=CARTESIAN_POINT('',(0.0177376969512004,-0.112985105976696,-0.025));
#784=CARTESIAN_POINT('',(0.0198864167978192,-0.114508200351398,-0.025));
#785=CARTESIAN_POINT('',(0.0226707733370039,-0.116361479621345,-0.025));
#786=CARTESIAN_POINT('',(0.0261618332084412,-0.11850004891386,-0.025));
#787=CARTESIAN_POINT('',(0.0297949036192651,-0.120548960886495,-0.025));
#788=CARTESIAN_POINT('',(0.034817821098826,-0.123155771828182,-0.025));
#789=CARTESIAN_POINT('',(0.0400930943785108,-0.125566865630087,-0.025));
#790=CARTESIAN_POINT('',(0.0455887455258607,-0.127766787966263,-0.025));
#791=CARTESIAN_POINT('',(0.0498126446093619,-0.129307451408035,-0.025));
#792=CARTESIAN_POINT('',(0.0541306752294431,-0.130735196798049,-0.025));
#793=CARTESIAN_POINT('',(0.0585348017570502,-0.132046470368267,-0.025));
#794=CARTESIAN_POINT('',(0.0630169904359814,-0.133237787341857,-0.025));
#795=CARTESIAN_POINT('',(0.0668105009781992,-0.134127737477686,-0.025));
#796=CARTESIAN_POINT('',(0.0698763165134026,-0.134776332336522,-0.025));
#797=CARTESIAN_POINT('',(0.0721901546798852,-0.135230678475115,-0.025));
#798=CARTESIAN_POINT('',(0.0741296629592845,-0.135582220646465,-0.025));
#799=CARTESIAN_POINT('',(0.0756873705831276,-0.135846973817468,-0.025));
#800=CARTESIAN_POINT('',(0.0768590453430683,-0.1360373222403,-0.025));
#801=CARTESIAN_POINT('',(0.0780320802100327,-0.136219100858522,-0.025));
#802=CARTESIAN_POINT('',(0.0795952156522216,-0.136449654262982,-0.025));
#803=CARTESIAN_POINT('',(0.0815482618364596,-0.136715896382732,-0.025));
#804=CARTESIAN_POINT('',(0.0838890736508804,-0.137000286121989,-0.025));
#805=CARTESIAN_POINT('',(0.0870050542604842,-0.137332799320787,-0.025));
#806=CARTESIAN_POINT('',(0.0908876996373432,-0.137661125919977,-0.025));
#807=CARTESIAN_POINT('',(0.0955184909326194,-0.137916122909563,-0.025));
#808=CARTESIAN_POINT('',(0.100112196918174,-0.138032888338546,-0.025));
#809=CARTESIAN_POINT('',(0.104660099657343,-0.138012248335613,-0.025));
#810=CARTESIAN_POINT('',(0.109153458071616,-0.137855094050595,-0.025));
#811=CARTESIAN_POINT('',(0.115060194762133,-0.137464835818821,-0.025));
#812=CARTESIAN_POINT('',(0.120822765653981,-0.136805549679593,-0.025));
#813=CARTESIAN_POINT('',(0.126405979232099,-0.135882029548093,-0.025));
#814=CARTESIAN_POINT('',(0.130494905671149,-0.135058669688948,-0.025));
#815=CARTESIAN_POINT('',(0.13447655955427,-0.134106088983768,-0.025));
#816=CARTESIAN_POINT('',(0.137697905768528,-0.133205970126286,-0.025));
#817=CARTESIAN_POINT('',(0.140212618445435,-0.132423005499942,-0.025));
#818=CARTESIAN_POINT('',(0.142066372938447,-0.13180460182363,-0.025));
#819=CARTESIAN_POINT('',(0.143583435120768,-0.131263470865334,-0.025));
#820=CARTESIAN_POINT('',(0.144779772522874,-0.130815278927232,-0.025));
#821=CARTESIAN_POINT('',(0.145668593421963,-0.130471386231918,-0.025));
#822=CARTESIAN_POINT('',(0.146547399949453,-0.130120350535942,-0.025));
#823=CARTESIAN_POINT('',(0.147703771782782,-0.129643654814636,-0.025));
#824=CARTESIAN_POINT('',(0.149121152043957,-0.129031437539953,-0.025));
#825=CARTESIAN_POINT('',(0.150776301731083,-0.128271435453714,-0.025));
#826=CARTESIAN_POINT('',(0.152921684784471,-0.127225226930044,-0.025));
#827=CARTESIAN_POINT('',(0.155486905731346,-0.125857658015522,-0.025));
#828=CARTESIAN_POINT('',(0.158375189205687,-0.124126796356736,-0.025));
#829=CARTESIAN_POINT('',(0.161070190717718,-0.122312221676883,-0.025));
#830=CARTESIAN_POINT('',(0.164401970059428,-0.119789372174744,-0.025));
#831=CARTESIAN_POINT('',(0.168069816389394,-0.116457401684526,-0.025));
#832=CARTESIAN_POINT('',(0.171064076697242,-0.112927769023151,-0.025));
#833=CARTESIAN_POINT('',(0.173054046558204,-0.110005731211411,-0.025));
#834=CARTESIAN_POINT('',(0.174344389009739,-0.107768659375258,-0.025));
#835=CARTESIAN_POINT('',(0.175433318503671,-0.105488690457192,-0.025));
#836=CARTESIAN_POINT('',(0.176173541604376,-0.103554010124996,-0.025));
#837=CARTESIAN_POINT('',(0.1766655251691,-0.10198535070036,-0.025));
#838=CARTESIAN_POINT('',(0.176984362890923,-0.100798254915645,-0.025));
#839=CARTESIAN_POINT('',(0.177208188901298,-0.0997999601096039,-0.025));
#840=CARTESIAN_POINT('',(0.177362015401336,-0.0989958594074236,-0.025));
#841=CARTESIAN_POINT('',(0.177430522151778,-0.0985917931031912,-0.025));
#842=CARTESIAN_POINT('',(0.177462640455694,-0.0983894210955688,-0.025));
#843=CARTESIAN_POINT('',(0.173975419013591,-0.078276955141679,-0.025));
#844=CARTESIAN_POINT('',(0.177648172107194,-0.0905134558737928,-0.025));
#845=CARTESIAN_POINT('',(0.17397541902055,-0.078276955141679,-0.02));
#846=CARTESIAN_POINT('',(0.173975419013591,-0.078276955141679,-0.015));
#847=CARTESIAN_POINT('',(0.177462640455694,-0.0983894210955688,-0.015));
#848=CARTESIAN_POINT('',(0.177494758759608,-0.0981870490879463,-0.015));
#849=CARTESIAN_POINT('',(0.177554725224825,-0.0977816273616889,-0.015));
#850=CARTESIAN_POINT('',(0.177657422981088,-0.0969694120563546,-0.015));
#851=CARTESIAN_POINT('',(0.177753687258656,-0.0959508720269238,-0.015));
#852=CARTESIAN_POINT('',(0.177818065125919,-0.094723391116623,-0.015));
#853=CARTESIAN_POINT('',(0.177835945011487,-0.0930794870658492,-0.015));
#854=CARTESIAN_POINT('',(0.177731110953329,-0.0910106883692981,-0.015));
#855=CARTESIAN_POINT('',(0.177401613850976,-0.088505602069458,-0.015));
#856=CARTESIAN_POINT('',(0.176867319343345,-0.0859789435208105,-0.015));
#857=CARTESIAN_POINT('',(0.175879855613711,-0.0825843595399029,-0.015));
#858=CARTESIAN_POINT('',(0.174125574993853,-0.0783010896415439,-0.015));
#859=CARTESIAN_POINT('',(0.171669607944338,-0.0739972134932763,-0.015));
#860=CARTESIAN_POINT('',(0.169282674045468,-0.0705667514610252,-0.015));
#861=CARTESIAN_POINT('',(0.167281931309689,-0.0680069188641862,-0.015));
#862=CARTESIAN_POINT('',(0.165071485198101,-0.0654668417988641,-0.015));
#863=CARTESIAN_POINT('',(0.163055743951624,-0.0633722319379355,-0.015));
#864=CARTESIAN_POINT('',(0.161339710521859,-0.0617131810078265,-0.015));
#865=CARTESIAN_POINT('',(0.16000120553618,-0.0604780583170805,-0.015));
#866=CARTESIAN_POINT('',(0.158843029043058,-0.0594570764333201,-0.015));
#867=CARTESIAN_POINT('',(0.157891075036495,-0.0586457699579254,-0.015));
#868=CARTESIAN_POINT('',(0.157164140120062,-0.0580398882864103,-0.015));
#869=CARTESIAN_POINT('',(0.156425471320338,-0.0574376979669408,-0.015));
#870=CARTESIAN_POINT('',(0.155426690303526,-0.0566411204920452,-0.015));
#871=CARTESIAN_POINT('',(0.15415172049321,-0.0556568683079796,-0.015));
#872=CARTESIAN_POINT('',(0.15258052840152,-0.0544948940233038,-0.015));
#873=CARTESIAN_POINT('',(0.150431808554901,-0.0529717996486015,-0.015));
#874=CARTESIAN_POINT('',(0.147647452015716,-0.051118520378655,-0.015));
#875=CARTESIAN_POINT('',(0.144156392144278,-0.0489799510861395,-0.015));
#876=CARTESIAN_POINT('',(0.140523321733455,-0.046931039113505,-0.015));
#877=CARTESIAN_POINT('',(0.135500404253894,-0.0443242281718182,-0.015));
#878=CARTESIAN_POINT('',(0.130225130974209,-0.0419131343699133,-0.015));
#879=CARTESIAN_POINT('',(0.124729479826859,-0.0397132120337367,-0.015));
#880=CARTESIAN_POINT('',(0.120505580743358,-0.0381725485919652,-0.015));
#881=CARTESIAN_POINT('',(0.116187550123277,-0.0367448032019511,-0.015));
#882=CARTESIAN_POINT('',(0.111783423595669,-0.0354335296317332,-0.015));
#883=CARTESIAN_POINT('',(0.107301234916738,-0.0342422126581431,-0.015));
#884=CARTESIAN_POINT('',(0.10350772437452,-0.0333522625223137,-0.015));
#885=CARTESIAN_POINT('',(0.100441908839317,-0.0327036676634783,-0.015));
#886=CARTESIAN_POINT('',(0.0981280706728345,-0.0322493215248851,-0.015));
#887=CARTESIAN_POINT('',(0.0961885623934352,-0.0318977793535346,-0.015));
#888=CARTESIAN_POINT('',(0.0946308547695921,-0.0316330261825323,-0.015));
#889=CARTESIAN_POINT('',(0.0934591800096514,-0.0314426777596997,-0.015));
#890=CARTESIAN_POINT('',(0.092286145142687,-0.0312608991414783,-0.015));
#891=CARTESIAN_POINT('',(0.0907230097004982,-0.0310303457370182,-0.015));
#892=CARTESIAN_POINT('',(0.08876996351626,-0.0307641036172678,-0.015));
#893=CARTESIAN_POINT('',(0.0864291517018394,-0.0304797138780109,-0.015));
#894=CARTESIAN_POINT('',(0.0833131710922355,-0.0301472006792133,-0.015));
#895=CARTESIAN_POINT('',(0.0794305257153765,-0.0298188740800231,-0.015));
#896=CARTESIAN_POINT('',(0.0747997344201003,-0.0295638770904373,-0.015));
#897=CARTESIAN_POINT('',(0.0702060284345459,-0.0294471116614543,-0.015));
#898=CARTESIAN_POINT('',(0.0656581256953765,-0.0294677516643871,-0.015));
#899=CARTESIAN_POINT('',(0.0611647672811039,-0.0296249059494047,-0.015));
#900=CARTESIAN_POINT('',(0.0552580305905861,-0.0300151641811795,-0.015));
#901=CARTESIAN_POINT('',(0.049495459698739,-0.0306744503204066,-0.015));
#902=CARTESIAN_POINT('',(0.0439122461206202,-0.0315979704519069,-0.015));
#903=CARTESIAN_POINT('',(0.0398233196815708,-0.0324213303110525,-0.015));
#904=CARTESIAN_POINT('',(0.0358416657984501,-0.0333739110162316,-0.015));
#905=CARTESIAN_POINT('',(0.0326203195841916,-0.0342740298737145,-0.015));
#906=CARTESIAN_POINT('',(0.0301056069072844,-0.0350569945000585,-0.015));
#907=CARTESIAN_POINT('',(0.0282518524142725,-0.0356753981763704,-0.015));
#908=CARTESIAN_POINT('',(0.0267347902319514,-0.0362165291346664,-0.015));
#909=CARTESIAN_POINT('',(0.0255384528298458,-0.0366647210727681,-0.015));
#910=CARTESIAN_POINT('',(0.0246496319307564,-0.0370086137680817,-0.015));
#911=CARTESIAN_POINT('',(0.0237708254032668,-0.0373596494640576,-0.015));
#912=CARTESIAN_POINT('',(0.0226144535699381,-0.0378363451853642,-0.015));
#913=CARTESIAN_POINT('',(0.0211970733087631,-0.0384485624600466,-0.015));
#914=CARTESIAN_POINT('',(0.0195419236216366,-0.0392085645462857,-0.015));
#915=CARTESIAN_POINT('',(0.0173965405682486,-0.0402547730699558,-0.015));
#916=CARTESIAN_POINT('',(0.0148313196213738,-0.0416223419844783,-0.015));
#917=CARTESIAN_POINT('',(0.0119430361470326,-0.0433532036432641,-0.015));
#918=CARTESIAN_POINT('',(0.00924803463500161,-0.0451677783231172,-0.015));
#919=CARTESIAN_POINT('',(0.00591625529329152,-0.0476906278252563,-0.015));
#920=CARTESIAN_POINT('',(0.00224840896332505,-0.0510225983154741,-0.015));
#921=CARTESIAN_POINT('',(-0.000745851344522878,-0.0545522309768489,-0.015));
#922=CARTESIAN_POINT('',(-0.00273582120548484,-0.0574742687885894,-0.015));
#923=CARTESIAN_POINT('',(-0.00402616365701944,-0.0597113406247415,-0.015));
#924=CARTESIAN_POINT('',(-0.00511509315095189,-0.0619913095428081,-0.015));
#925=CARTESIAN_POINT('',(-0.005855316251656,-0.063925989875004,-0.015));
#926=CARTESIAN_POINT('',(-0.00634729981637954,-0.0654946492996403,-0.015));
#927=CARTESIAN_POINT('',(-0.00666613753820347,-0.0666817450843553,-0.015));
#928=CARTESIAN_POINT('',(-0.00688996354857872,-0.0676800398903961,-0.015));
#929=CARTESIAN_POINT('',(-0.00704379004861631,-0.0684841405925765,-0.015));
#930=CARTESIAN_POINT('',(-0.00714655017428004,-0.0690902400489249,-0.015));
#931=CARTESIAN_POINT('',(-0.00723649987210457,-0.0696983726383111,-0.015));
#932=CARTESIAN_POINT('',(-0.0073391976283684,-0.0705105879436453,-0.015));
#933=CARTESIAN_POINT('',(-0.00743546190593611,-0.0715291279730762,-0.015));
#934=CARTESIAN_POINT('',(-0.0074998397731999,-0.0727566088833769,-0.015));
#935=CARTESIAN_POINT('',(-0.00751771965876653,-0.0744005129341507,-0.015));
#936=CARTESIAN_POINT('',(-0.00741288560060914,-0.0764693116307018,-0.015));
#937=CARTESIAN_POINT('',(-0.00708338849825596,-0.0789743979305419,-0.015));
#938=CARTESIAN_POINT('',(-0.00654909399062576,-0.0815010564791895,-0.015));
#939=CARTESIAN_POINT('',(-0.00556163026099139,-0.0848956404600971,-0.015));
#940=CARTESIAN_POINT('',(-0.00380734964113337,-0.089178910358456,-0.015));
#941=CARTESIAN_POINT('',(-0.00135138259161844,-0.0934827865067237,-0.015));
#942=CARTESIAN_POINT('',(0.00103555130725132,-0.0969132485389747,-0.015));
#943=CARTESIAN_POINT('',(0.00303629404303073,-0.0994730811358138,-0.015));
#944=CARTESIAN_POINT('',(0.00524674015461801,-0.102013158201136,-0.015));
#945=CARTESIAN_POINT('',(0.0072624814010963,-0.104107768062065,-0.015));
#946=CARTESIAN_POINT('',(0.00897851483086088,-0.105766818992173,-0.015));
#947=CARTESIAN_POINT('',(0.0103170198165396,-0.107001941682919,-0.015));
#948=CARTESIAN_POINT('',(0.0114751963096619,-0.10802292356668,-0.015));
#949=CARTESIAN_POINT('',(0.0124271503162245,-0.108834230042075,-0.015));
#950=CARTESIAN_POINT('',(0.0131540852326578,-0.10944011171359,-0.015));
#951=CARTESIAN_POINT('',(0.0138927540323815,-0.110042302033059,-0.015));
#952=CARTESIAN_POINT('',(0.014891535049194,-0.110838879507955,-0.015));
#953=CARTESIAN_POINT('',(0.0161665048595099,-0.11182313169202,-0.015));
#954=CARTESIAN_POINT('',(0.0177376969512004,-0.112985105976696,-0.015));
#955=CARTESIAN_POINT('',(0.0198864167978192,-0.114508200351398,-0.015));
#956=CARTESIAN_POINT('',(0.0226707733370039,-0.116361479621345,-0.015));
#957=CARTESIAN_POINT('',(0.0261618332084412,-0.11850004891386,-0.015));
#958=CARTESIAN_POINT('',(0.0297949036192651,-0.120548960886495,-0.015));
#959=CARTESIAN_POINT('',(0.034817821098826,-0.123155771828182,-0.015));
#960=CARTESIAN_POINT('',(0.0400930943785108,-0.125566865630087,-0.015));
#961=CARTESIAN_POINT('',(0.0455887455258607,-0.127766787966263,-0.015));
#962=CARTESIAN_POINT('',(0.0498126446093619,-0.129307451408035,-0.015));
#963=CARTESIAN_POINT('',(0.0541306752294431,-0.130735196798049,-0.015));
#964=CARTESIAN_POINT('',(0.0585348017570502,-0.132046470368267,-0.015));
#965=CARTESIAN_POINT('',(0.0630169904359814,-0.133237787341857,-0.015));
#966=CARTESIAN_POINT('',(0.0668105009781992,-0.134127737477686,-0.015));
#967=CARTESIAN_POINT('',(0.0698763165134026,-0.134776332336522,-0.015));
#968=CARTESIAN_POINT('',(0.0721901546798852,-0.135230678475115,-0.015));
#969=CARTESIAN_POINT('',(0.0741296629592845,-0.135582220646465,-0.015));
#970=CARTESIAN_POINT('',(0.0756873705831276,-0.135846973817468,-0.015));
#971=CARTESIAN_POINT('',(0.0768590453430683,-0.1360373222403,-0.015));
#972=CARTESIAN_POINT('',(0.0780320802100327,-0.136219100858522,-0.015));
#973=CARTESIAN_POINT('',(0.0795952156522216,-0.136449654262982,-0.015));
#974=CARTESIAN_POINT('',(0.0815482618364596,-0.136715896382732,-0.015));
#975=CARTESIAN_POINT('',(0.0838890736508804,-0.137000286121989,-0.015));
#976=CARTESIAN_POINT('',(0.0870050542604842,-0.137332799320787,-0.015));
#977=CARTESIAN_POINT('',(0.0908876996373432,-0.137661125919977,-0.015));
#978=CARTESIAN_POINT('',(0.0955184909326194,-0.137916122909563,-0.015));
#979=CARTESIAN_POINT('',(0.100112196918174,-0.138032888338546,-0.015));
#980=CARTESIAN_POINT('',(0.104660099657343,-0.138012248335613,-0.015));
#981=CARTESIAN_POINT('',(0.109153458071616,-0.137855094050595,-0.015));
#982=CARTESIAN_POINT('',(0.115060194762133,-0.137464835818821,-0.015));
#983=CARTESIAN_POINT('',(0.120822765653981,-0.136805549679593,-0.015));
#984=CARTESIAN_POINT('',(0.126405979232099,-0.135882029548093,-0.015));
#985=CARTESIAN_POINT('',(0.130494905671149,-0.135058669688948,-0.015));
#986=CARTESIAN_POINT('',(0.13447655955427,-0.134106088983768,-0.015));
#987=CARTESIAN_POINT('',(0.137697905768528,-0.133205970126286,-0.015));
#988=CARTESIAN_POINT('',(0.140212618445435,-0.132423005499942,-0.015));
#989=CARTESIAN_POINT('',(0.142066372938447,-0.13180460182363,-0.015));
#990=CARTESIAN_POINT('',(0.143583435120768,-0.131263470865334,-0.015));
#991=CARTESIAN_POINT('',(0.144779772522874,-0.130815278927232,-0.015));
#992=CARTESIAN_POINT('',(0.145668593421963,-0.130471386231918,-0.015));
#993=CARTESIAN_POINT('',(0.146547399949453,-0.130120350535942,-0.015));
#994=CARTESIAN_POINT('',(0.147703771782782,-0.129643654814636,-0.015));
#995=CARTESIAN_POINT('',(0.149121152043957,-0.129031437539953,-0.015));
#996=CARTESIAN_POINT('',(0.150776301731083,-0.128271435453714,-0.015));
#997=CARTESIAN_POINT('',(0.152921684784471,-0.127225226930044,-0.015));
#998=CARTESIAN_POINT('',(0.155486905731346,-0.125857658015522,-0.015));
#999=CARTESIAN_POINT('',(0.158375189205687,-0.124126796356736,-0.015));
#1000=CARTESIAN_POINT('',(0.161070190717718,-0.122312221676883,-0.015));
#1001=CARTESIAN_POINT('',(0.164401970059428,-0.119789372174744,-0.015));
#1002=CARTESIAN_POINT('',(0.168069816389394,-0.116457401684526,-0.015));
#1003=CARTESIAN_POINT('',(0.171064076697242,-0.112927769023151,-0.015));
#1004=CARTESIAN_POINT('',(0.173054046558204,-0.110005731211411,-0.015));
#1005=CARTESIAN_POINT('',(0.174344389009739,-0.107768659375258,-0.015));
#1006=CARTESIAN_POINT('',(0.175433318503671,-0.105488690457192,-0.015));
#1007=CARTESIAN_POINT('',(0.176173541604376,-0.103554010124996,-0.015));
#1008=CARTESIAN_POINT('',(0.1766655251691,-0.10198535070036,-0.015));
#1009=CARTESIAN_POINT('',(0.176984362890923,-0.100798254915645,-0.015));
#1010=CARTESIAN_POINT('',(0.177208188901298,-0.0997999601096039,-0.015));
#1011=CARTESIAN_POINT('',(0.177362015401336,-0.0989958594074236,-0.015));
#1012=CARTESIAN_POINT('',(0.177430522151778,-0.0985917931031912,-0.015));
#1013=CARTESIAN_POINT('',(0.177462640455694,-0.0983894210955688,-0.015));
#1014=CARTESIAN_POINT('',(0.177648172107194,-0.0905134558737926,-0.015));
#1015=CARTESIAN_POINT('',(0.177648172107194,-0.0905134558737928,-0.02));
#1016=CARTESIAN_POINT('',(-0.00563999999999998,-0.095920745947575,-0.03));
#1017=CARTESIAN_POINT('',(-0.00563999999999998,-0.095920745947575,0.01));
#1018=CARTESIAN_POINT('',(-0.00149663807198117,-0.102602899570955,-0.03));
#1019=CARTESIAN_POINT('',(-0.00149663807198117,-0.102602899570955,0.00999999999999999));
#1020=CARTESIAN_POINT('',(0.0104389609268275,-0.115475694006802,-0.03));
#1021=CARTESIAN_POINT('',(0.0104389609268275,-0.115475694006802,0.00999999999999999));
#1022=CARTESIAN_POINT('',(0.0371767333106778,-0.131034536629122,-0.03));
#1023=CARTESIAN_POINT('',(0.0371767333106778,-0.131034536629122,0.01));
#1024=CARTESIAN_POINT('',(0.0695867704797511,-0.141001795532624,-0.03));
#1025=CARTESIAN_POINT('',(0.0695867704797511,-0.141001795532624,0.01));
#1026=CARTESIAN_POINT('',(0.103837845367338,-0.144199632738117,-0.03));
#1027=CARTESIAN_POINT('',(0.103837845367338,-0.144199632738117,0.00999999999999999));
#1028=CARTESIAN_POINT('',(0.135880690779813,-0.140249864432493,-0.03));
#1029=CARTESIAN_POINT('',(0.135880690779813,-0.140249864432493,0.01));
#1030=CARTESIAN_POINT('',(0.161927202745818,-0.12961947055131,-0.03));
#1031=CARTESIAN_POINT('',(0.161927202745818,-0.12961947055131,0.01));
#1032=CARTESIAN_POINT('',(0.178898139640519,-0.113565173644099,-0.03));
#1033=CARTESIAN_POINT('',(0.178898139640519,-0.113565173644099,0.00999999999999998));
#1034=CARTESIAN_POINT('',(0.184787187828255,-0.0939849257131961,-0.03));
#1035=CARTESIAN_POINT('',(0.184787187828255,-0.0939849257131961,0.01));
#1036=CARTESIAN_POINT('',(0.178898139640519,-0.0731935159463786,-0.03));
#1037=CARTESIAN_POINT('',(0.178898139640519,-0.0731935159463786,0.00999999999999999));
#1038=CARTESIAN_POINT('',(0.161927202745817,-0.0536489179868892,-0.03));
#1039=CARTESIAN_POINT('',(0.161927202745817,-0.0536489179868892,0.01));
#1040=CARTESIAN_POINT('',(0.135880690779814,-0.0376617091763255,-0.03));
#1041=CARTESIAN_POINT('',(0.135880690779814,-0.0376617091763255,0.01));
#1042=CARTESIAN_POINT('',(0.103837845367337,-0.0271218994513572,-0.03));
#1043=CARTESIAN_POINT('',(0.103837845367337,-0.0271218994513572,0.00999999999999999));
#1044=CARTESIAN_POINT('',(0.0695867704797513,-0.0232755431946076,-0.03));
#1045=CARTESIAN_POINT('',(0.0695867704797513,-0.0232755431946076,0.01));
#1046=CARTESIAN_POINT('',(0.0371767333106772,-0.0265772427634973,-0.03));
#1047=CARTESIAN_POINT('',(0.0371767333106772,-0.0265772427634973,0.00999999999999999));
#1048=CARTESIAN_POINT('',(0.0104389609268273,-0.0366371034695,-0.03));
#1049=CARTESIAN_POINT('',(0.0104389609268273,-0.0366371034695,0.01));
#1050=CARTESIAN_POINT('',(-0.00149663807198113,-0.047055181704139,-0.03));
#1051=CARTESIAN_POINT('',(-0.00149663807198113,-0.047055181704139,0.01));
#1052=CARTESIAN_POINT('',(-0.00563999999999994,-0.0528851973113876,-0.03));
#1053=CARTESIAN_POINT('',(-0.00563999999999994,-0.0528851973113876,0.01));
#1054=CARTESIAN_POINT('',(-0.00564,-0.0528851973113876,-0.02));
#1055=CARTESIAN_POINT('',(-0.00564,-0.0528851973113876,0.01));
#1056=CARTESIAN_POINT('',(-0.00564,-0.0528851973113876,-0.03));
#1057=CARTESIAN_POINT('',(0.0851591126763599,-0.08374,0.01));
#1058=CARTESIAN_POINT('',(-0.00564,-0.095920745947575,0.01));
#1059=CARTESIAN_POINT('',(-0.00564,-0.095920745947575,-0.02));
#1060=CARTESIAN_POINT('',(-0.00564,-0.095920745947575,-0.03));
#1061=CARTESIAN_POINT('',(0.0851591126763599,-0.08374,-0.03));
#1062=CARTESIAN_POINT('',(0.0851591126763599,-0.08374,-0.025));
#1063=CARTESIAN_POINT('',(0.182672556610104,-0.0905134558737928,-0.025));
#1064=CARTESIAN_POINT('',(0.179477734911403,-0.078276955141679,-0.025));
#1065=CARTESIAN_POINT('',(0.182672556610104,-0.0905134558737928,-0.02));
#1066=CARTESIAN_POINT('',(0.182672556610104,-0.0905134558737928,-0.015));
#1067=CARTESIAN_POINT('',(0.0851591126763599,-0.08374,-0.015));
#1068=CARTESIAN_POINT('',(0.179477734911403,-0.078276955141679,-0.015));
#1069=CARTESIAN_POINT('',(0.179477734911403,-0.078276955141679,-0.02));
#1070=CARTESIAN_POINT('',(0.0851591126763599,-0.08374,0.01));
#1071=CARTESIAN_POINT('',(-0.00564,-0.08374,0.01));
#1072=CARTESIAN_POINT('',(-0.00564,-0.08374,0.01));
#1073=CARTESIAN_POINT('',(0.0851591126763599,-0.08374,-0.03));
#1074=CARTESIAN_POINT('',(-0.00564,-0.08374,-0.03));
#1075=CARTESIAN_POINT('',(-0.00564,-0.08374,-0.03));
#1076=CARTESIAN_POINT('',(0.169360306325231,-0.0905134558737928,-0.02));
#1077=CARTESIAN_POINT('',(0.0924087326965014,-0.0905134558737928,-0.015));
#1078=CARTESIAN_POINT('',(0.0924087326965014,-0.0905134558737928,-0.025));
#1079=CARTESIAN_POINT('',(0.169360306325231,-0.078276955141679,-0.02));
#1080=CARTESIAN_POINT('',(0.0924087326965014,-0.078276955141679,-0.025));
#1081=CARTESIAN_POINT('',(0.0924087326965014,-0.078276955141679,-0.015));
#1082=CARTESIAN_POINT('',(0.0924087326965014,-0.08374,-0.025));
#1083=CARTESIAN_POINT('',(0.0924087326965014,-0.08374,-0.015));
#1084=CARTESIAN_POINT('',(-0.00564,-0.0842415774387694,-0.0214271345428955));
#1085=CARTESIAN_POINT('',(-0.00564,-0.0842415774387694,-0.0214271345428955));
#1086=MECHANICAL_DESIGN_GEOMETRIC_PRESENTATION_REPRESENTATION('',(#185),
#1087);
#1087=(
GEOMETRIC_REPRESENTATION_CONTEXT(3)
GLOBAL_UNCERTAINTY_ASSIGNED_CONTEXT((#1088))
GLOBAL_UNIT_ASSIGNED_CONTEXT((#1091,#1090,#1089))
REPRESENTATION_CONTEXT('Part 96','TOP_LEVEL_ASSEMBLY_PART')
);
#1088=UNCERTAINTY_MEASURE_WITH_UNIT(LENGTH_MEASURE(2.E-5),#1091,
'DISTANCE_ACCURACY_VALUE','Maximum Tolerance applied to model');
#1089=(
NAMED_UNIT(*)
SI_UNIT($,.STERADIAN.)
SOLID_ANGLE_UNIT()
);
#1090=(
NAMED_UNIT(*)
PLANE_ANGLE_UNIT()
SI_UNIT($,.RADIAN.)
);
#1091=(
LENGTH_UNIT()
NAMED_UNIT(*)
SI_UNIT($,.METRE.)
);
#1092=PRODUCT_DEFINITION_SHAPE('','',#1093);
#1093=PRODUCT_DEFINITION('','',#1095,#1094);
#1094=PRODUCT_DEFINITION_CONTEXT('',#1101,'design');
#1095=PRODUCT_DEFINITION_FORMATION_WITH_SPECIFIED_SOURCE('','',#1097,
 .NOT_KNOWN.);
#1096=PRODUCT_RELATED_PRODUCT_CATEGORY('','',(#1097));
#1097=PRODUCT('Part 96','Part 96','Part 96',(#1099));
#1098=PRODUCT_CATEGORY('','');
#1099=PRODUCT_CONTEXT('',#1101,'mechanical');
#1100=APPLICATION_PROTOCOL_DEFINITION('international standard',
'ap242_managed_model_based_3d_engineering',2020,#1101);
#1101=APPLICATION_CONTEXT('managed model based 3d engineering');
ENDSEC;
END-ISO-10303-21;
