ISO-10303-21;
HEADER;
/* Generated by software containing ST-Developer
 * from STEP Tools, Inc. (www.steptools.com) 
 */
/* OPTION: using custom renumber hook */

FILE_DESCRIPTION(
/* description */ ('STEP AP242 Edition 2',
'CAx-IF Rec.Pracs.---Representation and Presentation of Product Manufa
cturing Information (PMI)---4.0---2014-10-13',
'CAx-IF Rec.Pracs.---3D Tessellated Geometry---0.4---2014-09-14','2;1',
'CAx-IF Rec.Pracs.---User Defined Attributes---1.5---2016-08-15'),
/* implementation_level */ '2;1');

FILE_NAME(
/* name */ 'Part Studio 1 - Part 19',
/* time_stamp */ '2026-06-18T16:33:49Z',
/* author */ (''),
/* organization */ (''),
/* preprocessor_version */ 'ST-DEVELOPER v20',
/* originating_system */ 'ONSHAPE BY PTC INC, 1.216',
/* authorisation */ '  ');

FILE_SCHEMA (('AP242_MANAGED_MODEL_BASED_3D_ENGINEERING_MIM_LF { 1 0 10303 442 3 1 4 }'));
ENDSEC;

DATA;
#10=SHAPE_REPRESENTATION_RELATIONSHIP('','',#383,#11);
#11=ADVANCED_BREP_SHAPE_REPRESENTATION('',(#381),#806);
#12=(
BOUNDED_SURFACE()
B_SPLINE_SURFACE(3,2,((#637,#638,#639),(#640,#641,#642),(#643,#644,#645),
(#646,#647,#648),(#649,#650,#651),(#652,#653,#654),(#655,#656,#657),(#658,
#659,#660),(#661,#662,#663),(#664,#665,#666),(#667,#668,#669),(#670,#671,
#672),(#673,#674,#675),(#676,#677,#678),(#679,#680,#681),(#682,#683,#684),
(#685,#686,#687),(#688,#689,#690),(#691,#692,#693),(#694,#695,#696),(#697,
#698,#699),(#700,#701,#702),(#703,#704,#705),(#706,#707,#708),(#709,#710,
#711),(#712,#713,#714),(#715,#716,#717),(#718,#719,#720),(#721,#722,#723),
(#724,#725,#726)),.UNSPECIFIED.,.F.,.F.,.F.)
B_SPLINE_SURFACE_WITH_KNOTS((4,1,1,1,1,1,1,1,1,1,1,1,1,1,1,1,1,1,1,1,1,
1,1,1,1,1,1,4),(3,3),(0.0391397245275559,0.0408350485674978,0.0425303726074398,
0.0459210206873236,0.0493116687672075,0.0510069928071495,0.0527023168470914,
0.0543976408870333,0.0560929649269753,0.0569406269469463,0.0573644579569317,
0.0577882889669172,0.0582121199769027,0.0586359509868882,0.0588478664918809,
0.0589538242443773,0.0590068031206255,0.0590597819968737,0.05916573974937,
0.0592716975018664,0.0594836130068592,0.0599074440168446,0.0603312750268301,
0.0611789370468011,0.0620265990667721,0.062874261086743,0.064569585126685,
0.0662649091666269),(0.,1.),.UNSPECIFIED.)
GEOMETRIC_REPRESENTATION_ITEM()
RATIONAL_B_SPLINE_SURFACE(((1.,0.707106781186548,1.),(1.,0.707106781186547,
1.),(1.,0.707106781186547,1.),(1.,0.707106781186548,1.),(1.,0.707106781186548,
1.),(1.,0.707106781186548,1.),(1.,0.707106781186547,1.),(1.,0.707106781186548,
1.),(1.,0.707106781186547,1.),(1.,0.707106781186548,1.),(1.,0.707106781186547,
1.),(1.,0.707106781186548,1.),(1.,0.707106781186548,1.),(1.,0.707106781186548,
1.),(1.,0.707106781186547,1.),(1.,0.707106781186548,1.),(1.,0.707106781186547,
1.),(1.,0.707106781186548,1.),(1.,0.707106781186547,1.),(1.,0.707106781186547,
1.),(1.,0.707106781186548,1.),(1.,0.707106781186547,1.),(1.,0.707106781186548,
1.),(1.,0.707106781186548,1.),(1.,0.707106781186547,1.),(1.,0.707106781186548,
1.),(1.,0.707106781186548,1.),(1.,0.707106781186548,1.),(1.,0.707106781186547,
1.),(1.,0.707106781186548,1.)))
REPRESENTATION_ITEM('')
SURFACE()
);
#13=(
BOUNDED_SURFACE()
B_SPLINE_SURFACE(3,2,((#727,#728,#729),(#730,#731,#732),(#733,#734,#735),
(#736,#737,#738),(#739,#740,#741),(#742,#743,#744),(#745,#746,#747),(#748,
#749,#750)),.UNSPECIFIED.,.F.,.F.,.F.)
B_SPLINE_SURFACE_WITH_KNOTS((4,1,1,1,1,4),(3,3),(0.0314559892045705,0.0342074122588622,
0.036958835313154,0.0424616814217376,0.0479645275303211,0.0534673736389047),
(0.,1.),.UNSPECIFIED.)
GEOMETRIC_REPRESENTATION_ITEM()
RATIONAL_B_SPLINE_SURFACE(((1.,0.707106781186548,1.),(1.,0.707106781186548,
1.),(1.,0.707106781186547,1.),(1.,0.707106781186548,1.),(1.,0.707106781186547,
1.),(1.,0.707106781186548,1.),(1.,0.707106781186548,1.),(1.,0.707106781186548,
1.)))
REPRESENTATION_ITEM('')
SURFACE()
);
#14=(
BOUNDED_SURFACE()
B_SPLINE_SURFACE(3,2,((#762,#763,#764),(#765,#766,#767),(#768,#769,#770),
(#771,#772,#773),(#774,#775,#776),(#777,#778,#779),(#780,#781,#782)),
 .UNSPECIFIED.,.F.,.F.,.F.)
B_SPLINE_SURFACE_WITH_KNOTS((4,1,1,1,4),(3,3),(0.0484244482312886,0.0502518728382017,
0.0520792974451148,0.0539067220520279,0.055734146658941),(0.,1.),
 .UNSPECIFIED.)
GEOMETRIC_REPRESENTATION_ITEM()
RATIONAL_B_SPLINE_SURFACE(((1.,0.716533560846472,1.),(1.,0.716533560778498,
1.),(1.,0.710542383953687,1.),(1.,0.687077467487038,1.),(1.,0.659171384678735,
1.),(1.,0.646087314310496,1.),(1.,0.642616504941006,1.)))
REPRESENTATION_ITEM('')
SURFACE()
);
#15=(
BOUNDED_SURFACE()
B_SPLINE_SURFACE(3,2,((#785,#786,#787),(#788,#789,#790),(#791,#792,#793),
(#794,#795,#796),(#797,#798,#799),(#800,#801,#802)),.UNSPECIFIED.,.F.,.F.,
 .F.)
B_SPLINE_SURFACE_WITH_KNOTS((4,1,1,4),(3,3),(0.0307802540492784,0.0336625784381295,
0.0351037406325551,0.0365449028269807),(0.,1.),.UNSPECIFIED.)
GEOMETRIC_REPRESENTATION_ITEM()
RATIONAL_B_SPLINE_SURFACE(((1.,0.776941011348061,1.),(1.,0.776941011141523,
1.),(1.,0.752447072972142,1.),(1.,0.693333558482435,1.),(1.,0.661831282169997,
1.),(1.,0.648007997207905,1.)))
REPRESENTATION_ITEM('')
SURFACE()
);
#16=PLANE('',#399);
#17=PLANE('',#402);
#18=B_SPLINE_SURFACE_WITH_KNOTS('',3,1,((#489,#490),(#491,#492),(#493,#494),
(#495,#496),(#497,#498),(#499,#500),(#501,#502)),
 .SURF_OF_LINEAR_EXTRUSION.,.F.,.F.,.F.,(4,1,1,1,4),(2,2),(0.627128497522787,
0.72034637314209,0.813564248761393,0.906782124380697,1.),(0.,1.),
 .UNSPECIFIED.);
#19=B_SPLINE_SURFACE_WITH_KNOTS('',3,1,((#570,#571),(#572,#573),(#574,#575),
(#576,#577)),.SURF_OF_LINEAR_EXTRUSION.,.F.,.F.,.F.,(4,4),(2,2),(0.0382486122495403,
0.243867559967545),(0.,1.),.PIECEWISE_BEZIER_KNOTS.);
#20=CIRCLE('',#386,0.0521781370254422);
#21=CIRCLE('',#387,0.0521781370254422);
#22=CIRCLE('',#389,0.0205156703004923);
#23=CIRCLE('',#390,0.0205156703004923);
#24=CIRCLE('',#392,0.0265194676445243);
#25=CIRCLE('',#394,0.0067787415519062);
#26=CIRCLE('',#396,0.0109251068515639);
#27=CIRCLE('',#398,0.00624592122557007);
#28=CIRCLE('',#400,0.002);
#29=CIRCLE('',#401,0.002);
#30=CIRCLE('',#403,0.002);
#31=CIRCLE('',#405,0.002);
#32=B_SPLINE_CURVE_WITH_KNOTS('',3,(#468,#469,#470,#471),.UNSPECIFIED.,
 .F.,.F.,(4,4),(0.,0.00251882524938287),.UNSPECIFIED.);
#33=B_SPLINE_CURVE_WITH_KNOTS('',3,(#475,#476,#477,#478,#479,#480,#481,
#482,#483,#484),.UNSPECIFIED.,.F.,.F.,(4,1,1,1,1,1,1,4),(0.,0.00307116879878361,
0.00614233759756722,0.00921350639635083,0.0122846751951344,0.015355843993918,
0.0184270127927017,0.0245693503902689),.UNSPECIFIED.);
#34=B_SPLINE_CURVE_WITH_KNOTS('',3,(#503,#504,#505,#506,#507,#508,#509),
 .UNSPECIFIED.,.F.,.F.,(4,1,1,1,4),(-6.00000000148949E-8,0.00727228838393781,
0.0145446367678756,0.0218169851518135,0.0290893335357513),.UNSPECIFIED.);
#35=B_SPLINE_CURVE_WITH_KNOTS('',3,(#513,#514,#515,#516,#517),
 .UNSPECIFIED.,.F.,.F.,(4,1,4),(0.627128497522787,0.678531376303358,1.),
 .UNSPECIFIED.);
#36=B_SPLINE_CURVE_WITH_KNOTS('',3,(#522,#523,#524,#525),.UNSPECIFIED.,
 .F.,.F.,(4,4),(0.,0.000654402939422768),.UNSPECIFIED.);
#37=B_SPLINE_CURVE_WITH_KNOTS('',3,(#530,#531,#532,#533,#534,#535,#536,
#537,#538,#539,#540,#541),.UNSPECIFIED.,.F.,.F.,(4,1,1,1,1,1,1,1,1,4),(0.,
0.00184956203485594,0.00369912406971188,0.00739824813942376,0.0110973722091356,
0.0147964962788475,0.0184956203485594,0.0221947444182713,0.0258938684879832,
0.029592992557695),.UNSPECIFIED.);
#38=B_SPLINE_CURVE_WITH_KNOTS('',3,(#543,#544,#545,#546,#547,#548,#549),
 .UNSPECIFIED.,.F.,.F.,(4,1,1,1,4),(0.,0.00283952011402696,0.00567904022805392,
0.00851856034208087,0.0113580804561078),.UNSPECIFIED.);
#39=B_SPLINE_CURVE_WITH_KNOTS('',3,(#551,#552,#553,#554,#555,#556),
 .UNSPECIFIED.,.F.,.F.,(4,1,1,4),(9.81307786677359E-18,0.00118613123273081,
0.0023722624654616,0.0047445249309232),.UNSPECIFIED.);
#40=B_SPLINE_CURVE_WITH_KNOTS('',3,(#562,#563,#564,#565),.UNSPECIFIED.,
 .F.,.F.,(4,4),(0.,0.00287195460823713),.UNSPECIFIED.);
#41=B_SPLINE_CURVE_WITH_KNOTS('',3,(#578,#579,#580,#581,#582,#583,#584),
 .UNSPECIFIED.,.F.,.F.,(4,1,1,1,4),(0.00132222767469876,0.00413892574605695,
0.00695562381741513,0.00977232188877331,0.0125890199601315),
 .UNSPECIFIED.);
#42=B_SPLINE_CURVE_WITH_KNOTS('',3,(#589,#590,#591,#592),.UNSPECIFIED.,
 .F.,.F.,(4,4),(0.,0.274759153282396),.PIECEWISE_BEZIER_KNOTS.);
#43=B_SPLINE_CURVE_WITH_KNOTS('',3,(#601,#602,#603,#604),.UNSPECIFIED.,
 .F.,.F.,(4,4),(0.,0.00196524288190396),.UNSPECIFIED.);
#44=B_SPLINE_CURVE_WITH_KNOTS('',3,(#608,#609,#610,#611,#612,#613,#614),
 .UNSPECIFIED.,.F.,.F.,(4,1,1,1,4),(0.,0.00174470432956095,0.00348940865912191,
0.00523411298868286,0.00697881731824382),.UNSPECIFIED.);
#45=B_SPLINE_CURVE_WITH_KNOTS('',3,(#616,#617,#618,#619,#620),
 .UNSPECIFIED.,.F.,.F.,(4,1,4),(0.00321585525341079,0.00538374554848416,
0.00755163584355753),.UNSPECIFIED.);
#46=B_SPLINE_CURVE_WITH_KNOTS('',3,(#626,#627,#628,#629,#630),
 .UNSPECIFIED.,.F.,.F.,(4,1,4),(0.,0.00416136117718533,0.00832272235437065),
 .UNSPECIFIED.);
#47=B_SPLINE_CURVE_WITH_KNOTS('',3,(#631,#632,#633,#634,#635,#636),
 .UNSPECIFIED.,.F.,.F.,(4,1,1,4),(0.,0.00285192231518057,0.00570384463036113,
0.0114076892607223),.UNSPECIFIED.);
#48=B_SPLINE_CURVE_WITH_KNOTS('',3,(#751,#752,#753,#754,#755,#756),
 .UNSPECIFIED.,.F.,.F.,(4,1,1,4),(7.88870149821963E-17,0.00455883474395091,
0.00683825211592633,0.00911766948790174),.UNSPECIFIED.);
#49=B_SPLINE_CURVE_WITH_KNOTS('',3,(#757,#758,#759,#760,#761),
 .UNSPECIFIED.,.F.,.F.,(4,1,4),(0.,0.00359678564946217,0.00719357129892433),
 .UNSPECIFIED.);
#50=ORIENTED_EDGE('',*,*,#130,.F.);
#51=ORIENTED_EDGE('',*,*,#131,.T.);
#52=ORIENTED_EDGE('',*,*,#132,.F.);
#53=ORIENTED_EDGE('',*,*,#133,.T.);
#54=ORIENTED_EDGE('',*,*,#134,.T.);
#55=ORIENTED_EDGE('',*,*,#135,.T.);
#56=ORIENTED_EDGE('',*,*,#134,.F.);
#57=ORIENTED_EDGE('',*,*,#136,.T.);
#58=ORIENTED_EDGE('',*,*,#137,.T.);
#59=ORIENTED_EDGE('',*,*,#138,.F.);
#60=ORIENTED_EDGE('',*,*,#139,.T.);
#61=ORIENTED_EDGE('',*,*,#140,.T.);
#62=ORIENTED_EDGE('',*,*,#141,.T.);
#63=ORIENTED_EDGE('',*,*,#142,.F.);
#64=ORIENTED_EDGE('',*,*,#137,.F.);
#65=ORIENTED_EDGE('',*,*,#143,.T.);
#66=ORIENTED_EDGE('',*,*,#144,.T.);
#67=ORIENTED_EDGE('',*,*,#145,.T.);
#68=ORIENTED_EDGE('',*,*,#146,.T.);
#69=ORIENTED_EDGE('',*,*,#147,.F.);
#70=ORIENTED_EDGE('',*,*,#141,.F.);
#71=ORIENTED_EDGE('',*,*,#148,.T.);
#72=ORIENTED_EDGE('',*,*,#149,.T.);
#73=ORIENTED_EDGE('',*,*,#150,.T.);
#74=ORIENTED_EDGE('',*,*,#146,.F.);
#75=ORIENTED_EDGE('',*,*,#151,.T.);
#76=ORIENTED_EDGE('',*,*,#152,.T.);
#77=ORIENTED_EDGE('',*,*,#153,.T.);
#78=ORIENTED_EDGE('',*,*,#154,.T.);
#79=ORIENTED_EDGE('',*,*,#155,.T.);
#80=ORIENTED_EDGE('',*,*,#156,.T.);
#81=ORIENTED_EDGE('',*,*,#157,.T.);
#82=ORIENTED_EDGE('',*,*,#158,.T.);
#83=ORIENTED_EDGE('',*,*,#158,.F.);
#84=ORIENTED_EDGE('',*,*,#159,.T.);
#85=ORIENTED_EDGE('',*,*,#160,.T.);
#86=ORIENTED_EDGE('',*,*,#130,.T.);
#87=ORIENTED_EDGE('',*,*,#161,.F.);
#88=ORIENTED_EDGE('',*,*,#153,.F.);
#89=ORIENTED_EDGE('',*,*,#162,.T.);
#90=ORIENTED_EDGE('',*,*,#155,.F.);
#91=ORIENTED_EDGE('',*,*,#161,.T.);
#92=ORIENTED_EDGE('',*,*,#135,.F.);
#93=ORIENTED_EDGE('',*,*,#138,.T.);
#94=ORIENTED_EDGE('',*,*,#142,.T.);
#95=ORIENTED_EDGE('',*,*,#147,.T.);
#96=ORIENTED_EDGE('',*,*,#150,.F.);
#97=ORIENTED_EDGE('',*,*,#163,.T.);
#98=ORIENTED_EDGE('',*,*,#132,.T.);
#99=ORIENTED_EDGE('',*,*,#164,.T.);
#100=ORIENTED_EDGE('',*,*,#139,.F.);
#101=ORIENTED_EDGE('',*,*,#165,.T.);
#102=ORIENTED_EDGE('',*,*,#133,.F.);
#103=ORIENTED_EDGE('',*,*,#165,.F.);
#104=ORIENTED_EDGE('',*,*,#143,.F.);
#105=ORIENTED_EDGE('',*,*,#136,.F.);
#106=ORIENTED_EDGE('',*,*,#160,.F.);
#107=ORIENTED_EDGE('',*,*,#166,.T.);
#108=ORIENTED_EDGE('',*,*,#151,.F.);
#109=ORIENTED_EDGE('',*,*,#167,.T.);
#110=ORIENTED_EDGE('',*,*,#144,.F.);
#111=ORIENTED_EDGE('',*,*,#140,.F.);
#112=ORIENTED_EDGE('',*,*,#164,.F.);
#113=ORIENTED_EDGE('',*,*,#131,.F.);
#114=ORIENTED_EDGE('',*,*,#159,.F.);
#115=ORIENTED_EDGE('',*,*,#157,.F.);
#116=ORIENTED_EDGE('',*,*,#168,.F.);
#117=ORIENTED_EDGE('',*,*,#166,.F.);
#118=ORIENTED_EDGE('',*,*,#168,.T.);
#119=ORIENTED_EDGE('',*,*,#156,.F.);
#120=ORIENTED_EDGE('',*,*,#162,.F.);
#121=ORIENTED_EDGE('',*,*,#152,.F.);
#122=ORIENTED_EDGE('',*,*,#145,.F.);
#123=ORIENTED_EDGE('',*,*,#167,.F.);
#124=ORIENTED_EDGE('',*,*,#169,.F.);
#125=ORIENTED_EDGE('',*,*,#148,.F.);
#126=ORIENTED_EDGE('',*,*,#169,.T.);
#127=ORIENTED_EDGE('',*,*,#154,.F.);
#128=ORIENTED_EDGE('',*,*,#163,.F.);
#129=ORIENTED_EDGE('',*,*,#149,.F.);
#130=EDGE_CURVE('',#170,#171,#196,.T.);
#131=EDGE_CURVE('',#170,#172,#32,.T.);
#132=EDGE_CURVE('',#173,#172,#20,.T.);
#133=EDGE_CURVE('',#173,#174,#33,.T.);
#134=EDGE_CURVE('',#174,#175,#197,.T.);
#135=EDGE_CURVE('',#175,#171,#21,.T.);
#136=EDGE_CURVE('',#174,#176,#34,.T.);
#137=EDGE_CURVE('',#176,#177,#198,.T.);
#138=EDGE_CURVE('',#175,#177,#35,.T.);
#139=EDGE_CURVE('',#178,#179,#22,.T.);
#140=EDGE_CURVE('',#179,#180,#36,.T.);
#141=EDGE_CURVE('',#180,#181,#199,.T.);
#142=EDGE_CURVE('',#177,#181,#23,.T.);
#143=EDGE_CURVE('',#176,#178,#37,.T.);
#144=EDGE_CURVE('',#180,#182,#38,.T.);
#145=EDGE_CURVE('',#182,#183,#39,.T.);
#146=EDGE_CURVE('',#183,#184,#200,.T.);
#147=EDGE_CURVE('',#181,#184,#24,.T.);
#148=EDGE_CURVE('',#183,#185,#40,.T.);
#149=EDGE_CURVE('',#185,#186,#201,.T.);
#150=EDGE_CURVE('',#186,#184,#25,.T.);
#151=EDGE_CURVE('',#187,#188,#41,.T.);
#152=EDGE_CURVE('',#188,#189,#202,.T.);
#153=EDGE_CURVE('',#189,#190,#42,.T.);
#154=EDGE_CURVE('',#190,#187,#203,.F.);
#155=EDGE_CURVE('',#191,#192,#26,.T.);
#156=EDGE_CURVE('',#192,#193,#204,.F.);
#157=EDGE_CURVE('',#193,#194,#43,.T.);
#158=EDGE_CURVE('',#194,#191,#205,.T.);
#159=EDGE_CURVE('',#194,#195,#44,.T.);
#160=EDGE_CURVE('',#195,#170,#45,.T.);
#161=EDGE_CURVE('',#191,#171,#27,.T.);
#162=EDGE_CURVE('',#189,#192,#28,.T.);
#163=EDGE_CURVE('',#186,#190,#29,.T.);
#164=EDGE_CURVE('',#172,#179,#46,.T.);
#165=EDGE_CURVE('',#178,#173,#47,.T.);
#166=EDGE_CURVE('',#195,#188,#48,.T.);
#167=EDGE_CURVE('',#187,#182,#49,.T.);
#168=EDGE_CURVE('',#188,#193,#30,.T.);
#169=EDGE_CURVE('',#185,#187,#31,.T.);
#170=VERTEX_POINT('',#466);
#171=VERTEX_POINT('',#467);
#172=VERTEX_POINT('',#472);
#173=VERTEX_POINT('',#474);
#174=VERTEX_POINT('',#485);
#175=VERTEX_POINT('',#487);
#176=VERTEX_POINT('',#510);
#177=VERTEX_POINT('',#512);
#178=VERTEX_POINT('',#520);
#179=VERTEX_POINT('',#521);
#180=VERTEX_POINT('',#526);
#181=VERTEX_POINT('',#528);
#182=VERTEX_POINT('',#550);
#183=VERTEX_POINT('',#557);
#184=VERTEX_POINT('',#559);
#185=VERTEX_POINT('',#566);
#186=VERTEX_POINT('',#568);
#187=VERTEX_POINT('',#585);
#188=VERTEX_POINT('',#586);
#189=VERTEX_POINT('',#588);
#190=VERTEX_POINT('',#593);
#191=VERTEX_POINT('',#597);
#192=VERTEX_POINT('',#598);
#193=VERTEX_POINT('',#600);
#194=VERTEX_POINT('',#605);
#195=VERTEX_POINT('',#615);
#196=LINE('',#465,#206);
#197=LINE('',#486,#207);
#198=LINE('',#511,#208);
#199=LINE('',#527,#209);
#200=LINE('',#558,#210);
#201=LINE('',#567,#211);
#202=LINE('',#587,#212);
#203=LINE('',#594,#213);
#204=LINE('',#599,#214);
#205=LINE('',#606,#215);
#206=VECTOR('',#411,1.);
#207=VECTOR('',#414,1.);
#208=VECTOR('',#417,1.);
#209=VECTOR('',#422,1.);
#210=VECTOR('',#427,1.);
#211=VECTOR('',#432,1.);
#212=VECTOR('',#435,1.);
#213=VECTOR('',#436,1.);
#214=VECTOR('',#441,1.);
#215=VECTOR('',#442,1.);
#216=EDGE_LOOP('',(#50,#51,#52,#53,#54,#55));
#217=EDGE_LOOP('',(#56,#57,#58,#59));
#218=EDGE_LOOP('',(#60,#61,#62,#63,#64,#65));
#219=EDGE_LOOP('',(#66,#67,#68,#69,#70));
#220=EDGE_LOOP('',(#71,#72,#73,#74));
#221=EDGE_LOOP('',(#75,#76,#77,#78));
#222=EDGE_LOOP('',(#79,#80,#81,#82));
#223=EDGE_LOOP('',(#83,#84,#85,#86,#87));
#224=EDGE_LOOP('',(#88,#89,#90,#91,#92,#93,#94,#95,#96,#97));
#225=EDGE_LOOP('',(#98,#99,#100,#101));
#226=EDGE_LOOP('',(#102,#103,#104,#105));
#227=EDGE_LOOP('',(#106,#107,#108,#109,#110,#111,#112,#113));
#228=EDGE_LOOP('',(#114,#115,#116,#117));
#229=EDGE_LOOP('',(#118,#119,#120,#121));
#230=EDGE_LOOP('',(#122,#123,#124,#125));
#231=EDGE_LOOP('',(#126,#127,#128,#129));
#232=FACE_BOUND('',#216,.T.);
#233=FACE_BOUND('',#217,.T.);
#234=FACE_BOUND('',#218,.T.);
#235=FACE_BOUND('',#219,.T.);
#236=FACE_BOUND('',#220,.T.);
#237=FACE_BOUND('',#221,.T.);
#238=FACE_BOUND('',#222,.T.);
#239=FACE_BOUND('',#223,.T.);
#240=FACE_BOUND('',#224,.T.);
#241=FACE_BOUND('',#225,.T.);
#242=FACE_BOUND('',#226,.T.);
#243=FACE_BOUND('',#227,.T.);
#244=FACE_BOUND('',#228,.T.);
#245=FACE_BOUND('',#229,.T.);
#246=FACE_BOUND('',#230,.T.);
#247=FACE_BOUND('',#231,.T.);
#248=CYLINDRICAL_SURFACE('',#385,0.0521781370254422);
#249=CYLINDRICAL_SURFACE('',#388,0.0205156703004923);
#250=CYLINDRICAL_SURFACE('',#391,0.0265194676445243);
#251=CYLINDRICAL_SURFACE('',#393,0.0067787415519062);
#252=CYLINDRICAL_SURFACE('',#395,0.0109251068515639);
#253=CYLINDRICAL_SURFACE('',#397,0.00624592122557007);
#254=CYLINDRICAL_SURFACE('',#404,0.002);
#255=CYLINDRICAL_SURFACE('',#406,0.002);
#256=OVER_RIDING_STYLED_ITEM('',(#289),#270,#287);
#257=OVER_RIDING_STYLED_ITEM('',(#290),#271,#287);
#258=OVER_RIDING_STYLED_ITEM('',(#291),#272,#287);
#259=OVER_RIDING_STYLED_ITEM('',(#292),#273,#287);
#260=OVER_RIDING_STYLED_ITEM('',(#293),#274,#287);
#261=OVER_RIDING_STYLED_ITEM('',(#294),#275,#287);
#262=OVER_RIDING_STYLED_ITEM('',(#295),#276,#287);
#263=OVER_RIDING_STYLED_ITEM('',(#296),#277,#287);
#264=OVER_RIDING_STYLED_ITEM('',(#297),#278,#287);
#265=OVER_RIDING_STYLED_ITEM('',(#298),#279,#287);
#266=OVER_RIDING_STYLED_ITEM('',(#299),#282,#287);
#267=OVER_RIDING_STYLED_ITEM('',(#300),#283,#287);
#268=OVER_RIDING_STYLED_ITEM('',(#301),#284,#287);
#269=OVER_RIDING_STYLED_ITEM('',(#302),#285,#287);
#270=ADVANCED_FACE('Face appearance 14',(#232),#248,.T.);
#271=ADVANCED_FACE('Face appearance 14',(#233),#18,.T.);
#272=ADVANCED_FACE('Face appearance 14',(#234),#249,.F.);
#273=ADVANCED_FACE('Face appearance 14',(#235),#250,.F.);
#274=ADVANCED_FACE('Face appearance 14',(#236),#251,.T.);
#275=ADVANCED_FACE('Face appearance 14',(#237),#19,.F.);
#276=ADVANCED_FACE('Face appearance 14',(#238),#252,.T.);
#277=ADVANCED_FACE('Face appearance 14',(#239),#253,.F.);
#278=ADVANCED_FACE('Face appearance 14',(#240),#16,.T.);
#279=ADVANCED_FACE('Face appearance 14',(#241),#17,.F.);
#280=ADVANCED_FACE('',(#242),#12,.T.);
#281=ADVANCED_FACE('Face appearance 18',(#243),#13,.T.);
#282=ADVANCED_FACE('Face appearance 19',(#244),#14,.T.);
#283=ADVANCED_FACE('Face appearance 19',(#245),#254,.T.);
#284=ADVANCED_FACE('Face appearance 19',(#246),#15,.T.);
#285=ADVANCED_FACE('Face appearance 19',(#247),#255,.T.);
#286=CLOSED_SHELL('',(#270,#271,#272,#273,#274,#275,#276,#277,#278,#279,
#280,#281,#282,#283,#284,#285));
#287=STYLED_ITEM('',(#288),#381);
#288=PRESENTATION_STYLE_ASSIGNMENT((#303));
#289=PRESENTATION_STYLE_ASSIGNMENT((#304));
#290=PRESENTATION_STYLE_ASSIGNMENT((#305));
#291=PRESENTATION_STYLE_ASSIGNMENT((#306));
#292=PRESENTATION_STYLE_ASSIGNMENT((#307));
#293=PRESENTATION_STYLE_ASSIGNMENT((#308));
#294=PRESENTATION_STYLE_ASSIGNMENT((#309));
#295=PRESENTATION_STYLE_ASSIGNMENT((#310));
#296=PRESENTATION_STYLE_ASSIGNMENT((#311));
#297=PRESENTATION_STYLE_ASSIGNMENT((#312));
#298=PRESENTATION_STYLE_ASSIGNMENT((#313));
#299=PRESENTATION_STYLE_ASSIGNMENT((#314));
#300=PRESENTATION_STYLE_ASSIGNMENT((#315));
#301=PRESENTATION_STYLE_ASSIGNMENT((#316));
#302=PRESENTATION_STYLE_ASSIGNMENT((#317));
#303=SURFACE_STYLE_USAGE(.BOTH.,#318);
#304=SURFACE_STYLE_USAGE(.BOTH.,#319);
#305=SURFACE_STYLE_USAGE(.BOTH.,#320);
#306=SURFACE_STYLE_USAGE(.BOTH.,#321);
#307=SURFACE_STYLE_USAGE(.BOTH.,#322);
#308=SURFACE_STYLE_USAGE(.BOTH.,#323);
#309=SURFACE_STYLE_USAGE(.BOTH.,#324);
#310=SURFACE_STYLE_USAGE(.BOTH.,#325);
#311=SURFACE_STYLE_USAGE(.BOTH.,#326);
#312=SURFACE_STYLE_USAGE(.BOTH.,#327);
#313=SURFACE_STYLE_USAGE(.BOTH.,#328);
#314=SURFACE_STYLE_USAGE(.BOTH.,#329);
#315=SURFACE_STYLE_USAGE(.BOTH.,#330);
#316=SURFACE_STYLE_USAGE(.BOTH.,#331);
#317=SURFACE_STYLE_USAGE(.BOTH.,#332);
#318=SURFACE_SIDE_STYLE('',(#333));
#319=SURFACE_SIDE_STYLE('',(#334));
#320=SURFACE_SIDE_STYLE('',(#335));
#321=SURFACE_SIDE_STYLE('',(#336));
#322=SURFACE_SIDE_STYLE('',(#337));
#323=SURFACE_SIDE_STYLE('',(#338));
#324=SURFACE_SIDE_STYLE('',(#339));
#325=SURFACE_SIDE_STYLE('',(#340));
#326=SURFACE_SIDE_STYLE('',(#341));
#327=SURFACE_SIDE_STYLE('',(#342));
#328=SURFACE_SIDE_STYLE('',(#343));
#329=SURFACE_SIDE_STYLE('',(#344));
#330=SURFACE_SIDE_STYLE('',(#345));
#331=SURFACE_SIDE_STYLE('',(#346));
#332=SURFACE_SIDE_STYLE('',(#347));
#333=SURFACE_STYLE_FILL_AREA(#348);
#334=SURFACE_STYLE_FILL_AREA(#349);
#335=SURFACE_STYLE_FILL_AREA(#350);
#336=SURFACE_STYLE_FILL_AREA(#351);
#337=SURFACE_STYLE_FILL_AREA(#352);
#338=SURFACE_STYLE_FILL_AREA(#353);
#339=SURFACE_STYLE_FILL_AREA(#354);
#340=SURFACE_STYLE_FILL_AREA(#355);
#341=SURFACE_STYLE_FILL_AREA(#356);
#342=SURFACE_STYLE_FILL_AREA(#357);
#343=SURFACE_STYLE_FILL_AREA(#358);
#344=SURFACE_STYLE_FILL_AREA(#359);
#345=SURFACE_STYLE_FILL_AREA(#360);
#346=SURFACE_STYLE_FILL_AREA(#361);
#347=SURFACE_STYLE_FILL_AREA(#362);
#348=FILL_AREA_STYLE('',(#363));
#349=FILL_AREA_STYLE('',(#364));
#350=FILL_AREA_STYLE('',(#365));
#351=FILL_AREA_STYLE('',(#366));
#352=FILL_AREA_STYLE('',(#367));
#353=FILL_AREA_STYLE('',(#368));
#354=FILL_AREA_STYLE('',(#369));
#355=FILL_AREA_STYLE('',(#370));
#356=FILL_AREA_STYLE('',(#371));
#357=FILL_AREA_STYLE('',(#372));
#358=FILL_AREA_STYLE('',(#373));
#359=FILL_AREA_STYLE('',(#374));
#360=FILL_AREA_STYLE('',(#375));
#361=FILL_AREA_STYLE('',(#376));
#362=FILL_AREA_STYLE('',(#377));
#363=FILL_AREA_STYLE_COLOUR('',#378);
#364=FILL_AREA_STYLE_COLOUR('',#379);
#365=FILL_AREA_STYLE_COLOUR('',#379);
#366=FILL_AREA_STYLE_COLOUR('',#379);
#367=FILL_AREA_STYLE_COLOUR('',#379);
#368=FILL_AREA_STYLE_COLOUR('',#379);
#369=FILL_AREA_STYLE_COLOUR('',#379);
#370=FILL_AREA_STYLE_COLOUR('',#379);
#371=FILL_AREA_STYLE_COLOUR('',#379);
#372=FILL_AREA_STYLE_COLOUR('',#379);
#373=FILL_AREA_STYLE_COLOUR('',#379);
#374=FILL_AREA_STYLE_COLOUR('',#380);
#375=FILL_AREA_STYLE_COLOUR('',#380);
#376=FILL_AREA_STYLE_COLOUR('',#380);
#377=FILL_AREA_STYLE_COLOUR('',#380);
#378=COLOUR_RGB('',0.223529411764706,0.12156862745098,0.0941176470588235);
#379=COLOUR_RGB('',0.243137254901961,0.133333333333333,0.133333333333333);
#380=COLOUR_RGB('',0.450980392156863,0.215686274509804,0.145098039215686);
#381=MANIFOLD_SOLID_BREP('Part 19',#286);
#382=SHAPE_DEFINITION_REPRESENTATION(#811,#383);
#383=SHAPE_REPRESENTATION('Part 19',(#384),#806);
#384=AXIS2_PLACEMENT_3D('',#463,#407,#408);
#385=AXIS2_PLACEMENT_3D('',#464,#409,#410);
#386=AXIS2_PLACEMENT_3D('',#473,#412,#413);
#387=AXIS2_PLACEMENT_3D('',#488,#415,#416);
#388=AXIS2_PLACEMENT_3D('',#518,#418,#419);
#389=AXIS2_PLACEMENT_3D('',#519,#420,#421);
#390=AXIS2_PLACEMENT_3D('',#529,#423,#424);
#391=AXIS2_PLACEMENT_3D('',#542,#425,#426);
#392=AXIS2_PLACEMENT_3D('',#560,#428,#429);
#393=AXIS2_PLACEMENT_3D('',#561,#430,#431);
#394=AXIS2_PLACEMENT_3D('',#569,#433,#434);
#395=AXIS2_PLACEMENT_3D('',#595,#437,#438);
#396=AXIS2_PLACEMENT_3D('',#596,#439,#440);
#397=AXIS2_PLACEMENT_3D('',#607,#443,#444);
#398=AXIS2_PLACEMENT_3D('',#621,#445,#446);
#399=AXIS2_PLACEMENT_3D('',#622,#447,#448);
#400=AXIS2_PLACEMENT_3D('',#623,#449,#450);
#401=AXIS2_PLACEMENT_3D('',#624,#451,#452);
#402=AXIS2_PLACEMENT_3D('',#625,#453,#454);
#403=AXIS2_PLACEMENT_3D('',#783,#455,#456);
#404=AXIS2_PLACEMENT_3D('',#784,#457,#458);
#405=AXIS2_PLACEMENT_3D('',#803,#459,#460);
#406=AXIS2_PLACEMENT_3D('',#804,#461,#462);
#407=DIRECTION('',(0.,0.,1.));
#408=DIRECTION('',(1.,0.,0.));
#409=DIRECTION('',(1.,0.,0.));
#410=DIRECTION('',(0.,0.,-1.));
#411=DIRECTION('',(1.,0.,0.));
#412=DIRECTION('',(-1.,0.,0.));
#413=DIRECTION('',(0.,0.,1.));
#414=DIRECTION('',(1.,0.,0.));
#415=DIRECTION('',(-1.,0.,0.));
#416=DIRECTION('',(0.,0.,-1.));
#417=DIRECTION('',(1.,0.,0.));
#418=DIRECTION('',(1.,0.,0.));
#419=DIRECTION('',(0.,0.,-1.));
#420=DIRECTION('',(-1.,0.,0.));
#421=DIRECTION('',(0.,0.,1.));
#422=DIRECTION('',(1.,0.,0.));
#423=DIRECTION('',(-1.,0.,0.));
#424=DIRECTION('',(0.,0.,-1.));
#425=DIRECTION('',(1.,0.,0.));
#426=DIRECTION('',(0.,0.,-1.));
#427=DIRECTION('',(1.,0.,0.));
#428=DIRECTION('',(-1.,0.,0.));
#429=DIRECTION('',(0.,0.,-1.));
#430=DIRECTION('',(1.,0.,0.));
#431=DIRECTION('',(0.,0.,-1.));
#432=DIRECTION('',(1.,0.,0.));
#433=DIRECTION('',(-1.,0.,0.));
#434=DIRECTION('',(0.,0.,-1.));
#435=DIRECTION('',(1.,0.,0.));
#436=DIRECTION('',(1.,0.,0.));
#437=DIRECTION('',(1.,0.,0.));
#438=DIRECTION('',(0.,0.,-1.));
#439=DIRECTION('',(-1.,0.,0.));
#440=DIRECTION('',(0.,0.,-1.));
#441=DIRECTION('',(1.,0.,0.));
#442=DIRECTION('',(1.,0.,0.));
#443=DIRECTION('',(1.,0.,0.));
#444=DIRECTION('',(0.,0.,-1.));
#445=DIRECTION('',(-1.,0.,0.));
#446=DIRECTION('',(0.,0.,-1.));
#447=DIRECTION('',(1.,0.,0.));
#448=DIRECTION('',(0.,1.,0.));
#449=DIRECTION('',(1.,0.,0.));
#450=DIRECTION('',(0.,0.,-1.));
#451=DIRECTION('',(1.,0.,0.));
#452=DIRECTION('',(0.,0.,-1.));
#453=DIRECTION('',(1.,0.,0.));
#454=DIRECTION('',(0.,1.,0.));
#455=DIRECTION('',(1.,0.,0.));
#456=DIRECTION('',(0.,0.,-1.));
#457=DIRECTION('',(1.,0.,0.));
#458=DIRECTION('',(0.,0.,-1.));
#459=DIRECTION('',(1.,-4.67420758761135E-15,5.33492987520501E-15));
#460=DIRECTION('',(5.33492987520501E-15,0.,-1.));
#461=DIRECTION('',(1.,0.,0.));
#462=DIRECTION('',(0.,0.,-1.));
#463=CARTESIAN_POINT('',(0.,0.,0.));
#464=CARTESIAN_POINT('',(-0.00564,-0.093110408904102,0.017292559729695));
#465=CARTESIAN_POINT('',(-0.00564,-0.0482849813305031,-0.00941397554333993));
#466=CARTESIAN_POINT('',(-0.0803267068966655,-0.0482849813305031,-0.00941397554333993));
#467=CARTESIAN_POINT('',(-0.00564,-0.0482849813305031,-0.00941397554333993));
#468=CARTESIAN_POINT('',(-0.0803267068966655,-0.0482849813305031,-0.00941397554333993));
#469=CARTESIAN_POINT('',(-0.0805348321549749,-0.0478651110971573,-0.00870924681148691));
#470=CARTESIAN_POINT('',(-0.08064,-0.0474554718481593,-0.00798393402027626));
#471=CARTESIAN_POINT('',(-0.08064,-0.0470575608142303,-0.00723687496124357));
#472=CARTESIAN_POINT('',(-0.08064,-0.0470575608142303,-0.00723687496124357));
#473=CARTESIAN_POINT('',(-0.08064,-0.093110408904102,0.017292559729695));
#474=CARTESIAN_POINT('',(-0.08064,-0.0453150195513056,-0.00363968190994825));
#475=CARTESIAN_POINT('',(-0.08064,-0.0453150195513056,-0.00363968190994825));
#476=CARTESIAN_POINT('',(-0.08064,-0.0448980404342615,-0.00268757751548323));
#477=CARTESIAN_POINT('',(-0.0804453620005285,-0.0441369924188298,-0.000797484845303544));
#478=CARTESIAN_POINT('',(-0.0795974805646672,-0.0431806079519067,0.00204845318406092));
#479=CARTESIAN_POINT('',(-0.0782630699639346,-0.042445087614704,0.00472437429772632));
#480=CARTESIAN_POINT('',(-0.0764478803055258,-0.0418977986680803,0.00720913359448894));
#481=CARTESIAN_POINT('',(-0.0742563466753762,-0.0415323598428415,0.00932180832298945));
#482=CARTESIAN_POINT('',(-0.0707793978724651,-0.0412271505436007,0.0116006069932357));
#483=CARTESIAN_POINT('',(-0.0677231338311674,-0.0411620708814006,0.0124009178657634));
#484=CARTESIAN_POINT('',(-0.06564,-0.0411620708814006,0.0124009178657634));
#485=CARTESIAN_POINT('',(-0.06564,-0.0411620708814006,0.0124009178657634));
#486=CARTESIAN_POINT('',(-0.00564,-0.0411620708814006,0.0124009178657634));
#487=CARTESIAN_POINT('',(-0.00564,-0.0411620708814006,0.0124009178657634));
#488=CARTESIAN_POINT('',(-0.00564,-0.093110408904102,0.017292559729695));
#489=CARTESIAN_POINT('',(-0.06564,-0.0411620708814006,0.0124009178657634));
#490=CARTESIAN_POINT('',(-0.00564,-0.0411620708814006,0.0124009178657634));
#491=CARTESIAN_POINT('',(-0.06564,-0.0431145393584126,0.0140192685572683));
#492=CARTESIAN_POINT('',(-0.00564,-0.0431145393584126,0.0140192685572683));
#493=CARTESIAN_POINT('',(-0.06564,-0.0472858194211135,0.0166369925157642));
#494=CARTESIAN_POINT('',(-0.00563999999999999,-0.0472858194211135,0.0166369925157642));
#495=CARTESIAN_POINT('',(-0.06564,-0.0541255898886891,0.0187300364309369));
#496=CARTESIAN_POINT('',(-0.00564000000000001,-0.0541255898886891,0.0187300364309369));
#497=CARTESIAN_POINT('',(-0.06564,-0.0613347347470969,0.0196951758939207));
#498=CARTESIAN_POINT('',(-0.00564,-0.0613347347470969,0.0196951758939207));
#499=CARTESIAN_POINT('',(-0.06564,-0.0662444269831218,0.0199721287938462));
#500=CARTESIAN_POINT('',(-0.00564,-0.0662444269831218,0.0199721287938462));
#501=CARTESIAN_POINT('',(-0.06564,-0.0686895325779915,0.0201214213401079));
#502=CARTESIAN_POINT('',(-0.00564,-0.0686895325779915,0.0201214213401079));
#503=CARTESIAN_POINT('',(-0.06564,-0.0411620708814006,0.0124009178657634));
#504=CARTESIAN_POINT('',(-0.06564,-0.0430284163897872,0.0139478805173016));
#505=CARTESIAN_POINT('',(-0.06564,-0.0471718008726878,0.016599801614128));
#506=CARTESIAN_POINT('',(-0.06564,-0.0541709781859703,0.0187461064455633));
#507=CARTESIAN_POINT('',(-0.06564,-0.0614092633608494,0.0196990919649247));
#508=CARTESIAN_POINT('',(-0.06564,-0.0662629019590831,0.019973256833555));
#509=CARTESIAN_POINT('',(-0.06564,-0.0686895325779915,0.0201214213401079));
#510=CARTESIAN_POINT('',(-0.06564,-0.0686895325779915,0.0201214213401079));
#511=CARTESIAN_POINT('',(-0.00564,-0.0686895325779915,0.0201214213401079));
#512=CARTESIAN_POINT('',(-0.00564,-0.0686895325779915,0.0201214213401079));
#513=CARTESIAN_POINT('',(-0.00564,-0.0411620708814006,0.0124009178657634));
#514=CARTESIAN_POINT('',(-0.00564,-0.0422387152457992,0.0132933205714377));
#515=CARTESIAN_POINT('',(-0.00564,-0.0503425944766003,0.0191516291834708));
#516=CARTESIAN_POINT('',(-0.00564,-0.0602574081045073,0.0196065751364578));
#517=CARTESIAN_POINT('',(-0.00564,-0.0686895325779915,0.0201214213401079));
#518=CARTESIAN_POINT('',(-0.00564,-0.0747225711402834,0.00051287285776477));
#519=CARTESIAN_POINT('',(-0.08064,-0.0747225711402834,0.00051287285776477));
#520=CARTESIAN_POINT('',(-0.08064,-0.0543582127465369,0.00299996656117629));
#521=CARTESIAN_POINT('',(-0.08064,-0.0550935274632318,-0.00545314526179395));
#522=CARTESIAN_POINT('',(-0.08064,-0.0550935274632318,-0.00545314526179395));
#523=CARTESIAN_POINT('',(-0.08064,-0.0551569990359239,-0.00566197571581825));
#524=CARTESIAN_POINT('',(-0.0806332907537753,-0.0552237267080981,-0.00586954495092887));
#525=CARTESIAN_POINT('',(-0.0806200837117037,-0.0552936941385269,-0.00607586498260498));
#526=CARTESIAN_POINT('',(-0.0806200837117037,-0.0552936941385269,-0.00607586498260498));
#527=CARTESIAN_POINT('',(-0.00564,-0.0552936941385269,-0.00607586498260498));
#528=CARTESIAN_POINT('',(-0.00564,-0.0552936941385269,-0.00607586498260498));
#529=CARTESIAN_POINT('',(-0.00564,-0.0747225711402834,0.00051287285776477));
#530=CARTESIAN_POINT('',(-0.06564,-0.0686895325779915,0.0201214213401079));
#531=CARTESIAN_POINT('',(-0.0662678207900623,-0.0686895325779915,0.0201214213401079));
#532=CARTESIAN_POINT('',(-0.0674766649826054,-0.0683518813505173,0.0200199913895757));
#533=CARTESIAN_POINT('',(-0.0695465102417168,-0.067043111837579,0.0195635185397207));
#534=CARTESIAN_POINT('',(-0.0717405862928645,-0.0650804790085145,0.0186906568091301));
#535=CARTESIAN_POINT('',(-0.0741131967785785,-0.0626603245555533,0.0171937177306036));
#536=CARTESIAN_POINT('',(-0.0762043651153934,-0.0603418003418716,0.0152556656133527));
#537=CARTESIAN_POINT('',(-0.0780158499799749,-0.0582035341816872,0.0128277611507454));
#538=CARTESIAN_POINT('',(-0.0794445403951992,-0.0563949759701428,0.00995273575013834));
#539=CARTESIAN_POINT('',(-0.0804064029439537,-0.0550219588246485,0.00661068571999988));
#540=CARTESIAN_POINT('',(-0.08064,-0.0545089179909754,0.00423394323256297));
#541=CARTESIAN_POINT('',(-0.08064,-0.0543582127465369,0.0029999665611763));
#542=CARTESIAN_POINT('',(-0.00564,-0.0785210989415646,0.00672139371856988));
#543=CARTESIAN_POINT('',(-0.0806200837117037,-0.0552936941385269,-0.00607586498260498));
#544=CARTESIAN_POINT('',(-0.0805656509528485,-0.0557583196027727,-0.00691917400618869));
#545=CARTESIAN_POINT('',(-0.0802454406518604,-0.0567484140510881,-0.00850224473761352));
#546=CARTESIAN_POINT('',(-0.0793077614074088,-0.0584196274192959,-0.0106445453254051));
#547=CARTESIAN_POINT('',(-0.0781316977614424,-0.0602291235310832,-0.012538339372291));
#548=CARTESIAN_POINT('',(-0.0774053496680208,-0.0615760229053528,-0.0137003744911861));
#549=CARTESIAN_POINT('',(-0.0772479116824285,-0.0623281756500666,-0.0142803061989281));
#550=CARTESIAN_POINT('',(-0.0772479116824286,-0.0623281756500666,-0.0142803061989281));
#551=CARTESIAN_POINT('',(-0.0772479116824286,-0.0623281756500666,-0.0142803061989281));
#552=CARTESIAN_POINT('',(-0.0771820849258555,-0.0626426599560354,-0.0145227827728692));
#553=CARTESIAN_POINT('',(-0.0767612936447879,-0.063215700515041,-0.0149413226281402));
#554=CARTESIAN_POINT('',(-0.0753858956405771,-0.0639288486642117,-0.0154261368594664));
#555=CARTESIAN_POINT('',(-0.0741769801935022,-0.0640240163841375,-0.0154848387730554));
#556=CARTESIAN_POINT('',(-0.0733820941054566,-0.0640240163841375,-0.0154848387730555));
#557=CARTESIAN_POINT('',(-0.0733820941054566,-0.0640240163841375,-0.0154848387730555));
#558=CARTESIAN_POINT('',(-0.00564,-0.0640240163841375,-0.0154848387730555));
#559=CARTESIAN_POINT('',(-0.00564,-0.0640240163841375,-0.0154848387730555));
#560=CARTESIAN_POINT('',(-0.00564,-0.0785210989415646,0.00672139371856988));
#561=CARTESIAN_POINT('',(-0.00564,-0.0584945060629864,-0.0115636332650741));
#562=CARTESIAN_POINT('',(-0.0733820941054566,-0.0640240163841375,-0.0154848387730555));
#563=CARTESIAN_POINT('',(-0.0725323595379588,-0.0637684310936172,-0.0158452538288309));
#564=CARTESIAN_POINT('',(-0.0715991313073452,-0.0635931179756402,-0.0160307904809872));
#565=CARTESIAN_POINT('',(-0.07064,-0.0635931179756402,-0.0160307904809872));
#566=CARTESIAN_POINT('',(-0.07064,-0.0635931179756402,-0.0160307904809872));
#567=CARTESIAN_POINT('',(-0.00564,-0.0635931179756402,-0.0160307904809872));
#568=CARTESIAN_POINT('',(-0.00564,-0.0635931179756402,-0.0160307904809872));
#569=CARTESIAN_POINT('',(-0.00564,-0.0584945060629864,-0.0115636332650741));
#570=CARTESIAN_POINT('',(-0.07064,-0.0502113832018804,-0.0168234725715499));
#571=CARTESIAN_POINT('',(-0.00564000000000001,-0.0502113832018804,-0.0168234725715499));
#572=CARTESIAN_POINT('',(-0.07064,-0.053119654963715,-0.015142242780424));
#573=CARTESIAN_POINT('',(-0.00564000000000001,-0.053119654963715,-0.015142242780424));
#574=CARTESIAN_POINT('',(-0.07064,-0.0583758103994229,-0.0149250231273838));
#575=CARTESIAN_POINT('',(-0.00563999999999999,-0.0583758103994229,-0.0149250231273838));
#576=CARTESIAN_POINT('',(-0.07064,-0.0611112585844556,-0.0164576117886407));
#577=CARTESIAN_POINT('',(-0.00563999999999999,-0.0611112585844556,-0.0164576117886407));
#578=CARTESIAN_POINT('',(-0.07064,-0.0611112585461342,-0.0164576117671704));
#579=CARTESIAN_POINT('',(-0.07064,-0.0602862939528681,-0.0159954091328332));
#580=CARTESIAN_POINT('',(-0.07064,-0.0584612343492106,-0.0154899651899811));
#581=CARTESIAN_POINT('',(-0.07064,-0.0556165052247403,-0.0153548500704357));
#582=CARTESIAN_POINT('',(-0.07064,-0.0528239694999931,-0.0157266526569546));
#583=CARTESIAN_POINT('',(-0.07064,-0.051024253630382,-0.0163535639479286));
#584=CARTESIAN_POINT('',(-0.07064,-0.0502113832018841,-0.0168234725715478));
#585=CARTESIAN_POINT('',(-0.07064,-0.0611112585461342,-0.0164576117671705));
#586=CARTESIAN_POINT('',(-0.07064,-0.0502113832018839,-0.0168234725715479));
#587=CARTESIAN_POINT('',(-0.07064,-0.0502113832018837,-0.016823472571548));
#588=CARTESIAN_POINT('',(-0.00564,-0.0502113832018838,-0.016823472571548));
#589=CARTESIAN_POINT('',(-0.00564,-0.0488634834117085,-0.0179118191799392));
#590=CARTESIAN_POINT('',(-0.00564,-0.0513573542488593,-0.014950677576342));
#591=CARTESIAN_POINT('',(-0.00564,-0.059660636210308,-0.0145087086692424));
#592=CARTESIAN_POINT('',(-0.00564,-0.0621569603681585,-0.0172678216815017));
#593=CARTESIAN_POINT('',(-0.00564,-0.0611112585461342,-0.0164576117671705));
#594=CARTESIAN_POINT('',(-0.00564,-0.0611112585461342,-0.0164576117671705));
#595=CARTESIAN_POINT('',(-0.00564,-0.0568146604246339,-0.01041937339587));
#596=CARTESIAN_POINT('',(-0.00564,-0.0568146604246339,-0.01041937339587));
#597=CARTESIAN_POINT('',(-0.00564,-0.0473562282566335,-0.0158870987585252));
#598=CARTESIAN_POINT('',(-0.00564,-0.0475064193870762,-0.0161390419618637));
#599=CARTESIAN_POINT('',(-0.00564,-0.0475064193870762,-0.0161390419618637));
#600=CARTESIAN_POINT('',(-0.07064,-0.0475064193870762,-0.0161390419618637));
#601=CARTESIAN_POINT('',(-0.07064,-0.0475064193870762,-0.0161390419618637));
#602=CARTESIAN_POINT('',(-0.0713025013577089,-0.0475064193870762,-0.0161390419618637));
#603=CARTESIAN_POINT('',(-0.071950022902705,-0.0474533641955579,-0.0160551309160414));
#604=CARTESIAN_POINT('',(-0.0725832310288543,-0.0473562282566335,-0.0158870987585254));
#605=CARTESIAN_POINT('',(-0.0725832310288543,-0.0473562282566335,-0.0158870987585252));
#606=CARTESIAN_POINT('',(-0.00564,-0.0473562282566335,-0.0158870987585252));
#607=CARTESIAN_POINT('',(-0.00564,-0.0425528436899186,-0.0118947274506092));
#608=CARTESIAN_POINT('',(-0.0725832310288543,-0.0473562282566336,-0.0158870987585253));
#609=CARTESIAN_POINT('',(-0.0731681984152117,-0.0473562282566336,-0.0158870987585253));
#610=CARTESIAN_POINT('',(-0.0743310991808876,-0.0473807207678706,-0.0158580964571703));
#611=CARTESIAN_POINT('',(-0.0760512915871588,-0.0476584355114347,-0.0155140288224198));
#612=CARTESIAN_POINT('',(-0.0775310514058514,-0.0481917629765148,-0.0146738306023928));
#613=CARTESIAN_POINT('',(-0.0782325755762166,-0.0485299044048956,-0.0137774080661708));
#614=CARTESIAN_POINT('',(-0.0785322381007863,-0.0486427637654714,-0.0132819568582435));
#615=CARTESIAN_POINT('',(-0.0785322381007863,-0.0486427637654714,-0.0132819568582435));
#616=CARTESIAN_POINT('',(-0.0785322381007864,-0.0486427637654714,-0.0132819568582436));
#617=CARTESIAN_POINT('',(-0.078901030621135,-0.0487816589713082,-0.0126722086091302));
#618=CARTESIAN_POINT('',(-0.0796227929963599,-0.0488823975093646,-0.0114114939527422));
#619=CARTESIAN_POINT('',(-0.0801447124862681,-0.0485669570970949,-0.0100655215123976));
#620=CARTESIAN_POINT('',(-0.0803267068966655,-0.0482849813305031,-0.00941397554333992));
#621=CARTESIAN_POINT('',(-0.00564,-0.0425528436899186,-0.0118947274506092));
#622=CARTESIAN_POINT('',(-0.00564,-0.0785833531866038,-0.024257448981059));
#623=CARTESIAN_POINT('',(-0.00564,-0.0492104285403094,-0.0150919732889975));
#624=CARTESIAN_POINT('',(-0.00564,-0.062088823447338,-0.0147128003550303));
#625=CARTESIAN_POINT('',(-0.08064,-0.0785833531866038,-0.024257448981059));
#626=CARTESIAN_POINT('',(-0.08064,-0.0470575608142303,-0.00723687496124357));
#627=CARTESIAN_POINT('',(-0.08064,-0.0483314634660475,-0.00668543081857048));
#628=CARTESIAN_POINT('',(-0.08064,-0.0509854142935715,-0.00586650875919028));
#629=CARTESIAN_POINT('',(-0.08064,-0.0537089864697812,-0.00551802631424287));
#630=CARTESIAN_POINT('',(-0.08064,-0.0550935274632318,-0.00545314526179395));
#631=CARTESIAN_POINT('',(-0.08064,-0.0543582127465369,0.00299996656117629));
#632=CARTESIAN_POINT('',(-0.08064,-0.0534713044704029,0.00265552340835165));
#633=CARTESIAN_POINT('',(-0.08064,-0.0517771497459977,0.00178192299543533));
#634=CARTESIAN_POINT('',(-0.08064,-0.0489424113319363,-0.000672217808623128));
#635=CARTESIAN_POINT('',(-0.08064,-0.0467582253008145,-0.00244344593984148));
#636=CARTESIAN_POINT('',(-0.08064,-0.0453150195513056,-0.00363968190994825));
#637=CARTESIAN_POINT('',(-0.06564,-0.0688500548920348,0.0201312224648714));
#638=CARTESIAN_POINT('',(-0.08064,-0.0688500548920348,0.0201312224648714));
#639=CARTESIAN_POINT('',(-0.08064,-0.0697642180943022,0.00515910485781197));
#640=CARTESIAN_POINT('',(-0.06564,-0.0682859973162962,0.020096782401466));
#641=CARTESIAN_POINT('',(-0.08064,-0.0682859973163025,0.0200967824014687));
#642=CARTESIAN_POINT('',(-0.08064,-0.0692001605185637,0.00512466479440662));
#643=CARTESIAN_POINT('',(-0.06564,-0.067173949293806,0.0200298952561996));
#644=CARTESIAN_POINT('',(-0.08064,-0.0671739492938032,0.0200298952561984));
#645=CARTESIAN_POINT('',(-0.08064,-0.0680719920432888,0.00505679141432271));
#646=CARTESIAN_POINT('',(-0.06564,-0.0648241508229397,0.0198842526767785));
#647=CARTESIAN_POINT('',(-0.08064,-0.0648241508229414,0.0198842526767792));
#648=CARTESIAN_POINT('',(-0.08064,-0.0658158415688003,0.00491687854803829));
#649=CARTESIAN_POINT('',(-0.0656399999999999,-0.0617014243893289,0.0196594515424468));
#650=CARTESIAN_POINT('',(-0.0806399999999999,-0.0617014243893283,0.0196594515424466));
#651=CARTESIAN_POINT('',(-0.0806399999999999,-0.0629979188545093,0.00471283251507783));
#652=CARTESIAN_POINT('',(-0.06564,-0.0582219982534574,0.0192806449354921));
#653=CARTESIAN_POINT('',(-0.08064,-0.0582219982534575,0.0192806449354922));
#654=CARTESIAN_POINT('',(-0.08064,-0.0601933449334938,0.00440157915424212));
#655=CARTESIAN_POINT('',(-0.06564,-0.055096914759256,0.0187536133479228));
#656=CARTESIAN_POINT('',(-0.08064,-0.055096914759256,0.0187536133479228));
#657=CARTESIAN_POINT('',(-0.08064,-0.0579655625836295,0.00402327724718987));
#658=CARTESIAN_POINT('',(-0.06564,-0.0525148158470263,0.0181748205900932));
#659=CARTESIAN_POINT('',(-0.08064,-0.0525148158470263,0.0181748205900932));
#660=CARTESIAN_POINT('',(-0.08064,-0.0563052413260426,0.0036480469460987));
#661=CARTESIAN_POINT('',(-0.06564,-0.0496546238125632,0.0173121169088633));
#662=CARTESIAN_POINT('',(-0.08064,-0.0496546238125633,0.0173121169088633));
#663=CARTESIAN_POINT('',(-0.08064,-0.054689717101946,0.00315537917275445));
#664=CARTESIAN_POINT('',(-0.06564,-0.0469426147972624,0.0161850919331965));
#665=CARTESIAN_POINT('',(-0.08064,-0.0469426147972624,0.0161850919331965));
#666=CARTESIAN_POINT('',(-0.08064,-0.0533803888365037,0.002603307497563));
#667=CARTESIAN_POINT('',(-0.06564,-0.0449197868546802,0.0150705923667089));
#668=CARTESIAN_POINT('',(-0.08064,-0.0449197868546802,0.0150705923667089));
#669=CARTESIAN_POINT('',(-0.08064,-0.0525133655491945,0.0021244819372585));
#670=CARTESIAN_POINT('',(-0.06564,-0.0438049076024268,0.0143669933629331));
#671=CARTESIAN_POINT('',(-0.08064,-0.0438049076024268,0.0143669933629331));
#672=CARTESIAN_POINT('',(-0.08064,-0.0520388083989188,0.00182521325325347));
#673=CARTESIAN_POINT('',(-0.06564,-0.0430551993109084,0.0138561728129749));
#674=CARTESIAN_POINT('',(-0.08064,-0.0430551993109083,0.0138561728129749));
#675=CARTESIAN_POINT('',(-0.08064,-0.0516914401177781,0.00158887680995082));
#676=CARTESIAN_POINT('',(-0.06564,-0.0423538870600055,0.0133460137206323));
#677=CARTESIAN_POINT('',(-0.08064,-0.0423538870600055,0.0133460137206323));
#678=CARTESIAN_POINT('',(-0.08064,-0.0513518973147952,0.00134206569873034));
#679=CARTESIAN_POINT('',(-0.06564,-0.0418121268636422,0.0129281837841589));
#680=CARTESIAN_POINT('',(-0.08064,-0.0418121268636422,0.0129281837841589));
#681=CARTESIAN_POINT('',(-0.08064,-0.0510748345560484,0.00112841656326274));
#682=CARTESIAN_POINT('',(-0.06564,-0.0414396424552062,0.0126289162641175));
#683=CARTESIAN_POINT('',(-0.08064,-0.0414396424552062,0.0126289162641175));
#684=CARTESIAN_POINT('',(-0.08064,-0.0508837551996842,0.000974998222680421));
#685=CARTESIAN_POINT('',(-0.06564,-0.0412697150571191,0.0124899571489967));
#686=CARTESIAN_POINT('',(-0.08064,-0.0412697150571191,0.0124899571489967));
#687=CARTESIAN_POINT('',(-0.08064,-0.0507888938469951,0.000897372812291436));
#688=CARTESIAN_POINT('',(-0.06564,-0.0411533888906665,0.012393755508921));
#689=CARTESIAN_POINT('',(-0.08064,-0.0411533888906665,0.012393755508921));
#690=CARTESIAN_POINT('',(-0.08064,-0.0507348969004016,0.000852732540991994));
#691=CARTESIAN_POINT('',(-0.06564,-0.0411139130742692,0.0123609815381224));
#692=CARTESIAN_POINT('',(-0.08064,-0.0411139130742692,0.0123609815381224));
#693=CARTESIAN_POINT('',(-0.08064,-0.0506809664680406,0.000808002454151048));
#694=CARTESIAN_POINT('',(-0.06564,-0.0410394382811023,0.0122992773519309));
#695=CARTESIAN_POINT('',(-0.08064,-0.0410394382811023,0.0122992773519309));
#696=CARTESIAN_POINT('',(-0.08064,-0.0506135306756889,0.000752120567962541));
#697=CARTESIAN_POINT('',(-0.06564,-0.0409343035399299,0.0122121237052851));
#698=CARTESIAN_POINT('',(-0.08064,-0.0409343035399298,0.0122121237052851));
#699=CARTESIAN_POINT('',(-0.08064,-0.0505056461056371,0.000662692404078798));
#700=CARTESIAN_POINT('',(-0.06564,-0.0407437841269389,0.0120542134325013));
#701=CARTESIAN_POINT('',(-0.08064,-0.0407437841269389,0.0120542134325013));
#702=CARTESIAN_POINT('',(-0.08064,-0.0503168421927243,0.000506201104864164));
#703=CARTESIAN_POINT('',(-0.06564,-0.0404750224796819,0.0118314403104705));
#704=CARTESIAN_POINT('',(-0.08064,-0.0404750224796819,0.0118314403104705));
#705=CARTESIAN_POINT('',(-0.08064,-0.0500471254034798,0.000282637938430279));
#706=CARTESIAN_POINT('',(-0.06564,-0.0400430985829838,0.01147343113714));
#707=CARTESIAN_POINT('',(-0.08064,-0.0400430985829838,0.01147343113714));
#708=CARTESIAN_POINT('',(-0.08064,-0.0496155768157275,-7.50607986133028E-5));
#709=CARTESIAN_POINT('',(-0.06564,-0.0395038473993428,0.0110264590783011));
#710=CARTESIAN_POINT('',(-0.08064,-0.0395038473993429,0.0110264590783011));
#711=CARTESIAN_POINT('',(-0.08064,-0.0490761416728644,-0.000522185019073997));
#712=CARTESIAN_POINT('',(-0.06564,-0.0388564661718928,0.0104898617172603));
#713=CARTESIAN_POINT('',(-0.08064,-0.0388564661718927,0.0104898617172603));
#714=CARTESIAN_POINT('',(-0.08064,-0.0484288192481002,-0.00105873374155272));
#715=CARTESIAN_POINT('',(-0.06564,-0.0379933889736294,0.00977447924816249));
#716=CARTESIAN_POINT('',(-0.08064,-0.0379933889736298,0.00977447924816251));
#717=CARTESIAN_POINT('',(-0.08064,-0.0475657227702677,-0.00177413215772005));
#718=CARTESIAN_POINT('',(-0.06564,-0.036914508705978,0.00888022329570168));
#719=CARTESIAN_POINT('',(-0.08064,-0.0369145087059749,0.00888022329570156));
#720=CARTESIAN_POINT('',(-0.08064,-0.0464868521424008,-0.00266838013664612));
#721=CARTESIAN_POINT('',(-0.06564,-0.0360514147836174,0.00816482702625953));
#722=CARTESIAN_POINT('',(-0.08064,-0.0360514147836238,0.00816482702625977));
#723=CARTESIAN_POINT('',(-0.08064,-0.045623755649431,-0.00338377853236416));
#724=CARTESIAN_POINT('',(-0.06564,-0.0356198665359626,0.00780712782996897));
#725=CARTESIAN_POINT('',(-0.08064,-0.0356198665359625,0.00780712782996897));
#726=CARTESIAN_POINT('',(-0.08064,-0.0451922074017762,-0.00374147772865474));
#727=CARTESIAN_POINT('',(-0.08064,-0.0663174529322983,-0.00791699786784123));
#728=CARTESIAN_POINT('',(-0.08064,-0.061220453013589,-0.016520519927363));
#729=CARTESIAN_POINT('',(-0.07064,-0.061220453013589,-0.016520519927363));
#730=CARTESIAN_POINT('',(-0.08064,-0.0655270677737876,-0.00744874857896949));
#731=CARTESIAN_POINT('',(-0.08064,-0.0609535962936281,-0.0163624255235428));
#732=CARTESIAN_POINT('',(-0.07064,-0.0609535962930803,-0.0163624255244743));
#733=CARTESIAN_POINT('',(-0.08064,-0.0638346259605388,-0.00664702553015173));
#734=CARTESIAN_POINT('',(-0.08064,-0.0603155259609685,-0.0160529600400376));
#735=CARTESIAN_POINT('',(-0.07064,-0.0603155259612186,-0.0160529600396202));
#736=CARTESIAN_POINT('',(-0.08064,-0.0603229335474986,-0.00562533231785567));
#737=CARTESIAN_POINT('',(-0.08064,-0.0586705434771014,-0.0155595717950253));
#738=CARTESIAN_POINT('',(-0.07064,-0.0586705434769466,-0.0155595717952494));
#739=CARTESIAN_POINT('',(-0.08064,-0.0556539406173583,-0.00523382348340044));
#740=CARTESIAN_POINT('',(-0.0806400000000001,-0.0559288518082514,-0.0153008376536621));
#741=CARTESIAN_POINT('',(-0.07064,-0.0559288518083937,-0.0153008376537318));
#742=CARTESIAN_POINT('',(-0.08064,-0.0501534786891569,-0.00595721206642781));
#743=CARTESIAN_POINT('',(-0.08064,-0.0525296863367741,-0.0157642362881914));
#744=CARTESIAN_POINT('',(-0.07064,-0.052529686336419,-0.0157642362876575));
#745=CARTESIAN_POINT('',(-0.08064,-0.0466667397577445,-0.00730437482302669));
#746=CARTESIAN_POINT('',(-0.08064,-0.0508021092415939,-0.016474891411353));
#747=CARTESIAN_POINT('',(-0.07064,-0.0508021092423276,-0.0164748914125522));
#748=CARTESIAN_POINT('',(-0.08064,-0.045081636726054,-0.00823893756193203));
#749=CARTESIAN_POINT('',(-0.08064,-0.050160512688097,-0.0168531710717797));
#750=CARTESIAN_POINT('',(-0.07064,-0.050160512688097,-0.0168531710717797));
#751=CARTESIAN_POINT('',(-0.0785322381007864,-0.0486427637654713,-0.0132819568582436));
#752=CARTESIAN_POINT('',(-0.0776037101709007,-0.0489767113354769,-0.0144553396109613));
#753=CARTESIAN_POINT('',(-0.0758030829611739,-0.0496138900259881,-0.0157860597024059));
#754=CARTESIAN_POINT('',(-0.0729072806671684,-0.0501214011715632,-0.0166765120466332));
#755=CARTESIAN_POINT('',(-0.0714058346662617,-0.0502113832018837,-0.016823472571548));
#756=CARTESIAN_POINT('',(-0.07064,-0.0502113832018837,-0.016823472571548));
#757=CARTESIAN_POINT('',(-0.07064,-0.0611112585461341,-0.0164576117671704));
#758=CARTESIAN_POINT('',(-0.071852983690187,-0.0611112585461341,-0.0164576117671704));
#759=CARTESIAN_POINT('',(-0.0742512700362138,-0.0613844752388607,-0.0161038773933101));
#760=CARTESIAN_POINT('',(-0.0763407297980847,-0.0620385260348898,-0.0150334610865826));
#761=CARTESIAN_POINT('',(-0.0772479116824286,-0.0623281756500667,-0.0142803061989281));
#762=CARTESIAN_POINT('',(-0.07064,-0.0502113832018837,-0.016823472571548));
#763=CARTESIAN_POINT('',(-0.07064,-0.0485257512577257,-0.017797911988998));
#764=CARTESIAN_POINT('',(-0.07064,-0.0475064193870762,-0.0161390419618636));
#765=CARTESIAN_POINT('',(-0.0714134431573093,-0.050211383201837,-0.016823472571575));
#766=CARTESIAN_POINT('',(-0.0714093997397249,-0.0485257512563401,-0.0177979119874717));
#767=CARTESIAN_POINT('',(-0.0712587545258388,-0.0475064193860263,-0.0161390419601549));
#768=CARTESIAN_POINT('',(-0.0729299559253378,-0.0501198558314927,-0.0166735007484075));
#769=CARTESIAN_POINT('',(-0.0729365932882769,-0.0484053536955615,-0.0176658560950355));
#770=CARTESIAN_POINT('',(-0.0724719647402533,-0.0474145449680491,-0.0159934773896223));
#771=CARTESIAN_POINT('',(-0.0751201125941871,-0.0497307806103909,-0.0159927243114492));
#772=CARTESIAN_POINT('',(-0.0751892207301896,-0.0478864473678708,-0.0170301236233574));
#773=CARTESIAN_POINT('',(-0.0742240900754219,-0.0470361766330984,-0.0153252851109212));
#774=CARTESIAN_POINT('',(-0.0770577598856041,-0.0491756920905533,-0.0148604628742797));
#775=CARTESIAN_POINT('',(-0.0772634317300148,-0.0471232422377181,-0.0158519544333194));
#776=CARTESIAN_POINT('',(-0.0757742079082113,-0.0465290317509508,-0.0141954773853842));
#777=CARTESIAN_POINT('',(-0.0781110791312472,-0.0487941683029215,-0.0138211400223254));
#778=CARTESIAN_POINT('',(-0.0784079560594264,-0.0465965084649318,-0.0146498419055881));
#779=CARTESIAN_POINT('',(-0.0766168633055841,-0.0462174330764389,-0.0131432782413025));
#780=CARTESIAN_POINT('',(-0.0785648287559972,-0.0486310447194459,-0.0132405135720766));
#781=CARTESIAN_POINT('',(-0.0788989123188218,-0.0463761710675812,-0.0139406532786151));
#782=CARTESIAN_POINT('',(-0.0769798630047977,-0.0460998114275582,-0.0125524394257794));
#783=CARTESIAN_POINT('',(-0.07064,-0.0492104285403094,-0.0150919732889975));
#784=CARTESIAN_POINT('',(-0.07064,-0.0492104285403094,-0.0150919732889975));
#785=CARTESIAN_POINT('',(-0.07064,-0.0635931179756403,-0.0160307904809872));
#786=CARTESIAN_POINT('',(-0.07064,-0.0625251198760526,-0.0172497553774659));
#787=CARTESIAN_POINT('',(-0.07064,-0.0611112585461342,-0.0164576117671704));
#788=CARTESIAN_POINT('',(-0.0716175740401717,-0.0635931179779321,-0.0160307904783714));
#789=CARTESIAN_POINT('',(-0.0718200081085706,-0.0625251198785169,-0.0172497553758101));
#790=CARTESIAN_POINT('',(-0.0718619675502078,-0.0611112585464133,-0.0164576117673268));
#791=CARTESIAN_POINT('',(-0.0730692813067208,-0.0638708654284048,-0.0157446583292329));
#792=CARTESIAN_POINT('',(-0.0736496984339605,-0.0628408779241161,-0.0170681860059017));
#793=CARTESIAN_POINT('',(-0.0736766016330074,-0.0613229396199246,-0.0161868130104081));
#794=CARTESIAN_POINT('',(-0.0748034024395209,-0.0645181135266419,-0.0147343925871544));
#795=CARTESIAN_POINT('',(-0.0759052535483018,-0.0636930365973759,-0.0163115471627447));
#796=CARTESIAN_POINT('',(-0.0758442530500593,-0.0618782649368185,-0.0152877927289268));
#797=CARTESIAN_POINT('',(-0.0755937173892566,-0.0648485931337789,-0.0139699671893015));
#798=CARTESIAN_POINT('',(-0.0770119957122924,-0.0642245596213234,-0.0156306910021684));
#799=CARTESIAN_POINT('',(-0.076832146735122,-0.0621955075234138,-0.0146292724085932));
#800=CARTESIAN_POINT('',(-0.0759520330750315,-0.0649824788742631,-0.0135276968657943));
#801=CARTESIAN_POINT('',(-0.0775333177144744,-0.0644785258868149,-0.0151924256859439));
#802=CARTESIAN_POINT('',(-0.0772800413437894,-0.0623384313875689,-0.0142534909792246));
#803=CARTESIAN_POINT('',(-0.07064,-0.062088823447338,-0.0147128003550303));
#804=CARTESIAN_POINT('',(-0.07064,-0.062088823447338,-0.0147128003550303));
#805=MECHANICAL_DESIGN_GEOMETRIC_PRESENTATION_REPRESENTATION('',(#287,#256,
#257,#258,#259,#260,#261,#262,#263,#264,#265,#266,#267,#268,#269),#806);
#806=(
GEOMETRIC_REPRESENTATION_CONTEXT(3)
GLOBAL_UNCERTAINTY_ASSIGNED_CONTEXT((#807))
GLOBAL_UNIT_ASSIGNED_CONTEXT((#810,#809,#808))
REPRESENTATION_CONTEXT('Part 19','TOP_LEVEL_ASSEMBLY_PART')
);
#807=UNCERTAINTY_MEASURE_WITH_UNIT(LENGTH_MEASURE(2.E-5),#810,
'DISTANCE_ACCURACY_VALUE','Maximum Tolerance applied to model');
#808=(
NAMED_UNIT(*)
SI_UNIT($,.STERADIAN.)
SOLID_ANGLE_UNIT()
);
#809=(
NAMED_UNIT(*)
PLANE_ANGLE_UNIT()
SI_UNIT($,.RADIAN.)
);
#810=(
LENGTH_UNIT()
NAMED_UNIT(*)
SI_UNIT($,.METRE.)
);
#811=PRODUCT_DEFINITION_SHAPE('','',#812);
#812=PRODUCT_DEFINITION('','',#814,#813);
#813=PRODUCT_DEFINITION_CONTEXT('',#820,'design');
#814=PRODUCT_DEFINITION_FORMATION_WITH_SPECIFIED_SOURCE('','',#816,
 .NOT_KNOWN.);
#815=PRODUCT_RELATED_PRODUCT_CATEGORY('','',(#816));
#816=PRODUCT('Part 19','Part 19','Part 19',(#818));
#817=PRODUCT_CATEGORY('','');
#818=PRODUCT_CONTEXT('',#820,'mechanical');
#819=APPLICATION_PROTOCOL_DEFINITION('international standard',
'ap242_managed_model_based_3d_engineering',2020,#820);
#820=APPLICATION_CONTEXT('managed model based 3d engineering');
ENDSEC;
END-ISO-10303-21;
