ISO-10303-21;
HEADER;
/* Generated by software containing ST-Developer
 * from STEP Tools, Inc. (www.steptools.com) 
 */
/* OPTION: using custom renumber hook */

FILE_DESCRIPTION(
/* description */ ('STEP AP242 Edition 2',
'CAx-IF Rec.Pracs.---Representation and Presentation of Product Manufa
cturing Information (PMI)---4.0---2014-10-13',
'CAx-IF Rec.Pracs.---3D Tessellated Geometry---0.4---2014-09-14','2;1',
'CAx-IF Rec.Pracs.---User Defined Attributes---1.5---2016-08-15'),
/* implementation_level */ '2;1');

FILE_NAME(
/* name */ 'Part Studio 1 - Part 11',
/* time_stamp */ '2026-06-18T16:33:34Z',
/* author */ (''),
/* organization */ (''),
/* preprocessor_version */ 'ST-DEVELOPER v20',
/* originating_system */ 'ONSHAPE BY PTC INC, 1.216',
/* authorisation */ '  ');

FILE_SCHEMA (('AP242_MANAGED_MODEL_BASED_3D_ENGINEERING_MIM_LF { 1 0 10303 442 3 1 4 }'));
ENDSEC;

DATA;
#10=SHAPE_REPRESENTATION_RELATIONSHIP('','',#424,#11);
#11=ADVANCED_BREP_SHAPE_REPRESENTATION('',(#422),#851);
#12=ORIENTED_CLOSED_SHELL('',*,#413,.F.);
#13=(
BOUNDED_SURFACE()
B_SPLINE_SURFACE(3,2,((#646,#647,#648),(#649,#650,#651),(#652,#653,#654),
(#655,#656,#657),(#658,#659,#660),(#661,#662,#663),(#664,#665,#666),(#667,
#668,#669),(#670,#671,#672),(#673,#674,#675),(#676,#677,#678),(#679,#680,
#681),(#682,#683,#684),(#685,#686,#687),(#688,#689,#690)),.UNSPECIFIED.,
 .F.,.F.,.F.)
B_SPLINE_SURFACE_WITH_KNOTS((4,1,1,1,1,1,1,1,1,1,1,1,4),(3,3),(0.0455203323712742,
0.0467876687869113,0.0480550052025484,0.0505896780338225,0.0531243508650966,
0.0556590236963708,0.060728369358919,0.0657977150214673,0.0708670606840155,
0.0759364063465638,0.0810057520091121,0.0835404248403862,0.0860750976716603),
(0.,1.),.UNSPECIFIED.)
GEOMETRIC_REPRESENTATION_ITEM()
RATIONAL_B_SPLINE_SURFACE(((1.,0.707106781186548,1.),(1.,0.707106781186548,
1.),(1.,0.707106781186548,1.),(1.,0.707106781186548,1.),(1.,0.707106781186547,
1.),(1.,0.707106781186548,1.),(1.,0.707106781186548,1.),(1.,0.707106781186548,
1.),(1.,0.707106781186548,1.),(1.,0.707106781186548,1.),(1.,0.707106781186548,
1.),(1.,0.707106781186548,1.),(1.,0.707106781186548,1.),(1.,0.707106781186548,
1.),(1.,0.707106781186548,1.)))
REPRESENTATION_ITEM('')
SURFACE()
);
#14=(
BOUNDED_SURFACE()
B_SPLINE_SURFACE(3,2,((#811,#812,#813),(#814,#815,#816),(#817,#818,#819),
(#820,#821,#822),(#823,#824,#825),(#826,#827,#828),(#829,#830,#831)),
 .UNSPECIFIED.,.F.,.F.,.F.)
B_SPLINE_SURFACE_WITH_KNOTS((4,1,1,1,4),(3,3),(0.0480486764996494,0.0557391537619027,
0.0634296310241561,0.0711201082864094,0.0788105855486628),(0.,1.),
 .UNSPECIFIED.)
GEOMETRIC_REPRESENTATION_ITEM()
RATIONAL_B_SPLINE_SURFACE(((1.,0.707106781186548,1.),(1.,0.707106781186548,
1.),(1.,0.707106781186547,1.),(1.,0.707106781186547,1.),(1.,0.707106781186548,
1.),(1.,0.707106781186547,1.),(1.,0.707106781186547,1.)))
REPRESENTATION_ITEM('')
SURFACE()
);
#15=ELLIPSE('',#433,0.0984587972260796,0.0579504284943004);
#16=ELLIPSE('',#440,0.0984587972260796,0.0579504284943004);
#17=PLANE('',#432);
#18=PLANE('',#434);
#19=PLANE('',#435);
#20=PLANE('',#436);
#21=PLANE('',#437);
#22=PLANE('',#438);
#23=PLANE('',#439);
#24=PLANE('',#447);
#25=PLANE('',#451);
#26=PLANE('',#452);
#27=PLANE('',#453);
#28=PLANE('',#454);
#29=PLANE('',#455);
#30=PLANE('',#456);
#31=CIRCLE('',#427,0.0307679277265844);
#32=CIRCLE('',#428,0.0307679277265844);
#33=CIRCLE('',#430,0.0618670778329995);
#34=CIRCLE('',#431,0.0618670778329995);
#35=CIRCLE('',#442,0.0284679277265844);
#36=CIRCLE('',#443,0.0284679277265844);
#37=CIRCLE('',#444,0.0284679277265844);
#38=CIRCLE('',#445,0.0284679277265844);
#39=CIRCLE('',#446,0.0284679277265844);
#40=CIRCLE('',#448,0.0595670778329995);
#41=CIRCLE('',#450,0.0595670778329995);
#42=CYLINDRICAL_SURFACE('',#426,0.0307679277265844);
#43=CYLINDRICAL_SURFACE('',#429,0.0618670778329995);
#44=CYLINDRICAL_SURFACE('',#441,0.0284679277265844);
#45=CYLINDRICAL_SURFACE('',#449,0.0595670778329995);
#46=B_SPLINE_CURVE_WITH_KNOTS('',3,(#563,#564,#565,#566,#567),
 .UNSPECIFIED.,.F.,.F.,(4,1,4),(0.,0.521355804870726,1.),.UNSPECIFIED.);
#47=B_SPLINE_CURVE_WITH_KNOTS('',3,(#571,#572,#573,#574,#575),
 .UNSPECIFIED.,.F.,.F.,(4,1,4),(0.,0.521355804870726,1.),.UNSPECIFIED.);
#48=B_SPLINE_CURVE_WITH_KNOTS('',3,(#579,#580,#581,#582,#583),
 .UNSPECIFIED.,.F.,.F.,(4,1,4),(0.,0.521355804870726,1.),.UNSPECIFIED.);
#49=B_SPLINE_CURVE_WITH_KNOTS('',3,(#587,#588,#589,#590,#591,#592,#593,
#594),.UNSPECIFIED.,.F.,.F.,(4,1,1,1,1,4),(-5.9999999773871E-8,0.00925807233437994,
0.0138871385015698,0.0185162046687597,0.0277743370031394,0.0370324693375191),
 .UNSPECIFIED.);
#50=B_SPLINE_CURVE_WITH_KNOTS('',3,(#598,#599,#600,#601,#602),
 .UNSPECIFIED.,.F.,.F.,(4,1,4),(0.,0.521355804870726,1.),.UNSPECIFIED.);
#51=B_SPLINE_CURVE_WITH_KNOTS('',3,(#606,#607,#608,#609,#610,#611,#612,
#613,#614),.UNSPECIFIED.,.F.,.F.,(4,1,1,1,1,1,4),(0.,0.00173803904225483,
0.00347607808450965,0.00521411712676448,0.0069521561690193,0.010428234253529,
0.0139043123380386),.UNSPECIFIED.);
#52=B_SPLINE_CURVE_WITH_KNOTS('',3,(#624,#625,#626,#627,#628,#629),
 .UNSPECIFIED.,.F.,.F.,(4,1,1,4),(0.,0.00234478470430122,0.00468956940860244,
0.00937913881720488),.UNSPECIFIED.);
#53=B_SPLINE_CURVE_WITH_KNOTS('',3,(#639,#640,#641,#642,#643,#644,#645),
 .UNSPECIFIED.,.F.,.F.,(4,1,1,1,4),(0.,0.0076030749928152,0.0152061499856304,
0.0228092249784456,0.0304122999712608),.UNSPECIFIED.);
#54=B_SPLINE_CURVE_WITH_KNOTS('',3,(#724,#725,#726,#727,#728,#729,#730,
#731,#732),.UNSPECIFIED.,.F.,.F.,(4,1,1,1,1,1,4),(0.,0.00139308300283962,
0.00278616600567924,0.00417924900851886,0.00557233201135848,0.00835849801703772,
0.011144664022717),.UNSPECIFIED.);
#55=B_SPLINE_CURVE_WITH_KNOTS('',3,(#746,#747,#748,#749),.UNSPECIFIED.,
 .F.,.F.,(4,4),(0.0100227924571863,0.0103734243033144),.UNSPECIFIED.);
#56=B_SPLINE_CURVE_WITH_KNOTS('',3,(#765,#766,#767,#768),.UNSPECIFIED.,
 .F.,.F.,(4,4),(0.164784368379035,0.17814395373674),.UNSPECIFIED.);
#57=B_SPLINE_CURVE_WITH_KNOTS('',3,(#769,#770,#771,#772,#773,#774,#775),
 .UNSPECIFIED.,.F.,.F.,(4,1,1,1,4),(0.,0.00712559546718514,0.0142511909343703,
0.0213767864015554,0.0285023818687406),.UNSPECIFIED.);
#58=B_SPLINE_CURVE_WITH_KNOTS('',3,(#780,#781,#782,#783),.UNSPECIFIED.,
 .F.,.F.,(4,4),(0.,0.0132390615899262),.UNSPECIFIED.);
#59=B_SPLINE_CURVE_WITH_KNOTS('',3,(#787,#788,#789,#790),.UNSPECIFIED.,
 .F.,.F.,(4,4),(0.,0.00168618049811497),.UNSPECIFIED.);
#60=B_SPLINE_CURVE_WITH_KNOTS('',3,(#794,#795,#796,#797,#798),
 .UNSPECIFIED.,.F.,.F.,(4,1,4),(0.,0.00289052677357628,0.00578105354715256),
 .UNSPECIFIED.);
#61=B_SPLINE_CURVE_WITH_KNOTS('',3,(#800,#801,#802,#803),.UNSPECIFIED.,
 .F.,.F.,(4,4),(0.,0.0130576732510327),.UNSPECIFIED.);
#62=B_SPLINE_CURVE_WITH_KNOTS('',3,(#806,#807,#808,#809,#810),
 .UNSPECIFIED.,.F.,.F.,(4,1,4),(0.,0.0106759247491819,0.0213518494983637),
 .UNSPECIFIED.);
#63=B_SPLINE_CURVE_WITH_KNOTS('',3,(#838,#839,#840,#841),.UNSPECIFIED.,
 .F.,.F.,(4,4),(0.0606727322739952,0.0737406301328636),.UNSPECIFIED.);
#64=ORIENTED_EDGE('',*,*,#182,.F.);
#65=ORIENTED_EDGE('',*,*,#183,.T.);
#66=ORIENTED_EDGE('',*,*,#184,.T.);
#67=ORIENTED_EDGE('',*,*,#185,.T.);
#68=ORIENTED_EDGE('',*,*,#186,.T.);
#69=ORIENTED_EDGE('',*,*,#187,.T.);
#70=ORIENTED_EDGE('',*,*,#188,.T.);
#71=ORIENTED_EDGE('',*,*,#189,.T.);
#72=ORIENTED_EDGE('',*,*,#190,.F.);
#73=ORIENTED_EDGE('',*,*,#191,.T.);
#74=ORIENTED_EDGE('',*,*,#192,.T.);
#75=ORIENTED_EDGE('',*,*,#190,.T.);
#76=ORIENTED_EDGE('',*,*,#193,.T.);
#77=ORIENTED_EDGE('',*,*,#194,.T.);
#78=ORIENTED_EDGE('',*,*,#195,.F.);
#79=ORIENTED_EDGE('',*,*,#196,.F.);
#80=ORIENTED_EDGE('',*,*,#197,.T.);
#81=ORIENTED_EDGE('',*,*,#198,.T.);
#82=ORIENTED_EDGE('',*,*,#188,.F.);
#83=ORIENTED_EDGE('',*,*,#199,.F.);
#84=ORIENTED_EDGE('',*,*,#195,.T.);
#85=ORIENTED_EDGE('',*,*,#200,.F.);
#86=ORIENTED_EDGE('',*,*,#196,.T.);
#87=ORIENTED_EDGE('',*,*,#199,.T.);
#88=ORIENTED_EDGE('',*,*,#187,.F.);
#89=ORIENTED_EDGE('',*,*,#201,.F.);
#90=ORIENTED_EDGE('',*,*,#202,.F.);
#91=ORIENTED_EDGE('',*,*,#203,.F.);
#92=ORIENTED_EDGE('',*,*,#183,.F.);
#93=ORIENTED_EDGE('',*,*,#194,.F.);
#94=ORIENTED_EDGE('',*,*,#204,.T.);
#95=ORIENTED_EDGE('',*,*,#197,.F.);
#96=ORIENTED_EDGE('',*,*,#193,.F.);
#97=ORIENTED_EDGE('',*,*,#189,.F.);
#98=ORIENTED_EDGE('',*,*,#198,.F.);
#99=ORIENTED_EDGE('',*,*,#204,.F.);
#100=ORIENTED_EDGE('',*,*,#205,.F.);
#101=ORIENTED_EDGE('',*,*,#206,.F.);
#102=ORIENTED_EDGE('',*,*,#202,.T.);
#103=ORIENTED_EDGE('',*,*,#207,.T.);
#104=ORIENTED_EDGE('',*,*,#203,.T.);
#105=ORIENTED_EDGE('',*,*,#206,.T.);
#106=ORIENTED_EDGE('',*,*,#208,.F.);
#107=ORIENTED_EDGE('',*,*,#184,.F.);
#108=ORIENTED_EDGE('',*,*,#209,.F.);
#109=ORIENTED_EDGE('',*,*,#207,.F.);
#110=ORIENTED_EDGE('',*,*,#201,.T.);
#111=ORIENTED_EDGE('',*,*,#186,.F.);
#112=ORIENTED_EDGE('',*,*,#208,.T.);
#113=ORIENTED_EDGE('',*,*,#205,.T.);
#114=ORIENTED_EDGE('',*,*,#209,.T.);
#115=ORIENTED_EDGE('',*,*,#185,.F.);
#116=ORIENTED_EDGE('',*,*,#210,.T.);
#117=ORIENTED_EDGE('',*,*,#191,.F.);
#118=ORIENTED_EDGE('',*,*,#192,.F.);
#119=ORIENTED_EDGE('',*,*,#200,.T.);
#120=ORIENTED_EDGE('',*,*,#182,.T.);
#121=ORIENTED_EDGE('',*,*,#210,.F.);
#122=ORIENTED_EDGE('',*,*,#211,.T.);
#123=ORIENTED_EDGE('',*,*,#212,.T.);
#124=ORIENTED_EDGE('',*,*,#213,.T.);
#125=ORIENTED_EDGE('',*,*,#214,.T.);
#126=ORIENTED_EDGE('',*,*,#215,.F.);
#127=ORIENTED_EDGE('',*,*,#216,.F.);
#128=ORIENTED_EDGE('',*,*,#217,.F.);
#129=ORIENTED_EDGE('',*,*,#218,.T.);
#130=ORIENTED_EDGE('',*,*,#219,.F.);
#131=ORIENTED_EDGE('',*,*,#220,.T.);
#132=ORIENTED_EDGE('',*,*,#221,.F.);
#133=ORIENTED_EDGE('',*,*,#222,.T.);
#134=ORIENTED_EDGE('',*,*,#223,.T.);
#135=ORIENTED_EDGE('',*,*,#224,.F.);
#136=ORIENTED_EDGE('',*,*,#213,.F.);
#137=ORIENTED_EDGE('',*,*,#225,.T.);
#138=ORIENTED_EDGE('',*,*,#226,.F.);
#139=ORIENTED_EDGE('',*,*,#217,.T.);
#140=ORIENTED_EDGE('',*,*,#227,.F.);
#141=ORIENTED_EDGE('',*,*,#228,.F.);
#142=ORIENTED_EDGE('',*,*,#223,.F.);
#143=ORIENTED_EDGE('',*,*,#229,.F.);
#144=ORIENTED_EDGE('',*,*,#230,.F.);
#145=ORIENTED_EDGE('',*,*,#231,.F.);
#146=ORIENTED_EDGE('',*,*,#232,.F.);
#147=ORIENTED_EDGE('',*,*,#233,.F.);
#148=ORIENTED_EDGE('',*,*,#214,.F.);
#149=ORIENTED_EDGE('',*,*,#224,.T.);
#150=ORIENTED_EDGE('',*,*,#228,.T.);
#151=ORIENTED_EDGE('',*,*,#234,.F.);
#152=ORIENTED_EDGE('',*,*,#235,.T.);
#153=ORIENTED_EDGE('',*,*,#232,.T.);
#154=ORIENTED_EDGE('',*,*,#236,.T.);
#155=ORIENTED_EDGE('',*,*,#220,.F.);
#156=ORIENTED_EDGE('',*,*,#215,.T.);
#157=ORIENTED_EDGE('',*,*,#233,.T.);
#158=ORIENTED_EDGE('',*,*,#237,.F.);
#159=ORIENTED_EDGE('',*,*,#216,.T.);
#160=ORIENTED_EDGE('',*,*,#237,.T.);
#161=ORIENTED_EDGE('',*,*,#234,.T.);
#162=ORIENTED_EDGE('',*,*,#227,.T.);
#163=ORIENTED_EDGE('',*,*,#238,.T.);
#164=ORIENTED_EDGE('',*,*,#229,.T.);
#165=ORIENTED_EDGE('',*,*,#222,.F.);
#166=ORIENTED_EDGE('',*,*,#212,.F.);
#167=ORIENTED_EDGE('',*,*,#221,.T.);
#168=ORIENTED_EDGE('',*,*,#236,.F.);
#169=ORIENTED_EDGE('',*,*,#231,.T.);
#170=ORIENTED_EDGE('',*,*,#239,.T.);
#171=ORIENTED_EDGE('',*,*,#239,.F.);
#172=ORIENTED_EDGE('',*,*,#230,.T.);
#173=ORIENTED_EDGE('',*,*,#238,.F.);
#174=ORIENTED_EDGE('',*,*,#211,.F.);
#175=ORIENTED_EDGE('',*,*,#240,.F.);
#176=ORIENTED_EDGE('',*,*,#218,.F.);
#177=ORIENTED_EDGE('',*,*,#226,.T.);
#178=ORIENTED_EDGE('',*,*,#219,.T.);
#179=ORIENTED_EDGE('',*,*,#240,.T.);
#180=ORIENTED_EDGE('',*,*,#225,.F.);
#181=ORIENTED_EDGE('',*,*,#235,.F.);
#182=EDGE_CURVE('',#241,#242,#280,.F.);
#183=EDGE_CURVE('',#241,#243,#46,.T.);
#184=EDGE_CURVE('',#243,#244,#281,.T.);
#185=EDGE_CURVE('',#244,#245,#47,.T.);
#186=EDGE_CURVE('',#245,#246,#282,.F.);
#187=EDGE_CURVE('',#246,#247,#48,.T.);
#188=EDGE_CURVE('',#247,#248,#283,.T.);
#189=EDGE_CURVE('',#248,#249,#49,.T.);
#190=EDGE_CURVE('',#250,#249,#284,.T.);
#191=EDGE_CURVE('',#250,#242,#50,.T.);
#192=EDGE_CURVE('',#251,#250,#285,.T.);
#193=EDGE_CURVE('',#249,#252,#51,.T.);
#194=EDGE_CURVE('',#252,#253,#31,.T.);
#195=EDGE_CURVE('',#254,#253,#286,.T.);
#196=EDGE_CURVE('',#251,#254,#32,.T.);
#197=EDGE_CURVE('',#253,#255,#33,.T.);
#198=EDGE_CURVE('',#255,#248,#52,.T.);
#199=EDGE_CURVE('',#254,#247,#34,.T.);
#200=EDGE_CURVE('',#251,#241,#15,.T.);
#201=EDGE_CURVE('',#256,#246,#287,.T.);
#202=EDGE_CURVE('',#257,#256,#288,.T.);
#203=EDGE_CURVE('',#243,#257,#289,.T.);
#204=EDGE_CURVE('',#252,#255,#53,.T.);
#205=EDGE_CURVE('',#258,#259,#290,.T.);
#206=EDGE_CURVE('',#257,#258,#291,.T.);
#207=EDGE_CURVE('',#256,#259,#292,.T.);
#208=EDGE_CURVE('',#244,#258,#293,.T.);
#209=EDGE_CURVE('',#259,#245,#294,.T.);
#210=EDGE_CURVE('',#250,#242,#16,.T.);
#211=EDGE_CURVE('',#260,#261,#35,.T.);
#212=EDGE_CURVE('',#261,#262,#295,.F.);
#213=EDGE_CURVE('',#262,#263,#36,.T.);
#214=EDGE_CURVE('',#263,#264,#296,.T.);
#215=EDGE_CURVE('',#265,#264,#37,.T.);
#216=EDGE_CURVE('',#266,#265,#54,.T.);
#217=EDGE_CURVE('',#267,#266,#297,.T.);
#218=EDGE_CURVE('',#267,#268,#38,.T.);
#219=EDGE_CURVE('',#269,#268,#298,.F.);
#220=EDGE_CURVE('',#269,#270,#39,.T.);
#221=EDGE_CURVE('',#260,#270,#299,.F.);
#222=EDGE_CURVE('',#262,#271,#300,.T.);
#223=EDGE_CURVE('',#271,#272,#55,.F.);
#224=EDGE_CURVE('',#263,#272,#40,.T.);
#225=EDGE_CURVE('',#273,#274,#301,.F.);
#226=EDGE_CURVE('',#267,#274,#56,.T.);
#227=EDGE_CURVE('',#275,#266,#57,.T.);
#228=EDGE_CURVE('',#272,#275,#302,.T.);
#229=EDGE_CURVE('',#276,#271,#303,.F.);
#230=EDGE_CURVE('',#277,#276,#58,.T.);
#231=EDGE_CURVE('',#278,#277,#304,.T.);
#232=EDGE_CURVE('',#273,#278,#59,.T.);
#233=EDGE_CURVE('',#264,#279,#41,.T.);
#234=EDGE_CURVE('',#279,#275,#60,.T.);
#235=EDGE_CURVE('',#269,#273,#61,.T.);
#236=EDGE_CURVE('',#278,#270,#305,.T.);
#237=EDGE_CURVE('',#265,#279,#62,.T.);
#238=EDGE_CURVE('',#261,#276,#306,.T.);
#239=EDGE_CURVE('',#277,#260,#307,.T.);
#240=EDGE_CURVE('',#268,#274,#63,.T.);
#241=VERTEX_POINT('',#561);
#242=VERTEX_POINT('',#562);
#243=VERTEX_POINT('',#568);
#244=VERTEX_POINT('',#570);
#245=VERTEX_POINT('',#576);
#246=VERTEX_POINT('',#578);
#247=VERTEX_POINT('',#584);
#248=VERTEX_POINT('',#586);
#249=VERTEX_POINT('',#595);
#250=VERTEX_POINT('',#597);
#251=VERTEX_POINT('',#605);
#252=VERTEX_POINT('',#615);
#253=VERTEX_POINT('',#617);
#254=VERTEX_POINT('',#619);
#255=VERTEX_POINT('',#623);
#256=VERTEX_POINT('',#634);
#257=VERTEX_POINT('',#636);
#258=VERTEX_POINT('',#693);
#259=VERTEX_POINT('',#694);
#260=VERTEX_POINT('',#714);
#261=VERTEX_POINT('',#715);
#262=VERTEX_POINT('',#717);
#263=VERTEX_POINT('',#719);
#264=VERTEX_POINT('',#721);
#265=VERTEX_POINT('',#723);
#266=VERTEX_POINT('',#733);
#267=VERTEX_POINT('',#735);
#268=VERTEX_POINT('',#737);
#269=VERTEX_POINT('',#739);
#270=VERTEX_POINT('',#741);
#271=VERTEX_POINT('',#745);
#272=VERTEX_POINT('',#750);
#273=VERTEX_POINT('',#763);
#274=VERTEX_POINT('',#764);
#275=VERTEX_POINT('',#776);
#276=VERTEX_POINT('',#779);
#277=VERTEX_POINT('',#784);
#278=VERTEX_POINT('',#786);
#279=VERTEX_POINT('',#793);
#280=LINE('',#560,#308);
#281=LINE('',#569,#309);
#282=LINE('',#577,#310);
#283=LINE('',#585,#311);
#284=LINE('',#596,#312);
#285=LINE('',#604,#313);
#286=LINE('',#618,#314);
#287=LINE('',#633,#315);
#288=LINE('',#635,#316);
#289=LINE('',#637,#317);
#290=LINE('',#692,#318);
#291=LINE('',#695,#319);
#292=LINE('',#696,#320);
#293=LINE('',#698,#321);
#294=LINE('',#700,#322);
#295=LINE('',#716,#323);
#296=LINE('',#720,#324);
#297=LINE('',#734,#325);
#298=LINE('',#738,#326);
#299=LINE('',#742,#327);
#300=LINE('',#744,#328);
#301=LINE('',#762,#329);
#302=LINE('',#777,#330);
#303=LINE('',#778,#331);
#304=LINE('',#785,#332);
#305=LINE('',#804,#333);
#306=LINE('',#833,#334);
#307=LINE('',#835,#335);
#308=VECTOR('',#459,1.);
#309=VECTOR('',#460,1.);
#310=VECTOR('',#461,1.);
#311=VECTOR('',#462,1.);
#312=VECTOR('',#463,1.);
#313=VECTOR('',#466,1.);
#314=VECTOR('',#469,1.);
#315=VECTOR('',#482,1.);
#316=VECTOR('',#483,1.);
#317=VECTOR('',#484,1.);
#318=VECTOR('',#489,1.);
#319=VECTOR('',#490,1.);
#320=VECTOR('',#491,1.);
#321=VECTOR('',#494,1.);
#322=VECTOR('',#497,1.);
#323=VECTOR('',#508,1.);
#324=VECTOR('',#511,1.);
#325=VECTOR('',#514,1.);
#326=VECTOR('',#517,1.);
#327=VECTOR('',#520,1.);
#328=VECTOR('',#523,1.);
#329=VECTOR('',#526,1.);
#330=VECTOR('',#527,1.);
#331=VECTOR('',#528,1.);
#332=VECTOR('',#529,1.);
#333=VECTOR('',#536,1.);
#334=VECTOR('',#541,1.);
#335=VECTOR('',#544,1.);
#336=EDGE_LOOP('',(#64,#65,#66,#67,#68,#69,#70,#71,#72,#73));
#337=EDGE_LOOP('',(#74,#75,#76,#77,#78,#79));
#338=EDGE_LOOP('',(#80,#81,#82,#83,#84));
#339=EDGE_LOOP('',(#85,#86,#87,#88,#89,#90,#91,#92));
#340=EDGE_LOOP('',(#93,#94,#95));
#341=EDGE_LOOP('',(#96,#97,#98,#99));
#342=EDGE_LOOP('',(#100,#101,#102,#103));
#343=EDGE_LOOP('',(#104,#105,#106,#107));
#344=EDGE_LOOP('',(#108,#109,#110,#111));
#345=EDGE_LOOP('',(#112,#113,#114,#115));
#346=EDGE_LOOP('',(#116,#117));
#347=EDGE_LOOP('',(#118,#119,#120,#121));
#348=EDGE_LOOP('',(#122,#123,#124,#125,#126,#127,#128,#129,#130,#131,#132));
#349=EDGE_LOOP('',(#133,#134,#135,#136));
#350=EDGE_LOOP('',(#137,#138,#139,#140,#141,#142,#143,#144,#145,#146));
#351=EDGE_LOOP('',(#147,#148,#149,#150,#151));
#352=EDGE_LOOP('',(#152,#153,#154,#155));
#353=EDGE_LOOP('',(#156,#157,#158));
#354=EDGE_LOOP('',(#159,#160,#161,#162));
#355=EDGE_LOOP('',(#163,#164,#165,#166));
#356=EDGE_LOOP('',(#167,#168,#169,#170));
#357=EDGE_LOOP('',(#171,#172,#173,#174));
#358=EDGE_LOOP('',(#175,#176,#177));
#359=EDGE_LOOP('',(#178,#179,#180,#181));
#360=FACE_BOUND('',#336,.T.);
#361=FACE_BOUND('',#337,.T.);
#362=FACE_BOUND('',#338,.T.);
#363=FACE_BOUND('',#339,.T.);
#364=FACE_BOUND('',#340,.T.);
#365=FACE_BOUND('',#341,.T.);
#366=FACE_BOUND('',#342,.T.);
#367=FACE_BOUND('',#343,.T.);
#368=FACE_BOUND('',#344,.T.);
#369=FACE_BOUND('',#345,.T.);
#370=FACE_BOUND('',#346,.T.);
#371=FACE_BOUND('',#347,.T.);
#372=FACE_BOUND('',#348,.T.);
#373=FACE_BOUND('',#349,.T.);
#374=FACE_BOUND('',#350,.T.);
#375=FACE_BOUND('',#351,.T.);
#376=FACE_BOUND('',#352,.T.);
#377=FACE_BOUND('',#353,.T.);
#378=FACE_BOUND('',#354,.T.);
#379=FACE_BOUND('',#355,.T.);
#380=FACE_BOUND('',#356,.T.);
#381=FACE_BOUND('',#357,.T.);
#382=FACE_BOUND('',#358,.T.);
#383=FACE_BOUND('',#359,.T.);
#384=B_SPLINE_SURFACE_WITH_KNOTS('',3,1,((#550,#551),(#552,#553),(#554,
#555),(#556,#557),(#558,#559)),.SURF_OF_LINEAR_EXTRUSION.,.F.,.F.,.F.,(4,
1,4),(2,2),(-7.85527974545956E-16,0.5,1.),(0.,1.),.UNSPECIFIED.);
#385=B_SPLINE_SURFACE_WITH_KNOTS('',3,1,((#704,#705),(#706,#707),(#708,
#709),(#710,#711)),.SURF_OF_LINEAR_EXTRUSION.,.F.,.F.,.F.,(4,4),(2,2),(5.44301096313219,
5.70009844415269),(0.,1.),.PIECEWISE_BEZIER_KNOTS.);
#386=B_SPLINE_SURFACE_WITH_KNOTS('',3,1,((#752,#753),(#754,#755),(#756,
#757),(#758,#759),(#760,#761)),.SURF_OF_LINEAR_EXTRUSION.,.F.,.F.,.F.,(4,
1,4),(2,2),(0.17768102985537,0.558008078884248,0.938335127913126),(0.,1.),
 .UNSPECIFIED.);
#387=B_SPLINE_SURFACE_WITH_KNOTS('',3,1,((#842,#843),(#844,#845),(#846,
#847),(#848,#849)),.SURF_OF_LINEAR_EXTRUSION.,.F.,.F.,.F.,(4,4),(2,2),(5.53289545123851,
5.69982520697261),(0.,1.),.PIECEWISE_BEZIER_KNOTS.);
#388=ADVANCED_FACE('Face appearance 15',(#360),#384,.T.);
#389=ADVANCED_FACE('Face appearance 15',(#361),#42,.T.);
#390=ADVANCED_FACE('Face appearance 15',(#362),#43,.T.);
#391=ADVANCED_FACE('Face appearance 6',(#363),#17,.T.);
#392=ADVANCED_FACE('Face appearance 15',(#364),#18,.F.);
#393=ADVANCED_FACE('',(#365),#13,.T.);
#394=ADVANCED_FACE('',(#366),#19,.T.);
#395=ADVANCED_FACE('',(#367),#20,.T.);
#396=ADVANCED_FACE('',(#368),#21,.T.);
#397=ADVANCED_FACE('',(#369),#22,.T.);
#398=ADVANCED_FACE('',(#370),#23,.T.);
#399=ADVANCED_FACE('',(#371),#385,.F.);
#400=ADVANCED_FACE('',(#372),#44,.F.);
#401=ADVANCED_FACE('',(#373),#24,.F.);
#402=ADVANCED_FACE('',(#374),#386,.F.);
#403=ADVANCED_FACE('',(#375),#45,.F.);
#404=ADVANCED_FACE('',(#376),#25,.F.);
#405=ADVANCED_FACE('',(#377),#26,.T.);
#406=ADVANCED_FACE('',(#378),#14,.F.);
#407=ADVANCED_FACE('',(#379),#27,.F.);
#408=ADVANCED_FACE('',(#380),#28,.F.);
#409=ADVANCED_FACE('',(#381),#29,.F.);
#410=ADVANCED_FACE('',(#382),#30,.F.);
#411=ADVANCED_FACE('',(#383),#387,.T.);
#412=CLOSED_SHELL('',(#388,#389,#390,#391,#392,#393,#394,#395,#396,#397,
#398,#399));
#413=CLOSED_SHELL('',(#400,#401,#402,#403,#404,#405,#406,#407,#408,#409,
#410,#411));
#414=STYLED_ITEM('',(#415),#422);
#415=PRESENTATION_STYLE_ASSIGNMENT((#416));
#416=SURFACE_STYLE_USAGE(.BOTH.,#417);
#417=SURFACE_SIDE_STYLE('',(#418));
#418=SURFACE_STYLE_FILL_AREA(#419);
#419=FILL_AREA_STYLE('',(#420));
#420=FILL_AREA_STYLE_COLOUR('',#421);
#421=COLOUR_RGB('',0.458823529411765,0.105882352941176,0.);
#422=BREP_WITH_VOIDS('Part 11',#412,(#12));
#423=SHAPE_DEFINITION_REPRESENTATION(#856,#424);
#424=SHAPE_REPRESENTATION('Part 11',(#425),#851);
#425=AXIS2_PLACEMENT_3D('',#549,#457,#458);
#426=AXIS2_PLACEMENT_3D('',#603,#464,#465);
#427=AXIS2_PLACEMENT_3D('',#616,#467,#468);
#428=AXIS2_PLACEMENT_3D('',#620,#470,#471);
#429=AXIS2_PLACEMENT_3D('',#621,#472,#473);
#430=AXIS2_PLACEMENT_3D('',#622,#474,#475);
#431=AXIS2_PLACEMENT_3D('',#630,#476,#477);
#432=AXIS2_PLACEMENT_3D('',#631,#478,#479);
#433=AXIS2_PLACEMENT_3D('',#632,#480,#481);
#434=AXIS2_PLACEMENT_3D('',#638,#485,#486);
#435=AXIS2_PLACEMENT_3D('',#691,#487,#488);
#436=AXIS2_PLACEMENT_3D('',#697,#492,#493);
#437=AXIS2_PLACEMENT_3D('',#699,#495,#496);
#438=AXIS2_PLACEMENT_3D('',#701,#498,#499);
#439=AXIS2_PLACEMENT_3D('',#702,#500,#501);
#440=AXIS2_PLACEMENT_3D('',#703,#502,#503);
#441=AXIS2_PLACEMENT_3D('',#712,#504,#505);
#442=AXIS2_PLACEMENT_3D('',#713,#506,#507);
#443=AXIS2_PLACEMENT_3D('',#718,#509,#510);
#444=AXIS2_PLACEMENT_3D('',#722,#512,#513);
#445=AXIS2_PLACEMENT_3D('',#736,#515,#516);
#446=AXIS2_PLACEMENT_3D('',#740,#518,#519);
#447=AXIS2_PLACEMENT_3D('',#743,#521,#522);
#448=AXIS2_PLACEMENT_3D('',#751,#524,#525);
#449=AXIS2_PLACEMENT_3D('',#791,#530,#531);
#450=AXIS2_PLACEMENT_3D('',#792,#532,#533);
#451=AXIS2_PLACEMENT_3D('',#799,#534,#535);
#452=AXIS2_PLACEMENT_3D('',#805,#537,#538);
#453=AXIS2_PLACEMENT_3D('',#832,#539,#540);
#454=AXIS2_PLACEMENT_3D('',#834,#542,#543);
#455=AXIS2_PLACEMENT_3D('',#836,#545,#546);
#456=AXIS2_PLACEMENT_3D('',#837,#547,#548);
#457=DIRECTION('',(0.,0.,1.));
#458=DIRECTION('',(1.,0.,0.));
#459=DIRECTION('',(0.,0.,1.));
#460=DIRECTION('',(0.,0.,-1.));
#461=DIRECTION('',(0.,0.,-1.));
#462=DIRECTION('',(0.,0.,-1.));
#463=DIRECTION('',(0.,0.,-1.));
#464=DIRECTION('',(0.,0.,-1.));
#465=DIRECTION('',(-1.,0.,0.));
#466=DIRECTION('',(0.,0.,-1.));
#467=DIRECTION('',(0.,0.,1.));
#468=DIRECTION('',(1.,0.,0.));
#469=DIRECTION('',(0.,0.,-1.));
#470=DIRECTION('',(0.,0.,1.));
#471=DIRECTION('',(1.,0.,0.));
#472=DIRECTION('',(0.,0.,-1.));
#473=DIRECTION('',(-1.,0.,0.));
#474=DIRECTION('',(0.,0.,1.));
#475=DIRECTION('',(1.,0.,0.));
#476=DIRECTION('',(0.,0.,1.));
#477=DIRECTION('',(1.,0.,0.));
#478=DIRECTION('',(0.,0.,1.));
#479=DIRECTION('',(1.,0.,0.));
#480=DIRECTION('',(0.,0.,1.));
#481=DIRECTION('',(0.987638729782156,-0.156747374569046,0.));
#482=DIRECTION('',(-1.,0.,0.));
#483=DIRECTION('',(0.,1.,0.));
#484=DIRECTION('',(1.,0.,0.));
#485=DIRECTION('',(0.,0.,1.));
#486=DIRECTION('',(1.,0.,0.));
#487=DIRECTION('',(-1.,0.,0.));
#488=DIRECTION('',(0.,0.,1.));
#489=DIRECTION('',(0.,1.,0.));
#490=DIRECTION('',(0.,0.,-1.));
#491=DIRECTION('',(0.,0.,-1.));
#492=DIRECTION('',(0.,1.,0.));
#493=DIRECTION('',(0.,0.,1.));
#494=DIRECTION('',(1.,0.,0.));
#495=DIRECTION('',(0.,-1.,0.));
#496=DIRECTION('',(0.,0.,-1.));
#497=DIRECTION('',(-1.,0.,0.));
#498=DIRECTION('',(0.,0.,1.));
#499=DIRECTION('',(1.,0.,0.));
#500=DIRECTION('',(0.,0.,1.));
#501=DIRECTION('',(1.,0.,0.));
#502=DIRECTION('',(0.,0.,1.));
#503=DIRECTION('',(0.987638729782156,-0.156747374569046,0.));
#504=DIRECTION('',(0.,0.,-1.));
#505=DIRECTION('',(-1.,0.,0.));
#506=DIRECTION('',(0.,0.,1.));
#507=DIRECTION('',(1.,0.,0.));
#508=DIRECTION('',(0.,0.,-1.));
#509=DIRECTION('',(0.,0.,1.));
#510=DIRECTION('',(1.,0.,0.));
#511=DIRECTION('',(0.,0.,-1.));
#512=DIRECTION('',(0.,0.,1.));
#513=DIRECTION('',(1.,0.,0.));
#514=DIRECTION('',(0.,0.,-1.));
#515=DIRECTION('',(0.,0.,1.));
#516=DIRECTION('',(1.,0.,0.));
#517=DIRECTION('',(0.,0.,1.));
#518=DIRECTION('',(0.,0.,1.));
#519=DIRECTION('',(1.,0.,0.));
#520=DIRECTION('',(0.,0.,-1.));
#521=DIRECTION('',(0.,0.,1.));
#522=DIRECTION('',(1.,0.,0.));
#523=DIRECTION('',(0.,1.,0.));
#524=DIRECTION('',(0.,0.,1.));
#525=DIRECTION('',(1.,0.,0.));
#526=DIRECTION('',(0.,0.,1.));
#527=DIRECTION('',(0.,0.,-1.));
#528=DIRECTION('',(0.,0.,-1.));
#529=DIRECTION('',(0.,0.,-1.));
#530=DIRECTION('',(0.,0.,-1.));
#531=DIRECTION('',(-1.,0.,0.));
#532=DIRECTION('',(0.,0.,1.));
#533=DIRECTION('',(1.,0.,0.));
#534=DIRECTION('',(0.,0.,1.));
#535=DIRECTION('',(1.,0.,0.));
#536=DIRECTION('',(1.,0.,0.));
#537=DIRECTION('',(0.,0.,1.));
#538=DIRECTION('',(1.,0.,0.));
#539=DIRECTION('',(-1.,0.,0.));
#540=DIRECTION('',(0.,0.,1.));
#541=DIRECTION('',(0.,1.,0.));
#542=DIRECTION('',(0.,1.,0.));
#543=DIRECTION('',(0.,0.,1.));
#544=DIRECTION('',(1.,0.,0.));
#545=DIRECTION('',(0.,0.,1.));
#546=DIRECTION('',(1.,0.,0.));
#547=DIRECTION('',(0.,0.,1.));
#548=DIRECTION('',(1.,0.,0.));
#549=CARTESIAN_POINT('',(0.,0.,0.));
#550=CARTESIAN_POINT('',(0.143286641102949,-0.136664684605791,0.02));
#551=CARTESIAN_POINT('',(0.143286641102949,-0.136664684605791,-0.029));
#552=CARTESIAN_POINT('',(0.149405765628098,-0.134268744708329,0.02));
#553=CARTESIAN_POINT('',(0.149405765628098,-0.134268744708329,-0.029));
#554=CARTESIAN_POINT('',(0.16155449248967,-0.129050010015525,0.02));
#555=CARTESIAN_POINT('',(0.16155449248967,-0.129050010015525,-0.029));
#556=CARTESIAN_POINT('',(0.170165194998569,-0.12178849781024,0.02));
#557=CARTESIAN_POINT('',(0.170165194998569,-0.12178849781024,-0.029));
#558=CARTESIAN_POINT('',(0.17403192104235,-0.117104082281395,0.02));
#559=CARTESIAN_POINT('',(0.17403192104235,-0.117104082281395,-0.029));
#560=CARTESIAN_POINT('',(0.161331843654084,-0.128136372215718,0.01));
#561=CARTESIAN_POINT('',(0.161331843654083,-0.128136372215718,0.02));
#562=CARTESIAN_POINT('',(0.161331843654083,-0.128136372215718,0.01));
#563=CARTESIAN_POINT('',(0.143286641102949,-0.136664684605791,0.02));
#564=CARTESIAN_POINT('',(0.149667123286775,-0.134166410258465,0.02));
#565=CARTESIAN_POINT('',(0.161785651318413,-0.128934484513294,0.02));
#566=CARTESIAN_POINT('',(0.170330349092328,-0.121588418882306,0.02));
#567=CARTESIAN_POINT('',(0.17403192104235,-0.117104082281395,0.02));
#568=CARTESIAN_POINT('',(0.163283451079218,-0.126875877380371,0.02));
#569=CARTESIAN_POINT('',(0.16328345108197,-0.126875877380371,0.02));
#570=CARTESIAN_POINT('',(0.16328345108197,-0.126875877380371,0.01));
#571=CARTESIAN_POINT('',(0.143286641102949,-0.136664684605791,0.01));
#572=CARTESIAN_POINT('',(0.149667123286775,-0.134166410258465,0.01));
#573=CARTESIAN_POINT('',(0.161785651318413,-0.128934484513294,0.01));
#574=CARTESIAN_POINT('',(0.170330349092328,-0.121588418882306,0.01));
#575=CARTESIAN_POINT('',(0.17403192104235,-0.117104082281395,0.01));
#576=CARTESIAN_POINT('',(0.169981819032814,-0.121479776307754,0.01));
#577=CARTESIAN_POINT('',(0.169981819032814,-0.121479776307754,0.02));
#578=CARTESIAN_POINT('',(0.169981819027337,-0.121479776307754,0.02));
#579=CARTESIAN_POINT('',(0.143286641102949,-0.136664684605791,0.02));
#580=CARTESIAN_POINT('',(0.149667123286775,-0.134166410258465,0.02));
#581=CARTESIAN_POINT('',(0.161785651318413,-0.128934484513294,0.02));
#582=CARTESIAN_POINT('',(0.170330349092328,-0.121588418882306,0.02));
#583=CARTESIAN_POINT('',(0.17403192104235,-0.117104082281395,0.02));
#584=CARTESIAN_POINT('',(0.17403192104235,-0.117104082281395,0.02));
#585=CARTESIAN_POINT('',(0.17403192104235,-0.117104082281395,0.02));
#586=CARTESIAN_POINT('',(0.17403192104235,-0.117104082281395,-0.029));
#587=CARTESIAN_POINT('',(0.17403192104235,-0.117104082281395,-0.029));
#588=CARTESIAN_POINT('',(0.172067384185162,-0.119484053540597,-0.029));
#589=CARTESIAN_POINT('',(0.168826100582597,-0.122779243975406,-0.029));
#590=CARTESIAN_POINT('',(0.163972183480668,-0.126484268310902,-0.029));
#591=CARTESIAN_POINT('',(0.158760181206981,-0.129786999672326,-0.029));
#592=CARTESIAN_POINT('',(0.151858484356404,-0.133205963909297,-0.029));
#593=CARTESIAN_POINT('',(0.146155232286862,-0.135541489279597,-0.029));
#594=CARTESIAN_POINT('',(0.143286641102949,-0.136664684605791,-0.029));
#595=CARTESIAN_POINT('',(0.143286641102949,-0.136664684605791,-0.029));
#596=CARTESIAN_POINT('',(0.143286641102949,-0.136664684605791,0.02));
#597=CARTESIAN_POINT('',(0.143286641102949,-0.136664684605791,0.01));
#598=CARTESIAN_POINT('',(0.143286641102949,-0.136664684605791,0.01));
#599=CARTESIAN_POINT('',(0.149667123286775,-0.134166410258465,0.01));
#600=CARTESIAN_POINT('',(0.161785651318413,-0.128934484513294,0.01));
#601=CARTESIAN_POINT('',(0.170330349092328,-0.121588418882306,0.01));
#602=CARTESIAN_POINT('',(0.17403192104235,-0.117104082281395,0.01));
#603=CARTESIAN_POINT('',(0.154133154072416,-0.107872002671114,0.02));
#604=CARTESIAN_POINT('',(0.143286641102949,-0.136664684605791,0.02));
#605=CARTESIAN_POINT('',(0.143286641102949,-0.136664684605791,0.02));
#606=CARTESIAN_POINT('',(0.143286641102949,-0.136664684605791,-0.029));
#607=CARTESIAN_POINT('',(0.143286641102949,-0.136664684605791,-0.0295895604439365));
#608=CARTESIAN_POINT('',(0.143531792367708,-0.136758710271898,-0.0307428309269223));
#609=CARTESIAN_POINT('',(0.144501011152842,-0.13710215886787,-0.0321985853515291));
#610=CARTESIAN_POINT('',(0.145831016020777,-0.137511273920721,-0.0332718359193514));
#611=CARTESIAN_POINT('',(0.14786651058596,-0.138029297870761,-0.0342709909422867));
#612=CARTESIAN_POINT('',(0.15068650392758,-0.138511521072255,-0.0348914577316594));
#613=CARTESIAN_POINT('',(0.152976017026452,-0.138640079487415,-0.035));
#614=CARTESIAN_POINT('',(0.15413711155591,-0.138639930143185,-0.035));
#615=CARTESIAN_POINT('',(0.15413711155591,-0.138639930143185,-0.035));
#616=CARTESIAN_POINT('',(0.154133154072416,-0.107872002671114,-0.035));
#617=CARTESIAN_POINT('',(0.180709117922355,-0.123376309235261,-0.035));
#618=CARTESIAN_POINT('',(0.180709117922355,-0.123376309235261,0.02));
#619=CARTESIAN_POINT('',(0.180709117922355,-0.123376309235261,0.02));
#620=CARTESIAN_POINT('',(0.154133154072416,-0.107872002671114,0.02));
#621=CARTESIAN_POINT('',(0.135128950782926,-0.165209115537685,0.02));
#622=CARTESIAN_POINT('',(0.135128950782926,-0.165209115537685,-0.035));
#623=CARTESIAN_POINT('',(0.178511674812794,-0.121101581313443,-0.035));
#624=CARTESIAN_POINT('',(0.178511674812794,-0.121101581313443,-0.035));
#625=CARTESIAN_POINT('',(0.177946447626417,-0.120545642391169,-0.035));
#626=CARTESIAN_POINT('',(0.176811451937354,-0.119473154247056,-0.0346888145067356));
#627=CARTESIAN_POINT('',(0.174800329909076,-0.117710778675205,-0.0329129225104089));
#628=CARTESIAN_POINT('',(0.17403192104235,-0.117104082281395,-0.030585655484719));
#629=CARTESIAN_POINT('',(0.17403192104235,-0.117104082281395,-0.029));
#630=CARTESIAN_POINT('',(0.135128950782926,-0.165209115537685,0.02));
#631=CARTESIAN_POINT('',(0.218029362888731,-0.120463024231546,0.02));
#632=CARTESIAN_POINT('',(0.0851591126763599,-0.08374,0.02));
#633=CARTESIAN_POINT('',(0.170838265637577,-0.121479776307754,0.02));
#634=CARTESIAN_POINT('',(0.171757325530052,-0.121479776307754,0.02));
#635=CARTESIAN_POINT('',(0.171757325530052,-0.124177826844062,0.02));
#636=CARTESIAN_POINT('',(0.171757325530052,-0.126875877380371,0.02));
#637=CARTESIAN_POINT('',(0.167489226600414,-0.126875877380371,0.02));
#638=CARTESIAN_POINT('',(0.218029362888731,-0.120463024231546,-0.035));
#639=CARTESIAN_POINT('',(0.15413711155591,-0.138639930143185,-0.035));
#640=CARTESIAN_POINT('',(0.156447615852754,-0.137598479792501,-0.035));
#641=CARTESIAN_POINT('',(0.161001933309709,-0.135391764747026,-0.035));
#642=CARTESIAN_POINT('',(0.167523654799785,-0.131441146712757,-0.035));
#643=CARTESIAN_POINT('',(0.173402791251851,-0.126737443296584,-0.035));
#644=CARTESIAN_POINT('',(0.176888406573904,-0.123053059993458,-0.035));
#645=CARTESIAN_POINT('',(0.178511674812794,-0.121101581313443,-0.035));
#646=CARTESIAN_POINT('',(0.17881483690906,-0.120734995052346,-0.035));
#647=CARTESIAN_POINT('',(0.174187607551213,-0.11691547303122,-0.035));
#648=CARTESIAN_POINT('',(0.174187607551213,-0.11691547303122,-0.029));
#649=CARTESIAN_POINT('',(0.178545913611963,-0.121060787067274,-0.035));
#650=CARTESIAN_POINT('',(0.173918684254453,-0.11724126504637,-0.0350000000000497));
#651=CARTESIAN_POINT('',(0.173918684254117,-0.117241265046149,-0.029));
#652=CARTESIAN_POINT('',(0.178005394724684,-0.121709984848856,-0.035));
#653=CARTESIAN_POINT('',(0.173447433277033,-0.11780708632178,-0.0349999999999775));
#654=CARTESIAN_POINT('',(0.173447433277184,-0.11780708632188,-0.029));
#655=CARTESIAN_POINT('',(0.176892853503862,-0.122983542611461,-0.035));
#656=CARTESIAN_POINT('',(0.172440099385188,-0.118960685560902,-0.035000000000013));
#657=CARTESIAN_POINT('',(0.1724400993851,-0.118960685560844,-0.029));
#658=CARTESIAN_POINT('',(0.175454664798977,-0.124527284831769,-0.035));
#659=CARTESIAN_POINT('',(0.171157206442955,-0.120337068772274,-0.0349999999999956));
#660=CARTESIAN_POINT('',(0.171157206442984,-0.120337068772294,-0.029));
#661=CARTESIAN_POINT('',(0.173657050210411,-0.126289611796909,-0.035));
#662=CARTESIAN_POINT('',(0.169553352644205,-0.121909630030761,-0.0350000000000012));
#663=CARTESIAN_POINT('',(0.169553352644198,-0.121909630030756,-0.029));
#664=CARTESIAN_POINT('',(0.171161252004608,-0.128522379647237,-0.035));
#665=CARTESIAN_POINT('',(0.167331462661014,-0.123897244403282,-0.0349999999999993));
#666=CARTESIAN_POINT('',(0.167331462661019,-0.123897244403285,-0.029));
#667=CARTESIAN_POINT('',(0.167861315806675,-0.131091270245364,-0.035));
#668=CARTESIAN_POINT('',(0.164385661838494,-0.126191043122366,-0.0350000000000002));
#669=CARTESIAN_POINT('',(0.164385661838492,-0.126191043122365,-0.029));
#670=CARTESIAN_POINT('',(0.16360895559825,-0.133845333168261,-0.035));
#671=CARTESIAN_POINT('',(0.160551217549628,-0.128676625801724,-0.0349999999999999));
#672=CARTESIAN_POINT('',(0.160551217549628,-0.128676625801724,-0.029));
#673=CARTESIAN_POINT('',(0.159170296286787,-0.136275603099223,-0.035));
#674=CARTESIAN_POINT('',(0.15644477731672,-0.130927258143728,-0.035));
#675=CARTESIAN_POINT('',(0.156444777316721,-0.130927258143728,-0.029));
#676=CARTESIAN_POINT('',(0.154605438005262,-0.13846442289771,-0.035));
#677=CARTESIAN_POINT('',(0.152129383379664,-0.1329974260397,-0.035));
#678=CARTESIAN_POINT('',(0.152129383379662,-0.132997426039699,-0.029));
#679=CARTESIAN_POINT('',(0.150730927987816,-0.140137034479489,-0.035));
#680=CARTESIAN_POINT('',(0.148410226404757,-0.13460366724944,-0.035));
#681=CARTESIAN_POINT('',(0.148410226404762,-0.134603667249442,-0.029));
#682=CARTESIAN_POINT('',(0.147606290374711,-0.14141184537645,-0.035));
#683=CARTESIAN_POINT('',(0.145368129055544,-0.135844742516556,-0.035));
#684=CARTESIAN_POINT('',(0.145368129055537,-0.135844742516553,-0.029));
#685=CARTESIAN_POINT('',(0.1460364161838,-0.142031550691064,-0.035));
#686=CARTESIAN_POINT('',(0.143848832550382,-0.136444558848672,-0.035));
#687=CARTESIAN_POINT('',(0.143848832550398,-0.13644455884868,-0.029));
#688=CARTESIAN_POINT('',(0.145250590569374,-0.142339240285272,-0.035));
#689=CARTESIAN_POINT('',(0.143063006935972,-0.136752248442888,-0.035));
#690=CARTESIAN_POINT('',(0.143063006935972,-0.136752248442888,-0.029));
#691=CARTESIAN_POINT('',(0.171757325530052,-0.124177826844062,0.02));
#692=CARTESIAN_POINT('',(0.171757325530052,-0.124177826844062,0.01));
#693=CARTESIAN_POINT('',(0.171757325530052,-0.126875877380371,0.01));
#694=CARTESIAN_POINT('',(0.171757325530052,-0.121479776307754,0.01));
#695=CARTESIAN_POINT('',(0.171757325530052,-0.126875877380371,0.02));
#696=CARTESIAN_POINT('',(0.171757325530052,-0.121479776307754,0.02));
#697=CARTESIAN_POINT('',(0.167489226600414,-0.126875877380371,0.02));
#698=CARTESIAN_POINT('',(0.167489226600414,-0.126875877380371,0.01));
#699=CARTESIAN_POINT('',(0.170838265637577,-0.121479776307754,0.02));
#700=CARTESIAN_POINT('',(0.170838265637577,-0.121479776307754,0.01));
#701=CARTESIAN_POINT('',(0.0851591126763599,-0.08374,0.01));
#702=CARTESIAN_POINT('',(0.0851591126763599,-0.08374,0.01));
#703=CARTESIAN_POINT('',(0.0851591126763599,-0.08374,0.01));
#704=CARTESIAN_POINT('',(0.143286641102949,-0.136664684605791,0.01));
#705=CARTESIAN_POINT('',(0.143286641102949,-0.136664684605791,0.02));
#706=CARTESIAN_POINT('',(0.150012346502921,-0.134376588522386,0.01));
#707=CARTESIAN_POINT('',(0.150012346502921,-0.134376588522386,0.02));
#708=CARTESIAN_POINT('',(0.156093747076316,-0.131502468173107,0.01));
#709=CARTESIAN_POINT('',(0.156093747076316,-0.131502468173107,0.02));
#710=CARTESIAN_POINT('',(0.161331843654083,-0.128136372215718,0.01));
#711=CARTESIAN_POINT('',(0.161331843654083,-0.128136372215718,0.02));
#712=CARTESIAN_POINT('',(0.154133154072416,-0.107872002671114,0.02));
#713=CARTESIAN_POINT('',(0.154133154072416,-0.107872002671114,0.0077));
#714=CARTESIAN_POINT('',(0.173016157843487,-0.129175877380371,0.0077));
#715=CARTESIAN_POINT('',(0.174057325530052,-0.12820548001201,0.0077));
#716=CARTESIAN_POINT('',(0.174057325530052,-0.12820548001201,0.02));
#717=CARTESIAN_POINT('',(0.174057325530052,-0.12820548001201,0.0177));
#718=CARTESIAN_POINT('',(0.154133154072416,-0.107872002671114,0.0177));
#719=CARTESIAN_POINT('',(0.177818252641625,-0.1236656410997,0.0177));
#720=CARTESIAN_POINT('',(0.177818252641625,-0.1236656410997,0.0177));
#721=CARTESIAN_POINT('',(0.177818252641625,-0.1236656410997,-0.0327));
#722=CARTESIAN_POINT('',(0.154133154072416,-0.107872002671114,-0.0327));
#723=CARTESIAN_POINT('',(0.160204836599669,-0.135684905797797,-0.0327));
#724=CARTESIAN_POINT('',(0.150665226936188,-0.136127911618161,-0.029));
#725=CARTESIAN_POINT('',(0.150665226936188,-0.136127911618161,-0.0294715735226756));
#726=CARTESIAN_POINT('',(0.151040853248104,-0.13617598366508,-0.0303706272296021));
#727=CARTESIAN_POINT('',(0.15214080959747,-0.13627885556513,-0.0312641378400167));
#728=CARTESIAN_POINT('',(0.153400650264845,-0.136340498551947,-0.0318479086204358));
#729=CARTESIAN_POINT('',(0.155187651478174,-0.136345474069869,-0.0323581317010603));
#730=CARTESIAN_POINT('',(0.157469983903978,-0.136188836761407,-0.0326500176127249));
#731=CARTESIAN_POINT('',(0.159299737043384,-0.135882493123949,-0.0327));
#732=CARTESIAN_POINT('',(0.160204836599669,-0.135684905797797,-0.0327));
#733=CARTESIAN_POINT('',(0.150665226936188,-0.136127911618161,-0.029));
#734=CARTESIAN_POINT('',(0.150665226936188,-0.136127911618161,-0.0095));
#735=CARTESIAN_POINT('',(0.150665226936188,-0.136127911618161,0.0077));
#736=CARTESIAN_POINT('',(0.154133154072416,-0.107872002671114,0.0077));
#737=CARTESIAN_POINT('',(0.151004892276637,-0.136167530359833,0.0077));
#738=CARTESIAN_POINT('',(0.151004892276637,-0.136167530359833,0.015));
#739=CARTESIAN_POINT('',(0.151004892276637,-0.136167530359833,0.0177));
#740=CARTESIAN_POINT('',(0.154133154072416,-0.107872002671114,0.0177));
#741=CARTESIAN_POINT('',(0.173016157843487,-0.129175877380371,0.0177));
#742=CARTESIAN_POINT('',(0.173016157843487,-0.129175877380371,0.02));
#743=CARTESIAN_POINT('',(0.218029362888731,-0.120463024231546,0.0177));
#744=CARTESIAN_POINT('',(0.174057325530052,-0.124177826844062,0.0177));
#745=CARTESIAN_POINT('',(0.174057325530052,-0.120586874150234,0.0177));
#746=CARTESIAN_POINT('',(0.174292568262952,-0.120326515039934,0.0177));
#747=CARTESIAN_POINT('',(0.174214444170201,-0.120413543906516,0.0177));
#748=CARTESIAN_POINT('',(0.174136030696619,-0.12050033092075,0.0177));
#749=CARTESIAN_POINT('',(0.174057325530044,-0.120586874150227,0.0177));
#750=CARTESIAN_POINT('',(0.174292568262953,-0.120326515039934,0.0177));
#751=CARTESIAN_POINT('',(0.135128950782926,-0.165209115537685,0.0177));
#752=CARTESIAN_POINT('',(0.150665226936188,-0.136127911618161,0.0177));
#753=CARTESIAN_POINT('',(0.150665226936188,-0.136127911618161,-0.029));
#754=CARTESIAN_POINT('',(0.155282216014823,-0.134131617903713,0.0177));
#755=CARTESIAN_POINT('',(0.155282216014823,-0.134131617903713,-0.029));
#756=CARTESIAN_POINT('',(0.164188973147813,-0.129730734132885,0.0177));
#757=CARTESIAN_POINT('',(0.164188973147813,-0.129730734132885,-0.029));
#758=CARTESIAN_POINT('',(0.171132634711848,-0.123846625491725,0.0177));
#759=CARTESIAN_POINT('',(0.171132634711848,-0.123846625491725,-0.029));
#760=CARTESIAN_POINT('',(0.174292568262953,-0.120326515039934,0.0177));
#761=CARTESIAN_POINT('',(0.174292568262953,-0.120326515039934,-0.029));
#762=CARTESIAN_POINT('',(0.162557983232161,-0.13008239107596,0.0177));
#763=CARTESIAN_POINT('',(0.162557983232161,-0.13008239107596,0.0177));
#764=CARTESIAN_POINT('',(0.162557983232157,-0.130082391075962,0.0077));
#765=CARTESIAN_POINT('',(0.150665226936188,-0.136127911618161,0.00770000000000001));
#766=CARTESIAN_POINT('',(0.154751666865789,-0.134361016742087,0.00770000000000001));
#767=CARTESIAN_POINT('',(0.158766829634581,-0.1324257353568,0.0077));
#768=CARTESIAN_POINT('',(0.162557983232157,-0.130082391075963,0.0077));
#769=CARTESIAN_POINT('',(0.174292568262953,-0.120326515039934,-0.029));
#770=CARTESIAN_POINT('',(0.172688879587368,-0.122112996045641,-0.029));
#771=CARTESIAN_POINT('',(0.169275903923023,-0.125434758006096,-0.029));
#772=CARTESIAN_POINT('',(0.163506207645296,-0.129657830234338,-0.029));
#773=CARTESIAN_POINT('',(0.157215244200586,-0.133173719989032,-0.029));
#774=CARTESIAN_POINT('',(0.152865073561315,-0.135176741945525,-0.029));
#775=CARTESIAN_POINT('',(0.150665226936188,-0.136127911618161,-0.029));
#776=CARTESIAN_POINT('',(0.174292568262953,-0.120326515039934,-0.029));
#777=CARTESIAN_POINT('',(0.174292568262953,-0.120326515039934,0.0177));
#778=CARTESIAN_POINT('',(0.174057325530045,-0.120586874150234,0.0077));
#779=CARTESIAN_POINT('',(0.174057325530045,-0.120586874150234,0.0077));
#780=CARTESIAN_POINT('',(0.163979755925643,-0.129175877380371,0.0077));
#781=CARTESIAN_POINT('',(0.167703982876772,-0.126726038043497,0.0077));
#782=CARTESIAN_POINT('',(0.171070419521071,-0.123871239121546,0.0077));
#783=CARTESIAN_POINT('',(0.174057325530042,-0.12058687415023,0.0077));
#784=CARTESIAN_POINT('',(0.163979755925643,-0.129175877380371,0.0077));
#785=CARTESIAN_POINT('',(0.163979755925643,-0.129175877380371,0.0177));
#786=CARTESIAN_POINT('',(0.163979755925643,-0.129175877380371,0.0177));
#787=CARTESIAN_POINT('',(0.162557983232161,-0.13008239107596,0.0177));
#788=CARTESIAN_POINT('',(0.163036130931839,-0.129786843916342,0.0177));
#789=CARTESIAN_POINT('',(0.163510135686309,-0.129484798976936,0.0177));
#790=CARTESIAN_POINT('',(0.163979755925643,-0.129175877380371,0.0177));
#791=CARTESIAN_POINT('',(0.135128950782926,-0.165209115537685,0.02));
#792=CARTESIAN_POINT('',(0.135128950782926,-0.165209115537685,-0.0327));
#793=CARTESIAN_POINT('',(0.177003903619549,-0.122844919729276,-0.0327));
#794=CARTESIAN_POINT('',(0.177003903619549,-0.122844919729276,-0.0327));
#795=CARTESIAN_POINT('',(0.176308798237985,-0.122157841773139,-0.0327));
#796=CARTESIAN_POINT('',(0.174906472590629,-0.120852421702469,-0.0318965068964738));
#797=CARTESIAN_POINT('',(0.174292568262953,-0.120326515039934,-0.0299773705605235));
#798=CARTESIAN_POINT('',(0.174292568262953,-0.120326515039934,-0.029));
#799=CARTESIAN_POINT('',(0.218029362888731,-0.120463024231546,0.0177));
#800=CARTESIAN_POINT('',(0.151004892276637,-0.136167530359833,0.0177));
#801=CARTESIAN_POINT('',(0.155016452692408,-0.134443928965686,0.0177));
#802=CARTESIAN_POINT('',(0.158882000184643,-0.132443111141874,0.0177));
#803=CARTESIAN_POINT('',(0.162557983232161,-0.13008239107596,0.0177));
#804=CARTESIAN_POINT('',(0.167489226600414,-0.129175877380371,0.0177));
#805=CARTESIAN_POINT('',(0.218029362888731,-0.120463024231546,-0.0327));
#806=CARTESIAN_POINT('',(0.160204836599669,-0.135684905797797,-0.0327));
#807=CARTESIAN_POINT('',(0.163350636634665,-0.134017462199918,-0.0327));
#808=CARTESIAN_POINT('',(0.169428164718886,-0.130271239586261,-0.0327));
#809=CARTESIAN_POINT('',(0.17462055735095,-0.125494152653589,-0.0327));
#810=CARTESIAN_POINT('',(0.177003903619549,-0.122844919729276,-0.0327));
#811=CARTESIAN_POINT('',(0.177172036496616,-0.122657213613961,-0.0327));
#812=CARTESIAN_POINT('',(0.174410662546691,-0.12019452932468,-0.0327));
#813=CARTESIAN_POINT('',(0.174410662546691,-0.12019452932468,-0.029));
#814=CARTESIAN_POINT('',(0.175464756431104,-0.124571563220441,-0.0327));
#815=CARTESIAN_POINT('',(0.172811657566972,-0.121987471560383,-0.0326999999992071));
#816=CARTESIAN_POINT('',(0.172811657571727,-0.121987471563716,-0.0289999999999867));
#817=CARTESIAN_POINT('',(0.171827657315135,-0.128136216603514,-0.0327));
#818=CARTESIAN_POINT('',(0.169421740989543,-0.125308648177936,-0.0327000000003661));
#819=CARTESIAN_POINT('',(0.169421740987353,-0.125308648176416,-0.0290000000000073));
#820=CARTESIAN_POINT('',(0.165683036302744,-0.132671169702159,-0.0327));
#821=CARTESIAN_POINT('',(0.163687023063572,-0.129544549095707,-0.032699999999908));
#822=CARTESIAN_POINT('',(0.163687023064104,-0.129544549096024,-0.0289999999999945));
#823=CARTESIAN_POINT('',(0.158967961532161,-0.136444641705207,-0.0327));
#824=CARTESIAN_POINT('',(0.15730909443048,-0.133132901026266,-0.0327000000000021));
#825=CARTESIAN_POINT('',(0.157309094430539,-0.133132901026515,-0.0290000000000149));
#826=CARTESIAN_POINT('',(0.154317344852584,-0.138583013884315,-0.0327));
#827=CARTESIAN_POINT('',(0.152797295334328,-0.135209126443296,-0.0327000000000565));
#828=CARTESIAN_POINT('',(0.152797295333835,-0.135209126442503,-0.0289999999999689));
#829=CARTESIAN_POINT('',(0.151966430599958,-0.139596232477777,-0.0327));
#830=CARTESIAN_POINT('',(0.150501991843353,-0.136198377400209,-0.0327));
#831=CARTESIAN_POINT('',(0.150501991843353,-0.136198377400209,-0.029));
#832=CARTESIAN_POINT('',(0.174057325530052,-0.124177826844062,0.02));
#833=CARTESIAN_POINT('',(0.174057325530052,-0.124177826844062,0.0077));
#834=CARTESIAN_POINT('',(0.167489226600414,-0.129175877380371,0.02));
#835=CARTESIAN_POINT('',(0.167489226600414,-0.129175877380371,0.0077));
#836=CARTESIAN_POINT('',(0.0851591126763599,-0.08374,0.0077));
#837=CARTESIAN_POINT('',(0.0851591126763599,-0.08374,0.0077));
#838=CARTESIAN_POINT('',(0.151004892276637,-0.136167530359833,0.0077));
#839=CARTESIAN_POINT('',(0.155006406055626,-0.134448245589485,0.0077));
#840=CARTESIAN_POINT('',(0.15888986067762,-0.132438063125259,0.0077));
#841=CARTESIAN_POINT('',(0.162557983232157,-0.130082391075963,0.0077));
#842=CARTESIAN_POINT('',(0.151004892276637,-0.136167530359833,0.0077));
#843=CARTESIAN_POINT('',(0.151004892276637,-0.136167530359833,0.0177));
#844=CARTESIAN_POINT('',(0.155170433794488,-0.134377769662395,0.0077));
#845=CARTESIAN_POINT('',(0.155170433794488,-0.134377769662395,0.0177));
#846=CARTESIAN_POINT('',(0.159039316956708,-0.132342082150249,0.0077));
#847=CARTESIAN_POINT('',(0.159039316956708,-0.132342082150249,0.0177));
#848=CARTESIAN_POINT('',(0.162557983232161,-0.13008239107596,0.0077));
#849=CARTESIAN_POINT('',(0.162557983232161,-0.13008239107596,0.0177));
#850=MECHANICAL_DESIGN_GEOMETRIC_PRESENTATION_REPRESENTATION('',(#414),
#851);
#851=(
GEOMETRIC_REPRESENTATION_CONTEXT(3)
GLOBAL_UNCERTAINTY_ASSIGNED_CONTEXT((#852))
GLOBAL_UNIT_ASSIGNED_CONTEXT((#855,#854,#853))
REPRESENTATION_CONTEXT('Part 11','TOP_LEVEL_ASSEMBLY_PART')
);
#852=UNCERTAINTY_MEASURE_WITH_UNIT(LENGTH_MEASURE(2.E-5),#855,
'DISTANCE_ACCURACY_VALUE','Maximum Tolerance applied to model');
#853=(
NAMED_UNIT(*)
SI_UNIT($,.STERADIAN.)
SOLID_ANGLE_UNIT()
);
#854=(
NAMED_UNIT(*)
PLANE_ANGLE_UNIT()
SI_UNIT($,.RADIAN.)
);
#855=(
LENGTH_UNIT()
NAMED_UNIT(*)
SI_UNIT($,.METRE.)
);
#856=PRODUCT_DEFINITION_SHAPE('','',#857);
#857=PRODUCT_DEFINITION('','',#859,#858);
#858=PRODUCT_DEFINITION_CONTEXT('',#865,'design');
#859=PRODUCT_DEFINITION_FORMATION_WITH_SPECIFIED_SOURCE('','',#861,
 .NOT_KNOWN.);
#860=PRODUCT_RELATED_PRODUCT_CATEGORY('','',(#861));
#861=PRODUCT('Part 11','Part 11','Part 11',(#863));
#862=PRODUCT_CATEGORY('','');
#863=PRODUCT_CONTEXT('',#865,'mechanical');
#864=APPLICATION_PROTOCOL_DEFINITION('international standard',
'ap242_managed_model_based_3d_engineering',2020,#865);
#865=APPLICATION_CONTEXT('managed model based 3d engineering');
ENDSEC;
END-ISO-10303-21;
