ISO-10303-21;
HEADER;
/* Generated by software containing ST-Developer
 * from STEP Tools, Inc. (www.steptools.com) 
 */
/* OPTION: using custom renumber hook */

FILE_DESCRIPTION(
/* description */ ('STEP AP242 Edition 2',
'CAx-IF Rec.Pracs.---Representation and Presentation of Product Manufa
cturing Information (PMI)---4.0---2014-10-13',
'CAx-IF Rec.Pracs.---3D Tessellated Geometry---0.4---2014-09-14','2;1',
'CAx-IF Rec.Pracs.---User Defined Attributes---1.5---2016-08-15'),
/* implementation_level */ '2;1');

FILE_NAME(
/* name */ 'Part Studio 1 - Part 1',
/* time_stamp */ '2026-06-18T16:33:34Z',
/* author */ (''),
/* organization */ (''),
/* preprocessor_version */ 'ST-DEVELOPER v20',
/* originating_system */ 'ONSHAPE BY PTC INC, 1.216',
/* authorisation */ '  ');

FILE_SCHEMA (('AP242_MANAGED_MODEL_BASED_3D_ENGINEERING_MIM_LF { 1 0 10303 442 3 1 4 }'));
ENDSEC;

DATA;
#10=SHAPE_REPRESENTATION_RELATIONSHIP('','',#329,#11);
#11=ADVANCED_BREP_SHAPE_REPRESENTATION('',(#327),#643);
#12=ORIENTED_CLOSED_SHELL('',*,#318,.F.);
#13=TOROIDAL_SURFACE('',#351,0.0463794368703526,0.006);
#14=TOROIDAL_SURFACE('',#352,0.0199461489834293,0.006);
#15=TOROIDAL_SURFACE('',#353,0.0409031697332331,0.006);
#16=TOROIDAL_SURFACE('',#374,0.0463794368703526,0.0037);
#17=TOROIDAL_SURFACE('',#375,0.0199461489834293,0.0037);
#18=TOROIDAL_SURFACE('',#376,0.0409031697332331,0.0037);
#19=PLANE('',#346);
#20=PLANE('',#347);
#21=PLANE('',#369);
#22=PLANE('',#370);
#23=CIRCLE('',#332,0.0228818841211793);
#24=CIRCLE('',#333,0.0228818841211793);
#25=CIRCLE('',#335,0.0349031697332331);
#26=CIRCLE('',#336,0.0349031697332331);
#27=CIRCLE('',#338,0.0224567881472282);
#28=CIRCLE('',#339,0.0224567881472282);
#29=CIRCLE('',#341,0.0523794368703526);
#30=CIRCLE('',#342,0.0523794368703526);
#31=CIRCLE('',#344,0.0259461489834293);
#32=CIRCLE('',#345,0.0259461489834293);
#33=CIRCLE('',#348,0.0199461489834293);
#34=CIRCLE('',#349,0.0463794368703526);
#35=CIRCLE('',#350,0.0409031697332331);
#36=CIRCLE('',#355,0.0251818841211793);
#37=CIRCLE('',#356,0.0251818841211793);
#38=CIRCLE('',#358,0.0372031697332331);
#39=CIRCLE('',#359,0.0372031697332331);
#40=CIRCLE('',#361,0.0201567881472282);
#41=CIRCLE('',#362,0.0201567881472282);
#42=CIRCLE('',#364,0.0500794368703526);
#43=CIRCLE('',#365,0.0500794368703526);
#44=CIRCLE('',#367,0.0236461489834293);
#45=CIRCLE('',#368,0.0236461489834293);
#46=CIRCLE('',#371,0.0409031697332331);
#47=CIRCLE('',#372,0.0463794368703526);
#48=CIRCLE('',#373,0.0199461489834293);
#49=B_SPLINE_CURVE_WITH_KNOTS('',3,(#486,#487,#488,#489,#490,#491,#492,
#493),.UNSPECIFIED.,.F.,.F.,(4,1,1,1,1,4),(0.,0.00157706249211489,0.00315412498422978,
0.00630824996845956,0.00946237495268934,0.0126164999369191),
 .UNSPECIFIED.);
#50=B_SPLINE_CURVE_WITH_KNOTS('',3,(#497,#498,#499,#500,#501),
 .UNSPECIFIED.,.F.,.F.,(4,1,4),(0.,0.00478300450800734,0.00956600901601467),
 .UNSPECIFIED.);
#51=B_SPLINE_CURVE_WITH_KNOTS('',3,(#516,#517,#518,#519,#520,#521,#522,
#523,#524,#525,#526,#527,#528,#529),.UNSPECIFIED.,.F.,.F.,(4,1,1,1,1,1,
1,1,1,1,1,4),(0.,0.0048721094901688,0.00730816423525321,0.00974421898033761,
0.012180273725422,0.0133983010979642,0.0146163284705064,0.0158343558430486,
0.0170523832155908,0.018270410588133,0.0188794242744041,0.0194884379606752),
 .UNSPECIFIED.);
#52=B_SPLINE_CURVE_WITH_KNOTS('',3,(#534,#535,#536,#537,#538),
 .UNSPECIFIED.,.F.,.F.,(4,1,4),(0.,0.00483908573612742,0.00967817147225483),
 .UNSPECIFIED.);
#53=B_SPLINE_CURVE_WITH_KNOTS('',3,(#555,#556,#557,#558,#559,#560,#561),
 .UNSPECIFIED.,.F.,.F.,(4,1,1,1,4),(0.,0.00234342383906731,0.00468684767813462,
0.00703027151720194,0.00937369535626925),.UNSPECIFIED.);
#54=B_SPLINE_CURVE_WITH_KNOTS('',3,(#572,#573,#574,#575,#576),
 .UNSPECIFIED.,.F.,.F.,(4,1,4),(0.,0.00290510369847211,0.00581020739694423),
 .UNSPECIFIED.);
#55=B_SPLINE_CURVE_WITH_KNOTS('',3,(#580,#581,#582,#583,#584,#585,#586),
 .UNSPECIFIED.,.F.,.F.,(4,1,1,1,4),(0.,0.0019974738871658,0.00399494777433161,
0.00599242166149741,0.00798989554866322),.UNSPECIFIED.);
#56=B_SPLINE_CURVE_WITH_KNOTS('',3,(#597,#598,#599,#600,#601),
 .UNSPECIFIED.,.F.,.F.,(4,1,4),(0.,0.003005293209352,0.006010586418704),
 .UNSPECIFIED.);
#57=B_SPLINE_CURVE_WITH_KNOTS('',3,(#606,#607,#608,#609,#610,#611,#612,
#613,#614,#615,#616,#617,#618),.UNSPECIFIED.,.F.,.F.,(4,1,1,1,1,1,1,1,1,
1,4),(0.,0.00331684239703247,0.00497526359554871,0.00663368479406494,0.00829210599258118,
0.00995052719109741,0.0107797377903555,0.0116089483896136,0.0124381589888718,
0.0128527642885008,0.0132673695881299),.UNSPECIFIED.);
#58=B_SPLINE_CURVE_WITH_KNOTS('',3,(#635,#636,#637,#638,#639),
 .UNSPECIFIED.,.F.,.F.,(4,1,4),(-6.84222242762575E-5,0.00282183765875035,
0.00571209754177697),.UNSPECIFIED.);
#59=ORIENTED_EDGE('',*,*,#151,.T.);
#60=ORIENTED_EDGE('',*,*,#152,.T.);
#61=ORIENTED_EDGE('',*,*,#153,.F.);
#62=ORIENTED_EDGE('',*,*,#154,.T.);
#63=ORIENTED_EDGE('',*,*,#155,.F.);
#64=ORIENTED_EDGE('',*,*,#156,.T.);
#65=ORIENTED_EDGE('',*,*,#155,.T.);
#66=ORIENTED_EDGE('',*,*,#157,.T.);
#67=ORIENTED_EDGE('',*,*,#158,.F.);
#68=ORIENTED_EDGE('',*,*,#159,.T.);
#69=ORIENTED_EDGE('',*,*,#160,.T.);
#70=ORIENTED_EDGE('',*,*,#161,.T.);
#71=ORIENTED_EDGE('',*,*,#162,.F.);
#72=ORIENTED_EDGE('',*,*,#163,.F.);
#73=ORIENTED_EDGE('',*,*,#158,.T.);
#74=ORIENTED_EDGE('',*,*,#164,.T.);
#75=ORIENTED_EDGE('',*,*,#162,.T.);
#76=ORIENTED_EDGE('',*,*,#165,.T.);
#77=ORIENTED_EDGE('',*,*,#166,.F.);
#78=ORIENTED_EDGE('',*,*,#167,.F.);
#79=ORIENTED_EDGE('',*,*,#166,.T.);
#80=ORIENTED_EDGE('',*,*,#168,.T.);
#81=ORIENTED_EDGE('',*,*,#151,.F.);
#82=ORIENTED_EDGE('',*,*,#169,.F.);
#83=ORIENTED_EDGE('',*,*,#156,.F.);
#84=ORIENTED_EDGE('',*,*,#159,.F.);
#85=ORIENTED_EDGE('',*,*,#163,.T.);
#86=ORIENTED_EDGE('',*,*,#167,.T.);
#87=ORIENTED_EDGE('',*,*,#169,.T.);
#88=ORIENTED_EDGE('',*,*,#153,.T.);
#89=ORIENTED_EDGE('',*,*,#170,.T.);
#90=ORIENTED_EDGE('',*,*,#171,.T.);
#91=ORIENTED_EDGE('',*,*,#160,.F.);
#92=ORIENTED_EDGE('',*,*,#172,.T.);
#93=ORIENTED_EDGE('',*,*,#161,.F.);
#94=ORIENTED_EDGE('',*,*,#171,.F.);
#95=ORIENTED_EDGE('',*,*,#173,.F.);
#96=ORIENTED_EDGE('',*,*,#165,.F.);
#97=ORIENTED_EDGE('',*,*,#173,.T.);
#98=ORIENTED_EDGE('',*,*,#170,.F.);
#99=ORIENTED_EDGE('',*,*,#152,.F.);
#100=ORIENTED_EDGE('',*,*,#168,.F.);
#101=ORIENTED_EDGE('',*,*,#164,.F.);
#102=ORIENTED_EDGE('',*,*,#157,.F.);
#103=ORIENTED_EDGE('',*,*,#154,.F.);
#104=ORIENTED_EDGE('',*,*,#172,.F.);
#105=ORIENTED_EDGE('',*,*,#174,.F.);
#106=ORIENTED_EDGE('',*,*,#175,.F.);
#107=ORIENTED_EDGE('',*,*,#176,.T.);
#108=ORIENTED_EDGE('',*,*,#177,.F.);
#109=ORIENTED_EDGE('',*,*,#178,.T.);
#110=ORIENTED_EDGE('',*,*,#179,.F.);
#111=ORIENTED_EDGE('',*,*,#176,.F.);
#112=ORIENTED_EDGE('',*,*,#180,.F.);
#113=ORIENTED_EDGE('',*,*,#181,.T.);
#114=ORIENTED_EDGE('',*,*,#182,.F.);
#115=ORIENTED_EDGE('',*,*,#183,.F.);
#116=ORIENTED_EDGE('',*,*,#184,.F.);
#117=ORIENTED_EDGE('',*,*,#181,.F.);
#118=ORIENTED_EDGE('',*,*,#185,.T.);
#119=ORIENTED_EDGE('',*,*,#186,.T.);
#120=ORIENTED_EDGE('',*,*,#187,.F.);
#121=ORIENTED_EDGE('',*,*,#186,.F.);
#122=ORIENTED_EDGE('',*,*,#188,.T.);
#123=ORIENTED_EDGE('',*,*,#189,.T.);
#124=ORIENTED_EDGE('',*,*,#190,.F.);
#125=ORIENTED_EDGE('',*,*,#189,.F.);
#126=ORIENTED_EDGE('',*,*,#191,.T.);
#127=ORIENTED_EDGE('',*,*,#174,.T.);
#128=ORIENTED_EDGE('',*,*,#192,.F.);
#129=ORIENTED_EDGE('',*,*,#175,.T.);
#130=ORIENTED_EDGE('',*,*,#191,.F.);
#131=ORIENTED_EDGE('',*,*,#188,.F.);
#132=ORIENTED_EDGE('',*,*,#185,.F.);
#133=ORIENTED_EDGE('',*,*,#180,.T.);
#134=ORIENTED_EDGE('',*,*,#178,.F.);
#135=ORIENTED_EDGE('',*,*,#193,.F.);
#136=ORIENTED_EDGE('',*,*,#183,.T.);
#137=ORIENTED_EDGE('',*,*,#194,.F.);
#138=ORIENTED_EDGE('',*,*,#195,.F.);
#139=ORIENTED_EDGE('',*,*,#187,.T.);
#140=ORIENTED_EDGE('',*,*,#190,.T.);
#141=ORIENTED_EDGE('',*,*,#196,.T.);
#142=ORIENTED_EDGE('',*,*,#194,.T.);
#143=ORIENTED_EDGE('',*,*,#196,.F.);
#144=ORIENTED_EDGE('',*,*,#192,.T.);
#145=ORIENTED_EDGE('',*,*,#179,.T.);
#146=ORIENTED_EDGE('',*,*,#195,.T.);
#147=ORIENTED_EDGE('',*,*,#184,.T.);
#148=ORIENTED_EDGE('',*,*,#193,.T.);
#149=ORIENTED_EDGE('',*,*,#177,.T.);
#150=ORIENTED_EDGE('',*,*,#182,.T.);
#151=EDGE_CURVE('',#197,#198,#227,.T.);
#152=EDGE_CURVE('',#198,#199,#49,.T.);
#153=EDGE_CURVE('',#200,#199,#23,.T.);
#154=EDGE_CURVE('',#200,#201,#50,.T.);
#155=EDGE_CURVE('',#202,#201,#228,.T.);
#156=EDGE_CURVE('',#202,#197,#24,.T.);
#157=EDGE_CURVE('',#201,#203,#25,.F.);
#158=EDGE_CURVE('',#204,#203,#229,.T.);
#159=EDGE_CURVE('',#204,#202,#26,.T.);
#160=EDGE_CURVE('',#205,#206,#27,.T.);
#161=EDGE_CURVE('',#206,#207,#51,.T.);
#162=EDGE_CURVE('',#208,#207,#230,.T.);
#163=EDGE_CURVE('',#204,#208,#28,.T.);
#164=EDGE_CURVE('',#203,#205,#52,.T.);
#165=EDGE_CURVE('',#207,#209,#29,.T.);
#166=EDGE_CURVE('',#210,#209,#231,.T.);
#167=EDGE_CURVE('',#208,#210,#30,.T.);
#168=EDGE_CURVE('',#209,#198,#31,.T.);
#169=EDGE_CURVE('',#210,#197,#32,.T.);
#170=EDGE_CURVE('',#199,#211,#33,.F.);
#171=EDGE_CURVE('',#211,#206,#34,.F.);
#172=EDGE_CURVE('',#205,#200,#35,.T.);
#173=EDGE_CURVE('',#209,#211,#53,.T.);
#174=EDGE_CURVE('',#212,#213,#232,.T.);
#175=EDGE_CURVE('',#214,#212,#36,.T.);
#176=EDGE_CURVE('',#214,#215,#233,.T.);
#177=EDGE_CURVE('',#216,#215,#54,.T.);
#178=EDGE_CURVE('',#216,#217,#37,.T.);
#179=EDGE_CURVE('',#213,#217,#55,.T.);
#180=EDGE_CURVE('',#218,#214,#38,.T.);
#181=EDGE_CURVE('',#218,#219,#234,.T.);
#182=EDGE_CURVE('',#215,#219,#39,.T.);
#183=EDGE_CURVE('',#220,#221,#40,.T.);
#184=EDGE_CURVE('',#219,#220,#56,.T.);
#185=EDGE_CURVE('',#218,#222,#41,.T.);
#186=EDGE_CURVE('',#222,#223,#235,.T.);
#187=EDGE_CURVE('',#221,#223,#57,.T.);
#188=EDGE_CURVE('',#222,#224,#42,.T.);
#189=EDGE_CURVE('',#224,#225,#236,.T.);
#190=EDGE_CURVE('',#223,#225,#43,.F.);
#191=EDGE_CURVE('',#224,#212,#44,.T.);
#192=EDGE_CURVE('',#225,#213,#45,.F.);
#193=EDGE_CURVE('',#220,#216,#46,.T.);
#194=EDGE_CURVE('',#226,#221,#47,.F.);
#195=EDGE_CURVE('',#217,#226,#48,.F.);
#196=EDGE_CURVE('',#225,#226,#58,.F.);
#197=VERTEX_POINT('',#484);
#198=VERTEX_POINT('',#485);
#199=VERTEX_POINT('',#494);
#200=VERTEX_POINT('',#496);
#201=VERTEX_POINT('',#502);
#202=VERTEX_POINT('',#504);
#203=VERTEX_POINT('',#508);
#204=VERTEX_POINT('',#510);
#205=VERTEX_POINT('',#514);
#206=VERTEX_POINT('',#515);
#207=VERTEX_POINT('',#530);
#208=VERTEX_POINT('',#532);
#209=VERTEX_POINT('',#541);
#210=VERTEX_POINT('',#543);
#211=VERTEX_POINT('',#551);
#212=VERTEX_POINT('',#566);
#213=VERTEX_POINT('',#567);
#214=VERTEX_POINT('',#569);
#215=VERTEX_POINT('',#571);
#216=VERTEX_POINT('',#577);
#217=VERTEX_POINT('',#579);
#218=VERTEX_POINT('',#589);
#219=VERTEX_POINT('',#591);
#220=VERTEX_POINT('',#595);
#221=VERTEX_POINT('',#596);
#222=VERTEX_POINT('',#603);
#223=VERTEX_POINT('',#605);
#224=VERTEX_POINT('',#621);
#225=VERTEX_POINT('',#623);
#226=VERTEX_POINT('',#632);
#227=LINE('',#483,#237);
#228=LINE('',#503,#238);
#229=LINE('',#509,#239);
#230=LINE('',#531,#240);
#231=LINE('',#542,#241);
#232=LINE('',#565,#242);
#233=LINE('',#570,#243);
#234=LINE('',#590,#244);
#235=LINE('',#604,#245);
#236=LINE('',#622,#246);
#237=VECTOR('',#381,1.);
#238=VECTOR('',#384,1.);
#239=VECTOR('',#391,1.);
#240=VECTOR('',#398,1.);
#241=VECTOR('',#405,1.);
#242=VECTOR('',#432,1.);
#243=VECTOR('',#435,1.);
#244=VECTOR('',#442,1.);
#245=VECTOR('',#451,1.);
#246=VECTOR('',#456,1.);
#247=EDGE_LOOP('',(#59,#60,#61,#62,#63,#64));
#248=EDGE_LOOP('',(#65,#66,#67,#68));
#249=EDGE_LOOP('',(#69,#70,#71,#72,#73,#74));
#250=EDGE_LOOP('',(#75,#76,#77,#78));
#251=EDGE_LOOP('',(#79,#80,#81,#82));
#252=EDGE_LOOP('',(#83,#84,#85,#86,#87));
#253=EDGE_LOOP('',(#88,#89,#90,#91,#92));
#254=EDGE_LOOP('',(#93,#94,#95,#96));
#255=EDGE_LOOP('',(#97,#98,#99,#100));
#256=EDGE_LOOP('',(#101,#102,#103,#104));
#257=EDGE_LOOP('',(#105,#106,#107,#108,#109,#110));
#258=EDGE_LOOP('',(#111,#112,#113,#114));
#259=EDGE_LOOP('',(#115,#116,#117,#118,#119,#120));
#260=EDGE_LOOP('',(#121,#122,#123,#124));
#261=EDGE_LOOP('',(#125,#126,#127,#128));
#262=EDGE_LOOP('',(#129,#130,#131,#132,#133));
#263=EDGE_LOOP('',(#134,#135,#136,#137,#138));
#264=EDGE_LOOP('',(#139,#140,#141,#142));
#265=EDGE_LOOP('',(#143,#144,#145,#146));
#266=EDGE_LOOP('',(#147,#148,#149,#150));
#267=FACE_BOUND('',#247,.T.);
#268=FACE_BOUND('',#248,.T.);
#269=FACE_BOUND('',#249,.T.);
#270=FACE_BOUND('',#250,.T.);
#271=FACE_BOUND('',#251,.T.);
#272=FACE_BOUND('',#252,.T.);
#273=FACE_BOUND('',#253,.T.);
#274=FACE_BOUND('',#254,.T.);
#275=FACE_BOUND('',#255,.T.);
#276=FACE_BOUND('',#256,.T.);
#277=FACE_BOUND('',#257,.T.);
#278=FACE_BOUND('',#258,.T.);
#279=FACE_BOUND('',#259,.T.);
#280=FACE_BOUND('',#260,.T.);
#281=FACE_BOUND('',#261,.T.);
#282=FACE_BOUND('',#262,.T.);
#283=FACE_BOUND('',#263,.T.);
#284=FACE_BOUND('',#264,.T.);
#285=FACE_BOUND('',#265,.T.);
#286=FACE_BOUND('',#266,.T.);
#287=CYLINDRICAL_SURFACE('',#331,0.0228818841211793);
#288=CYLINDRICAL_SURFACE('',#334,0.0349031697332331);
#289=CYLINDRICAL_SURFACE('',#337,0.0224567881472282);
#290=CYLINDRICAL_SURFACE('',#340,0.0523794368703526);
#291=CYLINDRICAL_SURFACE('',#343,0.0259461489834293);
#292=CYLINDRICAL_SURFACE('',#354,0.0251818841211793);
#293=CYLINDRICAL_SURFACE('',#357,0.0372031697332331);
#294=CYLINDRICAL_SURFACE('',#360,0.0201567881472282);
#295=CYLINDRICAL_SURFACE('',#363,0.0500794368703526);
#296=CYLINDRICAL_SURFACE('',#366,0.0236461489834293);
#297=ADVANCED_FACE('Face appearance 4',(#267),#287,.F.);
#298=ADVANCED_FACE('Face appearance 4',(#268),#288,.F.);
#299=ADVANCED_FACE('Face appearance 4',(#269),#289,.T.);
#300=ADVANCED_FACE('Face appearance 4',(#270),#290,.T.);
#301=ADVANCED_FACE('Face appearance 4',(#271),#291,.T.);
#302=ADVANCED_FACE('Face appearance 4',(#272),#19,.T.);
#303=ADVANCED_FACE('Face appearance 4',(#273),#20,.F.);
#304=ADVANCED_FACE('',(#274),#13,.T.);
#305=ADVANCED_FACE('',(#275),#14,.T.);
#306=ADVANCED_FACE('',(#276),#15,.T.);
#307=ADVANCED_FACE('',(#277),#292,.T.);
#308=ADVANCED_FACE('',(#278),#293,.T.);
#309=ADVANCED_FACE('',(#279),#294,.F.);
#310=ADVANCED_FACE('',(#280),#295,.F.);
#311=ADVANCED_FACE('',(#281),#296,.F.);
#312=ADVANCED_FACE('',(#282),#21,.F.);
#313=ADVANCED_FACE('',(#283),#22,.T.);
#314=ADVANCED_FACE('',(#284),#16,.F.);
#315=ADVANCED_FACE('',(#285),#17,.F.);
#316=ADVANCED_FACE('',(#286),#18,.F.);
#317=CLOSED_SHELL('',(#297,#298,#299,#300,#301,#302,#303,#304,#305,#306));
#318=CLOSED_SHELL('',(#307,#308,#309,#310,#311,#312,#313,#314,#315,#316));
#319=STYLED_ITEM('',(#320),#327);
#320=PRESENTATION_STYLE_ASSIGNMENT((#321));
#321=SURFACE_STYLE_USAGE(.BOTH.,#322);
#322=SURFACE_SIDE_STYLE('',(#323));
#323=SURFACE_STYLE_FILL_AREA(#324);
#324=FILL_AREA_STYLE('',(#325));
#325=FILL_AREA_STYLE_COLOUR('',#326);
#326=DRAUGHTING_PRE_DEFINED_COLOUR('black');
#327=BREP_WITH_VOIDS('Part 1',#317,(#12));
#328=SHAPE_DEFINITION_REPRESENTATION(#648,#329);
#329=SHAPE_REPRESENTATION('Part 1',(#330),#643);
#330=AXIS2_PLACEMENT_3D('',#481,#377,#378);
#331=AXIS2_PLACEMENT_3D('',#482,#379,#380);
#332=AXIS2_PLACEMENT_3D('',#495,#382,#383);
#333=AXIS2_PLACEMENT_3D('',#505,#385,#386);
#334=AXIS2_PLACEMENT_3D('',#506,#387,#388);
#335=AXIS2_PLACEMENT_3D('',#507,#389,#390);
#336=AXIS2_PLACEMENT_3D('',#511,#392,#393);
#337=AXIS2_PLACEMENT_3D('',#512,#394,#395);
#338=AXIS2_PLACEMENT_3D('',#513,#396,#397);
#339=AXIS2_PLACEMENT_3D('',#533,#399,#400);
#340=AXIS2_PLACEMENT_3D('',#539,#401,#402);
#341=AXIS2_PLACEMENT_3D('',#540,#403,#404);
#342=AXIS2_PLACEMENT_3D('',#544,#406,#407);
#343=AXIS2_PLACEMENT_3D('',#545,#408,#409);
#344=AXIS2_PLACEMENT_3D('',#546,#410,#411);
#345=AXIS2_PLACEMENT_3D('',#547,#412,#413);
#346=AXIS2_PLACEMENT_3D('',#548,#414,#415);
#347=AXIS2_PLACEMENT_3D('',#549,#416,#417);
#348=AXIS2_PLACEMENT_3D('',#550,#418,#419);
#349=AXIS2_PLACEMENT_3D('',#552,#420,#421);
#350=AXIS2_PLACEMENT_3D('',#553,#422,#423);
#351=AXIS2_PLACEMENT_3D('',#554,#424,#425);
#352=AXIS2_PLACEMENT_3D('',#562,#426,#427);
#353=AXIS2_PLACEMENT_3D('',#563,#428,#429);
#354=AXIS2_PLACEMENT_3D('',#564,#430,#431);
#355=AXIS2_PLACEMENT_3D('',#568,#433,#434);
#356=AXIS2_PLACEMENT_3D('',#578,#436,#437);
#357=AXIS2_PLACEMENT_3D('',#587,#438,#439);
#358=AXIS2_PLACEMENT_3D('',#588,#440,#441);
#359=AXIS2_PLACEMENT_3D('',#592,#443,#444);
#360=AXIS2_PLACEMENT_3D('',#593,#445,#446);
#361=AXIS2_PLACEMENT_3D('',#594,#447,#448);
#362=AXIS2_PLACEMENT_3D('',#602,#449,#450);
#363=AXIS2_PLACEMENT_3D('',#619,#452,#453);
#364=AXIS2_PLACEMENT_3D('',#620,#454,#455);
#365=AXIS2_PLACEMENT_3D('',#624,#457,#458);
#366=AXIS2_PLACEMENT_3D('',#625,#459,#460);
#367=AXIS2_PLACEMENT_3D('',#626,#461,#462);
#368=AXIS2_PLACEMENT_3D('',#627,#463,#464);
#369=AXIS2_PLACEMENT_3D('',#628,#465,#466);
#370=AXIS2_PLACEMENT_3D('',#629,#467,#468);
#371=AXIS2_PLACEMENT_3D('',#630,#469,#470);
#372=AXIS2_PLACEMENT_3D('',#631,#471,#472);
#373=AXIS2_PLACEMENT_3D('',#633,#473,#474);
#374=AXIS2_PLACEMENT_3D('',#634,#475,#476);
#375=AXIS2_PLACEMENT_3D('',#640,#477,#478);
#376=AXIS2_PLACEMENT_3D('',#641,#479,#480);
#377=DIRECTION('',(0.,0.,1.));
#378=DIRECTION('',(1.,0.,0.));
#379=DIRECTION('',(0.,0.,-1.));
#380=DIRECTION('',(-1.,0.,0.));
#381=DIRECTION('',(0.,0.,-1.));
#382=DIRECTION('',(0.,0.,1.));
#383=DIRECTION('',(1.,0.,0.));
#384=DIRECTION('',(0.,0.,-1.));
#385=DIRECTION('',(0.,0.,1.));
#386=DIRECTION('',(1.,0.,0.));
#387=DIRECTION('',(0.,0.,-1.));
#388=DIRECTION('',(-1.,0.,0.));
#389=DIRECTION('',(0.,0.,1.));
#390=DIRECTION('',(1.,0.,0.));
#391=DIRECTION('',(0.,0.,-1.));
#392=DIRECTION('',(0.,0.,1.));
#393=DIRECTION('',(1.,0.,0.));
#394=DIRECTION('',(0.,0.,-1.));
#395=DIRECTION('',(-1.,0.,0.));
#396=DIRECTION('',(0.,0.,1.));
#397=DIRECTION('',(1.,0.,0.));
#398=DIRECTION('',(0.,0.,-1.));
#399=DIRECTION('',(0.,0.,1.));
#400=DIRECTION('',(1.,0.,0.));
#401=DIRECTION('',(0.,0.,-1.));
#402=DIRECTION('',(-1.,0.,0.));
#403=DIRECTION('',(0.,0.,1.));
#404=DIRECTION('',(1.,0.,0.));
#405=DIRECTION('',(0.,0.,-1.));
#406=DIRECTION('',(0.,0.,1.));
#407=DIRECTION('',(1.,0.,0.));
#408=DIRECTION('',(0.,0.,-1.));
#409=DIRECTION('',(-1.,0.,0.));
#410=DIRECTION('',(0.,0.,1.));
#411=DIRECTION('',(1.,0.,0.));
#412=DIRECTION('',(0.,0.,1.));
#413=DIRECTION('',(1.,0.,0.));
#414=DIRECTION('',(0.,0.,1.));
#415=DIRECTION('',(1.,0.,0.));
#416=DIRECTION('',(0.,0.,1.));
#417=DIRECTION('',(1.,0.,0.));
#418=DIRECTION('',(0.,0.,1.));
#419=DIRECTION('',(1.,0.,0.));
#420=DIRECTION('',(0.,0.,1.));
#421=DIRECTION('',(1.,0.,0.));
#422=DIRECTION('',(0.,0.,1.));
#423=DIRECTION('',(1.,0.,0.));
#424=DIRECTION('',(0.,0.,1.));
#425=DIRECTION('',(1.,0.,0.));
#426=DIRECTION('',(0.,0.,1.));
#427=DIRECTION('',(1.,0.,0.));
#428=DIRECTION('',(0.,0.,1.));
#429=DIRECTION('',(1.,0.,0.));
#430=DIRECTION('',(0.,0.,-1.));
#431=DIRECTION('',(-1.,0.,0.));
#432=DIRECTION('',(0.,0.,-1.));
#433=DIRECTION('',(0.,0.,1.));
#434=DIRECTION('',(1.,0.,0.));
#435=DIRECTION('',(0.,0.,-1.));
#436=DIRECTION('',(0.,0.,1.));
#437=DIRECTION('',(1.,0.,0.));
#438=DIRECTION('',(0.,0.,-1.));
#439=DIRECTION('',(-1.,0.,0.));
#440=DIRECTION('',(0.,0.,1.));
#441=DIRECTION('',(1.,0.,0.));
#442=DIRECTION('',(0.,0.,-1.));
#443=DIRECTION('',(0.,0.,-1.));
#444=DIRECTION('',(-1.,0.,0.));
#445=DIRECTION('',(0.,0.,-1.));
#446=DIRECTION('',(-1.,0.,0.));
#447=DIRECTION('',(0.,0.,1.));
#448=DIRECTION('',(1.,0.,0.));
#449=DIRECTION('',(0.,0.,1.));
#450=DIRECTION('',(1.,0.,0.));
#451=DIRECTION('',(0.,0.,-1.));
#452=DIRECTION('',(0.,0.,-1.));
#453=DIRECTION('',(-1.,0.,0.));
#454=DIRECTION('',(0.,0.,1.));
#455=DIRECTION('',(1.,0.,0.));
#456=DIRECTION('',(0.,0.,-1.));
#457=DIRECTION('',(0.,0.,-1.));
#458=DIRECTION('',(-1.,0.,0.));
#459=DIRECTION('',(0.,0.,-1.));
#460=DIRECTION('',(-1.,0.,0.));
#461=DIRECTION('',(0.,0.,1.));
#462=DIRECTION('',(1.,0.,0.));
#463=DIRECTION('',(0.,0.,-1.));
#464=DIRECTION('',(-1.,0.,0.));
#465=DIRECTION('',(0.,0.,1.));
#466=DIRECTION('',(1.,0.,0.));
#467=DIRECTION('',(0.,0.,1.));
#468=DIRECTION('',(1.,0.,0.));
#469=DIRECTION('',(0.,0.,1.));
#470=DIRECTION('',(1.,0.,0.));
#471=DIRECTION('',(0.,0.,1.));
#472=DIRECTION('',(1.,0.,0.));
#473=DIRECTION('',(0.,0.,1.));
#474=DIRECTION('',(1.,0.,0.));
#475=DIRECTION('',(0.,0.,1.));
#476=DIRECTION('',(1.,0.,0.));
#477=DIRECTION('',(0.,0.,1.));
#478=DIRECTION('',(1.,0.,0.));
#479=DIRECTION('',(0.,0.,1.));
#480=DIRECTION('',(1.,0.,0.));
#481=CARTESIAN_POINT('',(0.,0.,0.));
#482=CARTESIAN_POINT('',(0.280324685332461,-0.152959759280983,0.02));
#483=CARTESIAN_POINT('',(0.287463088282928,-0.174699672442076,0.02));
#484=CARTESIAN_POINT('',(0.287463088282928,-0.174699672442076,0.02));
#485=CARTESIAN_POINT('',(0.287463088282928,-0.174699672442076,-0.029));
#486=CARTESIAN_POINT('',(0.287463088282928,-0.174699672442076,-0.029));
#487=CARTESIAN_POINT('',(0.287463088282928,-0.174699672442076,-0.0295338640665271));
#488=CARTESIAN_POINT('',(0.287217504923266,-0.174782109451499,-0.0305774929882406));
#489=CARTESIAN_POINT('',(0.286018722844024,-0.175142313196232,-0.0323140014927736));
#490=CARTESIAN_POINT('',(0.283845795644416,-0.175631290906977,-0.0337825728228377));
#491=CARTESIAN_POINT('',(0.280848596764724,-0.175905049546441,-0.0347777265151225));
#492=CARTESIAN_POINT('',(0.278754313185154,-0.175812087814448,-0.035));
#493=CARTESIAN_POINT('',(0.277705615129183,-0.175691259280002,-0.035));
#494=CARTESIAN_POINT('',(0.277705615129183,-0.175691259280002,-0.035));
#495=CARTESIAN_POINT('',(0.280324685332461,-0.152959759280983,-0.035));
#496=CARTESIAN_POINT('',(0.25763653888701,-0.155931060646526,-0.035));
#497=CARTESIAN_POINT('',(0.25763653888701,-0.155931060646526,-0.035));
#498=CARTESIAN_POINT('',(0.257426382221368,-0.154326354620451,-0.035));
#499=CARTESIAN_POINT('',(0.257414783033637,-0.151162624789333,-0.0337068890068994));
#500=CARTESIAN_POINT('',(0.25768254992414,-0.149656075717692,-0.0306200729613255));
#501=CARTESIAN_POINT('',(0.25768254992414,-0.149656075717692,-0.029));
#502=CARTESIAN_POINT('',(0.25768254992414,-0.149656075717692,-0.029));
#503=CARTESIAN_POINT('',(0.25768254992414,-0.149656075717692,0.02));
#504=CARTESIAN_POINT('',(0.25768254992414,-0.149656075717692,0.02));
#505=CARTESIAN_POINT('',(0.280324685332461,-0.152959759280983,0.02));
#506=CARTESIAN_POINT('',(0.246862921717603,-0.116472240753975,0.02));
#507=CARTESIAN_POINT('',(0.246862921717603,-0.116472240753975,-0.029));
#508=CARTESIAN_POINT('',(0.244374877203532,-0.151286618414977,-0.029));
#509=CARTESIAN_POINT('',(0.244374877203532,-0.151286618414977,0.02));
#510=CARTESIAN_POINT('',(0.244374877203532,-0.151286618414977,0.02));
#511=CARTESIAN_POINT('',(0.246862921717603,-0.116472240753975,0.02));
#512=CARTESIAN_POINT('',(0.262698984683098,-0.164268699102094,0.02));
#513=CARTESIAN_POINT('',(0.262698984683098,-0.164268699102094,-0.035));
#514=CARTESIAN_POINT('',(0.24144591494768,-0.157015123383116,-0.035));
#515=CARTESIAN_POINT('',(0.247156992001127,-0.180478381312523,-0.035));
#516=CARTESIAN_POINT('',(0.247156992001127,-0.180478381312523,-0.035));
#517=CARTESIAN_POINT('',(0.248345549141754,-0.181617980851978,-0.035));
#518=CARTESIAN_POINT('',(0.250269667764355,-0.183092645448673,-0.0347152239488092));
#519=CARTESIAN_POINT('',(0.253096208513264,-0.184615062419564,-0.0339982119504581));
#520=CARTESIAN_POINT('',(0.255255819494482,-0.185498064246922,-0.0333360996599736));
#521=CARTESIAN_POINT('',(0.257104268926293,-0.186041278431923,-0.0326921257915963));
#522=CARTESIAN_POINT('',(0.258609288817316,-0.186359891336325,-0.0321187315853988));
#523=CARTESIAN_POINT('',(0.259735543260468,-0.186538748927016,-0.0316616128750745));
#524=CARTESIAN_POINT('',(0.260857923971178,-0.186659183819274,-0.031170339614662));
#525=CARTESIAN_POINT('',(0.26196124669915,-0.18672230327067,-0.0306322802135161));
#526=CARTESIAN_POINT('',(0.262851189947194,-0.186729243680678,-0.0301117585269952));
#527=CARTESIAN_POINT('',(0.263475693884662,-0.186713308750468,-0.0295844980458217));
#528=CARTESIAN_POINT('',(0.263686447455549,-0.186703766544884,-0.0292082233375258));
#529=CARTESIAN_POINT('',(0.263686447455549,-0.186703766544884,-0.029));
#530=CARTESIAN_POINT('',(0.263686447455549,-0.186703766544884,-0.029));
#531=CARTESIAN_POINT('',(0.263686447455549,-0.186703766544884,0.02));
#532=CARTESIAN_POINT('',(0.263686447455549,-0.186703766544884,0.02));
#533=CARTESIAN_POINT('',(0.262698984683098,-0.164268699102094,0.02));
#534=CARTESIAN_POINT('',(0.244374877203532,-0.151286618414977,-0.029));
#535=CARTESIAN_POINT('',(0.244374877203532,-0.151286618414977,-0.0306389040734913));
#536=CARTESIAN_POINT('',(0.243389810312189,-0.152595666226372,-0.0337223175300471));
#537=CARTESIAN_POINT('',(0.241974528637774,-0.155466278502476,-0.035));
#538=CARTESIAN_POINT('',(0.24144591494768,-0.157015123383116,-0.035));
#539=CARTESIAN_POINT('',(0.255829380020485,-0.134916973844659,0.02));
#540=CARTESIAN_POINT('',(0.255829380020485,-0.134916973844659,-0.029));
#541=CARTESIAN_POINT('',(0.276379341894151,-0.183096891588944,-0.029));
#542=CARTESIAN_POINT('',(0.276379341894151,-0.183096891588944,0.02));
#543=CARTESIAN_POINT('',(0.276379341894151,-0.183096891588944,0.02));
#544=CARTESIAN_POINT('',(0.255829380020485,-0.134916973844659,0.02));
#545=CARTESIAN_POINT('',(0.266825935691084,-0.158973561035526,0.02));
#546=CARTESIAN_POINT('',(0.266825935691084,-0.158973561035526,-0.029));
#547=CARTESIAN_POINT('',(0.266825935691084,-0.158973561035526,0.02));
#548=CARTESIAN_POINT('',(0.233402002858431,-0.141733597313975,0.02));
#549=CARTESIAN_POINT('',(0.233402002858431,-0.141733597313975,-0.035));
#550=CARTESIAN_POINT('',(0.266825935691084,-0.158973561035526,-0.035));
#551=CARTESIAN_POINT('',(0.274099879540401,-0.177546083754481,-0.035));
#552=CARTESIAN_POINT('',(0.255829380020485,-0.134916973844659,-0.035));
#553=CARTESIAN_POINT('',(0.246862921717603,-0.116472240753975,-0.035));
#554=CARTESIAN_POINT('',(0.255829380020485,-0.134916973844659,-0.029));
#555=CARTESIAN_POINT('',(0.276379341894151,-0.183096891588944,-0.029));
#556=CARTESIAN_POINT('',(0.276379341894151,-0.183096891588944,-0.0297923883994179));
#557=CARTESIAN_POINT('',(0.276260535076646,-0.182807985211411,-0.031353211161555));
#558=CARTESIAN_POINT('',(0.275752881485767,-0.181573069204819,-0.0333525806506861));
#559=CARTESIAN_POINT('',(0.274997845982307,-0.179735094137942,-0.0346844549895462));
#560=CARTESIAN_POINT('',(0.274396224007565,-0.178268851911951,-0.035));
#561=CARTESIAN_POINT('',(0.274099879540405,-0.17754608375448,-0.035));
#562=CARTESIAN_POINT('',(0.266825935691084,-0.158973561035526,-0.029));
#563=CARTESIAN_POINT('',(0.246862921717603,-0.116472240753975,-0.029));
#564=CARTESIAN_POINT('',(0.280324685332461,-0.152959759280983,0.02));
#565=CARTESIAN_POINT('',(0.280675802849613,-0.178139195422042,0.0177));
#566=CARTESIAN_POINT('',(0.280675802849613,-0.178139195422042,0.0177));
#567=CARTESIAN_POINT('',(0.280675802849613,-0.178139195422042,-0.029));
#568=CARTESIAN_POINT('',(0.280324685332461,-0.152959759280983,0.0177));
#569=CARTESIAN_POINT('',(0.255143741757236,-0.152742116100755,0.0177));
#570=CARTESIAN_POINT('',(0.255143741757236,-0.152742116100755,0.0177));
#571=CARTESIAN_POINT('',(0.255143741757236,-0.152742116100755,-0.029));
#572=CARTESIAN_POINT('',(0.255389615450188,-0.156476800346806,-0.0327));
#573=CARTESIAN_POINT('',(0.255252393219751,-0.155503924045017,-0.0327));
#574=CARTESIAN_POINT('',(0.255119249112245,-0.153583531015431,-0.0318984503856391));
#575=CARTESIAN_POINT('',(0.255143741757236,-0.152742116100755,-0.0299826889239999));
#576=CARTESIAN_POINT('',(0.255143741757236,-0.152742116100755,-0.029));
#577=CARTESIAN_POINT('',(0.255389615450188,-0.156476800346806,-0.0327));
#578=CARTESIAN_POINT('',(0.280324685332461,-0.152959759280983,-0.0327));
#579=CARTESIAN_POINT('',(0.274386161845666,-0.177431400555922,-0.0327));
#580=CARTESIAN_POINT('',(0.280675802849613,-0.178139195422042,-0.029));
#581=CARTESIAN_POINT('',(0.280675802849613,-0.178139195422042,-0.0296798768941085));
#582=CARTESIAN_POINT('',(0.27998840603666,-0.178153303155231,-0.0309262016717247));
#583=CARTESIAN_POINT('',(0.278255316708812,-0.178080026987054,-0.031994952640159));
#584=CARTESIAN_POINT('',(0.276340609465888,-0.177850336615886,-0.0325782413163869));
#585=CARTESIAN_POINT('',(0.27503820785684,-0.177589632302961,-0.0327));
#586=CARTESIAN_POINT('',(0.274386161845666,-0.177431400555922,-0.0327));
#587=CARTESIAN_POINT('',(0.246862921717603,-0.116472240753975,0.02));
#588=CARTESIAN_POINT('',(0.246862921717603,-0.116472240753975,0.0177));
#589=CARTESIAN_POINT('',(0.24556429795003,-0.153652738525119,0.0177));
#590=CARTESIAN_POINT('',(0.24556429795003,-0.153652738525119,0.0177));
#591=CARTESIAN_POINT('',(0.24556429795003,-0.153652738525119,-0.029));
#592=CARTESIAN_POINT('',(0.246862921717603,-0.116472240753975,-0.029));
#593=CARTESIAN_POINT('',(0.262698984683098,-0.164268699102094,0.02));
#594=CARTESIAN_POINT('',(0.262698984683098,-0.164268699102094,-0.0327));
#595=CARTESIAN_POINT('',(0.243799726821469,-0.157260549510946,-0.0327));
#596=CARTESIAN_POINT('',(0.251615215215469,-0.181104558533698,-0.0327));
#597=CARTESIAN_POINT('',(0.24556429795003,-0.153652738525119,-0.029));
#598=CARTESIAN_POINT('',(0.24556429795003,-0.153652738525119,-0.0300175166125912));
#599=CARTESIAN_POINT('',(0.245011902897883,-0.154504821438236,-0.0319371734378033));
#600=CARTESIAN_POINT('',(0.244152857040639,-0.156308244057983,-0.0327));
#601=CARTESIAN_POINT('',(0.243799726821469,-0.157260549510946,-0.0327));
#602=CARTESIAN_POINT('',(0.262698984683098,-0.164268699102094,0.0177));
#603=CARTESIAN_POINT('',(0.263464647571047,-0.18441094000906,0.0177));
#604=CARTESIAN_POINT('',(0.263464647571047,-0.18441094000906,0.0177));
#605=CARTESIAN_POINT('',(0.263464647571047,-0.18441094000906,-0.029));
#606=CARTESIAN_POINT('',(0.251615215215469,-0.181104558533698,-0.0327));
#607=CARTESIAN_POINT('',(0.252552366222733,-0.181721525298184,-0.0327));
#608=CARTESIAN_POINT('',(0.254001853709541,-0.182510088647005,-0.0325387875561925));
#609=CARTESIAN_POINT('',(0.256038690684005,-0.183316896823516,-0.0321274559102774));
#610=CARTESIAN_POINT('',(0.257595991609698,-0.183790987719955,-0.0317348538866006));
#611=CARTESIAN_POINT('',(0.259154216451788,-0.18413244562115,-0.0312746594734791));
#612=CARTESIAN_POINT('',(0.260459241495157,-0.184312668932676,-0.0308313903487042));
#613=CARTESIAN_POINT('',(0.261499939037629,-0.184394764151573,-0.0304253623588675));
#614=CARTESIAN_POINT('',(0.26226552999165,-0.184425614662752,-0.0300857170316485));
#615=CARTESIAN_POINT('',(0.26288301469155,-0.184426937776418,-0.0297483421049085));
#616=CARTESIAN_POINT('',(0.263316621840012,-0.184416703781742,-0.0293987741959043));
#617=CARTESIAN_POINT('',(0.263464647571048,-0.184410940009061,-0.0291418668738873));
#618=CARTESIAN_POINT('',(0.263464647571048,-0.184410940009061,-0.029));
#619=CARTESIAN_POINT('',(0.255829380020485,-0.134916973844659,0.02));
#620=CARTESIAN_POINT('',(0.255829380020485,-0.134916973844659,0.0177));
#621=CARTESIAN_POINT('',(0.275504910583404,-0.180969373286157,0.0177));
#622=CARTESIAN_POINT('',(0.275504910583404,-0.180969373286157,0.02));
#623=CARTESIAN_POINT('',(0.275504910583404,-0.180969373286157,-0.029));
#624=CARTESIAN_POINT('',(0.255829380020485,-0.134916973844659,-0.029));
#625=CARTESIAN_POINT('',(0.266825935691084,-0.158973561035526,0.02));
#626=CARTESIAN_POINT('',(0.266825935691084,-0.158973561035526,0.0177));
#627=CARTESIAN_POINT('',(0.266825935691084,-0.158973561035526,-0.029));
#628=CARTESIAN_POINT('',(0.233402002858431,-0.141733597313975,0.0177));
#629=CARTESIAN_POINT('',(0.233402002858431,-0.141733597313975,-0.0327));
#630=CARTESIAN_POINT('',(0.246862921717603,-0.116472240753975,-0.0327));
#631=CARTESIAN_POINT('',(0.255829380020485,-0.134916973844659,-0.0327));
#632=CARTESIAN_POINT('',(0.274099879540401,-0.177546083754481,-0.0327));
#633=CARTESIAN_POINT('',(0.266825935691084,-0.158973561035526,-0.0327));
#634=CARTESIAN_POINT('',(0.255829380020485,-0.134916973844659,-0.029));
#635=CARTESIAN_POINT('',(0.274099879540406,-0.17754608375448,-0.0327));
#636=CARTESIAN_POINT('',(0.274465379861463,-0.178437524642361,-0.0326999999999999));
#637=CARTESIAN_POINT('',(0.275200927009598,-0.18022963721624,-0.03189455207393));
#638=CARTESIAN_POINT('',(0.275504910583399,-0.180969373286159,-0.0299772849581524));
#639=CARTESIAN_POINT('',(0.275504910583399,-0.180969373286159,-0.029));
#640=CARTESIAN_POINT('',(0.266825935691084,-0.158973561035526,-0.029));
#641=CARTESIAN_POINT('',(0.246862921717603,-0.116472240753975,-0.029));
#642=MECHANICAL_DESIGN_GEOMETRIC_PRESENTATION_REPRESENTATION('',(#319),
#643);
#643=(
GEOMETRIC_REPRESENTATION_CONTEXT(3)
GLOBAL_UNCERTAINTY_ASSIGNED_CONTEXT((#644))
GLOBAL_UNIT_ASSIGNED_CONTEXT((#647,#646,#645))
REPRESENTATION_CONTEXT('Part 1','TOP_LEVEL_ASSEMBLY_PART')
);
#644=UNCERTAINTY_MEASURE_WITH_UNIT(LENGTH_MEASURE(2.E-5),#647,
'DISTANCE_ACCURACY_VALUE','Maximum Tolerance applied to model');
#645=(
NAMED_UNIT(*)
SI_UNIT($,.STERADIAN.)
SOLID_ANGLE_UNIT()
);
#646=(
NAMED_UNIT(*)
PLANE_ANGLE_UNIT()
SI_UNIT($,.RADIAN.)
);
#647=(
LENGTH_UNIT()
NAMED_UNIT(*)
SI_UNIT($,.METRE.)
);
#648=PRODUCT_DEFINITION_SHAPE('','',#649);
#649=PRODUCT_DEFINITION('','',#651,#650);
#650=PRODUCT_DEFINITION_CONTEXT('',#657,'design');
#651=PRODUCT_DEFINITION_FORMATION_WITH_SPECIFIED_SOURCE('','',#653,
 .NOT_KNOWN.);
#652=PRODUCT_RELATED_PRODUCT_CATEGORY('','',(#653));
#653=PRODUCT('Part 1','Part 1','Part 1',(#655));
#654=PRODUCT_CATEGORY('','');
#655=PRODUCT_CONTEXT('',#657,'mechanical');
#656=APPLICATION_PROTOCOL_DEFINITION('international standard',
'ap242_managed_model_based_3d_engineering',2020,#657);
#657=APPLICATION_CONTEXT('managed model based 3d engineering');
ENDSEC;
END-ISO-10303-21;
