ISO-10303-21;
HEADER;
/* Generated by software containing ST-Developer
 * from STEP Tools, Inc. (www.steptools.com) 
 */
/* OPTION: using custom renumber hook */

FILE_DESCRIPTION(
/* description */ ('STEP AP242 Edition 2',
'CAx-IF Rec.Pracs.---Representation and Presentation of Product Manufa
cturing Information (PMI)---4.0---2014-10-13',
'CAx-IF Rec.Pracs.---3D Tessellated Geometry---0.4---2014-09-14','2;1',
'CAx-IF Rec.Pracs.---User Defined Attributes---1.5---2016-08-15'),
/* implementation_level */ '2;1');

FILE_NAME(
/* name */ 'Part Studio 1 - Part 23',
/* time_stamp */ '2026-06-18T16:33:50Z',
/* author */ (''),
/* organization */ (''),
/* preprocessor_version */ 'ST-DEVELOPER v20',
/* originating_system */ 'ONSHAPE BY PTC INC, 1.216',
/* authorisation */ '  ');

FILE_SCHEMA (('AP242_MANAGED_MODEL_BASED_3D_ENGINEERING_MIM_LF { 1 0 10303 442 3 1 4 }'));
ENDSEC;

DATA;
#10=SHAPE_REPRESENTATION_RELATIONSHIP('','',#329,#11);
#11=ADVANCED_BREP_SHAPE_REPRESENTATION('',(#327),#611);
#12=DEGENERATE_TOROIDAL_SURFACE('',#376,0.000332621115729583,0.002,.T.);
#13=DEGENERATE_TOROIDAL_SURFACE('',#377,0.000719572455640956,0.002,.T.);
#14=TOROIDAL_SURFACE('',#374,0.00749723440359258,0.002);
#15=TOROIDAL_SURFACE('',#375,0.0122866107157396,0.002);
#16=TOROIDAL_SURFACE('',#378,0.0252242020212308,0.002);
#17=PLANE('',#367);
#18=PLANE('',#368);
#19=B_SPLINE_CURVE_WITH_KNOTS('',3,(#524,#525,#526,#527,#528),
 .UNSPECIFIED.,.F.,.F.,(4,1,4),(2.79715755706988E-17,0.00167548802066978,
0.00335097604133953),.UNSPECIFIED.);
#20=B_SPLINE_CURVE_WITH_KNOTS('',3,(#568,#569,#570,#571,#572),
 .UNSPECIFIED.,.F.,.F.,(4,1,4),(0.,0.00164831029129194,0.00329662058258388),
 .UNSPECIFIED.);
#21=B_SPLINE_CURVE_WITH_KNOTS('',3,(#586,#587,#588,#589,#590),
 .UNSPECIFIED.,.F.,.F.,(4,1,4),(0.,0.00156625575370595,0.0031325115074119),
 .UNSPECIFIED.);
#22=B_SPLINE_CURVE_WITH_KNOTS('',3,(#592,#593,#594,#595,#596),
 .UNSPECIFIED.,.F.,.F.,(4,1,4),(0.,0.00158637976951034,0.00317275953902069),
 .UNSPECIFIED.);
#23=B_SPLINE_CURVE_WITH_KNOTS('',3,(#598,#599,#600,#601,#602),
 .UNSPECIFIED.,.F.,.F.,(4,1,4),(0.,0.0015626203940199,0.0031252407880398),
 .UNSPECIFIED.);
#24=B_SPLINE_CURVE_WITH_KNOTS('',3,(#604,#605,#606,#607,#608),
 .UNSPECIFIED.,.F.,.F.,(4,1,4),(0.,0.00156916396418731,0.00313832792837462),
 .UNSPECIFIED.);
#25=CIRCLE('',#332,0.0142866107157396);
#26=CIRCLE('',#333,0.0142866107157396);
#27=CIRCLE('',#335,0.00271957245564096);
#28=CIRCLE('',#336,0.00271957245564096);
#29=CIRCLE('',#338,0.0272242020212308);
#30=CIRCLE('',#339,0.0272242020212308);
#31=CIRCLE('',#341,0.00233262111572959);
#32=CIRCLE('',#342,0.00233262111572959);
#33=CIRCLE('',#344,0.00949723440359258);
#34=CIRCLE('',#345,0.00949723440359258);
#35=CIRCLE('',#347,0.00674576063251576);
#36=CIRCLE('',#348,0.00674576063251576);
#37=CIRCLE('',#350,0.000456176740232285);
#38=CIRCLE('',#351,0.000456176740232285);
#39=CIRCLE('',#353,0.00745818918629305);
#40=CIRCLE('',#354,0.00745818918629305);
#41=CIRCLE('',#356,0.00131493566375516);
#42=CIRCLE('',#357,0.00131493566375516);
#43=CIRCLE('',#359,0.00763755452183929);
#44=CIRCLE('',#360,0.00763755452183929);
#45=CIRCLE('',#362,0.000386625013506401);
#46=CIRCLE('',#363,0.000386625013506401);
#47=CIRCLE('',#365,0.00731687814608975);
#48=CIRCLE('',#366,0.00731687814608975);
#49=CIRCLE('',#369,0.0122866107157396);
#50=CIRCLE('',#370,0.00749723440359258);
#51=CIRCLE('',#371,0.000332621115729583);
#52=CIRCLE('',#372,0.0252242020212308);
#53=CIRCLE('',#373,0.000719572455640956);
#54=ORIENTED_EDGE('',*,*,#148,.F.);
#55=ORIENTED_EDGE('',*,*,#149,.T.);
#56=ORIENTED_EDGE('',*,*,#150,.T.);
#57=ORIENTED_EDGE('',*,*,#151,.T.);
#58=ORIENTED_EDGE('',*,*,#150,.F.);
#59=ORIENTED_EDGE('',*,*,#152,.T.);
#60=ORIENTED_EDGE('',*,*,#153,.T.);
#61=ORIENTED_EDGE('',*,*,#154,.T.);
#62=ORIENTED_EDGE('',*,*,#153,.F.);
#63=ORIENTED_EDGE('',*,*,#155,.T.);
#64=ORIENTED_EDGE('',*,*,#156,.T.);
#65=ORIENTED_EDGE('',*,*,#157,.T.);
#66=ORIENTED_EDGE('',*,*,#156,.F.);
#67=ORIENTED_EDGE('',*,*,#158,.T.);
#68=ORIENTED_EDGE('',*,*,#159,.T.);
#69=ORIENTED_EDGE('',*,*,#160,.T.);
#70=ORIENTED_EDGE('',*,*,#159,.F.);
#71=ORIENTED_EDGE('',*,*,#161,.T.);
#72=ORIENTED_EDGE('',*,*,#162,.T.);
#73=ORIENTED_EDGE('',*,*,#163,.T.);
#74=ORIENTED_EDGE('',*,*,#162,.F.);
#75=ORIENTED_EDGE('',*,*,#164,.T.);
#76=ORIENTED_EDGE('',*,*,#165,.T.);
#77=ORIENTED_EDGE('',*,*,#166,.T.);
#78=ORIENTED_EDGE('',*,*,#167,.F.);
#79=ORIENTED_EDGE('',*,*,#166,.F.);
#80=ORIENTED_EDGE('',*,*,#168,.F.);
#81=ORIENTED_EDGE('',*,*,#169,.T.);
#82=ORIENTED_EDGE('',*,*,#170,.T.);
#83=ORIENTED_EDGE('',*,*,#169,.F.);
#84=ORIENTED_EDGE('',*,*,#171,.F.);
#85=ORIENTED_EDGE('',*,*,#172,.T.);
#86=ORIENTED_EDGE('',*,*,#173,.T.);
#87=ORIENTED_EDGE('',*,*,#172,.F.);
#88=ORIENTED_EDGE('',*,*,#174,.F.);
#89=ORIENTED_EDGE('',*,*,#175,.T.);
#90=ORIENTED_EDGE('',*,*,#176,.T.);
#91=ORIENTED_EDGE('',*,*,#175,.F.);
#92=ORIENTED_EDGE('',*,*,#177,.F.);
#93=ORIENTED_EDGE('',*,*,#178,.T.);
#94=ORIENTED_EDGE('',*,*,#179,.T.);
#95=ORIENTED_EDGE('',*,*,#178,.F.);
#96=ORIENTED_EDGE('',*,*,#180,.F.);
#97=ORIENTED_EDGE('',*,*,#181,.T.);
#98=ORIENTED_EDGE('',*,*,#182,.T.);
#99=ORIENTED_EDGE('',*,*,#183,.T.);
#100=ORIENTED_EDGE('',*,*,#184,.T.);
#101=ORIENTED_EDGE('',*,*,#148,.T.);
#102=ORIENTED_EDGE('',*,*,#185,.F.);
#103=ORIENTED_EDGE('',*,*,#181,.F.);
#104=ORIENTED_EDGE('',*,*,#182,.F.);
#105=ORIENTED_EDGE('',*,*,#185,.T.);
#106=ORIENTED_EDGE('',*,*,#151,.F.);
#107=ORIENTED_EDGE('',*,*,#154,.F.);
#108=ORIENTED_EDGE('',*,*,#157,.F.);
#109=ORIENTED_EDGE('',*,*,#160,.F.);
#110=ORIENTED_EDGE('',*,*,#163,.F.);
#111=ORIENTED_EDGE('',*,*,#167,.T.);
#112=ORIENTED_EDGE('',*,*,#170,.F.);
#113=ORIENTED_EDGE('',*,*,#173,.F.);
#114=ORIENTED_EDGE('',*,*,#176,.F.);
#115=ORIENTED_EDGE('',*,*,#179,.F.);
#116=ORIENTED_EDGE('',*,*,#186,.T.);
#117=ORIENTED_EDGE('',*,*,#183,.F.);
#118=ORIENTED_EDGE('',*,*,#180,.T.);
#119=ORIENTED_EDGE('',*,*,#177,.T.);
#120=ORIENTED_EDGE('',*,*,#174,.T.);
#121=ORIENTED_EDGE('',*,*,#171,.T.);
#122=ORIENTED_EDGE('',*,*,#168,.T.);
#123=ORIENTED_EDGE('',*,*,#165,.F.);
#124=ORIENTED_EDGE('',*,*,#187,.T.);
#125=ORIENTED_EDGE('',*,*,#188,.T.);
#126=ORIENTED_EDGE('',*,*,#189,.T.);
#127=ORIENTED_EDGE('',*,*,#190,.T.);
#128=ORIENTED_EDGE('',*,*,#164,.F.);
#129=ORIENTED_EDGE('',*,*,#161,.F.);
#130=ORIENTED_EDGE('',*,*,#191,.F.);
#131=ORIENTED_EDGE('',*,*,#187,.F.);
#132=ORIENTED_EDGE('',*,*,#184,.F.);
#133=ORIENTED_EDGE('',*,*,#186,.F.);
#134=ORIENTED_EDGE('',*,*,#192,.F.);
#135=ORIENTED_EDGE('',*,*,#149,.F.);
#136=ORIENTED_EDGE('',*,*,#191,.T.);
#137=ORIENTED_EDGE('',*,*,#158,.F.);
#138=ORIENTED_EDGE('',*,*,#193,.F.);
#139=ORIENTED_EDGE('',*,*,#188,.F.);
#140=ORIENTED_EDGE('',*,*,#192,.T.);
#141=ORIENTED_EDGE('',*,*,#190,.F.);
#142=ORIENTED_EDGE('',*,*,#194,.F.);
#143=ORIENTED_EDGE('',*,*,#152,.F.);
#144=ORIENTED_EDGE('',*,*,#193,.T.);
#145=ORIENTED_EDGE('',*,*,#155,.F.);
#146=ORIENTED_EDGE('',*,*,#194,.T.);
#147=ORIENTED_EDGE('',*,*,#189,.F.);
#148=EDGE_CURVE('',#195,#196,#225,.T.);
#149=EDGE_CURVE('',#195,#197,#25,.T.);
#150=EDGE_CURVE('',#197,#198,#226,.T.);
#151=EDGE_CURVE('',#198,#196,#26,.T.);
#152=EDGE_CURVE('',#197,#199,#27,.T.);
#153=EDGE_CURVE('',#199,#200,#227,.T.);
#154=EDGE_CURVE('',#200,#198,#28,.T.);
#155=EDGE_CURVE('',#199,#201,#29,.T.);
#156=EDGE_CURVE('',#201,#202,#228,.T.);
#157=EDGE_CURVE('',#202,#200,#30,.T.);
#158=EDGE_CURVE('',#201,#203,#31,.T.);
#159=EDGE_CURVE('',#203,#204,#229,.T.);
#160=EDGE_CURVE('',#204,#202,#32,.T.);
#161=EDGE_CURVE('',#203,#205,#33,.T.);
#162=EDGE_CURVE('',#205,#206,#230,.T.);
#163=EDGE_CURVE('',#206,#204,#34,.T.);
#164=EDGE_CURVE('',#205,#207,#19,.T.);
#165=EDGE_CURVE('',#207,#208,#35,.T.);
#166=EDGE_CURVE('',#208,#209,#231,.T.);
#167=EDGE_CURVE('',#206,#209,#36,.T.);
#168=EDGE_CURVE('',#210,#208,#37,.T.);
#169=EDGE_CURVE('',#210,#211,#232,.T.);
#170=EDGE_CURVE('',#211,#209,#38,.T.);
#171=EDGE_CURVE('',#212,#210,#39,.T.);
#172=EDGE_CURVE('',#212,#213,#233,.T.);
#173=EDGE_CURVE('',#213,#211,#40,.T.);
#174=EDGE_CURVE('',#214,#212,#41,.T.);
#175=EDGE_CURVE('',#214,#215,#234,.T.);
#176=EDGE_CURVE('',#215,#213,#42,.T.);
#177=EDGE_CURVE('',#216,#214,#43,.T.);
#178=EDGE_CURVE('',#216,#217,#235,.T.);
#179=EDGE_CURVE('',#217,#215,#44,.T.);
#180=EDGE_CURVE('',#218,#216,#45,.T.);
#181=EDGE_CURVE('',#218,#219,#236,.T.);
#182=EDGE_CURVE('',#219,#217,#46,.T.);
#183=EDGE_CURVE('',#218,#220,#47,.T.);
#184=EDGE_CURVE('',#220,#195,#20,.T.);
#185=EDGE_CURVE('',#219,#196,#48,.T.);
#186=EDGE_CURVE('',#221,#220,#49,.F.);
#187=EDGE_CURVE('',#207,#222,#50,.F.);
#188=EDGE_CURVE('',#222,#223,#51,.F.);
#189=EDGE_CURVE('',#223,#224,#52,.F.);
#190=EDGE_CURVE('',#224,#221,#53,.F.);
#191=EDGE_CURVE('',#222,#203,#21,.F.);
#192=EDGE_CURVE('',#197,#221,#22,.T.);
#193=EDGE_CURVE('',#223,#201,#23,.F.);
#194=EDGE_CURVE('',#199,#224,#24,.T.);
#195=VERTEX_POINT('',#492);
#196=VERTEX_POINT('',#493);
#197=VERTEX_POINT('',#495);
#198=VERTEX_POINT('',#497);
#199=VERTEX_POINT('',#501);
#200=VERTEX_POINT('',#503);
#201=VERTEX_POINT('',#507);
#202=VERTEX_POINT('',#509);
#203=VERTEX_POINT('',#513);
#204=VERTEX_POINT('',#515);
#205=VERTEX_POINT('',#519);
#206=VERTEX_POINT('',#521);
#207=VERTEX_POINT('',#529);
#208=VERTEX_POINT('',#531);
#209=VERTEX_POINT('',#533);
#210=VERTEX_POINT('',#537);
#211=VERTEX_POINT('',#539);
#212=VERTEX_POINT('',#543);
#213=VERTEX_POINT('',#545);
#214=VERTEX_POINT('',#549);
#215=VERTEX_POINT('',#551);
#216=VERTEX_POINT('',#555);
#217=VERTEX_POINT('',#557);
#218=VERTEX_POINT('',#561);
#219=VERTEX_POINT('',#563);
#220=VERTEX_POINT('',#567);
#221=VERTEX_POINT('',#577);
#222=VERTEX_POINT('',#579);
#223=VERTEX_POINT('',#581);
#224=VERTEX_POINT('',#583);
#225=LINE('',#491,#237);
#226=LINE('',#496,#238);
#227=LINE('',#502,#239);
#228=LINE('',#508,#240);
#229=LINE('',#514,#241);
#230=LINE('',#520,#242);
#231=LINE('',#532,#243);
#232=LINE('',#538,#244);
#233=LINE('',#544,#245);
#234=LINE('',#550,#246);
#235=LINE('',#556,#247);
#236=LINE('',#562,#248);
#237=VECTOR('',#383,1.);
#238=VECTOR('',#386,1.);
#239=VECTOR('',#393,1.);
#240=VECTOR('',#400,1.);
#241=VECTOR('',#407,1.);
#242=VECTOR('',#414,1.);
#243=VECTOR('',#421,1.);
#244=VECTOR('',#428,1.);
#245=VECTOR('',#435,1.);
#246=VECTOR('',#442,1.);
#247=VECTOR('',#449,1.);
#248=VECTOR('',#456,1.);
#249=EDGE_LOOP('',(#54,#55,#56,#57));
#250=EDGE_LOOP('',(#58,#59,#60,#61));
#251=EDGE_LOOP('',(#62,#63,#64,#65));
#252=EDGE_LOOP('',(#66,#67,#68,#69));
#253=EDGE_LOOP('',(#70,#71,#72,#73));
#254=EDGE_LOOP('',(#74,#75,#76,#77,#78));
#255=EDGE_LOOP('',(#79,#80,#81,#82));
#256=EDGE_LOOP('',(#83,#84,#85,#86));
#257=EDGE_LOOP('',(#87,#88,#89,#90));
#258=EDGE_LOOP('',(#91,#92,#93,#94));
#259=EDGE_LOOP('',(#95,#96,#97,#98));
#260=EDGE_LOOP('',(#99,#100,#101,#102,#103));
#261=EDGE_LOOP('',(#104,#105,#106,#107,#108,#109,#110,#111,#112,#113,#114,
#115));
#262=EDGE_LOOP('',(#116,#117,#118,#119,#120,#121,#122,#123,#124,#125,#126,
#127));
#263=EDGE_LOOP('',(#128,#129,#130,#131));
#264=EDGE_LOOP('',(#132,#133,#134,#135));
#265=EDGE_LOOP('',(#136,#137,#138,#139));
#266=EDGE_LOOP('',(#140,#141,#142,#143));
#267=EDGE_LOOP('',(#144,#145,#146,#147));
#268=FACE_BOUND('',#249,.T.);
#269=FACE_BOUND('',#250,.T.);
#270=FACE_BOUND('',#251,.T.);
#271=FACE_BOUND('',#252,.T.);
#272=FACE_BOUND('',#253,.T.);
#273=FACE_BOUND('',#254,.T.);
#274=FACE_BOUND('',#255,.T.);
#275=FACE_BOUND('',#256,.T.);
#276=FACE_BOUND('',#257,.T.);
#277=FACE_BOUND('',#258,.T.);
#278=FACE_BOUND('',#259,.T.);
#279=FACE_BOUND('',#260,.T.);
#280=FACE_BOUND('',#261,.T.);
#281=FACE_BOUND('',#262,.T.);
#282=FACE_BOUND('',#263,.T.);
#283=FACE_BOUND('',#264,.T.);
#284=FACE_BOUND('',#265,.T.);
#285=FACE_BOUND('',#266,.T.);
#286=FACE_BOUND('',#267,.T.);
#287=CYLINDRICAL_SURFACE('',#331,0.0142866107157396);
#288=CYLINDRICAL_SURFACE('',#334,0.00271957245564096);
#289=CYLINDRICAL_SURFACE('',#337,0.0272242020212308);
#290=CYLINDRICAL_SURFACE('',#340,0.00233262111572959);
#291=CYLINDRICAL_SURFACE('',#343,0.00949723440359258);
#292=CYLINDRICAL_SURFACE('',#346,0.00674576063251576);
#293=CYLINDRICAL_SURFACE('',#349,0.000456176740232285);
#294=CYLINDRICAL_SURFACE('',#352,0.00745818918629305);
#295=CYLINDRICAL_SURFACE('',#355,0.00131493566375516);
#296=CYLINDRICAL_SURFACE('',#358,0.00763755452183929);
#297=CYLINDRICAL_SURFACE('',#361,0.000386625013506401);
#298=CYLINDRICAL_SURFACE('',#364,0.00731687814608975);
#299=ADVANCED_FACE('Face appearance 11',(#268),#287,.T.);
#300=ADVANCED_FACE('Face appearance 11',(#269),#288,.T.);
#301=ADVANCED_FACE('Face appearance 11',(#270),#289,.T.);
#302=ADVANCED_FACE('Face appearance 11',(#271),#290,.T.);
#303=ADVANCED_FACE('Face appearance 11',(#272),#291,.T.);
#304=ADVANCED_FACE('Face appearance 11',(#273),#292,.F.);
#305=ADVANCED_FACE('Face appearance 11',(#274),#293,.T.);
#306=ADVANCED_FACE('Face appearance 11',(#275),#294,.T.);
#307=ADVANCED_FACE('Face appearance 11',(#276),#295,.T.);
#308=ADVANCED_FACE('Face appearance 11',(#277),#296,.T.);
#309=ADVANCED_FACE('Face appearance 11',(#278),#297,.T.);
#310=ADVANCED_FACE('Face appearance 11',(#279),#298,.F.);
#311=ADVANCED_FACE('Face appearance 11',(#280),#17,.T.);
#312=ADVANCED_FACE('Face appearance 11',(#281),#18,.F.);
#313=ADVANCED_FACE('',(#282),#14,.T.);
#314=ADVANCED_FACE('',(#283),#15,.T.);
#315=ADVANCED_FACE('',(#284),#12,.T.);
#316=ADVANCED_FACE('',(#285),#13,.T.);
#317=ADVANCED_FACE('',(#286),#16,.T.);
#318=CLOSED_SHELL('',(#299,#300,#301,#302,#303,#304,#305,#306,#307,#308,
#309,#310,#311,#312,#313,#314,#315,#316,#317));
#319=STYLED_ITEM('',(#320),#327);
#320=PRESENTATION_STYLE_ASSIGNMENT((#321));
#321=SURFACE_STYLE_USAGE(.BOTH.,#322);
#322=SURFACE_SIDE_STYLE('',(#323));
#323=SURFACE_STYLE_FILL_AREA(#324);
#324=FILL_AREA_STYLE('',(#325));
#325=FILL_AREA_STYLE_COLOUR('',#326);
#326=DRAUGHTING_PRE_DEFINED_COLOUR('black');
#327=MANIFOLD_SOLID_BREP('Part 23',#318);
#328=SHAPE_DEFINITION_REPRESENTATION(#616,#329);
#329=SHAPE_REPRESENTATION('Part 23',(#330),#611);
#330=AXIS2_PLACEMENT_3D('',#489,#379,#380);
#331=AXIS2_PLACEMENT_3D('',#490,#381,#382);
#332=AXIS2_PLACEMENT_3D('',#494,#384,#385);
#333=AXIS2_PLACEMENT_3D('',#498,#387,#388);
#334=AXIS2_PLACEMENT_3D('',#499,#389,#390);
#335=AXIS2_PLACEMENT_3D('',#500,#391,#392);
#336=AXIS2_PLACEMENT_3D('',#504,#394,#395);
#337=AXIS2_PLACEMENT_3D('',#505,#396,#397);
#338=AXIS2_PLACEMENT_3D('',#506,#398,#399);
#339=AXIS2_PLACEMENT_3D('',#510,#401,#402);
#340=AXIS2_PLACEMENT_3D('',#511,#403,#404);
#341=AXIS2_PLACEMENT_3D('',#512,#405,#406);
#342=AXIS2_PLACEMENT_3D('',#516,#408,#409);
#343=AXIS2_PLACEMENT_3D('',#517,#410,#411);
#344=AXIS2_PLACEMENT_3D('',#518,#412,#413);
#345=AXIS2_PLACEMENT_3D('',#522,#415,#416);
#346=AXIS2_PLACEMENT_3D('',#523,#417,#418);
#347=AXIS2_PLACEMENT_3D('',#530,#419,#420);
#348=AXIS2_PLACEMENT_3D('',#534,#422,#423);
#349=AXIS2_PLACEMENT_3D('',#535,#424,#425);
#350=AXIS2_PLACEMENT_3D('',#536,#426,#427);
#351=AXIS2_PLACEMENT_3D('',#540,#429,#430);
#352=AXIS2_PLACEMENT_3D('',#541,#431,#432);
#353=AXIS2_PLACEMENT_3D('',#542,#433,#434);
#354=AXIS2_PLACEMENT_3D('',#546,#436,#437);
#355=AXIS2_PLACEMENT_3D('',#547,#438,#439);
#356=AXIS2_PLACEMENT_3D('',#548,#440,#441);
#357=AXIS2_PLACEMENT_3D('',#552,#443,#444);
#358=AXIS2_PLACEMENT_3D('',#553,#445,#446);
#359=AXIS2_PLACEMENT_3D('',#554,#447,#448);
#360=AXIS2_PLACEMENT_3D('',#558,#450,#451);
#361=AXIS2_PLACEMENT_3D('',#559,#452,#453);
#362=AXIS2_PLACEMENT_3D('',#560,#454,#455);
#363=AXIS2_PLACEMENT_3D('',#564,#457,#458);
#364=AXIS2_PLACEMENT_3D('',#565,#459,#460);
#365=AXIS2_PLACEMENT_3D('',#566,#461,#462);
#366=AXIS2_PLACEMENT_3D('',#573,#463,#464);
#367=AXIS2_PLACEMENT_3D('',#574,#465,#466);
#368=AXIS2_PLACEMENT_3D('',#575,#467,#468);
#369=AXIS2_PLACEMENT_3D('',#576,#469,#470);
#370=AXIS2_PLACEMENT_3D('',#578,#471,#472);
#371=AXIS2_PLACEMENT_3D('',#580,#473,#474);
#372=AXIS2_PLACEMENT_3D('',#582,#475,#476);
#373=AXIS2_PLACEMENT_3D('',#584,#477,#478);
#374=AXIS2_PLACEMENT_3D('',#585,#479,#480);
#375=AXIS2_PLACEMENT_3D('',#591,#481,#482);
#376=AXIS2_PLACEMENT_3D('',#597,#483,#484);
#377=AXIS2_PLACEMENT_3D('',#603,#485,#486);
#378=AXIS2_PLACEMENT_3D('',#609,#487,#488);
#379=DIRECTION('',(0.,0.,1.));
#380=DIRECTION('',(1.,0.,0.));
#381=DIRECTION('',(1.,0.,0.));
#382=DIRECTION('',(0.,0.,-1.));
#383=DIRECTION('',(1.,0.,0.));
#384=DIRECTION('',(1.,0.,0.));
#385=DIRECTION('',(0.,0.,-1.));
#386=DIRECTION('',(1.,0.,0.));
#387=DIRECTION('',(-1.,0.,0.));
#388=DIRECTION('',(0.,0.,-1.));
#389=DIRECTION('',(1.,0.,0.));
#390=DIRECTION('',(0.,0.,-1.));
#391=DIRECTION('',(1.,0.,0.));
#392=DIRECTION('',(0.,0.,-1.));
#393=DIRECTION('',(1.,0.,0.));
#394=DIRECTION('',(-1.,0.,0.));
#395=DIRECTION('',(0.,0.,-1.));
#396=DIRECTION('',(1.,0.,0.));
#397=DIRECTION('',(0.,0.,-1.));
#398=DIRECTION('',(1.,0.,0.));
#399=DIRECTION('',(0.,0.,-1.));
#400=DIRECTION('',(1.,0.,0.));
#401=DIRECTION('',(-1.,0.,0.));
#402=DIRECTION('',(0.,0.,-1.));
#403=DIRECTION('',(1.,0.,0.));
#404=DIRECTION('',(0.,0.,-1.));
#405=DIRECTION('',(1.,0.,0.));
#406=DIRECTION('',(0.,0.,-1.));
#407=DIRECTION('',(1.,0.,0.));
#408=DIRECTION('',(-1.,0.,0.));
#409=DIRECTION('',(0.,0.,-1.));
#410=DIRECTION('',(1.,0.,0.));
#411=DIRECTION('',(0.,0.,-1.));
#412=DIRECTION('',(1.,0.,0.));
#413=DIRECTION('',(0.,0.,-1.));
#414=DIRECTION('',(1.,0.,0.));
#415=DIRECTION('',(-1.,0.,0.));
#416=DIRECTION('',(0.,0.,-1.));
#417=DIRECTION('',(1.,0.,0.));
#418=DIRECTION('',(0.,0.,-1.));
#419=DIRECTION('',(-1.,0.,0.));
#420=DIRECTION('',(0.,0.,1.));
#421=DIRECTION('',(1.,0.,0.));
#422=DIRECTION('',(-1.,0.,0.));
#423=DIRECTION('',(0.,0.,-1.));
#424=DIRECTION('',(1.,0.,0.));
#425=DIRECTION('',(0.,0.,-1.));
#426=DIRECTION('',(-1.,0.,0.));
#427=DIRECTION('',(0.,0.,1.));
#428=DIRECTION('',(1.,0.,0.));
#429=DIRECTION('',(-1.,0.,0.));
#430=DIRECTION('',(0.,0.,-1.));
#431=DIRECTION('',(1.,0.,0.));
#432=DIRECTION('',(0.,0.,-1.));
#433=DIRECTION('',(-1.,0.,0.));
#434=DIRECTION('',(0.,0.,1.));
#435=DIRECTION('',(1.,0.,0.));
#436=DIRECTION('',(-1.,0.,0.));
#437=DIRECTION('',(0.,0.,-1.));
#438=DIRECTION('',(1.,0.,0.));
#439=DIRECTION('',(0.,0.,-1.));
#440=DIRECTION('',(-1.,0.,0.));
#441=DIRECTION('',(0.,0.,1.));
#442=DIRECTION('',(1.,0.,0.));
#443=DIRECTION('',(-1.,0.,0.));
#444=DIRECTION('',(0.,0.,-1.));
#445=DIRECTION('',(1.,0.,0.));
#446=DIRECTION('',(0.,0.,-1.));
#447=DIRECTION('',(-1.,0.,0.));
#448=DIRECTION('',(0.,0.,1.));
#449=DIRECTION('',(1.,0.,0.));
#450=DIRECTION('',(-1.,0.,0.));
#451=DIRECTION('',(0.,0.,-1.));
#452=DIRECTION('',(1.,0.,0.));
#453=DIRECTION('',(0.,0.,-1.));
#454=DIRECTION('',(-1.,0.,0.));
#455=DIRECTION('',(0.,0.,1.));
#456=DIRECTION('',(1.,0.,0.));
#457=DIRECTION('',(-1.,0.,0.));
#458=DIRECTION('',(0.,0.,-1.));
#459=DIRECTION('',(1.,0.,0.));
#460=DIRECTION('',(0.,0.,-1.));
#461=DIRECTION('',(-1.,0.,0.));
#462=DIRECTION('',(0.,0.,1.));
#463=DIRECTION('',(-1.,0.,0.));
#464=DIRECTION('',(0.,0.,-1.));
#465=DIRECTION('',(1.,0.,0.));
#466=DIRECTION('',(0.,1.,0.));
#467=DIRECTION('',(1.,0.,0.));
#468=DIRECTION('',(0.,1.,0.));
#469=DIRECTION('',(1.,0.,0.));
#470=DIRECTION('',(0.,0.,-1.));
#471=DIRECTION('',(1.,0.,0.));
#472=DIRECTION('',(0.,0.,-1.));
#473=DIRECTION('',(1.,0.,0.));
#474=DIRECTION('',(0.,0.,-1.));
#475=DIRECTION('',(1.,0.,0.));
#476=DIRECTION('',(0.,0.,-1.));
#477=DIRECTION('',(1.,0.,0.));
#478=DIRECTION('',(0.,0.,-1.));
#479=DIRECTION('',(1.,0.,0.));
#480=DIRECTION('',(0.,0.,-1.));
#481=DIRECTION('',(1.,0.,0.));
#482=DIRECTION('',(0.,0.,-1.));
#483=DIRECTION('',(1.,0.,0.));
#484=DIRECTION('',(0.,0.,-1.));
#485=DIRECTION('',(1.,0.,0.));
#486=DIRECTION('',(0.,0.,-1.));
#487=DIRECTION('',(1.,0.,0.));
#488=DIRECTION('',(0.,0.,-1.));
#489=CARTESIAN_POINT('',(0.,0.,0.));
#490=CARTESIAN_POINT('',(-0.00564,-0.0753755010582675,-0.0205523008586984));
#491=CARTESIAN_POINT('',(-0.00564,-0.0789603069424629,-0.00672275232970715));
#492=CARTESIAN_POINT('',(-0.08864,-0.0789603069424629,-0.00672275232970715));
#493=CARTESIAN_POINT('',(-0.00564,-0.0789603069424629,-0.00672275232970715));
#494=CARTESIAN_POINT('',(-0.08864,-0.0753755010582675,-0.0205523008586984));
#495=CARTESIAN_POINT('',(-0.08864,-0.0865454524755478,-0.0116450324177742));
#496=CARTESIAN_POINT('',(-0.00564,-0.0865454524755478,-0.0116450324177742));
#497=CARTESIAN_POINT('',(-0.00564,-0.0865454524755478,-0.0116450324177742));
#498=CARTESIAN_POINT('',(-0.00564,-0.0753755010582675,-0.0205523008586984));
#499=CARTESIAN_POINT('',(-0.00564,-0.0839845098736534,-0.0125602631707996));
#500=CARTESIAN_POINT('',(-0.08864,-0.0839845098736534,-0.0125602631707996));
#501=CARTESIAN_POINT('',(-0.08864,-0.0841246619820595,-0.0152762218832969));
#502=CARTESIAN_POINT('',(-0.00564,-0.0841246619820595,-0.0152762218832969));
#503=CARTESIAN_POINT('',(-0.00564,-0.0841246619820595,-0.0152762218832969));
#504=CARTESIAN_POINT('',(-0.00564,-0.0839845098736534,-0.0125602631707996));
#505=CARTESIAN_POINT('',(-0.00564,-0.0777499042451382,0.0111911096687947));
#506=CARTESIAN_POINT('',(-0.08864,-0.0777499042451382,0.0111911096687947));
#507=CARTESIAN_POINT('',(-0.08864,-0.0713751465082169,-0.0152762218832969));
#508=CARTESIAN_POINT('',(-0.00564,-0.0713751465082169,-0.0152762218832969));
#509=CARTESIAN_POINT('',(-0.00564,-0.0713751465082169,-0.0152762218832969));
#510=CARTESIAN_POINT('',(-0.00564,-0.0777499042451382,0.0111911096687947));
#511=CARTESIAN_POINT('',(-0.00564,-0.0718296869814715,-0.0129883158039919));
#512=CARTESIAN_POINT('',(-0.08864,-0.0718296869814715,-0.0129883158039919));
#513=CARTESIAN_POINT('',(-0.08864,-0.0699226707220082,-0.011645032417775));
#514=CARTESIAN_POINT('',(-0.00564,-0.0699226707220082,-0.011645032417775));
#515=CARTESIAN_POINT('',(-0.00564,-0.0699226707220082,-0.011645032417775));
#516=CARTESIAN_POINT('',(-0.00564,-0.0718296869814715,-0.0129883158039919));
#517=CARTESIAN_POINT('',(-0.00564,-0.0782743812476094,-0.0161668011661019));
#518=CARTESIAN_POINT('',(-0.08864,-0.0782743812476094,-0.0161668011661019));
#519=CARTESIAN_POINT('',(-0.08864,-0.0772706866264343,-0.00672275232970714));
#520=CARTESIAN_POINT('',(-0.00564,-0.0772706866264343,-0.00672275232970714));
#521=CARTESIAN_POINT('',(-0.00564,-0.0772706866264343,-0.00672275232970714));
#522=CARTESIAN_POINT('',(-0.00564,-0.0782743812476094,-0.0161668011661019));
#523=CARTESIAN_POINT('',(-0.00564,-0.0705894686754798,-0.00579183170847173));
#524=CARTESIAN_POINT('',(-0.08864,-0.0772706866264343,-0.00672275232970727));
#525=CARTESIAN_POINT('',(-0.0892065071150723,-0.0772706866264343,-0.00672275232970727));
#526=CARTESIAN_POINT('',(-0.0903154440523202,-0.0772207970089601,-0.00725326070458175));
#527=CARTESIAN_POINT('',(-0.09064,-0.0768540984957791,-0.00835668840879522));
#528=CARTESIAN_POINT('',(-0.09064,-0.0765973334531859,-0.00885954214526301));
#529=CARTESIAN_POINT('',(-0.09064,-0.0765973334531859,-0.008859542145263));
#530=CARTESIAN_POINT('',(-0.09064,-0.0705894686754798,-0.00579183170847173));
#531=CARTESIAN_POINT('',(-0.09064,-0.0641905814409256,-0.00365652642101049));
#532=CARTESIAN_POINT('',(-0.00564,-0.0641905814409256,-0.00365652642101049));
#533=CARTESIAN_POINT('',(-0.00564,-0.0641905814409256,-0.00365652642101049));
#534=CARTESIAN_POINT('',(-0.00564,-0.0705894686754798,-0.00579183170847173));
#535=CARTESIAN_POINT('',(-0.00564,-0.0637365537705847,-0.00361229868204661));
#536=CARTESIAN_POINT('',(-0.09064,-0.0637365537705847,-0.00361229868204661));
#537=CARTESIAN_POINT('',(-0.09064,-0.0632825261002439,-0.00365652642101053));
#538=CARTESIAN_POINT('',(-0.00564,-0.0632825261002439,-0.00365652642101053));
#539=CARTESIAN_POINT('',(-0.00564,-0.0632825261002439,-0.00365652642101053));
#540=CARTESIAN_POINT('',(-0.00564,-0.0637365537705847,-0.00361229868204661));
#541=CARTESIAN_POINT('',(-0.00564,-0.0705923694196179,-0.00513665364011951));
#542=CARTESIAN_POINT('',(-0.09064,-0.0705923694196179,-0.00513665364011951));
#543=CARTESIAN_POINT('',(-0.09064,-0.0779022127389915,-0.00661678085922853));
#544=CARTESIAN_POINT('',(-0.00564,-0.0779022127389915,-0.00661678085922853));
#545=CARTESIAN_POINT('',(-0.00564,-0.0779022127389915,-0.00661678085922853));
#546=CARTESIAN_POINT('',(-0.00564,-0.0705923694196179,-0.00513665364011951));
#547=CARTESIAN_POINT('',(-0.00564,-0.0782553181052207,-0.00788341908704135));
#548=CARTESIAN_POINT('',(-0.09064,-0.0782553181052207,-0.00788341908704135));
#549=CARTESIAN_POINT('',(-0.09064,-0.0786084234714501,-0.00661678085922917));
#550=CARTESIAN_POINT('',(-0.00564,-0.0786084234714501,-0.00661678085922917));
#551=CARTESIAN_POINT('',(-0.00564,-0.0786084234714501,-0.00661678085922917));
#552=CARTESIAN_POINT('',(-0.00564,-0.0782553181052207,-0.00788341908704135));
#553=CARTESIAN_POINT('',(-0.00564,-0.0861978206898699,-0.00576045794402245));
#554=CARTESIAN_POINT('',(-0.09064,-0.0861978206898699,-0.00576045794402245));
#555=CARTESIAN_POINT('',(-0.09064,-0.0932469450181183,-0.00282071556092761));
#556=CARTESIAN_POINT('',(-0.00564,-0.0932469450181183,-0.00282071556092761));
#557=CARTESIAN_POINT('',(-0.00564,-0.0932469450181183,-0.00282071556092761));
#558=CARTESIAN_POINT('',(-0.00564,-0.0861978206898699,-0.00576045794402245));
#559=CARTESIAN_POINT('',(-0.00564,-0.0928736912774707,-0.00292151509545719));
#560=CARTESIAN_POINT('',(-0.09064,-0.0928736912774707,-0.00292151509545719));
#561=CARTESIAN_POINT('',(-0.09064,-0.0925004375368231,-0.0030223146299867));
#562=CARTESIAN_POINT('',(-0.00564,-0.0925004375368231,-0.0030223146299867));
#563=CARTESIAN_POINT('',(-0.00564,-0.0925004375368231,-0.0030223146299867));
#564=CARTESIAN_POINT('',(-0.00564,-0.0928736912774707,-0.00292151509545719));
#565=CARTESIAN_POINT('',(-0.00564,-0.0862757418081996,-0.00686807448868597));
#566=CARTESIAN_POINT('',(-0.09064,-0.0862757418081996,-0.00686807448868597));
#567=CARTESIAN_POINT('',(-0.09064,-0.0792439412664695,-0.00889056971638108));
#568=CARTESIAN_POINT('',(-0.09064,-0.0792439412664695,-0.00889056971638108));
#569=CARTESIAN_POINT('',(-0.09064,-0.079090153526892,-0.00835588132964762));
#570=CARTESIAN_POINT('',(-0.0902923018546102,-0.0789296084105296,-0.00723835929754627));
#571=CARTESIAN_POINT('',(-0.0891982940413582,-0.078960306942463,-0.00672275232970717));
#572=CARTESIAN_POINT('',(-0.08864,-0.078960306942463,-0.00672275232970717));
#573=CARTESIAN_POINT('',(-0.00564,-0.0862757418081996,-0.00686807448868597));
#574=CARTESIAN_POINT('',(-0.00564,-0.0785833531866038,-0.024257448981059));
#575=CARTESIAN_POINT('',(-0.09064,-0.0785833531866038,-0.024257448981059));
#576=CARTESIAN_POINT('',(-0.09064,-0.0753755010582675,-0.0205523008586984));
#577=CARTESIAN_POINT('',(-0.09064,-0.0847040705139924,-0.0125561396053316));
#578=CARTESIAN_POINT('',(-0.09064,-0.0782743812476094,-0.0161668011661019));
#579=CARTESIAN_POINT('',(-0.09064,-0.0716041706038046,-0.0127438180125229));
#580=CARTESIAN_POINT('',(-0.09064,-0.0718296869814715,-0.0129883158039919));
#581=CARTESIAN_POINT('',(-0.09064,-0.0717872596556219,-0.0133182199243821));
#582=CARTESIAN_POINT('',(-0.09064,-0.0777499042451382,0.0111911096687947));
#583=CARTESIAN_POINT('',(-0.09064,-0.0838920043210168,-0.0132738647694865));
#584=CARTESIAN_POINT('',(-0.09064,-0.0839845098736534,-0.0125602631707996));
#585=CARTESIAN_POINT('',(-0.08864,-0.0782743812476094,-0.0161668011661019));
#586=CARTESIAN_POINT('',(-0.08864,-0.0699226707220082,-0.011645032417775));
#587=CARTESIAN_POINT('',(-0.0891696049251055,-0.0699226707220082,-0.011645032417775));
#588=CARTESIAN_POINT('',(-0.0902075507058545,-0.0702891153386984,-0.0118771913407906));
#589=CARTESIAN_POINT('',(-0.09064,-0.0711879368735287,-0.0124286573942301));
#590=CARTESIAN_POINT('',(-0.09064,-0.0716041706038046,-0.012743818012523));
#591=CARTESIAN_POINT('',(-0.08864,-0.0753755010582675,-0.0205523008586984));
#592=CARTESIAN_POINT('',(-0.08864,-0.0865454524755478,-0.0116450324177742));
#593=CARTESIAN_POINT('',(-0.0891764333922137,-0.0865454524755478,-0.0116450324177742));
#594=CARTESIAN_POINT('',(-0.090226510836959,-0.0861501210789085,-0.0118653856063001));
#595=CARTESIAN_POINT('',(-0.09064,-0.0851992599500857,-0.012370636466605));
#596=CARTESIAN_POINT('',(-0.09064,-0.0847040705139924,-0.0125561396053316));
#597=CARTESIAN_POINT('',(-0.08864,-0.0718296869814715,-0.0129883158039919));
#598=CARTESIAN_POINT('',(-0.08864,-0.0713751465082169,-0.0152762218832969));
#599=CARTESIAN_POINT('',(-0.0891683733017119,-0.0713751465082169,-0.0152762218832969));
#600=CARTESIAN_POINT('',(-0.0902037847603274,-0.0714666173768169,-0.0148547424396494));
#601=CARTESIAN_POINT('',(-0.09064,-0.0716917850606044,-0.0138302804399335));
#602=CARTESIAN_POINT('',(-0.09064,-0.0717872596556217,-0.0133182199243821));
#603=CARTESIAN_POINT('',(-0.08864,-0.0839845098736534,-0.0125602631707996));
#604=CARTESIAN_POINT('',(-0.08864,-0.0841246619820595,-0.015276221883297));
#605=CARTESIAN_POINT('',(-0.0891705940532815,-0.0841246619820595,-0.015276221883297));
#606=CARTESIAN_POINT('',(-0.0902099956215291,-0.0840616029225802,-0.0148435140584486));
#607=CARTESIAN_POINT('',(-0.09064,-0.0839230818975078,-0.0137959986982835));
#608=CARTESIAN_POINT('',(-0.09064,-0.0838920043210168,-0.0132738647694865));
#609=CARTESIAN_POINT('',(-0.08864,-0.0777499042451382,0.0111911096687947));
#610=MECHANICAL_DESIGN_GEOMETRIC_PRESENTATION_REPRESENTATION('',(#319),
#611);
#611=(
GEOMETRIC_REPRESENTATION_CONTEXT(3)
GLOBAL_UNCERTAINTY_ASSIGNED_CONTEXT((#612))
GLOBAL_UNIT_ASSIGNED_CONTEXT((#615,#614,#613))
REPRESENTATION_CONTEXT('Part 23','TOP_LEVEL_ASSEMBLY_PART')
);
#612=UNCERTAINTY_MEASURE_WITH_UNIT(LENGTH_MEASURE(2.E-5),#615,
'DISTANCE_ACCURACY_VALUE','Maximum Tolerance applied to model');
#613=(
NAMED_UNIT(*)
SI_UNIT($,.STERADIAN.)
SOLID_ANGLE_UNIT()
);
#614=(
NAMED_UNIT(*)
PLANE_ANGLE_UNIT()
SI_UNIT($,.RADIAN.)
);
#615=(
LENGTH_UNIT()
NAMED_UNIT(*)
SI_UNIT($,.METRE.)
);
#616=PRODUCT_DEFINITION_SHAPE('','',#617);
#617=PRODUCT_DEFINITION('','',#619,#618);
#618=PRODUCT_DEFINITION_CONTEXT('',#625,'design');
#619=PRODUCT_DEFINITION_FORMATION_WITH_SPECIFIED_SOURCE('','',#621,
 .NOT_KNOWN.);
#620=PRODUCT_RELATED_PRODUCT_CATEGORY('','',(#621));
#621=PRODUCT('Part 23','Part 23','Part 23',(#623));
#622=PRODUCT_CATEGORY('','');
#623=PRODUCT_CONTEXT('',#625,'mechanical');
#624=APPLICATION_PROTOCOL_DEFINITION('international standard',
'ap242_managed_model_based_3d_engineering',2020,#625);
#625=APPLICATION_CONTEXT('managed model based 3d engineering');
ENDSEC;
END-ISO-10303-21;
