ISO-10303-21;
HEADER;
/* Generated by software containing ST-Developer
 * from STEP Tools, Inc. (www.steptools.com) 
 */
/* OPTION: using custom renumber hook */

FILE_DESCRIPTION(
/* description */ ('STEP AP242 Edition 2',
'CAx-IF Rec.Pracs.---Representation and Presentation of Product Manufa
cturing Information (PMI)---4.0---2014-10-13',
'CAx-IF Rec.Pracs.---3D Tessellated Geometry---0.4---2014-09-14','2;1',
'CAx-IF Rec.Pracs.---User Defined Attributes---1.5---2016-08-15'),
/* implementation_level */ '2;1');

FILE_NAME(
/* name */ 'Part Studio 1 - Part 21',
/* time_stamp */ '2026-06-18T16:33:49Z',
/* author */ (''),
/* organization */ (''),
/* preprocessor_version */ 'ST-DEVELOPER v20',
/* originating_system */ 'ONSHAPE BY PTC INC, 1.216',
/* authorisation */ '  ');

FILE_SCHEMA (('AP242_MANAGED_MODEL_BASED_3D_ENGINEERING_MIM_LF { 1 0 10303 442 3 1 4 }'));
ENDSEC;

DATA;
#10=SHAPE_REPRESENTATION_RELATIONSHIP('','',#362,#11);
#11=ADVANCED_BREP_SHAPE_REPRESENTATION('',(#360),#883);
#12=ORIENTED_CLOSED_SHELL('',*,#314,.F.);
#13=TOROIDAL_SURFACE('',#377,0.0117182317762455,0.006);
#14=TOROIDAL_SURFACE('',#394,0.0117182317762455,0.005);
#15=(
BOUNDED_SURFACE()
B_SPLINE_SURFACE(3,2,((#565,#566,#567),(#568,#569,#570),(#571,#572,#573),
(#574,#575,#576),(#577,#578,#579),(#580,#581,#582),(#583,#584,#585),(#586,
#587,#588),(#589,#590,#591),(#592,#593,#594),(#595,#596,#597),(#598,#599,
#600),(#601,#602,#603),(#604,#605,#606),(#607,#608,#609),(#610,#611,#612),
(#613,#614,#615),(#616,#617,#618),(#619,#620,#621),(#622,#623,#624),(#625,
#626,#627),(#628,#629,#630),(#631,#632,#633),(#634,#635,#636),(#637,#638,
#639),(#640,#641,#642)),.UNSPECIFIED.,.F.,.F.,.F.)
B_SPLINE_SURFACE_WITH_KNOTS((4,1,1,1,1,1,1,1,1,1,1,1,1,1,1,1,1,1,1,1,1,
1,1,4),(3,3),(0.0672674167660323,0.0673205517987558,0.0673736868314793,
0.0674799568969263,0.0676924970278203,0.0681175772896084,0.0685426575513964,
0.0689677378131845,0.0698178983367605,0.0706680588603366,0.0715182193839127,
0.0723683799074888,0.074068700954641,0.0757690220017932,0.0766191825253692,
0.0774693430489453,0.0778944233107334,0.0783195035725214,0.0785320437034154,
0.0786383137688624,0.0787445838343095,0.0791696640960975,0.0800198246196736,
0.0808699851432497),(0.,1.),.UNSPECIFIED.)
GEOMETRIC_REPRESENTATION_ITEM()
RATIONAL_B_SPLINE_SURFACE(((1.,0.707106781186548,1.),(1.,0.707106781186548,
1.),(1.,0.707106781186547,1.),(1.,0.707106781186548,1.),(1.,0.707106781186548,
1.),(1.,0.707106781186548,1.),(1.,0.707106781186548,1.),(1.,0.707106781186548,
1.),(1.,0.707106781186548,1.),(1.,0.707106781186547,1.),(1.,0.707106781186548,
1.),(1.,0.707106781186547,1.),(1.,0.707106781186548,1.),(1.,0.707106781186548,
1.),(1.,0.707106781186547,1.),(1.,0.707106781186548,1.),(1.,0.707106781186547,
1.),(1.,0.707106781186548,1.),(1.,0.707106781186548,1.),(1.,0.707106781186547,
1.),(1.,0.707106781186548,1.),(1.,0.707106781186547,1.),(1.,0.707106781186548,
1.),(1.,0.707106781186548,1.),(1.,0.707106781186547,1.),(1.,0.707106781186547,
1.)))
REPRESENTATION_ITEM('')
SURFACE()
);
#16=(
BOUNDED_SURFACE()
B_SPLINE_SURFACE(3,2,((#657,#658,#659),(#660,#661,#662),(#663,#664,#665),
(#666,#667,#668),(#669,#670,#671),(#672,#673,#674),(#675,#676,#677),(#678,
#679,#680),(#681,#682,#683),(#684,#685,#686),(#687,#688,#689),(#690,#691,
#692)),.UNSPECIFIED.,.F.,.F.,.F.)
B_SPLINE_SURFACE_WITH_KNOTS((4,1,1,1,1,1,1,1,1,4),(3,3),(2.47198095326695E-17,
0.00184005465660958,0.00368010931321914,0.00552016396982869,0.00644019129813347,
0.00736021862643825,0.0092002732830478,0.0110403279396574,0.0128803825962669,
0.0147204372528765),(0.,1.),.UNSPECIFIED.)
GEOMETRIC_REPRESENTATION_ITEM()
RATIONAL_B_SPLINE_SURFACE(((1.,0.929937552098636,1.),(1.,0.929937552008144,
1.),(1.,0.924751462494115,1.),(1.,0.903462926976869,1.),(1.,0.87701078298238,
1.),(1.,0.853494403584231,1.),(1.,0.825029367716341,1.),(1.,0.787824083823088,
1.),(1.,0.746296043275854,1.),(1.,0.714767356213059,1.),(1.,0.706986363298801,
1.),(1.,0.707106781186549,1.)))
REPRESENTATION_ITEM('')
SURFACE()
);
#17=(
BOUNDED_SURFACE()
B_SPLINE_SURFACE(3,2,((#779,#780,#781),(#782,#783,#784),(#785,#786,#787),
(#788,#789,#790),(#791,#792,#793),(#794,#795,#796),(#797,#798,#799),(#800,
#801,#802),(#803,#804,#805),(#806,#807,#808),(#809,#810,#811),(#812,#813,
#814),(#815,#816,#817),(#818,#819,#820),(#821,#822,#823),(#824,#825,#826),
(#827,#828,#829)),.UNSPECIFIED.,.F.,.F.,.F.)
B_SPLINE_SURFACE_WITH_KNOTS((4,1,1,1,1,1,1,1,1,1,1,1,1,1,4),(3,3),(0.0681816576121078,
0.0713523763192026,0.07293773567275,0.0745230950262974,0.0761084543798449,
0.0769011340566186,0.0776938137333923,0.0780901535717791,0.078486493410166,
0.0785855783697627,0.0786846633293594,0.0788828332485528,0.0792791730869397,
0.0800718527637134,0.0808645324404871),(0.,1.),.UNSPECIFIED.)
GEOMETRIC_REPRESENTATION_ITEM()
RATIONAL_B_SPLINE_SURFACE(((1.,0.707106781186547,1.),(1.,0.707106781186547,
1.),(1.,0.707106781186548,1.),(1.,0.707106781186547,1.),(1.,0.707106781186548,
1.),(1.,0.707106781186548,1.),(1.,0.707106781186547,1.),(1.,0.707106781186548,
1.),(1.,0.707106781186548,1.),(1.,0.707106781186548,1.),(1.,0.707106781186548,
1.),(1.,0.707106781186547,1.),(1.,0.707106781186548,1.),(1.,0.707106781186547,
1.),(1.,0.707106781186548,1.),(1.,0.707106781186548,1.),(1.,0.707106781186548,
1.)))
REPRESENTATION_ITEM('')
SURFACE()
);
#18=(
BOUNDED_SURFACE()
B_SPLINE_SURFACE(3,2,((#844,#845,#846),(#847,#848,#849),(#850,#851,#852),
(#853,#854,#855),(#856,#857,#858),(#859,#860,#861),(#862,#863,#864),(#865,
#866,#867),(#868,#869,#870),(#871,#872,#873),(#874,#875,#876),(#877,#878,
#879)),.UNSPECIFIED.,.F.,.F.,.F.)
B_SPLINE_SURFACE_WITH_KNOTS((4,1,1,1,1,1,1,1,1,4),(3,3),(2.47198095326695E-17,
0.00184005465660958,0.00368010931321914,0.00552016396982869,0.00644019129813347,
0.00736021862643825,0.0092002732830478,0.0110403279396574,0.0128803825962669,
0.0147204372528765),(0.,1.),.UNSPECIFIED.)
GEOMETRIC_REPRESENTATION_ITEM()
RATIONAL_B_SPLINE_SURFACE(((1.,0.929937552098636,1.),(1.,0.929937552008179,
1.),(1.,0.924751462494099,1.),(1.,0.903462926976873,1.),(1.,0.877010782982379,
1.),(1.,0.85349440358423,1.),(1.,0.825029367716341,1.),(1.,0.787824083823094,
1.),(1.,0.746296043275828,1.),(1.,0.714767356213155,1.),(1.,0.706986363298592,
1.),(1.,0.707106781186549,1.)))
REPRESENTATION_ITEM('')
SURFACE()
);
#19=PLANE('',#373);
#20=PLANE('',#375);
#21=PLANE('',#390);
#22=PLANE('',#392);
#23=B_SPLINE_SURFACE_WITH_KNOTS('',3,1,((#500,#501),(#502,#503),(#504,#505),
(#506,#507)),.SURF_OF_LINEAR_EXTRUSION.,.F.,.F.,.F.,(4,4),(2,2),(0.453122409943656,
0.63828879555346),(0.,1.),.PIECEWISE_BEZIER_KNOTS.);
#24=B_SPLINE_SURFACE_WITH_KNOTS('',3,1,((#716,#717),(#718,#719),(#720,#721),
(#722,#723)),.SURF_OF_LINEAR_EXTRUSION.,.F.,.F.,.F.,(4,4),(2,2),(0.453122409943656,
0.617706926543527),(0.,1.),.PIECEWISE_BEZIER_KNOTS.);
#25=LINE('',#495,#35);
#26=LINE('',#499,#36);
#27=LINE('',#514,#37);
#28=LINE('',#524,#38);
#29=LINE('',#538,#39);
#30=LINE('',#699,#40);
#31=LINE('',#703,#41);
#32=LINE('',#734,#42);
#33=LINE('',#739,#43);
#34=LINE('',#753,#44);
#35=VECTOR('',#404,1.);
#36=VECTOR('',#407,1.);
#37=VECTOR('',#408,1.);
#38=VECTOR('',#413,1.);
#39=VECTOR('',#416,1.);
#40=VECTOR('',#443,1.);
#41=VECTOR('',#446,1.);
#42=VECTOR('',#447,1.);
#43=VECTOR('',#452,1.);
#44=VECTOR('',#455,1.);
#45=B_SPLINE_CURVE_WITH_KNOTS('',3,(#483,#484,#485,#486,#487,#488,#489,
#490,#491,#492,#493),.UNSPECIFIED.,.F.,.F.,(4,1,1,1,1,1,1,1,4),(3.90312782094782E-18,
0.00306210299963673,0.00612420599927346,0.00918630899891019,0.0122484119985469,
0.0153105149981836,0.0183726179978204,0.0214347209974571,0.0244968239970938),
 .UNSPECIFIED.);
#46=B_SPLINE_CURVE_WITH_KNOTS('',3,(#508,#509,#510,#511,#512),
 .UNSPECIFIED.,.F.,.F.,(4,1,4),(-6.00000000957405E-8,0.00769540352389353,
0.0153908670477872),.UNSPECIFIED.);
#47=B_SPLINE_CURVE_WITH_KNOTS('',3,(#516,#517,#518,#519),.UNSPECIFIED.,
 .F.,.F.,(4,4),(0.427552258555074,0.63828879555346),
 .PIECEWISE_BEZIER_KNOTS.);
#48=B_SPLINE_CURVE_WITH_KNOTS('',3,(#526,#527,#528,#529,#530,#531,#532,
#533,#534),.UNSPECIFIED.,.F.,.F.,(4,1,1,1,1,1,4),(0.,0.00239726975991874,
0.00479453951983747,0.00719180927975621,0.00958907903967494,0.0143836185595124,
0.0191781580793499),.UNSPECIFIED.);
#49=B_SPLINE_CURVE_WITH_KNOTS('',3,(#540,#541,#542,#543,#544,#545,#546,
#547,#548,#549,#550,#551),.UNSPECIFIED.,.F.,.F.,(4,1,1,1,1,1,1,1,1,4),(0.,
0.000770468787350411,0.00154093757470082,0.00231140636205123,0.00308187514940164,
0.00462281272410246,0.00616375029880329,0.00770468787350411,0.00924562544820493,
0.0123275005976066),.UNSPECIFIED.);
#50=B_SPLINE_CURVE_WITH_KNOTS('',3,(#560,#561,#562,#563,#564),
 .UNSPECIFIED.,.F.,.F.,(4,1,4),(0.00599998542070605,0.0102585137000645,
0.014517041979423),.UNSPECIFIED.);
#51=B_SPLINE_CURVE_WITH_KNOTS('',3,(#643,#644,#645,#646,#647,#648,#649,
#650,#651,#652,#653,#654),.UNSPECIFIED.,.F.,.F.,(4,1,1,1,1,1,1,1,1,4),(0.,
0.00302946937853497,0.00605893875706993,0.00908840813560489,0.0121178775141399,
0.0136326122034073,0.0151473468926748,0.0181768162712098,0.0212062856497448,
0.0242357550282797),.UNSPECIFIED.);
#52=B_SPLINE_CURVE_WITH_KNOTS('',3,(#705,#706,#707,#708,#709,#710,#711,
#712,#713,#714,#715),.UNSPECIFIED.,.F.,.F.,(4,1,1,1,1,1,1,1,4),(0.,0.00287506727459264,
0.00575013454918528,0.00862520182377792,0.0115002690983706,0.0143753363729632,
0.0172504036475558,0.0201254709221485,0.0230005381967411),.UNSPECIFIED.);
#53=B_SPLINE_CURVE_WITH_KNOTS('',3,(#724,#725,#726,#727),.UNSPECIFIED.,
 .F.,.F.,(4,4),(0.,0.0134252513251992),.UNSPECIFIED.);
#54=B_SPLINE_CURVE_WITH_KNOTS('',3,(#729,#730,#731,#732),.UNSPECIFIED.,
 .F.,.F.,(4,4),(0.,0.0134067924796959),.UNSPECIFIED.);
#55=B_SPLINE_CURVE_WITH_KNOTS('',3,(#743,#744,#745,#746,#747,#748,#749,
#750,#751),.UNSPECIFIED.,.F.,.F.,(4,1,1,1,1,1,4),(0.,0.00230187097005734,
0.00460374194011469,0.00690561291017203,0.00920748388022937,0.0138112258203441,
0.0184149677604587),.UNSPECIFIED.);
#56=B_SPLINE_CURVE_WITH_KNOTS('',3,(#758,#759,#760,#761,#762,#763,#764,
#765,#766,#767,#768),.UNSPECIFIED.,.F.,.F.,(4,1,1,1,1,1,1,1,4),(0.,0.000626491946635077,
0.00125298389327015,0.00250596778654031,0.00375895167981046,0.00501193557308062,
0.00626491946635077,0.00751790335962093,0.0100238711461612),
 .UNSPECIFIED.);
#57=B_SPLINE_CURVE_WITH_KNOTS('',3,(#772,#773,#774,#775,#776),
 .UNSPECIFIED.,.F.,.F.,(4,1,4),(0.,0.00371877844637807,0.00743755689275613),
 .UNSPECIFIED.);
#58=B_SPLINE_CURVE_WITH_KNOTS('',3,(#830,#831,#832,#833,#834,#835,#836,
#837,#838,#839,#840,#841),.UNSPECIFIED.,.F.,.F.,(4,1,1,1,1,1,1,1,1,4),(0.,
0.0028349858080236,0.00566997161604719,0.00850495742407079,0.0113399432320944,
0.0127574361361062,0.014174929040118,0.0170099148481416,0.0198449006561652,
0.0226798864641888),.UNSPECIFIED.);
#59=ORIENTED_EDGE('',*,*,#147,.F.);
#60=ORIENTED_EDGE('',*,*,#148,.T.);
#61=ORIENTED_EDGE('',*,*,#149,.T.);
#62=ORIENTED_EDGE('',*,*,#150,.T.);
#63=ORIENTED_EDGE('',*,*,#151,.F.);
#64=ORIENTED_EDGE('',*,*,#152,.T.);
#65=ORIENTED_EDGE('',*,*,#153,.T.);
#66=ORIENTED_EDGE('',*,*,#154,.T.);
#67=ORIENTED_EDGE('',*,*,#149,.F.);
#68=ORIENTED_EDGE('',*,*,#155,.F.);
#69=ORIENTED_EDGE('',*,*,#156,.T.);
#70=ORIENTED_EDGE('',*,*,#157,.T.);
#71=ORIENTED_EDGE('',*,*,#158,.T.);
#72=ORIENTED_EDGE('',*,*,#159,.T.);
#73=ORIENTED_EDGE('',*,*,#159,.F.);
#74=ORIENTED_EDGE('',*,*,#160,.T.);
#75=ORIENTED_EDGE('',*,*,#161,.T.);
#76=ORIENTED_EDGE('',*,*,#151,.T.);
#77=ORIENTED_EDGE('',*,*,#162,.F.);
#78=ORIENTED_EDGE('',*,*,#154,.F.);
#79=ORIENTED_EDGE('',*,*,#163,.T.);
#80=ORIENTED_EDGE('',*,*,#155,.T.);
#81=ORIENTED_EDGE('',*,*,#162,.T.);
#82=ORIENTED_EDGE('',*,*,#150,.F.);
#83=ORIENTED_EDGE('',*,*,#161,.F.);
#84=ORIENTED_EDGE('',*,*,#164,.T.);
#85=ORIENTED_EDGE('',*,*,#165,.T.);
#86=ORIENTED_EDGE('',*,*,#147,.T.);
#87=ORIENTED_EDGE('',*,*,#165,.F.);
#88=ORIENTED_EDGE('',*,*,#166,.T.);
#89=ORIENTED_EDGE('',*,*,#152,.F.);
#90=ORIENTED_EDGE('',*,*,#148,.F.);
#91=ORIENTED_EDGE('',*,*,#160,.F.);
#92=ORIENTED_EDGE('',*,*,#158,.F.);
#93=ORIENTED_EDGE('',*,*,#167,.F.);
#94=ORIENTED_EDGE('',*,*,#164,.F.);
#95=ORIENTED_EDGE('',*,*,#167,.T.);
#96=ORIENTED_EDGE('',*,*,#157,.F.);
#97=ORIENTED_EDGE('',*,*,#168,.F.);
#98=ORIENTED_EDGE('',*,*,#166,.F.);
#99=ORIENTED_EDGE('',*,*,#168,.T.);
#100=ORIENTED_EDGE('',*,*,#156,.F.);
#101=ORIENTED_EDGE('',*,*,#163,.F.);
#102=ORIENTED_EDGE('',*,*,#153,.F.);
#103=ORIENTED_EDGE('',*,*,#169,.T.);
#104=ORIENTED_EDGE('',*,*,#170,.T.);
#105=ORIENTED_EDGE('',*,*,#171,.F.);
#106=ORIENTED_EDGE('',*,*,#172,.F.);
#107=ORIENTED_EDGE('',*,*,#173,.F.);
#108=ORIENTED_EDGE('',*,*,#174,.F.);
#109=ORIENTED_EDGE('',*,*,#172,.T.);
#110=ORIENTED_EDGE('',*,*,#175,.F.);
#111=ORIENTED_EDGE('',*,*,#176,.F.);
#112=ORIENTED_EDGE('',*,*,#177,.T.);
#113=ORIENTED_EDGE('',*,*,#178,.F.);
#114=ORIENTED_EDGE('',*,*,#179,.F.);
#115=ORIENTED_EDGE('',*,*,#180,.F.);
#116=ORIENTED_EDGE('',*,*,#181,.F.);
#117=ORIENTED_EDGE('',*,*,#178,.T.);
#118=ORIENTED_EDGE('',*,*,#182,.T.);
#119=ORIENTED_EDGE('',*,*,#170,.F.);
#120=ORIENTED_EDGE('',*,*,#183,.F.);
#121=ORIENTED_EDGE('',*,*,#184,.F.);
#122=ORIENTED_EDGE('',*,*,#175,.T.);
#123=ORIENTED_EDGE('',*,*,#171,.T.);
#124=ORIENTED_EDGE('',*,*,#182,.F.);
#125=ORIENTED_EDGE('',*,*,#177,.F.);
#126=ORIENTED_EDGE('',*,*,#185,.F.);
#127=ORIENTED_EDGE('',*,*,#183,.T.);
#128=ORIENTED_EDGE('',*,*,#169,.F.);
#129=ORIENTED_EDGE('',*,*,#186,.F.);
#130=ORIENTED_EDGE('',*,*,#187,.F.);
#131=ORIENTED_EDGE('',*,*,#186,.T.);
#132=ORIENTED_EDGE('',*,*,#173,.T.);
#133=ORIENTED_EDGE('',*,*,#174,.T.);
#134=ORIENTED_EDGE('',*,*,#188,.F.);
#135=ORIENTED_EDGE('',*,*,#184,.T.);
#136=ORIENTED_EDGE('',*,*,#187,.T.);
#137=ORIENTED_EDGE('',*,*,#189,.T.);
#138=ORIENTED_EDGE('',*,*,#179,.T.);
#139=ORIENTED_EDGE('',*,*,#189,.F.);
#140=ORIENTED_EDGE('',*,*,#188,.T.);
#141=ORIENTED_EDGE('',*,*,#190,.T.);
#142=ORIENTED_EDGE('',*,*,#180,.T.);
#143=ORIENTED_EDGE('',*,*,#190,.F.);
#144=ORIENTED_EDGE('',*,*,#176,.T.);
#145=ORIENTED_EDGE('',*,*,#185,.T.);
#146=ORIENTED_EDGE('',*,*,#181,.T.);
#147=EDGE_CURVE('',#191,#192,#219,.T.);
#148=EDGE_CURVE('',#191,#193,#45,.T.);
#149=EDGE_CURVE('',#193,#194,#25,.T.);
#150=EDGE_CURVE('',#194,#195,#220,.T.);
#151=EDGE_CURVE('',#192,#195,#26,.T.);
#152=EDGE_CURVE('',#193,#196,#46,.T.);
#153=EDGE_CURVE('',#196,#197,#27,.T.);
#154=EDGE_CURVE('',#197,#194,#47,.T.);
#155=EDGE_CURVE('',#198,#199,#221,.T.);
#156=EDGE_CURVE('',#198,#200,#28,.F.);
#157=EDGE_CURVE('',#200,#201,#48,.T.);
#158=EDGE_CURVE('',#201,#202,#222,.T.);
#159=EDGE_CURVE('',#202,#199,#29,.T.);
#160=EDGE_CURVE('',#202,#203,#49,.T.);
#161=EDGE_CURVE('',#203,#192,#223,.T.);
#162=EDGE_CURVE('',#199,#195,#224,.T.);
#163=EDGE_CURVE('',#197,#198,#225,.T.);
#164=EDGE_CURVE('',#203,#204,#226,.F.);
#165=EDGE_CURVE('',#204,#191,#50,.T.);
#166=EDGE_CURVE('',#204,#196,#51,.T.);
#167=EDGE_CURVE('',#204,#201,#227,.T.);
#168=EDGE_CURVE('',#196,#200,#228,.T.);
#169=EDGE_CURVE('',#205,#206,#229,.T.);
#170=EDGE_CURVE('',#206,#207,#30,.T.);
#171=EDGE_CURVE('',#208,#207,#230,.T.);
#172=EDGE_CURVE('',#209,#208,#31,.T.);
#173=EDGE_CURVE('',#205,#209,#52,.T.);
#174=EDGE_CURVE('',#209,#210,#53,.T.);
#175=EDGE_CURVE('',#211,#208,#54,.T.);
#176=EDGE_CURVE('',#210,#211,#32,.T.);
#177=EDGE_CURVE('',#212,#213,#231,.T.);
#178=EDGE_CURVE('',#214,#213,#33,.T.);
#179=EDGE_CURVE('',#215,#214,#232,.T.);
#180=EDGE_CURVE('',#216,#215,#55,.T.);
#181=EDGE_CURVE('',#212,#216,#34,.F.);
#182=EDGE_CURVE('',#213,#207,#233,.T.);
#183=EDGE_CURVE('',#217,#206,#234,.T.);
#184=EDGE_CURVE('',#214,#217,#56,.T.);
#185=EDGE_CURVE('',#211,#212,#235,.T.);
#186=EDGE_CURVE('',#218,#205,#57,.T.);
#187=EDGE_CURVE('',#217,#218,#236,.F.);
#188=EDGE_CURVE('',#218,#210,#58,.T.);
#189=EDGE_CURVE('',#218,#215,#237,.T.);
#190=EDGE_CURVE('',#210,#216,#238,.T.);
#191=VERTEX_POINT('',#481);
#192=VERTEX_POINT('',#482);
#193=VERTEX_POINT('',#494);
#194=VERTEX_POINT('',#496);
#195=VERTEX_POINT('',#498);
#196=VERTEX_POINT('',#513);
#197=VERTEX_POINT('',#515);
#198=VERTEX_POINT('',#522);
#199=VERTEX_POINT('',#523);
#200=VERTEX_POINT('',#525);
#201=VERTEX_POINT('',#535);
#202=VERTEX_POINT('',#537);
#203=VERTEX_POINT('',#552);
#204=VERTEX_POINT('',#559);
#205=VERTEX_POINT('',#697);
#206=VERTEX_POINT('',#698);
#207=VERTEX_POINT('',#700);
#208=VERTEX_POINT('',#702);
#209=VERTEX_POINT('',#704);
#210=VERTEX_POINT('',#728);
#211=VERTEX_POINT('',#733);
#212=VERTEX_POINT('',#737);
#213=VERTEX_POINT('',#738);
#214=VERTEX_POINT('',#740);
#215=VERTEX_POINT('',#742);
#216=VERTEX_POINT('',#752);
#217=VERTEX_POINT('',#757);
#218=VERTEX_POINT('',#777);
#219=CIRCLE('',#365,0.0521781370254425);
#220=CIRCLE('',#366,0.0521781370254425);
#221=CIRCLE('',#368,0.0177182317762455);
#222=CIRCLE('',#369,0.0177182317762455);
#223=CIRCLE('',#371,0.00624592122557021);
#224=CIRCLE('',#372,0.00624592122557021);
#225=CIRCLE('',#374,0.006);
#226=CIRCLE('',#376,0.0117182317762455);
#227=CIRCLE('',#378,0.006);
#228=CIRCLE('',#379,0.006);
#229=CIRCLE('',#382,0.0531781370254425);
#230=CIRCLE('',#383,0.0531781370254425);
#231=CIRCLE('',#385,0.0167182317762455);
#232=CIRCLE('',#386,0.0167182317762455);
#233=CIRCLE('',#388,0.00524592122557021);
#234=CIRCLE('',#389,0.00524592122557021);
#235=CIRCLE('',#391,0.005);
#236=CIRCLE('',#393,0.0117182317762455);
#237=CIRCLE('',#395,0.005);
#238=CIRCLE('',#396,0.005);
#239=EDGE_LOOP('',(#59,#60,#61,#62,#63));
#240=EDGE_LOOP('',(#64,#65,#66,#67));
#241=EDGE_LOOP('',(#68,#69,#70,#71,#72));
#242=EDGE_LOOP('',(#73,#74,#75,#76,#77));
#243=EDGE_LOOP('',(#78,#79,#80,#81,#82));
#244=EDGE_LOOP('',(#83,#84,#85,#86));
#245=EDGE_LOOP('',(#87,#88,#89,#90));
#246=EDGE_LOOP('',(#91,#92,#93,#94));
#247=EDGE_LOOP('',(#95,#96,#97,#98));
#248=EDGE_LOOP('',(#99,#100,#101,#102));
#249=EDGE_LOOP('',(#103,#104,#105,#106,#107));
#250=EDGE_LOOP('',(#108,#109,#110,#111));
#251=EDGE_LOOP('',(#112,#113,#114,#115,#116));
#252=EDGE_LOOP('',(#117,#118,#119,#120,#121));
#253=EDGE_LOOP('',(#122,#123,#124,#125,#126));
#254=EDGE_LOOP('',(#127,#128,#129,#130));
#255=EDGE_LOOP('',(#131,#132,#133,#134));
#256=EDGE_LOOP('',(#135,#136,#137,#138));
#257=EDGE_LOOP('',(#139,#140,#141,#142));
#258=EDGE_LOOP('',(#143,#144,#145,#146));
#259=FACE_BOUND('',#239,.T.);
#260=FACE_BOUND('',#240,.T.);
#261=FACE_BOUND('',#241,.T.);
#262=FACE_BOUND('',#242,.T.);
#263=FACE_BOUND('',#243,.T.);
#264=FACE_BOUND('',#244,.T.);
#265=FACE_BOUND('',#245,.T.);
#266=FACE_BOUND('',#246,.T.);
#267=FACE_BOUND('',#247,.T.);
#268=FACE_BOUND('',#248,.T.);
#269=FACE_BOUND('',#249,.T.);
#270=FACE_BOUND('',#250,.T.);
#271=FACE_BOUND('',#251,.T.);
#272=FACE_BOUND('',#252,.T.);
#273=FACE_BOUND('',#253,.T.);
#274=FACE_BOUND('',#254,.T.);
#275=FACE_BOUND('',#255,.T.);
#276=FACE_BOUND('',#256,.T.);
#277=FACE_BOUND('',#257,.T.);
#278=FACE_BOUND('',#258,.T.);
#279=CYLINDRICAL_SURFACE('',#364,0.0521781370254425);
#280=CYLINDRICAL_SURFACE('',#367,0.0177182317762455);
#281=CYLINDRICAL_SURFACE('',#370,0.00624592122557021);
#282=CYLINDRICAL_SURFACE('',#380,0.006);
#283=CYLINDRICAL_SURFACE('',#381,0.0531781370254425);
#284=CYLINDRICAL_SURFACE('',#384,0.0167182317762455);
#285=CYLINDRICAL_SURFACE('',#387,0.00524592122557021);
#286=CYLINDRICAL_SURFACE('',#397,0.005);
#287=OVER_RIDING_STYLED_ITEM('',(#317),#293,#315);
#288=OVER_RIDING_STYLED_ITEM('',(#318),#294,#315);
#289=OVER_RIDING_STYLED_ITEM('',(#319),#295,#315);
#290=OVER_RIDING_STYLED_ITEM('',(#320),#296,#315);
#291=OVER_RIDING_STYLED_ITEM('',(#321),#297,#315);
#292=OVER_RIDING_STYLED_ITEM('',(#322),#298,#315);
#293=ADVANCED_FACE('Face appearance 12',(#259),#279,.F.);
#294=ADVANCED_FACE('Face appearance 12',(#260),#23,.F.);
#295=ADVANCED_FACE('Face appearance 12',(#261),#280,.T.);
#296=ADVANCED_FACE('Face appearance 12',(#262),#281,.T.);
#297=ADVANCED_FACE('Face appearance 12',(#263),#19,.T.);
#298=ADVANCED_FACE('Face appearance 12',(#264),#20,.F.);
#299=ADVANCED_FACE('',(#265),#15,.T.);
#300=ADVANCED_FACE('',(#266),#13,.T.);
#301=ADVANCED_FACE('',(#267),#16,.T.);
#302=ADVANCED_FACE('',(#268),#282,.T.);
#303=ADVANCED_FACE('',(#269),#283,.T.);
#304=ADVANCED_FACE('',(#270),#24,.T.);
#305=ADVANCED_FACE('',(#271),#284,.F.);
#306=ADVANCED_FACE('',(#272),#285,.F.);
#307=ADVANCED_FACE('',(#273),#21,.F.);
#308=ADVANCED_FACE('',(#274),#22,.T.);
#309=ADVANCED_FACE('',(#275),#17,.F.);
#310=ADVANCED_FACE('',(#276),#14,.F.);
#311=ADVANCED_FACE('',(#277),#18,.F.);
#312=ADVANCED_FACE('',(#278),#286,.F.);
#313=CLOSED_SHELL('',(#293,#294,#295,#296,#297,#298,#299,#300,#301,#302));
#314=CLOSED_SHELL('',(#303,#304,#305,#306,#307,#308,#309,#310,#311,#312));
#315=STYLED_ITEM('',(#316),#360);
#316=PRESENTATION_STYLE_ASSIGNMENT((#323));
#317=PRESENTATION_STYLE_ASSIGNMENT((#324));
#318=PRESENTATION_STYLE_ASSIGNMENT((#325));
#319=PRESENTATION_STYLE_ASSIGNMENT((#326));
#320=PRESENTATION_STYLE_ASSIGNMENT((#327));
#321=PRESENTATION_STYLE_ASSIGNMENT((#328));
#322=PRESENTATION_STYLE_ASSIGNMENT((#329));
#323=SURFACE_STYLE_USAGE(.BOTH.,#330);
#324=SURFACE_STYLE_USAGE(.BOTH.,#331);
#325=SURFACE_STYLE_USAGE(.BOTH.,#332);
#326=SURFACE_STYLE_USAGE(.BOTH.,#333);
#327=SURFACE_STYLE_USAGE(.BOTH.,#334);
#328=SURFACE_STYLE_USAGE(.BOTH.,#335);
#329=SURFACE_STYLE_USAGE(.BOTH.,#336);
#330=SURFACE_SIDE_STYLE('',(#337));
#331=SURFACE_SIDE_STYLE('',(#338));
#332=SURFACE_SIDE_STYLE('',(#339));
#333=SURFACE_SIDE_STYLE('',(#340));
#334=SURFACE_SIDE_STYLE('',(#341));
#335=SURFACE_SIDE_STYLE('',(#342));
#336=SURFACE_SIDE_STYLE('',(#343));
#337=SURFACE_STYLE_FILL_AREA(#344);
#338=SURFACE_STYLE_FILL_AREA(#345);
#339=SURFACE_STYLE_FILL_AREA(#346);
#340=SURFACE_STYLE_FILL_AREA(#347);
#341=SURFACE_STYLE_FILL_AREA(#348);
#342=SURFACE_STYLE_FILL_AREA(#349);
#343=SURFACE_STYLE_FILL_AREA(#350);
#344=FILL_AREA_STYLE('',(#351));
#345=FILL_AREA_STYLE('',(#352));
#346=FILL_AREA_STYLE('',(#353));
#347=FILL_AREA_STYLE('',(#354));
#348=FILL_AREA_STYLE('',(#355));
#349=FILL_AREA_STYLE('',(#356));
#350=FILL_AREA_STYLE('',(#357));
#351=FILL_AREA_STYLE_COLOUR('',#358);
#352=FILL_AREA_STYLE_COLOUR('',#359);
#353=FILL_AREA_STYLE_COLOUR('',#359);
#354=FILL_AREA_STYLE_COLOUR('',#359);
#355=FILL_AREA_STYLE_COLOUR('',#359);
#356=FILL_AREA_STYLE_COLOUR('',#359);
#357=FILL_AREA_STYLE_COLOUR('',#359);
#358=COLOUR_RGB('',0.917647058823529,0.917647058823529,0.917647058823529);
#359=COLOUR_RGB('',0.901960784313726,0.901960784313726,0.901960784313726);
#360=BREP_WITH_VOIDS('Part 21',#313,(#12));
#361=SHAPE_DEFINITION_REPRESENTATION(#888,#362);
#362=SHAPE_REPRESENTATION('Part 21',(#363),#883);
#363=AXIS2_PLACEMENT_3D('',#478,#398,#399);
#364=AXIS2_PLACEMENT_3D('',#479,#400,#401);
#365=AXIS2_PLACEMENT_3D('',#480,#402,#403);
#366=AXIS2_PLACEMENT_3D('',#497,#405,#406);
#367=AXIS2_PLACEMENT_3D('',#520,#409,#410);
#368=AXIS2_PLACEMENT_3D('',#521,#411,#412);
#369=AXIS2_PLACEMENT_3D('',#536,#414,#415);
#370=AXIS2_PLACEMENT_3D('',#539,#417,#418);
#371=AXIS2_PLACEMENT_3D('',#553,#419,#420);
#372=AXIS2_PLACEMENT_3D('',#554,#421,#422);
#373=AXIS2_PLACEMENT_3D('',#555,#423,#424);
#374=AXIS2_PLACEMENT_3D('',#556,#425,#426);
#375=AXIS2_PLACEMENT_3D('',#557,#427,#428);
#376=AXIS2_PLACEMENT_3D('',#558,#429,#430);
#377=AXIS2_PLACEMENT_3D('',#655,#431,#432);
#378=AXIS2_PLACEMENT_3D('',#656,#433,#434);
#379=AXIS2_PLACEMENT_3D('',#693,#435,#436);
#380=AXIS2_PLACEMENT_3D('',#694,#437,#438);
#381=AXIS2_PLACEMENT_3D('',#695,#439,#440);
#382=AXIS2_PLACEMENT_3D('',#696,#441,#442);
#383=AXIS2_PLACEMENT_3D('',#701,#444,#445);
#384=AXIS2_PLACEMENT_3D('',#735,#448,#449);
#385=AXIS2_PLACEMENT_3D('',#736,#450,#451);
#386=AXIS2_PLACEMENT_3D('',#741,#453,#454);
#387=AXIS2_PLACEMENT_3D('',#754,#456,#457);
#388=AXIS2_PLACEMENT_3D('',#755,#458,#459);
#389=AXIS2_PLACEMENT_3D('',#756,#460,#461);
#390=AXIS2_PLACEMENT_3D('',#769,#462,#463);
#391=AXIS2_PLACEMENT_3D('',#770,#464,#465);
#392=AXIS2_PLACEMENT_3D('',#771,#466,#467);
#393=AXIS2_PLACEMENT_3D('',#778,#468,#469);
#394=AXIS2_PLACEMENT_3D('',#842,#470,#471);
#395=AXIS2_PLACEMENT_3D('',#843,#472,#473);
#396=AXIS2_PLACEMENT_3D('',#880,#474,#475);
#397=AXIS2_PLACEMENT_3D('',#881,#476,#477);
#398=DIRECTION('',(0.,0.,1.));
#399=DIRECTION('',(1.,0.,0.));
#400=DIRECTION('',(1.,0.,0.));
#401=DIRECTION('',(0.,0.,-1.));
#402=DIRECTION('',(1.,0.,0.));
#403=DIRECTION('',(0.,0.,-1.));
#404=DIRECTION('',(1.,0.,0.));
#405=DIRECTION('',(1.,0.,0.));
#406=DIRECTION('',(0.,0.,-1.));
#407=DIRECTION('',(1.,0.,0.));
#408=DIRECTION('',(1.,0.,0.));
#409=DIRECTION('',(1.,0.,0.));
#410=DIRECTION('',(0.,0.,-1.));
#411=DIRECTION('',(1.,0.,0.));
#412=DIRECTION('',(0.,0.,-1.));
#413=DIRECTION('',(1.,0.,0.));
#414=DIRECTION('',(1.,0.,0.));
#415=DIRECTION('',(0.,0.,-1.));
#416=DIRECTION('',(1.,0.,0.));
#417=DIRECTION('',(1.,0.,0.));
#418=DIRECTION('',(0.,0.,-1.));
#419=DIRECTION('',(1.,0.,0.));
#420=DIRECTION('',(0.,0.,-1.));
#421=DIRECTION('',(1.,0.,0.));
#422=DIRECTION('',(0.,0.,-1.));
#423=DIRECTION('',(1.,0.,0.));
#424=DIRECTION('',(0.,1.,0.));
#425=DIRECTION('',(1.,0.,0.));
#426=DIRECTION('',(0.,0.,-1.));
#427=DIRECTION('',(1.,0.,0.));
#428=DIRECTION('',(0.,1.,0.));
#429=DIRECTION('',(1.,0.,0.));
#430=DIRECTION('',(0.,0.,-1.));
#431=DIRECTION('',(1.,0.,0.));
#432=DIRECTION('',(0.,0.,-1.));
#433=DIRECTION('',(0.,-0.876005616925588,0.482300901009753));
#434=DIRECTION('',(0.,-0.482300901009753,-0.876005616925588));
#435=DIRECTION('',(1.,0.,0.));
#436=DIRECTION('',(0.,0.,-1.));
#437=DIRECTION('',(1.,0.,0.));
#438=DIRECTION('',(0.,0.,-1.));
#439=DIRECTION('',(1.,0.,0.));
#440=DIRECTION('',(0.,0.,-1.));
#441=DIRECTION('',(1.,0.,0.));
#442=DIRECTION('',(0.,0.,-1.));
#443=DIRECTION('',(1.,0.,0.));
#444=DIRECTION('',(1.,0.,0.));
#445=DIRECTION('',(0.,0.,-1.));
#446=DIRECTION('',(1.,0.,0.));
#447=DIRECTION('',(1.,0.,0.));
#448=DIRECTION('',(1.,0.,0.));
#449=DIRECTION('',(0.,0.,-1.));
#450=DIRECTION('',(1.,0.,0.));
#451=DIRECTION('',(0.,0.,-1.));
#452=DIRECTION('',(1.,0.,0.));
#453=DIRECTION('',(1.,0.,0.));
#454=DIRECTION('',(0.,0.,-1.));
#455=DIRECTION('',(1.,0.,0.));
#456=DIRECTION('',(1.,0.,0.));
#457=DIRECTION('',(0.,0.,-1.));
#458=DIRECTION('',(1.,0.,0.));
#459=DIRECTION('',(0.,0.,-1.));
#460=DIRECTION('',(1.,0.,0.));
#461=DIRECTION('',(0.,0.,-1.));
#462=DIRECTION('',(1.,0.,0.));
#463=DIRECTION('',(0.,1.,0.));
#464=DIRECTION('',(1.,0.,0.));
#465=DIRECTION('',(0.,0.,-1.));
#466=DIRECTION('',(1.,0.,0.));
#467=DIRECTION('',(0.,1.,0.));
#468=DIRECTION('',(1.,0.,0.));
#469=DIRECTION('',(0.,0.,-1.));
#470=DIRECTION('',(1.,0.,0.));
#471=DIRECTION('',(0.,0.,-1.));
#472=DIRECTION('',(1.85924154548085E-16,-0.876005616925588,0.482300901009753));
#473=DIRECTION('',(0.,-0.482300901009753,-0.876005616925588));
#474=DIRECTION('',(1.,0.,0.));
#475=DIRECTION('',(0.,0.,-1.));
#476=DIRECTION('',(1.,0.,0.));
#477=DIRECTION('',(0.,0.,-1.));
#478=CARTESIAN_POINT('',(0.,0.,0.));
#479=CARTESIAN_POINT('',(-0.00564,-0.0632197633478214,0.0224542642923107));
#480=CARTESIAN_POINT('',(-0.08064,-0.0632197633478214,0.0224542642923107));
#481=CARTESIAN_POINT('',(-0.08064,-0.109137919798112,-0.00232639130136756));
#482=CARTESIAN_POINT('',(-0.08064,-0.105573116842112,-0.00802115910480543));
#483=CARTESIAN_POINT('',(-0.08064,-0.109137919798112,-0.00232639130136756));
#484=CARTESIAN_POINT('',(-0.08064,-0.109629733010493,-0.00141506932503525));
#485=CARTESIAN_POINT('',(-0.0804578844199118,-0.110541222872949,0.000401654071020396));
#486=CARTESIAN_POINT('',(-0.079642732219293,-0.111727878352393,0.00315839171437537));
#487=CARTESIAN_POINT('',(-0.0783319699312352,-0.112680034362598,0.00576282722519318));
#488=CARTESIAN_POINT('',(-0.0765122789658197,-0.113425883380098,0.00818129429415424));
#489=CARTESIAN_POINT('',(-0.0742922041275693,-0.113954104691929,0.0102166922508812));
#490=CARTESIAN_POINT('',(-0.0716403407031035,-0.114310222292951,0.0118277119827843));
#491=CARTESIAN_POINT('',(-0.0687543172126813,-0.114504979367096,0.0128355616293175));
#492=CARTESIAN_POINT('',(-0.0666777541385196,-0.114548512494466,0.0130778313625279));
#493=CARTESIAN_POINT('',(-0.06564,-0.114548512494466,0.0130778313625279));
#494=CARTESIAN_POINT('',(-0.06564,-0.114548512494466,0.0130778313625279));
#495=CARTESIAN_POINT('',(-0.00564,-0.114548512494466,0.0130778313625279));
#496=CARTESIAN_POINT('',(-0.00564,-0.114548512494466,0.0130778313625279));
#497=CARTESIAN_POINT('',(-0.00564,-0.0632197633478214,0.0224542642923107));
#498=CARTESIAN_POINT('',(-0.00564,-0.105573116842112,-0.00802115910480543));
#499=CARTESIAN_POINT('',(-0.00564,-0.105573116842112,-0.00802115910480543));
#500=CARTESIAN_POINT('',(-0.06564,-0.124736593935645,0.00165700002084188));
#501=CARTESIAN_POINT('',(-0.00564,-0.124736593935645,0.00165700002084188));
#502=CARTESIAN_POINT('',(-0.06564,-0.121985295743779,0.0061140123446186));
#503=CARTESIAN_POINT('',(-0.00564,-0.121985295743779,0.0061140123446186));
#504=CARTESIAN_POINT('',(-0.06564,-0.118501033711331,0.0101289623174578));
#505=CARTESIAN_POINT('',(-0.00564,-0.118501033711331,0.0101289623174578));
#506=CARTESIAN_POINT('',(-0.06564,-0.114548512494466,0.0130778313625279));
#507=CARTESIAN_POINT('',(-0.00564,-0.114548512494466,0.0130778313625279));
#508=CARTESIAN_POINT('',(-0.06564,-0.114548512494466,0.0130778313625279));
#509=CARTESIAN_POINT('',(-0.06564,-0.116604503709227,0.0115439090129438));
#510=CARTESIAN_POINT('',(-0.06564,-0.120351090437255,0.00799041665544837));
#511=CARTESIAN_POINT('',(-0.06564,-0.123387707744781,0.00384215115656704));
#512=CARTESIAN_POINT('',(-0.06564,-0.124736593921791,0.00165700004328395));
#513=CARTESIAN_POINT('',(-0.06564,-0.124736593921791,0.00165700004328394));
#514=CARTESIAN_POINT('',(-0.06564,-0.124736593921791,0.00165700004328395));
#515=CARTESIAN_POINT('',(-0.00564,-0.124736593921791,0.00165700004328395));
#516=CARTESIAN_POINT('',(-0.00564,-0.125833768529913,-0.000213091020302894));
#517=CARTESIAN_POINT('',(-0.00564,-0.122938669467116,0.00498481091498648));
#518=CARTESIAN_POINT('',(-0.00564,-0.119046848576967,0.00972174462695078));
#519=CARTESIAN_POINT('',(-0.00564,-0.114548512494466,0.0130778313625279));
#520=CARTESIAN_POINT('',(-0.00564,-0.108146512640548,0.000834151253895469));
#521=CARTESIAN_POINT('',(-0.00564,-0.108146512640548,0.000834151253895469));
#522=CARTESIAN_POINT('',(-0.00564,-0.125511326553696,-0.00268706658067569));
#523=CARTESIAN_POINT('',(-0.00564,-0.11206854134798,-0.0164445474267006));
#524=CARTESIAN_POINT('',(-0.00564,-0.125511326553696,-0.00268706658067569));
#525=CARTESIAN_POINT('',(-0.06564,-0.125511326553696,-0.00268706658067566));
#526=CARTESIAN_POINT('',(-0.06564,-0.125511326553696,-0.00268706658067566));
#527=CARTESIAN_POINT('',(-0.0664524565620051,-0.125511326553696,-0.00268706658067566));
#528=CARTESIAN_POINT('',(-0.0680235217173758,-0.125415149160282,-0.0031931831023634));
#529=CARTESIAN_POINT('',(-0.0698646278234894,-0.125003971643089,-0.00471858632773355));
#530=CARTESIAN_POINT('',(-0.0713354776521357,-0.124316246818953,-0.00650272478393161));
#531=CARTESIAN_POINT('',(-0.0729136153135296,-0.123017479494949,-0.00898333551648873));
#532=CARTESIAN_POINT('',(-0.0742567912994232,-0.120688031572626,-0.0119739035418545));
#533=CARTESIAN_POINT('',(-0.07464,-0.118102675608643,-0.0139104635711377));
#534=CARTESIAN_POINT('',(-0.07464,-0.116692031790531,-0.014687119304085));
#535=CARTESIAN_POINT('',(-0.07464,-0.116692031790531,-0.014687119304085));
#536=CARTESIAN_POINT('',(-0.07464,-0.108146512640548,0.000834151253895469));
#537=CARTESIAN_POINT('',(-0.07464,-0.11206854134798,-0.0164445474267006));
#538=CARTESIAN_POINT('',(-0.00564,-0.11206854134798,-0.0164445474267006));
#539=CARTESIAN_POINT('',(-0.00564,-0.111414294185958,-0.0102329862214146));
#540=CARTESIAN_POINT('',(-0.07464,-0.11206854134798,-0.0164445474267006));
#541=CARTESIAN_POINT('',(-0.0749012914757746,-0.11206854134798,-0.0164445474267006));
#542=CARTESIAN_POINT('',(-0.075361359803153,-0.111784503937268,-0.0164748643821939));
#543=CARTESIAN_POINT('',(-0.0759007555545314,-0.111249005780383,-0.0164850484756518));
#544=CARTESIAN_POINT('',(-0.0764104293164459,-0.11067352343388,-0.01644418196952));
#545=CARTESIAN_POINT('',(-0.0770562753604735,-0.109890858449968,-0.0163129922840929));
#546=CARTESIAN_POINT('',(-0.0778101471242578,-0.108927457908695,-0.0160075976080066));
#547=CARTESIAN_POINT('',(-0.0786676938289308,-0.107802103068771,-0.0153837793005251));
#548=CARTESIAN_POINT('',(-0.0794252968954124,-0.106801254577229,-0.0145157838774973));
#549=CARTESIAN_POINT('',(-0.080278746611876,-0.10567835559179,-0.0130133284497788));
#550=CARTESIAN_POINT('',(-0.08064,-0.105218425841803,-0.0115330875861778));
#551=CARTESIAN_POINT('',(-0.08064,-0.105174118630536,-0.0105008313138482));
#552=CARTESIAN_POINT('',(-0.08064,-0.105174118630536,-0.0105008313138482));
#553=CARTESIAN_POINT('',(-0.08064,-0.111414294185958,-0.0102329862214146));
#554=CARTESIAN_POINT('',(-0.00564,-0.111414294185958,-0.0102329862214146));
#555=CARTESIAN_POINT('',(-0.00564,-0.0785833531866038,-0.024257448981059));
#556=CARTESIAN_POINT('',(-0.00564,-0.119631005944132,-0.00149466164579094));
#557=CARTESIAN_POINT('',(-0.08064,-0.0785833531866038,-0.024257448981059));
#558=CARTESIAN_POINT('',(-0.08064,-0.108146512640548,0.000834151253895469));
#559=CARTESIAN_POINT('',(-0.08064,-0.113798226384473,-0.00943108560253149));
#560=CARTESIAN_POINT('',(-0.08064,-0.113798226384472,-0.00943108560253156));
#561=CARTESIAN_POINT('',(-0.08064,-0.11310750020548,-0.0081909460202022));
#562=CARTESIAN_POINT('',(-0.08064,-0.111755287486292,-0.00568638027352992));
#563=CARTESIAN_POINT('',(-0.08064,-0.110064201028133,-0.00340477069684448));
#564=CARTESIAN_POINT('',(-0.08064,-0.109137919798112,-0.00232639130136756));
#565=CARTESIAN_POINT('',(-0.08064,-0.105514118113946,0.00110343274636155));
#566=CARTESIAN_POINT('',(-0.08064,-0.114483872742296,0.0131260573311678));
#567=CARTESIAN_POINT('',(-0.06564,-0.114483872742296,0.0131260573311678));
#568=CARTESIAN_POINT('',(-0.08064,-0.105528314170629,0.0010928414529015));
#569=CARTESIAN_POINT('',(-0.08064,-0.114498068798979,0.0131154660377078));
#570=CARTESIAN_POINT('',(-0.06564,-0.114498068798979,0.0131154660377078));
#571=CARTESIAN_POINT('',(-0.08064,-0.105556704525677,0.00107165673208778));
#572=CARTESIAN_POINT('',(-0.08064,-0.114522076253882,0.0130975483103208));
#573=CARTESIAN_POINT('',(-0.06564,-0.114522076253882,0.0130975483103208));
#574=CARTESIAN_POINT('',(-0.08064,-0.105613499302318,0.00102930436161083));
#575=CARTESIAN_POINT('',(-0.08064,-0.114605168431393,0.0130355939792835));
#576=CARTESIAN_POINT('',(-0.06564,-0.114605168431393,0.0130355939792835));
#577=CARTESIAN_POINT('',(-0.08064,-0.105712505478618,0.000954720729964879));
#578=CARTESIAN_POINT('',(-0.08064,-0.114804249934846,0.012885722997097));
#579=CARTESIAN_POINT('',(-0.06564,-0.114804249934846,0.012885722997097));
#580=CARTESIAN_POINT('',(-0.08064,-0.10590909468864,0.000803824837605353));
#581=CARTESIAN_POINT('',(-0.08064,-0.115156560135281,0.0126150538901766));
#582=CARTESIAN_POINT('',(-0.06564,-0.115156560135281,0.0126150538901766));
#583=CARTESIAN_POINT('',(-0.08064,-0.106185947858763,0.000583422879500992));
#584=CARTESIAN_POINT('',(-0.08064,-0.115662921070829,0.0122121118034729));
#585=CARTESIAN_POINT('',(-0.06564,-0.115662921070829,0.0122121118034729));
#586=CARTESIAN_POINT('',(-0.08064,-0.106512178402862,0.000311636077099738));
#587=CARTESIAN_POINT('',(-0.08064,-0.116237088355572,0.0117334879830263));
#588=CARTESIAN_POINT('',(-0.06564,-0.116237088355572,0.0117334879830263));
#589=CARTESIAN_POINT('',(-0.08064,-0.106939477046474,-5.99294283676091E-5));
#590=CARTESIAN_POINT('',(-0.08064,-0.116976233328326,0.0110906823431778));
#591=CARTESIAN_POINT('',(-0.06564,-0.116976233328326,0.0110906823431778));
#592=CARTESIAN_POINT('',(-0.08064,-0.107460422285099,-0.000541334399048274));
#593=CARTESIAN_POINT('',(-0.08064,-0.117850445185003,0.0102822173439419));
#594=CARTESIAN_POINT('',(-0.06564,-0.117850445185003,0.0102822173439419));
#595=CARTESIAN_POINT('',(-0.08064,-0.10806307067559,-0.00114107902223585));
#596=CARTESIAN_POINT('',(-0.08064,-0.118830939128567,0.00930598168687283));
#597=CARTESIAN_POINT('',(-0.06564,-0.118830939128567,0.00930598168687284));
#598=CARTESIAN_POINT('',(-0.08064,-0.108644308473813,-0.00176059606849462));
#599=CARTESIAN_POINT('',(-0.08064,-0.119752343445493,0.00832350697046293));
#600=CARTESIAN_POINT('',(-0.06564,-0.119752343445493,0.00832350697046292));
#601=CARTESIAN_POINT('',(-0.08064,-0.109393102983616,-0.00261204936438526));
#602=CARTESIAN_POINT('',(-0.08064,-0.120914191933702,0.007001941402563));
#603=CARTESIAN_POINT('',(-0.06564,-0.120914191933702,0.00700194140256301));
#604=CARTESIAN_POINT('',(-0.08064,-0.110279511465624,-0.00371803914699169));
#605=CARTESIAN_POINT('',(-0.08064,-0.122253009881569,0.00532994834154506));
#606=CARTESIAN_POINT('',(-0.06564,-0.122253009881569,0.00532994834154507));
#607=CARTESIAN_POINT('',(-0.08064,-0.111101147844169,-0.00486909683477795));
#608=CARTESIAN_POINT('',(-0.08064,-0.123465457503047,0.00363060188224338));
#609=CARTESIAN_POINT('',(-0.06564,-0.123465457503047,0.00363060188224337));
#610=CARTESIAN_POINT('',(-0.08064,-0.111722522404691,-0.00581655240641876));
#611=CARTESIAN_POINT('',(-0.08064,-0.124373401947479,0.00224600909867545));
#612=CARTESIAN_POINT('',(-0.06564,-0.124373401947479,0.00224600909867546));
#613=CARTESIAN_POINT('',(-0.08064,-0.112095871944278,-0.00641934519749048));
#614=CARTESIAN_POINT('',(-0.08064,-0.124915244914488,0.0013712608742304));
#615=CARTESIAN_POINT('',(-0.06564,-0.124915244914488,0.0013712608742304));
#616=CARTESIAN_POINT('',(-0.08064,-0.112384966912975,-0.00690672762425766));
#617=CARTESIAN_POINT('',(-0.08064,-0.1253360459926,0.000661658502488155));
#618=CARTESIAN_POINT('',(-0.06564,-0.1253360459926,0.000661658502488166));
#619=CARTESIAN_POINT('',(-0.08064,-0.1125617379146,-0.00721361263476803));
#620=CARTESIAN_POINT('',(-0.08064,-0.125588102221917,0.000224309677796415));
#621=CARTESIAN_POINT('',(-0.06564,-0.125588102221917,0.000224309677796415));
#622=CARTESIAN_POINT('',(-0.08064,-0.112683453581738,-0.00742958074370258));
#623=CARTESIAN_POINT('',(-0.08064,-0.125771573125754,-0.000101386919551031));
#624=CARTESIAN_POINT('',(-0.06564,-0.125771573125754,-0.000101386919551037));
#625=CARTESIAN_POINT('',(-0.08064,-0.112752374054441,-0.00755335218885887));
#626=CARTESIAN_POINT('',(-0.08064,-0.125859789636994,-0.000259816491519053));
#627=CARTESIAN_POINT('',(-0.06564,-0.125859789636994,-0.000259816491519044));
#628=CARTESIAN_POINT('',(-0.0806399999999999,-0.112855778519245,-0.00773899561950206));
#629=CARTESIAN_POINT('',(-0.08064,-0.125956638827382,-0.000433685819848164));
#630=CARTESIAN_POINT('',(-0.06564,-0.125956638827382,-0.000433685819848159));
#631=CARTESIAN_POINT('',(-0.08064,-0.113079807635055,-0.0081412310853791));
#632=CARTESIAN_POINT('',(-0.08064,-0.126187223217608,-0.000847695388039325));
#633=CARTESIAN_POINT('',(-0.06564,-0.126187223217608,-0.000847695388039285));
#634=CARTESIAN_POINT('',(-0.08064,-0.113424477261535,-0.00876004941541995));
#635=CARTESIAN_POINT('',(-0.08064,-0.126527858829063,-0.00145926811665559));
#636=CARTESIAN_POINT('',(-0.06564,-0.126527858829063,-0.00145926811665595));
#637=CARTESIAN_POINT('',(-0.08064,-0.113700210083233,-0.0092551057445536));
#638=CARTESIAN_POINT('',(-0.08064,-0.126804667388101,-0.0019562566061705));
#639=CARTESIAN_POINT('',(-0.06564,-0.126804667388101,-0.00195625660616972));
#640=CARTESIAN_POINT('',(-0.08064,-0.113838076854018,-0.00950263370098375));
#641=CARTESIAN_POINT('',(-0.08064,-0.126942534158886,-0.00220378456259961));
#642=CARTESIAN_POINT('',(-0.06564,-0.126942534158886,-0.00220378456259962));
#643=CARTESIAN_POINT('',(-0.08064,-0.113798226384473,-0.00943108560253149));
#644=CARTESIAN_POINT('',(-0.08064,-0.114682871959966,-0.0089417646112258));
#645=CARTESIAN_POINT('',(-0.0804364815654331,-0.116393886315559,-0.00788776984292049));
#646=CARTESIAN_POINT('',(-0.0795390101894859,-0.118711228651858,-0.00613989741216405));
#647=CARTESIAN_POINT('',(-0.0781412978495144,-0.120658846601538,-0.00436539997193465));
#648=CARTESIAN_POINT('',(-0.0765824558292732,-0.121992747196732,-0.00289473739483453));
#649=CARTESIAN_POINT('',(-0.0751483076246274,-0.122864956530484,-0.00180573669729953));
#650=CARTESIAN_POINT('',(-0.0736145812237144,-0.123558729915935,-0.0007229054210366));
#651=CARTESIAN_POINT('',(-0.0714776377763075,-0.124210190713669,0.000449633030115887));
#652=CARTESIAN_POINT('',(-0.0686322435482724,-0.124644248503054,0.00142366916652171));
#653=CARTESIAN_POINT('',(-0.0666512195391221,-0.124736593921791,0.00165700004328404));
#654=CARTESIAN_POINT('',(-0.06564,-0.124736593921791,0.00165700004328404));
#655=CARTESIAN_POINT('',(-0.07464,-0.108146512640548,0.000834151253895469));
#656=CARTESIAN_POINT('',(-0.07464,-0.113798226384473,-0.00943108560253149));
#657=CARTESIAN_POINT('',(-0.06564,-0.124736593921791,0.00165700004328398));
#658=CARTESIAN_POINT('',(-0.06564,-0.125982829337353,-0.000361860222423465));
#659=CARTESIAN_POINT('',(-0.06564,-0.125511326553696,-0.0026870665806757));
#660=CARTESIAN_POINT('',(-0.0666825649798804,-0.124736593923311,0.00165700004082235));
#661=CARTESIAN_POINT('',(-0.0665066547273598,-0.125982829337173,-0.000361860227119812));
#662=CARTESIAN_POINT('',(-0.0662655389879308,-0.125511326552686,-0.00268706658565423));
#663=CARTESIAN_POINT('',(-0.0687073273792149,-0.124638757310923,0.00140932547849473));
#664=CARTESIAN_POINT('',(-0.0682036457784967,-0.12597137861812,-0.000628208596087106));
#665=CARTESIAN_POINT('',(-0.0674803964275278,-0.125457671558811,-0.00296836723310075));
#666=CARTESIAN_POINT('',(-0.0715657725434919,-0.124189846886299,0.000408553733294216));
#667=CARTESIAN_POINT('',(-0.0706567922293865,-0.12587263760154,-0.00171793654831511));
#668=CARTESIAN_POINT('',(-0.0691954635260954,-0.125184684323566,-0.00409743539117606));
#669=CARTESIAN_POINT('',(-0.0736612465633948,-0.123539830997748,-0.00075358544458868));
#670=CARTESIAN_POINT('',(-0.0725438122687357,-0.125647910279955,-0.00302254271184642));
#671=CARTESIAN_POINT('',(-0.0704527479380369,-0.12474739496231,-0.00541263435302273));
#672=CARTESIAN_POINT('',(-0.0751629359487527,-0.122856069725076,-0.00181746114207353));
#673=CARTESIAN_POINT('',(-0.073970539482441,-0.125323159869787,-0.00425224183413562));
#674=CARTESIAN_POINT('',(-0.0713537615692516,-0.124245608042339,-0.00658768839696223));
#675=CARTESIAN_POINT('',(-0.0765515819443813,-0.12201107220111,-0.00287108259689617));
#676=CARTESIAN_POINT('',(-0.0753979911153526,-0.124899708101632,-0.00556600847731144));
#677=CARTESIAN_POINT('',(-0.0721869491666292,-0.123634288039548,-0.00782297680829827));
#678=CARTESIAN_POINT('',(-0.0780809397992656,-0.120718605494576,-0.00430332731768022));
#679=CARTESIAN_POINT('',(-0.0771176734677705,-0.12408839037544,-0.00743644593839217));
#680=CARTESIAN_POINT('',(-0.0731045638795558,-0.122642257112047,-0.00944610498445265));
#681=CARTESIAN_POINT('',(-0.0794882578952964,-0.118804544473932,-0.0060622532024183));
#682=CARTESIAN_POINT('',(-0.0789221219528103,-0.122521811370278,-0.0098909141670616));
#683=CARTESIAN_POINT('',(-0.0739489547371908,-0.121084778252842,-0.0113632780695364));
#684=CARTESIAN_POINT('',(-0.080422995838005,-0.116467867113248,-0.00783969169352919));
#685=CARTESIAN_POINT('',(-0.080296343549657,-0.120072568728457,-0.0125003837044442));
#686=CARTESIAN_POINT('',(-0.0745097975027546,-0.119087054393708,-0.0131950612099931));
#687=CARTESIAN_POINT('',(-0.08064,-0.114710082429049,-0.00892671377755176));
#688=CARTESIAN_POINT('',(-0.0806420439071628,-0.117885516747205,-0.0140300243499837));
#689=CARTESIAN_POINT('',(-0.0746400000001041,-0.117520182104159,-0.0142311660148399));
#690=CARTESIAN_POINT('',(-0.08064,-0.113798226384473,-0.00943108560253147));
#691=CARTESIAN_POINT('',(-0.08064,-0.116692031790531,-0.014687119304085));
#692=CARTESIAN_POINT('',(-0.07464,-0.116692031790531,-0.014687119304085));
#693=CARTESIAN_POINT('',(-0.06564,-0.119631005944132,-0.00149466164579094));
#694=CARTESIAN_POINT('',(-0.06564,-0.119631005944132,-0.00149466164579094));
#695=CARTESIAN_POINT('',(-0.00564,-0.0632197633478214,0.0224542642923107));
#696=CARTESIAN_POINT('',(-0.07964,-0.0632197633478214,0.0224542642923107));
#697=CARTESIAN_POINT('',(-0.07964,-0.109824271668946,-0.00315694539491409));
#698=CARTESIAN_POINT('',(-0.07964,-0.106465328710262,-0.00849303500794551));
#699=CARTESIAN_POINT('',(-0.07964,-0.106465328710262,-0.00849303500794551));
#700=CARTESIAN_POINT('',(-0.00664,-0.106465328710262,-0.00849303500794551));
#701=CARTESIAN_POINT('',(-0.00664,-0.0632197633478214,0.0224542642923107));
#702=CARTESIAN_POINT('',(-0.00664,-0.115211714125932,0.0112850516171392));
#703=CARTESIAN_POINT('',(-0.06564,-0.115211714125932,0.0112850516171392));
#704=CARTESIAN_POINT('',(-0.06564,-0.115211714125932,0.0112850516171392));
#705=CARTESIAN_POINT('',(-0.07964,-0.109824271668946,-0.00315694539491409));
#706=CARTESIAN_POINT('',(-0.07964,-0.110292509312006,-0.0023048971941932));
#707=CARTESIAN_POINT('',(-0.079471956608631,-0.111165566656414,-0.000607174616679493));
#708=CARTESIAN_POINT('',(-0.0787196636729725,-0.112317781493754,0.00196560532850862));
#709=CARTESIAN_POINT('',(-0.0775053610753102,-0.113261183067244,0.00440229452416698));
#710=CARTESIAN_POINT('',(-0.0758164173360159,-0.114016541860939,0.00666751195386401));
#711=CARTESIAN_POINT('',(-0.0737481900168999,-0.114566811600987,0.00858154360836234));
#712=CARTESIAN_POINT('',(-0.0712680269938061,-0.114948648300404,0.0101019390741734));
#713=CARTESIAN_POINT('',(-0.0685659574455595,-0.115162898442003,0.0110548116393003));
#714=CARTESIAN_POINT('',(-0.0666147694495674,-0.115211714125932,0.0112850516171392));
#715=CARTESIAN_POINT('',(-0.06564,-0.115211714125932,0.0112850516171392));
#716=CARTESIAN_POINT('',(-0.06564,-0.123885662605747,0.0011317230731295));
#717=CARTESIAN_POINT('',(-0.00664,-0.123885662605747,0.0011317230731295));
#718=CARTESIAN_POINT('',(-0.06564,-0.12149104340733,0.00501092719198883));
#719=CARTESIAN_POINT('',(-0.00664,-0.12149104340733,0.00501092719198883));
#720=CARTESIAN_POINT('',(-0.06564,-0.118530095308968,0.00854229151423747));
#721=CARTESIAN_POINT('',(-0.00664,-0.118530095308968,0.00854229151423747));
#722=CARTESIAN_POINT('',(-0.06564,-0.115211714125932,0.0112850516171392));
#723=CARTESIAN_POINT('',(-0.00664,-0.115211714125932,0.0112850516171392));
#724=CARTESIAN_POINT('',(-0.06564,-0.115211714125932,0.0112850516171392));
#725=CARTESIAN_POINT('',(-0.06564,-0.118662989541568,0.00843244970313312));
#726=CARTESIAN_POINT('',(-0.06564,-0.121534612319899,0.00494034698600293));
#727=CARTESIAN_POINT('',(-0.06564,-0.123885662592181,0.00113172309510479));
#728=CARTESIAN_POINT('',(-0.06564,-0.123885662592181,0.0011317230951048));
#729=CARTESIAN_POINT('',(-0.00664,-0.123885662605747,0.0011317230731295));
#730=CARTESIAN_POINT('',(-0.00664,-0.121535191436734,0.00493940884050459));
#731=CARTESIAN_POINT('',(-0.00664,-0.118662036492938,0.00843323743173157));
#732=CARTESIAN_POINT('',(-0.00664,-0.115211714125932,0.0112850516171392));
#733=CARTESIAN_POINT('',(-0.00664,-0.123885662605747,0.0011317230731295));
#734=CARTESIAN_POINT('',(-0.00564,-0.123885662605747,0.0011317230731295));
#735=CARTESIAN_POINT('',(-0.00564,-0.108146512640548,0.000834151253895469));
#736=CARTESIAN_POINT('',(-0.00664,-0.108146512640548,0.000834151253895469));
#737=CARTESIAN_POINT('',(-0.00664,-0.124531273118769,-0.00248833242486156));
#738=CARTESIAN_POINT('',(-0.00664,-0.11190658593068,-0.0154557573577912));
#739=CARTESIAN_POINT('',(-0.07464,-0.111906585930681,-0.015455757357791));
#740=CARTESIAN_POINT('',(-0.07464,-0.111906585930681,-0.015455757357791));
#741=CARTESIAN_POINT('',(-0.07464,-0.108146512640548,0.000834151253895469));
#742=CARTESIAN_POINT('',(-0.07464,-0.116209730889521,-0.0138111136871594));
#743=CARTESIAN_POINT('',(-0.06564,-0.124531273118769,-0.00248833242486154));
#744=CARTESIAN_POINT('',(-0.0664199715606899,-0.124531273118769,-0.00248833242486154));
#745=CARTESIAN_POINT('',(-0.0679361841867552,-0.124448329604502,-0.00292588951947964));
#746=CARTESIAN_POINT('',(-0.0697726382548743,-0.124079988010284,-0.00431702620654636));
#747=CARTESIAN_POINT('',(-0.0712559904871871,-0.123450072770282,-0.00598435991230439));
#748=CARTESIAN_POINT('',(-0.072859363417229,-0.122243386619021,-0.00833020929789244));
#749=CARTESIAN_POINT('',(-0.0742413717274964,-0.120044929583278,-0.0111956721025361));
#750=CARTESIAN_POINT('',(-0.07464,-0.11756571790628,-0.0130645502550259));
#751=CARTESIAN_POINT('',(-0.07464,-0.116209730889521,-0.0138111136871594));
#752=CARTESIAN_POINT('',(-0.06564,-0.124531273118769,-0.00248833242486154));
#753=CARTESIAN_POINT('',(-0.00564,-0.124531273118769,-0.00248833242486156));
#754=CARTESIAN_POINT('',(-0.00564,-0.111414294185958,-0.0102329862214146));
#755=CARTESIAN_POINT('',(-0.00664,-0.111414294185958,-0.0102329862214146));
#756=CARTESIAN_POINT('',(-0.07964,-0.111414294185958,-0.0102329862214146));
#757=CARTESIAN_POINT('',(-0.07964,-0.106191006217794,-0.010719763692666));
#758=CARTESIAN_POINT('',(-0.07464,-0.111906585930681,-0.015455757357791));
#759=CARTESIAN_POINT('',(-0.0748536541881102,-0.111906585930681,-0.0154557573577909));
#760=CARTESIAN_POINT('',(-0.0752363083935047,-0.111699919295589,-0.0154759727352675));
#761=CARTESIAN_POINT('',(-0.0758483800317709,-0.111128835324265,-0.0154859332750492));
#762=CARTESIAN_POINT('',(-0.0765312418881323,-0.110343316236983,-0.0153992524447567));
#763=CARTESIAN_POINT('',(-0.0772967112107486,-0.109393613242362,-0.0151087725403686));
#764=CARTESIAN_POINT('',(-0.0779994668042822,-0.108486225146596,-0.0146279797120896));
#765=CARTESIAN_POINT('',(-0.0786364675891725,-0.107646300816454,-0.0139387540832646));
#766=CARTESIAN_POINT('',(-0.0793430778117346,-0.106695360385729,-0.0127464237004569));
#767=CARTESIAN_POINT('',(-0.07964,-0.106269370032286,-0.0115606340976228));
#768=CARTESIAN_POINT('',(-0.07964,-0.106191006217794,-0.010719763692666));
#769=CARTESIAN_POINT('',(-0.00664,-0.0785833531866038,-0.024257448981059));
#770=CARTESIAN_POINT('',(-0.00664,-0.119631005944132,-0.00149466164579094));
#771=CARTESIAN_POINT('',(-0.07964,-0.0785833531866038,-0.024257448981059));
#772=CARTESIAN_POINT('',(-0.07964,-0.113798226384473,-0.00943108560253149));
#773=CARTESIAN_POINT('',(-0.07964,-0.113195013077607,-0.00834806787251976));
#774=CARTESIAN_POINT('',(-0.07964,-0.112021120268702,-0.00616048923937665));
#775=CARTESIAN_POINT('',(-0.07964,-0.110596658003251,-0.00412798905858247));
#776=CARTESIAN_POINT('',(-0.07964,-0.109824271668945,-0.00315694539491426));
#777=CARTESIAN_POINT('',(-0.07964,-0.113798226384473,-0.00943108560253149));
#778=CARTESIAN_POINT('',(-0.07964,-0.108146512640548,0.000834151253895469));
#779=CARTESIAN_POINT('',(-0.07964,-0.106234511039542,0.000541702465974256));
#780=CARTESIAN_POINT('',(-0.07964,-0.115111673563929,0.0113674119353635));
#781=CARTESIAN_POINT('',(-0.06564,-0.115111673563929,0.0113674119353635));
#782=CARTESIAN_POINT('',(-0.07964,-0.107050839849659,-0.000127693251086418));
#783=CARTESIAN_POINT('',(-0.0796400000000155,-0.116522841346417,0.0102102438170018));
#784=CARTESIAN_POINT('',(-0.06564,-0.116522841351005,0.0102102438226892));
#785=CARTESIAN_POINT('',(-0.07964,-0.108194783037599,-0.00123091333618284));
#786=CARTESIAN_POINT('',(-0.0796399999999965,-0.118338405206434,0.00844490436912208));
#787=CARTESIAN_POINT('',(-0.06564,-0.118338405205399,0.00844490436783943));
#788=CARTESIAN_POINT('',(-0.07964,-0.109579342481235,-0.0028302251225703));
#789=CARTESIAN_POINT('',(-0.0796400000000007,-0.120425139298361,0.00603373654226424));
#790=CARTESIAN_POINT('',(-0.06564,-0.120425139298556,0.00603373654250618));
#791=CARTESIAN_POINT('',(-0.07964,-0.110548587390706,-0.00408305070550836));
#792=CARTESIAN_POINT('',(-0.0796399999999998,-0.121845264012848,0.00419657662705565));
#793=CARTESIAN_POINT('',(-0.06564,-0.121845264012795,0.00419657662698938));
#794=CARTESIAN_POINT('',(-0.07964,-0.111301463072543,-0.00516597473671137));
#795=CARTESIAN_POINT('',(-0.07964,-0.122928238983298,0.0026384784322218));
#796=CARTESIAN_POINT('',(-0.06564,-0.122928238983304,0.00263847843223004));
#797=CARTESIAN_POINT('',(-0.07964,-0.111872801831817,-0.00605548468038932));
#798=CARTESIAN_POINT('',(-0.07964,-0.123744374098617,0.0013675975318223));
#799=CARTESIAN_POINT('',(-0.06564,-0.123744374098616,0.00136759753182071));
#800=CARTESIAN_POINT('',(-0.07964,-0.112216465606418,-0.00661992100531463));
#801=CARTESIAN_POINT('',(-0.07964,-0.124231130519942,0.000568392314226873));
#802=CARTESIAN_POINT('',(-0.06564,-0.124231130519942,0.00056839231422707));
#803=CARTESIAN_POINT('',(-0.07964,-0.112483116527783,-0.00707602291743034));
#804=CARTESIAN_POINT('',(-0.07964,-0.124613357556593,-8.57226970318468E-5));
#805=CARTESIAN_POINT('',(-0.06564,-0.124613357556593,-8.57226970318869E-5));
#806=CARTESIAN_POINT('',(-0.07964,-0.112630092816454,-0.00733431952871135));
#807=CARTESIAN_POINT('',(-0.07964,-0.124813216822396,-0.000436630398021391));
#808=CARTESIAN_POINT('',(-0.06564,-0.124813216822396,-0.000436630398021384));
#809=CARTESIAN_POINT('',(-0.07964,-0.112726745209232,-0.00750727444741303));
#810=CARTESIAN_POINT('',(-0.07964,-0.124961586086037,-0.000702197628254571));
#811=CARTESIAN_POINT('',(-0.06564,-0.124961586086037,-0.000702197628254573));
#812=CARTESIAN_POINT('',(-0.07964,-0.11279097900328,-0.00762269276607292));
#813=CARTESIAN_POINT('',(-0.07964,-0.125019519668389,-0.000806342945126272));
#814=CARTESIAN_POINT('',(-0.06564,-0.125019519668389,-0.000806342945126282));
#815=CARTESIAN_POINT('',(-0.07964,-0.112903480307874,-0.00782462210816931));
#816=CARTESIAN_POINT('',(-0.0796400000000001,-0.125135928699226,-0.00101526440225587));
#817=CARTESIAN_POINT('',(-0.06564,-0.125135928699225,-0.00101526440225586));
#818=CARTESIAN_POINT('',(-0.07964,-0.113128417454064,-0.00822851823518814));
#819=CARTESIAN_POINT('',(-0.0796399999999993,-0.125358074612384,-0.00141416616139363));
#820=CARTESIAN_POINT('',(-0.06564,-0.125358074612385,-0.00141416616139355));
#821=CARTESIAN_POINT('',(-0.07964,-0.113449790688551,-0.00880549299561185));
#822=CARTESIAN_POINT('',(-0.0796400000000055,-0.125681042837186,-0.00199399484632248));
#823=CARTESIAN_POINT('',(-0.06564,-0.125681042837174,-0.00199399484632313));
#824=CARTESIAN_POINT('',(-0.07964,-0.113706878775789,-0.00926707880980285));
#825=CARTESIAN_POINT('',(-0.0796399999999883,-0.125937705593644,-0.00245481961397435));
#826=CARTESIAN_POINT('',(-0.06564,-0.125937705593671,-0.00245481961397296));
#827=CARTESIAN_POINT('',(-0.07964,-0.11383542413197,-0.00949787096617869));
#828=CARTESIAN_POINT('',(-0.07964,-0.126066250949846,-0.00268561177035351));
#829=CARTESIAN_POINT('',(-0.06564,-0.126066250949846,-0.0026856117703535));
#830=CARTESIAN_POINT('',(-0.07964,-0.113798226384473,-0.00943108560253149));
#831=CARTESIAN_POINT('',(-0.07964,-0.114626200365887,-0.00897333834988177));
#832=CARTESIAN_POINT('',(-0.0794489794901443,-0.116224099879015,-0.00798173954321185));
#833=CARTESIAN_POINT('',(-0.07860818592873,-0.118375853920179,-0.00632444891293156));
#834=CARTESIAN_POINT('',(-0.077302552222965,-0.120171422960007,-0.00463397825847749));
#835=CARTESIAN_POINT('',(-0.0758498763924226,-0.121392628852923,-0.00322805659956637));
#836=CARTESIAN_POINT('',(-0.0745150162328273,-0.122186760038041,-0.00218291092391748));
#837=CARTESIAN_POINT('',(-0.0730865060928086,-0.122819948859393,-0.00115061809851744));
#838=CARTESIAN_POINT('',(-0.0710956970132536,-0.123410817284964,-2.82075718429825E-5));
#839=CARTESIAN_POINT('',(-0.0684388816157085,-0.123802701079292,0.000906886582807454));
#840=CARTESIAN_POINT('',(-0.0665863488403972,-0.123885662592181,0.00113172309510482));
#841=CARTESIAN_POINT('',(-0.06564,-0.123885662592181,0.00113172309510482));
#842=CARTESIAN_POINT('',(-0.07464,-0.108146512640548,0.000834151253895469));
#843=CARTESIAN_POINT('',(-0.07464,-0.113798226384473,-0.00943108560253149));
#844=CARTESIAN_POINT('',(-0.06564,-0.123885662592181,0.00113172309510483));
#845=CARTESIAN_POINT('',(-0.06564,-0.12492419210515,-0.000550660459651377));
#846=CARTESIAN_POINT('',(-0.06564,-0.124531273118769,-0.00248833242486158));
#847=CARTESIAN_POINT('',(-0.0666130606478866,-0.123885662593667,0.00113172309269793));
#848=CARTESIAN_POINT('',(-0.0664664687713058,-0.124924192104918,-0.000550660464128448));
#849=CARTESIAN_POINT('',(-0.0662655389879308,-0.124531273117817,-0.00248833242955565));
#850=CARTESIAN_POINT('',(-0.0685028388872681,-0.12379821782025,0.000894320521188498));
#851=CARTESIAN_POINT('',(-0.0680847151250184,-0.124908655644095,-0.000804035507856091));
#852=CARTESIAN_POINT('',(-0.0674803964275278,-0.12448064636031,-0.00275375673838617));
#853=CARTESIAN_POINT('',(-0.0711707210405922,-0.123394035064999,-6.41104359273076E-5));
#854=CARTESIAN_POINT('',(-0.0704159897795011,-0.124795939938152,-0.00183771868161648));
#855=CARTESIAN_POINT('',(-0.0691954635260954,-0.124223066262679,-0.00381910137301004));
#856=CARTESIAN_POINT('',(-0.0731264967925018,-0.122804153789566,-0.00117753101041856));
#857=CARTESIAN_POINT('',(-0.0721970668353945,-0.124560312657182,-0.00306977477853242));
#858=CARTESIAN_POINT('',(-0.0704527479380369,-0.123810457093373,-0.00506007176744395));
#859=CARTESIAN_POINT('',(-0.0745280735521692,-0.12217904194796,-0.0021936175095869));
#860=CARTESIAN_POINT('',(-0.0735352279608417,-0.124234603226267,-0.00422335406238087));
#861=CARTESIAN_POINT('',(-0.0713537615692516,-0.123336990545678,-0.00616880688866137));
#862=CARTESIAN_POINT('',(-0.0758241431480892,-0.121407492991889,-0.00320779829787574));
#863=CARTESIAN_POINT('',(-0.0748649427293081,-0.123813562129589,-0.00545574583742387));
#864=CARTESIAN_POINT('',(-0.0721869491666292,-0.122760172857255,-0.0073343768073772));
#865=CARTESIAN_POINT('',(-0.0772515438126479,-0.120221088188844,-0.00458024913109113));
#866=CARTESIAN_POINT('',(-0.0764518528182163,-0.123026435938722,-0.00719517912231679));
#867=CARTESIAN_POINT('',(-0.0731045638795558,-0.121824131203404,-0.00886589718673475));
#868=CARTESIAN_POINT('',(-0.0785650407022766,-0.118454360140781,-0.00625734613991299));
#869=CARTESIAN_POINT('',(-0.0780952333721574,-0.121548712693116,-0.00945143356214144));
#870=CARTESIAN_POINT('',(-0.0739489547371908,-0.120354554956539,-0.010674866862512));
#871=CARTESIAN_POINT('',(-0.079437462782138,-0.11628692464806,-0.00794045798981416));
#872=CARTESIAN_POINT('',(-0.0793325294350317,-0.119288208930757,-0.0118263536440292));
#873=CARTESIAN_POINT('',(-0.0745097975027546,-0.118469580715112,-0.0124032659201983));
#874=CARTESIAN_POINT('',(-0.07964,-0.114649391464834,-0.00896051709964351));
#875=CARTESIAN_POINT('',(-0.0796417032559774,-0.117295602277267,-0.0132132673501503));
#876=CARTESIAN_POINT('',(-0.0746400000001041,-0.116991141194089,-0.0133808939640555));
#877=CARTESIAN_POINT('',(-0.07964,-0.113798226384473,-0.00943108560253147));
#878=CARTESIAN_POINT('',(-0.07964,-0.116209730889521,-0.0138111136871594));
#879=CARTESIAN_POINT('',(-0.07464,-0.116209730889521,-0.0138111136871594));
#880=CARTESIAN_POINT('',(-0.06564,-0.119631005944132,-0.00149466164579094));
#881=CARTESIAN_POINT('',(-0.06564,-0.119631005944132,-0.00149466164579094));
#882=MECHANICAL_DESIGN_GEOMETRIC_PRESENTATION_REPRESENTATION('',(#315,#287,
#288,#289,#290,#291,#292),#883);
#883=(
GEOMETRIC_REPRESENTATION_CONTEXT(3)
GLOBAL_UNCERTAINTY_ASSIGNED_CONTEXT((#884))
GLOBAL_UNIT_ASSIGNED_CONTEXT((#887,#886,#885))
REPRESENTATION_CONTEXT('Part 21','TOP_LEVEL_ASSEMBLY_PART')
);
#884=UNCERTAINTY_MEASURE_WITH_UNIT(LENGTH_MEASURE(2.E-5),#887,
'DISTANCE_ACCURACY_VALUE','Maximum Tolerance applied to model');
#885=(
NAMED_UNIT(*)
SI_UNIT($,.STERADIAN.)
SOLID_ANGLE_UNIT()
);
#886=(
NAMED_UNIT(*)
PLANE_ANGLE_UNIT()
SI_UNIT($,.RADIAN.)
);
#887=(
LENGTH_UNIT()
NAMED_UNIT(*)
SI_UNIT($,.METRE.)
);
#888=PRODUCT_DEFINITION_SHAPE('','',#889);
#889=PRODUCT_DEFINITION('','',#891,#890);
#890=PRODUCT_DEFINITION_CONTEXT('',#897,'design');
#891=PRODUCT_DEFINITION_FORMATION_WITH_SPECIFIED_SOURCE('','',#893,
 .NOT_KNOWN.);
#892=PRODUCT_RELATED_PRODUCT_CATEGORY('','',(#893));
#893=PRODUCT('Part 21','Part 21','Part 21',(#895));
#894=PRODUCT_CATEGORY('','');
#895=PRODUCT_CONTEXT('',#897,'mechanical');
#896=APPLICATION_PROTOCOL_DEFINITION('international standard',
'ap242_managed_model_based_3d_engineering',2020,#897);
#897=APPLICATION_CONTEXT('managed model based 3d engineering');
ENDSEC;
END-ISO-10303-21;
