ISO-10303-21;
HEADER;
/* Generated by software containing ST-Developer
 * from STEP Tools, Inc. (www.steptools.com) 
 */
/* OPTION: using custom renumber hook */

FILE_DESCRIPTION(
/* description */ ('STEP AP242 Edition 2',
'CAx-IF Rec.Pracs.---Representation and Presentation of Product Manufa
cturing Information (PMI)---4.0---2014-10-13',
'CAx-IF Rec.Pracs.---3D Tessellated Geometry---0.4---2014-09-14','2;1',
'CAx-IF Rec.Pracs.---User Defined Attributes---1.5---2016-08-15'),
/* implementation_level */ '2;1');

FILE_NAME(
/* name */ 'Part Studio 1 - Part 20',
/* time_stamp */ '2026-06-18T16:33:49Z',
/* author */ (''),
/* organization */ (''),
/* preprocessor_version */ 'ST-DEVELOPER v20',
/* originating_system */ 'ONSHAPE BY PTC INC, 1.216',
/* authorisation */ '  ');

FILE_SCHEMA (('AP242_MANAGED_MODEL_BASED_3D_ENGINEERING_MIM_LF { 1 0 10303 442 3 1 4 }'));
ENDSEC;

DATA;
#10=SHAPE_REPRESENTATION_RELATIONSHIP('','',#383,#11);
#11=ADVANCED_BREP_SHAPE_REPRESENTATION('',(#381),#797);
#12=(
BOUNDED_SURFACE()
B_SPLINE_SURFACE(3,2,((#636,#637,#638),(#639,#640,#641),(#642,#643,#644),
(#645,#646,#647),(#648,#649,#650),(#651,#652,#653),(#654,#655,#656),(#657,
#658,#659),(#660,#661,#662),(#663,#664,#665),(#666,#667,#668),(#669,#670,
#671),(#672,#673,#674),(#675,#676,#677),(#678,#679,#680),(#681,#682,#683),
(#684,#685,#686),(#687,#688,#689),(#690,#691,#692),(#693,#694,#695),(#696,
#697,#698),(#699,#700,#701),(#702,#703,#704),(#705,#706,#707),(#708,#709,
#710),(#711,#712,#713),(#714,#715,#716)),.UNSPECIFIED.,.F.,.F.,.F.)
B_SPLINE_SURFACE_WITH_KNOTS((4,1,1,1,1,1,1,1,1,1,1,1,1,1,1,1,1,1,1,1,1,
1,1,1,4),(3,3),(0.0397370710222155,0.0412464087913095,0.0427557465604036,
0.0457744220985917,0.0487930976367798,0.0503024354058738,0.0518117731749679,
0.0533211109440619,0.0548304487131559,0.05633978648225,0.057094455366797,
0.057849124251344,0.0582264586936176,0.0586037931358911,0.0587924603570278,
0.0588867939675962,0.0589811275781646,0.0591697947993013,0.0593584620204381,
0.0597357964627116,0.0601131309049851,0.0608677997895321,0.0616224686740792,
0.0623771375586262,0.0638864753277202),(0.,1.),.UNSPECIFIED.)
GEOMETRIC_REPRESENTATION_ITEM()
RATIONAL_B_SPLINE_SURFACE(((1.,0.707106781186548,1.),(1.,0.707106781186548,
1.),(1.,0.707106781186548,1.),(1.,0.707106781186547,1.),(1.,0.707106781186547,
1.),(1.,0.707106781186548,1.),(1.,0.707106781186547,1.),(1.,0.707106781186547,
1.),(1.,0.707106781186548,1.),(1.,0.707106781186548,1.),(1.,0.707106781186547,
1.),(1.,0.707106781186548,1.),(1.,0.707106781186547,1.),(1.,0.707106781186547,
1.),(1.,0.707106781186547,1.),(1.,0.707106781186547,1.),(1.,0.707106781186548,
1.),(1.,0.707106781186548,1.),(1.,0.707106781186548,1.),(1.,0.707106781186547,
1.),(1.,0.707106781186548,1.),(1.,0.707106781186547,1.),(1.,0.707106781186548,
1.),(1.,0.707106781186547,1.),(1.,0.707106781186548,1.),(1.,0.707106781186548,
1.),(1.,0.707106781186548,1.)))
REPRESENTATION_ITEM('')
SURFACE()
);
#13=(
BOUNDED_SURFACE()
B_SPLINE_SURFACE(3,2,((#717,#718,#719),(#720,#721,#722),(#723,#724,#725),
(#726,#727,#728),(#729,#730,#731),(#732,#733,#734),(#735,#736,#737),(#738,
#739,#740),(#741,#742,#743)),.UNSPECIFIED.,.F.,.F.,.F.)
B_SPLINE_SURFACE_WITH_KNOTS((4,1,1,1,1,1,4),(3,3),(0.0294332608861222,0.0322751444516527,
0.0351170280171831,0.0408007951482441,0.0436426787137746,0.046484562279305,
0.052168329410366),(0.,1.),.UNSPECIFIED.)
GEOMETRIC_REPRESENTATION_ITEM()
RATIONAL_B_SPLINE_SURFACE(((1.,0.707106781186547,1.),(1.,0.707106781186548,
1.),(1.,0.707106781186548,1.),(1.,0.707106781186548,1.),(1.,0.707106781186548,
1.),(1.,0.707106781186547,1.),(1.,0.707106781186548,1.),(1.,0.707106781186548,
1.),(1.,0.707106781186548,1.)))
REPRESENTATION_ITEM('')
SURFACE()
);
#14=(
BOUNDED_SURFACE()
B_SPLINE_SURFACE(3,2,((#756,#757,#758),(#759,#760,#761),(#762,#763,#764),
(#765,#766,#767),(#768,#769,#770),(#771,#772,#773),(#774,#775,#776)),
 .UNSPECIFIED.,.F.,.F.,.F.)
B_SPLINE_SURFACE_WITH_KNOTS((4,1,1,1,4),(3,3),(0.0323713064866404,0.0340836184763399,
0.0357959304660394,0.037508242455739,0.0392205544454385),(0.,1.),
 .UNSPECIFIED.)
GEOMETRIC_REPRESENTATION_ITEM()
RATIONAL_B_SPLINE_SURFACE(((1.,0.707291215857475,1.),(1.,0.707291215756151,
1.),(1.,0.699375005929764,1.),(1.,0.667267184113749,1.),(1.,0.627168062544127,
1.),(1.,0.605419528373934,1.),(1.,0.598551519647831,1.)))
REPRESENTATION_ITEM('')
SURFACE()
);
#15=(
BOUNDED_SURFACE()
B_SPLINE_SURFACE(3,2,((#779,#780,#781),(#782,#783,#784),(#785,#786,#787),
(#788,#789,#790),(#791,#792,#793)),.UNSPECIFIED.,.F.,.F.,.F.)
B_SPLINE_SURFACE_WITH_KNOTS((4,1,4),(3,3),(0.0387619569292412,0.0415159928001025,
0.0442700286709638),(0.,1.),.UNSPECIFIED.)
GEOMETRIC_REPRESENTATION_ITEM()
RATIONAL_B_SPLINE_SURFACE(((1.,0.858250617175646,1.),(1.,0.858250616874778,
1.),(1.,0.828013979903562,1.),(1.,0.760253455704626,1.),(1.,0.728831886551428,
1.)))
REPRESENTATION_ITEM('')
SURFACE()
);
#16=PLANE('',#399);
#17=PLANE('',#402);
#18=B_SPLINE_SURFACE_WITH_KNOTS('',3,1,((#492,#493),(#494,#495),(#496,#497),
(#498,#499),(#500,#501),(#502,#503)),.SURF_OF_LINEAR_EXTRUSION.,.F.,.F.,
 .F.,(4,1,1,4),(2,2),(0.63828879555346,0.728716596665095,0.81914439777673,
1.),(0.,1.),.UNSPECIFIED.);
#19=B_SPLINE_SURFACE_WITH_KNOTS('',3,1,((#571,#572),(#573,#574),(#575,#576),
(#577,#578)),.SURF_OF_LINEAR_EXTRUSION.,.F.,.F.,.F.,(4,4),(2,2),(0.0240496629628127,
0.229872740444184),(0.,1.),.PIECEWISE_BEZIER_KNOTS.);
#20=CIRCLE('',#386,0.0199906660729857);
#21=CIRCLE('',#387,0.0199906660729857);
#22=CIRCLE('',#389,0.0521781370254425);
#23=CIRCLE('',#390,0.0521781370254425);
#24=CIRCLE('',#392,0.00624592122557009);
#25=CIRCLE('',#394,0.00765028176975307);
#26=CIRCLE('',#396,0.0076106948554971);
#27=CIRCLE('',#398,0.0265194676445248);
#28=CIRCLE('',#400,0.002);
#29=CIRCLE('',#401,0.002);
#30=CIRCLE('',#403,0.002);
#31=CIRCLE('',#405,0.002);
#32=B_SPLINE_CURVE_WITH_KNOTS('',3,(#468,#469,#470,#471),.UNSPECIFIED.,
 .F.,.F.,(4,4),(0.,0.000362130141075548),.UNSPECIFIED.);
#33=B_SPLINE_CURVE_WITH_KNOTS('',3,(#475,#476,#477,#478,#479,#480,#481,
#482,#483,#484,#485,#486,#487),.UNSPECIFIED.,.F.,.F.,(4,1,1,1,1,1,1,1,1,
1,4),(4.26531252885488E-17,0.0037151347715176,0.00743026954303516,0.0111454043145527,
0.0148605390860703,0.0185756738575878,0.0222908086291054,0.0241483760148642,
0.026005943400623,0.0278635107863817,0.0297210781721405),.UNSPECIFIED.);
#34=B_SPLINE_CURVE_WITH_KNOTS('',3,(#504,#505,#506,#507,#508,#509,#510),
 .UNSPECIFIED.,.F.,.F.,(4,1,1,1,4),(0.,0.00687918712716955,0.0137583742543391,
0.0206375613815086,0.0275167485086782),.UNSPECIFIED.);
#35=B_SPLINE_CURVE_WITH_KNOTS('',3,(#514,#515,#516,#517,#518),
 .UNSPECIFIED.,.F.,.F.,(4,1,4),(0.63828879555346,0.688766599716945,1.),
 .UNSPECIFIED.);
#36=B_SPLINE_CURVE_WITH_KNOTS('',3,(#523,#524,#525,#526),.UNSPECIFIED.,
 .F.,.F.,(4,4),(0.,0.00201780723871125),.UNSPECIFIED.);
#37=B_SPLINE_CURVE_WITH_KNOTS('',3,(#531,#532,#533,#534,#535,#536,#537,
#538),.UNSPECIFIED.,.F.,.F.,(4,1,1,1,1,4),(0.,0.00299637407776402,0.00599274815552804,
0.0119854963110561,0.0179782444665841,0.0239709926221122),.UNSPECIFIED.);
#38=B_SPLINE_CURVE_WITH_KNOTS('',3,(#540,#541,#542,#543,#544,#545,#546,
#547,#548),.UNSPECIFIED.,.F.,.F.,(4,1,1,1,1,1,4),(0.,0.00246883779783549,
0.00493767559567097,0.00617209449458871,0.00740651339350646,0.0086409322924242,
0.00987535119134194),.UNSPECIFIED.);
#39=B_SPLINE_CURVE_WITH_KNOTS('',3,(#550,#551,#552,#553,#554,#555,#556),
 .UNSPECIFIED.,.F.,.F.,(4,1,1,1,4),(6.16986296906414E-16,0.000821049928542775,
0.00164209985708493,0.00246314978562709,0.00328419971416925),
 .UNSPECIFIED.);
#40=B_SPLINE_CURVE_WITH_KNOTS('',3,(#562,#563,#564,#565,#566),
 .UNSPECIFIED.,.F.,.F.,(4,1,4),(0.,0.00237524426075482,0.00475048852150963),
 .UNSPECIFIED.);
#41=B_SPLINE_CURVE_WITH_KNOTS('',3,(#579,#580,#581,#582,#583,#584,#585),
 .UNSPECIFIED.,.F.,.F.,(4,1,1,1,4),(0.000997172579185406,0.00365863090717698,
0.00632008923516855,0.00898154756316013,0.0116430058911517),
 .UNSPECIFIED.);
#42=B_SPLINE_CURVE_WITH_KNOTS('',3,(#590,#591,#592,#593),.UNSPECIFIED.,
 .F.,.F.,(4,4),(0.,0.267580971156566),.PIECEWISE_BEZIER_KNOTS.);
#43=B_SPLINE_CURVE_WITH_KNOTS('',3,(#602,#603,#604,#605),.UNSPECIFIED.,
 .F.,.F.,(4,4),(0.,0.00323762427539761),.UNSPECIFIED.);
#44=B_SPLINE_CURVE_WITH_KNOTS('',3,(#609,#610,#611,#612,#613),
 .UNSPECIFIED.,.F.,.F.,(4,1,4),(0.,0.00272810324077675,0.0054562064815535),
 .UNSPECIFIED.);
#45=B_SPLINE_CURVE_WITH_KNOTS('',3,(#615,#616,#617,#618,#619,#620),
 .UNSPECIFIED.,.F.,.F.,(4,1,1,4),(0.00262358177515511,0.00506378127267372,
0.00750398077019232,0.0123843797652295),.UNSPECIFIED.);
#46=B_SPLINE_CURVE_WITH_KNOTS('',3,(#626,#627,#628,#629),.UNSPECIFIED.,
 .F.,.F.,(4,4),(0.,0.0048852994254149),.UNSPECIFIED.);
#47=B_SPLINE_CURVE_WITH_KNOTS('',3,(#630,#631,#632,#633,#634,#635),
 .UNSPECIFIED.,.F.,.F.,(4,1,1,4),(0.,0.00393760270778024,0.00590640406167037,
0.00787520541556049),.UNSPECIFIED.);
#48=B_SPLINE_CURVE_WITH_KNOTS('',3,(#744,#745,#746,#747,#748,#749,#750),
 .UNSPECIFIED.,.F.,.F.,(4,1,1,1,4),(1.63653485417008E-17,0.00214019735030405,
0.00428039470060809,0.00642059205091213,0.00856078940121617),
 .UNSPECIFIED.);
#49=B_SPLINE_CURVE_WITH_KNOTS('',3,(#751,#752,#753,#754,#755),
 .UNSPECIFIED.,.F.,.F.,(4,1,4),(5.76387816844525E-17,0.00330728038657361,
0.00661456077314716),.UNSPECIFIED.);
#50=ORIENTED_EDGE('',*,*,#130,.F.);
#51=ORIENTED_EDGE('',*,*,#131,.T.);
#52=ORIENTED_EDGE('',*,*,#132,.T.);
#53=ORIENTED_EDGE('',*,*,#133,.T.);
#54=ORIENTED_EDGE('',*,*,#134,.T.);
#55=ORIENTED_EDGE('',*,*,#135,.F.);
#56=ORIENTED_EDGE('',*,*,#134,.F.);
#57=ORIENTED_EDGE('',*,*,#136,.T.);
#58=ORIENTED_EDGE('',*,*,#137,.T.);
#59=ORIENTED_EDGE('',*,*,#138,.T.);
#60=ORIENTED_EDGE('',*,*,#139,.T.);
#61=ORIENTED_EDGE('',*,*,#140,.T.);
#62=ORIENTED_EDGE('',*,*,#141,.T.);
#63=ORIENTED_EDGE('',*,*,#142,.F.);
#64=ORIENTED_EDGE('',*,*,#137,.F.);
#65=ORIENTED_EDGE('',*,*,#143,.T.);
#66=ORIENTED_EDGE('',*,*,#144,.T.);
#67=ORIENTED_EDGE('',*,*,#145,.T.);
#68=ORIENTED_EDGE('',*,*,#146,.T.);
#69=ORIENTED_EDGE('',*,*,#147,.T.);
#70=ORIENTED_EDGE('',*,*,#141,.F.);
#71=ORIENTED_EDGE('',*,*,#148,.T.);
#72=ORIENTED_EDGE('',*,*,#149,.T.);
#73=ORIENTED_EDGE('',*,*,#150,.T.);
#74=ORIENTED_EDGE('',*,*,#146,.F.);
#75=ORIENTED_EDGE('',*,*,#151,.T.);
#76=ORIENTED_EDGE('',*,*,#152,.T.);
#77=ORIENTED_EDGE('',*,*,#153,.F.);
#78=ORIENTED_EDGE('',*,*,#154,.T.);
#79=ORIENTED_EDGE('',*,*,#155,.T.);
#80=ORIENTED_EDGE('',*,*,#156,.T.);
#81=ORIENTED_EDGE('',*,*,#157,.T.);
#82=ORIENTED_EDGE('',*,*,#158,.T.);
#83=ORIENTED_EDGE('',*,*,#158,.F.);
#84=ORIENTED_EDGE('',*,*,#159,.T.);
#85=ORIENTED_EDGE('',*,*,#160,.T.);
#86=ORIENTED_EDGE('',*,*,#130,.T.);
#87=ORIENTED_EDGE('',*,*,#161,.F.);
#88=ORIENTED_EDGE('',*,*,#153,.T.);
#89=ORIENTED_EDGE('',*,*,#162,.T.);
#90=ORIENTED_EDGE('',*,*,#155,.F.);
#91=ORIENTED_EDGE('',*,*,#161,.T.);
#92=ORIENTED_EDGE('',*,*,#135,.T.);
#93=ORIENTED_EDGE('',*,*,#138,.F.);
#94=ORIENTED_EDGE('',*,*,#142,.T.);
#95=ORIENTED_EDGE('',*,*,#147,.F.);
#96=ORIENTED_EDGE('',*,*,#150,.F.);
#97=ORIENTED_EDGE('',*,*,#163,.T.);
#98=ORIENTED_EDGE('',*,*,#132,.F.);
#99=ORIENTED_EDGE('',*,*,#164,.T.);
#100=ORIENTED_EDGE('',*,*,#139,.F.);
#101=ORIENTED_EDGE('',*,*,#165,.T.);
#102=ORIENTED_EDGE('',*,*,#143,.F.);
#103=ORIENTED_EDGE('',*,*,#136,.F.);
#104=ORIENTED_EDGE('',*,*,#133,.F.);
#105=ORIENTED_EDGE('',*,*,#165,.F.);
#106=ORIENTED_EDGE('',*,*,#160,.F.);
#107=ORIENTED_EDGE('',*,*,#166,.T.);
#108=ORIENTED_EDGE('',*,*,#151,.F.);
#109=ORIENTED_EDGE('',*,*,#167,.T.);
#110=ORIENTED_EDGE('',*,*,#144,.F.);
#111=ORIENTED_EDGE('',*,*,#140,.F.);
#112=ORIENTED_EDGE('',*,*,#164,.F.);
#113=ORIENTED_EDGE('',*,*,#131,.F.);
#114=ORIENTED_EDGE('',*,*,#159,.F.);
#115=ORIENTED_EDGE('',*,*,#157,.F.);
#116=ORIENTED_EDGE('',*,*,#168,.F.);
#117=ORIENTED_EDGE('',*,*,#166,.F.);
#118=ORIENTED_EDGE('',*,*,#168,.T.);
#119=ORIENTED_EDGE('',*,*,#156,.F.);
#120=ORIENTED_EDGE('',*,*,#162,.F.);
#121=ORIENTED_EDGE('',*,*,#152,.F.);
#122=ORIENTED_EDGE('',*,*,#145,.F.);
#123=ORIENTED_EDGE('',*,*,#167,.F.);
#124=ORIENTED_EDGE('',*,*,#169,.F.);
#125=ORIENTED_EDGE('',*,*,#148,.F.);
#126=ORIENTED_EDGE('',*,*,#169,.T.);
#127=ORIENTED_EDGE('',*,*,#154,.F.);
#128=ORIENTED_EDGE('',*,*,#163,.F.);
#129=ORIENTED_EDGE('',*,*,#149,.F.);
#130=EDGE_CURVE('',#170,#171,#196,.T.);
#131=EDGE_CURVE('',#170,#172,#32,.T.);
#132=EDGE_CURVE('',#172,#173,#20,.T.);
#133=EDGE_CURVE('',#173,#174,#33,.T.);
#134=EDGE_CURVE('',#174,#175,#197,.T.);
#135=EDGE_CURVE('',#171,#175,#21,.T.);
#136=EDGE_CURVE('',#174,#176,#34,.T.);
#137=EDGE_CURVE('',#176,#177,#198,.T.);
#138=EDGE_CURVE('',#177,#175,#35,.T.);
#139=EDGE_CURVE('',#178,#179,#22,.T.);
#140=EDGE_CURVE('',#179,#180,#36,.T.);
#141=EDGE_CURVE('',#180,#181,#199,.T.);
#142=EDGE_CURVE('',#177,#181,#23,.T.);
#143=EDGE_CURVE('',#176,#178,#37,.T.);
#144=EDGE_CURVE('',#180,#182,#38,.T.);
#145=EDGE_CURVE('',#182,#183,#39,.T.);
#146=EDGE_CURVE('',#183,#184,#200,.T.);
#147=EDGE_CURVE('',#184,#181,#24,.T.);
#148=EDGE_CURVE('',#183,#185,#40,.T.);
#149=EDGE_CURVE('',#185,#186,#201,.T.);
#150=EDGE_CURVE('',#186,#184,#25,.T.);
#151=EDGE_CURVE('',#187,#188,#41,.T.);
#152=EDGE_CURVE('',#188,#189,#202,.T.);
#153=EDGE_CURVE('',#190,#189,#42,.T.);
#154=EDGE_CURVE('',#190,#187,#203,.F.);
#155=EDGE_CURVE('',#191,#192,#26,.T.);
#156=EDGE_CURVE('',#192,#193,#204,.F.);
#157=EDGE_CURVE('',#193,#194,#43,.T.);
#158=EDGE_CURVE('',#194,#191,#205,.T.);
#159=EDGE_CURVE('',#194,#195,#44,.T.);
#160=EDGE_CURVE('',#195,#170,#45,.T.);
#161=EDGE_CURVE('',#191,#171,#27,.T.);
#162=EDGE_CURVE('',#189,#192,#28,.T.);
#163=EDGE_CURVE('',#186,#190,#29,.T.);
#164=EDGE_CURVE('',#172,#179,#46,.T.);
#165=EDGE_CURVE('',#178,#173,#47,.T.);
#166=EDGE_CURVE('',#195,#188,#48,.T.);
#167=EDGE_CURVE('',#187,#182,#49,.T.);
#168=EDGE_CURVE('',#188,#193,#30,.T.);
#169=EDGE_CURVE('',#185,#187,#31,.T.);
#170=VERTEX_POINT('',#466);
#171=VERTEX_POINT('',#467);
#172=VERTEX_POINT('',#472);
#173=VERTEX_POINT('',#474);
#174=VERTEX_POINT('',#488);
#175=VERTEX_POINT('',#490);
#176=VERTEX_POINT('',#511);
#177=VERTEX_POINT('',#513);
#178=VERTEX_POINT('',#521);
#179=VERTEX_POINT('',#522);
#180=VERTEX_POINT('',#527);
#181=VERTEX_POINT('',#529);
#182=VERTEX_POINT('',#549);
#183=VERTEX_POINT('',#557);
#184=VERTEX_POINT('',#559);
#185=VERTEX_POINT('',#567);
#186=VERTEX_POINT('',#569);
#187=VERTEX_POINT('',#586);
#188=VERTEX_POINT('',#587);
#189=VERTEX_POINT('',#589);
#190=VERTEX_POINT('',#594);
#191=VERTEX_POINT('',#598);
#192=VERTEX_POINT('',#599);
#193=VERTEX_POINT('',#601);
#194=VERTEX_POINT('',#606);
#195=VERTEX_POINT('',#614);
#196=LINE('',#465,#206);
#197=LINE('',#489,#207);
#198=LINE('',#512,#208);
#199=LINE('',#528,#209);
#200=LINE('',#558,#210);
#201=LINE('',#568,#211);
#202=LINE('',#588,#212);
#203=LINE('',#595,#213);
#204=LINE('',#600,#214);
#205=LINE('',#607,#215);
#206=VECTOR('',#411,1.);
#207=VECTOR('',#414,1.);
#208=VECTOR('',#417,1.);
#209=VECTOR('',#422,1.);
#210=VECTOR('',#427,1.);
#211=VECTOR('',#432,1.);
#212=VECTOR('',#435,1.);
#213=VECTOR('',#436,1.);
#214=VECTOR('',#441,1.);
#215=VECTOR('',#442,1.);
#216=EDGE_LOOP('',(#50,#51,#52,#53,#54,#55));
#217=EDGE_LOOP('',(#56,#57,#58,#59));
#218=EDGE_LOOP('',(#60,#61,#62,#63,#64,#65));
#219=EDGE_LOOP('',(#66,#67,#68,#69,#70));
#220=EDGE_LOOP('',(#71,#72,#73,#74));
#221=EDGE_LOOP('',(#75,#76,#77,#78));
#222=EDGE_LOOP('',(#79,#80,#81,#82));
#223=EDGE_LOOP('',(#83,#84,#85,#86,#87));
#224=EDGE_LOOP('',(#88,#89,#90,#91,#92,#93,#94,#95,#96,#97));
#225=EDGE_LOOP('',(#98,#99,#100,#101));
#226=EDGE_LOOP('',(#102,#103,#104,#105));
#227=EDGE_LOOP('',(#106,#107,#108,#109,#110,#111,#112,#113));
#228=EDGE_LOOP('',(#114,#115,#116,#117));
#229=EDGE_LOOP('',(#118,#119,#120,#121));
#230=EDGE_LOOP('',(#122,#123,#124,#125));
#231=EDGE_LOOP('',(#126,#127,#128,#129));
#232=FACE_BOUND('',#216,.T.);
#233=FACE_BOUND('',#217,.T.);
#234=FACE_BOUND('',#218,.T.);
#235=FACE_BOUND('',#219,.T.);
#236=FACE_BOUND('',#220,.T.);
#237=FACE_BOUND('',#221,.T.);
#238=FACE_BOUND('',#222,.T.);
#239=FACE_BOUND('',#223,.T.);
#240=FACE_BOUND('',#224,.T.);
#241=FACE_BOUND('',#225,.T.);
#242=FACE_BOUND('',#226,.T.);
#243=FACE_BOUND('',#227,.T.);
#244=FACE_BOUND('',#228,.T.);
#245=FACE_BOUND('',#229,.T.);
#246=FACE_BOUND('',#230,.T.);
#247=FACE_BOUND('',#231,.T.);
#248=CYLINDRICAL_SURFACE('',#385,0.0199906660729857);
#249=CYLINDRICAL_SURFACE('',#388,0.0521781370254425);
#250=CYLINDRICAL_SURFACE('',#391,0.00624592122557009);
#251=CYLINDRICAL_SURFACE('',#393,0.00765028176975307);
#252=CYLINDRICAL_SURFACE('',#395,0.0076106948554971);
#253=CYLINDRICAL_SURFACE('',#397,0.0265194676445248);
#254=CYLINDRICAL_SURFACE('',#404,0.002);
#255=CYLINDRICAL_SURFACE('',#406,0.002);
#256=OVER_RIDING_STYLED_ITEM('',(#289),#270,#287);
#257=OVER_RIDING_STYLED_ITEM('',(#290),#271,#287);
#258=OVER_RIDING_STYLED_ITEM('',(#291),#272,#287);
#259=OVER_RIDING_STYLED_ITEM('',(#292),#273,#287);
#260=OVER_RIDING_STYLED_ITEM('',(#293),#274,#287);
#261=OVER_RIDING_STYLED_ITEM('',(#294),#275,#287);
#262=OVER_RIDING_STYLED_ITEM('',(#295),#276,#287);
#263=OVER_RIDING_STYLED_ITEM('',(#296),#277,#287);
#264=OVER_RIDING_STYLED_ITEM('',(#297),#278,#287);
#265=OVER_RIDING_STYLED_ITEM('',(#298),#279,#287);
#266=OVER_RIDING_STYLED_ITEM('',(#299),#282,#287);
#267=OVER_RIDING_STYLED_ITEM('',(#300),#283,#287);
#268=OVER_RIDING_STYLED_ITEM('',(#301),#284,#287);
#269=OVER_RIDING_STYLED_ITEM('',(#302),#285,#287);
#270=ADVANCED_FACE('Face appearance 14',(#232),#248,.F.);
#271=ADVANCED_FACE('Face appearance 14',(#233),#18,.F.);
#272=ADVANCED_FACE('Face appearance 14',(#234),#249,.T.);
#273=ADVANCED_FACE('Face appearance 14',(#235),#250,.F.);
#274=ADVANCED_FACE('Face appearance 14',(#236),#251,.T.);
#275=ADVANCED_FACE('Face appearance 14',(#237),#19,.T.);
#276=ADVANCED_FACE('Face appearance 14',(#238),#252,.T.);
#277=ADVANCED_FACE('Face appearance 14',(#239),#253,.F.);
#278=ADVANCED_FACE('Face appearance 14',(#240),#16,.T.);
#279=ADVANCED_FACE('Face appearance 14',(#241),#17,.F.);
#280=ADVANCED_FACE('',(#242),#12,.T.);
#281=ADVANCED_FACE('Face appearance 18',(#243),#13,.T.);
#282=ADVANCED_FACE('Face appearance 19',(#244),#14,.T.);
#283=ADVANCED_FACE('Face appearance 19',(#245),#254,.T.);
#284=ADVANCED_FACE('Face appearance 19',(#246),#15,.T.);
#285=ADVANCED_FACE('Face appearance 19',(#247),#255,.T.);
#286=CLOSED_SHELL('',(#270,#271,#272,#273,#274,#275,#276,#277,#278,#279,
#280,#281,#282,#283,#284,#285));
#287=STYLED_ITEM('',(#288),#381);
#288=PRESENTATION_STYLE_ASSIGNMENT((#303));
#289=PRESENTATION_STYLE_ASSIGNMENT((#304));
#290=PRESENTATION_STYLE_ASSIGNMENT((#305));
#291=PRESENTATION_STYLE_ASSIGNMENT((#306));
#292=PRESENTATION_STYLE_ASSIGNMENT((#307));
#293=PRESENTATION_STYLE_ASSIGNMENT((#308));
#294=PRESENTATION_STYLE_ASSIGNMENT((#309));
#295=PRESENTATION_STYLE_ASSIGNMENT((#310));
#296=PRESENTATION_STYLE_ASSIGNMENT((#311));
#297=PRESENTATION_STYLE_ASSIGNMENT((#312));
#298=PRESENTATION_STYLE_ASSIGNMENT((#313));
#299=PRESENTATION_STYLE_ASSIGNMENT((#314));
#300=PRESENTATION_STYLE_ASSIGNMENT((#315));
#301=PRESENTATION_STYLE_ASSIGNMENT((#316));
#302=PRESENTATION_STYLE_ASSIGNMENT((#317));
#303=SURFACE_STYLE_USAGE(.BOTH.,#318);
#304=SURFACE_STYLE_USAGE(.BOTH.,#319);
#305=SURFACE_STYLE_USAGE(.BOTH.,#320);
#306=SURFACE_STYLE_USAGE(.BOTH.,#321);
#307=SURFACE_STYLE_USAGE(.BOTH.,#322);
#308=SURFACE_STYLE_USAGE(.BOTH.,#323);
#309=SURFACE_STYLE_USAGE(.BOTH.,#324);
#310=SURFACE_STYLE_USAGE(.BOTH.,#325);
#311=SURFACE_STYLE_USAGE(.BOTH.,#326);
#312=SURFACE_STYLE_USAGE(.BOTH.,#327);
#313=SURFACE_STYLE_USAGE(.BOTH.,#328);
#314=SURFACE_STYLE_USAGE(.BOTH.,#329);
#315=SURFACE_STYLE_USAGE(.BOTH.,#330);
#316=SURFACE_STYLE_USAGE(.BOTH.,#331);
#317=SURFACE_STYLE_USAGE(.BOTH.,#332);
#318=SURFACE_SIDE_STYLE('',(#333));
#319=SURFACE_SIDE_STYLE('',(#334));
#320=SURFACE_SIDE_STYLE('',(#335));
#321=SURFACE_SIDE_STYLE('',(#336));
#322=SURFACE_SIDE_STYLE('',(#337));
#323=SURFACE_SIDE_STYLE('',(#338));
#324=SURFACE_SIDE_STYLE('',(#339));
#325=SURFACE_SIDE_STYLE('',(#340));
#326=SURFACE_SIDE_STYLE('',(#341));
#327=SURFACE_SIDE_STYLE('',(#342));
#328=SURFACE_SIDE_STYLE('',(#343));
#329=SURFACE_SIDE_STYLE('',(#344));
#330=SURFACE_SIDE_STYLE('',(#345));
#331=SURFACE_SIDE_STYLE('',(#346));
#332=SURFACE_SIDE_STYLE('',(#347));
#333=SURFACE_STYLE_FILL_AREA(#348);
#334=SURFACE_STYLE_FILL_AREA(#349);
#335=SURFACE_STYLE_FILL_AREA(#350);
#336=SURFACE_STYLE_FILL_AREA(#351);
#337=SURFACE_STYLE_FILL_AREA(#352);
#338=SURFACE_STYLE_FILL_AREA(#353);
#339=SURFACE_STYLE_FILL_AREA(#354);
#340=SURFACE_STYLE_FILL_AREA(#355);
#341=SURFACE_STYLE_FILL_AREA(#356);
#342=SURFACE_STYLE_FILL_AREA(#357);
#343=SURFACE_STYLE_FILL_AREA(#358);
#344=SURFACE_STYLE_FILL_AREA(#359);
#345=SURFACE_STYLE_FILL_AREA(#360);
#346=SURFACE_STYLE_FILL_AREA(#361);
#347=SURFACE_STYLE_FILL_AREA(#362);
#348=FILL_AREA_STYLE('',(#363));
#349=FILL_AREA_STYLE('',(#364));
#350=FILL_AREA_STYLE('',(#365));
#351=FILL_AREA_STYLE('',(#366));
#352=FILL_AREA_STYLE('',(#367));
#353=FILL_AREA_STYLE('',(#368));
#354=FILL_AREA_STYLE('',(#369));
#355=FILL_AREA_STYLE('',(#370));
#356=FILL_AREA_STYLE('',(#371));
#357=FILL_AREA_STYLE('',(#372));
#358=FILL_AREA_STYLE('',(#373));
#359=FILL_AREA_STYLE('',(#374));
#360=FILL_AREA_STYLE('',(#375));
#361=FILL_AREA_STYLE('',(#376));
#362=FILL_AREA_STYLE('',(#377));
#363=FILL_AREA_STYLE_COLOUR('',#378);
#364=FILL_AREA_STYLE_COLOUR('',#379);
#365=FILL_AREA_STYLE_COLOUR('',#379);
#366=FILL_AREA_STYLE_COLOUR('',#379);
#367=FILL_AREA_STYLE_COLOUR('',#379);
#368=FILL_AREA_STYLE_COLOUR('',#379);
#369=FILL_AREA_STYLE_COLOUR('',#379);
#370=FILL_AREA_STYLE_COLOUR('',#379);
#371=FILL_AREA_STYLE_COLOUR('',#379);
#372=FILL_AREA_STYLE_COLOUR('',#379);
#373=FILL_AREA_STYLE_COLOUR('',#379);
#374=FILL_AREA_STYLE_COLOUR('',#380);
#375=FILL_AREA_STYLE_COLOUR('',#380);
#376=FILL_AREA_STYLE_COLOUR('',#380);
#377=FILL_AREA_STYLE_COLOUR('',#380);
#378=COLOUR_RGB('',0.223529411764706,0.12156862745098,0.0941176470588235);
#379=COLOUR_RGB('',0.243137254901961,0.133333333333333,0.133333333333333);
#380=COLOUR_RGB('',0.450980392156863,0.215686274509804,0.145098039215686);
#381=MANIFOLD_SOLID_BREP('Part 20',#286);
#382=SHAPE_DEFINITION_REPRESENTATION(#802,#383);
#383=SHAPE_REPRESENTATION('Part 20',(#384),#797);
#384=AXIS2_PLACEMENT_3D('',#463,#407,#408);
#385=AXIS2_PLACEMENT_3D('',#464,#409,#410);
#386=AXIS2_PLACEMENT_3D('',#473,#412,#413);
#387=AXIS2_PLACEMENT_3D('',#491,#415,#416);
#388=AXIS2_PLACEMENT_3D('',#519,#418,#419);
#389=AXIS2_PLACEMENT_3D('',#520,#420,#421);
#390=AXIS2_PLACEMENT_3D('',#530,#423,#424);
#391=AXIS2_PLACEMENT_3D('',#539,#425,#426);
#392=AXIS2_PLACEMENT_3D('',#560,#428,#429);
#393=AXIS2_PLACEMENT_3D('',#561,#430,#431);
#394=AXIS2_PLACEMENT_3D('',#570,#433,#434);
#395=AXIS2_PLACEMENT_3D('',#596,#437,#438);
#396=AXIS2_PLACEMENT_3D('',#597,#439,#440);
#397=AXIS2_PLACEMENT_3D('',#608,#443,#444);
#398=AXIS2_PLACEMENT_3D('',#621,#445,#446);
#399=AXIS2_PLACEMENT_3D('',#622,#447,#448);
#400=AXIS2_PLACEMENT_3D('',#623,#449,#450);
#401=AXIS2_PLACEMENT_3D('',#624,#451,#452);
#402=AXIS2_PLACEMENT_3D('',#625,#453,#454);
#403=AXIS2_PLACEMENT_3D('',#777,#455,#456);
#404=AXIS2_PLACEMENT_3D('',#778,#457,#458);
#405=AXIS2_PLACEMENT_3D('',#794,#459,#460);
#406=AXIS2_PLACEMENT_3D('',#795,#461,#462);
#407=DIRECTION('',(0.,0.,1.));
#408=DIRECTION('',(1.,0.,0.));
#409=DIRECTION('',(1.,0.,0.));
#410=DIRECTION('',(0.,0.,-1.));
#411=DIRECTION('',(1.,0.,0.));
#412=DIRECTION('',(-1.,0.,0.));
#413=DIRECTION('',(0.,0.,1.));
#414=DIRECTION('',(1.,0.,0.));
#415=DIRECTION('',(-1.,0.,0.));
#416=DIRECTION('',(0.,0.,-1.));
#417=DIRECTION('',(1.,0.,0.));
#418=DIRECTION('',(1.,0.,0.));
#419=DIRECTION('',(0.,0.,-1.));
#420=DIRECTION('',(1.,0.,0.));
#421=DIRECTION('',(0.,0.,-1.));
#422=DIRECTION('',(1.,0.,0.));
#423=DIRECTION('',(1.,0.,0.));
#424=DIRECTION('',(0.,0.,-1.));
#425=DIRECTION('',(1.,0.,0.));
#426=DIRECTION('',(0.,0.,-1.));
#427=DIRECTION('',(1.,0.,0.));
#428=DIRECTION('',(1.,0.,0.));
#429=DIRECTION('',(0.,0.,-1.));
#430=DIRECTION('',(1.,0.,0.));
#431=DIRECTION('',(0.,0.,-1.));
#432=DIRECTION('',(1.,0.,0.));
#433=DIRECTION('',(-1.,0.,0.));
#434=DIRECTION('',(0.,0.,-1.));
#435=DIRECTION('',(1.,0.,0.));
#436=DIRECTION('',(1.,0.,0.));
#437=DIRECTION('',(1.,0.,0.));
#438=DIRECTION('',(0.,0.,-1.));
#439=DIRECTION('',(-1.,0.,0.));
#440=DIRECTION('',(0.,0.,-1.));
#441=DIRECTION('',(1.,0.,0.));
#442=DIRECTION('',(1.,0.,0.));
#443=DIRECTION('',(1.,0.,0.));
#444=DIRECTION('',(0.,0.,-1.));
#445=DIRECTION('',(-1.,0.,0.));
#446=DIRECTION('',(0.,0.,-1.));
#447=DIRECTION('',(1.,0.,0.));
#448=DIRECTION('',(0.,1.,0.));
#449=DIRECTION('',(1.,0.,0.));
#450=DIRECTION('',(0.,0.,-1.));
#451=DIRECTION('',(1.,0.,0.));
#452=DIRECTION('',(0.,0.,-1.));
#453=DIRECTION('',(1.,0.,0.));
#454=DIRECTION('',(0.,1.,0.));
#455=DIRECTION('',(1.,0.,0.));
#456=DIRECTION('',(0.,0.,-1.));
#457=DIRECTION('',(1.,0.,0.));
#458=DIRECTION('',(0.,0.,-1.));
#459=DIRECTION('',(1.,0.,0.));
#460=DIRECTION('',(0.,0.,-1.));
#461=DIRECTION('',(1.,0.,0.));
#462=DIRECTION('',(0.,0.,-1.));
#463=CARTESIAN_POINT('',(0.,0.,0.));
#464=CARTESIAN_POINT('',(-0.00564,-0.0830041301682941,0.00087216993911381));
#465=CARTESIAN_POINT('',(-0.00564,-0.101748503744602,-0.00607586498260498));
#466=CARTESIAN_POINT('',(-0.0806341193446815,-0.101748503744602,-0.00607586498260498));
#467=CARTESIAN_POINT('',(-0.00564,-0.101748503744602,-0.00607586498260498));
#468=CARTESIAN_POINT('',(-0.0806341193446815,-0.101748503744602,-0.00607586498260498));
#469=CARTESIAN_POINT('',(-0.0806380243928624,-0.101790443415105,-0.00596272035100251));
#470=CARTESIAN_POINT('',(-0.08064,-0.101831366182966,-0.00584917591152136));
#471=CARTESIAN_POINT('',(-0.08064,-0.101871270681287,-0.00573523037451964));
#472=CARTESIAN_POINT('',(-0.08064,-0.101871270681287,-0.00573523037451964));
#473=CARTESIAN_POINT('',(-0.08064,-0.0830041301682941,0.00087216993911381));
#474=CARTESIAN_POINT('',(-0.08064,-0.10291738061092,0.00262977821483247));
#475=CARTESIAN_POINT('',(-0.08064,-0.10291738061092,0.00262977821483247));
#476=CARTESIAN_POINT('',(-0.08064,-0.102806728786112,0.00388343497657166));
#477=CARTESIAN_POINT('',(-0.0804024017528199,-0.102357199404921,0.00631204801438459));
#478=CARTESIAN_POINT('',(-0.0794314271858686,-0.101047472570467,0.0097231519369956));
#479=CARTESIAN_POINT('',(-0.0779698962809352,-0.0992428481871734,0.0126898606943103));
#480=CARTESIAN_POINT('',(-0.0761601961745366,-0.0971205316225577,0.0151444136828925));
#481=CARTESIAN_POINT('',(-0.0740328020836579,-0.09474859258231,0.0171415852551192));
#482=CARTESIAN_POINT('',(-0.0720717769381189,-0.0926976714619663,0.018397557791623));
#483=CARTESIAN_POINT('',(-0.0703663410833062,-0.091065922926567,0.0191810943715425));
#484=CARTESIAN_POINT('',(-0.0689871868256303,-0.0898790581743134,0.0196569723522505));
#485=CARTESIAN_POINT('',(-0.0674761358474447,-0.0888115103496992,0.020008127262978));
#486=CARTESIAN_POINT('',(-0.0662727109297909,-0.088397927582264,0.0201214213401079));
#487=CARTESIAN_POINT('',(-0.06564,-0.088397927582264,0.0201214213401079));
#488=CARTESIAN_POINT('',(-0.06564,-0.088397927582264,0.0201214213401079));
#489=CARTESIAN_POINT('',(-0.00564,-0.088397927582264,0.0201214213401079));
#490=CARTESIAN_POINT('',(-0.00564,-0.088397927582264,0.0201214213401079));
#491=CARTESIAN_POINT('',(-0.00564,-0.0830041301682941,0.00087216993911381));
#492=CARTESIAN_POINT('',(-0.06564,-0.114548512494466,0.0130778313625279));
#493=CARTESIAN_POINT('',(-0.00564,-0.114548512494466,0.0130778313625279));
#494=CARTESIAN_POINT('',(-0.06564,-0.112618260406263,0.0145179401740365));
#495=CARTESIAN_POINT('',(-0.00564,-0.112618260406263,0.0145179401740365));
#496=CARTESIAN_POINT('',(-0.06564,-0.108531527995982,0.0168420887934627));
#497=CARTESIAN_POINT('',(-0.00564,-0.108531527995982,0.0168420887934627));
#498=CARTESIAN_POINT('',(-0.06564,-0.0997410361729674,0.0193673438959451));
#499=CARTESIAN_POINT('',(-0.00564000000000001,-0.0997410361729674,0.0193673438959451));
#500=CARTESIAN_POINT('',(-0.06564,-0.0928263693471825,0.019789339453996));
#501=CARTESIAN_POINT('',(-0.00564,-0.0928263693471825,0.019789339453996));
#502=CARTESIAN_POINT('',(-0.06564,-0.088397927582264,0.0201214213401079));
#503=CARTESIAN_POINT('',(-0.00564,-0.088397927582264,0.0201214213401079));
#504=CARTESIAN_POINT('',(-0.06564,-0.088397927582264,0.0201214213401079));
#505=CARTESIAN_POINT('',(-0.06564,-0.0906845709649895,0.0199499495476105));
#506=CARTESIAN_POINT('',(-0.06564,-0.0952586643786396,0.019640816812843));
#507=CARTESIAN_POINT('',(-0.06564,-0.102081189182167,0.0187102005653479));
#508=CARTESIAN_POINT('',(-0.06564,-0.108715035754509,0.0167664227675715));
#509=CARTESIAN_POINT('',(-0.06564,-0.112703848568887,0.0144540851636427));
#510=CARTESIAN_POINT('',(-0.06564,-0.114548512494466,0.0130778313625279));
#511=CARTESIAN_POINT('',(-0.06564,-0.114548512494466,0.0130778313625279));
#512=CARTESIAN_POINT('',(-0.00564,-0.114548512494466,0.0130778313625279));
#513=CARTESIAN_POINT('',(-0.00564,-0.114548512494466,0.0130778313625279));
#514=CARTESIAN_POINT('',(-0.00564,-0.114548512494466,0.0130778313625279));
#515=CARTESIAN_POINT('',(-0.00564,-0.113471024313877,0.0138817161155332));
#516=CARTESIAN_POINT('',(-0.00564,-0.105500657320392,0.0190744390777665));
#517=CARTESIAN_POINT('',(-0.00564,-0.0960188083927438,0.0195499434687206));
#518=CARTESIAN_POINT('',(-0.00564,-0.088397927582264,0.0201214213401079));
#519=CARTESIAN_POINT('',(-0.00564,-0.0632197633478214,0.0224542642923107));
#520=CARTESIAN_POINT('',(-0.08064,-0.0632197633478214,0.0224542642923107));
#521=CARTESIAN_POINT('',(-0.08064,-0.109414638667363,-0.00180664001189498));
#522=CARTESIAN_POINT('',(-0.08064,-0.106715520785293,-0.00636720458744064));
#523=CARTESIAN_POINT('',(-0.08064,-0.106715520785293,-0.00636720458744064));
#524=CARTESIAN_POINT('',(-0.08064,-0.106342510779766,-0.00693013053649018));
#525=CARTESIAN_POINT('',(-0.0805797147977493,-0.105961633702191,-0.00748121609239859));
#526=CARTESIAN_POINT('',(-0.0804642338551111,-0.105573116842112,-0.00802115910480543));
#527=CARTESIAN_POINT('',(-0.080464233855111,-0.105573116842112,-0.00802115910480543));
#528=CARTESIAN_POINT('',(-0.00564,-0.105573116842112,-0.00802115910480543));
#529=CARTESIAN_POINT('',(-0.00564,-0.105573116842112,-0.00802115910480543));
#530=CARTESIAN_POINT('',(-0.00564,-0.0632197633478214,0.0224542642923107));
#531=CARTESIAN_POINT('',(-0.06564,-0.114548512494466,0.0130778313625279));
#532=CARTESIAN_POINT('',(-0.0666542461103356,-0.114548512494466,0.0130778313625279));
#533=CARTESIAN_POINT('',(-0.0686395961681161,-0.114508836320668,0.0128563453908727));
#534=CARTESIAN_POINT('',(-0.0724835050095771,-0.114258252194854,0.0115579307708949));
#535=CARTESIAN_POINT('',(-0.0765704957015164,-0.113584302309833,0.00857316962529343));
#536=CARTESIAN_POINT('',(-0.0798366410058361,-0.11200007181265,0.00364322937952838));
#537=CARTESIAN_POINT('',(-0.0806399999999999,-0.1103569535384,-1.23904062959009E-5));
#538=CARTESIAN_POINT('',(-0.08064,-0.109414638667363,-0.00180664001189498));
#539=CARTESIAN_POINT('',(-0.00564,-0.111414294185958,-0.0102329862214147));
#540=CARTESIAN_POINT('',(-0.080464233855111,-0.105573116842112,-0.00802115910480543));
#541=CARTESIAN_POINT('',(-0.0803099073515717,-0.105281918712908,-0.0087901793876778));
#542=CARTESIAN_POINT('',(-0.0797917010970298,-0.105032962114341,-0.0103699104454327));
#543=CARTESIAN_POINT('',(-0.0787340296775229,-0.105402805734368,-0.0121588446174957));
#544=CARTESIAN_POINT('',(-0.0778346291704426,-0.105996498472147,-0.01339770652946));
#545=CARTESIAN_POINT('',(-0.0771815532487391,-0.106607513961401,-0.01427191527856));
#546=CARTESIAN_POINT('',(-0.0766852465478786,-0.107432362321769,-0.0150976421331546));
#547=CARTESIAN_POINT('',(-0.0767032838735799,-0.108140106339211,-0.0155672047277583));
#548=CARTESIAN_POINT('',(-0.0768109740751486,-0.108496713502277,-0.015755599272339));
#549=CARTESIAN_POINT('',(-0.0768109740751486,-0.108496713502277,-0.0157555992723391));
#550=CARTESIAN_POINT('',(-0.0768109740751434,-0.108496713502276,-0.0157555992723429));
#551=CARTESIAN_POINT('',(-0.0768824214043093,-0.108733305401922,-0.0158805900964252));
#552=CARTESIAN_POINT('',(-0.0769128542087533,-0.10924677552129,-0.0161109521979062));
#553=CARTESIAN_POINT('',(-0.0765153098003286,-0.109982300810174,-0.0163224294125914));
#554=CARTESIAN_POINT('',(-0.0757640045555535,-0.110380466644506,-0.0163934340929215));
#555=CARTESIAN_POINT('',(-0.0752112598754981,-0.110431492089634,-0.0164011003574767));
#556=CARTESIAN_POINT('',(-0.0749352520218987,-0.110431492089634,-0.0164011003574767));
#557=CARTESIAN_POINT('',(-0.0749352520218981,-0.110431492089631,-0.0164011003574762));
#558=CARTESIAN_POINT('',(-0.00564,-0.110431492089631,-0.0164011003574762));
#559=CARTESIAN_POINT('',(-0.00564,-0.110431492089631,-0.0164011003574762));
#560=CARTESIAN_POINT('',(-0.00564,-0.111414294185958,-0.0102329862214147));
#561=CARTESIAN_POINT('',(-0.00564,-0.105582519253996,-0.0104838143583129));
#562=CARTESIAN_POINT('',(-0.0749352520218981,-0.110431492089631,-0.0164011003574762));
#563=CARTESIAN_POINT('',(-0.0743364760096498,-0.110024621534475,-0.0167345140660324));
#564=CARTESIAN_POINT('',(-0.0730058378857123,-0.109265036465312,-0.0172120813383254));
#565=CARTESIAN_POINT('',(-0.0714394261695751,-0.108915868814692,-0.0173697124016206));
#566=CARTESIAN_POINT('',(-0.07064,-0.108915868814692,-0.0173697124016206));
#567=CARTESIAN_POINT('',(-0.07064,-0.108915868814692,-0.0173697124016206));
#568=CARTESIAN_POINT('',(-0.00564,-0.108915868814692,-0.0173697124016206));
#569=CARTESIAN_POINT('',(-0.00564,-0.108915868814692,-0.0173697124016206));
#570=CARTESIAN_POINT('',(-0.00564,-0.105582519253996,-0.0104838143583129));
#571=CARTESIAN_POINT('',(-0.07064,-0.106870909440932,-0.0171890602494163));
#572=CARTESIAN_POINT('',(-0.00564000000000001,-0.106870909440932,-0.0171890602494163));
#573=CARTESIAN_POINT('',(-0.07064,-0.104469820943322,-0.0154491929635885));
#574=CARTESIAN_POINT('',(-0.00564000000000001,-0.104469820943322,-0.0154491929635885));
#575=CARTESIAN_POINT('',(-0.07064,-0.0996427743199863,-0.015242751447389));
#576=CARTESIAN_POINT('',(-0.00564000000000001,-0.0996427743199863,-0.015242751447389));
#577=CARTESIAN_POINT('',(-0.07064,-0.0967416393843043,-0.0166909047782331));
#578=CARTESIAN_POINT('',(-0.00564000000000001,-0.0967416393843043,-0.0166909047782331));
#579=CARTESIAN_POINT('',(-0.07064,-0.106870909438757,-0.0171890602478401));
#580=CARTESIAN_POINT('',(-0.07064,-0.10615347847408,-0.016669198249793));
#581=CARTESIAN_POINT('',(-0.07064,-0.104491221576336,-0.0160100718099843));
#582=CARTESIAN_POINT('',(-0.07064,-0.101890972968666,-0.0156537283498617));
#583=CARTESIAN_POINT('',(-0.07064,-0.0992240530135803,-0.0158126370131643));
#584=CARTESIAN_POINT('',(-0.07064,-0.0975321208713114,-0.0162963218282183));
#585=CARTESIAN_POINT('',(-0.07064,-0.0967416394202225,-0.0166909047603038));
#586=CARTESIAN_POINT('',(-0.07064,-0.106870909438757,-0.0171890602478401));
#587=CARTESIAN_POINT('',(-0.07064,-0.0967416394202225,-0.0166909047603038));
#588=CARTESIAN_POINT('',(-0.07064,-0.0967416394202229,-0.0166909047603036));
#589=CARTESIAN_POINT('',(-0.00564,-0.0967416394202229,-0.0166909047603036));
#590=CARTESIAN_POINT('',(-0.00564,-0.107606276489432,-0.017861565899849));
#591=CARTESIAN_POINT('',(-0.00564,-0.105299015000218,-0.0151359220164842));
#592=CARTESIAN_POINT('',(-0.00564,-0.0980321128786735,-0.014978050943818));
#593=CARTESIAN_POINT('',(-0.00564,-0.0953678041696532,-0.0176541938900964));
#594=CARTESIAN_POINT('',(-0.00564,-0.106870909438758,-0.017189060247841));
#595=CARTESIAN_POINT('',(-0.00564,-0.106870909438758,-0.0171890602478411));
#596=CARTESIAN_POINT('',(-0.00564,-0.100867123519654,-0.0123929998364403));
#597=CARTESIAN_POINT('',(-0.00564,-0.100867123519654,-0.0123929998364403));
#598=CARTESIAN_POINT('',(-0.00564,-0.0937205597186584,-0.0150101169568194));
#599=CARTESIAN_POINT('',(-0.00564,-0.0940594203429444,-0.0157956243589671));
#600=CARTESIAN_POINT('',(-0.00564,-0.0940594203429444,-0.0157956243589671));
#601=CARTESIAN_POINT('',(-0.07064,-0.0940594203429444,-0.0157956243589671));
#602=CARTESIAN_POINT('',(-0.07064,-0.0940594203429444,-0.0157956243589671));
#603=CARTESIAN_POINT('',(-0.071736118870847,-0.0940594203429444,-0.0157956243589671));
#604=CARTESIAN_POINT('',(-0.0728021523501507,-0.0939085283609997,-0.0155234030778797));
#605=CARTESIAN_POINT('',(-0.0737511955530323,-0.093720559718658,-0.0150101169568186));
#606=CARTESIAN_POINT('',(-0.0737511955530327,-0.0937205597186584,-0.0150101169568194));
#607=CARTESIAN_POINT('',(-0.00564,-0.0937205597186584,-0.0150101169568194));
#608=CARTESIAN_POINT('',(-0.00564,-0.0785210989415642,0.00672139371857023));
#609=CARTESIAN_POINT('',(-0.0737511955530327,-0.0937205597186584,-0.0150101169568194));
#610=CARTESIAN_POINT('',(-0.0746698969372204,-0.0937205597186584,-0.0150101169568194));
#611=CARTESIAN_POINT('',(-0.0765309475018215,-0.093950778509107,-0.0148587937458027));
#612=CARTESIAN_POINT('',(-0.0778980697440766,-0.0950997576000169,-0.013996655291786));
#613=CARTESIAN_POINT('',(-0.0781352202978638,-0.0957818919269524,-0.0134118422276101));
#614=CARTESIAN_POINT('',(-0.0781352202978617,-0.0957818919269534,-0.0134118422276093));
#615=CARTESIAN_POINT('',(-0.0781352202978617,-0.0957818919269534,-0.0134118422276093));
#616=CARTESIAN_POINT('',(-0.0783446612584099,-0.0963843230255743,-0.01289536099682));
#617=CARTESIAN_POINT('',(-0.0789035211045928,-0.0975172508225407,-0.0118307325160922));
#618=CARTESIAN_POINT('',(-0.0800222127509708,-0.0995658083263383,-0.00954576947980026));
#619=CARTESIAN_POINT('',(-0.080583801321044,-0.100947612871062,-0.00752950571591762));
#620=CARTESIAN_POINT('',(-0.0806341193446815,-0.101748503744602,-0.00607586498260499));
#621=CARTESIAN_POINT('',(-0.00564,-0.0785210989415642,0.00672139371857023));
#622=CARTESIAN_POINT('',(-0.00564,-0.0785833531866038,-0.024257448981059));
#623=CARTESIAN_POINT('',(-0.00564,-0.0958484036896602,-0.0149014551439002));
#624=CARTESIAN_POINT('',(-0.00564,-0.108044436974397,-0.0155695439240274));
#625=CARTESIAN_POINT('',(-0.08064,-0.0785833531866038,-0.024257448981059));
#626=CARTESIAN_POINT('',(-0.08064,-0.101871270681287,-0.00573523037451964));
#627=CARTESIAN_POINT('',(-0.08064,-0.103508920575858,-0.00577035494041369));
#628=CARTESIAN_POINT('',(-0.08064,-0.105124705510738,-0.00597308022654315));
#629=CARTESIAN_POINT('',(-0.08064,-0.106715520785293,-0.00636720458744064));
#630=CARTESIAN_POINT('',(-0.08064,-0.109414638667363,-0.00180664001189498));
#631=CARTESIAN_POINT('',(-0.08064,-0.108362631575813,-0.00102176600939011));
#632=CARTESIAN_POINT('',(-0.08064,-0.106780494137313,0.000149466141677805));
#633=CARTESIAN_POINT('',(-0.08064,-0.104687484757345,0.00173542442052499));
#634=CARTESIAN_POINT('',(-0.08064,-0.103526299560153,0.00235947710090303));
#635=CARTESIAN_POINT('',(-0.08064,-0.10291738061092,0.00262977821483248));
#636=CARTESIAN_POINT('',(-0.08064,-0.0871334730740161,0.00517412543689293));
#637=CARTESIAN_POINT('',(-0.08064,-0.0882551501706638,0.0201321279937471));
#638=CARTESIAN_POINT('',(-0.06564,-0.0882551501706638,0.0201321279937471));
#639=CARTESIAN_POINT('',(-0.08064,-0.0876351770342296,0.00513650344563127));
#640=CARTESIAN_POINT('',(-0.08064,-0.0887568541308797,0.0200945060024862));
#641=CARTESIAN_POINT('',(-0.06564,-0.0887568541308773,0.0200945060024866));
#642=CARTESIAN_POINT('',(-0.08064,-0.0886386755763506,0.0050626024748962));
#643=CARTESIAN_POINT('',(-0.08064,-0.0897228209213805,0.0200233878069689));
#644=CARTESIAN_POINT('',(-0.06564,-0.0897228209213816,0.0200233878069687));
#645=CARTESIAN_POINT('',(-0.08064,-0.0906457428267192,0.00491469408697547));
#646=CARTESIAN_POINT('',(-0.08064,-0.0917879891356593,0.0198711952509042));
#647=CARTESIAN_POINT('',(-0.06564,-0.0917879891356587,0.0198711952509044));
#648=CARTESIAN_POINT('',(-0.08064,-0.0931524328898005,0.00471233538695855));
#649=CARTESIAN_POINT('',(-0.08064,-0.0945213658603976,0.0196514512146309));
#650=CARTESIAN_POINT('',(-0.06564,-0.0945213658603979,0.0196514512146309));
#651=CARTESIAN_POINT('',(-0.08064,-0.095650779707756,0.00443635856956419));
#652=CARTESIAN_POINT('',(-0.08064,-0.0975403974189826,0.0193220002205295));
#653=CARTESIAN_POINT('',(-0.06564,-0.0975403974189825,0.0193220002205295));
#654=CARTESIAN_POINT('',(-0.08064,-0.0976383610075793,0.00412925750978088));
#655=CARTESIAN_POINT('',(-0.08064,-0.100190154621197,0.0189143727814926));
#656=CARTESIAN_POINT('',(-0.06564,-0.100190154621197,0.0189143727814926));
#657=CARTESIAN_POINT('',(-0.08064,-0.099124447396482,0.00384022803201871));
#658=CARTESIAN_POINT('',(-0.08064,-0.102331541998117,0.0184998271132728));
#659=CARTESIAN_POINT('',(-0.06564,-0.102331541998117,0.0184998271132728));
#660=CARTESIAN_POINT('',(-0.08064,-0.100590866432895,0.00347609458975986));
#661=CARTESIAN_POINT('',(-0.08064,-0.104649351686573,0.0179282827250417));
#662=CARTESIAN_POINT('',(-0.06564,-0.104649351686574,0.0179282827250417));
#663=CARTESIAN_POINT('',(-0.08064,-0.102024666517134,0.0030162766369225));
#664=CARTESIAN_POINT('',(-0.08064,-0.107188954226929,0.0171191561714093));
#665=CARTESIAN_POINT('',(-0.06564,-0.107188954226929,0.0171191561714093));
#666=CARTESIAN_POINT('',(-0.08064,-0.103192881088661,0.00252282389245055));
#667=CARTESIAN_POINT('',(-0.08064,-0.109529216112189,0.0161426985710646));
#668=CARTESIAN_POINT('',(-0.06564,-0.109529216112189,0.0161426985710646));
#669=CARTESIAN_POINT('',(-0.08064,-0.104078674406434,0.00205342720045148));
#670=CARTESIAN_POINT('',(-0.08064,-0.111527692278127,0.0150840950380398));
#671=CARTESIAN_POINT('',(-0.06564,-0.111527692278127,0.0150840950380398));
#672=CARTESIAN_POINT('',(-0.08064,-0.104610558254641,0.0017283819293415));
#673=CARTESIAN_POINT('',(-0.08064,-0.112658229945522,0.0143911406874837));
#674=CARTESIAN_POINT('',(-0.06564,-0.112658229945522,0.0143911406874837));
#675=CARTESIAN_POINT('',(-0.08064,-0.105025348034273,0.00145250249885787));
#676=CARTESIAN_POINT('',(-0.08064,-0.113486119550629,0.013840479402375));
#677=CARTESIAN_POINT('',(-0.06564,-0.113486119550629,0.013840479402375));
#678=CARTESIAN_POINT('',(-0.08064,-0.105280331194592,0.00127381440196714));
#679=CARTESIAN_POINT('',(-0.08064,-0.113988106557392,0.0134882801662946));
#680=CARTESIAN_POINT('',(-0.06564,-0.113988106557392,0.0134882801662946));
#681=CARTESIAN_POINT('',(-0.08064,-0.10545673234024,0.00114565922216831));
#682=CARTESIAN_POINT('',(-0.08064,-0.114312216609224,0.0132530209909192));
#683=CARTESIAN_POINT('',(-0.06564,-0.114312216609224,0.0132530209909192));
#684=CARTESIAN_POINT('',(-0.0806399999999999,-0.105556939070086,0.00107155360245663));
#685=CARTESIAN_POINT('',(-0.0806399999999999,-0.114519506461364,0.013099600690208));
#686=CARTESIAN_POINT('',(-0.06564,-0.114519506461364,0.013099600690208));
#687=CARTESIAN_POINT('',(-0.0806400000000001,-0.105656801460237,0.000996941104485127));
#688=CARTESIAN_POINT('',(-0.08064,-0.11463070180516,0.0130164379003927));
#689=CARTESIAN_POINT('',(-0.06564,-0.11463070180516,0.0130164379003927));
#690=CARTESIAN_POINT('',(-0.08064,-0.105781713930198,0.000903799844866529));
#691=CARTESIAN_POINT('',(-0.08064,-0.114750093294764,0.0129274620150271));
#692=CARTESIAN_POINT('',(-0.06564,-0.114750093294764,0.0129274620150271));
#693=CARTESIAN_POINT('',(-0.08064,-0.105981526669502,0.000754704329717426));
#694=CARTESIAN_POINT('',(-0.08064,-0.11495207457578,0.0127767304158437));
#695=CARTESIAN_POINT('',(-0.06564,-0.11495207457578,0.0127767304158437));
#696=CARTESIAN_POINT('',(-0.08064,-0.106231308759302,0.000568358732592956));
#697=CARTESIAN_POINT('',(-0.08064,-0.115200800205237,0.0125911818787391));
#698=CARTESIAN_POINT('',(-0.06564,-0.115200800205237,0.0125911818787391));
#699=CARTESIAN_POINT('',(-0.08064,-0.106630951067962,0.000270192477116518));
#700=CARTESIAN_POINT('',(-0.08064,-0.115600857636677,0.0122927024285711));
#701=CARTESIAN_POINT('',(-0.06564,-0.115600857636677,0.0122927024285711));
#702=CARTESIAN_POINT('',(-0.08064,-0.107130507053754,-0.000102510778897092));
#703=CARTESIAN_POINT('',(-0.08064,-0.11610021013091,0.0119201526993671));
#704=CARTESIAN_POINT('',(-0.06564,-0.11610021013091,0.0119201526993671));
#705=CARTESIAN_POINT('',(-0.08064,-0.107729972909394,-0.000549756639990809));
#706=CARTESIAN_POINT('',(-0.08064,-0.116699741103849,0.0114728577096943));
#707=CARTESIAN_POINT('',(-0.06564,-0.116699741103849,0.0114728577096943));
#708=CARTESIAN_POINT('',(-0.08064,-0.108529261182638,-0.00114608376921128));
#709=CARTESIAN_POINT('',(-0.08064,-0.117499007671328,0.0108765469566668));
#710=CARTESIAN_POINT('',(-0.06564,-0.117499007671326,0.0108765469566669));
#711=CARTESIAN_POINT('',(-0.08064,-0.109128727282783,-0.00159332927038091));
#712=CARTESIAN_POINT('',(-0.08064,-0.118098481911124,0.0104292953144247));
#713=CARTESIAN_POINT('',(-0.06564,-0.118098481911135,0.0104292953144244));
#714=CARTESIAN_POINT('',(-0.08064,-0.109528371372832,-0.00189149290354768));
#715=CARTESIAN_POINT('',(-0.08064,-0.118498126001183,0.010131131681258));
#716=CARTESIAN_POINT('',(-0.06564,-0.118498126001183,0.010131131681258));
#717=CARTESIAN_POINT('',(-0.07064,-0.0966891171145249,-0.0167174108392729));
#718=CARTESIAN_POINT('',(-0.08064,-0.0966891171145249,-0.0167174108392729));
#719=CARTESIAN_POINT('',(-0.08064,-0.0921443476276754,-0.00780982585166817));
#720=CARTESIAN_POINT('',(-0.0706400000000263,-0.0970261096990517,-0.0165454726969388));
#721=CARTESIAN_POINT('',(-0.0806400000000652,-0.0970261096987173,-0.0165454726961404));
#722=CARTESIAN_POINT('',(-0.08064,-0.0929897499621789,-0.00737849022743825));
#723=CARTESIAN_POINT('',(-0.070639999999988,-0.0977999329546404,-0.0162256958453187));
#724=CARTESIAN_POINT('',(-0.0806399999999705,-0.0977999329547911,-0.0162256958456814));
#725=CARTESIAN_POINT('',(-0.08064,-0.0947612930815424,-0.00665964533380946));
#726=CARTESIAN_POINT('',(-0.0706400000000071,-0.0996639140971692,-0.0157643204110422));
#727=CARTESIAN_POINT('',(-0.080640000000017,-0.0996639140970844,-0.0157643204108254));
#728=CARTESIAN_POINT('',(-0.08064,-0.098422361404859,-0.00577485225068606));
#729=CARTESIAN_POINT('',(-0.070639999999998,-0.101917961326637,-0.0156631694167987));
#730=CARTESIAN_POINT('',(-0.0806399999999991,-0.101917961326627,-0.0156631694168656));
#731=CARTESIAN_POINT('',(-0.08064,-0.102291525713205,-0.00561278091965654));
#732=CARTESIAN_POINT('',(-0.0706400000000018,-0.103975067654911,-0.0159620418622358));
#733=CARTESIAN_POINT('',(-0.0806399999999974,-0.103975067654948,-0.0159620418621729));
#734=CARTESIAN_POINT('',(-0.08064,-0.106017444348243,-0.00614260071825232));
#735=CARTESIAN_POINT('',(-0.070639999999991,-0.105798467785766,-0.0164857762589212));
#736=CARTESIAN_POINT('',(-0.0806400000000165,-0.10579846778555,-0.0164857762592315));
#737=CARTESIAN_POINT('',(-0.08064,-0.109686214713408,-0.007176149076902));
#738=CARTESIAN_POINT('',(-0.0706400000000397,-0.106720656100547,-0.0170412421714416));
#739=CARTESIAN_POINT('',(-0.0806399999999251,-0.106720656101512,-0.0170412421700786));
#740=CARTESIAN_POINT('',(-0.08064,-0.112201562814317,-0.00857227323016618));
#741=CARTESIAN_POINT('',(-0.07064,-0.107160291471036,-0.0174163941080799));
#742=CARTESIAN_POINT('',(-0.08064,-0.107160291471036,-0.0174163941080799));
#743=CARTESIAN_POINT('',(-0.08064,-0.113651448339387,-0.00980949707246393));
#744=CARTESIAN_POINT('',(-0.0781352202978617,-0.0957818919269534,-0.0134118422276093));
#745=CARTESIAN_POINT('',(-0.0776749761534036,-0.0958262905978483,-0.0139598323158684));
#746=CARTESIAN_POINT('',(-0.0766244302144399,-0.0960242585978088,-0.0149312694965551));
#747=CARTESIAN_POINT('',(-0.0748007570403489,-0.096390682164076,-0.0159455348227523));
#748=CARTESIAN_POINT('',(-0.0727547062517075,-0.0966735376634629,-0.0165582377926141));
#749=CARTESIAN_POINT('',(-0.0713555118111755,-0.0967416394202229,-0.0166909047603036));
#750=CARTESIAN_POINT('',(-0.07064,-0.0967416394202229,-0.0166909047603036));
#751=CARTESIAN_POINT('',(-0.07064,-0.106870909438758,-0.0171890602478411));
#752=CARTESIAN_POINT('',(-0.0717618770425182,-0.106870909438758,-0.0171890602478411));
#753=CARTESIAN_POINT('',(-0.0739522920358229,-0.107187372391193,-0.0169574076314565));
#754=CARTESIAN_POINT('',(-0.075929354770412,-0.108016519889366,-0.0162552836306818));
#755=CARTESIAN_POINT('',(-0.0768109740751435,-0.108496713502276,-0.0157555992723429));
#756=CARTESIAN_POINT('',(-0.07064,-0.0967416394202228,-0.0166909047603036));
#757=CARTESIAN_POINT('',(-0.07064,-0.094953123166476,-0.017583674586229));
#758=CARTESIAN_POINT('',(-0.07064,-0.0940594203429444,-0.0157956243589672));
#759=CARTESIAN_POINT('',(-0.0713640896452763,-0.0967416394201822,-0.0166909047603239));
#760=CARTESIAN_POINT('',(-0.0713640141340392,-0.0949531231650074,-0.0175836745847031));
#761=CARTESIAN_POINT('',(-0.0712192717162242,-0.0940594203419687,-0.0157956243570152));
#762=CARTESIAN_POINT('',(-0.0727797726100576,-0.0966718761394688,-0.0165551551715845));
#763=CARTESIAN_POINT('',(-0.0728033344604349,-0.0948416948187207,-0.0174668076180145));
#764=CARTESIAN_POINT('',(-0.0723518180879619,-0.0939826443755829,-0.0156488478382347));
#765=CARTESIAN_POINT('',(-0.0748486272294149,-0.0963827016888074,-0.0159272438781158));
#766=CARTESIAN_POINT('',(-0.0749731058583749,-0.0943624252523956,-0.0168795257742917));
#767=CARTESIAN_POINT('',(-0.0740069017838214,-0.0936816170196378,-0.014961080814256));
#768=CARTESIAN_POINT('',(-0.0766824703470608,-0.0960115035864169,-0.0148908561210632));
#769=CARTESIAN_POINT('',(-0.0770273231912835,-0.0936892674655663,-0.0157483429122834));
#770=CARTESIAN_POINT('',(-0.0754739762765748,-0.0933426216341053,-0.0138049395337274));
#771=CARTESIAN_POINT('',(-0.0777222784587926,-0.0958195644281659,-0.0139094182735566));
#772=CARTESIAN_POINT('',(-0.0782404331191337,-0.0932959697958833,-0.0144870575774699));
#773=CARTESIAN_POINT('',(-0.0763058227693467,-0.0932377526402531,-0.0126920308492935));
#774=CARTESIAN_POINT('',(-0.0781671718885313,-0.095778889636131,-0.013373579745684));
#775=CARTESIAN_POINT('',(-0.0787627506001105,-0.0931948274629835,-0.0137380822977762));
#776=CARTESIAN_POINT('',(-0.0766617375108251,-0.0932628284340287,-0.0120809542721102));
#777=CARTESIAN_POINT('',(-0.07064,-0.0958484036896602,-0.0149014551439002));
#778=CARTESIAN_POINT('',(-0.07064,-0.0958484036896602,-0.0149014551439002));
#779=CARTESIAN_POINT('',(-0.07064,-0.108915868814692,-0.0173697124016206));
#780=CARTESIAN_POINT('',(-0.07064,-0.107839374453282,-0.0178908255496992));
#781=CARTESIAN_POINT('',(-0.07064,-0.106870909438758,-0.0171890602478411));
#782=CARTESIAN_POINT('',(-0.0715773840410658,-0.108915868819479,-0.017369712399303));
#783=CARTESIAN_POINT('',(-0.0717364580946423,-0.107839374457565,-0.0178908255485325));
#784=CARTESIAN_POINT('',(-0.0718117300513355,-0.106870909439841,-0.0171890602486252));
#785=CARTESIAN_POINT('',(-0.0733964182211478,-0.109383558484293,-0.0171653740704278));
#786=CARTESIAN_POINT('',(-0.0739688898083349,-0.10827822719852,-0.0177874859795043));
#787=CARTESIAN_POINT('',(-0.0740855227770976,-0.107215068142891,-0.0169374011539933));
#788=CARTESIAN_POINT('',(-0.0750217411465661,-0.110455630566585,-0.0164363056756759));
#789=CARTESIAN_POINT('',(-0.075990323376621,-0.109357647839811,-0.0173389921259652));
#790=CARTESIAN_POINT('',(-0.0761171764318785,-0.108102115135654,-0.0161797940476574));
#791=CARTESIAN_POINT('',(-0.0757403423383322,-0.111023501236582,-0.0158617810950814));
#792=CARTESIAN_POINT('',(-0.0769405450689308,-0.110007295145332,-0.0168898943772416));
#793=CARTESIAN_POINT('',(-0.0770154279229153,-0.108610213428805,-0.0156358076294807));
#794=CARTESIAN_POINT('',(-0.07064,-0.108044436974397,-0.0155695439240274));
#795=CARTESIAN_POINT('',(-0.07064,-0.108044436974397,-0.0155695439240274));
#796=MECHANICAL_DESIGN_GEOMETRIC_PRESENTATION_REPRESENTATION('',(#287,#256,
#257,#258,#259,#260,#261,#262,#263,#264,#265,#266,#267,#268,#269),#797);
#797=(
GEOMETRIC_REPRESENTATION_CONTEXT(3)
GLOBAL_UNCERTAINTY_ASSIGNED_CONTEXT((#798))
GLOBAL_UNIT_ASSIGNED_CONTEXT((#801,#800,#799))
REPRESENTATION_CONTEXT('Part 20','TOP_LEVEL_ASSEMBLY_PART')
);
#798=UNCERTAINTY_MEASURE_WITH_UNIT(LENGTH_MEASURE(2.E-5),#801,
'DISTANCE_ACCURACY_VALUE','Maximum Tolerance applied to model');
#799=(
NAMED_UNIT(*)
SI_UNIT($,.STERADIAN.)
SOLID_ANGLE_UNIT()
);
#800=(
NAMED_UNIT(*)
PLANE_ANGLE_UNIT()
SI_UNIT($,.RADIAN.)
);
#801=(
LENGTH_UNIT()
NAMED_UNIT(*)
SI_UNIT($,.METRE.)
);
#802=PRODUCT_DEFINITION_SHAPE('','',#803);
#803=PRODUCT_DEFINITION('','',#805,#804);
#804=PRODUCT_DEFINITION_CONTEXT('',#811,'design');
#805=PRODUCT_DEFINITION_FORMATION_WITH_SPECIFIED_SOURCE('','',#807,
 .NOT_KNOWN.);
#806=PRODUCT_RELATED_PRODUCT_CATEGORY('','',(#807));
#807=PRODUCT('Part 20','Part 20','Part 20',(#809));
#808=PRODUCT_CATEGORY('','');
#809=PRODUCT_CONTEXT('',#811,'mechanical');
#810=APPLICATION_PROTOCOL_DEFINITION('international standard',
'ap242_managed_model_based_3d_engineering',2020,#811);
#811=APPLICATION_CONTEXT('managed model based 3d engineering');
ENDSEC;
END-ISO-10303-21;
