M48
; DRILL file {KiCad 8.0.9-8.0.9-0~ubuntu24.04.1} date 2026-06-12T15:15:19+0200
; FORMAT={-:-/ absolute / inch / decimal}
; #@! TF.CreationDate,2026-06-12T15:15:19+02:00
; #@! TF.GenerationSoftware,Kicad,Pcbnew,8.0.9-8.0.9-0~ubuntu24.04.1
; #@! TF.FileFunction,Plated,1,2,PTH
FMAT,2
INCH
; #@! TA.AperFunction,Plated,PTH,ViaDrill
T1C0.0118
; #@! TA.AperFunction,Plated,PTH,ComponentDrill
T2C0.0300
; #@! TA.AperFunction,Plated,PTH,ComponentDrill
T3C0.0394
; #@! TA.AperFunction,Plated,PTH,ComponentDrill
T4C0.0591
%
G90
G05
T1
X5.0591Y-4.5866
T2
X5.522Y-3.222
X5.522Y-4.122
X5.622Y-3.222
X5.622Y-4.122
X5.722Y-3.222
X5.722Y-4.122
X5.822Y-3.222
X5.822Y-4.122
X5.922Y-3.222
X5.922Y-4.122
X6.022Y-3.222
X6.022Y-4.122
X6.122Y-3.222
X6.122Y-4.122
X6.222Y-3.222
X6.222Y-4.122
T3
X4.385Y-4.7441
X4.485Y-4.7441
X4.585Y-4.7441
X4.685Y-4.7441
X4.785Y-4.7441
X4.885Y-4.7441
X4.985Y-4.7441
X5.085Y-4.7441
X5.185Y-4.7441
X5.285Y-4.7441
X5.385Y-4.7441
X5.485Y-4.7441
T4
X3.9093Y-2.8156
X4.0093Y-2.5656
X4.6644Y-2.8156
X4.7644Y-2.5656
X5.4124Y-2.8156
X5.5124Y-2.5656
M30
