%TF.GenerationSoftware,KiCad,Pcbnew,8.0.9-8.0.9-0~ubuntu24.04.1*%
%TF.CreationDate,2026-06-12T15:15:47+02:00*%
%TF.ProjectId,pcb panda display,70636220-7061-46e6-9461-20646973706c,rev?*%
%TF.SameCoordinates,Original*%
%TF.FileFunction,Legend,Bot*%
%TF.FilePolarity,Positive*%
%FSLAX46Y46*%
G04 Gerber Fmt 4.6, Leading zero omitted, Abs format (unit mm)*
G04 Created by KiCad (PCBNEW 8.0.9-8.0.9-0~ubuntu24.04.1) date 2026-06-12 15:15:47*
%MOMM*%
%LPD*%
G01*
G04 APERTURE LIST*
%ADD10C,0.150000*%
%ADD11C,0.120000*%
G04 APERTURE END LIST*
D10*
X96908200Y-67641667D02*
X96955819Y-67784524D01*
X96955819Y-67784524D02*
X96955819Y-68022619D01*
X96955819Y-68022619D02*
X96908200Y-68117857D01*
X96908200Y-68117857D02*
X96860580Y-68165476D01*
X96860580Y-68165476D02*
X96765342Y-68213095D01*
X96765342Y-68213095D02*
X96670104Y-68213095D01*
X96670104Y-68213095D02*
X96574866Y-68165476D01*
X96574866Y-68165476D02*
X96527247Y-68117857D01*
X96527247Y-68117857D02*
X96479628Y-68022619D01*
X96479628Y-68022619D02*
X96432009Y-67832143D01*
X96432009Y-67832143D02*
X96384390Y-67736905D01*
X96384390Y-67736905D02*
X96336771Y-67689286D01*
X96336771Y-67689286D02*
X96241533Y-67641667D01*
X96241533Y-67641667D02*
X96146295Y-67641667D01*
X96146295Y-67641667D02*
X96051057Y-67689286D01*
X96051057Y-67689286D02*
X96003438Y-67736905D01*
X96003438Y-67736905D02*
X95955819Y-67832143D01*
X95955819Y-67832143D02*
X95955819Y-68070238D01*
X95955819Y-68070238D02*
X96003438Y-68213095D01*
X95955819Y-68546429D02*
X96955819Y-68784524D01*
X96955819Y-68784524D02*
X96241533Y-68975000D01*
X96241533Y-68975000D02*
X96955819Y-69165476D01*
X96955819Y-69165476D02*
X95955819Y-69403572D01*
X96955819Y-70308333D02*
X96955819Y-69736905D01*
X96955819Y-70022619D02*
X95955819Y-70022619D01*
X95955819Y-70022619D02*
X96098676Y-69927381D01*
X96098676Y-69927381D02*
X96193914Y-69832143D01*
X96193914Y-69832143D02*
X96241533Y-69736905D01*
X116088200Y-67641667D02*
X116135819Y-67784524D01*
X116135819Y-67784524D02*
X116135819Y-68022619D01*
X116135819Y-68022619D02*
X116088200Y-68117857D01*
X116088200Y-68117857D02*
X116040580Y-68165476D01*
X116040580Y-68165476D02*
X115945342Y-68213095D01*
X115945342Y-68213095D02*
X115850104Y-68213095D01*
X115850104Y-68213095D02*
X115754866Y-68165476D01*
X115754866Y-68165476D02*
X115707247Y-68117857D01*
X115707247Y-68117857D02*
X115659628Y-68022619D01*
X115659628Y-68022619D02*
X115612009Y-67832143D01*
X115612009Y-67832143D02*
X115564390Y-67736905D01*
X115564390Y-67736905D02*
X115516771Y-67689286D01*
X115516771Y-67689286D02*
X115421533Y-67641667D01*
X115421533Y-67641667D02*
X115326295Y-67641667D01*
X115326295Y-67641667D02*
X115231057Y-67689286D01*
X115231057Y-67689286D02*
X115183438Y-67736905D01*
X115183438Y-67736905D02*
X115135819Y-67832143D01*
X115135819Y-67832143D02*
X115135819Y-68070238D01*
X115135819Y-68070238D02*
X115183438Y-68213095D01*
X115135819Y-68546429D02*
X116135819Y-68784524D01*
X116135819Y-68784524D02*
X115421533Y-68975000D01*
X115421533Y-68975000D02*
X116135819Y-69165476D01*
X116135819Y-69165476D02*
X115135819Y-69403572D01*
X115231057Y-69736905D02*
X115183438Y-69784524D01*
X115183438Y-69784524D02*
X115135819Y-69879762D01*
X115135819Y-69879762D02*
X115135819Y-70117857D01*
X115135819Y-70117857D02*
X115183438Y-70213095D01*
X115183438Y-70213095D02*
X115231057Y-70260714D01*
X115231057Y-70260714D02*
X115326295Y-70308333D01*
X115326295Y-70308333D02*
X115421533Y-70308333D01*
X115421533Y-70308333D02*
X115564390Y-70260714D01*
X115564390Y-70260714D02*
X116135819Y-69689286D01*
X116135819Y-69689286D02*
X116135819Y-70308333D01*
X135088200Y-67641667D02*
X135135819Y-67784524D01*
X135135819Y-67784524D02*
X135135819Y-68022619D01*
X135135819Y-68022619D02*
X135088200Y-68117857D01*
X135088200Y-68117857D02*
X135040580Y-68165476D01*
X135040580Y-68165476D02*
X134945342Y-68213095D01*
X134945342Y-68213095D02*
X134850104Y-68213095D01*
X134850104Y-68213095D02*
X134754866Y-68165476D01*
X134754866Y-68165476D02*
X134707247Y-68117857D01*
X134707247Y-68117857D02*
X134659628Y-68022619D01*
X134659628Y-68022619D02*
X134612009Y-67832143D01*
X134612009Y-67832143D02*
X134564390Y-67736905D01*
X134564390Y-67736905D02*
X134516771Y-67689286D01*
X134516771Y-67689286D02*
X134421533Y-67641667D01*
X134421533Y-67641667D02*
X134326295Y-67641667D01*
X134326295Y-67641667D02*
X134231057Y-67689286D01*
X134231057Y-67689286D02*
X134183438Y-67736905D01*
X134183438Y-67736905D02*
X134135819Y-67832143D01*
X134135819Y-67832143D02*
X134135819Y-68070238D01*
X134135819Y-68070238D02*
X134183438Y-68213095D01*
X134135819Y-68546429D02*
X135135819Y-68784524D01*
X135135819Y-68784524D02*
X134421533Y-68975000D01*
X134421533Y-68975000D02*
X135135819Y-69165476D01*
X135135819Y-69165476D02*
X134135819Y-69403572D01*
X134135819Y-69689286D02*
X134135819Y-70308333D01*
X134135819Y-70308333D02*
X134516771Y-69975000D01*
X134516771Y-69975000D02*
X134516771Y-70117857D01*
X134516771Y-70117857D02*
X134564390Y-70213095D01*
X134564390Y-70213095D02*
X134612009Y-70260714D01*
X134612009Y-70260714D02*
X134707247Y-70308333D01*
X134707247Y-70308333D02*
X134945342Y-70308333D01*
X134945342Y-70308333D02*
X135040580Y-70260714D01*
X135040580Y-70260714D02*
X135088200Y-70213095D01*
X135088200Y-70213095D02*
X135135819Y-70117857D01*
X135135819Y-70117857D02*
X135135819Y-69832143D01*
X135135819Y-69832143D02*
X135088200Y-69736905D01*
X135088200Y-69736905D02*
X135040580Y-69689286D01*
D11*
%TO.C,SW1*%
X97390000Y-61990000D02*
X111360000Y-61990000D01*
X97390000Y-75960000D02*
X97390000Y-61990000D01*
X111360000Y-61990000D02*
X111360000Y-75960000D01*
X111360000Y-75960000D02*
X97390000Y-75960000D01*
%TO.C,SW2*%
X116570000Y-61990000D02*
X130540000Y-61990000D01*
X116570000Y-75960000D02*
X116570000Y-61990000D01*
X130540000Y-61990000D02*
X130540000Y-75960000D01*
X130540000Y-75960000D02*
X116570000Y-75960000D01*
%TO.C,SW3*%
X135570000Y-61990000D02*
X149540000Y-61990000D01*
X135570000Y-75960000D02*
X135570000Y-61990000D01*
X149540000Y-61990000D02*
X149540000Y-75960000D01*
X149540000Y-75960000D02*
X135570000Y-75960000D01*
%TD*%
M02*
