%TF.GenerationSoftware,KiCad,Pcbnew,8.0.9-8.0.9-0~ubuntu24.04.1*%
%TF.CreationDate,2026-06-12T15:15:46+02:00*%
%TF.ProjectId,pcb panda display,70636220-7061-46e6-9461-20646973706c,rev?*%
%TF.SameCoordinates,Original*%
%TF.FileFunction,Copper,L2,Bot*%
%TF.FilePolarity,Positive*%
%FSLAX46Y46*%
G04 Gerber Fmt 4.6, Leading zero omitted, Abs format (unit mm)*
G04 Created by KiCad (PCBNEW 8.0.9-8.0.9-0~ubuntu24.04.1) date 2026-06-12 15:15:46*
%MOMM*%
%LPD*%
G01*
G04 APERTURE LIST*
%TA.AperFunction,ComponentPad*%
%ADD10R,1.700000X1.700000*%
%TD*%
%TA.AperFunction,ComponentPad*%
%ADD11O,1.700000X1.700000*%
%TD*%
%TA.AperFunction,ComponentPad*%
%ADD12C,1.524000*%
%TD*%
%TA.AperFunction,ComponentPad*%
%ADD13C,2.200000*%
%TD*%
%TA.AperFunction,ViaPad*%
%ADD14C,0.600000*%
%TD*%
%TA.AperFunction,Conductor*%
%ADD15C,0.200000*%
%TD*%
G04 APERTURE END LIST*
D10*
%TO.P,J1,1,Pin_1*%
%TO.N,GND*%
X139320000Y-120500000D03*
D11*
%TO.P,J1,2,Pin_2*%
X136780000Y-120500000D03*
%TO.P,J1,3,Pin_3*%
%TO.N,+3.3V*%
X134240000Y-120500000D03*
%TO.P,J1,4,Pin_4*%
%TO.N,GND*%
X131700000Y-120500000D03*
%TO.P,J1,5,Pin_5*%
%TO.N,Net-(J1-Pin_5)*%
X129160000Y-120500000D03*
%TO.P,J1,6,Pin_6*%
%TO.N,Net-(J1-Pin_6)*%
X126620000Y-120500000D03*
%TO.P,J1,7,Pin_7*%
%TO.N,Net-(J1-Pin_7)*%
X124080000Y-120500000D03*
%TO.P,J1,8,Pin_8*%
%TO.N,Net-(J1-Pin_8)*%
X121540000Y-120500000D03*
%TO.P,J1,9,Pin_9*%
%TO.N,+3.3V*%
X119000000Y-120500000D03*
%TO.P,J1,10,Pin_10*%
X116460000Y-120500000D03*
%TO.P,J1,11,Pin_11*%
%TO.N,Net-(J1-Pin_11)*%
X113920000Y-120500000D03*
%TO.P,J1,12,Pin_12*%
%TO.N,GND*%
X111380000Y-120500000D03*
%TD*%
D12*
%TO.P,U2,1,5V*%
%TO.N,+5V*%
X158040000Y-81840000D03*
%TO.P,U2,2,GND*%
%TO.N,GND*%
X155500000Y-81840000D03*
%TO.P,U2,3,IO6*%
%TO.N,Net-(J1-Pin_6)*%
X152960000Y-81840000D03*
%TO.P,U2,4,RGB/IO7*%
%TO.N,Net-(U2-RGB{slash}IO7)*%
X150420000Y-81840000D03*
%TO.P,U2,5,SDA/IO8*%
%TO.N,Net-(J1-Pin_7)*%
X147880000Y-81840000D03*
%TO.P,U2,6,SCL/IO10*%
%TO.N,Net-(U2-SCL{slash}IO10)*%
X145340000Y-81840000D03*
%TO.P,U2,7,RX*%
%TO.N,unconnected-(U2-RX-Pad7)*%
X142800000Y-81840000D03*
%TO.P,U2,8,TX/IO21*%
%TO.N,Net-(U2-TX{slash}IO21)*%
X140260000Y-81840000D03*
%TO.P,U2,9,3V3*%
%TO.N,+3.3V*%
X158040000Y-104700000D03*
%TO.P,U2,10,IO5*%
%TO.N,Net-(J1-Pin_11)*%
X155500000Y-104700000D03*
%TO.P,U2,11,IO4/MOSI*%
%TO.N,unconnected-(U2-IO4{slash}MOSI-Pad11)*%
X152960000Y-104700000D03*
%TO.P,U2,12,IO0/ADC/MISO*%
%TO.N,unconnected-(U2-IO0{slash}ADC{slash}MISO-Pad12)*%
X150420000Y-104700000D03*
%TO.P,U2,13,IO1/ADC/SCK*%
%TO.N,Net-(J1-Pin_8)*%
X147880000Y-104700000D03*
%TO.P,U2,14,IO2*%
%TO.N,unconnected-(U2-IO2-Pad14)*%
X145340000Y-104700000D03*
%TO.P,U2,15,IO3/VBAT*%
%TO.N,unconnected-(U2-IO3{slash}VBAT-Pad15)*%
X142800000Y-104700000D03*
%TO.P,U2,16,RST/EN*%
%TO.N,Net-(J1-Pin_5)*%
X140260000Y-104700000D03*
%TD*%
D13*
%TO.P,SW1,1,1*%
%TO.N,Net-(U2-TX{slash}IO21)*%
X99295000Y-71515000D03*
%TO.P,SW1,2,2*%
%TO.N,GND*%
X101835000Y-65165000D03*
%TD*%
%TO.P,SW2,1,1*%
%TO.N,Net-(U2-SCL{slash}IO10)*%
X118475000Y-71515000D03*
%TO.P,SW2,2,2*%
%TO.N,GND*%
X121015000Y-65165000D03*
%TD*%
%TO.P,SW3,1,1*%
%TO.N,Net-(U2-RGB{slash}IO7)*%
X137475000Y-71515000D03*
%TO.P,SW3,2,2*%
%TO.N,GND*%
X140015000Y-65165000D03*
%TD*%
D14*
%TO.N,Net-(J1-Pin_8)*%
X128500000Y-116500000D03*
%TD*%
D15*
%TO.N,Net-(J1-Pin_8)*%
X118593654Y-116500000D02*
X115070000Y-120023654D01*
X115070000Y-121084314D02*
X115635686Y-121650000D01*
X115635686Y-121650000D02*
X120390000Y-121650000D01*
X128500000Y-116500000D02*
X118593654Y-116500000D01*
X115070000Y-120023654D02*
X115070000Y-121084314D01*
X120390000Y-121650000D02*
X121540000Y-120500000D01*
%TO.N,Net-(J1-Pin_11)*%
X113920000Y-120500000D02*
X115470000Y-122050000D01*
X115470000Y-122050000D02*
X140070000Y-122050000D01*
X140070000Y-122050000D02*
X155500000Y-106620000D01*
X155500000Y-106620000D02*
X155500000Y-104700000D01*
%TO.N,GND*%
X155500000Y-81840000D02*
X141500000Y-95840000D01*
X141500000Y-95840000D02*
X141500000Y-118320000D01*
X141500000Y-118320000D02*
X139320000Y-120500000D01*
%TO.N,Net-(J1-Pin_5)*%
X140260000Y-104700000D02*
X140260000Y-115020000D01*
X140260000Y-115020000D02*
X135390000Y-119890000D01*
%TO.N,+3.3V*%
X120150000Y-119350000D02*
X119000000Y-120500000D01*
X133090000Y-119350000D02*
X120150000Y-119350000D01*
X134240000Y-120500000D02*
X133090000Y-119350000D01*
%TO.N,Net-(J1-Pin_5)*%
X129160000Y-120500000D02*
X130310000Y-121650000D01*
X134716346Y-121650000D02*
X135390000Y-120976346D01*
X135390000Y-120976346D02*
X135390000Y-119890000D01*
X130310000Y-121650000D02*
X134716346Y-121650000D01*
%TO.N,+3.3V*%
X119000000Y-120500000D02*
X116460000Y-120500000D01*
%TD*%
%TA.AperFunction,NonConductor*%
G36*
X124785289Y-48220767D02*
G01*
X124789074Y-48220883D01*
X126071313Y-48280165D01*
X126075051Y-48280395D01*
X127354891Y-48379138D01*
X127358597Y-48379482D01*
X128634728Y-48517584D01*
X128638467Y-48518046D01*
X129909784Y-48695388D01*
X129913461Y-48695959D01*
X131178694Y-48912363D01*
X131182412Y-48913058D01*
X132440352Y-49168317D01*
X132444018Y-49169119D01*
X133693496Y-49462994D01*
X133697165Y-49463916D01*
X134937000Y-49796129D01*
X134940673Y-49797174D01*
X136169668Y-50167404D01*
X136173307Y-50168562D01*
X137390287Y-50576452D01*
X137393890Y-50577721D01*
X137921330Y-50772766D01*
X138597771Y-51022910D01*
X138601332Y-51024290D01*
X139790910Y-51506332D01*
X139794427Y-51507821D01*
X140968576Y-52026259D01*
X140972046Y-52027855D01*
X142129728Y-52582230D01*
X142133107Y-52583912D01*
X143273186Y-53173687D01*
X143276487Y-53175460D01*
X144397860Y-53800060D01*
X144401122Y-53801943D01*
X145376474Y-54385271D01*
X145502725Y-54460778D01*
X145505972Y-54462789D01*
X146586691Y-55155189D01*
X146589875Y-55157298D01*
X147648819Y-55882691D01*
X147651936Y-55884898D01*
X148687983Y-56642517D01*
X148691031Y-56644818D01*
X149703337Y-57434045D01*
X149706276Y-57436411D01*
X150057405Y-57727985D01*
X150693732Y-58256384D01*
X150696631Y-58258867D01*
X151658414Y-59108901D01*
X151661204Y-59111446D01*
X152596333Y-59990674D01*
X152599075Y-59993333D01*
X153506666Y-60900924D01*
X153509325Y-60903666D01*
X154388539Y-61838779D01*
X154391112Y-61841601D01*
X155241131Y-62803367D01*
X155243615Y-62806267D01*
X155366098Y-62953768D01*
X155934382Y-63638127D01*
X156063573Y-63793705D01*
X156065960Y-63796670D01*
X156210146Y-63981611D01*
X156855181Y-64808968D01*
X156857482Y-64812016D01*
X157615101Y-65848063D01*
X157617308Y-65851180D01*
X158342701Y-66910124D01*
X158344810Y-66913308D01*
X159037210Y-67994027D01*
X159039221Y-67997274D01*
X159698043Y-69098854D01*
X159699951Y-69102159D01*
X160247129Y-70084534D01*
X160324522Y-70223480D01*
X160326329Y-70226845D01*
X160916077Y-71366873D01*
X160917779Y-71370291D01*
X161472144Y-72527953D01*
X161473740Y-72531423D01*
X161992178Y-73705572D01*
X161993667Y-73709089D01*
X162475709Y-74898667D01*
X162477089Y-74902228D01*
X162922278Y-76106110D01*
X162923547Y-76109712D01*
X163331437Y-77326692D01*
X163332595Y-77330331D01*
X163702825Y-78559326D01*
X163703870Y-78562999D01*
X164036078Y-79802817D01*
X164037009Y-79806521D01*
X164330872Y-81055948D01*
X164331689Y-81059679D01*
X164586937Y-82317569D01*
X164587639Y-82321323D01*
X164804032Y-83586490D01*
X164804618Y-83590264D01*
X164981949Y-84861507D01*
X164982418Y-84865297D01*
X165120512Y-86141351D01*
X165120865Y-86145154D01*
X165219601Y-87424914D01*
X165219836Y-87428725D01*
X165279115Y-88710909D01*
X165279232Y-88714727D01*
X165298997Y-89998091D01*
X165298997Y-90001909D01*
X165279232Y-91285272D01*
X165279115Y-91289090D01*
X165219836Y-92571274D01*
X165219601Y-92575085D01*
X165120865Y-93854845D01*
X165120512Y-93858648D01*
X164982418Y-95134702D01*
X164981949Y-95138492D01*
X164804618Y-96409735D01*
X164804032Y-96413509D01*
X164587639Y-97678676D01*
X164586937Y-97682430D01*
X164331689Y-98940320D01*
X164330872Y-98944051D01*
X164037009Y-100193478D01*
X164036078Y-100197182D01*
X163703870Y-101437000D01*
X163702825Y-101440673D01*
X163332595Y-102669668D01*
X163331437Y-102673307D01*
X162923547Y-103890287D01*
X162922278Y-103893889D01*
X162477089Y-105097771D01*
X162475709Y-105101332D01*
X161993667Y-106290910D01*
X161992178Y-106294427D01*
X161473740Y-107468576D01*
X161472144Y-107472046D01*
X160917779Y-108629708D01*
X160916077Y-108633126D01*
X160326329Y-109773154D01*
X160324522Y-109776519D01*
X159699952Y-110897838D01*
X159698043Y-110901145D01*
X159039221Y-112002725D01*
X159037210Y-112005972D01*
X158344810Y-113086691D01*
X158342701Y-113089875D01*
X157617308Y-114148819D01*
X157615101Y-114151936D01*
X156857482Y-115187983D01*
X156855181Y-115191031D01*
X156065968Y-116203319D01*
X156063573Y-116206294D01*
X155243615Y-117193732D01*
X155241131Y-117196632D01*
X154391112Y-118158398D01*
X154388539Y-118161220D01*
X153509325Y-119096333D01*
X153506666Y-119099075D01*
X152599075Y-120006666D01*
X152596333Y-120009325D01*
X151661220Y-120888539D01*
X151658398Y-120891112D01*
X150696632Y-121741131D01*
X150693732Y-121743615D01*
X149706294Y-122563573D01*
X149703319Y-122565968D01*
X148691031Y-123355181D01*
X148687983Y-123357482D01*
X147651936Y-124115101D01*
X147648819Y-124117308D01*
X146589875Y-124842701D01*
X146586691Y-124844810D01*
X145505972Y-125537210D01*
X145502725Y-125539221D01*
X144401144Y-126198043D01*
X144397837Y-126199952D01*
X143276519Y-126824522D01*
X143273154Y-126826329D01*
X142133126Y-127416077D01*
X142129708Y-127417779D01*
X140972046Y-127972144D01*
X140968576Y-127973740D01*
X139794427Y-128492178D01*
X139790910Y-128493667D01*
X138601332Y-128975709D01*
X138597771Y-128977089D01*
X137393889Y-129422278D01*
X137390287Y-129423547D01*
X136173307Y-129831437D01*
X136169668Y-129832595D01*
X134940673Y-130202825D01*
X134937000Y-130203870D01*
X133697182Y-130536078D01*
X133693478Y-130537009D01*
X132444051Y-130830872D01*
X132440320Y-130831689D01*
X131182430Y-131086937D01*
X131178676Y-131087639D01*
X129913509Y-131304032D01*
X129909735Y-131304618D01*
X128638492Y-131481949D01*
X128634702Y-131482418D01*
X127358648Y-131620512D01*
X127354845Y-131620865D01*
X126075085Y-131719601D01*
X126071274Y-131719836D01*
X124789090Y-131779115D01*
X124785272Y-131779232D01*
X123501909Y-131798997D01*
X123498091Y-131798997D01*
X122214727Y-131779232D01*
X122210909Y-131779115D01*
X120928725Y-131719836D01*
X120924914Y-131719601D01*
X119645154Y-131620865D01*
X119641351Y-131620512D01*
X118365297Y-131482418D01*
X118361507Y-131481949D01*
X117090264Y-131304618D01*
X117086490Y-131304032D01*
X115821323Y-131087639D01*
X115817569Y-131086937D01*
X114559679Y-130831689D01*
X114555948Y-130830872D01*
X113306521Y-130537009D01*
X113302817Y-130536078D01*
X112062999Y-130203870D01*
X112059326Y-130202825D01*
X110830331Y-129832595D01*
X110826692Y-129831437D01*
X109609712Y-129423547D01*
X109606110Y-129422278D01*
X108402228Y-128977089D01*
X108398667Y-128975709D01*
X107209089Y-128493667D01*
X107205572Y-128492178D01*
X106031423Y-127973740D01*
X106027953Y-127972144D01*
X104870291Y-127417779D01*
X104866873Y-127416077D01*
X104366519Y-127157238D01*
X103726836Y-126826324D01*
X103723480Y-126824522D01*
X102602161Y-126199952D01*
X102598854Y-126198043D01*
X101497274Y-125539221D01*
X101494027Y-125537210D01*
X100413308Y-124844810D01*
X100410124Y-124842701D01*
X99351180Y-124117308D01*
X99348063Y-124115101D01*
X98312016Y-123357482D01*
X98308968Y-123355181D01*
X97405107Y-122650501D01*
X97296670Y-122565960D01*
X97293705Y-122563573D01*
X97253898Y-122530518D01*
X96374978Y-121800672D01*
X96306267Y-121743615D01*
X96303367Y-121741131D01*
X95885024Y-121371395D01*
X95341588Y-120891101D01*
X95338779Y-120888539D01*
X95175917Y-120735413D01*
X94925536Y-120499999D01*
X110024341Y-120499999D01*
X110024341Y-120500000D01*
X110044936Y-120735403D01*
X110044938Y-120735413D01*
X110106094Y-120963655D01*
X110106096Y-120963659D01*
X110106097Y-120963663D01*
X110110000Y-120972032D01*
X110205965Y-121177830D01*
X110205967Y-121177834D01*
X110314281Y-121332521D01*
X110341505Y-121371401D01*
X110508599Y-121538495D01*
X110605384Y-121606265D01*
X110702165Y-121674032D01*
X110702167Y-121674033D01*
X110702170Y-121674035D01*
X110916337Y-121773903D01*
X111144592Y-121835063D01*
X111332918Y-121851539D01*
X111379999Y-121855659D01*
X111380000Y-121855659D01*
X111380001Y-121855659D01*
X111419234Y-121852226D01*
X111615408Y-121835063D01*
X111843663Y-121773903D01*
X112057830Y-121674035D01*
X112251401Y-121538495D01*
X112418495Y-121371401D01*
X112548425Y-121185842D01*
X112603002Y-121142217D01*
X112672500Y-121135023D01*
X112734855Y-121166546D01*
X112751575Y-121185842D01*
X112881500Y-121371395D01*
X112881505Y-121371401D01*
X113048599Y-121538495D01*
X113145384Y-121606265D01*
X113242165Y-121674032D01*
X113242167Y-121674033D01*
X113242170Y-121674035D01*
X113456337Y-121773903D01*
X113684592Y-121835063D01*
X113872918Y-121851539D01*
X113919999Y-121855659D01*
X113920000Y-121855659D01*
X113920001Y-121855659D01*
X113959234Y-121852226D01*
X114155408Y-121835063D01*
X114283757Y-121800672D01*
X114353606Y-121802335D01*
X114403531Y-121832766D01*
X114985139Y-122414374D01*
X114985149Y-122414385D01*
X114989479Y-122418715D01*
X114989480Y-122418716D01*
X115101284Y-122530520D01*
X115160677Y-122564810D01*
X115238215Y-122609577D01*
X115390943Y-122650501D01*
X115390946Y-122650501D01*
X115556653Y-122650501D01*
X115556669Y-122650500D01*
X139983331Y-122650500D01*
X139983347Y-122650501D01*
X139990943Y-122650501D01*
X140149054Y-122650501D01*
X140149057Y-122650501D01*
X140301785Y-122609577D01*
X140379323Y-122564810D01*
X140438716Y-122530520D01*
X140550520Y-122418716D01*
X140550520Y-122418714D01*
X140560724Y-122408511D01*
X140560728Y-122408506D01*
X155868713Y-107100521D01*
X155868716Y-107100520D01*
X155980520Y-106988716D01*
X156030639Y-106901904D01*
X156059577Y-106851785D01*
X156100500Y-106699058D01*
X156100500Y-106540943D01*
X156100500Y-105885304D01*
X156120185Y-105818265D01*
X156153375Y-105783730D01*
X156314620Y-105670826D01*
X156470826Y-105514620D01*
X156597534Y-105333662D01*
X156657618Y-105204811D01*
X156703790Y-105152371D01*
X156770983Y-105133219D01*
X156837865Y-105153435D01*
X156882382Y-105204811D01*
X156942464Y-105333658D01*
X156942468Y-105333666D01*
X157069170Y-105514615D01*
X157069175Y-105514621D01*
X157225378Y-105670824D01*
X157225384Y-105670829D01*
X157406333Y-105797531D01*
X157406335Y-105797532D01*
X157406338Y-105797534D01*
X157606550Y-105890894D01*
X157819932Y-105948070D01*
X157973133Y-105961473D01*
X158039998Y-105967323D01*
X158040000Y-105967323D01*
X158040002Y-105967323D01*
X158106867Y-105961473D01*
X158260068Y-105948070D01*
X158473450Y-105890894D01*
X158673662Y-105797534D01*
X158854620Y-105670826D01*
X159010826Y-105514620D01*
X159137534Y-105333662D01*
X159230894Y-105133450D01*
X159288070Y-104920068D01*
X159307323Y-104700000D01*
X159288070Y-104479932D01*
X159230894Y-104266550D01*
X159137534Y-104066339D01*
X159016784Y-103893889D01*
X159010827Y-103885381D01*
X159010823Y-103885377D01*
X158854620Y-103729174D01*
X158854616Y-103729171D01*
X158854615Y-103729170D01*
X158673666Y-103602468D01*
X158673662Y-103602466D01*
X158585595Y-103561400D01*
X158473450Y-103509106D01*
X158473447Y-103509105D01*
X158473445Y-103509104D01*
X158260070Y-103451930D01*
X158260062Y-103451929D01*
X158040002Y-103432677D01*
X158039998Y-103432677D01*
X157819937Y-103451929D01*
X157819929Y-103451930D01*
X157606554Y-103509104D01*
X157606548Y-103509107D01*
X157406340Y-103602465D01*
X157406338Y-103602466D01*
X157225377Y-103729175D01*
X157069175Y-103885377D01*
X156942466Y-104066338D01*
X156942465Y-104066340D01*
X156882382Y-104195189D01*
X156836209Y-104247628D01*
X156769016Y-104266780D01*
X156702135Y-104246564D01*
X156657618Y-104195189D01*
X156597534Y-104066340D01*
X156597533Y-104066338D01*
X156470827Y-103885381D01*
X156470823Y-103885377D01*
X156314620Y-103729174D01*
X156314616Y-103729171D01*
X156314615Y-103729170D01*
X156133666Y-103602468D01*
X156133662Y-103602466D01*
X156045595Y-103561400D01*
X155933450Y-103509106D01*
X155933447Y-103509105D01*
X155933445Y-103509104D01*
X155720070Y-103451930D01*
X155720062Y-103451929D01*
X155500002Y-103432677D01*
X155499998Y-103432677D01*
X155279937Y-103451929D01*
X155279929Y-103451930D01*
X155066554Y-103509104D01*
X155066548Y-103509107D01*
X154866340Y-103602465D01*
X154866338Y-103602466D01*
X154685377Y-103729175D01*
X154529175Y-103885377D01*
X154402466Y-104066338D01*
X154402465Y-104066340D01*
X154342382Y-104195189D01*
X154296209Y-104247628D01*
X154229016Y-104266780D01*
X154162135Y-104246564D01*
X154117618Y-104195189D01*
X154057534Y-104066340D01*
X154057533Y-104066338D01*
X153930827Y-103885381D01*
X153930823Y-103885377D01*
X153774620Y-103729174D01*
X153774616Y-103729171D01*
X153774615Y-103729170D01*
X153593666Y-103602468D01*
X153593662Y-103602466D01*
X153505595Y-103561400D01*
X153393450Y-103509106D01*
X153393447Y-103509105D01*
X153393445Y-103509104D01*
X153180070Y-103451930D01*
X153180062Y-103451929D01*
X152960002Y-103432677D01*
X152959998Y-103432677D01*
X152739937Y-103451929D01*
X152739929Y-103451930D01*
X152526554Y-103509104D01*
X152526548Y-103509107D01*
X152326340Y-103602465D01*
X152326338Y-103602466D01*
X152145377Y-103729175D01*
X151989175Y-103885377D01*
X151862466Y-104066338D01*
X151862465Y-104066340D01*
X151802382Y-104195189D01*
X151756209Y-104247628D01*
X151689016Y-104266780D01*
X151622135Y-104246564D01*
X151577618Y-104195189D01*
X151517534Y-104066340D01*
X151517533Y-104066338D01*
X151390827Y-103885381D01*
X151390823Y-103885377D01*
X151234620Y-103729174D01*
X151234616Y-103729171D01*
X151234615Y-103729170D01*
X151053666Y-103602468D01*
X151053662Y-103602466D01*
X150965595Y-103561400D01*
X150853450Y-103509106D01*
X150853447Y-103509105D01*
X150853445Y-103509104D01*
X150640070Y-103451930D01*
X150640062Y-103451929D01*
X150420002Y-103432677D01*
X150419998Y-103432677D01*
X150199937Y-103451929D01*
X150199929Y-103451930D01*
X149986554Y-103509104D01*
X149986548Y-103509107D01*
X149786340Y-103602465D01*
X149786338Y-103602466D01*
X149605377Y-103729175D01*
X149449175Y-103885377D01*
X149322466Y-104066338D01*
X149322465Y-104066340D01*
X149262382Y-104195189D01*
X149216209Y-104247628D01*
X149149016Y-104266780D01*
X149082135Y-104246564D01*
X149037618Y-104195189D01*
X148977534Y-104066340D01*
X148977533Y-104066338D01*
X148850827Y-103885381D01*
X148850823Y-103885377D01*
X148694620Y-103729174D01*
X148694616Y-103729171D01*
X148694615Y-103729170D01*
X148513666Y-103602468D01*
X148513662Y-103602466D01*
X148425595Y-103561400D01*
X148313450Y-103509106D01*
X148313447Y-103509105D01*
X148313445Y-103509104D01*
X148100070Y-103451930D01*
X148100062Y-103451929D01*
X147880002Y-103432677D01*
X147879998Y-103432677D01*
X147659937Y-103451929D01*
X147659929Y-103451930D01*
X147446554Y-103509104D01*
X147446548Y-103509107D01*
X147246340Y-103602465D01*
X147246338Y-103602466D01*
X147065377Y-103729175D01*
X146909175Y-103885377D01*
X146782466Y-104066338D01*
X146782465Y-104066340D01*
X146722382Y-104195189D01*
X146676209Y-104247628D01*
X146609016Y-104266780D01*
X146542135Y-104246564D01*
X146497618Y-104195189D01*
X146437534Y-104066340D01*
X146437533Y-104066338D01*
X146310827Y-103885381D01*
X146310823Y-103885377D01*
X146154620Y-103729174D01*
X146154616Y-103729171D01*
X146154615Y-103729170D01*
X145973666Y-103602468D01*
X145973662Y-103602466D01*
X145885595Y-103561400D01*
X145773450Y-103509106D01*
X145773447Y-103509105D01*
X145773445Y-103509104D01*
X145560070Y-103451930D01*
X145560062Y-103451929D01*
X145340002Y-103432677D01*
X145339998Y-103432677D01*
X145119937Y-103451929D01*
X145119929Y-103451930D01*
X144906554Y-103509104D01*
X144906548Y-103509107D01*
X144706340Y-103602465D01*
X144706338Y-103602466D01*
X144525377Y-103729175D01*
X144369175Y-103885377D01*
X144242466Y-104066338D01*
X144242465Y-104066340D01*
X144182382Y-104195189D01*
X144136209Y-104247628D01*
X144069016Y-104266780D01*
X144002135Y-104246564D01*
X143957618Y-104195189D01*
X143897534Y-104066340D01*
X143897533Y-104066338D01*
X143770827Y-103885381D01*
X143770823Y-103885377D01*
X143614620Y-103729174D01*
X143614616Y-103729171D01*
X143614615Y-103729170D01*
X143433666Y-103602468D01*
X143433662Y-103602466D01*
X143345595Y-103561400D01*
X143233450Y-103509106D01*
X143233447Y-103509105D01*
X143233445Y-103509104D01*
X143020070Y-103451930D01*
X143020062Y-103451929D01*
X142800002Y-103432677D01*
X142799998Y-103432677D01*
X142579937Y-103451929D01*
X142579929Y-103451930D01*
X142366554Y-103509104D01*
X142366543Y-103509108D01*
X142276904Y-103550908D01*
X142207827Y-103561400D01*
X142144043Y-103532880D01*
X142105804Y-103474403D01*
X142100500Y-103438526D01*
X142100500Y-96140096D01*
X142120185Y-96073057D01*
X142136814Y-96052420D01*
X155088321Y-83100912D01*
X155149642Y-83067429D01*
X155208095Y-83068821D01*
X155279924Y-83088068D01*
X155279925Y-83088068D01*
X155279932Y-83088070D01*
X155467226Y-83104455D01*
X155499998Y-83107323D01*
X155500000Y-83107323D01*
X155500002Y-83107323D01*
X155555017Y-83102509D01*
X155720068Y-83088070D01*
X155933450Y-83030894D01*
X156133662Y-82937534D01*
X156314620Y-82810826D01*
X156470826Y-82654620D01*
X156597534Y-82473662D01*
X156657618Y-82344811D01*
X156703790Y-82292371D01*
X156770983Y-82273219D01*
X156837865Y-82293435D01*
X156882382Y-82344811D01*
X156942464Y-82473658D01*
X156942468Y-82473666D01*
X157069170Y-82654615D01*
X157069175Y-82654621D01*
X157225378Y-82810824D01*
X157225384Y-82810829D01*
X157406333Y-82937531D01*
X157406335Y-82937532D01*
X157406338Y-82937534D01*
X157606550Y-83030894D01*
X157819932Y-83088070D01*
X157966743Y-83100914D01*
X158039998Y-83107323D01*
X158040000Y-83107323D01*
X158040002Y-83107323D01*
X158095017Y-83102509D01*
X158260068Y-83088070D01*
X158473450Y-83030894D01*
X158673662Y-82937534D01*
X158854620Y-82810826D01*
X159010826Y-82654620D01*
X159137534Y-82473662D01*
X159230894Y-82273450D01*
X159288070Y-82060068D01*
X159307323Y-81840000D01*
X159288070Y-81619932D01*
X159230894Y-81406550D01*
X159137534Y-81206339D01*
X159010826Y-81025380D01*
X158854620Y-80869174D01*
X158854616Y-80869171D01*
X158854615Y-80869170D01*
X158673666Y-80742468D01*
X158673662Y-80742466D01*
X158673660Y-80742465D01*
X158473450Y-80649106D01*
X158473447Y-80649105D01*
X158473445Y-80649104D01*
X158260070Y-80591930D01*
X158260062Y-80591929D01*
X158040002Y-80572677D01*
X158039998Y-80572677D01*
X157819937Y-80591929D01*
X157819929Y-80591930D01*
X157606554Y-80649104D01*
X157606548Y-80649107D01*
X157406340Y-80742465D01*
X157406338Y-80742466D01*
X157225377Y-80869175D01*
X157069175Y-81025377D01*
X156942466Y-81206338D01*
X156942465Y-81206340D01*
X156882382Y-81335189D01*
X156836209Y-81387628D01*
X156769016Y-81406780D01*
X156702135Y-81386564D01*
X156657618Y-81335189D01*
X156597534Y-81206340D01*
X156597533Y-81206338D01*
X156470827Y-81025381D01*
X156470823Y-81025377D01*
X156314620Y-80869174D01*
X156314616Y-80869171D01*
X156314615Y-80869170D01*
X156133666Y-80742468D01*
X156133662Y-80742466D01*
X156133660Y-80742465D01*
X155933450Y-80649106D01*
X155933447Y-80649105D01*
X155933445Y-80649104D01*
X155720070Y-80591930D01*
X155720062Y-80591929D01*
X155500002Y-80572677D01*
X155499998Y-80572677D01*
X155279937Y-80591929D01*
X155279929Y-80591930D01*
X155066554Y-80649104D01*
X155066548Y-80649107D01*
X154866340Y-80742465D01*
X154866338Y-80742466D01*
X154685377Y-80869175D01*
X154529175Y-81025377D01*
X154402466Y-81206338D01*
X154402465Y-81206340D01*
X154342382Y-81335189D01*
X154296209Y-81387628D01*
X154229016Y-81406780D01*
X154162135Y-81386564D01*
X154117618Y-81335189D01*
X154057534Y-81206340D01*
X154057533Y-81206338D01*
X153930827Y-81025381D01*
X153930823Y-81025377D01*
X153774620Y-80869174D01*
X153774616Y-80869171D01*
X153774615Y-80869170D01*
X153593666Y-80742468D01*
X153593662Y-80742466D01*
X153593660Y-80742465D01*
X153393450Y-80649106D01*
X153393447Y-80649105D01*
X153393445Y-80649104D01*
X153180070Y-80591930D01*
X153180062Y-80591929D01*
X152960002Y-80572677D01*
X152959998Y-80572677D01*
X152739937Y-80591929D01*
X152739929Y-80591930D01*
X152526554Y-80649104D01*
X152526548Y-80649107D01*
X152326340Y-80742465D01*
X152326338Y-80742466D01*
X152145377Y-80869175D01*
X151989175Y-81025377D01*
X151862466Y-81206338D01*
X151862465Y-81206340D01*
X151802382Y-81335189D01*
X151756209Y-81387628D01*
X151689016Y-81406780D01*
X151622135Y-81386564D01*
X151577618Y-81335189D01*
X151517534Y-81206340D01*
X151517533Y-81206338D01*
X151390827Y-81025381D01*
X151390823Y-81025377D01*
X151234620Y-80869174D01*
X151234616Y-80869171D01*
X151234615Y-80869170D01*
X151053666Y-80742468D01*
X151053662Y-80742466D01*
X151053660Y-80742465D01*
X150853450Y-80649106D01*
X150853447Y-80649105D01*
X150853445Y-80649104D01*
X150640070Y-80591930D01*
X150640062Y-80591929D01*
X150420002Y-80572677D01*
X150419998Y-80572677D01*
X150199937Y-80591929D01*
X150199929Y-80591930D01*
X149986554Y-80649104D01*
X149986548Y-80649107D01*
X149786340Y-80742465D01*
X149786338Y-80742466D01*
X149605377Y-80869175D01*
X149449175Y-81025377D01*
X149322466Y-81206338D01*
X149322465Y-81206340D01*
X149262382Y-81335189D01*
X149216209Y-81387628D01*
X149149016Y-81406780D01*
X149082135Y-81386564D01*
X149037618Y-81335189D01*
X148977534Y-81206340D01*
X148977533Y-81206338D01*
X148850827Y-81025381D01*
X148850823Y-81025377D01*
X148694620Y-80869174D01*
X148694616Y-80869171D01*
X148694615Y-80869170D01*
X148513666Y-80742468D01*
X148513662Y-80742466D01*
X148513660Y-80742465D01*
X148313450Y-80649106D01*
X148313447Y-80649105D01*
X148313445Y-80649104D01*
X148100070Y-80591930D01*
X148100062Y-80591929D01*
X147880002Y-80572677D01*
X147879998Y-80572677D01*
X147659937Y-80591929D01*
X147659929Y-80591930D01*
X147446554Y-80649104D01*
X147446548Y-80649107D01*
X147246340Y-80742465D01*
X147246338Y-80742466D01*
X147065377Y-80869175D01*
X146909175Y-81025377D01*
X146782466Y-81206338D01*
X146782465Y-81206340D01*
X146722382Y-81335189D01*
X146676209Y-81387628D01*
X146609016Y-81406780D01*
X146542135Y-81386564D01*
X146497618Y-81335189D01*
X146437534Y-81206340D01*
X146437533Y-81206338D01*
X146310827Y-81025381D01*
X146310823Y-81025377D01*
X146154620Y-80869174D01*
X146154616Y-80869171D01*
X146154615Y-80869170D01*
X145973666Y-80742468D01*
X145973662Y-80742466D01*
X145973660Y-80742465D01*
X145773450Y-80649106D01*
X145773447Y-80649105D01*
X145773445Y-80649104D01*
X145560070Y-80591930D01*
X145560062Y-80591929D01*
X145340002Y-80572677D01*
X145339998Y-80572677D01*
X145119937Y-80591929D01*
X145119929Y-80591930D01*
X144906554Y-80649104D01*
X144906548Y-80649107D01*
X144706340Y-80742465D01*
X144706338Y-80742466D01*
X144525377Y-80869175D01*
X144369175Y-81025377D01*
X144242466Y-81206338D01*
X144242465Y-81206340D01*
X144182382Y-81335189D01*
X144136209Y-81387628D01*
X144069016Y-81406780D01*
X144002135Y-81386564D01*
X143957618Y-81335189D01*
X143897534Y-81206340D01*
X143897533Y-81206338D01*
X143770827Y-81025381D01*
X143770823Y-81025377D01*
X143614620Y-80869174D01*
X143614616Y-80869171D01*
X143614615Y-80869170D01*
X143433666Y-80742468D01*
X143433662Y-80742466D01*
X143433660Y-80742465D01*
X143233450Y-80649106D01*
X143233447Y-80649105D01*
X143233445Y-80649104D01*
X143020070Y-80591930D01*
X143020062Y-80591929D01*
X142800002Y-80572677D01*
X142799998Y-80572677D01*
X142579937Y-80591929D01*
X142579929Y-80591930D01*
X142366554Y-80649104D01*
X142366548Y-80649107D01*
X142166340Y-80742465D01*
X142166338Y-80742466D01*
X141985377Y-80869175D01*
X141829175Y-81025377D01*
X141702466Y-81206338D01*
X141702465Y-81206340D01*
X141642382Y-81335189D01*
X141596209Y-81387628D01*
X141529016Y-81406780D01*
X141462135Y-81386564D01*
X141417618Y-81335189D01*
X141357534Y-81206340D01*
X141357533Y-81206338D01*
X141230827Y-81025381D01*
X141230823Y-81025377D01*
X141074620Y-80869174D01*
X141074616Y-80869171D01*
X141074615Y-80869170D01*
X140893666Y-80742468D01*
X140893662Y-80742466D01*
X140893660Y-80742465D01*
X140693450Y-80649106D01*
X140693447Y-80649105D01*
X140693445Y-80649104D01*
X140480070Y-80591930D01*
X140480062Y-80591929D01*
X140260002Y-80572677D01*
X140259998Y-80572677D01*
X140039937Y-80591929D01*
X140039929Y-80591930D01*
X139826554Y-80649104D01*
X139826548Y-80649107D01*
X139626340Y-80742465D01*
X139626338Y-80742466D01*
X139445377Y-80869175D01*
X139289175Y-81025377D01*
X139162466Y-81206338D01*
X139162465Y-81206340D01*
X139069107Y-81406548D01*
X139069104Y-81406554D01*
X139011930Y-81619929D01*
X139011929Y-81619937D01*
X138992677Y-81839997D01*
X138992677Y-81840002D01*
X139011929Y-82060062D01*
X139011930Y-82060070D01*
X139069104Y-82273445D01*
X139069105Y-82273447D01*
X139069106Y-82273450D01*
X139102382Y-82344811D01*
X139162466Y-82473662D01*
X139162468Y-82473666D01*
X139289170Y-82654615D01*
X139289175Y-82654621D01*
X139445378Y-82810824D01*
X139445384Y-82810829D01*
X139626333Y-82937531D01*
X139626335Y-82937532D01*
X139626338Y-82937534D01*
X139826550Y-83030894D01*
X140039932Y-83088070D01*
X140186743Y-83100914D01*
X140259998Y-83107323D01*
X140260000Y-83107323D01*
X140260002Y-83107323D01*
X140315017Y-83102509D01*
X140480068Y-83088070D01*
X140693450Y-83030894D01*
X140893662Y-82937534D01*
X141074620Y-82810826D01*
X141230826Y-82654620D01*
X141357534Y-82473662D01*
X141417618Y-82344811D01*
X141463790Y-82292371D01*
X141530983Y-82273219D01*
X141597865Y-82293435D01*
X141642382Y-82344811D01*
X141702464Y-82473658D01*
X141702468Y-82473666D01*
X141829170Y-82654615D01*
X141829175Y-82654621D01*
X141985378Y-82810824D01*
X141985384Y-82810829D01*
X142166333Y-82937531D01*
X142166335Y-82937532D01*
X142166338Y-82937534D01*
X142366550Y-83030894D01*
X142579932Y-83088070D01*
X142726743Y-83100914D01*
X142799998Y-83107323D01*
X142800000Y-83107323D01*
X142800002Y-83107323D01*
X142855017Y-83102509D01*
X143020068Y-83088070D01*
X143233450Y-83030894D01*
X143433662Y-82937534D01*
X143614620Y-82810826D01*
X143770826Y-82654620D01*
X143897534Y-82473662D01*
X143957618Y-82344811D01*
X144003790Y-82292371D01*
X144070983Y-82273219D01*
X144137865Y-82293435D01*
X144182382Y-82344811D01*
X144242464Y-82473658D01*
X144242468Y-82473666D01*
X144369170Y-82654615D01*
X144369175Y-82654621D01*
X144525378Y-82810824D01*
X144525384Y-82810829D01*
X144706333Y-82937531D01*
X144706335Y-82937532D01*
X144706338Y-82937534D01*
X144906550Y-83030894D01*
X145119932Y-83088070D01*
X145266743Y-83100914D01*
X145339998Y-83107323D01*
X145340000Y-83107323D01*
X145340002Y-83107323D01*
X145395017Y-83102509D01*
X145560068Y-83088070D01*
X145773450Y-83030894D01*
X145973662Y-82937534D01*
X146154620Y-82810826D01*
X146310826Y-82654620D01*
X146437534Y-82473662D01*
X146497618Y-82344811D01*
X146543790Y-82292371D01*
X146610983Y-82273219D01*
X146677865Y-82293435D01*
X146722382Y-82344811D01*
X146782464Y-82473658D01*
X146782468Y-82473666D01*
X146909170Y-82654615D01*
X146909175Y-82654621D01*
X147065378Y-82810824D01*
X147065384Y-82810829D01*
X147246333Y-82937531D01*
X147246335Y-82937532D01*
X147246338Y-82937534D01*
X147446550Y-83030894D01*
X147659932Y-83088070D01*
X147806743Y-83100914D01*
X147879998Y-83107323D01*
X147880000Y-83107323D01*
X147880002Y-83107323D01*
X147935017Y-83102509D01*
X148100068Y-83088070D01*
X148313450Y-83030894D01*
X148513662Y-82937534D01*
X148694620Y-82810826D01*
X148850826Y-82654620D01*
X148977534Y-82473662D01*
X149037618Y-82344811D01*
X149083790Y-82292371D01*
X149150983Y-82273219D01*
X149217865Y-82293435D01*
X149262382Y-82344811D01*
X149322464Y-82473658D01*
X149322468Y-82473666D01*
X149449170Y-82654615D01*
X149449175Y-82654621D01*
X149605378Y-82810824D01*
X149605384Y-82810829D01*
X149786333Y-82937531D01*
X149786335Y-82937532D01*
X149786338Y-82937534D01*
X149986550Y-83030894D01*
X150199932Y-83088070D01*
X150346743Y-83100914D01*
X150419998Y-83107323D01*
X150420000Y-83107323D01*
X150420002Y-83107323D01*
X150475017Y-83102509D01*
X150640068Y-83088070D01*
X150853450Y-83030894D01*
X151053662Y-82937534D01*
X151234620Y-82810826D01*
X151390826Y-82654620D01*
X151517534Y-82473662D01*
X151577618Y-82344811D01*
X151623790Y-82292371D01*
X151690983Y-82273219D01*
X151757865Y-82293435D01*
X151802382Y-82344811D01*
X151862464Y-82473658D01*
X151862468Y-82473666D01*
X151989170Y-82654615D01*
X151989175Y-82654621D01*
X152145378Y-82810824D01*
X152145384Y-82810829D01*
X152326333Y-82937531D01*
X152326335Y-82937532D01*
X152326338Y-82937534D01*
X152526550Y-83030894D01*
X152739932Y-83088070D01*
X152886743Y-83100914D01*
X152959998Y-83107323D01*
X152960000Y-83107323D01*
X152960001Y-83107323D01*
X152970304Y-83106421D01*
X153084651Y-83096417D01*
X153153148Y-83110183D01*
X153203331Y-83158798D01*
X153219265Y-83226827D01*
X153195890Y-83292670D01*
X153183137Y-83307626D01*
X141131286Y-95359478D01*
X141019481Y-95471282D01*
X141019479Y-95471285D01*
X140969361Y-95558094D01*
X140969359Y-95558096D01*
X140940425Y-95608209D01*
X140940424Y-95608210D01*
X140940423Y-95608215D01*
X140899499Y-95760943D01*
X140899499Y-95760945D01*
X140899499Y-95929046D01*
X140899500Y-95929059D01*
X140899500Y-103410547D01*
X140879815Y-103477586D01*
X140827011Y-103523341D01*
X140757853Y-103533285D01*
X140723098Y-103522930D01*
X140693457Y-103509108D01*
X140693445Y-103509104D01*
X140480070Y-103451930D01*
X140480062Y-103451929D01*
X140260002Y-103432677D01*
X140259998Y-103432677D01*
X140039937Y-103451929D01*
X140039929Y-103451930D01*
X139826554Y-103509104D01*
X139826548Y-103509107D01*
X139626340Y-103602465D01*
X139626338Y-103602466D01*
X139445377Y-103729175D01*
X139289175Y-103885377D01*
X139162466Y-104066338D01*
X139162465Y-104066340D01*
X139069107Y-104266548D01*
X139069104Y-104266554D01*
X139011930Y-104479929D01*
X139011929Y-104479937D01*
X138992677Y-104699997D01*
X138992677Y-104700002D01*
X139011929Y-104920062D01*
X139011930Y-104920070D01*
X139069104Y-105133445D01*
X139069105Y-105133447D01*
X139069106Y-105133450D01*
X139162464Y-105333658D01*
X139162466Y-105333662D01*
X139162468Y-105333666D01*
X139289170Y-105514615D01*
X139289174Y-105514620D01*
X139445380Y-105670826D01*
X139606623Y-105783729D01*
X139650248Y-105838306D01*
X139659500Y-105885304D01*
X139659500Y-114719902D01*
X139639815Y-114786941D01*
X139623181Y-114807583D01*
X135101371Y-119329392D01*
X135040048Y-119362877D01*
X134970356Y-119357893D01*
X134942566Y-119343285D01*
X134917833Y-119325966D01*
X134917829Y-119325964D01*
X134810746Y-119276031D01*
X134703663Y-119226097D01*
X134703659Y-119226096D01*
X134703655Y-119226094D01*
X134475413Y-119164938D01*
X134475403Y-119164936D01*
X134240001Y-119144341D01*
X134239999Y-119144341D01*
X134004596Y-119164936D01*
X134004583Y-119164939D01*
X133876241Y-119199327D01*
X133806392Y-119197664D01*
X133756468Y-119167233D01*
X133577590Y-118988355D01*
X133577588Y-118988352D01*
X133458717Y-118869481D01*
X133458709Y-118869475D01*
X133339274Y-118800520D01*
X133339274Y-118800519D01*
X133339269Y-118800518D01*
X133333168Y-118796995D01*
X133321786Y-118790423D01*
X133283603Y-118780192D01*
X133169057Y-118749499D01*
X133010943Y-118749499D01*
X133003347Y-118749499D01*
X133003331Y-118749500D01*
X120236670Y-118749500D01*
X120236654Y-118749499D01*
X120229058Y-118749499D01*
X120070943Y-118749499D01*
X119994579Y-118769961D01*
X119918214Y-118790423D01*
X119918209Y-118790426D01*
X119781290Y-118869475D01*
X119781286Y-118869478D01*
X119483529Y-119167234D01*
X119422206Y-119200718D01*
X119363755Y-119199327D01*
X119235413Y-119164938D01*
X119235403Y-119164936D01*
X119000001Y-119144341D01*
X118999999Y-119144341D01*
X118764596Y-119164936D01*
X118764586Y-119164938D01*
X118536344Y-119226094D01*
X118536335Y-119226098D01*
X118322171Y-119325964D01*
X118322169Y-119325965D01*
X118128597Y-119461505D01*
X117961506Y-119628596D01*
X117831575Y-119814159D01*
X117776998Y-119857784D01*
X117707500Y-119864978D01*
X117645145Y-119833455D01*
X117628425Y-119814159D01*
X117498494Y-119628597D01*
X117331402Y-119461506D01*
X117331395Y-119461501D01*
X117137834Y-119325967D01*
X117137830Y-119325965D01*
X117137828Y-119325964D01*
X116943074Y-119235148D01*
X116890637Y-119188978D01*
X116871485Y-119121784D01*
X116891701Y-119054903D01*
X116907795Y-119035092D01*
X118806070Y-117136819D01*
X118867393Y-117103334D01*
X118893751Y-117100500D01*
X127917588Y-117100500D01*
X127984627Y-117120185D01*
X127994903Y-117127555D01*
X127997736Y-117129814D01*
X127997738Y-117129816D01*
X128150478Y-117225789D01*
X128320745Y-117285368D01*
X128320750Y-117285369D01*
X128499996Y-117305565D01*
X128500000Y-117305565D01*
X128500004Y-117305565D01*
X128679249Y-117285369D01*
X128679252Y-117285368D01*
X128679255Y-117285368D01*
X128849522Y-117225789D01*
X129002262Y-117129816D01*
X129129816Y-117002262D01*
X129225789Y-116849522D01*
X129285368Y-116679255D01*
X129285369Y-116679249D01*
X129305565Y-116500003D01*
X129305565Y-116499996D01*
X129285369Y-116320750D01*
X129285368Y-116320745D01*
X129225788Y-116150476D01*
X129129815Y-115997737D01*
X129002262Y-115870184D01*
X128849523Y-115774211D01*
X128679254Y-115714631D01*
X128679249Y-115714630D01*
X128500004Y-115694435D01*
X128499996Y-115694435D01*
X128320750Y-115714630D01*
X128320745Y-115714631D01*
X128150476Y-115774211D01*
X127997736Y-115870185D01*
X127994903Y-115872445D01*
X127992724Y-115873334D01*
X127991842Y-115873889D01*
X127991744Y-115873734D01*
X127930217Y-115898855D01*
X127917588Y-115899500D01*
X118672711Y-115899500D01*
X118514596Y-115899500D01*
X118361869Y-115940423D01*
X118361868Y-115940423D01*
X118361866Y-115940424D01*
X118361863Y-115940425D01*
X118326720Y-115960716D01*
X118326718Y-115960717D01*
X118224944Y-116019475D01*
X118224936Y-116019481D01*
X118113132Y-116131286D01*
X114859982Y-119384435D01*
X114798659Y-119417920D01*
X114728967Y-119412936D01*
X114701178Y-119398329D01*
X114597834Y-119325967D01*
X114597830Y-119325965D01*
X114597828Y-119325964D01*
X114383663Y-119226097D01*
X114383659Y-119226096D01*
X114383655Y-119226094D01*
X114155413Y-119164938D01*
X114155403Y-119164936D01*
X113920001Y-119144341D01*
X113919999Y-119144341D01*
X113684596Y-119164936D01*
X113684586Y-119164938D01*
X113456344Y-119226094D01*
X113456335Y-119226098D01*
X113242171Y-119325964D01*
X113242169Y-119325965D01*
X113048597Y-119461505D01*
X112881505Y-119628597D01*
X112751575Y-119814158D01*
X112696998Y-119857783D01*
X112627500Y-119864977D01*
X112565145Y-119833454D01*
X112548425Y-119814158D01*
X112418494Y-119628597D01*
X112251402Y-119461506D01*
X112251395Y-119461501D01*
X112057834Y-119325967D01*
X112057830Y-119325965D01*
X112057828Y-119325964D01*
X111843663Y-119226097D01*
X111843659Y-119226096D01*
X111843655Y-119226094D01*
X111615413Y-119164938D01*
X111615403Y-119164936D01*
X111380001Y-119144341D01*
X111379999Y-119144341D01*
X111144596Y-119164936D01*
X111144586Y-119164938D01*
X110916344Y-119226094D01*
X110916335Y-119226098D01*
X110702171Y-119325964D01*
X110702169Y-119325965D01*
X110508597Y-119461505D01*
X110341505Y-119628597D01*
X110205965Y-119822169D01*
X110205964Y-119822171D01*
X110106098Y-120036335D01*
X110106094Y-120036344D01*
X110044938Y-120264586D01*
X110044936Y-120264596D01*
X110024341Y-120499999D01*
X94925536Y-120499999D01*
X94403666Y-120009325D01*
X94400924Y-120006666D01*
X93493333Y-119099075D01*
X93490674Y-119096333D01*
X93212542Y-118800518D01*
X92611446Y-118161204D01*
X92608887Y-118158398D01*
X92563976Y-118107583D01*
X91758867Y-117196631D01*
X91756384Y-117193732D01*
X91695311Y-117120185D01*
X90936411Y-116206276D01*
X90934031Y-116203319D01*
X90892834Y-116150478D01*
X90408386Y-115529098D01*
X90144818Y-115191031D01*
X90142517Y-115187983D01*
X89384898Y-114151936D01*
X89382691Y-114148819D01*
X88657298Y-113089875D01*
X88655189Y-113086691D01*
X87962789Y-112005972D01*
X87960778Y-112002725D01*
X87301956Y-110901144D01*
X87300047Y-110897837D01*
X86839007Y-110070111D01*
X86675460Y-109776487D01*
X86673687Y-109773186D01*
X86083912Y-108633107D01*
X86082220Y-108629708D01*
X85527855Y-107472046D01*
X85526259Y-107468576D01*
X85007821Y-106294427D01*
X85006332Y-106290910D01*
X84524290Y-105101332D01*
X84522910Y-105097771D01*
X84457196Y-104920068D01*
X84077721Y-103893889D01*
X84076452Y-103890287D01*
X83668562Y-102673307D01*
X83667404Y-102669668D01*
X83297174Y-101440673D01*
X83296129Y-101437000D01*
X82963921Y-100197182D01*
X82962990Y-100193478D01*
X82698718Y-99069862D01*
X82669119Y-98944018D01*
X82668317Y-98940352D01*
X82413058Y-97682412D01*
X82412360Y-97678676D01*
X82195959Y-96413461D01*
X82195388Y-96409784D01*
X82018046Y-95138467D01*
X82017581Y-95134702D01*
X81879482Y-93858597D01*
X81879138Y-93854891D01*
X81780395Y-92575051D01*
X81780165Y-92571313D01*
X81720883Y-91289074D01*
X81720767Y-91285272D01*
X81701002Y-90001909D01*
X81701002Y-89998091D01*
X81720767Y-88714727D01*
X81720884Y-88710909D01*
X81721638Y-88694611D01*
X81780165Y-87428682D01*
X81780395Y-87424952D01*
X81879138Y-86145102D01*
X81879481Y-86141408D01*
X82017585Y-84865263D01*
X82018045Y-84861540D01*
X82195389Y-83590206D01*
X82195957Y-83586548D01*
X82412365Y-82321293D01*
X82413062Y-82317569D01*
X82668319Y-81059633D01*
X82669116Y-81055995D01*
X82962998Y-79806487D01*
X82963912Y-79802849D01*
X83296135Y-78562976D01*
X83297174Y-78559326D01*
X83667404Y-77330331D01*
X83668562Y-77326692D01*
X84076452Y-76109712D01*
X84077721Y-76106110D01*
X84522921Y-74902199D01*
X84524278Y-74898695D01*
X84901258Y-73968389D01*
X103274500Y-73968389D01*
X103274500Y-74141611D01*
X103301598Y-74312701D01*
X103355127Y-74477445D01*
X103433768Y-74631788D01*
X103535586Y-74771928D01*
X103658072Y-74894414D01*
X103798212Y-74996232D01*
X103952555Y-75074873D01*
X104117299Y-75128402D01*
X104288389Y-75155500D01*
X104288390Y-75155500D01*
X104461610Y-75155500D01*
X104461611Y-75155500D01*
X104632701Y-75128402D01*
X104797445Y-75074873D01*
X104951788Y-74996232D01*
X105091928Y-74894414D01*
X105214414Y-74771928D01*
X105316232Y-74631788D01*
X105394873Y-74477445D01*
X105448402Y-74312701D01*
X105475500Y-74141611D01*
X105475500Y-73968389D01*
X122454500Y-73968389D01*
X122454500Y-74141611D01*
X122481598Y-74312701D01*
X122535127Y-74477445D01*
X122613768Y-74631788D01*
X122715586Y-74771928D01*
X122838072Y-74894414D01*
X122978212Y-74996232D01*
X123132555Y-75074873D01*
X123297299Y-75128402D01*
X123468389Y-75155500D01*
X123468390Y-75155500D01*
X123641610Y-75155500D01*
X123641611Y-75155500D01*
X123812701Y-75128402D01*
X123977445Y-75074873D01*
X124131788Y-74996232D01*
X124271928Y-74894414D01*
X124394414Y-74771928D01*
X124496232Y-74631788D01*
X124574873Y-74477445D01*
X124628402Y-74312701D01*
X124655500Y-74141611D01*
X124655500Y-73968389D01*
X141454500Y-73968389D01*
X141454500Y-74141611D01*
X141481598Y-74312701D01*
X141535127Y-74477445D01*
X141613768Y-74631788D01*
X141715586Y-74771928D01*
X141838072Y-74894414D01*
X141978212Y-74996232D01*
X142132555Y-75074873D01*
X142297299Y-75128402D01*
X142468389Y-75155500D01*
X142468390Y-75155500D01*
X142641610Y-75155500D01*
X142641611Y-75155500D01*
X142812701Y-75128402D01*
X142977445Y-75074873D01*
X143131788Y-74996232D01*
X143271928Y-74894414D01*
X143394414Y-74771928D01*
X143496232Y-74631788D01*
X143574873Y-74477445D01*
X143628402Y-74312701D01*
X143655500Y-74141611D01*
X143655500Y-73968389D01*
X143628402Y-73797299D01*
X143574873Y-73632555D01*
X143496232Y-73478212D01*
X143394414Y-73338072D01*
X143271928Y-73215586D01*
X143131788Y-73113768D01*
X142977445Y-73035127D01*
X142812701Y-72981598D01*
X142812699Y-72981597D01*
X142812698Y-72981597D01*
X142681271Y-72960781D01*
X142641611Y-72954500D01*
X142468389Y-72954500D01*
X142428728Y-72960781D01*
X142297302Y-72981597D01*
X142132552Y-73035128D01*
X141978211Y-73113768D01*
X141969016Y-73120449D01*
X141838072Y-73215586D01*
X141838070Y-73215588D01*
X141838069Y-73215588D01*
X141715588Y-73338069D01*
X141715588Y-73338070D01*
X141715586Y-73338072D01*
X141671859Y-73398256D01*
X141613768Y-73478211D01*
X141535128Y-73632552D01*
X141481597Y-73797302D01*
X141454500Y-73968389D01*
X124655500Y-73968389D01*
X124628402Y-73797299D01*
X124574873Y-73632555D01*
X124496232Y-73478212D01*
X124394414Y-73338072D01*
X124271928Y-73215586D01*
X124131788Y-73113768D01*
X123977445Y-73035127D01*
X123812701Y-72981598D01*
X123812699Y-72981597D01*
X123812698Y-72981597D01*
X123681271Y-72960781D01*
X123641611Y-72954500D01*
X123468389Y-72954500D01*
X123428728Y-72960781D01*
X123297302Y-72981597D01*
X123132552Y-73035128D01*
X122978211Y-73113768D01*
X122969016Y-73120449D01*
X122838072Y-73215586D01*
X122838070Y-73215588D01*
X122838069Y-73215588D01*
X122715588Y-73338069D01*
X122715588Y-73338070D01*
X122715586Y-73338072D01*
X122671859Y-73398256D01*
X122613768Y-73478211D01*
X122535128Y-73632552D01*
X122481597Y-73797302D01*
X122454500Y-73968389D01*
X105475500Y-73968389D01*
X105448402Y-73797299D01*
X105394873Y-73632555D01*
X105316232Y-73478212D01*
X105214414Y-73338072D01*
X105091928Y-73215586D01*
X104951788Y-73113768D01*
X104797445Y-73035127D01*
X104632701Y-72981598D01*
X104632699Y-72981597D01*
X104632698Y-72981597D01*
X104501271Y-72960781D01*
X104461611Y-72954500D01*
X104288389Y-72954500D01*
X104248728Y-72960781D01*
X104117302Y-72981597D01*
X103952552Y-73035128D01*
X103798211Y-73113768D01*
X103789016Y-73120449D01*
X103658072Y-73215586D01*
X103658070Y-73215588D01*
X103658069Y-73215588D01*
X103535588Y-73338069D01*
X103535588Y-73338070D01*
X103535586Y-73338072D01*
X103491859Y-73398256D01*
X103433768Y-73478211D01*
X103355128Y-73632552D01*
X103301597Y-73797302D01*
X103274500Y-73968389D01*
X84901258Y-73968389D01*
X85006337Y-73709077D01*
X85007821Y-73705572D01*
X85040063Y-73632552D01*
X85526267Y-72531405D01*
X85527855Y-72527953D01*
X85561039Y-72458656D01*
X86012924Y-71515000D01*
X97689551Y-71515000D01*
X97709317Y-71766151D01*
X97768126Y-72011110D01*
X97864533Y-72243859D01*
X97996160Y-72458653D01*
X97996161Y-72458656D01*
X97996164Y-72458659D01*
X98159776Y-72650224D01*
X98308066Y-72776875D01*
X98351343Y-72813838D01*
X98351346Y-72813839D01*
X98566140Y-72945466D01*
X98782603Y-73035127D01*
X98798889Y-73041873D01*
X99043852Y-73100683D01*
X99295000Y-73120449D01*
X99546148Y-73100683D01*
X99791111Y-73041873D01*
X100023859Y-72945466D01*
X100238659Y-72813836D01*
X100430224Y-72650224D01*
X100593836Y-72458659D01*
X100725466Y-72243859D01*
X100821873Y-72011111D01*
X100880683Y-71766148D01*
X100900449Y-71515000D01*
X116869551Y-71515000D01*
X116889317Y-71766151D01*
X116948126Y-72011110D01*
X117044533Y-72243859D01*
X117176160Y-72458653D01*
X117176161Y-72458656D01*
X117176164Y-72458659D01*
X117339776Y-72650224D01*
X117488066Y-72776875D01*
X117531343Y-72813838D01*
X117531346Y-72813839D01*
X117746140Y-72945466D01*
X117962603Y-73035127D01*
X117978889Y-73041873D01*
X118223852Y-73100683D01*
X118475000Y-73120449D01*
X118726148Y-73100683D01*
X118971111Y-73041873D01*
X119203859Y-72945466D01*
X119418659Y-72813836D01*
X119610224Y-72650224D01*
X119773836Y-72458659D01*
X119905466Y-72243859D01*
X120001873Y-72011111D01*
X120060683Y-71766148D01*
X120080449Y-71515000D01*
X135869551Y-71515000D01*
X135889317Y-71766151D01*
X135948126Y-72011110D01*
X136044533Y-72243859D01*
X136176160Y-72458653D01*
X136176161Y-72458656D01*
X136176164Y-72458659D01*
X136339776Y-72650224D01*
X136488066Y-72776875D01*
X136531343Y-72813838D01*
X136531346Y-72813839D01*
X136746140Y-72945466D01*
X136962603Y-73035127D01*
X136978889Y-73041873D01*
X137223852Y-73100683D01*
X137475000Y-73120449D01*
X137726148Y-73100683D01*
X137971111Y-73041873D01*
X138203859Y-72945466D01*
X138418659Y-72813836D01*
X138610224Y-72650224D01*
X138773836Y-72458659D01*
X138905466Y-72243859D01*
X139001873Y-72011111D01*
X139060683Y-71766148D01*
X139080449Y-71515000D01*
X139060683Y-71263852D01*
X139001873Y-71018889D01*
X138905466Y-70786141D01*
X138905466Y-70786140D01*
X138773839Y-70571346D01*
X138773838Y-70571343D01*
X138680490Y-70462047D01*
X138610224Y-70379776D01*
X138483571Y-70271604D01*
X138418656Y-70216161D01*
X138418653Y-70216160D01*
X138203859Y-70084533D01*
X137971110Y-69988126D01*
X137726151Y-69929317D01*
X137475000Y-69909551D01*
X137223848Y-69929317D01*
X136978889Y-69988126D01*
X136746140Y-70084533D01*
X136531346Y-70216160D01*
X136531343Y-70216161D01*
X136339776Y-70379776D01*
X136176161Y-70571343D01*
X136176160Y-70571346D01*
X136044533Y-70786140D01*
X135948126Y-71018889D01*
X135889317Y-71263848D01*
X135869551Y-71515000D01*
X120080449Y-71515000D01*
X120060683Y-71263852D01*
X120001873Y-71018889D01*
X119905466Y-70786141D01*
X119905466Y-70786140D01*
X119773839Y-70571346D01*
X119773838Y-70571343D01*
X119680490Y-70462047D01*
X119610224Y-70379776D01*
X119483571Y-70271604D01*
X119418656Y-70216161D01*
X119418653Y-70216160D01*
X119203859Y-70084533D01*
X118971110Y-69988126D01*
X118726151Y-69929317D01*
X118475000Y-69909551D01*
X118223848Y-69929317D01*
X117978889Y-69988126D01*
X117746140Y-70084533D01*
X117531346Y-70216160D01*
X117531343Y-70216161D01*
X117339776Y-70379776D01*
X117176161Y-70571343D01*
X117176160Y-70571346D01*
X117044533Y-70786140D01*
X116948126Y-71018889D01*
X116889317Y-71263848D01*
X116869551Y-71515000D01*
X100900449Y-71515000D01*
X100880683Y-71263852D01*
X100821873Y-71018889D01*
X100725466Y-70786141D01*
X100725466Y-70786140D01*
X100593839Y-70571346D01*
X100593838Y-70571343D01*
X100500490Y-70462047D01*
X100430224Y-70379776D01*
X100303571Y-70271604D01*
X100238656Y-70216161D01*
X100238653Y-70216160D01*
X100023859Y-70084533D01*
X99791110Y-69988126D01*
X99546151Y-69929317D01*
X99295000Y-69909551D01*
X99043848Y-69929317D01*
X98798889Y-69988126D01*
X98566140Y-70084533D01*
X98351346Y-70216160D01*
X98351343Y-70216161D01*
X98159776Y-70379776D01*
X97996161Y-70571343D01*
X97996160Y-70571346D01*
X97864533Y-70786140D01*
X97768126Y-71018889D01*
X97709317Y-71263848D01*
X97689551Y-71515000D01*
X86012924Y-71515000D01*
X86082242Y-71370245D01*
X86083899Y-71366918D01*
X86673701Y-70226786D01*
X86675445Y-70223539D01*
X87300076Y-69102110D01*
X87301926Y-69098904D01*
X87464253Y-68827486D01*
X102124500Y-68827486D01*
X102124500Y-69122513D01*
X102156571Y-69366113D01*
X102163007Y-69414993D01*
X102163008Y-69414995D01*
X102239361Y-69699951D01*
X102239364Y-69699961D01*
X102352254Y-69972500D01*
X102352258Y-69972510D01*
X102499761Y-70227993D01*
X102679352Y-70462040D01*
X102679358Y-70462047D01*
X102887952Y-70670641D01*
X102887959Y-70670647D01*
X103122006Y-70850238D01*
X103377489Y-70997741D01*
X103377490Y-70997741D01*
X103377493Y-70997743D01*
X103650048Y-71110639D01*
X103935007Y-71186993D01*
X104227494Y-71225500D01*
X104227501Y-71225500D01*
X104522499Y-71225500D01*
X104522506Y-71225500D01*
X104814993Y-71186993D01*
X105099952Y-71110639D01*
X105372507Y-70997743D01*
X105627994Y-70850238D01*
X105862042Y-70670646D01*
X106070646Y-70462042D01*
X106250238Y-70227994D01*
X106397743Y-69972507D01*
X106510639Y-69699952D01*
X106586993Y-69414993D01*
X106625500Y-69122506D01*
X106625500Y-68827494D01*
X106625499Y-68827486D01*
X121304500Y-68827486D01*
X121304500Y-69122513D01*
X121336571Y-69366113D01*
X121343007Y-69414993D01*
X121343008Y-69414995D01*
X121419361Y-69699951D01*
X121419364Y-69699961D01*
X121532254Y-69972500D01*
X121532258Y-69972510D01*
X121679761Y-70227993D01*
X121859352Y-70462040D01*
X121859358Y-70462047D01*
X122067952Y-70670641D01*
X122067959Y-70670647D01*
X122302006Y-70850238D01*
X122557489Y-70997741D01*
X122557490Y-70997741D01*
X122557493Y-70997743D01*
X122830048Y-71110639D01*
X123115007Y-71186993D01*
X123407494Y-71225500D01*
X123407501Y-71225500D01*
X123702499Y-71225500D01*
X123702506Y-71225500D01*
X123994993Y-71186993D01*
X124279952Y-71110639D01*
X124552507Y-70997743D01*
X124807994Y-70850238D01*
X125042042Y-70670646D01*
X125250646Y-70462042D01*
X125430238Y-70227994D01*
X125577743Y-69972507D01*
X125690639Y-69699952D01*
X125766993Y-69414993D01*
X125805500Y-69122506D01*
X125805500Y-68827494D01*
X125805499Y-68827486D01*
X140304500Y-68827486D01*
X140304500Y-69122513D01*
X140336571Y-69366113D01*
X140343007Y-69414993D01*
X140343008Y-69414995D01*
X140419361Y-69699951D01*
X140419364Y-69699961D01*
X140532254Y-69972500D01*
X140532258Y-69972510D01*
X140679761Y-70227993D01*
X140859352Y-70462040D01*
X140859358Y-70462047D01*
X141067952Y-70670641D01*
X141067959Y-70670647D01*
X141302006Y-70850238D01*
X141557489Y-70997741D01*
X141557490Y-70997741D01*
X141557493Y-70997743D01*
X141830048Y-71110639D01*
X142115007Y-71186993D01*
X142407494Y-71225500D01*
X142407501Y-71225500D01*
X142702499Y-71225500D01*
X142702506Y-71225500D01*
X142994993Y-71186993D01*
X143279952Y-71110639D01*
X143552507Y-70997743D01*
X143807994Y-70850238D01*
X144042042Y-70670646D01*
X144250646Y-70462042D01*
X144430238Y-70227994D01*
X144577743Y-69972507D01*
X144690639Y-69699952D01*
X144766993Y-69414993D01*
X144805500Y-69122506D01*
X144805500Y-68827494D01*
X144766993Y-68535007D01*
X144690639Y-68250048D01*
X144577743Y-67977493D01*
X144430238Y-67722006D01*
X144250646Y-67487958D01*
X144250641Y-67487952D01*
X144042047Y-67279358D01*
X144042040Y-67279352D01*
X143807993Y-67099761D01*
X143552510Y-66952258D01*
X143552500Y-66952254D01*
X143279961Y-66839364D01*
X143279954Y-66839362D01*
X143279952Y-66839361D01*
X142994993Y-66763007D01*
X142946113Y-66756571D01*
X142702513Y-66724500D01*
X142702506Y-66724500D01*
X142407494Y-66724500D01*
X142407486Y-66724500D01*
X142129085Y-66761153D01*
X142115007Y-66763007D01*
X141830048Y-66839361D01*
X141830038Y-66839364D01*
X141557499Y-66952254D01*
X141557489Y-66952258D01*
X141302006Y-67099761D01*
X141067959Y-67279352D01*
X141067952Y-67279358D01*
X140859358Y-67487952D01*
X140859352Y-67487959D01*
X140679761Y-67722006D01*
X140532258Y-67977489D01*
X140532254Y-67977499D01*
X140419364Y-68250038D01*
X140419361Y-68250048D01*
X140343008Y-68535004D01*
X140343006Y-68535015D01*
X140304500Y-68827486D01*
X125805499Y-68827486D01*
X125766993Y-68535007D01*
X125690639Y-68250048D01*
X125577743Y-67977493D01*
X125430238Y-67722006D01*
X125250646Y-67487958D01*
X125250641Y-67487952D01*
X125042047Y-67279358D01*
X125042040Y-67279352D01*
X124807993Y-67099761D01*
X124552510Y-66952258D01*
X124552500Y-66952254D01*
X124279961Y-66839364D01*
X124279954Y-66839362D01*
X124279952Y-66839361D01*
X123994993Y-66763007D01*
X123946113Y-66756571D01*
X123702513Y-66724500D01*
X123702506Y-66724500D01*
X123407494Y-66724500D01*
X123407486Y-66724500D01*
X123129085Y-66761153D01*
X123115007Y-66763007D01*
X122830048Y-66839361D01*
X122830038Y-66839364D01*
X122557499Y-66952254D01*
X122557489Y-66952258D01*
X122302006Y-67099761D01*
X122067959Y-67279352D01*
X122067952Y-67279358D01*
X121859358Y-67487952D01*
X121859352Y-67487959D01*
X121679761Y-67722006D01*
X121532258Y-67977489D01*
X121532254Y-67977499D01*
X121419364Y-68250038D01*
X121419361Y-68250048D01*
X121343008Y-68535004D01*
X121343006Y-68535015D01*
X121304500Y-68827486D01*
X106625499Y-68827486D01*
X106586993Y-68535007D01*
X106510639Y-68250048D01*
X106397743Y-67977493D01*
X106250238Y-67722006D01*
X106070646Y-67487958D01*
X106070641Y-67487952D01*
X105862047Y-67279358D01*
X105862040Y-67279352D01*
X105627993Y-67099761D01*
X105372510Y-66952258D01*
X105372500Y-66952254D01*
X105099961Y-66839364D01*
X105099954Y-66839362D01*
X105099952Y-66839361D01*
X104814993Y-66763007D01*
X104766113Y-66756571D01*
X104522513Y-66724500D01*
X104522506Y-66724500D01*
X104227494Y-66724500D01*
X104227486Y-66724500D01*
X103949085Y-66761153D01*
X103935007Y-66763007D01*
X103650048Y-66839361D01*
X103650038Y-66839364D01*
X103377499Y-66952254D01*
X103377489Y-66952258D01*
X103122006Y-67099761D01*
X102887959Y-67279352D01*
X102887952Y-67279358D01*
X102679358Y-67487952D01*
X102679352Y-67487959D01*
X102499761Y-67722006D01*
X102352258Y-67977489D01*
X102352254Y-67977499D01*
X102239364Y-68250038D01*
X102239361Y-68250048D01*
X102163008Y-68535004D01*
X102163006Y-68535015D01*
X102124500Y-68827486D01*
X87464253Y-68827486D01*
X87960793Y-67997248D01*
X87962773Y-67994052D01*
X88655196Y-66913296D01*
X88657298Y-66910124D01*
X88752978Y-66770449D01*
X89382710Y-65851152D01*
X89384878Y-65848090D01*
X89884393Y-65165000D01*
X100229551Y-65165000D01*
X100249317Y-65416151D01*
X100308126Y-65661110D01*
X100404533Y-65893859D01*
X100536160Y-66108653D01*
X100536161Y-66108656D01*
X100536164Y-66108659D01*
X100699776Y-66300224D01*
X100848066Y-66426875D01*
X100891343Y-66463838D01*
X100891346Y-66463839D01*
X101106140Y-66595466D01*
X101338889Y-66691873D01*
X101583852Y-66750683D01*
X101835000Y-66770449D01*
X102086148Y-66750683D01*
X102331111Y-66691873D01*
X102563859Y-66595466D01*
X102778659Y-66463836D01*
X102970224Y-66300224D01*
X103133836Y-66108659D01*
X103265466Y-65893859D01*
X103361873Y-65661111D01*
X103420683Y-65416148D01*
X103440449Y-65165000D01*
X119409551Y-65165000D01*
X119429317Y-65416151D01*
X119488126Y-65661110D01*
X119584533Y-65893859D01*
X119716160Y-66108653D01*
X119716161Y-66108656D01*
X119716164Y-66108659D01*
X119879776Y-66300224D01*
X120028066Y-66426875D01*
X120071343Y-66463838D01*
X120071346Y-66463839D01*
X120286140Y-66595466D01*
X120518889Y-66691873D01*
X120763852Y-66750683D01*
X121015000Y-66770449D01*
X121266148Y-66750683D01*
X121511111Y-66691873D01*
X121743859Y-66595466D01*
X121958659Y-66463836D01*
X122150224Y-66300224D01*
X122313836Y-66108659D01*
X122445466Y-65893859D01*
X122541873Y-65661111D01*
X122600683Y-65416148D01*
X122620449Y-65165000D01*
X138409551Y-65165000D01*
X138429317Y-65416151D01*
X138488126Y-65661110D01*
X138584533Y-65893859D01*
X138716160Y-66108653D01*
X138716161Y-66108656D01*
X138716164Y-66108659D01*
X138879776Y-66300224D01*
X139028066Y-66426875D01*
X139071343Y-66463838D01*
X139071346Y-66463839D01*
X139286140Y-66595466D01*
X139518889Y-66691873D01*
X139763852Y-66750683D01*
X140015000Y-66770449D01*
X140266148Y-66750683D01*
X140511111Y-66691873D01*
X140743859Y-66595466D01*
X140958659Y-66463836D01*
X141150224Y-66300224D01*
X141313836Y-66108659D01*
X141445466Y-65893859D01*
X141541873Y-65661111D01*
X141600683Y-65416148D01*
X141620449Y-65165000D01*
X141600683Y-64913852D01*
X141571635Y-64792857D01*
X141575126Y-64723078D01*
X141615789Y-64666260D01*
X141680716Y-64640447D01*
X141749291Y-64653833D01*
X141779890Y-64676232D01*
X141838072Y-64734414D01*
X141978212Y-64836232D01*
X142132555Y-64914873D01*
X142297299Y-64968402D01*
X142468389Y-64995500D01*
X142468390Y-64995500D01*
X142641610Y-64995500D01*
X142641611Y-64995500D01*
X142812701Y-64968402D01*
X142977445Y-64914873D01*
X143131788Y-64836232D01*
X143271928Y-64734414D01*
X143394414Y-64611928D01*
X143496232Y-64471788D01*
X143574873Y-64317445D01*
X143628402Y-64152701D01*
X143655500Y-63981611D01*
X143655500Y-63808389D01*
X143628402Y-63637299D01*
X143574873Y-63472555D01*
X143496232Y-63318212D01*
X143394414Y-63178072D01*
X143271928Y-63055586D01*
X143131788Y-62953768D01*
X142977445Y-62875127D01*
X142812701Y-62821598D01*
X142812699Y-62821597D01*
X142812698Y-62821597D01*
X142681271Y-62800781D01*
X142641611Y-62794500D01*
X142468389Y-62794500D01*
X142428728Y-62800781D01*
X142297302Y-62821597D01*
X142132552Y-62875128D01*
X141978211Y-62953768D01*
X141898256Y-63011859D01*
X141838072Y-63055586D01*
X141838070Y-63055588D01*
X141838069Y-63055588D01*
X141715588Y-63178069D01*
X141715588Y-63178070D01*
X141715586Y-63178072D01*
X141671859Y-63238256D01*
X141613768Y-63318211D01*
X141535128Y-63472552D01*
X141481597Y-63637302D01*
X141454500Y-63808389D01*
X141454500Y-63981611D01*
X141454499Y-63981611D01*
X141464358Y-64043854D01*
X141455403Y-64113147D01*
X141410407Y-64166599D01*
X141343655Y-64187238D01*
X141276341Y-64168513D01*
X141247595Y-64143783D01*
X141150224Y-64029776D01*
X141023571Y-63921604D01*
X140958656Y-63866161D01*
X140958653Y-63866160D01*
X140743859Y-63734533D01*
X140511110Y-63638126D01*
X140266151Y-63579317D01*
X140015000Y-63559551D01*
X139763848Y-63579317D01*
X139518889Y-63638126D01*
X139286140Y-63734533D01*
X139071346Y-63866160D01*
X139071343Y-63866161D01*
X138879776Y-64029776D01*
X138716161Y-64221343D01*
X138716160Y-64221346D01*
X138584533Y-64436140D01*
X138488126Y-64668889D01*
X138429317Y-64913848D01*
X138409551Y-65165000D01*
X122620449Y-65165000D01*
X122600683Y-64913852D01*
X122571635Y-64792857D01*
X122575126Y-64723078D01*
X122615789Y-64666260D01*
X122680716Y-64640447D01*
X122749291Y-64653833D01*
X122779890Y-64676232D01*
X122838072Y-64734414D01*
X122978212Y-64836232D01*
X123132555Y-64914873D01*
X123297299Y-64968402D01*
X123468389Y-64995500D01*
X123468390Y-64995500D01*
X123641610Y-64995500D01*
X123641611Y-64995500D01*
X123812701Y-64968402D01*
X123977445Y-64914873D01*
X124131788Y-64836232D01*
X124271928Y-64734414D01*
X124394414Y-64611928D01*
X124496232Y-64471788D01*
X124574873Y-64317445D01*
X124628402Y-64152701D01*
X124655500Y-63981611D01*
X124655500Y-63808389D01*
X124628402Y-63637299D01*
X124574873Y-63472555D01*
X124496232Y-63318212D01*
X124394414Y-63178072D01*
X124271928Y-63055586D01*
X124131788Y-62953768D01*
X123977445Y-62875127D01*
X123812701Y-62821598D01*
X123812699Y-62821597D01*
X123812698Y-62821597D01*
X123681271Y-62800781D01*
X123641611Y-62794500D01*
X123468389Y-62794500D01*
X123428728Y-62800781D01*
X123297302Y-62821597D01*
X123132552Y-62875128D01*
X122978211Y-62953768D01*
X122898256Y-63011859D01*
X122838072Y-63055586D01*
X122838070Y-63055588D01*
X122838069Y-63055588D01*
X122715588Y-63178069D01*
X122715588Y-63178070D01*
X122715586Y-63178072D01*
X122671859Y-63238256D01*
X122613768Y-63318211D01*
X122535128Y-63472552D01*
X122481597Y-63637302D01*
X122454500Y-63808389D01*
X122454500Y-63981611D01*
X122454499Y-63981611D01*
X122464358Y-64043854D01*
X122455403Y-64113147D01*
X122410407Y-64166599D01*
X122343655Y-64187238D01*
X122276341Y-64168513D01*
X122247595Y-64143783D01*
X122150224Y-64029776D01*
X122023571Y-63921604D01*
X121958656Y-63866161D01*
X121958653Y-63866160D01*
X121743859Y-63734533D01*
X121511110Y-63638126D01*
X121266151Y-63579317D01*
X121015000Y-63559551D01*
X120763848Y-63579317D01*
X120518889Y-63638126D01*
X120286140Y-63734533D01*
X120071346Y-63866160D01*
X120071343Y-63866161D01*
X119879776Y-64029776D01*
X119716161Y-64221343D01*
X119716160Y-64221346D01*
X119584533Y-64436140D01*
X119488126Y-64668889D01*
X119429317Y-64913848D01*
X119409551Y-65165000D01*
X103440449Y-65165000D01*
X103420683Y-64913852D01*
X103391635Y-64792857D01*
X103395126Y-64723078D01*
X103435789Y-64666260D01*
X103500716Y-64640447D01*
X103569291Y-64653833D01*
X103599890Y-64676232D01*
X103658072Y-64734414D01*
X103798212Y-64836232D01*
X103952555Y-64914873D01*
X104117299Y-64968402D01*
X104288389Y-64995500D01*
X104288390Y-64995500D01*
X104461610Y-64995500D01*
X104461611Y-64995500D01*
X104632701Y-64968402D01*
X104797445Y-64914873D01*
X104951788Y-64836232D01*
X105091928Y-64734414D01*
X105214414Y-64611928D01*
X105316232Y-64471788D01*
X105394873Y-64317445D01*
X105448402Y-64152701D01*
X105475500Y-63981611D01*
X105475500Y-63808389D01*
X105448402Y-63637299D01*
X105394873Y-63472555D01*
X105316232Y-63318212D01*
X105214414Y-63178072D01*
X105091928Y-63055586D01*
X104951788Y-62953768D01*
X104797445Y-62875127D01*
X104632701Y-62821598D01*
X104632699Y-62821597D01*
X104632698Y-62821597D01*
X104501271Y-62800781D01*
X104461611Y-62794500D01*
X104288389Y-62794500D01*
X104248728Y-62800781D01*
X104117302Y-62821597D01*
X103952552Y-62875128D01*
X103798211Y-62953768D01*
X103718256Y-63011859D01*
X103658072Y-63055586D01*
X103658070Y-63055588D01*
X103658069Y-63055588D01*
X103535588Y-63178069D01*
X103535588Y-63178070D01*
X103535586Y-63178072D01*
X103491859Y-63238256D01*
X103433768Y-63318211D01*
X103355128Y-63472552D01*
X103301597Y-63637302D01*
X103274500Y-63808389D01*
X103274500Y-63981611D01*
X103274499Y-63981611D01*
X103284358Y-64043854D01*
X103275403Y-64113147D01*
X103230407Y-64166599D01*
X103163655Y-64187238D01*
X103096341Y-64168513D01*
X103067595Y-64143783D01*
X102970224Y-64029776D01*
X102843571Y-63921604D01*
X102778656Y-63866161D01*
X102778653Y-63866160D01*
X102563859Y-63734533D01*
X102331110Y-63638126D01*
X102086151Y-63579317D01*
X101835000Y-63559551D01*
X101583848Y-63579317D01*
X101338889Y-63638126D01*
X101106140Y-63734533D01*
X100891346Y-63866160D01*
X100891343Y-63866161D01*
X100699776Y-64029776D01*
X100536161Y-64221343D01*
X100536160Y-64221346D01*
X100404533Y-64436140D01*
X100308126Y-64668889D01*
X100249317Y-64913848D01*
X100229551Y-65165000D01*
X89884393Y-65165000D01*
X90142530Y-64811997D01*
X90144818Y-64808968D01*
X90934070Y-63796631D01*
X90936385Y-63793755D01*
X91756411Y-62806234D01*
X91758839Y-62803399D01*
X92608930Y-61841553D01*
X92611416Y-61838827D01*
X93490705Y-60903633D01*
X93493300Y-60900957D01*
X94400957Y-59993300D01*
X94403633Y-59990705D01*
X95338827Y-59111416D01*
X95341553Y-59108930D01*
X96303399Y-58258839D01*
X96306234Y-58256411D01*
X97293755Y-57436385D01*
X97296631Y-57434070D01*
X98308985Y-56644804D01*
X98311997Y-56642530D01*
X99348090Y-55884878D01*
X99351152Y-55882710D01*
X100410135Y-55157290D01*
X100413308Y-55155189D01*
X101494052Y-54462773D01*
X101497248Y-54460793D01*
X102598904Y-53801926D01*
X102602110Y-53800076D01*
X103723539Y-53175445D01*
X103726786Y-53173701D01*
X104866918Y-52583899D01*
X104870245Y-52582242D01*
X106027970Y-52027846D01*
X106031405Y-52026267D01*
X107205584Y-51507815D01*
X107209077Y-51506337D01*
X108398695Y-51024278D01*
X108402199Y-51022921D01*
X109606129Y-50577714D01*
X109609692Y-50576458D01*
X110826711Y-50168555D01*
X110830311Y-50167410D01*
X112059348Y-49797167D01*
X112062976Y-49796135D01*
X113302849Y-49463912D01*
X113306487Y-49462998D01*
X114555995Y-49169116D01*
X114559633Y-49168319D01*
X115817599Y-48913056D01*
X115821293Y-48912365D01*
X117086548Y-48695957D01*
X117090206Y-48695389D01*
X118361540Y-48518045D01*
X118365263Y-48517585D01*
X119641408Y-48379481D01*
X119645102Y-48379138D01*
X120924952Y-48280395D01*
X120928682Y-48280165D01*
X122210927Y-48220883D01*
X122214708Y-48220767D01*
X123498117Y-48201002D01*
X123501883Y-48201002D01*
X124785289Y-48220767D01*
G37*
%TD.AperFunction*%
%TA.AperFunction,NonConductor*%
G36*
X140818834Y-115412916D02*
G01*
X140874767Y-115454788D01*
X140899184Y-115520252D01*
X140899500Y-115529098D01*
X140899500Y-118019902D01*
X140879815Y-118086941D01*
X140863181Y-118107583D01*
X139857582Y-119113181D01*
X139796259Y-119146666D01*
X139769901Y-119149500D01*
X138422129Y-119149500D01*
X138422123Y-119149501D01*
X138362516Y-119155908D01*
X138227671Y-119206202D01*
X138227664Y-119206206D01*
X138112455Y-119292452D01*
X138112452Y-119292455D01*
X138026206Y-119407664D01*
X138026203Y-119407669D01*
X137977189Y-119539083D01*
X137935317Y-119595016D01*
X137869853Y-119619433D01*
X137801580Y-119604581D01*
X137773326Y-119583430D01*
X137651402Y-119461506D01*
X137651395Y-119461501D01*
X137457834Y-119325967D01*
X137457830Y-119325965D01*
X137457828Y-119325964D01*
X137243663Y-119226097D01*
X137243659Y-119226096D01*
X137243655Y-119226094D01*
X137182554Y-119209723D01*
X137122894Y-119173359D01*
X137092364Y-119110512D01*
X137100658Y-119041136D01*
X137126963Y-119002270D01*
X140618506Y-115510728D01*
X140618511Y-115510724D01*
X140628714Y-115500520D01*
X140628716Y-115500520D01*
X140687819Y-115441417D01*
X140749142Y-115407932D01*
X140818834Y-115412916D01*
G37*
%TD.AperFunction*%
%TA.AperFunction,NonConductor*%
G36*
X154297865Y-105153435D02*
G01*
X154342382Y-105204811D01*
X154402464Y-105333658D01*
X154402468Y-105333666D01*
X154529170Y-105514615D01*
X154529174Y-105514620D01*
X154685380Y-105670826D01*
X154846623Y-105783729D01*
X154890248Y-105838306D01*
X154899500Y-105885304D01*
X154899500Y-106319902D01*
X154879815Y-106386941D01*
X154863181Y-106407583D01*
X140882180Y-120388584D01*
X140820857Y-120422069D01*
X140751165Y-120417085D01*
X140695232Y-120375213D01*
X140670815Y-120309749D01*
X140670499Y-120300903D01*
X140670499Y-120050098D01*
X140690184Y-119983059D01*
X140706818Y-119962417D01*
X141311342Y-119357893D01*
X141980520Y-118688716D01*
X142059577Y-118551784D01*
X142100501Y-118399057D01*
X142100501Y-118240942D01*
X142100501Y-118233347D01*
X142100500Y-118233329D01*
X142100500Y-105961473D01*
X142120185Y-105894434D01*
X142172989Y-105848679D01*
X142242147Y-105838735D01*
X142276898Y-105849089D01*
X142366550Y-105890894D01*
X142579932Y-105948070D01*
X142733133Y-105961473D01*
X142799998Y-105967323D01*
X142800000Y-105967323D01*
X142800002Y-105967323D01*
X142866867Y-105961473D01*
X143020068Y-105948070D01*
X143233450Y-105890894D01*
X143433662Y-105797534D01*
X143614620Y-105670826D01*
X143770826Y-105514620D01*
X143897534Y-105333662D01*
X143957618Y-105204811D01*
X144003790Y-105152371D01*
X144070983Y-105133219D01*
X144137865Y-105153435D01*
X144182382Y-105204811D01*
X144242464Y-105333658D01*
X144242468Y-105333666D01*
X144369170Y-105514615D01*
X144369175Y-105514621D01*
X144525378Y-105670824D01*
X144525384Y-105670829D01*
X144706333Y-105797531D01*
X144706335Y-105797532D01*
X144706338Y-105797534D01*
X144906550Y-105890894D01*
X145119932Y-105948070D01*
X145273133Y-105961473D01*
X145339998Y-105967323D01*
X145340000Y-105967323D01*
X145340002Y-105967323D01*
X145406867Y-105961473D01*
X145560068Y-105948070D01*
X145773450Y-105890894D01*
X145973662Y-105797534D01*
X146154620Y-105670826D01*
X146310826Y-105514620D01*
X146437534Y-105333662D01*
X146497618Y-105204811D01*
X146543790Y-105152371D01*
X146610983Y-105133219D01*
X146677865Y-105153435D01*
X146722382Y-105204811D01*
X146782464Y-105333658D01*
X146782468Y-105333666D01*
X146909170Y-105514615D01*
X146909175Y-105514621D01*
X147065378Y-105670824D01*
X147065384Y-105670829D01*
X147246333Y-105797531D01*
X147246335Y-105797532D01*
X147246338Y-105797534D01*
X147446550Y-105890894D01*
X147659932Y-105948070D01*
X147813133Y-105961473D01*
X147879998Y-105967323D01*
X147880000Y-105967323D01*
X147880002Y-105967323D01*
X147946867Y-105961473D01*
X148100068Y-105948070D01*
X148313450Y-105890894D01*
X148513662Y-105797534D01*
X148694620Y-105670826D01*
X148850826Y-105514620D01*
X148977534Y-105333662D01*
X149037618Y-105204811D01*
X149083790Y-105152371D01*
X149150983Y-105133219D01*
X149217865Y-105153435D01*
X149262382Y-105204811D01*
X149322464Y-105333658D01*
X149322468Y-105333666D01*
X149449170Y-105514615D01*
X149449175Y-105514621D01*
X149605378Y-105670824D01*
X149605384Y-105670829D01*
X149786333Y-105797531D01*
X149786335Y-105797532D01*
X149786338Y-105797534D01*
X149986550Y-105890894D01*
X150199932Y-105948070D01*
X150353133Y-105961473D01*
X150419998Y-105967323D01*
X150420000Y-105967323D01*
X150420002Y-105967323D01*
X150486867Y-105961473D01*
X150640068Y-105948070D01*
X150853450Y-105890894D01*
X151053662Y-105797534D01*
X151234620Y-105670826D01*
X151390826Y-105514620D01*
X151517534Y-105333662D01*
X151577618Y-105204811D01*
X151623790Y-105152371D01*
X151690983Y-105133219D01*
X151757865Y-105153435D01*
X151802382Y-105204811D01*
X151862464Y-105333658D01*
X151862468Y-105333666D01*
X151989170Y-105514615D01*
X151989175Y-105514621D01*
X152145378Y-105670824D01*
X152145384Y-105670829D01*
X152326333Y-105797531D01*
X152326335Y-105797532D01*
X152326338Y-105797534D01*
X152526550Y-105890894D01*
X152739932Y-105948070D01*
X152893133Y-105961473D01*
X152959998Y-105967323D01*
X152960000Y-105967323D01*
X152960002Y-105967323D01*
X153026867Y-105961473D01*
X153180068Y-105948070D01*
X153393450Y-105890894D01*
X153593662Y-105797534D01*
X153774620Y-105670826D01*
X153930826Y-105514620D01*
X154057534Y-105333662D01*
X154117618Y-105204811D01*
X154163790Y-105152371D01*
X154230983Y-105133219D01*
X154297865Y-105153435D01*
G37*
%TD.AperFunction*%
M02*
