%TF.GenerationSoftware,KiCad,Pcbnew,8.0.9-8.0.9-0~ubuntu24.04.1*%
%TF.CreationDate,2026-06-12T15:15:47+02:00*%
%TF.ProjectId,pcb panda display,70636220-7061-46e6-9461-20646973706c,rev?*%
%TF.SameCoordinates,Original*%
%TF.FileFunction,Legend,Top*%
%TF.FilePolarity,Positive*%
%FSLAX46Y46*%
G04 Gerber Fmt 4.6, Leading zero omitted, Abs format (unit mm)*
G04 Created by KiCad (PCBNEW 8.0.9-8.0.9-0~ubuntu24.04.1) date 2026-06-12 15:15:47*
%MOMM*%
%LPD*%
G01*
G04 APERTURE LIST*
%ADD10C,0.150000*%
%ADD11C,0.100000*%
%ADD12C,0.120000*%
G04 APERTURE END LIST*
D10*
X141104819Y-120833333D02*
X141819104Y-120833333D01*
X141819104Y-120833333D02*
X141961961Y-120880952D01*
X141961961Y-120880952D02*
X142057200Y-120976190D01*
X142057200Y-120976190D02*
X142104819Y-121119047D01*
X142104819Y-121119047D02*
X142104819Y-121214285D01*
X142104819Y-119833333D02*
X142104819Y-120404761D01*
X142104819Y-120119047D02*
X141104819Y-120119047D01*
X141104819Y-120119047D02*
X141247676Y-120214285D01*
X141247676Y-120214285D02*
X141342914Y-120309523D01*
X141342914Y-120309523D02*
X141390533Y-120404761D01*
D11*
X145432419Y-94031904D02*
X146241942Y-94031904D01*
X146241942Y-94031904D02*
X146337180Y-93984285D01*
X146337180Y-93984285D02*
X146384800Y-93936666D01*
X146384800Y-93936666D02*
X146432419Y-93841428D01*
X146432419Y-93841428D02*
X146432419Y-93650952D01*
X146432419Y-93650952D02*
X146384800Y-93555714D01*
X146384800Y-93555714D02*
X146337180Y-93508095D01*
X146337180Y-93508095D02*
X146241942Y-93460476D01*
X146241942Y-93460476D02*
X145432419Y-93460476D01*
X145527657Y-93031904D02*
X145480038Y-92984285D01*
X145480038Y-92984285D02*
X145432419Y-92889047D01*
X145432419Y-92889047D02*
X145432419Y-92650952D01*
X145432419Y-92650952D02*
X145480038Y-92555714D01*
X145480038Y-92555714D02*
X145527657Y-92508095D01*
X145527657Y-92508095D02*
X145622895Y-92460476D01*
X145622895Y-92460476D02*
X145718133Y-92460476D01*
X145718133Y-92460476D02*
X145860990Y-92508095D01*
X145860990Y-92508095D02*
X146432419Y-93079523D01*
X146432419Y-93079523D02*
X146432419Y-92460476D01*
X155732419Y-92466115D02*
X156541942Y-92466115D01*
X156541942Y-92466115D02*
X156637180Y-92418496D01*
X156637180Y-92418496D02*
X156684800Y-92370877D01*
X156684800Y-92370877D02*
X156732419Y-92275639D01*
X156732419Y-92275639D02*
X156732419Y-92085163D01*
X156732419Y-92085163D02*
X156684800Y-91989925D01*
X156684800Y-91989925D02*
X156637180Y-91942306D01*
X156637180Y-91942306D02*
X156541942Y-91894687D01*
X156541942Y-91894687D02*
X155732419Y-91894687D01*
X156684800Y-91466115D02*
X156732419Y-91323258D01*
X156732419Y-91323258D02*
X156732419Y-91085163D01*
X156732419Y-91085163D02*
X156684800Y-90989925D01*
X156684800Y-90989925D02*
X156637180Y-90942306D01*
X156637180Y-90942306D02*
X156541942Y-90894687D01*
X156541942Y-90894687D02*
X156446704Y-90894687D01*
X156446704Y-90894687D02*
X156351466Y-90942306D01*
X156351466Y-90942306D02*
X156303847Y-90989925D01*
X156303847Y-90989925D02*
X156256228Y-91085163D01*
X156256228Y-91085163D02*
X156208609Y-91275639D01*
X156208609Y-91275639D02*
X156160990Y-91370877D01*
X156160990Y-91370877D02*
X156113371Y-91418496D01*
X156113371Y-91418496D02*
X156018133Y-91466115D01*
X156018133Y-91466115D02*
X155922895Y-91466115D01*
X155922895Y-91466115D02*
X155827657Y-91418496D01*
X155827657Y-91418496D02*
X155780038Y-91370877D01*
X155780038Y-91370877D02*
X155732419Y-91275639D01*
X155732419Y-91275639D02*
X155732419Y-91037544D01*
X155732419Y-91037544D02*
X155780038Y-90894687D01*
X156208609Y-90132782D02*
X156256228Y-89989925D01*
X156256228Y-89989925D02*
X156303847Y-89942306D01*
X156303847Y-89942306D02*
X156399085Y-89894687D01*
X156399085Y-89894687D02*
X156541942Y-89894687D01*
X156541942Y-89894687D02*
X156637180Y-89942306D01*
X156637180Y-89942306D02*
X156684800Y-89989925D01*
X156684800Y-89989925D02*
X156732419Y-90085163D01*
X156732419Y-90085163D02*
X156732419Y-90466115D01*
X156732419Y-90466115D02*
X155732419Y-90466115D01*
X155732419Y-90466115D02*
X155732419Y-90132782D01*
X155732419Y-90132782D02*
X155780038Y-90037544D01*
X155780038Y-90037544D02*
X155827657Y-89989925D01*
X155827657Y-89989925D02*
X155922895Y-89942306D01*
X155922895Y-89942306D02*
X156018133Y-89942306D01*
X156018133Y-89942306D02*
X156113371Y-89989925D01*
X156113371Y-89989925D02*
X156160990Y-90037544D01*
X156160990Y-90037544D02*
X156208609Y-90132782D01*
X156208609Y-90132782D02*
X156208609Y-90466115D01*
X156351466Y-89466115D02*
X156351466Y-88704211D01*
X156637180Y-87656592D02*
X156684800Y-87704211D01*
X156684800Y-87704211D02*
X156732419Y-87847068D01*
X156732419Y-87847068D02*
X156732419Y-87942306D01*
X156732419Y-87942306D02*
X156684800Y-88085163D01*
X156684800Y-88085163D02*
X156589561Y-88180401D01*
X156589561Y-88180401D02*
X156494323Y-88228020D01*
X156494323Y-88228020D02*
X156303847Y-88275639D01*
X156303847Y-88275639D02*
X156160990Y-88275639D01*
X156160990Y-88275639D02*
X155970514Y-88228020D01*
X155970514Y-88228020D02*
X155875276Y-88180401D01*
X155875276Y-88180401D02*
X155780038Y-88085163D01*
X155780038Y-88085163D02*
X155732419Y-87942306D01*
X155732419Y-87942306D02*
X155732419Y-87847068D01*
X155732419Y-87847068D02*
X155780038Y-87704211D01*
X155780038Y-87704211D02*
X155827657Y-87656592D01*
X135696704Y-87013734D02*
X135696704Y-86537544D01*
X135982419Y-87108972D02*
X134982419Y-86775639D01*
X134982419Y-86775639D02*
X135982419Y-86442306D01*
X135982419Y-86108972D02*
X134982419Y-86108972D01*
X134982419Y-86108972D02*
X135982419Y-85537544D01*
X135982419Y-85537544D02*
X134982419Y-85537544D01*
X134982419Y-85204210D02*
X134982419Y-84632782D01*
X135982419Y-84918496D02*
X134982419Y-84918496D01*
X136482419Y-99966115D02*
X135482419Y-99966115D01*
X135577657Y-99537544D02*
X135530038Y-99489925D01*
X135530038Y-99489925D02*
X135482419Y-99394687D01*
X135482419Y-99394687D02*
X135482419Y-99156592D01*
X135482419Y-99156592D02*
X135530038Y-99061354D01*
X135530038Y-99061354D02*
X135577657Y-99013735D01*
X135577657Y-99013735D02*
X135672895Y-98966116D01*
X135672895Y-98966116D02*
X135768133Y-98966116D01*
X135768133Y-98966116D02*
X135910990Y-99013735D01*
X135910990Y-99013735D02*
X136482419Y-99585163D01*
X136482419Y-99585163D02*
X136482419Y-98966116D01*
X136387180Y-97966116D02*
X136434800Y-98013735D01*
X136434800Y-98013735D02*
X136482419Y-98156592D01*
X136482419Y-98156592D02*
X136482419Y-98251830D01*
X136482419Y-98251830D02*
X136434800Y-98394687D01*
X136434800Y-98394687D02*
X136339561Y-98489925D01*
X136339561Y-98489925D02*
X136244323Y-98537544D01*
X136244323Y-98537544D02*
X136053847Y-98585163D01*
X136053847Y-98585163D02*
X135910990Y-98585163D01*
X135910990Y-98585163D02*
X135720514Y-98537544D01*
X135720514Y-98537544D02*
X135625276Y-98489925D01*
X135625276Y-98489925D02*
X135530038Y-98394687D01*
X135530038Y-98394687D02*
X135482419Y-98251830D01*
X135482419Y-98251830D02*
X135482419Y-98156592D01*
X135482419Y-98156592D02*
X135530038Y-98013735D01*
X135530038Y-98013735D02*
X135577657Y-97966116D01*
X156958609Y-100632782D02*
X157006228Y-100489925D01*
X157006228Y-100489925D02*
X157053847Y-100442306D01*
X157053847Y-100442306D02*
X157149085Y-100394687D01*
X157149085Y-100394687D02*
X157291942Y-100394687D01*
X157291942Y-100394687D02*
X157387180Y-100442306D01*
X157387180Y-100442306D02*
X157434800Y-100489925D01*
X157434800Y-100489925D02*
X157482419Y-100585163D01*
X157482419Y-100585163D02*
X157482419Y-100966115D01*
X157482419Y-100966115D02*
X156482419Y-100966115D01*
X156482419Y-100966115D02*
X156482419Y-100632782D01*
X156482419Y-100632782D02*
X156530038Y-100537544D01*
X156530038Y-100537544D02*
X156577657Y-100489925D01*
X156577657Y-100489925D02*
X156672895Y-100442306D01*
X156672895Y-100442306D02*
X156768133Y-100442306D01*
X156768133Y-100442306D02*
X156863371Y-100489925D01*
X156863371Y-100489925D02*
X156910990Y-100537544D01*
X156910990Y-100537544D02*
X156958609Y-100632782D01*
X156958609Y-100632782D02*
X156958609Y-100966115D01*
X157196704Y-100013734D02*
X157196704Y-99537544D01*
X157482419Y-100108972D02*
X156482419Y-99775639D01*
X156482419Y-99775639D02*
X157482419Y-99442306D01*
X156482419Y-99251829D02*
X156482419Y-98680401D01*
X157482419Y-98966115D02*
X156482419Y-98966115D01*
D12*
%TO.C,J1*%
X110050000Y-119170000D02*
X110050000Y-121830000D01*
X138050000Y-119170000D02*
X110050000Y-119170000D01*
X138050000Y-119170000D02*
X138050000Y-121830000D01*
X138050000Y-121830000D02*
X110050000Y-121830000D01*
X139320000Y-119170000D02*
X140650000Y-119170000D01*
X140650000Y-119170000D02*
X140650000Y-120500000D01*
%TO.C,U2*%
D11*
X133910000Y-105970000D02*
X159310000Y-105970000D01*
X159310000Y-80570000D01*
X133910000Y-80570000D01*
X133910000Y-105970000D01*
X134110000Y-102270000D02*
X137610000Y-102270000D01*
X137610000Y-96270000D01*
X134110000Y-96270000D01*
X134110000Y-102270000D01*
X134610000Y-88770000D02*
X136110000Y-88770000D01*
X136110000Y-83270000D01*
X134610000Y-83270000D01*
X134610000Y-88770000D01*
X141610000Y-99520000D02*
X146610000Y-99520000D01*
X146610000Y-97020000D01*
X141610000Y-97020000D01*
X141610000Y-99520000D01*
X141610000Y-102770000D02*
X146610000Y-102770000D01*
X146610000Y-100270000D01*
X141610000Y-100270000D01*
X141610000Y-102770000D01*
X142610000Y-93270000D02*
X148610000Y-93270000D01*
X148610000Y-86770000D01*
X142610000Y-86770000D01*
X142610000Y-93270000D01*
X153110000Y-95270000D02*
X159110000Y-95270000D01*
X159110000Y-84770000D01*
X153110000Y-84770000D01*
X153110000Y-95270000D01*
X154110000Y-102770000D02*
X159110000Y-102770000D01*
X159110000Y-96270000D01*
X154110000Y-96270000D01*
X154110000Y-102770000D01*
X145228034Y-98270000D02*
G75*
G02*
X142991966Y-98270000I-1118034J0D01*
G01*
X142991966Y-98270000D02*
G75*
G02*
X145228034Y-98270000I1118034J0D01*
G01*
X145228034Y-101520000D02*
G75*
G02*
X142991966Y-101520000I-1118034J0D01*
G01*
X142991966Y-101520000D02*
G75*
G02*
X145228034Y-101520000I1118034J0D01*
G01*
%TD*%
M02*
