ISO-10303-21;
HEADER;
/* Generated by software containing ST-Developer
 * from STEP Tools, Inc. (www.steptools.com) 
 */
/* OPTION: using custom renumber hook */

FILE_DESCRIPTION(
/* description */ ('STEP AP242 Edition 2',
'CAx-IF Rec.Pracs.---Representation and Presentation of Product Manufa
cturing Information (PMI)---4.0---2014-10-13',
'CAx-IF Rec.Pracs.---3D Tessellated Geometry---0.4---2014-09-14','2;1',
'CAx-IF Rec.Pracs.---User Defined Attributes---1.5---2016-08-15'),
/* implementation_level */ '2;1');

FILE_NAME(
/* name */ 'Part Studio 1 - Tail_Part 5(end)_Black',
/* time_stamp */ '2026-06-21T21:08:51Z',
/* author */ (''),
/* organization */ (''),
/* preprocessor_version */ 'ST-DEVELOPER v20',
/* originating_system */ 'ONSHAPE BY PTC INC, 1.216',
/* authorisation */ '  ');

FILE_SCHEMA (('AP242_MANAGED_MODEL_BASED_3D_ENGINEERING_MIM_LF { 1 0 10303 442 3 1 4 }'));
ENDSEC;

DATA;
#10=SHAPE_REPRESENTATION_RELATIONSHIP('','',#281,#11);
#11=ADVANCED_BREP_SHAPE_REPRESENTATION('',(#279),#535);
#12=ORIENTED_CLOSED_SHELL('',*,#270,.F.);
#13=TOROIDAL_SURFACE('',#300,0.00789222457397533,0.006);
#14=TOROIDAL_SURFACE('',#301,0.0149575814996448,0.006);
#15=TOROIDAL_SURFACE('',#302,0.0199461489834293,0.006);
#16=TOROIDAL_SURFACE('',#320,0.00789222457397533,0.0037);
#17=TOROIDAL_SURFACE('',#321,0.0149575814996448,0.0037);
#18=TOROIDAL_SURFACE('',#322,0.0199461489834293,0.0037);
#19=PLANE('',#295);
#20=PLANE('',#296);
#21=PLANE('',#315);
#22=PLANE('',#316);
#23=B_SPLINE_CURVE_WITH_KNOTS('',3,(#427,#428,#429,#430,#431,#432,#433),
 .UNSPECIFIED.,.F.,.F.,(4,1,1,1,4),(0.,0.00237987000731836,0.00475974001463671,
0.00713961002195507,0.00951948002927343),.UNSPECIFIED.);
#24=B_SPLINE_CURVE_WITH_KNOTS('',3,(#438,#439,#440,#441,#442,#443,#444),
 .UNSPECIFIED.,.F.,.F.,(4,1,1,1,4),(0.,0.00248702079377251,0.00497404158754502,
0.00746106238131753,0.00994808317509004),.UNSPECIFIED.);
#25=B_SPLINE_CURVE_WITH_KNOTS('',3,(#462,#463,#464,#465,#466,#467,#468),
 .UNSPECIFIED.,.F.,.F.,(4,1,1,1,4),(0.,0.00234451957648603,0.00468903915297207,
0.0070335587294581,0.00937807830594414),.UNSPECIFIED.);
#26=B_SPLINE_CURVE_WITH_KNOTS('',3,(#470,#471,#472,#473,#474,#475,#476),
 .UNSPECIFIED.,.F.,.F.,(4,1,1,1,4),(0.,0.00234337094134076,0.00468674188268152,
0.00703011282402228,0.00937348376536304),.UNSPECIFIED.);
#27=B_SPLINE_CURVE_WITH_KNOTS('',3,(#491,#492,#493,#494,#495),
 .UNSPECIFIED.,.F.,.F.,(4,1,4),(0.,0.00293383607202031,0.00586767214404063),
 .UNSPECIFIED.);
#28=B_SPLINE_CURVE_WITH_KNOTS('',3,(#500,#501,#502,#503,#504),
 .UNSPECIFIED.,.F.,.F.,(4,1,4),(0.,0.00289971860592322,0.00579943721184644),
 .UNSPECIFIED.);
#29=B_SPLINE_CURVE_WITH_KNOTS('',3,(#522,#523,#524,#525,#526),
 .UNSPECIFIED.,.F.,.F.,(4,1,4),(-3.63090099892201E-5,0.00285549365283073,
0.00574729631565067),.UNSPECIFIED.);
#30=B_SPLINE_CURVE_WITH_KNOTS('',3,(#528,#529,#530,#531,#532),
 .UNSPECIFIED.,.F.,.F.,(4,1,4),(-0.00011169468901629,0.00277852146828053,
0.00566873762557735),.UNSPECIFIED.);
#31=CIRCLE('',#284,0.0138922245739753);
#32=CIRCLE('',#285,0.0138922245739753);
#33=CIRCLE('',#287,0.0180565229410642);
#34=CIRCLE('',#288,0.0180565229410642);
#35=CIRCLE('',#290,0.0259461489834293);
#36=CIRCLE('',#291,0.0259461489834293);
#37=CIRCLE('',#293,0.0209575814996448);
#38=CIRCLE('',#294,0.0209575814996448);
#39=CIRCLE('',#297,0.0149575814996448);
#40=CIRCLE('',#298,0.0199461489834293);
#41=CIRCLE('',#299,0.00789222457397533);
#42=CIRCLE('',#304,0.0115922245739753);
#43=CIRCLE('',#305,0.0115922245739753);
#44=CIRCLE('',#307,0.0157565229410642);
#45=CIRCLE('',#308,0.0157565229410642);
#46=CIRCLE('',#310,0.0236461489834293);
#47=CIRCLE('',#311,0.0236461489834293);
#48=CIRCLE('',#313,0.0186575814996448);
#49=CIRCLE('',#314,0.0186575814996448);
#50=CIRCLE('',#317,0.0149575814996448);
#51=CIRCLE('',#318,0.00789222457397533);
#52=CIRCLE('',#319,0.0199461489834293);
#53=ORIENTED_EDGE('',*,*,#129,.T.);
#54=ORIENTED_EDGE('',*,*,#130,.T.);
#55=ORIENTED_EDGE('',*,*,#131,.F.);
#56=ORIENTED_EDGE('',*,*,#132,.F.);
#57=ORIENTED_EDGE('',*,*,#133,.T.);
#58=ORIENTED_EDGE('',*,*,#134,.T.);
#59=ORIENTED_EDGE('',*,*,#135,.F.);
#60=ORIENTED_EDGE('',*,*,#136,.F.);
#61=ORIENTED_EDGE('',*,*,#131,.T.);
#62=ORIENTED_EDGE('',*,*,#137,.T.);
#63=ORIENTED_EDGE('',*,*,#135,.T.);
#64=ORIENTED_EDGE('',*,*,#138,.T.);
#65=ORIENTED_EDGE('',*,*,#139,.F.);
#66=ORIENTED_EDGE('',*,*,#140,.F.);
#67=ORIENTED_EDGE('',*,*,#139,.T.);
#68=ORIENTED_EDGE('',*,*,#141,.T.);
#69=ORIENTED_EDGE('',*,*,#129,.F.);
#70=ORIENTED_EDGE('',*,*,#142,.F.);
#71=ORIENTED_EDGE('',*,*,#132,.T.);
#72=ORIENTED_EDGE('',*,*,#136,.T.);
#73=ORIENTED_EDGE('',*,*,#140,.T.);
#74=ORIENTED_EDGE('',*,*,#142,.T.);
#75=ORIENTED_EDGE('',*,*,#143,.T.);
#76=ORIENTED_EDGE('',*,*,#144,.T.);
#77=ORIENTED_EDGE('',*,*,#133,.F.);
#78=ORIENTED_EDGE('',*,*,#145,.T.);
#79=ORIENTED_EDGE('',*,*,#137,.F.);
#80=ORIENTED_EDGE('',*,*,#130,.F.);
#81=ORIENTED_EDGE('',*,*,#146,.F.);
#82=ORIENTED_EDGE('',*,*,#145,.F.);
#83=ORIENTED_EDGE('',*,*,#146,.T.);
#84=ORIENTED_EDGE('',*,*,#141,.F.);
#85=ORIENTED_EDGE('',*,*,#147,.F.);
#86=ORIENTED_EDGE('',*,*,#143,.F.);
#87=ORIENTED_EDGE('',*,*,#134,.F.);
#88=ORIENTED_EDGE('',*,*,#144,.F.);
#89=ORIENTED_EDGE('',*,*,#147,.T.);
#90=ORIENTED_EDGE('',*,*,#138,.F.);
#91=ORIENTED_EDGE('',*,*,#148,.F.);
#92=ORIENTED_EDGE('',*,*,#149,.T.);
#93=ORIENTED_EDGE('',*,*,#150,.T.);
#94=ORIENTED_EDGE('',*,*,#151,.F.);
#95=ORIENTED_EDGE('',*,*,#152,.F.);
#96=ORIENTED_EDGE('',*,*,#153,.F.);
#97=ORIENTED_EDGE('',*,*,#150,.F.);
#98=ORIENTED_EDGE('',*,*,#154,.T.);
#99=ORIENTED_EDGE('',*,*,#155,.T.);
#100=ORIENTED_EDGE('',*,*,#156,.F.);
#101=ORIENTED_EDGE('',*,*,#155,.F.);
#102=ORIENTED_EDGE('',*,*,#157,.T.);
#103=ORIENTED_EDGE('',*,*,#158,.T.);
#104=ORIENTED_EDGE('',*,*,#159,.F.);
#105=ORIENTED_EDGE('',*,*,#158,.F.);
#106=ORIENTED_EDGE('',*,*,#160,.T.);
#107=ORIENTED_EDGE('',*,*,#148,.T.);
#108=ORIENTED_EDGE('',*,*,#161,.F.);
#109=ORIENTED_EDGE('',*,*,#149,.F.);
#110=ORIENTED_EDGE('',*,*,#160,.F.);
#111=ORIENTED_EDGE('',*,*,#157,.F.);
#112=ORIENTED_EDGE('',*,*,#154,.F.);
#113=ORIENTED_EDGE('',*,*,#162,.F.);
#114=ORIENTED_EDGE('',*,*,#163,.F.);
#115=ORIENTED_EDGE('',*,*,#152,.T.);
#116=ORIENTED_EDGE('',*,*,#164,.F.);
#117=ORIENTED_EDGE('',*,*,#153,.T.);
#118=ORIENTED_EDGE('',*,*,#163,.T.);
#119=ORIENTED_EDGE('',*,*,#165,.T.);
#120=ORIENTED_EDGE('',*,*,#151,.T.);
#121=ORIENTED_EDGE('',*,*,#165,.F.);
#122=ORIENTED_EDGE('',*,*,#162,.T.);
#123=ORIENTED_EDGE('',*,*,#166,.T.);
#124=ORIENTED_EDGE('',*,*,#161,.T.);
#125=ORIENTED_EDGE('',*,*,#156,.T.);
#126=ORIENTED_EDGE('',*,*,#159,.T.);
#127=ORIENTED_EDGE('',*,*,#166,.F.);
#128=ORIENTED_EDGE('',*,*,#164,.T.);
#129=EDGE_CURVE('',#167,#168,#191,.T.);
#130=EDGE_CURVE('',#168,#169,#31,.T.);
#131=EDGE_CURVE('',#170,#169,#192,.T.);
#132=EDGE_CURVE('',#167,#170,#32,.T.);
#133=EDGE_CURVE('',#171,#172,#33,.T.);
#134=EDGE_CURVE('',#172,#173,#23,.T.);
#135=EDGE_CURVE('',#174,#173,#193,.T.);
#136=EDGE_CURVE('',#170,#174,#34,.T.);
#137=EDGE_CURVE('',#169,#171,#24,.T.);
#138=EDGE_CURVE('',#173,#175,#35,.T.);
#139=EDGE_CURVE('',#176,#175,#194,.T.);
#140=EDGE_CURVE('',#174,#176,#36,.T.);
#141=EDGE_CURVE('',#175,#168,#37,.T.);
#142=EDGE_CURVE('',#176,#167,#38,.T.);
#143=EDGE_CURVE('',#177,#178,#39,.F.);
#144=EDGE_CURVE('',#178,#172,#40,.F.);
#145=EDGE_CURVE('',#171,#177,#41,.F.);
#146=EDGE_CURVE('',#177,#168,#25,.F.);
#147=EDGE_CURVE('',#178,#175,#26,.F.);
#148=EDGE_CURVE('',#179,#180,#195,.T.);
#149=EDGE_CURVE('',#179,#181,#42,.T.);
#150=EDGE_CURVE('',#181,#182,#196,.T.);
#151=EDGE_CURVE('',#180,#182,#43,.F.);
#152=EDGE_CURVE('',#183,#184,#44,.T.);
#153=EDGE_CURVE('',#182,#183,#27,.T.);
#154=EDGE_CURVE('',#181,#185,#45,.T.);
#155=EDGE_CURVE('',#185,#186,#197,.T.);
#156=EDGE_CURVE('',#184,#186,#28,.T.);
#157=EDGE_CURVE('',#185,#187,#46,.T.);
#158=EDGE_CURVE('',#187,#188,#198,.T.);
#159=EDGE_CURVE('',#186,#188,#47,.F.);
#160=EDGE_CURVE('',#187,#179,#48,.T.);
#161=EDGE_CURVE('',#188,#180,#49,.F.);
#162=EDGE_CURVE('',#189,#190,#50,.F.);
#163=EDGE_CURVE('',#183,#189,#51,.F.);
#164=EDGE_CURVE('',#190,#184,#52,.F.);
#165=EDGE_CURVE('',#189,#180,#29,.T.);
#166=EDGE_CURVE('',#190,#188,#30,.T.);
#167=VERTEX_POINT('',#416);
#168=VERTEX_POINT('',#417);
#169=VERTEX_POINT('',#419);
#170=VERTEX_POINT('',#421);
#171=VERTEX_POINT('',#425);
#172=VERTEX_POINT('',#426);
#173=VERTEX_POINT('',#434);
#174=VERTEX_POINT('',#436);
#175=VERTEX_POINT('',#447);
#176=VERTEX_POINT('',#449);
#177=VERTEX_POINT('',#457);
#178=VERTEX_POINT('',#458);
#179=VERTEX_POINT('',#480);
#180=VERTEX_POINT('',#481);
#181=VERTEX_POINT('',#483);
#182=VERTEX_POINT('',#485);
#183=VERTEX_POINT('',#489);
#184=VERTEX_POINT('',#490);
#185=VERTEX_POINT('',#497);
#186=VERTEX_POINT('',#499);
#187=VERTEX_POINT('',#507);
#188=VERTEX_POINT('',#509);
#189=VERTEX_POINT('',#517);
#190=VERTEX_POINT('',#518);
#191=LINE('',#415,#199);
#192=LINE('',#420,#200);
#193=LINE('',#435,#201);
#194=LINE('',#448,#202);
#195=LINE('',#479,#203);
#196=LINE('',#484,#204);
#197=LINE('',#498,#205);
#198=LINE('',#508,#206);
#199=VECTOR('',#327,1.);
#200=VECTOR('',#330,1.);
#201=VECTOR('',#337,1.);
#202=VECTOR('',#344,1.);
#203=VECTOR('',#371,1.);
#204=VECTOR('',#374,1.);
#205=VECTOR('',#383,1.);
#206=VECTOR('',#388,1.);
#207=EDGE_LOOP('',(#53,#54,#55,#56));
#208=EDGE_LOOP('',(#57,#58,#59,#60,#61,#62));
#209=EDGE_LOOP('',(#63,#64,#65,#66));
#210=EDGE_LOOP('',(#67,#68,#69,#70));
#211=EDGE_LOOP('',(#71,#72,#73,#74));
#212=EDGE_LOOP('',(#75,#76,#77,#78));
#213=EDGE_LOOP('',(#79,#80,#81,#82));
#214=EDGE_LOOP('',(#83,#84,#85,#86));
#215=EDGE_LOOP('',(#87,#88,#89,#90));
#216=EDGE_LOOP('',(#91,#92,#93,#94));
#217=EDGE_LOOP('',(#95,#96,#97,#98,#99,#100));
#218=EDGE_LOOP('',(#101,#102,#103,#104));
#219=EDGE_LOOP('',(#105,#106,#107,#108));
#220=EDGE_LOOP('',(#109,#110,#111,#112));
#221=EDGE_LOOP('',(#113,#114,#115,#116));
#222=EDGE_LOOP('',(#117,#118,#119,#120));
#223=EDGE_LOOP('',(#121,#122,#123,#124));
#224=EDGE_LOOP('',(#125,#126,#127,#128));
#225=FACE_BOUND('',#207,.T.);
#226=FACE_BOUND('',#208,.T.);
#227=FACE_BOUND('',#209,.T.);
#228=FACE_BOUND('',#210,.T.);
#229=FACE_BOUND('',#211,.T.);
#230=FACE_BOUND('',#212,.T.);
#231=FACE_BOUND('',#213,.T.);
#232=FACE_BOUND('',#214,.T.);
#233=FACE_BOUND('',#215,.T.);
#234=FACE_BOUND('',#216,.T.);
#235=FACE_BOUND('',#217,.T.);
#236=FACE_BOUND('',#218,.T.);
#237=FACE_BOUND('',#219,.T.);
#238=FACE_BOUND('',#220,.T.);
#239=FACE_BOUND('',#221,.T.);
#240=FACE_BOUND('',#222,.T.);
#241=FACE_BOUND('',#223,.T.);
#242=FACE_BOUND('',#224,.T.);
#243=CYLINDRICAL_SURFACE('',#283,0.0138922245739753);
#244=CYLINDRICAL_SURFACE('',#286,0.0180565229410642);
#245=CYLINDRICAL_SURFACE('',#289,0.0259461489834293);
#246=CYLINDRICAL_SURFACE('',#292,0.0209575814996448);
#247=CYLINDRICAL_SURFACE('',#303,0.0115922245739753);
#248=CYLINDRICAL_SURFACE('',#306,0.0157565229410642);
#249=CYLINDRICAL_SURFACE('',#309,0.0236461489834293);
#250=CYLINDRICAL_SURFACE('',#312,0.0186575814996448);
#251=ADVANCED_FACE('Face appearance 4',(#225),#243,.T.);
#252=ADVANCED_FACE('Face appearance 4',(#226),#244,.T.);
#253=ADVANCED_FACE('Face appearance 4',(#227),#245,.T.);
#254=ADVANCED_FACE('Face appearance 4',(#228),#246,.T.);
#255=ADVANCED_FACE('Face appearance 4',(#229),#19,.T.);
#256=ADVANCED_FACE('Face appearance 4',(#230),#20,.F.);
#257=ADVANCED_FACE('',(#231),#13,.T.);
#258=ADVANCED_FACE('',(#232),#14,.T.);
#259=ADVANCED_FACE('',(#233),#15,.T.);
#260=ADVANCED_FACE('',(#234),#247,.F.);
#261=ADVANCED_FACE('',(#235),#248,.F.);
#262=ADVANCED_FACE('',(#236),#249,.F.);
#263=ADVANCED_FACE('',(#237),#250,.F.);
#264=ADVANCED_FACE('',(#238),#21,.F.);
#265=ADVANCED_FACE('',(#239),#22,.T.);
#266=ADVANCED_FACE('',(#240),#16,.F.);
#267=ADVANCED_FACE('',(#241),#17,.F.);
#268=ADVANCED_FACE('',(#242),#18,.F.);
#269=CLOSED_SHELL('',(#251,#252,#253,#254,#255,#256,#257,#258,#259));
#270=CLOSED_SHELL('',(#260,#261,#262,#263,#264,#265,#266,#267,#268));
#271=STYLED_ITEM('',(#272),#279);
#272=PRESENTATION_STYLE_ASSIGNMENT((#273));
#273=SURFACE_STYLE_USAGE(.BOTH.,#274);
#274=SURFACE_SIDE_STYLE('',(#275));
#275=SURFACE_STYLE_FILL_AREA(#276);
#276=FILL_AREA_STYLE('',(#277));
#277=FILL_AREA_STYLE_COLOUR('',#278);
#278=DRAUGHTING_PRE_DEFINED_COLOUR('black');
#279=BREP_WITH_VOIDS('Tail_Part 5(end)_Black',#269,(#12));
#280=SHAPE_DEFINITION_REPRESENTATION(#540,#281);
#281=SHAPE_REPRESENTATION('Tail_Part 5(end)_Black',(#282),#535);
#282=AXIS2_PLACEMENT_3D('',#413,#323,#324);
#283=AXIS2_PLACEMENT_3D('',#414,#325,#326);
#284=AXIS2_PLACEMENT_3D('',#418,#328,#329);
#285=AXIS2_PLACEMENT_3D('',#422,#331,#332);
#286=AXIS2_PLACEMENT_3D('',#423,#333,#334);
#287=AXIS2_PLACEMENT_3D('',#424,#335,#336);
#288=AXIS2_PLACEMENT_3D('',#437,#338,#339);
#289=AXIS2_PLACEMENT_3D('',#445,#340,#341);
#290=AXIS2_PLACEMENT_3D('',#446,#342,#343);
#291=AXIS2_PLACEMENT_3D('',#450,#345,#346);
#292=AXIS2_PLACEMENT_3D('',#451,#347,#348);
#293=AXIS2_PLACEMENT_3D('',#452,#349,#350);
#294=AXIS2_PLACEMENT_3D('',#453,#351,#352);
#295=AXIS2_PLACEMENT_3D('',#454,#353,#354);
#296=AXIS2_PLACEMENT_3D('',#455,#355,#356);
#297=AXIS2_PLACEMENT_3D('',#456,#357,#358);
#298=AXIS2_PLACEMENT_3D('',#459,#359,#360);
#299=AXIS2_PLACEMENT_3D('',#460,#361,#362);
#300=AXIS2_PLACEMENT_3D('',#461,#363,#364);
#301=AXIS2_PLACEMENT_3D('',#469,#365,#366);
#302=AXIS2_PLACEMENT_3D('',#477,#367,#368);
#303=AXIS2_PLACEMENT_3D('',#478,#369,#370);
#304=AXIS2_PLACEMENT_3D('',#482,#372,#373);
#305=AXIS2_PLACEMENT_3D('',#486,#375,#376);
#306=AXIS2_PLACEMENT_3D('',#487,#377,#378);
#307=AXIS2_PLACEMENT_3D('',#488,#379,#380);
#308=AXIS2_PLACEMENT_3D('',#496,#381,#382);
#309=AXIS2_PLACEMENT_3D('',#505,#384,#385);
#310=AXIS2_PLACEMENT_3D('',#506,#386,#387);
#311=AXIS2_PLACEMENT_3D('',#510,#389,#390);
#312=AXIS2_PLACEMENT_3D('',#511,#391,#392);
#313=AXIS2_PLACEMENT_3D('',#512,#393,#394);
#314=AXIS2_PLACEMENT_3D('',#513,#395,#396);
#315=AXIS2_PLACEMENT_3D('',#514,#397,#398);
#316=AXIS2_PLACEMENT_3D('',#515,#399,#400);
#317=AXIS2_PLACEMENT_3D('',#516,#401,#402);
#318=AXIS2_PLACEMENT_3D('',#519,#403,#404);
#319=AXIS2_PLACEMENT_3D('',#520,#405,#406);
#320=AXIS2_PLACEMENT_3D('',#521,#407,#408);
#321=AXIS2_PLACEMENT_3D('',#527,#409,#410);
#322=AXIS2_PLACEMENT_3D('',#533,#411,#412);
#323=DIRECTION('',(0.,0.,1.));
#324=DIRECTION('',(1.,0.,0.));
#325=DIRECTION('',(0.,0.,-1.));
#326=DIRECTION('',(-1.,0.,0.));
#327=DIRECTION('',(0.,0.,-1.));
#328=DIRECTION('',(0.,0.,1.));
#329=DIRECTION('',(1.,0.,0.));
#330=DIRECTION('',(0.,0.,-1.));
#331=DIRECTION('',(0.,0.,1.));
#332=DIRECTION('',(1.,0.,0.));
#333=DIRECTION('',(0.,0.,-1.));
#334=DIRECTION('',(-1.,0.,0.));
#335=DIRECTION('',(0.,0.,1.));
#336=DIRECTION('',(1.,0.,0.));
#337=DIRECTION('',(0.,0.,-1.));
#338=DIRECTION('',(0.,0.,1.));
#339=DIRECTION('',(1.,0.,0.));
#340=DIRECTION('',(0.,0.,-1.));
#341=DIRECTION('',(-1.,0.,0.));
#342=DIRECTION('',(0.,0.,1.));
#343=DIRECTION('',(1.,0.,0.));
#344=DIRECTION('',(0.,0.,-1.));
#345=DIRECTION('',(0.,0.,1.));
#346=DIRECTION('',(1.,0.,0.));
#347=DIRECTION('',(0.,0.,-1.));
#348=DIRECTION('',(-1.,0.,0.));
#349=DIRECTION('',(0.,0.,1.));
#350=DIRECTION('',(1.,0.,0.));
#351=DIRECTION('',(0.,0.,1.));
#352=DIRECTION('',(1.,0.,0.));
#353=DIRECTION('',(0.,0.,1.));
#354=DIRECTION('',(1.,0.,0.));
#355=DIRECTION('',(0.,0.,1.));
#356=DIRECTION('',(1.,0.,0.));
#357=DIRECTION('',(0.,0.,1.));
#358=DIRECTION('',(1.,0.,0.));
#359=DIRECTION('',(0.,0.,1.));
#360=DIRECTION('',(1.,0.,0.));
#361=DIRECTION('',(0.,0.,1.));
#362=DIRECTION('',(1.,0.,0.));
#363=DIRECTION('',(0.,0.,1.));
#364=DIRECTION('',(1.,0.,0.));
#365=DIRECTION('',(0.,0.,1.));
#366=DIRECTION('',(1.,0.,0.));
#367=DIRECTION('',(0.,0.,1.));
#368=DIRECTION('',(1.,0.,0.));
#369=DIRECTION('',(0.,0.,-1.));
#370=DIRECTION('',(-1.,0.,0.));
#371=DIRECTION('',(0.,0.,-1.));
#372=DIRECTION('',(0.,0.,1.));
#373=DIRECTION('',(1.,0.,0.));
#374=DIRECTION('',(0.,0.,-1.));
#375=DIRECTION('',(0.,0.,-1.));
#376=DIRECTION('',(-1.,0.,0.));
#377=DIRECTION('',(0.,0.,-1.));
#378=DIRECTION('',(-1.,0.,0.));
#379=DIRECTION('',(0.,0.,1.));
#380=DIRECTION('',(1.,0.,0.));
#381=DIRECTION('',(0.,0.,1.));
#382=DIRECTION('',(1.,0.,0.));
#383=DIRECTION('',(0.,0.,-1.));
#384=DIRECTION('',(0.,0.,-1.));
#385=DIRECTION('',(-1.,0.,0.));
#386=DIRECTION('',(0.,0.,1.));
#387=DIRECTION('',(1.,0.,0.));
#388=DIRECTION('',(0.,0.,-1.));
#389=DIRECTION('',(0.,0.,-1.));
#390=DIRECTION('',(-1.,0.,0.));
#391=DIRECTION('',(0.,0.,-1.));
#392=DIRECTION('',(-1.,0.,0.));
#393=DIRECTION('',(0.,0.,1.));
#394=DIRECTION('',(1.,0.,0.));
#395=DIRECTION('',(0.,0.,-1.));
#396=DIRECTION('',(-1.,0.,0.));
#397=DIRECTION('',(0.,0.,1.));
#398=DIRECTION('',(1.,0.,0.));
#399=DIRECTION('',(0.,0.,1.));
#400=DIRECTION('',(1.,0.,0.));
#401=DIRECTION('',(0.,0.,1.));
#402=DIRECTION('',(1.,0.,0.));
#403=DIRECTION('',(0.,0.,1.));
#404=DIRECTION('',(1.,0.,0.));
#405=DIRECTION('',(0.,0.,1.));
#406=DIRECTION('',(1.,0.,0.));
#407=DIRECTION('',(0.,0.,1.));
#408=DIRECTION('',(1.,0.,0.));
#409=DIRECTION('',(0.,0.,1.));
#410=DIRECTION('',(1.,0.,0.));
#411=DIRECTION('',(0.,0.,1.));
#412=DIRECTION('',(1.,0.,0.));
#413=CARTESIAN_POINT('',(0.,0.,0.));
#414=CARTESIAN_POINT('',(0.271557936518341,-0.150339852344405,0.02));
#415=CARTESIAN_POINT('',(0.274384811228003,-0.136738283207364,0.02));
#416=CARTESIAN_POINT('',(0.274384811228003,-0.136738283207364,0.02));
#417=CARTESIAN_POINT('',(0.274384811228003,-0.136738283207364,-0.029));
#418=CARTESIAN_POINT('',(0.271557936518341,-0.150339852344405,-0.029));
#419=CARTESIAN_POINT('',(0.268155318830342,-0.136870773070635,-0.029));
#420=CARTESIAN_POINT('',(0.268155318830342,-0.136870773070635,0.02));
#421=CARTESIAN_POINT('',(0.268155318830342,-0.136870773070635,0.02));
#422=CARTESIAN_POINT('',(0.271557936518341,-0.150339852344405,0.02));
#423=CARTESIAN_POINT('',(0.285514891770404,-0.141838996904147,0.02));
#424=CARTESIAN_POINT('',(0.285514891770404,-0.141838996904147,-0.035));
#425=CARTESIAN_POINT('',(0.267539363974291,-0.143547335621255,-0.035));
#426=CARTESIAN_POINT('',(0.286752685784383,-0.15985304383148,-0.035));
#427=CARTESIAN_POINT('',(0.286752685784383,-0.15985304383148,-0.035));
#428=CARTESIAN_POINT('',(0.287556032107633,-0.159797843727134,-0.035));
#429=CARTESIAN_POINT('',(0.289126937308465,-0.159578487361178,-0.0346813189757658));
#430=CARTESIAN_POINT('',(0.291109072103227,-0.159037562683407,-0.0333659041844673));
#431=CARTESIAN_POINT('',(0.29244044531537,-0.158523537530405,-0.0313947305798654));
#432=CARTESIAN_POINT('',(0.292765201596766,-0.158375956362976,-0.029805537348258));
#433=CARTESIAN_POINT('',(0.292765201596766,-0.158375956362976,-0.029));
#434=CARTESIAN_POINT('',(0.292765201596766,-0.158375956362976,-0.029));
#435=CARTESIAN_POINT('',(0.292765201596766,-0.158375956362976,0.02));
#436=CARTESIAN_POINT('',(0.292765201596766,-0.158375956362976,0.02));
#437=CARTESIAN_POINT('',(0.285514891770404,-0.141838996904147,0.02));
#438=CARTESIAN_POINT('',(0.268155318830342,-0.136870773070635,-0.029));
#439=CARTESIAN_POINT('',(0.268155318830342,-0.136870773070635,-0.0298419285249229));
#440=CARTESIAN_POINT('',(0.268034406666394,-0.137269843697821,-0.0314920679799289));
#441=CARTESIAN_POINT('',(0.267671849435547,-0.138846581641409,-0.0334702093492141));
#442=CARTESIAN_POINT('',(0.267422691815341,-0.14105248681681,-0.0347135386224764));
#443=CARTESIAN_POINT('',(0.267459892669728,-0.142711120513636,-0.035));
#444=CARTESIAN_POINT('',(0.267539363974291,-0.143547335621255,-0.035));
#445=CARTESIAN_POINT('',(0.266825935691084,-0.158973561035526,0.02));
#446=CARTESIAN_POINT('',(0.266825935691084,-0.158973561035526,-0.029));
#447=CARTESIAN_POINT('',(0.291895915731151,-0.152287848817599,-0.029));
#448=CARTESIAN_POINT('',(0.291895915731151,-0.152287848817599,0.02));
#449=CARTESIAN_POINT('',(0.291895915731151,-0.152287848817599,0.02));
#450=CARTESIAN_POINT('',(0.266825935691084,-0.158973561035526,0.02));
#451=CARTESIAN_POINT('',(0.271599363257649,-0.157509934608221,0.02));
#452=CARTESIAN_POINT('',(0.271599363257649,-0.157509934608221,-0.029));
#453=CARTESIAN_POINT('',(0.271599363257649,-0.157509934608221,0.02));
#454=CARTESIAN_POINT('',(0.233402002858431,-0.141733597313975,0.02));
#455=CARTESIAN_POINT('',(0.233402002858431,-0.141733597313975,-0.035));
#456=CARTESIAN_POINT('',(0.271599363257649,-0.157509934608221,-0.035));
#457=CARTESIAN_POINT('',(0.27336187650859,-0.142656558178642,-0.035));
#458=CARTESIAN_POINT('',(0.286091590046405,-0.153807961212615,-0.035));
#459=CARTESIAN_POINT('',(0.266825935691084,-0.158973561035526,-0.035));
#460=CARTESIAN_POINT('',(0.271557936518341,-0.150339852344405,-0.035));
#461=CARTESIAN_POINT('',(0.271557936518341,-0.150339852344405,-0.029));
#462=CARTESIAN_POINT('',(0.274384811228003,-0.136738283207364,-0.029));
#463=CARTESIAN_POINT('',(0.274384811228003,-0.136738283207364,-0.0297927606239432));
#464=CARTESIAN_POINT('',(0.274332188260454,-0.137046688686102,-0.0313543131182747));
#465=CARTESIAN_POINT('',(0.27410674057599,-0.13836452107259,-0.0333539173500221));
#466=CARTESIAN_POINT('',(0.273769511988796,-0.14032451300426,-0.0346850009785477));
#467=CARTESIAN_POINT('',(0.273497421376631,-0.141886890036792,-0.035));
#468=CARTESIAN_POINT('',(0.27336187650859,-0.142656558178642,-0.035));
#469=CARTESIAN_POINT('',(0.271599363257649,-0.157509934608221,-0.029));
#470=CARTESIAN_POINT('',(0.291895915731151,-0.152287848817599,-0.029));
#471=CARTESIAN_POINT('',(0.291895915731151,-0.152287848817599,-0.0297923702118427));
#472=CARTESIAN_POINT('',(0.291593763119948,-0.152367008503574,-0.031353159270345));
#473=CARTESIAN_POINT('',(0.290302322985818,-0.1527053194671,-0.033352541887883));
#474=CARTESIAN_POINT('',(0.28838010078052,-0.153208789242984,-0.0346844992225543));
#475=CARTESIAN_POINT('',(0.28684730372831,-0.153610131226251,-0.035));
#476=CARTESIAN_POINT('',(0.286091590046405,-0.153807961212615,-0.035));
#477=CARTESIAN_POINT('',(0.266825935691084,-0.158973561035526,-0.029));
#478=CARTESIAN_POINT('',(0.271557936518341,-0.150339852344405,0.02));
#479=CARTESIAN_POINT('',(0.273996105287753,-0.13900693552545,0.02));
#480=CARTESIAN_POINT('',(0.273996105287753,-0.13900693552545,0.0177));
#481=CARTESIAN_POINT('',(0.273996105287753,-0.13900693552545,-0.029));
#482=CARTESIAN_POINT('',(0.271557936518341,-0.150339852344405,0.0177));
#483=CARTESIAN_POINT('',(0.270045095962231,-0.138846768161938,0.0177));
#484=CARTESIAN_POINT('',(0.270045095962231,-0.138846768161938,0.0177));
#485=CARTESIAN_POINT('',(0.270045095962231,-0.138846768161938,-0.029));
#486=CARTESIAN_POINT('',(0.271557936518341,-0.150339852344405,-0.029));
#487=CARTESIAN_POINT('',(0.285514891770404,-0.141838996904147,0.02));
#488=CARTESIAN_POINT('',(0.285514891770404,-0.141838996904147,-0.0327));
#489=CARTESIAN_POINT('',(0.269779288446488,-0.142650663846094,-0.0327));
#490=CARTESIAN_POINT('',(0.286721168168261,-0.15754927737409,-0.0327));
#491=CARTESIAN_POINT('',(0.270045095962231,-0.138846768161938,-0.029));
#492=CARTESIAN_POINT('',(0.270045095962231,-0.138846768161938,-0.0299924468939259));
#493=CARTESIAN_POINT('',(0.269849937450449,-0.139708686748652,-0.0319119134506337));
#494=CARTESIAN_POINT('',(0.269728194575667,-0.141660118534993,-0.0327));
#495=CARTESIAN_POINT('',(0.269779288446488,-0.142650663846094,-0.0327));
#496=CARTESIAN_POINT('',(0.285514891770404,-0.141838996904147,0.0177));
#497=CARTESIAN_POINT('',(0.290374489130001,-0.156827403380317,0.0177));
#498=CARTESIAN_POINT('',(0.290374489130001,-0.156827403380317,0.0177));
#499=CARTESIAN_POINT('',(0.290374489130001,-0.156827403380317,-0.029));
#500=CARTESIAN_POINT('',(0.286721168168261,-0.15754927737409,-0.0327));
#501=CARTESIAN_POINT('',(0.287699030043103,-0.157474194583414,-0.0327));
#502=CARTESIAN_POINT('',(0.289587313708902,-0.15711148530196,-0.0318942190030533));
#503=CARTESIAN_POINT('',(0.290374489130001,-0.156827403380317,-0.0299806978735975));
#504=CARTESIAN_POINT('',(0.290374489130001,-0.156827403380317,-0.029));
#505=CARTESIAN_POINT('',(0.266825935691084,-0.158973561035526,0.02));
#506=CARTESIAN_POINT('',(0.266825935691084,-0.158973561035526,0.0177));
#507=CARTESIAN_POINT('',(0.289670961928748,-0.152870681555561,0.0177));
#508=CARTESIAN_POINT('',(0.289670961928749,-0.152870681555561,0.02));
#509=CARTESIAN_POINT('',(0.289670961928748,-0.15287068155556,-0.029));
#510=CARTESIAN_POINT('',(0.266825935691084,-0.158973561035526,-0.029));
#511=CARTESIAN_POINT('',(0.271599363257649,-0.157509934608221,0.02));
#512=CARTESIAN_POINT('',(0.271599363257649,-0.157509934608221,0.0177));
#513=CARTESIAN_POINT('',(0.271599363257649,-0.157509934608221,-0.029));
#514=CARTESIAN_POINT('',(0.233402002858431,-0.141733597313975,0.0177));
#515=CARTESIAN_POINT('',(0.233402002858431,-0.141733597313975,-0.0327));
#516=CARTESIAN_POINT('',(0.271599363257649,-0.157509934608221,-0.0327));
#517=CARTESIAN_POINT('',(0.27336187650859,-0.142656558178642,-0.0327));
#518=CARTESIAN_POINT('',(0.286091590046405,-0.153807961212615,-0.0327));
#519=CARTESIAN_POINT('',(0.271557936518341,-0.150339852344405,-0.0327));
#520=CARTESIAN_POINT('',(0.266825935691084,-0.158973561035526,-0.0327));
#521=CARTESIAN_POINT('',(0.271557936518341,-0.150339852344405,-0.029));
#522=CARTESIAN_POINT('',(0.27336187650859,-0.142656558178642,-0.0327));
#523=CARTESIAN_POINT('',(0.273529070356169,-0.141707222816839,-0.0327));
#524=CARTESIAN_POINT('',(0.273860611284761,-0.13979672299854,-0.0318957798916079));
#525=CARTESIAN_POINT('',(0.273996105287754,-0.13900693552545,-0.0299777719388486));
#526=CARTESIAN_POINT('',(0.273996105287754,-0.13900693552545,-0.029));
#527=CARTESIAN_POINT('',(0.271599363257649,-0.157509934608221,-0.029));
#528=CARTESIAN_POINT('',(0.286091590046405,-0.153807961212615,-0.0327));
#529=CARTESIAN_POINT('',(0.28702369673234,-0.153563955981891,-0.0327));
#530=CARTESIAN_POINT('',(0.288897108785276,-0.153073387080403,-0.0318947457531811));
#531=CARTESIAN_POINT('',(0.289670961928748,-0.152870681555559,-0.0299772757076763));
#532=CARTESIAN_POINT('',(0.289670961928748,-0.152870681555559,-0.029));
#533=CARTESIAN_POINT('',(0.266825935691084,-0.158973561035526,-0.029));
#534=MECHANICAL_DESIGN_GEOMETRIC_PRESENTATION_REPRESENTATION('',(#271),
#535);
#535=(
GEOMETRIC_REPRESENTATION_CONTEXT(3)
GLOBAL_UNCERTAINTY_ASSIGNED_CONTEXT((#536))
GLOBAL_UNIT_ASSIGNED_CONTEXT((#539,#538,#537))
REPRESENTATION_CONTEXT('Tail_Part 5(end)_Black',
'TOP_LEVEL_ASSEMBLY_PART')
);
#536=UNCERTAINTY_MEASURE_WITH_UNIT(LENGTH_MEASURE(2.E-5),#539,
'DISTANCE_ACCURACY_VALUE','Maximum Tolerance applied to model');
#537=(
NAMED_UNIT(*)
SI_UNIT($,.STERADIAN.)
SOLID_ANGLE_UNIT()
);
#538=(
NAMED_UNIT(*)
PLANE_ANGLE_UNIT()
SI_UNIT($,.RADIAN.)
);
#539=(
LENGTH_UNIT()
NAMED_UNIT(*)
SI_UNIT($,.METRE.)
);
#540=PRODUCT_DEFINITION_SHAPE('','',#541);
#541=PRODUCT_DEFINITION('','',#543,#542);
#542=PRODUCT_DEFINITION_CONTEXT('',#549,'design');
#543=PRODUCT_DEFINITION_FORMATION_WITH_SPECIFIED_SOURCE('','',#545,
 .NOT_KNOWN.);
#544=PRODUCT_RELATED_PRODUCT_CATEGORY('','',(#545));
#545=PRODUCT('Tail_Part 5(end)_Black','Tail_Part 5(end)_Black',
'Tail_Part 5(end)_Black',(#547));
#546=PRODUCT_CATEGORY('','');
#547=PRODUCT_CONTEXT('',#549,'mechanical');
#548=APPLICATION_PROTOCOL_DEFINITION('international standard',
'ap242_managed_model_based_3d_engineering',2020,#549);
#549=APPLICATION_CONTEXT('managed model based 3d engineering');
ENDSEC;
END-ISO-10303-21;
