ISO-10303-21;
HEADER;
/* Generated by software containing ST-Developer
 * from STEP Tools, Inc. (www.steptools.com) 
 */
/* OPTION: using custom renumber hook */

FILE_DESCRIPTION(
/* description */ ('STEP AP242 Edition 2',
'CAx-IF Rec.Pracs.---Representation and Presentation of Product Manufa
cturing Information (PMI)---4.0---2014-10-13',
'CAx-IF Rec.Pracs.---3D Tessellated Geometry---0.4---2014-09-14','2;1',
'CAx-IF Rec.Pracs.---User Defined Attributes---1.5---2016-08-15'),
/* implementation_level */ '2;1');

FILE_NAME(
/* name */ 'Part Studio 1 - Tail_Part 6_Red',
/* time_stamp */ '2026-06-21T21:08:51Z',
/* author */ (''),
/* organization */ (''),
/* preprocessor_version */ 'ST-DEVELOPER v20',
/* originating_system */ 'ONSHAPE BY PTC INC, 1.216',
/* authorisation */ '  ');

FILE_SCHEMA (('AP242_MANAGED_MODEL_BASED_3D_ENGINEERING_MIM_LF { 1 0 10303 442 3 1 4 }'));
ENDSEC;

DATA;
#10=SHAPE_REPRESENTATION_RELATIONSHIP('','',#265,#11);
#11=ADVANCED_BREP_SHAPE_REPRESENTATION('',(#263),#519);
#12=ORIENTED_CLOSED_SHELL('',*,#254,.F.);
#13=TOROIDAL_SURFACE('',#283,0.0331922294933286,0.006);
#14=TOROIDAL_SURFACE('',#284,0.0678670778329995,0.006);
#15=TOROIDAL_SURFACE('',#301,0.0331922294933286,0.0037);
#16=TOROIDAL_SURFACE('',#302,0.0678670778329995,0.0037);
#17=PLANE('',#279);
#18=PLANE('',#280);
#19=PLANE('',#297);
#20=PLANE('',#298);
#21=B_SPLINE_CURVE_WITH_KNOTS('',3,(#396,#397,#398,#399,#400,#401,#402,
#403,#404,#405,#406,#407),.UNSPECIFIED.,.F.,.F.,(4,1,1,1,1,1,1,1,1,4),(0.,
0.000963508954307445,0.00192701790861489,0.00289052686292234,0.00385403581722978,
0.00578105372584467,0.00770807163445956,0.00963508954307445,0.0115621074516893,
0.0154161432689191),.UNSPECIFIED.);
#22=B_SPLINE_CURVE_WITH_KNOTS('',3,(#411,#412,#413,#414,#415,#416,#417),
 .UNSPECIFIED.,.F.,.F.,(4,1,1,1,4),(0.,0.00257577142634232,0.00515154285268464,
0.00772731427902696,0.0103030857053693),.UNSPECIFIED.);
#23=B_SPLINE_CURVE_WITH_KNOTS('',3,(#432,#433,#434,#435,#436,#437,#438,
#439,#440),.UNSPECIFIED.,.F.,.F.,(4,1,1,1,1,1,4),(0.,0.00319652563912051,
0.00639305127824101,0.00799131409780126,0.00958957691736152,0.0111878397369218,
0.012786102556482),.UNSPECIFIED.);
#24=B_SPLINE_CURVE_WITH_KNOTS('',3,(#442,#443,#444,#445,#446,#447,#448),
 .UNSPECIFIED.,.F.,.F.,(4,1,1,1,4),(0.,0.00267091094959672,0.00534182189919345,
0.00801273284879017,0.0106836437983869),.UNSPECIFIED.);
#25=B_SPLINE_CURVE_WITH_KNOTS('',3,(#469,#470,#471,#472,#473,#474),
 .UNSPECIFIED.,.F.,.F.,(4,1,1,4),(0.,0.00321641290075478,0.00482461935113217,
0.00643282580150956),.UNSPECIFIED.);
#26=B_SPLINE_CURVE_WITH_KNOTS('',3,(#478,#479,#480,#481,#482,#483,#484,
#485,#486,#487,#488),.UNSPECIFIED.,.F.,.F.,(4,1,1,1,1,1,1,1,4),(0.,0.000621711059168832,
0.00124342211833766,0.00248684423667533,0.00373026635501299,0.00497368847335066,
0.00621711059168832,0.00746053271002598,0.00994737694670131),
 .UNSPECIFIED.);
#27=B_SPLINE_CURVE_WITH_KNOTS('',3,(#499,#500,#501,#502,#503),
 .UNSPECIFIED.,.F.,.F.,(4,1,4),(0.,0.00302259227947666,0.00604518455895332),
 .UNSPECIFIED.);
#28=B_SPLINE_CURVE_WITH_KNOTS('',3,(#505,#506,#507,#508,#509,#510,#511),
 .UNSPECIFIED.,.F.,.F.,(4,1,1,1,4),(0.,0.00174261368412796,0.00348522736825593,
0.00522784105238389,0.00697045473651186),.UNSPECIFIED.);
#29=CIRCLE('',#268,0.0391922294933286);
#30=CIRCLE('',#269,0.0391922294933286);
#31=CIRCLE('',#271,0.0155673900060736);
#32=CIRCLE('',#272,0.0155673900060736);
#33=CIRCLE('',#274,0.0618670778329995);
#34=CIRCLE('',#275,0.0618670778329995);
#35=CIRCLE('',#277,0.0147786111268304);
#36=CIRCLE('',#278,0.0147786111268304);
#37=CIRCLE('',#281,0.0331922294933286);
#38=CIRCLE('',#282,0.0678670778329995);
#39=CIRCLE('',#286,0.0368922294933286);
#40=CIRCLE('',#287,0.0368922294933286);
#41=CIRCLE('',#289,0.0132673900060736);
#42=CIRCLE('',#290,0.0132673900060736);
#43=CIRCLE('',#292,0.0641670778329995);
#44=CIRCLE('',#293,0.0641670778329995);
#45=CIRCLE('',#295,0.0170786111268304);
#46=CIRCLE('',#296,0.0170786111268304);
#47=CIRCLE('',#299,0.0678670778329995);
#48=CIRCLE('',#300,0.0331922294933286);
#49=ORIENTED_EDGE('',*,*,#121,.T.);
#50=ORIENTED_EDGE('',*,*,#122,.T.);
#51=ORIENTED_EDGE('',*,*,#123,.F.);
#52=ORIENTED_EDGE('',*,*,#124,.F.);
#53=ORIENTED_EDGE('',*,*,#123,.T.);
#54=ORIENTED_EDGE('',*,*,#125,.T.);
#55=ORIENTED_EDGE('',*,*,#126,.T.);
#56=ORIENTED_EDGE('',*,*,#127,.T.);
#57=ORIENTED_EDGE('',*,*,#128,.F.);
#58=ORIENTED_EDGE('',*,*,#129,.F.);
#59=ORIENTED_EDGE('',*,*,#128,.T.);
#60=ORIENTED_EDGE('',*,*,#130,.T.);
#61=ORIENTED_EDGE('',*,*,#131,.F.);
#62=ORIENTED_EDGE('',*,*,#132,.T.);
#63=ORIENTED_EDGE('',*,*,#133,.F.);
#64=ORIENTED_EDGE('',*,*,#134,.T.);
#65=ORIENTED_EDGE('',*,*,#121,.F.);
#66=ORIENTED_EDGE('',*,*,#135,.T.);
#67=ORIENTED_EDGE('',*,*,#131,.T.);
#68=ORIENTED_EDGE('',*,*,#136,.T.);
#69=ORIENTED_EDGE('',*,*,#124,.T.);
#70=ORIENTED_EDGE('',*,*,#129,.T.);
#71=ORIENTED_EDGE('',*,*,#132,.F.);
#72=ORIENTED_EDGE('',*,*,#135,.F.);
#73=ORIENTED_EDGE('',*,*,#126,.F.);
#74=ORIENTED_EDGE('',*,*,#137,.T.);
#75=ORIENTED_EDGE('',*,*,#133,.T.);
#76=ORIENTED_EDGE('',*,*,#138,.T.);
#77=ORIENTED_EDGE('',*,*,#134,.F.);
#78=ORIENTED_EDGE('',*,*,#137,.F.);
#79=ORIENTED_EDGE('',*,*,#125,.F.);
#80=ORIENTED_EDGE('',*,*,#122,.F.);
#81=ORIENTED_EDGE('',*,*,#136,.F.);
#82=ORIENTED_EDGE('',*,*,#130,.F.);
#83=ORIENTED_EDGE('',*,*,#127,.F.);
#84=ORIENTED_EDGE('',*,*,#138,.F.);
#85=ORIENTED_EDGE('',*,*,#139,.F.);
#86=ORIENTED_EDGE('',*,*,#140,.T.);
#87=ORIENTED_EDGE('',*,*,#141,.T.);
#88=ORIENTED_EDGE('',*,*,#142,.F.);
#89=ORIENTED_EDGE('',*,*,#141,.F.);
#90=ORIENTED_EDGE('',*,*,#143,.T.);
#91=ORIENTED_EDGE('',*,*,#144,.T.);
#92=ORIENTED_EDGE('',*,*,#145,.F.);
#93=ORIENTED_EDGE('',*,*,#146,.F.);
#94=ORIENTED_EDGE('',*,*,#147,.F.);
#95=ORIENTED_EDGE('',*,*,#144,.F.);
#96=ORIENTED_EDGE('',*,*,#148,.F.);
#97=ORIENTED_EDGE('',*,*,#149,.T.);
#98=ORIENTED_EDGE('',*,*,#150,.F.);
#99=ORIENTED_EDGE('',*,*,#151,.T.);
#100=ORIENTED_EDGE('',*,*,#152,.F.);
#101=ORIENTED_EDGE('',*,*,#149,.F.);
#102=ORIENTED_EDGE('',*,*,#153,.F.);
#103=ORIENTED_EDGE('',*,*,#139,.T.);
#104=ORIENTED_EDGE('',*,*,#154,.F.);
#105=ORIENTED_EDGE('',*,*,#140,.F.);
#106=ORIENTED_EDGE('',*,*,#153,.T.);
#107=ORIENTED_EDGE('',*,*,#148,.T.);
#108=ORIENTED_EDGE('',*,*,#143,.F.);
#109=ORIENTED_EDGE('',*,*,#146,.T.);
#110=ORIENTED_EDGE('',*,*,#155,.F.);
#111=ORIENTED_EDGE('',*,*,#151,.F.);
#112=ORIENTED_EDGE('',*,*,#156,.F.);
#113=ORIENTED_EDGE('',*,*,#154,.T.);
#114=ORIENTED_EDGE('',*,*,#142,.T.);
#115=ORIENTED_EDGE('',*,*,#147,.T.);
#116=ORIENTED_EDGE('',*,*,#156,.T.);
#117=ORIENTED_EDGE('',*,*,#152,.T.);
#118=ORIENTED_EDGE('',*,*,#155,.T.);
#119=ORIENTED_EDGE('',*,*,#145,.T.);
#120=ORIENTED_EDGE('',*,*,#150,.T.);
#121=EDGE_CURVE('',#157,#158,#181,.T.);
#122=EDGE_CURVE('',#158,#159,#29,.T.);
#123=EDGE_CURVE('',#160,#159,#182,.T.);
#124=EDGE_CURVE('',#157,#160,#30,.T.);
#125=EDGE_CURVE('',#159,#161,#21,.T.);
#126=EDGE_CURVE('',#161,#162,#31,.T.);
#127=EDGE_CURVE('',#162,#163,#22,.T.);
#128=EDGE_CURVE('',#164,#163,#183,.T.);
#129=EDGE_CURVE('',#160,#164,#32,.T.);
#130=EDGE_CURVE('',#163,#165,#33,.F.);
#131=EDGE_CURVE('',#166,#165,#184,.T.);
#132=EDGE_CURVE('',#166,#164,#34,.T.);
#133=EDGE_CURVE('',#167,#168,#35,.T.);
#134=EDGE_CURVE('',#167,#158,#23,.T.);
#135=EDGE_CURVE('',#157,#166,#36,.T.);
#136=EDGE_CURVE('',#165,#168,#24,.T.);
#137=EDGE_CURVE('',#161,#167,#37,.F.);
#138=EDGE_CURVE('',#168,#162,#38,.T.);
#139=EDGE_CURVE('',#169,#170,#185,.T.);
#140=EDGE_CURVE('',#169,#171,#39,.T.);
#141=EDGE_CURVE('',#171,#172,#186,.T.);
#142=EDGE_CURVE('',#170,#172,#40,.F.);
#143=EDGE_CURVE('',#171,#173,#41,.T.);
#144=EDGE_CURVE('',#173,#174,#187,.T.);
#145=EDGE_CURVE('',#175,#174,#25,.T.);
#146=EDGE_CURVE('',#176,#175,#42,.T.);
#147=EDGE_CURVE('',#172,#176,#26,.T.);
#148=EDGE_CURVE('',#177,#173,#43,.T.);
#149=EDGE_CURVE('',#177,#178,#188,.T.);
#150=EDGE_CURVE('',#174,#178,#44,.T.);
#151=EDGE_CURVE('',#179,#180,#45,.T.);
#152=EDGE_CURVE('',#178,#180,#27,.T.);
#153=EDGE_CURVE('',#169,#177,#46,.T.);
#154=EDGE_CURVE('',#179,#170,#28,.T.);
#155=EDGE_CURVE('',#180,#175,#47,.T.);
#156=EDGE_CURVE('',#176,#179,#48,.F.);
#157=VERTEX_POINT('',#388);
#158=VERTEX_POINT('',#389);
#159=VERTEX_POINT('',#391);
#160=VERTEX_POINT('',#393);
#161=VERTEX_POINT('',#408);
#162=VERTEX_POINT('',#410);
#163=VERTEX_POINT('',#418);
#164=VERTEX_POINT('',#420);
#165=VERTEX_POINT('',#424);
#166=VERTEX_POINT('',#426);
#167=VERTEX_POINT('',#430);
#168=VERTEX_POINT('',#431);
#169=VERTEX_POINT('',#457);
#170=VERTEX_POINT('',#458);
#171=VERTEX_POINT('',#460);
#172=VERTEX_POINT('',#462);
#173=VERTEX_POINT('',#466);
#174=VERTEX_POINT('',#468);
#175=VERTEX_POINT('',#475);
#176=VERTEX_POINT('',#477);
#177=VERTEX_POINT('',#491);
#178=VERTEX_POINT('',#493);
#179=VERTEX_POINT('',#497);
#180=VERTEX_POINT('',#498);
#181=LINE('',#387,#189);
#182=LINE('',#392,#190);
#183=LINE('',#419,#191);
#184=LINE('',#425,#192);
#185=LINE('',#456,#193);
#186=LINE('',#461,#194);
#187=LINE('',#467,#195);
#188=LINE('',#492,#196);
#189=VECTOR('',#307,1.);
#190=VECTOR('',#310,1.);
#191=VECTOR('',#317,1.);
#192=VECTOR('',#324,1.);
#193=VECTOR('',#347,1.);
#194=VECTOR('',#350,1.);
#195=VECTOR('',#357,1.);
#196=VECTOR('',#364,1.);
#197=EDGE_LOOP('',(#49,#50,#51,#52));
#198=EDGE_LOOP('',(#53,#54,#55,#56,#57,#58));
#199=EDGE_LOOP('',(#59,#60,#61,#62));
#200=EDGE_LOOP('',(#63,#64,#65,#66,#67,#68));
#201=EDGE_LOOP('',(#69,#70,#71,#72));
#202=EDGE_LOOP('',(#73,#74,#75,#76));
#203=EDGE_LOOP('',(#77,#78,#79,#80));
#204=EDGE_LOOP('',(#81,#82,#83,#84));
#205=EDGE_LOOP('',(#85,#86,#87,#88));
#206=EDGE_LOOP('',(#89,#90,#91,#92,#93,#94));
#207=EDGE_LOOP('',(#95,#96,#97,#98));
#208=EDGE_LOOP('',(#99,#100,#101,#102,#103,#104));
#209=EDGE_LOOP('',(#105,#106,#107,#108));
#210=EDGE_LOOP('',(#109,#110,#111,#112));
#211=EDGE_LOOP('',(#113,#114,#115,#116));
#212=EDGE_LOOP('',(#117,#118,#119,#120));
#213=FACE_BOUND('',#197,.T.);
#214=FACE_BOUND('',#198,.T.);
#215=FACE_BOUND('',#199,.T.);
#216=FACE_BOUND('',#200,.T.);
#217=FACE_BOUND('',#201,.T.);
#218=FACE_BOUND('',#202,.T.);
#219=FACE_BOUND('',#203,.T.);
#220=FACE_BOUND('',#204,.T.);
#221=FACE_BOUND('',#205,.T.);
#222=FACE_BOUND('',#206,.T.);
#223=FACE_BOUND('',#207,.T.);
#224=FACE_BOUND('',#208,.T.);
#225=FACE_BOUND('',#209,.T.);
#226=FACE_BOUND('',#210,.T.);
#227=FACE_BOUND('',#211,.T.);
#228=FACE_BOUND('',#212,.T.);
#229=CYLINDRICAL_SURFACE('',#267,0.0391922294933286);
#230=CYLINDRICAL_SURFACE('',#270,0.0155673900060736);
#231=CYLINDRICAL_SURFACE('',#273,0.0618670778329995);
#232=CYLINDRICAL_SURFACE('',#276,0.0147786111268304);
#233=CYLINDRICAL_SURFACE('',#285,0.0368922294933286);
#234=CYLINDRICAL_SURFACE('',#288,0.0132673900060736);
#235=CYLINDRICAL_SURFACE('',#291,0.0641670778329995);
#236=CYLINDRICAL_SURFACE('',#294,0.0170786111268304);
#237=ADVANCED_FACE('Face appearance 5',(#213),#229,.T.);
#238=ADVANCED_FACE('Face appearance 5',(#214),#230,.T.);
#239=ADVANCED_FACE('Face appearance 5',(#215),#231,.F.);
#240=ADVANCED_FACE('Face appearance 5',(#216),#232,.F.);
#241=ADVANCED_FACE('Face appearance 5',(#217),#17,.T.);
#242=ADVANCED_FACE('Face appearance 5',(#218),#18,.F.);
#243=ADVANCED_FACE('',(#219),#13,.T.);
#244=ADVANCED_FACE('',(#220),#14,.T.);
#245=ADVANCED_FACE('',(#221),#233,.F.);
#246=ADVANCED_FACE('',(#222),#234,.F.);
#247=ADVANCED_FACE('',(#223),#235,.T.);
#248=ADVANCED_FACE('',(#224),#236,.T.);
#249=ADVANCED_FACE('',(#225),#19,.F.);
#250=ADVANCED_FACE('',(#226),#20,.T.);
#251=ADVANCED_FACE('',(#227),#15,.F.);
#252=ADVANCED_FACE('',(#228),#16,.F.);
#253=CLOSED_SHELL('',(#237,#238,#239,#240,#241,#242,#243,#244));
#254=CLOSED_SHELL('',(#245,#246,#247,#248,#249,#250,#251,#252));
#255=STYLED_ITEM('',(#256),#263);
#256=PRESENTATION_STYLE_ASSIGNMENT((#257));
#257=SURFACE_STYLE_USAGE(.BOTH.,#258);
#258=SURFACE_SIDE_STYLE('',(#259));
#259=SURFACE_STYLE_FILL_AREA(#260);
#260=FILL_AREA_STYLE('',(#261));
#261=FILL_AREA_STYLE_COLOUR('',#262);
#262=COLOUR_RGB('',0.458823529411765,0.105882352941176,0.);
#263=BREP_WITH_VOIDS('Tail_Part 6_Red',#253,(#12));
#264=SHAPE_DEFINITION_REPRESENTATION(#524,#265);
#265=SHAPE_REPRESENTATION('Tail_Part 6_Red',(#266),#519);
#266=AXIS2_PLACEMENT_3D('',#385,#303,#304);
#267=AXIS2_PLACEMENT_3D('',#386,#305,#306);
#268=AXIS2_PLACEMENT_3D('',#390,#308,#309);
#269=AXIS2_PLACEMENT_3D('',#394,#311,#312);
#270=AXIS2_PLACEMENT_3D('',#395,#313,#314);
#271=AXIS2_PLACEMENT_3D('',#409,#315,#316);
#272=AXIS2_PLACEMENT_3D('',#421,#318,#319);
#273=AXIS2_PLACEMENT_3D('',#422,#320,#321);
#274=AXIS2_PLACEMENT_3D('',#423,#322,#323);
#275=AXIS2_PLACEMENT_3D('',#427,#325,#326);
#276=AXIS2_PLACEMENT_3D('',#428,#327,#328);
#277=AXIS2_PLACEMENT_3D('',#429,#329,#330);
#278=AXIS2_PLACEMENT_3D('',#441,#331,#332);
#279=AXIS2_PLACEMENT_3D('',#449,#333,#334);
#280=AXIS2_PLACEMENT_3D('',#450,#335,#336);
#281=AXIS2_PLACEMENT_3D('',#451,#337,#338);
#282=AXIS2_PLACEMENT_3D('',#452,#339,#340);
#283=AXIS2_PLACEMENT_3D('',#453,#341,#342);
#284=AXIS2_PLACEMENT_3D('',#454,#343,#344);
#285=AXIS2_PLACEMENT_3D('',#455,#345,#346);
#286=AXIS2_PLACEMENT_3D('',#459,#348,#349);
#287=AXIS2_PLACEMENT_3D('',#463,#351,#352);
#288=AXIS2_PLACEMENT_3D('',#464,#353,#354);
#289=AXIS2_PLACEMENT_3D('',#465,#355,#356);
#290=AXIS2_PLACEMENT_3D('',#476,#358,#359);
#291=AXIS2_PLACEMENT_3D('',#489,#360,#361);
#292=AXIS2_PLACEMENT_3D('',#490,#362,#363);
#293=AXIS2_PLACEMENT_3D('',#494,#365,#366);
#294=AXIS2_PLACEMENT_3D('',#495,#367,#368);
#295=AXIS2_PLACEMENT_3D('',#496,#369,#370);
#296=AXIS2_PLACEMENT_3D('',#504,#371,#372);
#297=AXIS2_PLACEMENT_3D('',#512,#373,#374);
#298=AXIS2_PLACEMENT_3D('',#513,#375,#376);
#299=AXIS2_PLACEMENT_3D('',#514,#377,#378);
#300=AXIS2_PLACEMENT_3D('',#515,#379,#380);
#301=AXIS2_PLACEMENT_3D('',#516,#381,#382);
#302=AXIS2_PLACEMENT_3D('',#517,#383,#384);
#303=DIRECTION('',(0.,0.,1.));
#304=DIRECTION('',(1.,0.,0.));
#305=DIRECTION('',(0.,0.,-1.));
#306=DIRECTION('',(-1.,0.,0.));
#307=DIRECTION('',(0.,0.,-1.));
#308=DIRECTION('',(0.,0.,1.));
#309=DIRECTION('',(1.,0.,0.));
#310=DIRECTION('',(0.,0.,-1.));
#311=DIRECTION('',(0.,0.,1.));
#312=DIRECTION('',(1.,0.,0.));
#313=DIRECTION('',(0.,0.,-1.));
#314=DIRECTION('',(-1.,0.,0.));
#315=DIRECTION('',(0.,0.,1.));
#316=DIRECTION('',(1.,0.,0.));
#317=DIRECTION('',(0.,0.,-1.));
#318=DIRECTION('',(0.,0.,1.));
#319=DIRECTION('',(1.,0.,0.));
#320=DIRECTION('',(0.,0.,-1.));
#321=DIRECTION('',(-1.,0.,0.));
#322=DIRECTION('',(0.,0.,1.));
#323=DIRECTION('',(1.,0.,0.));
#324=DIRECTION('',(0.,0.,-1.));
#325=DIRECTION('',(0.,0.,1.));
#326=DIRECTION('',(1.,0.,0.));
#327=DIRECTION('',(0.,0.,-1.));
#328=DIRECTION('',(-1.,0.,0.));
#329=DIRECTION('',(0.,0.,1.));
#330=DIRECTION('',(1.,0.,0.));
#331=DIRECTION('',(0.,0.,1.));
#332=DIRECTION('',(1.,0.,0.));
#333=DIRECTION('',(0.,0.,1.));
#334=DIRECTION('',(1.,0.,0.));
#335=DIRECTION('',(0.,0.,1.));
#336=DIRECTION('',(1.,0.,0.));
#337=DIRECTION('',(0.,0.,1.));
#338=DIRECTION('',(1.,0.,0.));
#339=DIRECTION('',(0.,0.,1.));
#340=DIRECTION('',(1.,0.,0.));
#341=DIRECTION('',(0.,0.,1.));
#342=DIRECTION('',(1.,0.,0.));
#343=DIRECTION('',(0.,0.,1.));
#344=DIRECTION('',(1.,0.,0.));
#345=DIRECTION('',(0.,0.,-1.));
#346=DIRECTION('',(-1.,0.,0.));
#347=DIRECTION('',(0.,0.,-1.));
#348=DIRECTION('',(0.,0.,1.));
#349=DIRECTION('',(1.,0.,0.));
#350=DIRECTION('',(0.,0.,-1.));
#351=DIRECTION('',(0.,0.,-1.));
#352=DIRECTION('',(-1.,0.,0.));
#353=DIRECTION('',(0.,0.,-1.));
#354=DIRECTION('',(-1.,0.,0.));
#355=DIRECTION('',(0.,0.,1.));
#356=DIRECTION('',(1.,0.,0.));
#357=DIRECTION('',(0.,0.,-1.));
#358=DIRECTION('',(0.,0.,1.));
#359=DIRECTION('',(1.,0.,0.));
#360=DIRECTION('',(0.,0.,-1.));
#361=DIRECTION('',(-1.,0.,0.));
#362=DIRECTION('',(0.,0.,1.));
#363=DIRECTION('',(1.,0.,0.));
#364=DIRECTION('',(0.,0.,-1.));
#365=DIRECTION('',(0.,0.,-1.));
#366=DIRECTION('',(-1.,0.,0.));
#367=DIRECTION('',(0.,0.,-1.));
#368=DIRECTION('',(-1.,0.,0.));
#369=DIRECTION('',(0.,0.,1.));
#370=DIRECTION('',(1.,0.,0.));
#371=DIRECTION('',(0.,0.,1.));
#372=DIRECTION('',(1.,0.,0.));
#373=DIRECTION('',(0.,0.,1.));
#374=DIRECTION('',(1.,0.,0.));
#375=DIRECTION('',(0.,0.,1.));
#376=DIRECTION('',(1.,0.,0.));
#377=DIRECTION('',(0.,0.,1.));
#378=DIRECTION('',(1.,0.,0.));
#379=DIRECTION('',(0.,0.,1.));
#380=DIRECTION('',(1.,0.,0.));
#381=DIRECTION('',(0.,0.,1.));
#382=DIRECTION('',(1.,0.,0.));
#383=DIRECTION('',(0.,0.,1.));
#384=DIRECTION('',(1.,0.,0.));
#385=CARTESIAN_POINT('',(0.,0.,0.));
#386=CARTESIAN_POINT('',(0.175070208290117,-0.134604813630976,0.02));
#387=CARTESIAN_POINT('',(0.210987675569207,-0.118921497753484,0.02));
#388=CARTESIAN_POINT('',(0.210987675569207,-0.118921497753484,0.02));
#389=CARTESIAN_POINT('',(0.210987675569207,-0.118921497753484,-0.029));
#390=CARTESIAN_POINT('',(0.175070208290117,-0.134604813630976,-0.029));
#391=CARTESIAN_POINT('',(0.202556156995329,-0.106666426482964,-0.029));
#392=CARTESIAN_POINT('',(0.202556156995329,-0.106666426482964,0.02));
#393=CARTESIAN_POINT('',(0.202556156995329,-0.106666426482964,0.02));
#394=CARTESIAN_POINT('',(0.175070208290117,-0.134604813630976,0.02));
#395=CARTESIAN_POINT('',(0.194133399738705,-0.119758439001947,0.02));
#396=CARTESIAN_POINT('',(0.202556156995329,-0.106666426482964,-0.029));
#397=CARTESIAN_POINT('',(0.202556156995329,-0.106666426482964,-0.0293265980118186));
#398=CARTESIAN_POINT('',(0.202325593281381,-0.10651675789432,-0.0299353537765553));
#399=CARTESIAN_POINT('',(0.201735878675035,-0.106166893985607,-0.030615754470558));
#400=CARTESIAN_POINT('',(0.201058686579769,-0.105808793228294,-0.0311943084867096));
#401=CARTESIAN_POINT('',(0.200079564634719,-0.105353335139526,-0.0318775344241523));
#402=CARTESIAN_POINT('',(0.198772716041195,-0.104865506376577,-0.0326141466597054));
#403=CARTESIAN_POINT('',(0.197072881318171,-0.104436566759996,-0.0333883227533445));
#404=CARTESIAN_POINT('',(0.19529389135841,-0.104199573994457,-0.0340393137793625));
#405=CARTESIAN_POINT('',(0.19286355972871,-0.104157559496287,-0.0347227249265161));
#406=CARTESIAN_POINT('',(0.19096402005194,-0.104463049529201,-0.035));
#407=CARTESIAN_POINT('',(0.189731808646153,-0.104826271461527,-0.035));
#408=CARTESIAN_POINT('',(0.189731808646153,-0.104826271461527,-0.035));
#409=CARTESIAN_POINT('',(0.194133399738705,-0.119758439001947,-0.035));
#410=CARTESIAN_POINT('',(0.179669175280695,-0.114002586117319,-0.035));
#411=CARTESIAN_POINT('',(0.179669175280695,-0.114002586117319,-0.035));
#412=CARTESIAN_POINT('',(0.17934659329411,-0.114813221544179,-0.035));
#413=CARTESIAN_POINT('',(0.178854917902368,-0.116453634810711,-0.0346659442768171));
#414=CARTESIAN_POINT('',(0.178550929163179,-0.118740238538753,-0.0334033373122203));
#415=CARTESIAN_POINT('',(0.1785666080296,-0.120596850108634,-0.0315504068854954));
#416=CARTESIAN_POINT('',(0.178635083504775,-0.121223302652355,-0.0298762413334139));
#417=CARTESIAN_POINT('',(0.178635083504775,-0.121223302652355,-0.029));
#418=CARTESIAN_POINT('',(0.178635083504775,-0.121223302652355,-0.029));
#419=CARTESIAN_POINT('',(0.178635083504775,-0.121223302652355,0.02));
#420=CARTESIAN_POINT('',(0.178635083504775,-0.121223302652355,0.02));
#421=CARTESIAN_POINT('',(0.194133399738705,-0.119758439001947,0.02));
#422=CARTESIAN_POINT('',(0.135128950782926,-0.165209115537685,0.02));
#423=CARTESIAN_POINT('',(0.135128950782926,-0.165209115537685,-0.029));
#424=CARTESIAN_POINT('',(0.185865534259943,-0.129806652111053,-0.029));
#425=CARTESIAN_POINT('',(0.185865534259943,-0.129806652111053,0.02));
#426=CARTESIAN_POINT('',(0.185865534259943,-0.129806652111053,0.02));
#427=CARTESIAN_POINT('',(0.135128950782926,-0.165209115537685,0.02));
#428=CARTESIAN_POINT('',(0.200640385735954,-0.129473319394543,0.02));
#429=CARTESIAN_POINT('',(0.200640385735954,-0.129473319394543,-0.035));
#430=CARTESIAN_POINT('',(0.201653968257042,-0.114729507224313,-0.035));
#431=CARTESIAN_POINT('',(0.187715547346623,-0.122307016341522,-0.035));
#432=CARTESIAN_POINT('',(0.201653968257042,-0.114729507224313,-0.035));
#433=CARTESIAN_POINT('',(0.202731672527671,-0.114803595404426,-0.035));
#434=CARTESIAN_POINT('',(0.204826997107616,-0.115185626919372,-0.0346755098270048));
#435=CARTESIAN_POINT('',(0.207169878365433,-0.116154599066842,-0.0337222603649998));
#436=CARTESIAN_POINT('',(0.208777135157344,-0.117112067635522,-0.0326823401205952));
#437=CARTESIAN_POINT('',(0.209820805580237,-0.117869459415681,-0.0317519382273715));
#438=CARTESIAN_POINT('',(0.210689498490385,-0.118623677209034,-0.0305816200318233));
#439=CARTESIAN_POINT('',(0.210987675569207,-0.118921497753484,-0.0295460769847974));
#440=CARTESIAN_POINT('',(0.210987675569207,-0.118921497753484,-0.029));
#441=CARTESIAN_POINT('',(0.200640385735954,-0.129473319394543,0.02));
#442=CARTESIAN_POINT('',(0.185865534259943,-0.129806652111053,-0.029));
#443=CARTESIAN_POINT('',(0.185865534259943,-0.129806652111053,-0.0299048984018134));
#444=CARTESIAN_POINT('',(0.185838127402635,-0.129033226982736,-0.0315931610163163));
#445=CARTESIAN_POINT('',(0.186007126826047,-0.127035877976604,-0.0334014030265558));
#446=CARTESIAN_POINT('',(0.186573465326546,-0.124712678916798,-0.0346563765966824));
#447=CARTESIAN_POINT('',(0.187279116942638,-0.123094143594996,-0.035));
#448=CARTESIAN_POINT('',(0.187715547346623,-0.122307016341522,-0.035));
#449=CARTESIAN_POINT('',(0.233402002858431,-0.141733597313975,0.02));
#450=CARTESIAN_POINT('',(0.233402002858431,-0.141733597313975,-0.035));
#451=CARTESIAN_POINT('',(0.175070208290117,-0.134604813630976,-0.035));
#452=CARTESIAN_POINT('',(0.135128950782926,-0.165209115537685,-0.035));
#453=CARTESIAN_POINT('',(0.175070208290117,-0.134604813630976,-0.029));
#454=CARTESIAN_POINT('',(0.135128950782926,-0.165209115537685,-0.029));
#455=CARTESIAN_POINT('',(0.175070208290117,-0.134604813630976,0.02));
#456=CARTESIAN_POINT('',(0.204933306105258,-0.112943050409306,0.0177));
#457=CARTESIAN_POINT('',(0.204933306105258,-0.112943050409306,0.0177));
#458=CARTESIAN_POINT('',(0.204933306105258,-0.112943050409306,-0.029));
#459=CARTESIAN_POINT('',(0.175070208290117,-0.134604813630976,0.0177));
#460=CARTESIAN_POINT('',(0.201115989825442,-0.108477168095977,0.0177));
#461=CARTESIAN_POINT('',(0.201115989825442,-0.108477168095977,0.0177));
#462=CARTESIAN_POINT('',(0.201115989825443,-0.108477168095978,-0.029));
#463=CARTESIAN_POINT('',(0.175070208290117,-0.134604813630976,-0.029));
#464=CARTESIAN_POINT('',(0.194133399738705,-0.119758439001947,0.02));
#465=CARTESIAN_POINT('',(0.194133399738705,-0.119758439001947,0.0177));
#466=CARTESIAN_POINT('',(0.18087373113442,-0.120211016153158,0.0177));
#467=CARTESIAN_POINT('',(0.18087373113442,-0.120211016153158,0.0177));
#468=CARTESIAN_POINT('',(0.18087373113442,-0.120211016153158,-0.029));
#469=CARTESIAN_POINT('',(0.181512816056548,-0.115666433980578,-0.0327));
#470=CARTESIAN_POINT('',(0.181176983639667,-0.116702210109464,-0.0326999999999999));
#471=CARTESIAN_POINT('',(0.180898033828692,-0.118269248898282,-0.0321375865966569));
#472=CARTESIAN_POINT('',(0.180856554793902,-0.11983484759198,-0.0305994995985885));
#473=CARTESIAN_POINT('',(0.18087373113442,-0.120211016153158,-0.0295468706103826));
#474=CARTESIAN_POINT('',(0.18087373113442,-0.120211016153158,-0.029));
#475=CARTESIAN_POINT('',(0.181512816056547,-0.115666433980578,-0.0327));
#476=CARTESIAN_POINT('',(0.194133399738705,-0.119758439001947,-0.0327));
#477=CARTESIAN_POINT('',(0.19281866899948,-0.106556351263388,-0.0327));
#478=CARTESIAN_POINT('',(0.201115989825443,-0.108477168095978,-0.029));
#479=CARTESIAN_POINT('',(0.201115989825443,-0.108477168095978,-0.0292106349411652));
#480=CARTESIAN_POINT('',(0.200974464106224,-0.108388906062621,-0.0296070259949222));
#481=CARTESIAN_POINT('',(0.200468722624496,-0.108093797956416,-0.0301995151359656));
#482=CARTESIAN_POINT('',(0.199693043702319,-0.107695969371309,-0.030760942252942));
#483=CARTESIAN_POINT('',(0.198682096631267,-0.107278501272094,-0.031305738674158));
#484=CARTESIAN_POINT('',(0.197591566853975,-0.106932067616318,-0.0317687350347579));
#485=CARTESIAN_POINT('',(0.19644799134506,-0.106676910219825,-0.0321514822061171));
#486=CARTESIAN_POINT('',(0.194880534915778,-0.106469925110587,-0.0325457159458444));
#487=CARTESIAN_POINT('',(0.193641171806004,-0.10647444226958,-0.0327));
#488=CARTESIAN_POINT('',(0.19281866899948,-0.106556351263388,-0.0327));
#489=CARTESIAN_POINT('',(0.135128950782926,-0.165209115537685,0.02));
#490=CARTESIAN_POINT('',(0.135128950782926,-0.165209115537685,0.0177));
#491=CARTESIAN_POINT('',(0.184420302460869,-0.124126558078496,0.0177));
#492=CARTESIAN_POINT('',(0.184420302460869,-0.124126558078496,0.0177));
#493=CARTESIAN_POINT('',(0.184420302460869,-0.124126558078496,-0.029));
#494=CARTESIAN_POINT('',(0.135128950782926,-0.165209115537685,-0.029));
#495=CARTESIAN_POINT('',(0.200640385735954,-0.129473319394543,0.02));
#496=CARTESIAN_POINT('',(0.200640385735954,-0.129473319394543,-0.0327));
#497=CARTESIAN_POINT('',(0.199757244495646,-0.112417557330913,-0.0327));
#498=CARTESIAN_POINT('',(0.18614181895145,-0.120447217289162,-0.0327));
#499=CARTESIAN_POINT('',(0.184420302460869,-0.124126558078496,-0.029));
#500=CARTESIAN_POINT('',(0.184420302460869,-0.124126558078496,-0.0300236297379304));
#501=CARTESIAN_POINT('',(0.184726341369992,-0.123121382273094,-0.0319413303855817));
#502=CARTESIAN_POINT('',(0.185601884477439,-0.121314510384156,-0.0326999999999999));
#503=CARTESIAN_POINT('',(0.18614181895145,-0.120447217289162,-0.0327));
#504=CARTESIAN_POINT('',(0.200640385735954,-0.129473319394543,0.0177));
#505=CARTESIAN_POINT('',(0.199757244495646,-0.112417557330913,-0.0327));
#506=CARTESIAN_POINT('',(0.200344509136634,-0.112387148978504,-0.0327));
#507=CARTESIAN_POINT('',(0.201504977773169,-0.112388786383919,-0.0325340790866065));
#508=CARTESIAN_POINT('',(0.203117869254968,-0.112551767369435,-0.031854827665017));
#509=CARTESIAN_POINT('',(0.204477437721492,-0.112819486194262,-0.0307192604033128));
#510=CARTESIAN_POINT('',(0.204933306105258,-0.112943050409306,-0.0295926589319248));
#511=CARTESIAN_POINT('',(0.204933306105258,-0.112943050409306,-0.029));
#512=CARTESIAN_POINT('',(0.233402002858431,-0.141733597313975,0.0177));
#513=CARTESIAN_POINT('',(0.233402002858431,-0.141733597313975,-0.0327));
#514=CARTESIAN_POINT('',(0.135128950782926,-0.165209115537685,-0.0327));
#515=CARTESIAN_POINT('',(0.175070208290117,-0.134604813630976,-0.0327));
#516=CARTESIAN_POINT('',(0.175070208290117,-0.134604813630976,-0.029));
#517=CARTESIAN_POINT('',(0.135128950782926,-0.165209115537685,-0.029));
#518=MECHANICAL_DESIGN_GEOMETRIC_PRESENTATION_REPRESENTATION('',(#255),
#519);
#519=(
GEOMETRIC_REPRESENTATION_CONTEXT(3)
GLOBAL_UNCERTAINTY_ASSIGNED_CONTEXT((#520))
GLOBAL_UNIT_ASSIGNED_CONTEXT((#523,#522,#521))
REPRESENTATION_CONTEXT('Tail_Part 6_Red','TOP_LEVEL_ASSEMBLY_PART')
);
#520=UNCERTAINTY_MEASURE_WITH_UNIT(LENGTH_MEASURE(2.E-5),#523,
'DISTANCE_ACCURACY_VALUE','Maximum Tolerance applied to model');
#521=(
NAMED_UNIT(*)
SI_UNIT($,.STERADIAN.)
SOLID_ANGLE_UNIT()
);
#522=(
NAMED_UNIT(*)
PLANE_ANGLE_UNIT()
SI_UNIT($,.RADIAN.)
);
#523=(
LENGTH_UNIT()
NAMED_UNIT(*)
SI_UNIT($,.METRE.)
);
#524=PRODUCT_DEFINITION_SHAPE('','',#525);
#525=PRODUCT_DEFINITION('','',#527,#526);
#526=PRODUCT_DEFINITION_CONTEXT('',#533,'design');
#527=PRODUCT_DEFINITION_FORMATION_WITH_SPECIFIED_SOURCE('','',#529,
 .NOT_KNOWN.);
#528=PRODUCT_RELATED_PRODUCT_CATEGORY('','',(#529));
#529=PRODUCT('Tail_Part 6_Red','Tail_Part 6_Red','Tail_Part 6_Red',(#531));
#530=PRODUCT_CATEGORY('','');
#531=PRODUCT_CONTEXT('',#533,'mechanical');
#532=APPLICATION_PROTOCOL_DEFINITION('international standard',
'ap242_managed_model_based_3d_engineering',2020,#533);
#533=APPLICATION_CONTEXT('managed model based 3d engineering');
ENDSEC;
END-ISO-10303-21;
