ISO-10303-21;
HEADER;
/* Generated by software containing ST-Developer
 * from STEP Tools, Inc. (www.steptools.com) 
 */
/* OPTION: using custom renumber hook */

FILE_DESCRIPTION(
/* description */ ('STEP AP242 Edition 2',
'CAx-IF Rec.Pracs.---Representation and Presentation of Product Manufa
cturing Information (PMI)---4.0---2014-10-13',
'CAx-IF Rec.Pracs.---3D Tessellated Geometry---0.4---2014-09-14','2;1',
'CAx-IF Rec.Pracs.---User Defined Attributes---1.5---2016-08-15'),
/* implementation_level */ '2;1');

FILE_NAME(
/* name */ 'Part Studio 1 - Tail_Part 1(begin)_Back',
/* time_stamp */ '2026-06-21T21:08:51Z',
/* author */ (''),
/* organization */ (''),
/* preprocessor_version */ 'ST-DEVELOPER v20',
/* originating_system */ 'ONSHAPE BY PTC INC, 1.216',
/* authorisation */ '  ');

FILE_SCHEMA (('AP242_MANAGED_MODEL_BASED_3D_ENGINEERING_MIM_LF { 1 0 10303 442 3 1 4 }'));
ENDSEC;

DATA;
#10=SHAPE_REPRESENTATION_RELATIONSHIP('','',#228,#11);
#11=ADVANCED_BREP_SHAPE_REPRESENTATION('',(#226),#434);
#12=ORIENTED_CLOSED_SHELL('',*,#217,.F.);
#13=TOROIDAL_SURFACE('',#246,0.0678670778329995,0.006);
#14=TOROIDAL_SURFACE('',#247,0.0331922294933286,0.006);
#15=TOROIDAL_SURFACE('',#260,0.0331922294933286,0.0037);
#16=PLANE('',#242);
#17=PLANE('',#243);
#18=PLANE('',#257);
#19=PLANE('',#258);
#20=CIRCLE('',#231,0.0155673900060736);
#21=CIRCLE('',#232,0.0155673900060736);
#22=CIRCLE('',#234,0.0391922294933286);
#23=CIRCLE('',#235,0.0391922294933286);
#24=CIRCLE('',#237,0.0388937731222024);
#25=CIRCLE('',#238,0.0388937731222024);
#26=CIRCLE('',#240,0.0618670778329995);
#27=CIRCLE('',#241,0.0618670778329995);
#28=CIRCLE('',#244,0.0678670778329995);
#29=CIRCLE('',#245,0.0331922294933286);
#30=CIRCLE('',#249,0.0178673900060736);
#31=CIRCLE('',#250,0.0178673900060736);
#32=CIRCLE('',#252,0.0368922294933286);
#33=CIRCLE('',#253,0.0368922294933286);
#34=CIRCLE('',#255,0.0411937731222024);
#35=CIRCLE('',#256,0.0411937731222024);
#36=CIRCLE('',#259,0.0331922294933286);
#37=B_SPLINE_CURVE_WITH_KNOTS('',3,(#337,#338,#339,#340,#341,#342,#343),
 .UNSPECIFIED.,.F.,.F.,(4,1,1,1,4),(0.,0.00257569633117864,0.00515139266235727,
0.00772708899353591,0.0103027853247145),.UNSPECIFIED.);
#38=B_SPLINE_CURVE_WITH_KNOTS('',3,(#347,#348,#349,#350,#351,#352,#353,
#354,#355,#356,#357),.UNSPECIFIED.,.F.,.F.,(4,1,1,1,1,1,1,1,4),(0.,0.00380081289070008,
0.00570121933605011,0.00760162578140015,0.00950203222675019,0.0114024386721002,
0.0133028451174503,0.0142530483401253,0.0152032515628003),.UNSPECIFIED.);
#39=B_SPLINE_CURVE_WITH_KNOTS('',3,(#372,#373,#374,#375,#376,#377),
 .UNSPECIFIED.,.F.,.F.,(4,1,1,4),(0.,0.00234769051790825,0.0046953810358165,
0.009390762071633),.UNSPECIFIED.);
#40=B_SPLINE_CURVE_WITH_KNOTS('',3,(#382,#383,#384,#385,#386,#387),
 .UNSPECIFIED.,.F.,.F.,(4,1,1,4),(0.,0.00234429489032673,0.00468858978065347,
0.00937717956130693),.UNSPECIFIED.);
#41=B_SPLINE_CURVE_WITH_KNOTS('',3,(#405,#406,#407,#408,#409,#410,#411),
 .UNSPECIFIED.,.F.,.F.,(4,1,1,1,4),(0.,0.00186733778618637,0.00373467557237274,
0.00560201335855911,0.00746935114474548),.UNSPECIFIED.);
#42=B_SPLINE_CURVE_WITH_KNOTS('',3,(#423,#424,#425,#426,#427),
 .UNSPECIFIED.,.F.,.F.,(4,1,4),(0.,0.00289248228599866,0.00578496457199732),
 .UNSPECIFIED.);
#43=ORIENTED_EDGE('',*,*,#103,.T.);
#44=ORIENTED_EDGE('',*,*,#104,.T.);
#45=ORIENTED_EDGE('',*,*,#105,.F.);
#46=ORIENTED_EDGE('',*,*,#106,.T.);
#47=ORIENTED_EDGE('',*,*,#107,.F.);
#48=ORIENTED_EDGE('',*,*,#108,.T.);
#49=ORIENTED_EDGE('',*,*,#107,.T.);
#50=ORIENTED_EDGE('',*,*,#109,.T.);
#51=ORIENTED_EDGE('',*,*,#110,.F.);
#52=ORIENTED_EDGE('',*,*,#111,.F.);
#53=ORIENTED_EDGE('',*,*,#112,.F.);
#54=ORIENTED_EDGE('',*,*,#113,.T.);
#55=ORIENTED_EDGE('',*,*,#114,.F.);
#56=ORIENTED_EDGE('',*,*,#115,.T.);
#57=ORIENTED_EDGE('',*,*,#110,.T.);
#58=ORIENTED_EDGE('',*,*,#116,.T.);
#59=ORIENTED_EDGE('',*,*,#114,.T.);
#60=ORIENTED_EDGE('',*,*,#117,.T.);
#61=ORIENTED_EDGE('',*,*,#103,.F.);
#62=ORIENTED_EDGE('',*,*,#118,.T.);
#63=ORIENTED_EDGE('',*,*,#108,.F.);
#64=ORIENTED_EDGE('',*,*,#111,.T.);
#65=ORIENTED_EDGE('',*,*,#115,.F.);
#66=ORIENTED_EDGE('',*,*,#118,.F.);
#67=ORIENTED_EDGE('',*,*,#105,.T.);
#68=ORIENTED_EDGE('',*,*,#119,.T.);
#69=ORIENTED_EDGE('',*,*,#112,.T.);
#70=ORIENTED_EDGE('',*,*,#120,.T.);
#71=ORIENTED_EDGE('',*,*,#104,.F.);
#72=ORIENTED_EDGE('',*,*,#117,.F.);
#73=ORIENTED_EDGE('',*,*,#113,.F.);
#74=ORIENTED_EDGE('',*,*,#119,.F.);
#75=ORIENTED_EDGE('',*,*,#106,.F.);
#76=ORIENTED_EDGE('',*,*,#120,.F.);
#77=ORIENTED_EDGE('',*,*,#116,.F.);
#78=ORIENTED_EDGE('',*,*,#109,.F.);
#79=ORIENTED_EDGE('',*,*,#121,.T.);
#80=ORIENTED_EDGE('',*,*,#122,.F.);
#81=ORIENTED_EDGE('',*,*,#123,.T.);
#82=ORIENTED_EDGE('',*,*,#124,.F.);
#83=ORIENTED_EDGE('',*,*,#125,.T.);
#84=ORIENTED_EDGE('',*,*,#123,.F.);
#85=ORIENTED_EDGE('',*,*,#126,.T.);
#86=ORIENTED_EDGE('',*,*,#127,.T.);
#87=ORIENTED_EDGE('',*,*,#128,.F.);
#88=ORIENTED_EDGE('',*,*,#129,.T.);
#89=ORIENTED_EDGE('',*,*,#130,.F.);
#90=ORIENTED_EDGE('',*,*,#127,.F.);
#91=ORIENTED_EDGE('',*,*,#131,.F.);
#92=ORIENTED_EDGE('',*,*,#121,.F.);
#93=ORIENTED_EDGE('',*,*,#131,.T.);
#94=ORIENTED_EDGE('',*,*,#126,.F.);
#95=ORIENTED_EDGE('',*,*,#122,.T.);
#96=ORIENTED_EDGE('',*,*,#125,.F.);
#97=ORIENTED_EDGE('',*,*,#132,.F.);
#98=ORIENTED_EDGE('',*,*,#129,.F.);
#99=ORIENTED_EDGE('',*,*,#124,.T.);
#100=ORIENTED_EDGE('',*,*,#128,.T.);
#101=ORIENTED_EDGE('',*,*,#130,.T.);
#102=ORIENTED_EDGE('',*,*,#132,.T.);
#103=EDGE_CURVE('',#133,#134,#153,.T.);
#104=EDGE_CURVE('',#134,#135,#37,.T.);
#105=EDGE_CURVE('',#136,#135,#20,.T.);
#106=EDGE_CURVE('',#136,#137,#38,.T.);
#107=EDGE_CURVE('',#138,#137,#154,.T.);
#108=EDGE_CURVE('',#138,#133,#21,.T.);
#109=EDGE_CURVE('',#137,#139,#22,.T.);
#110=EDGE_CURVE('',#140,#139,#155,.T.);
#111=EDGE_CURVE('',#138,#140,#23,.T.);
#112=EDGE_CURVE('',#141,#142,#24,.T.);
#113=EDGE_CURVE('',#141,#143,#39,.T.);
#114=EDGE_CURVE('',#144,#143,#156,.T.);
#115=EDGE_CURVE('',#144,#140,#25,.T.);
#116=EDGE_CURVE('',#139,#142,#40,.T.);
#117=EDGE_CURVE('',#143,#134,#26,.F.);
#118=EDGE_CURVE('',#133,#144,#27,.T.);
#119=EDGE_CURVE('',#135,#141,#28,.T.);
#120=EDGE_CURVE('',#142,#136,#29,.F.);
#121=EDGE_CURVE('',#145,#146,#157,.T.);
#122=EDGE_CURVE('',#147,#146,#30,.T.);
#123=EDGE_CURVE('',#147,#148,#158,.T.);
#124=EDGE_CURVE('',#149,#148,#41,.T.);
#125=EDGE_CURVE('',#149,#145,#31,.T.);
#126=EDGE_CURVE('',#147,#150,#32,.T.);
#127=EDGE_CURVE('',#150,#151,#159,.T.);
#128=EDGE_CURVE('',#148,#151,#33,.F.);
#129=EDGE_CURVE('',#145,#152,#34,.T.);
#130=EDGE_CURVE('',#151,#152,#42,.T.);
#131=EDGE_CURVE('',#146,#150,#35,.T.);
#132=EDGE_CURVE('',#152,#149,#36,.F.);
#133=VERTEX_POINT('',#335);
#134=VERTEX_POINT('',#336);
#135=VERTEX_POINT('',#344);
#136=VERTEX_POINT('',#346);
#137=VERTEX_POINT('',#358);
#138=VERTEX_POINT('',#360);
#139=VERTEX_POINT('',#364);
#140=VERTEX_POINT('',#366);
#141=VERTEX_POINT('',#370);
#142=VERTEX_POINT('',#371);
#143=VERTEX_POINT('',#378);
#144=VERTEX_POINT('',#380);
#145=VERTEX_POINT('',#399);
#146=VERTEX_POINT('',#400);
#147=VERTEX_POINT('',#402);
#148=VERTEX_POINT('',#404);
#149=VERTEX_POINT('',#412);
#150=VERTEX_POINT('',#416);
#151=VERTEX_POINT('',#418);
#152=VERTEX_POINT('',#422);
#153=LINE('',#334,#160);
#154=LINE('',#359,#161);
#155=LINE('',#365,#162);
#156=LINE('',#379,#163);
#157=LINE('',#398,#164);
#158=LINE('',#403,#165);
#159=LINE('',#417,#166);
#160=VECTOR('',#265,1.);
#161=VECTOR('',#268,1.);
#162=VECTOR('',#275,1.);
#163=VECTOR('',#282,1.);
#164=VECTOR('',#305,1.);
#165=VECTOR('',#308,1.);
#166=VECTOR('',#315,1.);
#167=EDGE_LOOP('',(#43,#44,#45,#46,#47,#48));
#168=EDGE_LOOP('',(#49,#50,#51,#52));
#169=EDGE_LOOP('',(#53,#54,#55,#56,#57,#58));
#170=EDGE_LOOP('',(#59,#60,#61,#62));
#171=EDGE_LOOP('',(#63,#64,#65,#66));
#172=EDGE_LOOP('',(#67,#68,#69,#70));
#173=EDGE_LOOP('',(#71,#72,#73,#74));
#174=EDGE_LOOP('',(#75,#76,#77,#78));
#175=EDGE_LOOP('',(#79,#80,#81,#82,#83));
#176=EDGE_LOOP('',(#84,#85,#86,#87));
#177=EDGE_LOOP('',(#88,#89,#90,#91,#92));
#178=EDGE_LOOP('',(#93,#94,#95));
#179=EDGE_LOOP('',(#96,#97,#98));
#180=EDGE_LOOP('',(#99,#100,#101,#102));
#181=FACE_BOUND('',#167,.T.);
#182=FACE_BOUND('',#168,.T.);
#183=FACE_BOUND('',#169,.T.);
#184=FACE_BOUND('',#170,.T.);
#185=FACE_BOUND('',#171,.T.);
#186=FACE_BOUND('',#172,.T.);
#187=FACE_BOUND('',#173,.T.);
#188=FACE_BOUND('',#174,.T.);
#189=FACE_BOUND('',#175,.T.);
#190=FACE_BOUND('',#176,.T.);
#191=FACE_BOUND('',#177,.T.);
#192=FACE_BOUND('',#178,.T.);
#193=FACE_BOUND('',#179,.T.);
#194=FACE_BOUND('',#180,.T.);
#195=CYLINDRICAL_SURFACE('',#230,0.0155673900060736);
#196=CYLINDRICAL_SURFACE('',#233,0.0391922294933286);
#197=CYLINDRICAL_SURFACE('',#236,0.0388937731222024);
#198=CYLINDRICAL_SURFACE('',#239,0.0618670778329995);
#199=CYLINDRICAL_SURFACE('',#248,0.0178673900060736);
#200=CYLINDRICAL_SURFACE('',#251,0.0368922294933286);
#201=CYLINDRICAL_SURFACE('',#254,0.0411937731222024);
#202=ADVANCED_FACE('Face appearance 4',(#181),#195,.F.);
#203=ADVANCED_FACE('Face appearance 4',(#182),#196,.T.);
#204=ADVANCED_FACE('Face appearance 4',(#183),#197,.F.);
#205=ADVANCED_FACE('Face appearance 4',(#184),#198,.F.);
#206=ADVANCED_FACE('Face appearance 4',(#185),#16,.T.);
#207=ADVANCED_FACE('Face appearance 4',(#186),#17,.F.);
#208=ADVANCED_FACE('',(#187),#13,.T.);
#209=ADVANCED_FACE('',(#188),#14,.T.);
#210=ADVANCED_FACE('',(#189),#199,.T.);
#211=ADVANCED_FACE('',(#190),#200,.F.);
#212=ADVANCED_FACE('',(#191),#201,.T.);
#213=ADVANCED_FACE('',(#192),#18,.F.);
#214=ADVANCED_FACE('',(#193),#19,.T.);
#215=ADVANCED_FACE('',(#194),#15,.F.);
#216=CLOSED_SHELL('',(#202,#203,#204,#205,#206,#207,#208,#209));
#217=CLOSED_SHELL('',(#210,#211,#212,#213,#214,#215));
#218=STYLED_ITEM('',(#219),#226);
#219=PRESENTATION_STYLE_ASSIGNMENT((#220));
#220=SURFACE_STYLE_USAGE(.BOTH.,#221);
#221=SURFACE_SIDE_STYLE('',(#222));
#222=SURFACE_STYLE_FILL_AREA(#223);
#223=FILL_AREA_STYLE('',(#224));
#224=FILL_AREA_STYLE_COLOUR('',#225);
#225=DRAUGHTING_PRE_DEFINED_COLOUR('black');
#226=BREP_WITH_VOIDS('Tail_Part 1(begin)_Back',#216,(#12));
#227=SHAPE_DEFINITION_REPRESENTATION(#439,#228);
#228=SHAPE_REPRESENTATION('Tail_Part 1(begin)_Back',(#229),#434);
#229=AXIS2_PLACEMENT_3D('',#332,#261,#262);
#230=AXIS2_PLACEMENT_3D('',#333,#263,#264);
#231=AXIS2_PLACEMENT_3D('',#345,#266,#267);
#232=AXIS2_PLACEMENT_3D('',#361,#269,#270);
#233=AXIS2_PLACEMENT_3D('',#362,#271,#272);
#234=AXIS2_PLACEMENT_3D('',#363,#273,#274);
#235=AXIS2_PLACEMENT_3D('',#367,#276,#277);
#236=AXIS2_PLACEMENT_3D('',#368,#278,#279);
#237=AXIS2_PLACEMENT_3D('',#369,#280,#281);
#238=AXIS2_PLACEMENT_3D('',#381,#283,#284);
#239=AXIS2_PLACEMENT_3D('',#388,#285,#286);
#240=AXIS2_PLACEMENT_3D('',#389,#287,#288);
#241=AXIS2_PLACEMENT_3D('',#390,#289,#290);
#242=AXIS2_PLACEMENT_3D('',#391,#291,#292);
#243=AXIS2_PLACEMENT_3D('',#392,#293,#294);
#244=AXIS2_PLACEMENT_3D('',#393,#295,#296);
#245=AXIS2_PLACEMENT_3D('',#394,#297,#298);
#246=AXIS2_PLACEMENT_3D('',#395,#299,#300);
#247=AXIS2_PLACEMENT_3D('',#396,#301,#302);
#248=AXIS2_PLACEMENT_3D('',#397,#303,#304);
#249=AXIS2_PLACEMENT_3D('',#401,#306,#307);
#250=AXIS2_PLACEMENT_3D('',#413,#309,#310);
#251=AXIS2_PLACEMENT_3D('',#414,#311,#312);
#252=AXIS2_PLACEMENT_3D('',#415,#313,#314);
#253=AXIS2_PLACEMENT_3D('',#419,#316,#317);
#254=AXIS2_PLACEMENT_3D('',#420,#318,#319);
#255=AXIS2_PLACEMENT_3D('',#421,#320,#321);
#256=AXIS2_PLACEMENT_3D('',#428,#322,#323);
#257=AXIS2_PLACEMENT_3D('',#429,#324,#325);
#258=AXIS2_PLACEMENT_3D('',#430,#326,#327);
#259=AXIS2_PLACEMENT_3D('',#431,#328,#329);
#260=AXIS2_PLACEMENT_3D('',#432,#330,#331);
#261=DIRECTION('',(0.,0.,1.));
#262=DIRECTION('',(1.,0.,0.));
#263=DIRECTION('',(0.,0.,-1.));
#264=DIRECTION('',(-1.,0.,0.));
#265=DIRECTION('',(0.,0.,-1.));
#266=DIRECTION('',(0.,0.,1.));
#267=DIRECTION('',(1.,0.,0.));
#268=DIRECTION('',(0.,0.,-1.));
#269=DIRECTION('',(0.,0.,1.));
#270=DIRECTION('',(1.,0.,0.));
#271=DIRECTION('',(0.,0.,-1.));
#272=DIRECTION('',(-1.,0.,0.));
#273=DIRECTION('',(0.,0.,1.));
#274=DIRECTION('',(1.,0.,0.));
#275=DIRECTION('',(0.,0.,-1.));
#276=DIRECTION('',(0.,0.,1.));
#277=DIRECTION('',(1.,0.,0.));
#278=DIRECTION('',(0.,0.,-1.));
#279=DIRECTION('',(-1.,0.,0.));
#280=DIRECTION('',(0.,0.,1.));
#281=DIRECTION('',(1.,0.,0.));
#282=DIRECTION('',(0.,0.,-1.));
#283=DIRECTION('',(0.,0.,1.));
#284=DIRECTION('',(1.,0.,0.));
#285=DIRECTION('',(0.,0.,-1.));
#286=DIRECTION('',(-1.,0.,0.));
#287=DIRECTION('',(0.,0.,1.));
#288=DIRECTION('',(1.,0.,0.));
#289=DIRECTION('',(0.,0.,1.));
#290=DIRECTION('',(1.,0.,0.));
#291=DIRECTION('',(0.,0.,1.));
#292=DIRECTION('',(1.,0.,0.));
#293=DIRECTION('',(0.,0.,1.));
#294=DIRECTION('',(1.,0.,0.));
#295=DIRECTION('',(0.,0.,1.));
#296=DIRECTION('',(1.,0.,0.));
#297=DIRECTION('',(0.,0.,1.));
#298=DIRECTION('',(1.,0.,0.));
#299=DIRECTION('',(0.,0.,1.));
#300=DIRECTION('',(1.,0.,0.));
#301=DIRECTION('',(0.,0.,1.));
#302=DIRECTION('',(1.,0.,0.));
#303=DIRECTION('',(0.,0.,-1.));
#304=DIRECTION('',(-1.,0.,0.));
#305=DIRECTION('',(0.,0.,1.));
#306=DIRECTION('',(0.,0.,1.));
#307=DIRECTION('',(1.,0.,0.));
#308=DIRECTION('',(0.,0.,-1.));
#309=DIRECTION('',(0.,0.,1.));
#310=DIRECTION('',(1.,0.,0.));
#311=DIRECTION('',(0.,0.,-1.));
#312=DIRECTION('',(-1.,0.,0.));
#313=DIRECTION('',(0.,0.,1.));
#314=DIRECTION('',(1.,0.,0.));
#315=DIRECTION('',(0.,0.,-1.));
#316=DIRECTION('',(0.,0.,-1.));
#317=DIRECTION('',(-1.,0.,0.));
#318=DIRECTION('',(0.,0.,-1.));
#319=DIRECTION('',(-1.,0.,0.));
#320=DIRECTION('',(0.,0.,1.));
#321=DIRECTION('',(1.,0.,0.));
#322=DIRECTION('',(0.,0.,1.));
#323=DIRECTION('',(1.,0.,0.));
#324=DIRECTION('',(0.,0.,1.));
#325=DIRECTION('',(1.,0.,0.));
#326=DIRECTION('',(0.,0.,1.));
#327=DIRECTION('',(1.,0.,0.));
#328=DIRECTION('',(0.,0.,1.));
#329=DIRECTION('',(1.,0.,0.));
#330=DIRECTION('',(0.,0.,1.));
#331=DIRECTION('',(1.,0.,0.));
#332=CARTESIAN_POINT('',(0.,0.,0.));
#333=CARTESIAN_POINT('',(0.194133399738705,-0.119758439001947,0.02));
#334=CARTESIAN_POINT('',(0.178635083504775,-0.121223302652355,0.02));
#335=CARTESIAN_POINT('',(0.178635083504775,-0.121223302652355,0.02));
#336=CARTESIAN_POINT('',(0.178635083504775,-0.121223302652355,-0.029));
#337=CARTESIAN_POINT('',(0.178635083504775,-0.121223302652355,-0.029));
#338=CARTESIAN_POINT('',(0.178635083504775,-0.121223302652355,-0.0298763547302319));
#339=CARTESIAN_POINT('',(0.17856664873871,-0.120600934034285,-0.0315445242321641));
#340=CARTESIAN_POINT('',(0.178551336428042,-0.118738396680422,-0.0334045361464483));
#341=CARTESIAN_POINT('',(0.178852801343029,-0.116463287632118,-0.0346622158766715));
#342=CARTESIAN_POINT('',(0.179346598301121,-0.114813208961763,-0.035));
#343=CARTESIAN_POINT('',(0.179669175280695,-0.114002586117319,-0.035));
#344=CARTESIAN_POINT('',(0.179669175280695,-0.114002586117319,-0.035));
#345=CARTESIAN_POINT('',(0.194133399738705,-0.119758439001947,-0.035));
#346=CARTESIAN_POINT('',(0.189731808646153,-0.104826271461527,-0.035));
#347=CARTESIAN_POINT('',(0.189731808646153,-0.104826271461527,-0.035));
#348=CARTESIAN_POINT('',(0.190965200957602,-0.104462701430787,-0.035));
#349=CARTESIAN_POINT('',(0.192840247721111,-0.104158356283368,-0.0347282999475573));
#350=CARTESIAN_POINT('',(0.195300075441181,-0.104199765263222,-0.0340375864654033));
#351=CARTESIAN_POINT('',(0.197064029900934,-0.104435152335223,-0.0333914997174185));
#352=CARTESIAN_POINT('',(0.198774681721186,-0.104865760569606,-0.0326143251479928));
#353=CARTESIAN_POINT('',(0.200341384349617,-0.105451131235621,-0.0317265947557417));
#354=CARTESIAN_POINT('',(0.2015290743918,-0.106044260284754,-0.030851631672348));
#355=CARTESIAN_POINT('',(0.202327252814175,-0.106517722507463,-0.0299340958023464));
#356=CARTESIAN_POINT('',(0.202556156995328,-0.106666426482964,-0.0293268303784716));
#357=CARTESIAN_POINT('',(0.202556156995329,-0.106666426482964,-0.029));
#358=CARTESIAN_POINT('',(0.202556156995329,-0.106666426482964,-0.029));
#359=CARTESIAN_POINT('',(0.202556156995329,-0.106666426482964,0.02));
#360=CARTESIAN_POINT('',(0.202556156995329,-0.106666426482964,0.02));
#361=CARTESIAN_POINT('',(0.194133399738705,-0.119758439001947,0.02));
#362=CARTESIAN_POINT('',(0.175070208290117,-0.134604813630976,0.02));
#363=CARTESIAN_POINT('',(0.175070208290117,-0.134604813630976,-0.029));
#364=CARTESIAN_POINT('',(0.182741988545747,-0.0961707839129378,-0.029));
#365=CARTESIAN_POINT('',(0.182741988545747,-0.0961707839129378,0.02));
#366=CARTESIAN_POINT('',(0.182741988545747,-0.0961707839129378,0.02));
#367=CARTESIAN_POINT('',(0.175070208290117,-0.134604813630976,0.02));
#368=CARTESIAN_POINT('',(0.144036852904262,-0.0923448117939012,0.02));
#369=CARTESIAN_POINT('',(0.144036852904262,-0.0923448117939012,-0.035));
#370=CARTESIAN_POINT('',(0.177489506941583,-0.11218531394331,-0.035));
#371=CARTESIAN_POINT('',(0.181692571786432,-0.102079924692496,-0.035));
#372=CARTESIAN_POINT('',(0.177489506941583,-0.11218531394331,-0.035));
#373=CARTESIAN_POINT('',(0.177084610044059,-0.112868002099672,-0.035));
#374=CARTESIAN_POINT('',(0.176244070847494,-0.114187473551657,-0.0346916509152264));
#375=CARTESIAN_POINT('',(0.174671126653043,-0.116358441872496,-0.0329180180563109));
#376=CARTESIAN_POINT('',(0.17403192104235,-0.117104082281395,-0.0305875621190301));
#377=CARTESIAN_POINT('',(0.17403192104235,-0.117104082281395,-0.029));
#378=CARTESIAN_POINT('',(0.17403192104235,-0.117104082281395,-0.029));
#379=CARTESIAN_POINT('',(0.17403192104235,-0.117104082281395,0.02));
#380=CARTESIAN_POINT('',(0.17403192104235,-0.117104082281395,0.02));
#381=CARTESIAN_POINT('',(0.144036852904262,-0.0923448117939012,0.02));
#382=CARTESIAN_POINT('',(0.182741988545747,-0.0961707839129378,-0.029));
#383=CARTESIAN_POINT('',(0.182741988545747,-0.0961707839129378,-0.0297927253405269));
#384=CARTESIAN_POINT('',(0.18271242790108,-0.0964843383885676,-0.0313531275775554));
#385=CARTESIAN_POINT('',(0.182507082518412,-0.098254460477523,-0.0340219531314399));
#386=CARTESIAN_POINT('',(0.18208943110714,-0.100544860520974,-0.035));
#387=CARTESIAN_POINT('',(0.181692571786432,-0.102079924692496,-0.035));
#388=CARTESIAN_POINT('',(0.135128950782926,-0.165209115537685,0.02));
#389=CARTESIAN_POINT('',(0.135128950782926,-0.165209115537685,-0.029));
#390=CARTESIAN_POINT('',(0.135128950782926,-0.165209115537685,0.02));
#391=CARTESIAN_POINT('',(0.233402002858431,-0.141733597313975,0.02));
#392=CARTESIAN_POINT('',(0.233402002858431,-0.141733597313975,-0.035));
#393=CARTESIAN_POINT('',(0.135128950782926,-0.165209115537685,-0.035));
#394=CARTESIAN_POINT('',(0.175070208290117,-0.134604813630976,-0.035));
#395=CARTESIAN_POINT('',(0.135128950782926,-0.165209115537685,-0.029));
#396=CARTESIAN_POINT('',(0.175070208290117,-0.134604813630976,-0.029));
#397=CARTESIAN_POINT('',(0.194133399738705,-0.119758439001947,0.02));
#398=CARTESIAN_POINT('',(0.182967987879187,-0.10580934571111,0.02));
#399=CARTESIAN_POINT('',(0.182967987879187,-0.10580934571111,-0.0327));
#400=CARTESIAN_POINT('',(0.182967987879187,-0.10580934571111,0.0177));
#401=CARTESIAN_POINT('',(0.194133399738705,-0.119758439001947,0.0177));
#402=CARTESIAN_POINT('',(0.192303453584735,-0.101985005942948,0.0177));
#403=CARTESIAN_POINT('',(0.192303453584735,-0.101985005942948,0.0177));
#404=CARTESIAN_POINT('',(0.192303453584735,-0.101985005942948,-0.029));
#405=CARTESIAN_POINT('',(0.186692840657696,-0.103514002840875,-0.0327));
#406=CARTESIAN_POINT('',(0.187267019351158,-0.103251007532857,-0.0327));
#407=CARTESIAN_POINT('',(0.188420563425556,-0.102796316122061,-0.0325438501917497));
#408=CARTESIAN_POINT('',(0.190130860963649,-0.102316923180806,-0.0318936363835269));
#409=CARTESIAN_POINT('',(0.191678649290909,-0.102044261533896,-0.0308146289765587));
#410=CARTESIAN_POINT('',(0.192303453584735,-0.101985005942948,-0.0296388353324198));
#411=CARTESIAN_POINT('',(0.192303453584735,-0.101985005942948,-0.029));
#412=CARTESIAN_POINT('',(0.186692840657696,-0.103514002840875,-0.0327));
#413=CARTESIAN_POINT('',(0.194133399738705,-0.119758439001947,-0.0327));
#414=CARTESIAN_POINT('',(0.175070208290117,-0.134604813630976,0.02));
#415=CARTESIAN_POINT('',(0.175070208290117,-0.134604813630976,0.0177));
#416=CARTESIAN_POINT('',(0.184691239246766,-0.0989891940193561,0.0177));
#417=CARTESIAN_POINT('',(0.184691239246766,-0.0989891940193561,0.0177));
#418=CARTESIAN_POINT('',(0.184691239246766,-0.0989891940193561,-0.029));
#419=CARTESIAN_POINT('',(0.175070208290117,-0.134604813630976,-0.029));
#420=CARTESIAN_POINT('',(0.144036852904262,-0.0923448117939012,0.02));
#421=CARTESIAN_POINT('',(0.144036852904262,-0.0923448117939012,-0.0327));
#422=CARTESIAN_POINT('',(0.183929397105804,-0.102616708462558,-0.0327));
#423=CARTESIAN_POINT('',(0.184691239246766,-0.0989891940193561,-0.029));
#424=CARTESIAN_POINT('',(0.184691239246766,-0.0989891940193561,-0.0299780883376973));
#425=CARTESIAN_POINT('',(0.184571085790606,-0.0997907780297843,-0.0318923941747127));
#426=CARTESIAN_POINT('',(0.18417328265863,-0.101669540134246,-0.0327));
#427=CARTESIAN_POINT('',(0.183929397105804,-0.102616708462558,-0.0327));
#428=CARTESIAN_POINT('',(0.144036852904262,-0.0923448117939012,0.0177));
#429=CARTESIAN_POINT('',(0.233402002858431,-0.141733597313975,0.0177));
#430=CARTESIAN_POINT('',(0.233402002858431,-0.141733597313975,-0.0327));
#431=CARTESIAN_POINT('',(0.175070208290117,-0.134604813630976,-0.0327));
#432=CARTESIAN_POINT('',(0.175070208290117,-0.134604813630976,-0.029));
#433=MECHANICAL_DESIGN_GEOMETRIC_PRESENTATION_REPRESENTATION('',(#218),
#434);
#434=(
GEOMETRIC_REPRESENTATION_CONTEXT(3)
GLOBAL_UNCERTAINTY_ASSIGNED_CONTEXT((#435))
GLOBAL_UNIT_ASSIGNED_CONTEXT((#438,#437,#436))
REPRESENTATION_CONTEXT('Tail_Part 1(begin)_Back',
'TOP_LEVEL_ASSEMBLY_PART')
);
#435=UNCERTAINTY_MEASURE_WITH_UNIT(LENGTH_MEASURE(2.E-5),#438,
'DISTANCE_ACCURACY_VALUE','Maximum Tolerance applied to model');
#436=(
NAMED_UNIT(*)
SI_UNIT($,.STERADIAN.)
SOLID_ANGLE_UNIT()
);
#437=(
NAMED_UNIT(*)
PLANE_ANGLE_UNIT()
SI_UNIT($,.RADIAN.)
);
#438=(
LENGTH_UNIT()
NAMED_UNIT(*)
SI_UNIT($,.METRE.)
);
#439=PRODUCT_DEFINITION_SHAPE('','',#440);
#440=PRODUCT_DEFINITION('','',#442,#441);
#441=PRODUCT_DEFINITION_CONTEXT('',#448,'design');
#442=PRODUCT_DEFINITION_FORMATION_WITH_SPECIFIED_SOURCE('','',#444,
 .NOT_KNOWN.);
#443=PRODUCT_RELATED_PRODUCT_CATEGORY('','',(#444));
#444=PRODUCT('Tail_Part 1(begin)_Back','Tail_Part 1(begin)_Back',
'Tail_Part 1(begin)_Back',(#446));
#445=PRODUCT_CATEGORY('','');
#446=PRODUCT_CONTEXT('',#448,'mechanical');
#447=APPLICATION_PROTOCOL_DEFINITION('international standard',
'ap242_managed_model_based_3d_engineering',2020,#448);
#448=APPLICATION_CONTEXT('managed model based 3d engineering');
ENDSEC;
END-ISO-10303-21;
