ISO-10303-21;
HEADER;
/* Generated by software containing ST-Developer
 * from STEP Tools, Inc. (www.steptools.com) 
 */
/* OPTION: using custom renumber hook */

FILE_DESCRIPTION(
/* description */ ('STEP AP242 Edition 2',
'CAx-IF Rec.Pracs.---Representation and Presentation of Product Manufa
cturing Information (PMI)---4.0---2014-10-13',
'CAx-IF Rec.Pracs.---3D Tessellated Geometry---0.4---2014-09-14','2;1',
'CAx-IF Rec.Pracs.---User Defined Attributes---1.5---2016-08-15'),
/* implementation_level */ '2;1');

FILE_NAME(
/* name */ 'Part Studio 1 - Tail_Part 9_Red',
/* time_stamp */ '2026-06-21T21:08:51Z',
/* author */ (''),
/* organization */ (''),
/* preprocessor_version */ 'ST-DEVELOPER v20',
/* originating_system */ 'ONSHAPE BY PTC INC, 1.216',
/* authorisation */ '  ');

FILE_SCHEMA (('AP242_MANAGED_MODEL_BASED_3D_ENGINEERING_MIM_LF { 1 0 10303 442 3 1 4 }'));
ENDSEC;

DATA;
#10=SHAPE_REPRESENTATION_RELATIONSHIP('','',#329,#11);
#11=ADVANCED_BREP_SHAPE_REPRESENTATION('',(#327),#628);
#12=ORIENTED_CLOSED_SHELL('',*,#318,.F.);
#13=TOROIDAL_SURFACE('',#349,0.0199461489834293,0.006);
#14=TOROIDAL_SURFACE('',#350,0.00789222457397533,0.006);
#15=TOROIDAL_SURFACE('',#352,0.012,0.006);
#16=TOROIDAL_SURFACE('',#373,0.0199461489834293,0.0037);
#17=TOROIDAL_SURFACE('',#374,0.00789222457397533,0.0037);
#18=TOROIDAL_SURFACE('',#376,0.012,0.0037);
#19=PLANE('',#343);
#20=PLANE('',#345);
#21=PLANE('',#367);
#22=PLANE('',#369);
#23=B_SPLINE_CURVE_WITH_KNOTS('',3,(#503,#504,#505,#506,#507,#508),
 .UNSPECIFIED.,.F.,.F.,(4,1,1,4),(0.,0.00285191184893444,0.00570382369786887,
0.0114076473957377),.UNSPECIFIED.);
#24=B_SPLINE_CURVE_WITH_KNOTS('',3,(#512,#513,#514,#515,#516,#517,#518),
 .UNSPECIFIED.,.F.,.F.,(4,1,1,1,4),(0.,0.00312671897428045,0.00625343794856089,
0.00938015692284134,0.0125068758971218),.UNSPECIFIED.);
#25=B_SPLINE_CURVE_WITH_KNOTS('',3,(#531,#532,#533,#534,#535,#536,#537),
 .UNSPECIFIED.,.F.,.F.,(4,1,1,1,4),(0.,0.00249368660612322,0.00498737321224644,
0.00748105981836966,0.00997474642449288),.UNSPECIFIED.);
#26=B_SPLINE_CURVE_WITH_KNOTS('',3,(#539,#540,#541,#542,#543,#544),
 .UNSPECIFIED.,.F.,.F.,(4,1,1,4),(0.,0.00237996387031038,0.00475992774062076,
0.00951985548124152),.UNSPECIFIED.);
#27=B_SPLINE_CURVE_WITH_KNOTS('',3,(#573,#574,#575,#576,#577,#578,#579),
 .UNSPECIFIED.,.F.,.F.,(4,1,1,1,4),(0.,0.00184186557430801,0.00368373114861601,
0.00552559672292402,0.00736746229723202),.UNSPECIFIED.);
#28=B_SPLINE_CURVE_WITH_KNOTS('',3,(#583,#584,#585,#586,#587,#588),
 .UNSPECIFIED.,.F.,.F.,(4,1,1,4),(0.,0.00209281471744004,0.00418562943488007,
0.00837125886976014),.UNSPECIFIED.);
#29=B_SPLINE_CURVE_WITH_KNOTS('',3,(#601,#602,#603,#604,#605),
 .UNSPECIFIED.,.F.,.F.,(4,1,4),(0.,0.00294618754455951,0.00589237508911901),
 .UNSPECIFIED.);
#30=B_SPLINE_CURVE_WITH_KNOTS('',3,(#607,#608,#609,#610,#611,#612,#613),
 .UNSPECIFIED.,.F.,.F.,(4,1,1,1,4),(0.,0.00164562342806123,0.00329124685612245,
0.00493687028418368,0.0065824937122449),.UNSPECIFIED.);
#31=LINE('',#492,#41);
#32=LINE('',#496,#42);
#33=LINE('',#501,#43);
#34=LINE('',#520,#44);
#35=LINE('',#524,#45);
#36=LINE('',#562,#46);
#37=LINE('',#566,#47);
#38=LINE('',#571,#48);
#39=LINE('',#590,#49);
#40=LINE('',#594,#50);
#41=VECTOR('',#385,1.);
#42=VECTOR('',#388,1.);
#43=VECTOR('',#393,1.);
#44=VECTOR('',#396,1.);
#45=VECTOR('',#401,1.);
#46=VECTOR('',#438,1.);
#47=VECTOR('',#441,1.);
#48=VECTOR('',#446,1.);
#49=VECTOR('',#449,1.);
#50=VECTOR('',#454,1.);
#51=ORIENTED_EDGE('',*,*,#143,.T.);
#52=ORIENTED_EDGE('',*,*,#144,.T.);
#53=ORIENTED_EDGE('',*,*,#145,.F.);
#54=ORIENTED_EDGE('',*,*,#146,.T.);
#55=ORIENTED_EDGE('',*,*,#147,.F.);
#56=ORIENTED_EDGE('',*,*,#148,.T.);
#57=ORIENTED_EDGE('',*,*,#149,.T.);
#58=ORIENTED_EDGE('',*,*,#150,.T.);
#59=ORIENTED_EDGE('',*,*,#151,.T.);
#60=ORIENTED_EDGE('',*,*,#152,.F.);
#61=ORIENTED_EDGE('',*,*,#152,.T.);
#62=ORIENTED_EDGE('',*,*,#153,.T.);
#63=ORIENTED_EDGE('',*,*,#154,.F.);
#64=ORIENTED_EDGE('',*,*,#155,.F.);
#65=ORIENTED_EDGE('',*,*,#156,.F.);
#66=ORIENTED_EDGE('',*,*,#157,.T.);
#67=ORIENTED_EDGE('',*,*,#146,.F.);
#68=ORIENTED_EDGE('',*,*,#158,.T.);
#69=ORIENTED_EDGE('',*,*,#154,.T.);
#70=ORIENTED_EDGE('',*,*,#159,.T.);
#71=ORIENTED_EDGE('',*,*,#145,.T.);
#72=ORIENTED_EDGE('',*,*,#160,.T.);
#73=ORIENTED_EDGE('',*,*,#147,.T.);
#74=ORIENTED_EDGE('',*,*,#155,.T.);
#75=ORIENTED_EDGE('',*,*,#158,.F.);
#76=ORIENTED_EDGE('',*,*,#150,.F.);
#77=ORIENTED_EDGE('',*,*,#161,.T.);
#78=ORIENTED_EDGE('',*,*,#162,.T.);
#79=ORIENTED_EDGE('',*,*,#156,.T.);
#80=ORIENTED_EDGE('',*,*,#163,.T.);
#81=ORIENTED_EDGE('',*,*,#151,.F.);
#82=ORIENTED_EDGE('',*,*,#163,.F.);
#83=ORIENTED_EDGE('',*,*,#159,.F.);
#84=ORIENTED_EDGE('',*,*,#153,.F.);
#85=ORIENTED_EDGE('',*,*,#157,.F.);
#86=ORIENTED_EDGE('',*,*,#162,.F.);
#87=ORIENTED_EDGE('',*,*,#164,.F.);
#88=ORIENTED_EDGE('',*,*,#143,.F.);
#89=ORIENTED_EDGE('',*,*,#161,.F.);
#90=ORIENTED_EDGE('',*,*,#149,.F.);
#91=ORIENTED_EDGE('',*,*,#165,.F.);
#92=ORIENTED_EDGE('',*,*,#164,.T.);
#93=ORIENTED_EDGE('',*,*,#160,.F.);
#94=ORIENTED_EDGE('',*,*,#144,.F.);
#95=ORIENTED_EDGE('',*,*,#165,.T.);
#96=ORIENTED_EDGE('',*,*,#148,.F.);
#97=ORIENTED_EDGE('',*,*,#166,.F.);
#98=ORIENTED_EDGE('',*,*,#167,.F.);
#99=ORIENTED_EDGE('',*,*,#168,.T.);
#100=ORIENTED_EDGE('',*,*,#169,.F.);
#101=ORIENTED_EDGE('',*,*,#170,.T.);
#102=ORIENTED_EDGE('',*,*,#171,.T.);
#103=ORIENTED_EDGE('',*,*,#172,.F.);
#104=ORIENTED_EDGE('',*,*,#173,.F.);
#105=ORIENTED_EDGE('',*,*,#174,.F.);
#106=ORIENTED_EDGE('',*,*,#175,.F.);
#107=ORIENTED_EDGE('',*,*,#171,.F.);
#108=ORIENTED_EDGE('',*,*,#176,.T.);
#109=ORIENTED_EDGE('',*,*,#177,.T.);
#110=ORIENTED_EDGE('',*,*,#178,.F.);
#111=ORIENTED_EDGE('',*,*,#179,.T.);
#112=ORIENTED_EDGE('',*,*,#180,.F.);
#113=ORIENTED_EDGE('',*,*,#177,.F.);
#114=ORIENTED_EDGE('',*,*,#181,.F.);
#115=ORIENTED_EDGE('',*,*,#167,.T.);
#116=ORIENTED_EDGE('',*,*,#182,.F.);
#117=ORIENTED_EDGE('',*,*,#168,.F.);
#118=ORIENTED_EDGE('',*,*,#181,.T.);
#119=ORIENTED_EDGE('',*,*,#176,.F.);
#120=ORIENTED_EDGE('',*,*,#170,.F.);
#121=ORIENTED_EDGE('',*,*,#183,.F.);
#122=ORIENTED_EDGE('',*,*,#173,.T.);
#123=ORIENTED_EDGE('',*,*,#184,.F.);
#124=ORIENTED_EDGE('',*,*,#179,.F.);
#125=ORIENTED_EDGE('',*,*,#185,.F.);
#126=ORIENTED_EDGE('',*,*,#186,.F.);
#127=ORIENTED_EDGE('',*,*,#172,.T.);
#128=ORIENTED_EDGE('',*,*,#178,.T.);
#129=ORIENTED_EDGE('',*,*,#180,.T.);
#130=ORIENTED_EDGE('',*,*,#184,.T.);
#131=ORIENTED_EDGE('',*,*,#182,.T.);
#132=ORIENTED_EDGE('',*,*,#166,.T.);
#133=ORIENTED_EDGE('',*,*,#187,.T.);
#134=ORIENTED_EDGE('',*,*,#185,.T.);
#135=ORIENTED_EDGE('',*,*,#186,.T.);
#136=ORIENTED_EDGE('',*,*,#187,.F.);
#137=ORIENTED_EDGE('',*,*,#188,.T.);
#138=ORIENTED_EDGE('',*,*,#174,.T.);
#139=ORIENTED_EDGE('',*,*,#183,.T.);
#140=ORIENTED_EDGE('',*,*,#175,.T.);
#141=ORIENTED_EDGE('',*,*,#188,.F.);
#142=ORIENTED_EDGE('',*,*,#169,.T.);
#143=EDGE_CURVE('',#189,#190,#219,.T.);
#144=EDGE_CURVE('',#190,#191,#31,.F.);
#145=EDGE_CURVE('',#192,#191,#220,.T.);
#146=EDGE_CURVE('',#192,#189,#32,.T.);
#147=EDGE_CURVE('',#193,#194,#221,.T.);
#148=EDGE_CURVE('',#193,#195,#33,.T.);
#149=EDGE_CURVE('',#195,#196,#23,.F.);
#150=EDGE_CURVE('',#196,#197,#222,.T.);
#151=EDGE_CURVE('',#197,#198,#24,.T.);
#152=EDGE_CURVE('',#194,#198,#34,.T.);
#153=EDGE_CURVE('',#198,#199,#223,.T.);
#154=EDGE_CURVE('',#200,#199,#35,.T.);
#155=EDGE_CURVE('',#194,#200,#224,.T.);
#156=EDGE_CURVE('',#201,#202,#225,.T.);
#157=EDGE_CURVE('',#201,#189,#25,.T.);
#158=EDGE_CURVE('',#192,#200,#226,.T.);
#159=EDGE_CURVE('',#199,#202,#26,.T.);
#160=EDGE_CURVE('',#191,#193,#227,.F.);
#161=EDGE_CURVE('',#196,#203,#228,.T.);
#162=EDGE_CURVE('',#203,#201,#229,.F.);
#163=EDGE_CURVE('',#202,#197,#230,.F.);
#164=EDGE_CURVE('',#190,#203,#231,.T.);
#165=EDGE_CURVE('',#190,#195,#232,.F.);
#166=EDGE_CURVE('',#204,#205,#233,.F.);
#167=EDGE_CURVE('',#206,#204,#36,.T.);
#168=EDGE_CURVE('',#206,#207,#234,.T.);
#169=EDGE_CURVE('',#205,#207,#37,.F.);
#170=EDGE_CURVE('',#208,#209,#235,.T.);
#171=EDGE_CURVE('',#209,#210,#38,.T.);
#172=EDGE_CURVE('',#211,#210,#27,.T.);
#173=EDGE_CURVE('',#212,#211,#236,.T.);
#174=EDGE_CURVE('',#213,#212,#28,.F.);
#175=EDGE_CURVE('',#208,#213,#39,.T.);
#176=EDGE_CURVE('',#209,#214,#237,.T.);
#177=EDGE_CURVE('',#214,#215,#40,.T.);
#178=EDGE_CURVE('',#210,#215,#238,.F.);
#179=EDGE_CURVE('',#216,#217,#239,.T.);
#180=EDGE_CURVE('',#215,#217,#29,.T.);
#181=EDGE_CURVE('',#206,#214,#240,.T.);
#182=EDGE_CURVE('',#216,#204,#30,.T.);
#183=EDGE_CURVE('',#207,#208,#241,.F.);
#184=EDGE_CURVE('',#217,#211,#242,.F.);
#185=EDGE_CURVE('',#218,#216,#243,.F.);
#186=EDGE_CURVE('',#212,#218,#244,.T.);
#187=EDGE_CURVE('',#205,#218,#245,.T.);
#188=EDGE_CURVE('',#205,#213,#246,.F.);
#189=VERTEX_POINT('',#490);
#190=VERTEX_POINT('',#491);
#191=VERTEX_POINT('',#493);
#192=VERTEX_POINT('',#495);
#193=VERTEX_POINT('',#499);
#194=VERTEX_POINT('',#500);
#195=VERTEX_POINT('',#502);
#196=VERTEX_POINT('',#509);
#197=VERTEX_POINT('',#511);
#198=VERTEX_POINT('',#519);
#199=VERTEX_POINT('',#523);
#200=VERTEX_POINT('',#525);
#201=VERTEX_POINT('',#529);
#202=VERTEX_POINT('',#530);
#203=VERTEX_POINT('',#549);
#204=VERTEX_POINT('',#560);
#205=VERTEX_POINT('',#561);
#206=VERTEX_POINT('',#563);
#207=VERTEX_POINT('',#565);
#208=VERTEX_POINT('',#569);
#209=VERTEX_POINT('',#570);
#210=VERTEX_POINT('',#572);
#211=VERTEX_POINT('',#580);
#212=VERTEX_POINT('',#582);
#213=VERTEX_POINT('',#589);
#214=VERTEX_POINT('',#593);
#215=VERTEX_POINT('',#595);
#216=VERTEX_POINT('',#599);
#217=VERTEX_POINT('',#600);
#218=VERTEX_POINT('',#619);
#219=CIRCLE('',#332,0.0138922245739753);
#220=CIRCLE('',#333,0.0138922245739753);
#221=CIRCLE('',#335,0.0228818841211793);
#222=CIRCLE('',#336,0.0228818841211793);
#223=CIRCLE('',#338,0.0259461489834293);
#224=CIRCLE('',#339,0.0259461489834293);
#225=CIRCLE('',#341,0.0180565229410642);
#226=CIRCLE('',#342,0.0180565229410642);
#227=CIRCLE('',#344,0.006);
#228=CIRCLE('',#346,0.012);
#229=CIRCLE('',#347,0.00789222457397533);
#230=CIRCLE('',#348,0.0199461489834293);
#231=CIRCLE('',#351,0.006);
#232=CIRCLE('',#353,0.006);
#233=CIRCLE('',#356,0.0115922245739753);
#234=CIRCLE('',#357,0.0115922245739753);
#235=CIRCLE('',#359,0.0205818841211793);
#236=CIRCLE('',#360,0.0205818841211793);
#237=CIRCLE('',#362,0.0236461489834293);
#238=CIRCLE('',#363,0.0236461489834293);
#239=CIRCLE('',#365,0.0203565229410642);
#240=CIRCLE('',#366,0.0203565229410642);
#241=CIRCLE('',#368,0.0083);
#242=CIRCLE('',#370,0.0199461489834293);
#243=CIRCLE('',#371,0.00789222457397534);
#244=CIRCLE('',#372,0.012);
#245=CIRCLE('',#375,0.0037);
#246=CIRCLE('',#377,0.0083);
#247=EDGE_LOOP('',(#51,#52,#53,#54));
#248=EDGE_LOOP('',(#55,#56,#57,#58,#59,#60));
#249=EDGE_LOOP('',(#61,#62,#63,#64));
#250=EDGE_LOOP('',(#65,#66,#67,#68,#69,#70));
#251=EDGE_LOOP('',(#71,#72,#73,#74,#75));
#252=EDGE_LOOP('',(#76,#77,#78,#79,#80));
#253=EDGE_LOOP('',(#81,#82,#83,#84));
#254=EDGE_LOOP('',(#85,#86,#87,#88));
#255=EDGE_LOOP('',(#89,#90,#91,#92));
#256=EDGE_LOOP('',(#93,#94,#95,#96));
#257=EDGE_LOOP('',(#97,#98,#99,#100));
#258=EDGE_LOOP('',(#101,#102,#103,#104,#105,#106));
#259=EDGE_LOOP('',(#107,#108,#109,#110));
#260=EDGE_LOOP('',(#111,#112,#113,#114,#115,#116));
#261=EDGE_LOOP('',(#117,#118,#119,#120,#121));
#262=EDGE_LOOP('',(#122,#123,#124,#125,#126));
#263=EDGE_LOOP('',(#127,#128,#129,#130));
#264=EDGE_LOOP('',(#131,#132,#133,#134));
#265=EDGE_LOOP('',(#135,#136,#137,#138));
#266=EDGE_LOOP('',(#139,#140,#141,#142));
#267=FACE_BOUND('',#247,.T.);
#268=FACE_BOUND('',#248,.T.);
#269=FACE_BOUND('',#249,.T.);
#270=FACE_BOUND('',#250,.T.);
#271=FACE_BOUND('',#251,.T.);
#272=FACE_BOUND('',#252,.T.);
#273=FACE_BOUND('',#253,.T.);
#274=FACE_BOUND('',#254,.T.);
#275=FACE_BOUND('',#255,.T.);
#276=FACE_BOUND('',#256,.T.);
#277=FACE_BOUND('',#257,.T.);
#278=FACE_BOUND('',#258,.T.);
#279=FACE_BOUND('',#259,.T.);
#280=FACE_BOUND('',#260,.T.);
#281=FACE_BOUND('',#261,.T.);
#282=FACE_BOUND('',#262,.T.);
#283=FACE_BOUND('',#263,.T.);
#284=FACE_BOUND('',#264,.T.);
#285=FACE_BOUND('',#265,.T.);
#286=FACE_BOUND('',#266,.T.);
#287=CYLINDRICAL_SURFACE('',#331,0.0138922245739753);
#288=CYLINDRICAL_SURFACE('',#334,0.0228818841211793);
#289=CYLINDRICAL_SURFACE('',#337,0.0259461489834293);
#290=CYLINDRICAL_SURFACE('',#340,0.0180565229410642);
#291=CYLINDRICAL_SURFACE('',#354,0.006);
#292=CYLINDRICAL_SURFACE('',#355,0.0115922245739753);
#293=CYLINDRICAL_SURFACE('',#358,0.0205818841211793);
#294=CYLINDRICAL_SURFACE('',#361,0.0236461489834293);
#295=CYLINDRICAL_SURFACE('',#364,0.0203565229410642);
#296=CYLINDRICAL_SURFACE('',#378,0.0083);
#297=ADVANCED_FACE('Face appearance 5',(#267),#287,.T.);
#298=ADVANCED_FACE('Face appearance 5',(#268),#288,.T.);
#299=ADVANCED_FACE('Face appearance 5',(#269),#289,.T.);
#300=ADVANCED_FACE('Face appearance 5',(#270),#290,.F.);
#301=ADVANCED_FACE('Face appearance 5',(#271),#19,.T.);
#302=ADVANCED_FACE('Face appearance 5',(#272),#20,.F.);
#303=ADVANCED_FACE('',(#273),#13,.T.);
#304=ADVANCED_FACE('',(#274),#14,.T.);
#305=ADVANCED_FACE('',(#275),#15,.T.);
#306=ADVANCED_FACE('',(#276),#291,.F.);
#307=ADVANCED_FACE('',(#277),#292,.F.);
#308=ADVANCED_FACE('',(#278),#293,.F.);
#309=ADVANCED_FACE('',(#279),#294,.F.);
#310=ADVANCED_FACE('',(#280),#295,.T.);
#311=ADVANCED_FACE('',(#281),#21,.F.);
#312=ADVANCED_FACE('',(#282),#22,.T.);
#313=ADVANCED_FACE('',(#283),#16,.F.);
#314=ADVANCED_FACE('',(#284),#17,.F.);
#315=ADVANCED_FACE('',(#285),#18,.F.);
#316=ADVANCED_FACE('',(#286),#296,.T.);
#317=CLOSED_SHELL('',(#297,#298,#299,#300,#301,#302,#303,#304,#305,#306));
#318=CLOSED_SHELL('',(#307,#308,#309,#310,#311,#312,#313,#314,#315,#316));
#319=STYLED_ITEM('',(#320),#327);
#320=PRESENTATION_STYLE_ASSIGNMENT((#321));
#321=SURFACE_STYLE_USAGE(.BOTH.,#322);
#322=SURFACE_SIDE_STYLE('',(#323));
#323=SURFACE_STYLE_FILL_AREA(#324);
#324=FILL_AREA_STYLE('',(#325));
#325=FILL_AREA_STYLE_COLOUR('',#326);
#326=COLOUR_RGB('',0.458823529411765,0.105882352941176,0.);
#327=BREP_WITH_VOIDS('Tail_Part 9_Red',#317,(#12));
#328=SHAPE_DEFINITION_REPRESENTATION(#633,#329);
#329=SHAPE_REPRESENTATION('Tail_Part 9_Red',(#330),#628);
#330=AXIS2_PLACEMENT_3D('',#487,#379,#380);
#331=AXIS2_PLACEMENT_3D('',#488,#381,#382);
#332=AXIS2_PLACEMENT_3D('',#489,#383,#384);
#333=AXIS2_PLACEMENT_3D('',#494,#386,#387);
#334=AXIS2_PLACEMENT_3D('',#497,#389,#390);
#335=AXIS2_PLACEMENT_3D('',#498,#391,#392);
#336=AXIS2_PLACEMENT_3D('',#510,#394,#395);
#337=AXIS2_PLACEMENT_3D('',#521,#397,#398);
#338=AXIS2_PLACEMENT_3D('',#522,#399,#400);
#339=AXIS2_PLACEMENT_3D('',#526,#402,#403);
#340=AXIS2_PLACEMENT_3D('',#527,#404,#405);
#341=AXIS2_PLACEMENT_3D('',#528,#406,#407);
#342=AXIS2_PLACEMENT_3D('',#538,#408,#409);
#343=AXIS2_PLACEMENT_3D('',#545,#410,#411);
#344=AXIS2_PLACEMENT_3D('',#546,#412,#413);
#345=AXIS2_PLACEMENT_3D('',#547,#414,#415);
#346=AXIS2_PLACEMENT_3D('',#548,#416,#417);
#347=AXIS2_PLACEMENT_3D('',#550,#418,#419);
#348=AXIS2_PLACEMENT_3D('',#551,#420,#421);
#349=AXIS2_PLACEMENT_3D('',#552,#422,#423);
#350=AXIS2_PLACEMENT_3D('',#553,#424,#425);
#351=AXIS2_PLACEMENT_3D('',#554,#426,#427);
#352=AXIS2_PLACEMENT_3D('',#555,#428,#429);
#353=AXIS2_PLACEMENT_3D('',#556,#430,#431);
#354=AXIS2_PLACEMENT_3D('',#557,#432,#433);
#355=AXIS2_PLACEMENT_3D('',#558,#434,#435);
#356=AXIS2_PLACEMENT_3D('',#559,#436,#437);
#357=AXIS2_PLACEMENT_3D('',#564,#439,#440);
#358=AXIS2_PLACEMENT_3D('',#567,#442,#443);
#359=AXIS2_PLACEMENT_3D('',#568,#444,#445);
#360=AXIS2_PLACEMENT_3D('',#581,#447,#448);
#361=AXIS2_PLACEMENT_3D('',#591,#450,#451);
#362=AXIS2_PLACEMENT_3D('',#592,#452,#453);
#363=AXIS2_PLACEMENT_3D('',#596,#455,#456);
#364=AXIS2_PLACEMENT_3D('',#597,#457,#458);
#365=AXIS2_PLACEMENT_3D('',#598,#459,#460);
#366=AXIS2_PLACEMENT_3D('',#606,#461,#462);
#367=AXIS2_PLACEMENT_3D('',#614,#463,#464);
#368=AXIS2_PLACEMENT_3D('',#615,#465,#466);
#369=AXIS2_PLACEMENT_3D('',#616,#467,#468);
#370=AXIS2_PLACEMENT_3D('',#617,#469,#470);
#371=AXIS2_PLACEMENT_3D('',#618,#471,#472);
#372=AXIS2_PLACEMENT_3D('',#620,#473,#474);
#373=AXIS2_PLACEMENT_3D('',#621,#475,#476);
#374=AXIS2_PLACEMENT_3D('',#622,#477,#478);
#375=AXIS2_PLACEMENT_3D('',#623,#479,#480);
#376=AXIS2_PLACEMENT_3D('',#624,#481,#482);
#377=AXIS2_PLACEMENT_3D('',#625,#483,#484);
#378=AXIS2_PLACEMENT_3D('',#626,#485,#486);
#379=DIRECTION('',(0.,0.,1.));
#380=DIRECTION('',(1.,0.,0.));
#381=DIRECTION('',(0.,0.,-1.));
#382=DIRECTION('',(-1.,0.,0.));
#383=DIRECTION('',(0.,0.,1.));
#384=DIRECTION('',(1.,0.,0.));
#385=DIRECTION('',(0.,0.,-1.));
#386=DIRECTION('',(0.,0.,1.));
#387=DIRECTION('',(1.,0.,0.));
#388=DIRECTION('',(0.,0.,-1.));
#389=DIRECTION('',(0.,0.,-1.));
#390=DIRECTION('',(-1.,0.,0.));
#391=DIRECTION('',(0.,0.,1.));
#392=DIRECTION('',(1.,0.,0.));
#393=DIRECTION('',(0.,0.,-1.));
#394=DIRECTION('',(0.,0.,1.));
#395=DIRECTION('',(1.,0.,0.));
#396=DIRECTION('',(0.,0.,-1.));
#397=DIRECTION('',(0.,0.,-1.));
#398=DIRECTION('',(-1.,0.,0.));
#399=DIRECTION('',(0.,0.,1.));
#400=DIRECTION('',(1.,0.,0.));
#401=DIRECTION('',(0.,0.,-1.));
#402=DIRECTION('',(0.,0.,1.));
#403=DIRECTION('',(1.,0.,0.));
#404=DIRECTION('',(0.,0.,-1.));
#405=DIRECTION('',(-1.,0.,0.));
#406=DIRECTION('',(0.,0.,1.));
#407=DIRECTION('',(1.,0.,0.));
#408=DIRECTION('',(0.,0.,1.));
#409=DIRECTION('',(1.,0.,0.));
#410=DIRECTION('',(0.,0.,1.));
#411=DIRECTION('',(1.,0.,0.));
#412=DIRECTION('',(0.,0.,1.));
#413=DIRECTION('',(1.,0.,0.));
#414=DIRECTION('',(0.,0.,1.));
#415=DIRECTION('',(1.,0.,0.));
#416=DIRECTION('',(0.,0.,1.));
#417=DIRECTION('',(1.,0.,0.));
#418=DIRECTION('',(0.,0.,1.));
#419=DIRECTION('',(1.,0.,0.));
#420=DIRECTION('',(0.,0.,1.));
#421=DIRECTION('',(1.,0.,0.));
#422=DIRECTION('',(0.,0.,1.));
#423=DIRECTION('',(1.,0.,0.));
#424=DIRECTION('',(0.,0.,1.));
#425=DIRECTION('',(1.,0.,0.));
#426=DIRECTION('',(-0.064082808887455,-0.997944584435977,-5.92885082579218E-16));
#427=DIRECTION('',(0.997944584435977,-0.064082808887455,0.));
#428=DIRECTION('',(0.,0.,1.));
#429=DIRECTION('',(1.,0.,0.));
#430=DIRECTION('',(0.,0.,1.));
#431=DIRECTION('',(1.,0.,0.));
#432=DIRECTION('',(0.,0.,1.));
#433=DIRECTION('',(1.,0.,0.));
#434=DIRECTION('',(0.,0.,-1.));
#435=DIRECTION('',(-1.,0.,0.));
#436=DIRECTION('',(0.,0.,-1.));
#437=DIRECTION('',(-1.,0.,0.));
#438=DIRECTION('',(0.,0.,-1.));
#439=DIRECTION('',(0.,0.,1.));
#440=DIRECTION('',(1.,0.,0.));
#441=DIRECTION('',(0.,0.,-1.));
#442=DIRECTION('',(0.,0.,-1.));
#443=DIRECTION('',(-1.,0.,0.));
#444=DIRECTION('',(0.,0.,1.));
#445=DIRECTION('',(1.,0.,0.));
#446=DIRECTION('',(0.,0.,-1.));
#447=DIRECTION('',(0.,0.,1.));
#448=DIRECTION('',(1.,0.,0.));
#449=DIRECTION('',(0.,0.,-1.));
#450=DIRECTION('',(0.,0.,-1.));
#451=DIRECTION('',(-1.,0.,0.));
#452=DIRECTION('',(0.,0.,1.));
#453=DIRECTION('',(1.,0.,0.));
#454=DIRECTION('',(0.,0.,-1.));
#455=DIRECTION('',(0.,0.,-1.));
#456=DIRECTION('',(-1.,0.,0.));
#457=DIRECTION('',(0.,0.,-1.));
#458=DIRECTION('',(-1.,0.,0.));
#459=DIRECTION('',(0.,0.,1.));
#460=DIRECTION('',(1.,0.,0.));
#461=DIRECTION('',(0.,0.,1.));
#462=DIRECTION('',(1.,0.,0.));
#463=DIRECTION('',(0.,0.,1.));
#464=DIRECTION('',(1.,0.,0.));
#465=DIRECTION('',(0.,0.,1.));
#466=DIRECTION('',(1.,0.,0.));
#467=DIRECTION('',(0.,0.,1.));
#468=DIRECTION('',(1.,0.,0.));
#469=DIRECTION('',(0.,0.,1.));
#470=DIRECTION('',(1.,0.,0.));
#471=DIRECTION('',(0.,0.,1.));
#472=DIRECTION('',(1.,0.,0.));
#473=DIRECTION('',(0.,0.,1.));
#474=DIRECTION('',(1.,0.,0.));
#475=DIRECTION('',(0.,0.,1.));
#476=DIRECTION('',(1.,0.,0.));
#477=DIRECTION('',(0.,0.,1.));
#478=DIRECTION('',(1.,0.,0.));
#479=DIRECTION('',(-0.0640828088874553,-0.997944584435977,0.));
#480=DIRECTION('',(0.997944584435977,-0.0640828088874553,0.));
#481=DIRECTION('',(0.,0.,1.));
#482=DIRECTION('',(1.,0.,0.));
#483=DIRECTION('',(0.,0.,1.));
#484=DIRECTION('',(1.,0.,0.));
#485=DIRECTION('',(0.,0.,1.));
#486=DIRECTION('',(1.,0.,0.));
#487=CARTESIAN_POINT('',(0.,0.,0.));
#488=CARTESIAN_POINT('',(0.271557936518341,-0.150339852344405,0.02));
#489=CARTESIAN_POINT('',(0.271557936518341,-0.150339852344405,-0.029));
#490=CARTESIAN_POINT('',(0.268155318830342,-0.136870773070635,-0.029));
#491=CARTESIAN_POINT('',(0.257694266238974,-0.149449599572009,-0.029));
#492=CARTESIAN_POINT('',(0.257694266238974,-0.149449599572009,0.02));
#493=CARTESIAN_POINT('',(0.257694266238974,-0.149449599572009,0.02));
#494=CARTESIAN_POINT('',(0.271557936518341,-0.150339852344405,0.02));
#495=CARTESIAN_POINT('',(0.268155318830342,-0.136870773070635,0.02));
#496=CARTESIAN_POINT('',(0.268155318830342,-0.136870773070635,0.02));
#497=CARTESIAN_POINT('',(0.280324685332461,-0.152959759280983,0.02));
#498=CARTESIAN_POINT('',(0.280324685332461,-0.152959759280983,0.02));
#499=CARTESIAN_POINT('',(0.257651796728451,-0.149874189109162,0.02));
#500=CARTESIAN_POINT('',(0.287463088282928,-0.174699672442076,0.02));
#501=CARTESIAN_POINT('',(0.257651796728451,-0.149874189109162,0.02));
#502=CARTESIAN_POINT('',(0.257651796728451,-0.149874189109162,-0.029));
#503=CARTESIAN_POINT('',(0.258282798887191,-0.159102711573564,-0.035));
#504=CARTESIAN_POINT('',(0.258023357745733,-0.158171795638217,-0.035));
#505=CARTESIAN_POINT('',(0.257637802398337,-0.156320503455421,-0.0345754008452397));
#506=CARTESIAN_POINT('',(0.257354216421378,-0.15303454164691,-0.0325727804512599));
#507=CARTESIAN_POINT('',(0.257481337052987,-0.1511267333775,-0.0304201835835524));
#508=CARTESIAN_POINT('',(0.257651796728451,-0.149874189109162,-0.029));
#509=CARTESIAN_POINT('',(0.258282798887191,-0.159102711573564,-0.035));
#510=CARTESIAN_POINT('',(0.280324685332461,-0.152959759280983,-0.035));
#511=CARTESIAN_POINT('',(0.277705615129183,-0.175691259280002,-0.035));
#512=CARTESIAN_POINT('',(0.277705615129183,-0.175691259280002,-0.035));
#513=CARTESIAN_POINT('',(0.278755950251243,-0.175812276433369,-0.035));
#514=CARTESIAN_POINT('',(0.280832401221613,-0.175904694370519,-0.0347811421694859));
#515=CARTESIAN_POINT('',(0.283838969825496,-0.17563357161604,-0.0337837925676965));
#516=CARTESIAN_POINT('',(0.28646102327338,-0.175041212815222,-0.03202966078951));
#517=CARTESIAN_POINT('',(0.287463088282928,-0.174699672442076,-0.0300690637766676));
#518=CARTESIAN_POINT('',(0.287463088282928,-0.174699672442076,-0.029));
#519=CARTESIAN_POINT('',(0.287463088282928,-0.174699672442076,-0.029));
#520=CARTESIAN_POINT('',(0.287463088282928,-0.174699672442076,0.02));
#521=CARTESIAN_POINT('',(0.266825935691084,-0.158973561035526,0.02));
#522=CARTESIAN_POINT('',(0.266825935691084,-0.158973561035526,-0.029));
#523=CARTESIAN_POINT('',(0.292765201596766,-0.158375956362976,-0.029));
#524=CARTESIAN_POINT('',(0.292765201596766,-0.158375956362976,0.02));
#525=CARTESIAN_POINT('',(0.292765201596766,-0.158375956362976,0.02));
#526=CARTESIAN_POINT('',(0.266825935691084,-0.158973561035526,0.02));
#527=CARTESIAN_POINT('',(0.285514891770404,-0.141838996904147,0.02));
#528=CARTESIAN_POINT('',(0.285514891770404,-0.141838996904147,-0.035));
#529=CARTESIAN_POINT('',(0.267539363974291,-0.143547335621255,-0.035));
#530=CARTESIAN_POINT('',(0.286752685784383,-0.15985304383148,-0.035));
#531=CARTESIAN_POINT('',(0.267539363974291,-0.143547335621255,-0.035));
#532=CARTESIAN_POINT('',(0.267459861934136,-0.142710797106761,-0.035));
#533=CARTESIAN_POINT('',(0.267422878509945,-0.141045167086231,-0.0347115716192354));
#534=CARTESIAN_POINT('',(0.267672361522317,-0.138845459535161,-0.0334673935162543));
#535=CARTESIAN_POINT('',(0.268033621882557,-0.137272702149973,-0.0314976798172232));
#536=CARTESIAN_POINT('',(0.268155318830342,-0.136870773070635,-0.0298428219731503));
#537=CARTESIAN_POINT('',(0.268155318830342,-0.136870773070635,-0.029));
#538=CARTESIAN_POINT('',(0.285514891770404,-0.141838996904147,0.02));
#539=CARTESIAN_POINT('',(0.292765201596766,-0.158375956362976,-0.029));
#540=CARTESIAN_POINT('',(0.292765201596766,-0.158375956362976,-0.0298053250630085));
#541=CARTESIAN_POINT('',(0.292443024049311,-0.15852152663487,-0.0313874965691977));
#542=CARTESIAN_POINT('',(0.290666014635651,-0.159213432629419,-0.0340269161219486));
#543=CARTESIAN_POINT('',(0.288358879851743,-0.159742677881514,-0.0350000000000001));
#544=CARTESIAN_POINT('',(0.286752685784383,-0.15985304383148,-0.035));
#545=CARTESIAN_POINT('',(0.233402002858431,-0.141733597313975,0.02));
#546=CARTESIAN_POINT('',(0.251706598732358,-0.149065102718684,0.02));
#547=CARTESIAN_POINT('',(0.233402002858431,-0.141733597313975,-0.035));
#548=CARTESIAN_POINT('',(0.251706598732358,-0.149065102718684,-0.035));
#549=CARTESIAN_POINT('',(0.263681933745589,-0.149834096425334,-0.035));
#550=CARTESIAN_POINT('',(0.271557936518341,-0.150339852344405,-0.035));
#551=CARTESIAN_POINT('',(0.266825935691084,-0.158973561035526,-0.035));
#552=CARTESIAN_POINT('',(0.266825935691084,-0.158973561035526,-0.029));
#553=CARTESIAN_POINT('',(0.271557936518341,-0.150339852344405,-0.029));
#554=CARTESIAN_POINT('',(0.263681933745589,-0.149834096425334,-0.029));
#555=CARTESIAN_POINT('',(0.251706598732358,-0.149065102718684,-0.029));
#556=CARTESIAN_POINT('',(0.251706598732358,-0.149065102718684,-0.029));
#557=CARTESIAN_POINT('',(0.251706598732358,-0.149065102718684,0.02));
#558=CARTESIAN_POINT('',(0.271557936518341,-0.150339852344405,0.02));
#559=CARTESIAN_POINT('',(0.271557936518341,-0.150339852344405,-0.029));
#560=CARTESIAN_POINT('',(0.265193045687687,-0.140651310901683,-0.029));
#561=CARTESIAN_POINT('',(0.259989538783177,-0.14959699003245,-0.029));
#562=CARTESIAN_POINT('',(0.265193045687687,-0.140651310901683,0.0177));
#563=CARTESIAN_POINT('',(0.265193045687687,-0.140651310901683,0.0177));
#564=CARTESIAN_POINT('',(0.271557936518341,-0.150339852344405,0.0177));
#565=CARTESIAN_POINT('',(0.259989538783177,-0.14959699003245,0.0177));
#566=CARTESIAN_POINT('',(0.259989538783177,-0.14959699003245,0.02));
#567=CARTESIAN_POINT('',(0.280324685332461,-0.152959759280983,0.02));
#568=CARTESIAN_POINT('',(0.280324685332461,-0.152959759280983,0.0177));
#569=CARTESIAN_POINT('',(0.25993078929362,-0.150184338892178,0.0177));
#570=CARTESIAN_POINT('',(0.286061657329343,-0.172725919916895,0.0177));
#571=CARTESIAN_POINT('',(0.286061657329343,-0.172725919916895,0.0177));
#572=CARTESIAN_POINT('',(0.286061657329343,-0.172725919916895,-0.029));
#573=CARTESIAN_POINT('',(0.280450584479553,-0.173541258336747,-0.0327));
#574=CARTESIAN_POINT('',(0.281073392668141,-0.173537448554985,-0.0327));
#575=CARTESIAN_POINT('',(0.282294150232816,-0.173473687575458,-0.0325605787771303));
#576=CARTESIAN_POINT('',(0.284041108733202,-0.173227174061625,-0.0319290066693888));
#577=CARTESIAN_POINT('',(0.285535211847614,-0.17288374411877,-0.0308151702230357));
#578=CARTESIAN_POINT('',(0.286061657329343,-0.172725919916895,-0.0296289575938812));
#579=CARTESIAN_POINT('',(0.286061657329343,-0.172725919916895,-0.029));
#580=CARTESIAN_POINT('',(0.280450584479553,-0.173541258336747,-0.0327));
#581=CARTESIAN_POINT('',(0.280324685332461,-0.152959759280983,-0.0327));
#582=CARTESIAN_POINT('',(0.260248358441198,-0.157493527309106,-0.0327));
#583=CARTESIAN_POINT('',(0.260248358441198,-0.157493527309106,-0.0327));
#584=CARTESIAN_POINT('',(0.260092535803716,-0.156803517103964,-0.0327));
#585=CARTESIAN_POINT('',(0.259859943366676,-0.155435675955151,-0.0324154867370243));
#586=CARTESIAN_POINT('',(0.259681266023147,-0.152929160269829,-0.0311845643921172));
#587=CARTESIAN_POINT('',(0.259783224477016,-0.151268650854773,-0.0298655072004286));
#588=CARTESIAN_POINT('',(0.25993078929362,-0.150184338892178,-0.029));
#589=CARTESIAN_POINT('',(0.25993078929362,-0.150184338892178,-0.029));
#590=CARTESIAN_POINT('',(0.25993078929362,-0.150184338892178,0.02));
#591=CARTESIAN_POINT('',(0.266825935691084,-0.158973561035526,0.02));
#592=CARTESIAN_POINT('',(0.266825935691084,-0.158973561035526,0.0177));
#593=CARTESIAN_POINT('',(0.290323592765236,-0.161619401879587,0.0177));
#594=CARTESIAN_POINT('',(0.290323592765236,-0.161619401879587,0.0177));
#595=CARTESIAN_POINT('',(0.290323592765236,-0.161619401879587,-0.029));
#596=CARTESIAN_POINT('',(0.266825935691084,-0.158973561035526,-0.029));
#597=CARTESIAN_POINT('',(0.285514891770404,-0.141838996904147,0.02));
#598=CARTESIAN_POINT('',(0.285514891770404,-0.141838996904147,-0.0327));
#599=CARTESIAN_POINT('',(0.265459900046401,-0.145329746565786,-0.0327));
#600=CARTESIAN_POINT('',(0.286514139577248,-0.162170979839183,-0.0327));
#601=CARTESIAN_POINT('',(0.290323592765236,-0.161619401879587,-0.029));
#602=CARTESIAN_POINT('',(0.290323592765236,-0.161619401879587,-0.0299967003486302));
#603=CARTESIAN_POINT('',(0.289453723768092,-0.161853153503072,-0.0319192842446676));
#604=CARTESIAN_POINT('',(0.287508746890415,-0.162122098272661,-0.0327000000000001));
#605=CARTESIAN_POINT('',(0.286514139577248,-0.162170979839183,-0.0327));
#606=CARTESIAN_POINT('',(0.285514891770404,-0.141838996904147,0.0177));
#607=CARTESIAN_POINT('',(0.265459900046401,-0.145329746565786,-0.0327));
#608=CARTESIAN_POINT('',(0.265364596766725,-0.144782211889737,-0.0327));
#609=CARTESIAN_POINT('',(0.265222059553436,-0.143696694613582,-0.0325584702746569));
#610=CARTESIAN_POINT('',(0.265144744684194,-0.142166001955909,-0.0318674946987202));
#611=CARTESIAN_POINT('',(0.265170865492782,-0.140975044054356,-0.0306492899721013));
#612=CARTESIAN_POINT('',(0.265193045687687,-0.140651310901683,-0.0295598132588143));
#613=CARTESIAN_POINT('',(0.265193045687687,-0.140651310901683,-0.029));
#614=CARTESIAN_POINT('',(0.233402002858431,-0.141733597313975,0.0177));
#615=CARTESIAN_POINT('',(0.251706598732358,-0.149065102718684,0.0177));
#616=CARTESIAN_POINT('',(0.233402002858431,-0.141733597313975,-0.0327));
#617=CARTESIAN_POINT('',(0.266825935691084,-0.158973561035526,-0.0327));
#618=CARTESIAN_POINT('',(0.271557936518341,-0.150339852344405,-0.0327));
#619=CARTESIAN_POINT('',(0.263681933745589,-0.149834096425334,-0.0327));
#620=CARTESIAN_POINT('',(0.251706598732358,-0.149065102718684,-0.0327));
#621=CARTESIAN_POINT('',(0.266825935691084,-0.158973561035526,-0.029));
#622=CARTESIAN_POINT('',(0.271557936518341,-0.150339852344405,-0.029));
#623=CARTESIAN_POINT('',(0.263681933745589,-0.149834096425334,-0.029));
#624=CARTESIAN_POINT('',(0.251706598732358,-0.149065102718684,-0.029));
#625=CARTESIAN_POINT('',(0.251706598732358,-0.149065102718684,-0.029));
#626=CARTESIAN_POINT('',(0.251706598732358,-0.149065102718684,0.02));
#627=MECHANICAL_DESIGN_GEOMETRIC_PRESENTATION_REPRESENTATION('',(#319),
#628);
#628=(
GEOMETRIC_REPRESENTATION_CONTEXT(3)
GLOBAL_UNCERTAINTY_ASSIGNED_CONTEXT((#629))
GLOBAL_UNIT_ASSIGNED_CONTEXT((#632,#631,#630))
REPRESENTATION_CONTEXT('Tail_Part 9_Red','TOP_LEVEL_ASSEMBLY_PART')
);
#629=UNCERTAINTY_MEASURE_WITH_UNIT(LENGTH_MEASURE(2.E-5),#632,
'DISTANCE_ACCURACY_VALUE','Maximum Tolerance applied to model');
#630=(
NAMED_UNIT(*)
SI_UNIT($,.STERADIAN.)
SOLID_ANGLE_UNIT()
);
#631=(
NAMED_UNIT(*)
PLANE_ANGLE_UNIT()
SI_UNIT($,.RADIAN.)
);
#632=(
LENGTH_UNIT()
NAMED_UNIT(*)
SI_UNIT($,.METRE.)
);
#633=PRODUCT_DEFINITION_SHAPE('','',#634);
#634=PRODUCT_DEFINITION('','',#636,#635);
#635=PRODUCT_DEFINITION_CONTEXT('',#642,'design');
#636=PRODUCT_DEFINITION_FORMATION_WITH_SPECIFIED_SOURCE('','',#638,
 .NOT_KNOWN.);
#637=PRODUCT_RELATED_PRODUCT_CATEGORY('','',(#638));
#638=PRODUCT('Tail_Part 9_Red','Tail_Part 9_Red','Tail_Part 9_Red',(#640));
#639=PRODUCT_CATEGORY('','');
#640=PRODUCT_CONTEXT('',#642,'mechanical');
#641=APPLICATION_PROTOCOL_DEFINITION('international standard',
'ap242_managed_model_based_3d_engineering',2020,#642);
#642=APPLICATION_CONTEXT('managed model based 3d engineering');
ENDSEC;
END-ISO-10303-21;
