ISO-10303-21;
HEADER;
/* Generated by software containing ST-Developer
 * from STEP Tools, Inc. (www.steptools.com) 
 */
/* OPTION: using custom renumber hook */

FILE_DESCRIPTION(
/* description */ ('STEP AP242 Edition 2',
'CAx-IF Rec.Pracs.---Representation and Presentation of Product Manufa
cturing Information (PMI)---4.0---2014-10-13',
'CAx-IF Rec.Pracs.---3D Tessellated Geometry---0.4---2014-09-14','2;1',
'CAx-IF Rec.Pracs.---User Defined Attributes---1.5---2016-08-15'),
/* implementation_level */ '2;1');

FILE_NAME(
/* name */ 'Part Studio 1 - Tail_Part 8_Red',
/* time_stamp */ '2026-06-21T21:08:51Z',
/* author */ (''),
/* organization */ (''),
/* preprocessor_version */ 'ST-DEVELOPER v20',
/* originating_system */ 'ONSHAPE BY PTC INC, 1.216',
/* authorisation */ '  ');

FILE_SCHEMA (('AP242_MANAGED_MODEL_BASED_3D_ENGINEERING_MIM_LF { 1 0 10303 442 3 1 4 }'));
ENDSEC;

DATA;
#10=SHAPE_REPRESENTATION_RELATIONSHIP('','',#329,#11);
#11=ADVANCED_BREP_SHAPE_REPRESENTATION('',(#327),#666);
#12=ORIENTED_CLOSED_SHELL('',*,#318,.F.);
#13=TOROIDAL_SURFACE('',#351,0.0463794368703526,0.006);
#14=TOROIDAL_SURFACE('',#352,0.0580458897862317,0.006);
#15=TOROIDAL_SURFACE('',#353,0.0409031697332331,0.006);
#16=TOROIDAL_SURFACE('',#373,0.0463794368703526,0.0037);
#17=TOROIDAL_SURFACE('',#374,0.0580458897862317,0.0037);
#18=TOROIDAL_SURFACE('',#375,0.0409031697332331,0.0037);
#19=PLANE('',#346);
#20=PLANE('',#347);
#21=PLANE('',#369);
#22=PLANE('',#370);
#23=LINE('',#490,#33);
#24=LINE('',#494,#34);
#25=LINE('',#513,#35);
#26=LINE('',#543,#36);
#27=LINE('',#556,#37);
#28=LINE('',#594,#38);
#29=LINE('',#598,#39);
#30=LINE('',#608,#40);
#31=LINE('',#623,#41);
#32=LINE('',#648,#42);
#33=VECTOR('',#382,1.);
#34=VECTOR('',#385,1.);
#35=VECTOR('',#390,1.);
#36=VECTOR('',#397,1.);
#37=VECTOR('',#404,1.);
#38=VECTOR('',#433,1.);
#39=VECTOR('',#436,1.);
#40=VECTOR('',#441,1.);
#41=VECTOR('',#450,1.);
#42=VECTOR('',#455,1.);
#43=B_SPLINE_CURVE_WITH_KNOTS('',3,(#483,#484,#485,#486,#487,#488),
 .UNSPECIFIED.,.F.,.F.,(4,1,1,4),(0.,0.00484009457866948,0.00726014186800422,
0.00968018915733896),.UNSPECIFIED.);
#44=B_SPLINE_CURVE_WITH_KNOTS('',3,(#496,#497,#498,#499,#500,#501,#502,
#503,#504,#505,#506,#507,#508,#509),.UNSPECIFIED.,.F.,.F.,(4,1,1,1,1,1,
1,1,1,1,1,4),(0.,0.000619313721199608,0.00123862744239922,0.00247725488479843,
0.00371588232719765,0.00495450976959687,0.00619313721199608,0.0074317646543953,
0.00990901953919373,0.0123862744239922,0.0148635293087906,0.0198180390783875),
 .UNSPECIFIED.);
#45=B_SPLINE_CURVE_WITH_KNOTS('',3,(#520,#521,#522,#523,#524,#525,#526,
#527,#528,#529,#530,#531,#532,#533,#534,#535,#536,#537,#538,#539,#540,#541),
 .UNSPECIFIED.,.F.,.F.,(4,1,1,1,1,1,1,1,1,1,1,1,1,1,1,1,1,1,1,4),(0.,0.00236850605485473,
0.00473701210970945,0.00710551816456418,0.00947402421941891,0.0118425302742736,
0.013026783301701,0.0142110363291284,0.0153952893565557,0.0159874158702694,
0.0165795423839831,0.0171716688976968,0.0177637954114104,0.0180598586682673,
0.0183559219251241,0.0185039535535525,0.018651985181981,0.0188000168104094,
0.0188740326246236,0.0189480484388378),.UNSPECIFIED.);
#46=B_SPLINE_CURVE_WITH_KNOTS('',3,(#546,#547,#548,#549,#550,#551,#552),
 .UNSPECIFIED.,.F.,.F.,(4,1,1,1,4),(0.,0.00251571293613799,0.00503142587227598,
0.00754713880841397,0.010062851744552),.UNSPECIFIED.);
#47=B_SPLINE_CURVE_WITH_KNOTS('',3,(#569,#570,#571,#572,#573,#574,#575),
 .UNSPECIFIED.,.F.,.F.,(4,1,1,1,4),(0.,0.00234404655668469,0.00468809311336937,
0.00703213967005406,0.00937618622673874),.UNSPECIFIED.);
#48=B_SPLINE_CURVE_WITH_KNOTS('',3,(#582,#583,#584,#585,#586),
 .UNSPECIFIED.,.F.,.F.,(4,1,4),(0.,0.00231732329251218,0.00463464658502436),
 .UNSPECIFIED.);
#49=B_SPLINE_CURVE_WITH_KNOTS('',3,(#588,#589,#590,#591,#592),
 .UNSPECIFIED.,.F.,.F.,(4,1,4),(0.,0.00173223316128976,0.00346446632257952),
 .UNSPECIFIED.);
#50=B_SPLINE_CURVE_WITH_KNOTS('',3,(#600,#601,#602,#603,#604),
 .UNSPECIFIED.,.F.,.F.,(4,1,4),(0.,0.00291955982079273,0.00583911964158547),
 .UNSPECIFIED.);
#51=B_SPLINE_CURVE_WITH_KNOTS('',3,(#615,#616,#617,#618,#619,#620),
 .UNSPECIFIED.,.F.,.F.,(4,1,1,4),(0.,0.00157592844387879,0.00315185688775758,
0.00630371377551515),.UNSPECIFIED.);
#52=B_SPLINE_CURVE_WITH_KNOTS('',3,(#625,#626,#627,#628,#629,#630,#631,
#632,#633,#634,#635,#636,#637,#638,#639,#640,#641,#642,#643,#644),
 .UNSPECIFIED.,.F.,.F.,(4,1,1,1,1,1,1,1,1,1,1,1,1,1,1,1,1,4),(0.,0.00334746526299945,
0.00502119789449918,0.0066949305259989,0.00836866315749863,0.00920552947324849,
0.0100423957889984,0.0108792621047482,0.0112976952626231,0.0117161284204981,
0.012134561578373,0.0125529947362479,0.0127622113151854,0.0129714278941229,
0.0131806444730603,0.0132852527625291,0.0133375569072634,0.0133898610519978),
 .UNSPECIFIED.);
#53=B_SPLINE_CURVE_WITH_KNOTS('',3,(#659,#660,#661,#662),.UNSPECIFIED.,
 .F.,.F.,(4,4),(0.00295910379482053,0.00573796764375563),.UNSPECIFIED.);
#54=ORIENTED_EDGE('',*,*,#146,.F.);
#55=ORIENTED_EDGE('',*,*,#147,.T.);
#56=ORIENTED_EDGE('',*,*,#148,.F.);
#57=ORIENTED_EDGE('',*,*,#149,.T.);
#58=ORIENTED_EDGE('',*,*,#150,.T.);
#59=ORIENTED_EDGE('',*,*,#151,.T.);
#60=ORIENTED_EDGE('',*,*,#148,.T.);
#61=ORIENTED_EDGE('',*,*,#152,.T.);
#62=ORIENTED_EDGE('',*,*,#153,.F.);
#63=ORIENTED_EDGE('',*,*,#154,.T.);
#64=ORIENTED_EDGE('',*,*,#155,.T.);
#65=ORIENTED_EDGE('',*,*,#156,.T.);
#66=ORIENTED_EDGE('',*,*,#157,.F.);
#67=ORIENTED_EDGE('',*,*,#158,.F.);
#68=ORIENTED_EDGE('',*,*,#153,.T.);
#69=ORIENTED_EDGE('',*,*,#159,.T.);
#70=ORIENTED_EDGE('',*,*,#157,.T.);
#71=ORIENTED_EDGE('',*,*,#160,.T.);
#72=ORIENTED_EDGE('',*,*,#161,.F.);
#73=ORIENTED_EDGE('',*,*,#162,.F.);
#74=ORIENTED_EDGE('',*,*,#161,.T.);
#75=ORIENTED_EDGE('',*,*,#163,.T.);
#76=ORIENTED_EDGE('',*,*,#150,.F.);
#77=ORIENTED_EDGE('',*,*,#164,.F.);
#78=ORIENTED_EDGE('',*,*,#149,.F.);
#79=ORIENTED_EDGE('',*,*,#154,.F.);
#80=ORIENTED_EDGE('',*,*,#158,.T.);
#81=ORIENTED_EDGE('',*,*,#162,.T.);
#82=ORIENTED_EDGE('',*,*,#164,.T.);
#83=ORIENTED_EDGE('',*,*,#155,.F.);
#84=ORIENTED_EDGE('',*,*,#165,.T.);
#85=ORIENTED_EDGE('',*,*,#146,.T.);
#86=ORIENTED_EDGE('',*,*,#166,.T.);
#87=ORIENTED_EDGE('',*,*,#167,.T.);
#88=ORIENTED_EDGE('',*,*,#151,.F.);
#89=ORIENTED_EDGE('',*,*,#163,.F.);
#90=ORIENTED_EDGE('',*,*,#168,.F.);
#91=ORIENTED_EDGE('',*,*,#166,.F.);
#92=ORIENTED_EDGE('',*,*,#156,.F.);
#93=ORIENTED_EDGE('',*,*,#167,.F.);
#94=ORIENTED_EDGE('',*,*,#168,.T.);
#95=ORIENTED_EDGE('',*,*,#160,.F.);
#96=ORIENTED_EDGE('',*,*,#159,.F.);
#97=ORIENTED_EDGE('',*,*,#152,.F.);
#98=ORIENTED_EDGE('',*,*,#147,.F.);
#99=ORIENTED_EDGE('',*,*,#165,.F.);
#100=ORIENTED_EDGE('',*,*,#169,.T.);
#101=ORIENTED_EDGE('',*,*,#170,.F.);
#102=ORIENTED_EDGE('',*,*,#171,.F.);
#103=ORIENTED_EDGE('',*,*,#172,.F.);
#104=ORIENTED_EDGE('',*,*,#173,.F.);
#105=ORIENTED_EDGE('',*,*,#174,.T.);
#106=ORIENTED_EDGE('',*,*,#175,.F.);
#107=ORIENTED_EDGE('',*,*,#174,.F.);
#108=ORIENTED_EDGE('',*,*,#176,.F.);
#109=ORIENTED_EDGE('',*,*,#177,.T.);
#110=ORIENTED_EDGE('',*,*,#178,.F.);
#111=ORIENTED_EDGE('',*,*,#179,.F.);
#112=ORIENTED_EDGE('',*,*,#180,.F.);
#113=ORIENTED_EDGE('',*,*,#177,.F.);
#114=ORIENTED_EDGE('',*,*,#181,.T.);
#115=ORIENTED_EDGE('',*,*,#182,.T.);
#116=ORIENTED_EDGE('',*,*,#183,.F.);
#117=ORIENTED_EDGE('',*,*,#182,.F.);
#118=ORIENTED_EDGE('',*,*,#184,.T.);
#119=ORIENTED_EDGE('',*,*,#185,.T.);
#120=ORIENTED_EDGE('',*,*,#186,.F.);
#121=ORIENTED_EDGE('',*,*,#185,.F.);
#122=ORIENTED_EDGE('',*,*,#187,.T.);
#123=ORIENTED_EDGE('',*,*,#172,.T.);
#124=ORIENTED_EDGE('',*,*,#188,.F.);
#125=ORIENTED_EDGE('',*,*,#173,.T.);
#126=ORIENTED_EDGE('',*,*,#187,.F.);
#127=ORIENTED_EDGE('',*,*,#184,.F.);
#128=ORIENTED_EDGE('',*,*,#181,.F.);
#129=ORIENTED_EDGE('',*,*,#176,.T.);
#130=ORIENTED_EDGE('',*,*,#179,.T.);
#131=ORIENTED_EDGE('',*,*,#189,.F.);
#132=ORIENTED_EDGE('',*,*,#169,.F.);
#133=ORIENTED_EDGE('',*,*,#190,.F.);
#134=ORIENTED_EDGE('',*,*,#171,.T.);
#135=ORIENTED_EDGE('',*,*,#191,.T.);
#136=ORIENTED_EDGE('',*,*,#188,.T.);
#137=ORIENTED_EDGE('',*,*,#183,.T.);
#138=ORIENTED_EDGE('',*,*,#186,.T.);
#139=ORIENTED_EDGE('',*,*,#191,.F.);
#140=ORIENTED_EDGE('',*,*,#170,.T.);
#141=ORIENTED_EDGE('',*,*,#189,.T.);
#142=ORIENTED_EDGE('',*,*,#180,.T.);
#143=ORIENTED_EDGE('',*,*,#190,.T.);
#144=ORIENTED_EDGE('',*,*,#175,.T.);
#145=ORIENTED_EDGE('',*,*,#178,.T.);
#146=EDGE_CURVE('',#192,#193,#222,.T.);
#147=EDGE_CURVE('',#192,#194,#43,.T.);
#148=EDGE_CURVE('',#195,#194,#23,.T.);
#149=EDGE_CURVE('',#195,#196,#223,.T.);
#150=EDGE_CURVE('',#196,#197,#24,.T.);
#151=EDGE_CURVE('',#197,#193,#44,.T.);
#152=EDGE_CURVE('',#194,#198,#224,.F.);
#153=EDGE_CURVE('',#199,#198,#25,.T.);
#154=EDGE_CURVE('',#199,#195,#225,.T.);
#155=EDGE_CURVE('',#200,#201,#226,.T.);
#156=EDGE_CURVE('',#201,#202,#45,.T.);
#157=EDGE_CURVE('',#203,#202,#26,.T.);
#158=EDGE_CURVE('',#199,#203,#227,.T.);
#159=EDGE_CURVE('',#198,#200,#46,.T.);
#160=EDGE_CURVE('',#202,#204,#228,.T.);
#161=EDGE_CURVE('',#205,#204,#27,.T.);
#162=EDGE_CURVE('',#203,#205,#229,.T.);
#163=EDGE_CURVE('',#204,#197,#230,.T.);
#164=EDGE_CURVE('',#205,#196,#231,.T.);
#165=EDGE_CURVE('',#200,#192,#232,.T.);
#166=EDGE_CURVE('',#193,#206,#233,.F.);
#167=EDGE_CURVE('',#206,#201,#234,.F.);
#168=EDGE_CURVE('',#206,#204,#47,.F.);
#169=EDGE_CURVE('',#207,#208,#235,.T.);
#170=EDGE_CURVE('',#209,#208,#48,.T.);
#171=EDGE_CURVE('',#210,#209,#49,.T.);
#172=EDGE_CURVE('',#211,#210,#28,.T.);
#173=EDGE_CURVE('',#212,#211,#236,.T.);
#174=EDGE_CURVE('',#212,#213,#29,.T.);
#175=EDGE_CURVE('',#207,#213,#50,.T.);
#176=EDGE_CURVE('',#214,#212,#237,.T.);
#177=EDGE_CURVE('',#214,#215,#30,.T.);
#178=EDGE_CURVE('',#213,#215,#238,.T.);
#179=EDGE_CURVE('',#216,#217,#239,.T.);
#180=EDGE_CURVE('',#215,#216,#51,.T.);
#181=EDGE_CURVE('',#214,#218,#240,.T.);
#182=EDGE_CURVE('',#218,#219,#31,.T.);
#183=EDGE_CURVE('',#217,#219,#52,.T.);
#184=EDGE_CURVE('',#218,#220,#241,.T.);
#185=EDGE_CURVE('',#220,#221,#32,.T.);
#186=EDGE_CURVE('',#219,#221,#242,.F.);
#187=EDGE_CURVE('',#220,#211,#243,.T.);
#188=EDGE_CURVE('',#221,#210,#244,.F.);
#189=EDGE_CURVE('',#208,#217,#245,.F.);
#190=EDGE_CURVE('',#216,#207,#246,.T.);
#191=EDGE_CURVE('',#209,#221,#53,.T.);
#192=VERTEX_POINT('',#481);
#193=VERTEX_POINT('',#482);
#194=VERTEX_POINT('',#489);
#195=VERTEX_POINT('',#491);
#196=VERTEX_POINT('',#493);
#197=VERTEX_POINT('',#495);
#198=VERTEX_POINT('',#512);
#199=VERTEX_POINT('',#514);
#200=VERTEX_POINT('',#518);
#201=VERTEX_POINT('',#519);
#202=VERTEX_POINT('',#542);
#203=VERTEX_POINT('',#544);
#204=VERTEX_POINT('',#555);
#205=VERTEX_POINT('',#557);
#206=VERTEX_POINT('',#566);
#207=VERTEX_POINT('',#580);
#208=VERTEX_POINT('',#581);
#209=VERTEX_POINT('',#587);
#210=VERTEX_POINT('',#593);
#211=VERTEX_POINT('',#595);
#212=VERTEX_POINT('',#597);
#213=VERTEX_POINT('',#599);
#214=VERTEX_POINT('',#607);
#215=VERTEX_POINT('',#609);
#216=VERTEX_POINT('',#613);
#217=VERTEX_POINT('',#614);
#218=VERTEX_POINT('',#622);
#219=VERTEX_POINT('',#624);
#220=VERTEX_POINT('',#647);
#221=VERTEX_POINT('',#649);
#222=CIRCLE('',#332,0.0224567881472282);
#223=CIRCLE('',#333,0.0224567881472282);
#224=CIRCLE('',#335,0.0349031697332331);
#225=CIRCLE('',#336,0.0349031697332331);
#226=CIRCLE('',#338,0.018468821248667);
#227=CIRCLE('',#339,0.018468821248667);
#228=CIRCLE('',#341,0.0640458897862316);
#229=CIRCLE('',#342,0.0640458897862316);
#230=CIRCLE('',#344,0.0523794368703526);
#231=CIRCLE('',#345,0.0523794368703526);
#232=CIRCLE('',#348,0.0409031697332331);
#233=CIRCLE('',#349,0.0463794368703526);
#234=CIRCLE('',#350,0.0580458897862317);
#235=CIRCLE('',#355,0.0247567881472282);
#236=CIRCLE('',#356,0.0247567881472282);
#237=CIRCLE('',#358,0.0372031697332331);
#238=CIRCLE('',#359,0.0372031697332331);
#239=CIRCLE('',#361,0.016168821248667);
#240=CIRCLE('',#362,0.016168821248667);
#241=CIRCLE('',#364,0.0617458897862317);
#242=CIRCLE('',#365,0.0617458897862317);
#243=CIRCLE('',#367,0.0500794368703526);
#244=CIRCLE('',#368,0.0500794368703526);
#245=CIRCLE('',#371,0.0580458897862317);
#246=CIRCLE('',#372,0.0409031697332331);
#247=EDGE_LOOP('',(#54,#55,#56,#57,#58,#59));
#248=EDGE_LOOP('',(#60,#61,#62,#63));
#249=EDGE_LOOP('',(#64,#65,#66,#67,#68,#69));
#250=EDGE_LOOP('',(#70,#71,#72,#73));
#251=EDGE_LOOP('',(#74,#75,#76,#77));
#252=EDGE_LOOP('',(#78,#79,#80,#81,#82));
#253=EDGE_LOOP('',(#83,#84,#85,#86,#87));
#254=EDGE_LOOP('',(#88,#89,#90,#91));
#255=EDGE_LOOP('',(#92,#93,#94,#95));
#256=EDGE_LOOP('',(#96,#97,#98,#99));
#257=EDGE_LOOP('',(#100,#101,#102,#103,#104,#105,#106));
#258=EDGE_LOOP('',(#107,#108,#109,#110));
#259=EDGE_LOOP('',(#111,#112,#113,#114,#115,#116));
#260=EDGE_LOOP('',(#117,#118,#119,#120));
#261=EDGE_LOOP('',(#121,#122,#123,#124));
#262=EDGE_LOOP('',(#125,#126,#127,#128,#129));
#263=EDGE_LOOP('',(#130,#131,#132,#133));
#264=EDGE_LOOP('',(#134,#135,#136));
#265=EDGE_LOOP('',(#137,#138,#139,#140,#141));
#266=EDGE_LOOP('',(#142,#143,#144,#145));
#267=FACE_BOUND('',#247,.T.);
#268=FACE_BOUND('',#248,.T.);
#269=FACE_BOUND('',#249,.T.);
#270=FACE_BOUND('',#250,.T.);
#271=FACE_BOUND('',#251,.T.);
#272=FACE_BOUND('',#252,.T.);
#273=FACE_BOUND('',#253,.T.);
#274=FACE_BOUND('',#254,.T.);
#275=FACE_BOUND('',#255,.T.);
#276=FACE_BOUND('',#256,.T.);
#277=FACE_BOUND('',#257,.T.);
#278=FACE_BOUND('',#258,.T.);
#279=FACE_BOUND('',#259,.T.);
#280=FACE_BOUND('',#260,.T.);
#281=FACE_BOUND('',#261,.T.);
#282=FACE_BOUND('',#262,.T.);
#283=FACE_BOUND('',#263,.T.);
#284=FACE_BOUND('',#264,.T.);
#285=FACE_BOUND('',#265,.T.);
#286=FACE_BOUND('',#266,.T.);
#287=CYLINDRICAL_SURFACE('',#331,0.0224567881472282);
#288=CYLINDRICAL_SURFACE('',#334,0.0349031697332331);
#289=CYLINDRICAL_SURFACE('',#337,0.018468821248667);
#290=CYLINDRICAL_SURFACE('',#340,0.0640458897862316);
#291=CYLINDRICAL_SURFACE('',#343,0.0523794368703526);
#292=CYLINDRICAL_SURFACE('',#354,0.0247567881472282);
#293=CYLINDRICAL_SURFACE('',#357,0.0372031697332331);
#294=CYLINDRICAL_SURFACE('',#360,0.016168821248667);
#295=CYLINDRICAL_SURFACE('',#363,0.0617458897862317);
#296=CYLINDRICAL_SURFACE('',#366,0.0500794368703526);
#297=ADVANCED_FACE('Face appearance 5',(#267),#287,.F.);
#298=ADVANCED_FACE('Face appearance 5',(#268),#288,.F.);
#299=ADVANCED_FACE('Face appearance 5',(#269),#289,.T.);
#300=ADVANCED_FACE('Face appearance 5',(#270),#290,.T.);
#301=ADVANCED_FACE('Face appearance 5',(#271),#291,.T.);
#302=ADVANCED_FACE('Face appearance 5',(#272),#19,.T.);
#303=ADVANCED_FACE('Face appearance 5',(#273),#20,.F.);
#304=ADVANCED_FACE('',(#274),#13,.T.);
#305=ADVANCED_FACE('',(#275),#14,.T.);
#306=ADVANCED_FACE('',(#276),#15,.T.);
#307=ADVANCED_FACE('',(#277),#292,.T.);
#308=ADVANCED_FACE('',(#278),#293,.T.);
#309=ADVANCED_FACE('',(#279),#294,.F.);
#310=ADVANCED_FACE('',(#280),#295,.F.);
#311=ADVANCED_FACE('',(#281),#296,.F.);
#312=ADVANCED_FACE('',(#282),#21,.F.);
#313=ADVANCED_FACE('',(#283),#22,.T.);
#314=ADVANCED_FACE('',(#284),#16,.F.);
#315=ADVANCED_FACE('',(#285),#17,.F.);
#316=ADVANCED_FACE('',(#286),#18,.F.);
#317=CLOSED_SHELL('',(#297,#298,#299,#300,#301,#302,#303,#304,#305,#306));
#318=CLOSED_SHELL('',(#307,#308,#309,#310,#311,#312,#313,#314,#315,#316));
#319=STYLED_ITEM('',(#320),#327);
#320=PRESENTATION_STYLE_ASSIGNMENT((#321));
#321=SURFACE_STYLE_USAGE(.BOTH.,#322);
#322=SURFACE_SIDE_STYLE('',(#323));
#323=SURFACE_STYLE_FILL_AREA(#324);
#324=FILL_AREA_STYLE('',(#325));
#325=FILL_AREA_STYLE_COLOUR('',#326);
#326=COLOUR_RGB('',0.458823529411765,0.105882352941176,0.);
#327=BREP_WITH_VOIDS('Tail_Part 8_Red',#317,(#12));
#328=SHAPE_DEFINITION_REPRESENTATION(#671,#329);
#329=SHAPE_REPRESENTATION('Tail_Part 8_Red',(#330),#666);
#330=AXIS2_PLACEMENT_3D('',#478,#376,#377);
#331=AXIS2_PLACEMENT_3D('',#479,#378,#379);
#332=AXIS2_PLACEMENT_3D('',#480,#380,#381);
#333=AXIS2_PLACEMENT_3D('',#492,#383,#384);
#334=AXIS2_PLACEMENT_3D('',#510,#386,#387);
#335=AXIS2_PLACEMENT_3D('',#511,#388,#389);
#336=AXIS2_PLACEMENT_3D('',#515,#391,#392);
#337=AXIS2_PLACEMENT_3D('',#516,#393,#394);
#338=AXIS2_PLACEMENT_3D('',#517,#395,#396);
#339=AXIS2_PLACEMENT_3D('',#545,#398,#399);
#340=AXIS2_PLACEMENT_3D('',#553,#400,#401);
#341=AXIS2_PLACEMENT_3D('',#554,#402,#403);
#342=AXIS2_PLACEMENT_3D('',#558,#405,#406);
#343=AXIS2_PLACEMENT_3D('',#559,#407,#408);
#344=AXIS2_PLACEMENT_3D('',#560,#409,#410);
#345=AXIS2_PLACEMENT_3D('',#561,#411,#412);
#346=AXIS2_PLACEMENT_3D('',#562,#413,#414);
#347=AXIS2_PLACEMENT_3D('',#563,#415,#416);
#348=AXIS2_PLACEMENT_3D('',#564,#417,#418);
#349=AXIS2_PLACEMENT_3D('',#565,#419,#420);
#350=AXIS2_PLACEMENT_3D('',#567,#421,#422);
#351=AXIS2_PLACEMENT_3D('',#568,#423,#424);
#352=AXIS2_PLACEMENT_3D('',#576,#425,#426);
#353=AXIS2_PLACEMENT_3D('',#577,#427,#428);
#354=AXIS2_PLACEMENT_3D('',#578,#429,#430);
#355=AXIS2_PLACEMENT_3D('',#579,#431,#432);
#356=AXIS2_PLACEMENT_3D('',#596,#434,#435);
#357=AXIS2_PLACEMENT_3D('',#605,#437,#438);
#358=AXIS2_PLACEMENT_3D('',#606,#439,#440);
#359=AXIS2_PLACEMENT_3D('',#610,#442,#443);
#360=AXIS2_PLACEMENT_3D('',#611,#444,#445);
#361=AXIS2_PLACEMENT_3D('',#612,#446,#447);
#362=AXIS2_PLACEMENT_3D('',#621,#448,#449);
#363=AXIS2_PLACEMENT_3D('',#645,#451,#452);
#364=AXIS2_PLACEMENT_3D('',#646,#453,#454);
#365=AXIS2_PLACEMENT_3D('',#650,#456,#457);
#366=AXIS2_PLACEMENT_3D('',#651,#458,#459);
#367=AXIS2_PLACEMENT_3D('',#652,#460,#461);
#368=AXIS2_PLACEMENT_3D('',#653,#462,#463);
#369=AXIS2_PLACEMENT_3D('',#654,#464,#465);
#370=AXIS2_PLACEMENT_3D('',#655,#466,#467);
#371=AXIS2_PLACEMENT_3D('',#656,#468,#469);
#372=AXIS2_PLACEMENT_3D('',#657,#470,#471);
#373=AXIS2_PLACEMENT_3D('',#658,#472,#473);
#374=AXIS2_PLACEMENT_3D('',#663,#474,#475);
#375=AXIS2_PLACEMENT_3D('',#664,#476,#477);
#376=DIRECTION('',(0.,0.,1.));
#377=DIRECTION('',(1.,0.,0.));
#378=DIRECTION('',(0.,0.,-1.));
#379=DIRECTION('',(-1.,0.,0.));
#380=DIRECTION('',(0.,0.,1.));
#381=DIRECTION('',(1.,0.,0.));
#382=DIRECTION('',(0.,0.,-1.));
#383=DIRECTION('',(0.,0.,1.));
#384=DIRECTION('',(1.,0.,0.));
#385=DIRECTION('',(0.,0.,-1.));
#386=DIRECTION('',(0.,0.,-1.));
#387=DIRECTION('',(-1.,0.,0.));
#388=DIRECTION('',(0.,0.,1.));
#389=DIRECTION('',(1.,0.,0.));
#390=DIRECTION('',(0.,0.,-1.));
#391=DIRECTION('',(0.,0.,1.));
#392=DIRECTION('',(1.,0.,0.));
#393=DIRECTION('',(0.,0.,-1.));
#394=DIRECTION('',(-1.,0.,0.));
#395=DIRECTION('',(0.,0.,1.));
#396=DIRECTION('',(1.,0.,0.));
#397=DIRECTION('',(0.,0.,-1.));
#398=DIRECTION('',(0.,0.,1.));
#399=DIRECTION('',(1.,0.,0.));
#400=DIRECTION('',(0.,0.,-1.));
#401=DIRECTION('',(-1.,0.,0.));
#402=DIRECTION('',(0.,0.,1.));
#403=DIRECTION('',(1.,0.,0.));
#404=DIRECTION('',(0.,0.,-1.));
#405=DIRECTION('',(0.,0.,1.));
#406=DIRECTION('',(1.,0.,0.));
#407=DIRECTION('',(0.,0.,-1.));
#408=DIRECTION('',(-1.,0.,0.));
#409=DIRECTION('',(0.,0.,1.));
#410=DIRECTION('',(1.,0.,0.));
#411=DIRECTION('',(0.,0.,1.));
#412=DIRECTION('',(1.,0.,0.));
#413=DIRECTION('',(0.,0.,1.));
#414=DIRECTION('',(1.,0.,0.));
#415=DIRECTION('',(0.,0.,1.));
#416=DIRECTION('',(1.,0.,0.));
#417=DIRECTION('',(0.,0.,1.));
#418=DIRECTION('',(1.,0.,0.));
#419=DIRECTION('',(0.,0.,1.));
#420=DIRECTION('',(1.,0.,0.));
#421=DIRECTION('',(0.,0.,1.));
#422=DIRECTION('',(1.,0.,0.));
#423=DIRECTION('',(0.,0.,1.));
#424=DIRECTION('',(1.,0.,0.));
#425=DIRECTION('',(0.,0.,1.));
#426=DIRECTION('',(1.,0.,0.));
#427=DIRECTION('',(0.,0.,1.));
#428=DIRECTION('',(1.,0.,0.));
#429=DIRECTION('',(0.,0.,-1.));
#430=DIRECTION('',(-1.,0.,0.));
#431=DIRECTION('',(0.,0.,1.));
#432=DIRECTION('',(1.,0.,0.));
#433=DIRECTION('',(0.,0.,-1.));
#434=DIRECTION('',(0.,0.,1.));
#435=DIRECTION('',(1.,0.,0.));
#436=DIRECTION('',(0.,0.,-1.));
#437=DIRECTION('',(0.,0.,-1.));
#438=DIRECTION('',(-1.,0.,0.));
#439=DIRECTION('',(0.,0.,1.));
#440=DIRECTION('',(1.,0.,0.));
#441=DIRECTION('',(0.,0.,-1.));
#442=DIRECTION('',(0.,0.,-1.));
#443=DIRECTION('',(-1.,0.,0.));
#444=DIRECTION('',(0.,0.,-1.));
#445=DIRECTION('',(-1.,0.,0.));
#446=DIRECTION('',(0.,0.,1.));
#447=DIRECTION('',(1.,0.,0.));
#448=DIRECTION('',(0.,0.,1.));
#449=DIRECTION('',(1.,0.,0.));
#450=DIRECTION('',(0.,0.,-1.));
#451=DIRECTION('',(0.,0.,-1.));
#452=DIRECTION('',(-1.,0.,0.));
#453=DIRECTION('',(0.,0.,1.));
#454=DIRECTION('',(1.,0.,0.));
#455=DIRECTION('',(0.,0.,-1.));
#456=DIRECTION('',(0.,0.,-1.));
#457=DIRECTION('',(-1.,0.,0.));
#458=DIRECTION('',(0.,0.,-1.));
#459=DIRECTION('',(-1.,0.,0.));
#460=DIRECTION('',(0.,0.,1.));
#461=DIRECTION('',(1.,0.,0.));
#462=DIRECTION('',(0.,0.,-1.));
#463=DIRECTION('',(-1.,0.,0.));
#464=DIRECTION('',(0.,0.,1.));
#465=DIRECTION('',(1.,0.,0.));
#466=DIRECTION('',(0.,0.,1.));
#467=DIRECTION('',(1.,0.,0.));
#468=DIRECTION('',(0.,0.,1.));
#469=DIRECTION('',(1.,0.,0.));
#470=DIRECTION('',(0.,0.,1.));
#471=DIRECTION('',(1.,0.,0.));
#472=DIRECTION('',(0.,0.,1.));
#473=DIRECTION('',(1.,0.,0.));
#474=DIRECTION('',(0.,0.,1.));
#475=DIRECTION('',(1.,0.,0.));
#476=DIRECTION('',(0.,0.,1.));
#477=DIRECTION('',(1.,0.,0.));
#478=CARTESIAN_POINT('',(0.,0.,0.));
#479=CARTESIAN_POINT('',(0.262698984683098,-0.164268699102094,0.02));
#480=CARTESIAN_POINT('',(0.262698984683098,-0.164268699102094,-0.035));
#481=CARTESIAN_POINT('',(0.24144591494768,-0.157015123383116,-0.035));
#482=CARTESIAN_POINT('',(0.247156992001127,-0.180478381312523,-0.035));
#483=CARTESIAN_POINT('',(0.24144591494768,-0.157015123383116,-0.035));
#484=CARTESIAN_POINT('',(0.241974991131131,-0.155464923391017,-0.035));
#485=CARTESIAN_POINT('',(0.243029922860896,-0.153313792074021,-0.0340308308883084));
#486=CARTESIAN_POINT('',(0.244138907788988,-0.151612959422566,-0.0314273292847205));
#487=CARTESIAN_POINT('',(0.244374877203532,-0.151286618414977,-0.029820601971018));
#488=CARTESIAN_POINT('',(0.244374877203532,-0.151286618414977,-0.029));
#489=CARTESIAN_POINT('',(0.244374877203532,-0.151286618414977,-0.029));
#490=CARTESIAN_POINT('',(0.244374877203532,-0.151286618414977,0.02));
#491=CARTESIAN_POINT('',(0.244374877203532,-0.151286618414977,0.02));
#492=CARTESIAN_POINT('',(0.262698984683098,-0.164268699102094,0.02));
#493=CARTESIAN_POINT('',(0.263686447455549,-0.186703766544884,0.02));
#494=CARTESIAN_POINT('',(0.263686447455549,-0.186703766544884,0.02));
#495=CARTESIAN_POINT('',(0.263686447455549,-0.186703766544884,-0.029));
#496=CARTESIAN_POINT('',(0.263686447455549,-0.186703766544884,-0.029));
#497=CARTESIAN_POINT('',(0.263686447455549,-0.186703766544884,-0.0292106298180698));
#498=CARTESIAN_POINT('',(0.263471520678718,-0.186713488931478,-0.0295896233135955));
#499=CARTESIAN_POINT('',(0.262840968013311,-0.186729380770969,-0.0301187159651177));
#500=CARTESIAN_POINT('',(0.26194765804399,-0.186721840113484,-0.0306393067243545));
#501=CARTESIAN_POINT('',(0.260849509445112,-0.186658363817601,-0.0311740775336522));
#502=CARTESIAN_POINT('',(0.259732099034151,-0.186538305411579,-0.0316630687074502));
#503=CARTESIAN_POINT('',(0.258602424026199,-0.186358613182024,-0.0321214247338984));
#504=CARTESIAN_POINT('',(0.257105014012769,-0.186041189118839,-0.0326917404785294));
#505=CARTESIAN_POINT('',(0.25526148811099,-0.185500016235713,-0.0333342267428038));
#506=CARTESIAN_POINT('',(0.253098229248461,-0.184616328026338,-0.0339977763166558));
#507=CARTESIAN_POINT('',(0.250265011867621,-0.183089654123416,-0.0347161598159625));
#508=CARTESIAN_POINT('',(0.24834741075817,-0.181619765786954,-0.035));
#509=CARTESIAN_POINT('',(0.247156992001127,-0.180478381312523,-0.035));
#510=CARTESIAN_POINT('',(0.246862921717603,-0.116472240753975,0.02));
#511=CARTESIAN_POINT('',(0.246862921717603,-0.116472240753975,-0.029));
#512=CARTESIAN_POINT('',(0.230591011914929,-0.147350326977065,-0.029));
#513=CARTESIAN_POINT('',(0.230591011914929,-0.147350326977065,0.02));
#514=CARTESIAN_POINT('',(0.230591011914929,-0.147350326977065,0.02));
#515=CARTESIAN_POINT('',(0.246862921717603,-0.116472240753975,0.02));
#516=CARTESIAN_POINT('',(0.236278513633911,-0.164921601333576,0.02));
#517=CARTESIAN_POINT('',(0.236278513633911,-0.164921601333576,-0.035));
#518=CARTESIAN_POINT('',(0.224483306802976,-0.15070997038809,-0.035));
#519=CARTESIAN_POINT('',(0.218211000788986,-0.168750744568517,-0.035));
#520=CARTESIAN_POINT('',(0.218211000788986,-0.168750744568517,-0.035));
#521=CARTESIAN_POINT('',(0.218377074826484,-0.169534351924418,-0.035));
#522=CARTESIAN_POINT('',(0.218802770130289,-0.171048947712297,-0.034869661656642));
#523=CARTESIAN_POINT('',(0.219721433546467,-0.173213443215942,-0.0343953914561088));
#524=CARTESIAN_POINT('',(0.22086696069137,-0.175180892374623,-0.0337305609722702));
#525=CARTESIAN_POINT('',(0.222210606998501,-0.176956516511221,-0.0329319123856664));
#526=CARTESIAN_POINT('',(0.223494713173163,-0.178285662342894,-0.0321754504202218));
#527=CARTESIAN_POINT('',(0.224586888314693,-0.179232123035116,-0.0315441095181559));
#528=CARTESIAN_POINT('',(0.225441983875512,-0.179890036170357,-0.0310569732030897));
#529=CARTESIAN_POINT('',(0.22618371510492,-0.180394737219502,-0.0306414389818448));
#530=CARTESIAN_POINT('',(0.226795003155054,-0.180772705600447,-0.0303037530121995));
#531=CARTESIAN_POINT('',(0.227262429309916,-0.181043160398782,-0.0300480364124986));
#532=CARTESIAN_POINT('',(0.227736701248949,-0.181299376290199,-0.0297912030267661));
#533=CARTESIAN_POINT('',(0.228137709009245,-0.181501140789339,-0.0295762471453293));
#534=CARTESIAN_POINT('',(0.228461886633591,-0.181655451687656,-0.0294039325437016));
#535=CARTESIAN_POINT('',(0.228665522949671,-0.181748782296742,-0.0292959525869134));
#536=CARTESIAN_POINT('',(0.228829809464609,-0.181821895141586,-0.0292096333151991));
#537=CARTESIAN_POINT('',(0.228951548908281,-0.181875055875286,-0.0291440274496346));
#538=CARTESIAN_POINT('',(0.229058845934363,-0.181920899181747,-0.0290911462791537));
#539=CARTESIAN_POINT('',(0.229131614372138,-0.181951619434507,-0.0290428939548052));
#540=CARTESIAN_POINT('',(0.229190200375917,-0.181976019338062,-0.0290252804131843));
#541=CARTESIAN_POINT('',(0.22919020037591,-0.18197601933806,-0.0289999999999968));
#542=CARTESIAN_POINT('',(0.22919020037592,-0.181976019338064,-0.029));
#543=CARTESIAN_POINT('',(0.22919020037592,-0.181976019338064,0.02));
#544=CARTESIAN_POINT('',(0.22919020037592,-0.181976019338064,0.02));
#545=CARTESIAN_POINT('',(0.236278513633911,-0.164921601333576,0.02));
#546=CARTESIAN_POINT('',(0.230591011914929,-0.147350326977065,-0.029));
#547=CARTESIAN_POINT('',(0.230591011914929,-0.147350326977065,-0.0298542021636519));
#548=CARTESIAN_POINT('',(0.230084092347616,-0.14750668314332,-0.0315024409706161));
#549=CARTESIAN_POINT('',(0.228467316468874,-0.148145366703159,-0.0334013321540099));
#550=CARTESIAN_POINT('',(0.226507319316645,-0.14918836518246,-0.0346687667413339));
#551=CARTESIAN_POINT('',(0.225138310899808,-0.150166337582899,-0.035));
#552=CARTESIAN_POINT('',(0.224483306802977,-0.15070997038809,-0.035));
#553=CARTESIAN_POINT('',(0.253666400054587,-0.122791632479703,0.02));
#554=CARTESIAN_POINT('',(0.253666400054587,-0.122791632479703,-0.029));
#555=CARTESIAN_POINT('',(0.246159065544784,-0.186396002825364,-0.029));
#556=CARTESIAN_POINT('',(0.246159065544784,-0.186396002825364,0.02));
#557=CARTESIAN_POINT('',(0.246159065544784,-0.186396002825364,0.02));
#558=CARTESIAN_POINT('',(0.253666400054587,-0.122791632479703,0.02));
#559=CARTESIAN_POINT('',(0.255829380020485,-0.134916973844659,0.02));
#560=CARTESIAN_POINT('',(0.255829380020485,-0.134916973844659,-0.029));
#561=CARTESIAN_POINT('',(0.255829380020485,-0.134916973844659,0.02));
#562=CARTESIAN_POINT('',(0.233402002858431,-0.141733597313975,0.02));
#563=CARTESIAN_POINT('',(0.233402002858431,-0.141733597313975,-0.035));
#564=CARTESIAN_POINT('',(0.246862921717603,-0.116472240753975,-0.035));
#565=CARTESIAN_POINT('',(0.255829380020485,-0.134916973844659,-0.035));
#566=CARTESIAN_POINT('',(0.24706687497319,-0.180461135596822,-0.035));
#567=CARTESIAN_POINT('',(0.253666400054587,-0.122791632479703,-0.035));
#568=CARTESIAN_POINT('',(0.255829380020485,-0.134916973844659,-0.029));
#569=CARTESIAN_POINT('',(0.246159065544784,-0.186396002825364,-0.029));
#570=CARTESIAN_POINT('',(0.246159065544784,-0.186396002825364,-0.0297926010744699));
#571=CARTESIAN_POINT('',(0.246206283690813,-0.18608687007962,-0.0313538349122043));
#572=CARTESIAN_POINT('',(0.246408139862123,-0.18476584855616,-0.0333532423832915));
#573=CARTESIAN_POINT('',(0.246708642171117,-0.182800695623353,-0.0346846374860044));
#574=CARTESIAN_POINT('',(0.246948561605647,-0.181233483520918,-0.035));
#575=CARTESIAN_POINT('',(0.24706687497319,-0.180461135596822,-0.035));
#576=CARTESIAN_POINT('',(0.253666400054587,-0.122791632479703,-0.029));
#577=CARTESIAN_POINT('',(0.246862921717603,-0.116472240753975,-0.029));
#578=CARTESIAN_POINT('',(0.262698984683098,-0.164268699102094,0.02));
#579=CARTESIAN_POINT('',(0.262698984683098,-0.164268699102094,-0.0327));
#580=CARTESIAN_POINT('',(0.239146567064408,-0.156640974429457,-0.0327));
#581=CARTESIAN_POINT('',(0.243539685065778,-0.179947340546446,-0.0327));
#582=CARTESIAN_POINT('',(0.246658872117714,-0.183126412331873,-0.0315357129693674));
#583=CARTESIAN_POINT('',(0.246144727834438,-0.182689088247128,-0.0319342842694198));
#584=CARTESIAN_POINT('',(0.245078392459126,-0.181708240569342,-0.0324915667550999));
#585=CARTESIAN_POINT('',(0.244034941801856,-0.180552544270741,-0.0327));
#586=CARTESIAN_POINT('',(0.243539685065778,-0.179947340546446,-0.0327));
#587=CARTESIAN_POINT('',(0.246658872117714,-0.183126412331873,-0.0315357129693674));
#588=CARTESIAN_POINT('',(0.248335137688894,-0.184432489888895,-0.029));
#589=CARTESIAN_POINT('',(0.248335137688894,-0.184432489888895,-0.0295868622306906));
#590=CARTESIAN_POINT('',(0.247812153857418,-0.1840631660772,-0.0306383718492317));
#591=CARTESIAN_POINT('',(0.247045584517142,-0.183455344601745,-0.0312691339475341));
#592=CARTESIAN_POINT('',(0.246658872117713,-0.183126412331873,-0.0315357129693675));
#593=CARTESIAN_POINT('',(0.248335137688894,-0.184432489888895,-0.029));
#594=CARTESIAN_POINT('',(0.248335137688894,-0.184432489888895,0.0177));
#595=CARTESIAN_POINT('',(0.248335137688894,-0.184432489888895,0.0177));
#596=CARTESIAN_POINT('',(0.262698984683098,-0.164268699102094,0.0177));
#597=CARTESIAN_POINT('',(0.240583657990767,-0.153141665146084,0.0177));
#598=CARTESIAN_POINT('',(0.240583657990767,-0.153141665146084,0.0177));
#599=CARTESIAN_POINT('',(0.240583657990767,-0.153141665146084,-0.029));
#600=CARTESIAN_POINT('',(0.239146567064408,-0.156640974429457,-0.0327));
#601=CARTESIAN_POINT('',(0.239450809898948,-0.155701552176541,-0.0327));
#602=CARTESIAN_POINT('',(0.240178512130361,-0.153908037391297,-0.0319045652086973));
#603=CARTESIAN_POINT('',(0.240583657990767,-0.153141665146084,-0.0299879118057605));
#604=CARTESIAN_POINT('',(0.240583657990767,-0.153141665146084,-0.029));
#605=CARTESIAN_POINT('',(0.246862921717603,-0.116472240753975,0.02));
#606=CARTESIAN_POINT('',(0.246862921717603,-0.116472240753975,0.0177));
#607=CARTESIAN_POINT('',(0.230427947057255,-0.149848391612237,0.0177));
#608=CARTESIAN_POINT('',(0.230427947057255,-0.149848391612237,0.0177));
#609=CARTESIAN_POINT('',(0.230427947057255,-0.149848391612237,-0.029));
#610=CARTESIAN_POINT('',(0.246862921717603,-0.116472240753975,-0.029));
#611=CARTESIAN_POINT('',(0.236278513633911,-0.164921601333576,0.02));
#612=CARTESIAN_POINT('',(0.236278513633911,-0.164921601333576,-0.0327));
#613=CARTESIAN_POINT('',(0.226574089908616,-0.151988893158901,-0.0327));
#614=CARTESIAN_POINT('',(0.221280861106617,-0.170963223569524,-0.0327));
#615=CARTESIAN_POINT('',(0.230427947057255,-0.149848391612237,-0.029));
#616=CARTESIAN_POINT('',(0.230427947057255,-0.149848391612237,-0.0295346834001572));
#617=CARTESIAN_POINT('',(0.230121919129783,-0.149963815357407,-0.0305702205377334));
#618=CARTESIAN_POINT('',(0.228774419212104,-0.150555861777942,-0.0321381016135944));
#619=CARTESIAN_POINT('',(0.227425825953243,-0.151349768903755,-0.0327));
#620=CARTESIAN_POINT('',(0.226574089908616,-0.151988893158901,-0.0327));
#621=CARTESIAN_POINT('',(0.236278513633911,-0.164921601333576,0.0177));
#622=CARTESIAN_POINT('',(0.230071106655535,-0.179851399697122,0.0177));
#623=CARTESIAN_POINT('',(0.230071106655535,-0.179851399697122,0.0177));
#624=CARTESIAN_POINT('',(0.230072937843237,-0.179852160923811,-0.029));
#625=CARTESIAN_POINT('',(0.221280861106617,-0.170963223569524,-0.0327));
#626=CARTESIAN_POINT('',(0.221703467401246,-0.17201229650311,-0.0327));
#627=CARTESIAN_POINT('',(0.222485344399132,-0.173482331948921,-0.0324697325026221));
#628=CARTESIAN_POINT('',(0.223791850997311,-0.175235941506688,-0.0319256232883004));
#629=CARTESIAN_POINT('',(0.224865174203577,-0.176410537631775,-0.0314365845789497));
#630=CARTESIAN_POINT('',(0.225842964664593,-0.177291596968162,-0.0309765799324885));
#631=CARTESIAN_POINT('',(0.226676067712857,-0.177938178643753,-0.0305830614133476));
#632=CARTESIAN_POINT('',(0.227320081813573,-0.178389442399086,-0.0302796120699434));
#633=CARTESIAN_POINT('',(0.227873234671488,-0.178738306791028,-0.0300206942776303));
#634=CARTESIAN_POINT('',(0.228324392729585,-0.179000441697833,-0.029811127934469));
#635=CARTESIAN_POINT('',(0.228667210746976,-0.179188687772973,-0.0296528305088299));
#636=CARTESIAN_POINT('',(0.22901406505296,-0.179368382302507,-0.0294936839891006));
#637=CARTESIAN_POINT('',(0.229306624019716,-0.179511083720368,-0.0293605403681069));
#638=CARTESIAN_POINT('',(0.229542243736316,-0.17962079618213,-0.0292536095904521));
#639=CARTESIAN_POINT('',(0.229720796189426,-0.179701293776943,-0.0291735778586396));
#640=CARTESIAN_POINT('',(0.229867362630125,-0.179765325461158,-0.0291055385877217));
#641=CARTESIAN_POINT('',(0.229975884751933,-0.179811493802545,-0.0290594632860153));
#642=CARTESIAN_POINT('',(0.230028588068488,-0.179833691513504,-0.0290286364162633));
#643=CARTESIAN_POINT('',(0.230071106655534,-0.179851399697122,-0.0290178080578113));
#644=CARTESIAN_POINT('',(0.230071106655532,-0.179851399697121,-0.0289999999999996));
#645=CARTESIAN_POINT('',(0.253666400054587,-0.122791632479703,0.02));
#646=CARTESIAN_POINT('',(0.253666400054587,-0.122791632479703,0.0177));
#647=CARTESIAN_POINT('',(0.246506753762469,-0.184121024865942,0.0177));
#648=CARTESIAN_POINT('',(0.246506753762469,-0.184121024865941,0.02));
#649=CARTESIAN_POINT('',(0.246506753762469,-0.184121024865941,-0.029));
#650=CARTESIAN_POINT('',(0.253666400054587,-0.122791632479703,-0.029));
#651=CARTESIAN_POINT('',(0.255829380020485,-0.134916973844659,0.02));
#652=CARTESIAN_POINT('',(0.255829380020485,-0.134916973844659,0.0177));
#653=CARTESIAN_POINT('',(0.255829380020485,-0.134916973844659,-0.029));
#654=CARTESIAN_POINT('',(0.233402002858431,-0.141733597313975,0.0177));
#655=CARTESIAN_POINT('',(0.233402002858431,-0.141733597313975,-0.0327));
#656=CARTESIAN_POINT('',(0.253666400054587,-0.122791632479703,-0.0327));
#657=CARTESIAN_POINT('',(0.246862921717603,-0.116472240753975,-0.0327));
#658=CARTESIAN_POINT('',(0.255829380020485,-0.134916973844659,-0.029));
#659=CARTESIAN_POINT('',(0.246658872117716,-0.183126412331873,-0.0315357129693676));
#660=CARTESIAN_POINT('',(0.2465619671612,-0.183759868712037,-0.030855212115425));
#661=CARTESIAN_POINT('',(0.246506753762471,-0.184121024865942,-0.0299395828043257));
#662=CARTESIAN_POINT('',(0.246506753762471,-0.184121024865942,-0.029));
#663=CARTESIAN_POINT('',(0.253666400054587,-0.122791632479703,-0.029));
#664=CARTESIAN_POINT('',(0.246862921717603,-0.116472240753975,-0.029));
#665=MECHANICAL_DESIGN_GEOMETRIC_PRESENTATION_REPRESENTATION('',(#319),
#666);
#666=(
GEOMETRIC_REPRESENTATION_CONTEXT(3)
GLOBAL_UNCERTAINTY_ASSIGNED_CONTEXT((#667))
GLOBAL_UNIT_ASSIGNED_CONTEXT((#670,#669,#668))
REPRESENTATION_CONTEXT('Tail_Part 8_Red','TOP_LEVEL_ASSEMBLY_PART')
);
#667=UNCERTAINTY_MEASURE_WITH_UNIT(LENGTH_MEASURE(2.E-5),#670,
'DISTANCE_ACCURACY_VALUE','Maximum Tolerance applied to model');
#668=(
NAMED_UNIT(*)
SI_UNIT($,.STERADIAN.)
SOLID_ANGLE_UNIT()
);
#669=(
NAMED_UNIT(*)
PLANE_ANGLE_UNIT()
SI_UNIT($,.RADIAN.)
);
#670=(
LENGTH_UNIT()
NAMED_UNIT(*)
SI_UNIT($,.METRE.)
);
#671=PRODUCT_DEFINITION_SHAPE('','',#672);
#672=PRODUCT_DEFINITION('','',#674,#673);
#673=PRODUCT_DEFINITION_CONTEXT('',#680,'design');
#674=PRODUCT_DEFINITION_FORMATION_WITH_SPECIFIED_SOURCE('','',#676,
 .NOT_KNOWN.);
#675=PRODUCT_RELATED_PRODUCT_CATEGORY('','',(#676));
#676=PRODUCT('Tail_Part 8_Red','Tail_Part 8_Red','Tail_Part 8_Red',(#678));
#677=PRODUCT_CATEGORY('','');
#678=PRODUCT_CONTEXT('',#680,'mechanical');
#679=APPLICATION_PROTOCOL_DEFINITION('international standard',
'ap242_managed_model_based_3d_engineering',2020,#680);
#680=APPLICATION_CONTEXT('managed model based 3d engineering');
ENDSEC;
END-ISO-10303-21;
