ISO-10303-21;
HEADER;
/* Generated by software containing ST-Developer
 * from STEP Tools, Inc. (www.steptools.com) 
 */
/* OPTION: using custom renumber hook */

FILE_DESCRIPTION(
/* description */ ('STEP AP242 Edition 2',
'CAx-IF Rec.Pracs.---Representation and Presentation of Product Manufa
cturing Information (PMI)---4.0---2014-10-13',
'CAx-IF Rec.Pracs.---3D Tessellated Geometry---0.4---2014-09-14','2;1',
'CAx-IF Rec.Pracs.---User Defined Attributes---1.5---2016-08-15'),
/* implementation_level */ '2;1');

FILE_NAME(
/* name */ 'Part Studio 1 - Tail_Part 2_Black',
/* time_stamp */ '2026-06-21T21:08:51Z',
/* author */ (''),
/* organization */ (''),
/* preprocessor_version */ 'ST-DEVELOPER v20',
/* originating_system */ 'ONSHAPE BY PTC INC, 1.216',
/* authorisation */ '  ');

FILE_SCHEMA (('AP242_MANAGED_MODEL_BASED_3D_ENGINEERING_MIM_LF { 1 0 10303 442 3 1 4 }'));
ENDSEC;

DATA;
#10=SHAPE_REPRESENTATION_RELATIONSHIP('','',#329,#11);
#11=ADVANCED_BREP_SHAPE_REPRESENTATION('',(#327),#639);
#12=ORIENTED_CLOSED_SHELL('',*,#318,.F.);
#13=TOROIDAL_SURFACE('',#351,0.0331922294933286,0.006);
#14=TOROIDAL_SURFACE('',#352,0.0409031697332331,0.006);
#15=TOROIDAL_SURFACE('',#353,0.0678670778329989,0.006);
#16=TOROIDAL_SURFACE('',#373,0.0331922294933286,0.0037);
#17=TOROIDAL_SURFACE('',#374,0.0409031697332331,0.0037);
#18=TOROIDAL_SURFACE('',#375,0.0678670778329989,0.0037);
#19=PLANE('',#346);
#20=PLANE('',#347);
#21=PLANE('',#369);
#22=PLANE('',#370);
#23=LINE('',#491,#33);
#24=LINE('',#495,#34);
#25=LINE('',#510,#35);
#26=LINE('',#516,#36);
#27=LINE('',#540,#37);
#28=LINE('',#573,#38);
#29=LINE('',#577,#39);
#30=LINE('',#592,#40);
#31=LINE('',#598,#41);
#32=LINE('',#604,#42);
#33=VECTOR('',#382,1.);
#34=VECTOR('',#385,1.);
#35=VECTOR('',#390,1.);
#36=VECTOR('',#397,1.);
#37=VECTOR('',#404,1.);
#38=VECTOR('',#433,1.);
#39=VECTOR('',#436,1.);
#40=VECTOR('',#441,1.);
#41=VECTOR('',#448,1.);
#42=VECTOR('',#455,1.);
#43=B_SPLINE_CURVE_WITH_KNOTS('',3,(#483,#484,#485,#486,#487,#488,#489),
 .UNSPECIFIED.,.F.,.F.,(4,1,1,1,4),(0.,0.0025518475272093,0.0051036950544186,
0.0076555425816279,0.0102073901088372),.UNSPECIFIED.);
#44=B_SPLINE_CURVE_WITH_KNOTS('',3,(#497,#498,#499,#500,#501,#502,#503,
#504,#505,#506),.UNSPECIFIED.,.F.,.F.,(4,1,1,1,1,1,1,4),(0.,0.000787608990804394,
0.00157521798160879,0.00315043596321758,0.00472565394482636,0.00630087192643515,
0.00945130788965273,0.0126017438528703),.UNSPECIFIED.);
#45=B_SPLINE_CURVE_WITH_KNOTS('',3,(#520,#521,#522,#523,#524,#525,#526,
#527,#528),.UNSPECIFIED.,.F.,.F.,(4,1,1,1,1,1,4),(0.,0.00161110935897241,
0.00322221871794483,0.00483332807691724,0.00644443743588966,0.00966665615383449,
0.0128888748717793),.UNSPECIFIED.);
#46=B_SPLINE_CURVE_WITH_KNOTS('',3,(#532,#533,#534,#535,#536,#537,#538),
 .UNSPECIFIED.,.F.,.F.,(4,1,1,1,4),(0.,0.00265369963782451,0.00530739927564903,
0.00796109891347354,0.0106147985512981),.UNSPECIFIED.);
#47=B_SPLINE_CURVE_WITH_KNOTS('',3,(#553,#554,#555,#556,#557,#558,#559),
 .UNSPECIFIED.,.F.,.F.,(4,1,1,1,4),(0.,0.00234403950789006,0.00468807901578011,
0.00703211852367017,0.00937615803156023),.UNSPECIFIED.);
#48=B_SPLINE_CURVE_WITH_KNOTS('',3,(#566,#567,#568,#569,#570,#571),
 .UNSPECIFIED.,.F.,.F.,(4,1,1,4),(0.,0.00156849551412013,0.00313699102824026,
0.00627398205648053),.UNSPECIFIED.);
#49=B_SPLINE_CURVE_WITH_KNOTS('',3,(#579,#580,#581,#582),.UNSPECIFIED.,
 .F.,.F.,(4,4),(0.00516002331780734,0.00592404279295053),.UNSPECIFIED.);
#50=B_SPLINE_CURVE_WITH_KNOTS('',3,(#584,#585,#586,#587,#588),
 .UNSPECIFIED.,.F.,.F.,(4,1,4),(0.,0.00256352651792439,0.00512705303584879),
 .UNSPECIFIED.);
#51=B_SPLINE_CURVE_WITH_KNOTS('',3,(#606,#607,#608,#609,#610,#611,#612),
 .UNSPECIFIED.,.F.,.F.,(4,1,1,1,4),(0.,0.00166615106060779,0.00333230212121558,
0.00499845318182337,0.00666460424243116),.UNSPECIFIED.);
#52=B_SPLINE_CURVE_WITH_KNOTS('',3,(#616,#617,#618,#619,#620,#621,#622,
#623),.UNSPECIFIED.,.F.,.F.,(4,1,1,1,1,4),(0.,0.00100238703653815,0.00200477407307629,
0.00400954814615258,0.00601432221922887,0.00801909629230516),
 .UNSPECIFIED.);
#53=B_SPLINE_CURVE_WITH_KNOTS('',3,(#632,#633,#634,#635),.UNSPECIFIED.,
 .F.,.F.,(4,4),(0.00496715986049759,0.0057368157737679),.UNSPECIFIED.);
#54=ORIENTED_EDGE('',*,*,#146,.F.);
#55=ORIENTED_EDGE('',*,*,#147,.T.);
#56=ORIENTED_EDGE('',*,*,#148,.F.);
#57=ORIENTED_EDGE('',*,*,#149,.T.);
#58=ORIENTED_EDGE('',*,*,#150,.T.);
#59=ORIENTED_EDGE('',*,*,#151,.T.);
#60=ORIENTED_EDGE('',*,*,#148,.T.);
#61=ORIENTED_EDGE('',*,*,#152,.T.);
#62=ORIENTED_EDGE('',*,*,#153,.F.);
#63=ORIENTED_EDGE('',*,*,#154,.T.);
#64=ORIENTED_EDGE('',*,*,#153,.T.);
#65=ORIENTED_EDGE('',*,*,#155,.T.);
#66=ORIENTED_EDGE('',*,*,#156,.F.);
#67=ORIENTED_EDGE('',*,*,#157,.F.);
#68=ORIENTED_EDGE('',*,*,#156,.T.);
#69=ORIENTED_EDGE('',*,*,#158,.T.);
#70=ORIENTED_EDGE('',*,*,#159,.T.);
#71=ORIENTED_EDGE('',*,*,#160,.T.);
#72=ORIENTED_EDGE('',*,*,#161,.F.);
#73=ORIENTED_EDGE('',*,*,#162,.F.);
#74=ORIENTED_EDGE('',*,*,#161,.T.);
#75=ORIENTED_EDGE('',*,*,#163,.T.);
#76=ORIENTED_EDGE('',*,*,#150,.F.);
#77=ORIENTED_EDGE('',*,*,#164,.T.);
#78=ORIENTED_EDGE('',*,*,#149,.F.);
#79=ORIENTED_EDGE('',*,*,#154,.F.);
#80=ORIENTED_EDGE('',*,*,#157,.T.);
#81=ORIENTED_EDGE('',*,*,#162,.T.);
#82=ORIENTED_EDGE('',*,*,#164,.F.);
#83=ORIENTED_EDGE('',*,*,#165,.T.);
#84=ORIENTED_EDGE('',*,*,#166,.T.);
#85=ORIENTED_EDGE('',*,*,#146,.T.);
#86=ORIENTED_EDGE('',*,*,#167,.T.);
#87=ORIENTED_EDGE('',*,*,#159,.F.);
#88=ORIENTED_EDGE('',*,*,#158,.F.);
#89=ORIENTED_EDGE('',*,*,#155,.F.);
#90=ORIENTED_EDGE('',*,*,#168,.F.);
#91=ORIENTED_EDGE('',*,*,#165,.F.);
#92=ORIENTED_EDGE('',*,*,#168,.T.);
#93=ORIENTED_EDGE('',*,*,#152,.F.);
#94=ORIENTED_EDGE('',*,*,#147,.F.);
#95=ORIENTED_EDGE('',*,*,#166,.F.);
#96=ORIENTED_EDGE('',*,*,#151,.F.);
#97=ORIENTED_EDGE('',*,*,#163,.F.);
#98=ORIENTED_EDGE('',*,*,#160,.F.);
#99=ORIENTED_EDGE('',*,*,#167,.F.);
#100=ORIENTED_EDGE('',*,*,#169,.T.);
#101=ORIENTED_EDGE('',*,*,#170,.F.);
#102=ORIENTED_EDGE('',*,*,#171,.F.);
#103=ORIENTED_EDGE('',*,*,#172,.F.);
#104=ORIENTED_EDGE('',*,*,#173,.T.);
#105=ORIENTED_EDGE('',*,*,#174,.F.);
#106=ORIENTED_EDGE('',*,*,#175,.T.);
#107=ORIENTED_EDGE('',*,*,#173,.F.);
#108=ORIENTED_EDGE('',*,*,#176,.F.);
#109=ORIENTED_EDGE('',*,*,#177,.T.);
#110=ORIENTED_EDGE('',*,*,#178,.F.);
#111=ORIENTED_EDGE('',*,*,#177,.F.);
#112=ORIENTED_EDGE('',*,*,#179,.T.);
#113=ORIENTED_EDGE('',*,*,#180,.T.);
#114=ORIENTED_EDGE('',*,*,#181,.F.);
#115=ORIENTED_EDGE('',*,*,#180,.F.);
#116=ORIENTED_EDGE('',*,*,#182,.T.);
#117=ORIENTED_EDGE('',*,*,#183,.T.);
#118=ORIENTED_EDGE('',*,*,#184,.F.);
#119=ORIENTED_EDGE('',*,*,#185,.F.);
#120=ORIENTED_EDGE('',*,*,#186,.F.);
#121=ORIENTED_EDGE('',*,*,#183,.F.);
#122=ORIENTED_EDGE('',*,*,#187,.F.);
#123=ORIENTED_EDGE('',*,*,#171,.T.);
#124=ORIENTED_EDGE('',*,*,#188,.F.);
#125=ORIENTED_EDGE('',*,*,#172,.T.);
#126=ORIENTED_EDGE('',*,*,#187,.T.);
#127=ORIENTED_EDGE('',*,*,#182,.F.);
#128=ORIENTED_EDGE('',*,*,#179,.F.);
#129=ORIENTED_EDGE('',*,*,#176,.T.);
#130=ORIENTED_EDGE('',*,*,#189,.F.);
#131=ORIENTED_EDGE('',*,*,#185,.T.);
#132=ORIENTED_EDGE('',*,*,#190,.F.);
#133=ORIENTED_EDGE('',*,*,#169,.F.);
#134=ORIENTED_EDGE('',*,*,#186,.T.);
#135=ORIENTED_EDGE('',*,*,#189,.T.);
#136=ORIENTED_EDGE('',*,*,#175,.F.);
#137=ORIENTED_EDGE('',*,*,#191,.T.);
#138=ORIENTED_EDGE('',*,*,#181,.T.);
#139=ORIENTED_EDGE('',*,*,#191,.F.);
#140=ORIENTED_EDGE('',*,*,#174,.T.);
#141=ORIENTED_EDGE('',*,*,#178,.T.);
#142=ORIENTED_EDGE('',*,*,#170,.T.);
#143=ORIENTED_EDGE('',*,*,#190,.T.);
#144=ORIENTED_EDGE('',*,*,#184,.T.);
#145=ORIENTED_EDGE('',*,*,#188,.T.);
#146=EDGE_CURVE('',#192,#193,#222,.T.);
#147=EDGE_CURVE('',#192,#194,#43,.T.);
#148=EDGE_CURVE('',#195,#194,#23,.T.);
#149=EDGE_CURVE('',#195,#196,#223,.T.);
#150=EDGE_CURVE('',#196,#197,#24,.T.);
#151=EDGE_CURVE('',#197,#193,#44,.T.);
#152=EDGE_CURVE('',#194,#198,#224,.F.);
#153=EDGE_CURVE('',#199,#198,#25,.T.);
#154=EDGE_CURVE('',#199,#195,#225,.T.);
#155=EDGE_CURVE('',#198,#200,#226,.T.);
#156=EDGE_CURVE('',#201,#200,#26,.T.);
#157=EDGE_CURVE('',#199,#201,#227,.T.);
#158=EDGE_CURVE('',#200,#202,#45,.T.);
#159=EDGE_CURVE('',#202,#203,#228,.T.);
#160=EDGE_CURVE('',#203,#204,#46,.T.);
#161=EDGE_CURVE('',#205,#204,#27,.T.);
#162=EDGE_CURVE('',#201,#205,#229,.T.);
#163=EDGE_CURVE('',#204,#197,#230,.F.);
#164=EDGE_CURVE('',#196,#205,#231,.T.);
#165=EDGE_CURVE('',#202,#206,#232,.F.);
#166=EDGE_CURVE('',#206,#192,#233,.T.);
#167=EDGE_CURVE('',#193,#203,#234,.T.);
#168=EDGE_CURVE('',#206,#198,#47,.F.);
#169=EDGE_CURVE('',#207,#208,#235,.T.);
#170=EDGE_CURVE('',#209,#208,#48,.T.);
#171=EDGE_CURVE('',#210,#209,#28,.T.);
#172=EDGE_CURVE('',#211,#210,#236,.T.);
#173=EDGE_CURVE('',#211,#212,#29,.T.);
#174=EDGE_CURVE('',#213,#212,#49,.T.);
#175=EDGE_CURVE('',#213,#207,#50,.T.);
#176=EDGE_CURVE('',#214,#211,#237,.T.);
#177=EDGE_CURVE('',#214,#215,#30,.T.);
#178=EDGE_CURVE('',#212,#215,#238,.T.);
#179=EDGE_CURVE('',#214,#216,#239,.T.);
#180=EDGE_CURVE('',#216,#217,#31,.T.);
#181=EDGE_CURVE('',#215,#217,#240,.F.);
#182=EDGE_CURVE('',#216,#218,#241,.T.);
#183=EDGE_CURVE('',#218,#219,#32,.T.);
#184=EDGE_CURVE('',#220,#219,#51,.T.);
#185=EDGE_CURVE('',#221,#220,#242,.T.);
#186=EDGE_CURVE('',#217,#221,#52,.T.);
#187=EDGE_CURVE('',#210,#218,#243,.T.);
#188=EDGE_CURVE('',#219,#209,#244,.T.);
#189=EDGE_CURVE('',#221,#207,#245,.F.);
#190=EDGE_CURVE('',#208,#220,#246,.T.);
#191=EDGE_CURVE('',#213,#215,#53,.T.);
#192=VERTEX_POINT('',#481);
#193=VERTEX_POINT('',#482);
#194=VERTEX_POINT('',#490);
#195=VERTEX_POINT('',#492);
#196=VERTEX_POINT('',#494);
#197=VERTEX_POINT('',#496);
#198=VERTEX_POINT('',#509);
#199=VERTEX_POINT('',#511);
#200=VERTEX_POINT('',#515);
#201=VERTEX_POINT('',#517);
#202=VERTEX_POINT('',#529);
#203=VERTEX_POINT('',#531);
#204=VERTEX_POINT('',#539);
#205=VERTEX_POINT('',#541);
#206=VERTEX_POINT('',#549);
#207=VERTEX_POINT('',#564);
#208=VERTEX_POINT('',#565);
#209=VERTEX_POINT('',#572);
#210=VERTEX_POINT('',#574);
#211=VERTEX_POINT('',#576);
#212=VERTEX_POINT('',#578);
#213=VERTEX_POINT('',#583);
#214=VERTEX_POINT('',#591);
#215=VERTEX_POINT('',#593);
#216=VERTEX_POINT('',#597);
#217=VERTEX_POINT('',#599);
#218=VERTEX_POINT('',#603);
#219=VERTEX_POINT('',#605);
#220=VERTEX_POINT('',#613);
#221=VERTEX_POINT('',#615);
#222=CIRCLE('',#332,0.0146863823255677);
#223=CIRCLE('',#333,0.0146863823255677);
#224=CIRCLE('',#335,0.0349031697332331);
#225=CIRCLE('',#336,0.0349031697332331);
#226=CIRCLE('',#338,0.0391922294933286);
#227=CIRCLE('',#339,0.0391922294933286);
#228=CIRCLE('',#341,0.0147786111268304);
#229=CIRCLE('',#342,0.0147786111268304);
#230=CIRCLE('',#344,0.0618670778329989);
#231=CIRCLE('',#345,0.0618670778329989);
#232=CIRCLE('',#348,0.0331922294933286);
#233=CIRCLE('',#349,0.0409031697332331);
#234=CIRCLE('',#350,0.0678670778329989);
#235=CIRCLE('',#355,0.0169863823255677);
#236=CIRCLE('',#356,0.0169863823255677);
#237=CIRCLE('',#358,0.0372031697332331);
#238=CIRCLE('',#359,0.0372031697332331);
#239=CIRCLE('',#361,0.0368922294933286);
#240=CIRCLE('',#362,0.0368922294933286);
#241=CIRCLE('',#364,0.0124786111268304);
#242=CIRCLE('',#365,0.0124786111268304);
#243=CIRCLE('',#367,0.0641670778329989);
#244=CIRCLE('',#368,0.0641670778329989);
#245=CIRCLE('',#371,0.0331922294933286);
#246=CIRCLE('',#372,0.0678670778329989);
#247=EDGE_LOOP('',(#54,#55,#56,#57,#58,#59));
#248=EDGE_LOOP('',(#60,#61,#62,#63));
#249=EDGE_LOOP('',(#64,#65,#66,#67));
#250=EDGE_LOOP('',(#68,#69,#70,#71,#72,#73));
#251=EDGE_LOOP('',(#74,#75,#76,#77));
#252=EDGE_LOOP('',(#78,#79,#80,#81,#82));
#253=EDGE_LOOP('',(#83,#84,#85,#86,#87));
#254=EDGE_LOOP('',(#88,#89,#90,#91));
#255=EDGE_LOOP('',(#92,#93,#94,#95));
#256=EDGE_LOOP('',(#96,#97,#98,#99));
#257=EDGE_LOOP('',(#100,#101,#102,#103,#104,#105,#106));
#258=EDGE_LOOP('',(#107,#108,#109,#110));
#259=EDGE_LOOP('',(#111,#112,#113,#114));
#260=EDGE_LOOP('',(#115,#116,#117,#118,#119,#120));
#261=EDGE_LOOP('',(#121,#122,#123,#124));
#262=EDGE_LOOP('',(#125,#126,#127,#128,#129));
#263=EDGE_LOOP('',(#130,#131,#132,#133));
#264=EDGE_LOOP('',(#134,#135,#136,#137,#138));
#265=EDGE_LOOP('',(#139,#140,#141));
#266=EDGE_LOOP('',(#142,#143,#144,#145));
#267=FACE_BOUND('',#247,.T.);
#268=FACE_BOUND('',#248,.T.);
#269=FACE_BOUND('',#249,.T.);
#270=FACE_BOUND('',#250,.T.);
#271=FACE_BOUND('',#251,.T.);
#272=FACE_BOUND('',#252,.T.);
#273=FACE_BOUND('',#253,.T.);
#274=FACE_BOUND('',#254,.T.);
#275=FACE_BOUND('',#255,.T.);
#276=FACE_BOUND('',#256,.T.);
#277=FACE_BOUND('',#257,.T.);
#278=FACE_BOUND('',#258,.T.);
#279=FACE_BOUND('',#259,.T.);
#280=FACE_BOUND('',#260,.T.);
#281=FACE_BOUND('',#261,.T.);
#282=FACE_BOUND('',#262,.T.);
#283=FACE_BOUND('',#263,.T.);
#284=FACE_BOUND('',#264,.T.);
#285=FACE_BOUND('',#265,.T.);
#286=FACE_BOUND('',#266,.T.);
#287=CYLINDRICAL_SURFACE('',#331,0.0146863823255677);
#288=CYLINDRICAL_SURFACE('',#334,0.0349031697332331);
#289=CYLINDRICAL_SURFACE('',#337,0.0391922294933286);
#290=CYLINDRICAL_SURFACE('',#340,0.0147786111268304);
#291=CYLINDRICAL_SURFACE('',#343,0.0618670778329989);
#292=CYLINDRICAL_SURFACE('',#354,0.0169863823255677);
#293=CYLINDRICAL_SURFACE('',#357,0.0372031697332331);
#294=CYLINDRICAL_SURFACE('',#360,0.0368922294933286);
#295=CYLINDRICAL_SURFACE('',#363,0.0124786111268304);
#296=CYLINDRICAL_SURFACE('',#366,0.0641670778329989);
#297=ADVANCED_FACE('Face appearance 4',(#267),#287,.F.);
#298=ADVANCED_FACE('Face appearance 4',(#268),#288,.F.);
#299=ADVANCED_FACE('Face appearance 4',(#269),#289,.T.);
#300=ADVANCED_FACE('Face appearance 4',(#270),#290,.T.);
#301=ADVANCED_FACE('Face appearance 4',(#271),#291,.F.);
#302=ADVANCED_FACE('Face appearance 4',(#272),#19,.T.);
#303=ADVANCED_FACE('Face appearance 4',(#273),#20,.F.);
#304=ADVANCED_FACE('',(#274),#13,.T.);
#305=ADVANCED_FACE('',(#275),#14,.T.);
#306=ADVANCED_FACE('',(#276),#15,.T.);
#307=ADVANCED_FACE('',(#277),#292,.T.);
#308=ADVANCED_FACE('',(#278),#293,.T.);
#309=ADVANCED_FACE('',(#279),#294,.F.);
#310=ADVANCED_FACE('',(#280),#295,.F.);
#311=ADVANCED_FACE('',(#281),#296,.T.);
#312=ADVANCED_FACE('',(#282),#21,.F.);
#313=ADVANCED_FACE('',(#283),#22,.T.);
#314=ADVANCED_FACE('',(#284),#16,.F.);
#315=ADVANCED_FACE('',(#285),#17,.F.);
#316=ADVANCED_FACE('',(#286),#18,.F.);
#317=CLOSED_SHELL('',(#297,#298,#299,#300,#301,#302,#303,#304,#305,#306));
#318=CLOSED_SHELL('',(#307,#308,#309,#310,#311,#312,#313,#314,#315,#316));
#319=STYLED_ITEM('',(#320),#327);
#320=PRESENTATION_STYLE_ASSIGNMENT((#321));
#321=SURFACE_STYLE_USAGE(.BOTH.,#322);
#322=SURFACE_SIDE_STYLE('',(#323));
#323=SURFACE_STYLE_FILL_AREA(#324);
#324=FILL_AREA_STYLE('',(#325));
#325=FILL_AREA_STYLE_COLOUR('',#326);
#326=DRAUGHTING_PRE_DEFINED_COLOUR('black');
#327=BREP_WITH_VOIDS('Tail_Part 2_Black',#317,(#12));
#328=SHAPE_DEFINITION_REPRESENTATION(#644,#329);
#329=SHAPE_REPRESENTATION('Tail_Part 2_Black',(#330),#639);
#330=AXIS2_PLACEMENT_3D('',#478,#376,#377);
#331=AXIS2_PLACEMENT_3D('',#479,#378,#379);
#332=AXIS2_PLACEMENT_3D('',#480,#380,#381);
#333=AXIS2_PLACEMENT_3D('',#493,#383,#384);
#334=AXIS2_PLACEMENT_3D('',#507,#386,#387);
#335=AXIS2_PLACEMENT_3D('',#508,#388,#389);
#336=AXIS2_PLACEMENT_3D('',#512,#391,#392);
#337=AXIS2_PLACEMENT_3D('',#513,#393,#394);
#338=AXIS2_PLACEMENT_3D('',#514,#395,#396);
#339=AXIS2_PLACEMENT_3D('',#518,#398,#399);
#340=AXIS2_PLACEMENT_3D('',#519,#400,#401);
#341=AXIS2_PLACEMENT_3D('',#530,#402,#403);
#342=AXIS2_PLACEMENT_3D('',#542,#405,#406);
#343=AXIS2_PLACEMENT_3D('',#543,#407,#408);
#344=AXIS2_PLACEMENT_3D('',#544,#409,#410);
#345=AXIS2_PLACEMENT_3D('',#545,#411,#412);
#346=AXIS2_PLACEMENT_3D('',#546,#413,#414);
#347=AXIS2_PLACEMENT_3D('',#547,#415,#416);
#348=AXIS2_PLACEMENT_3D('',#548,#417,#418);
#349=AXIS2_PLACEMENT_3D('',#550,#419,#420);
#350=AXIS2_PLACEMENT_3D('',#551,#421,#422);
#351=AXIS2_PLACEMENT_3D('',#552,#423,#424);
#352=AXIS2_PLACEMENT_3D('',#560,#425,#426);
#353=AXIS2_PLACEMENT_3D('',#561,#427,#428);
#354=AXIS2_PLACEMENT_3D('',#562,#429,#430);
#355=AXIS2_PLACEMENT_3D('',#563,#431,#432);
#356=AXIS2_PLACEMENT_3D('',#575,#434,#435);
#357=AXIS2_PLACEMENT_3D('',#589,#437,#438);
#358=AXIS2_PLACEMENT_3D('',#590,#439,#440);
#359=AXIS2_PLACEMENT_3D('',#594,#442,#443);
#360=AXIS2_PLACEMENT_3D('',#595,#444,#445);
#361=AXIS2_PLACEMENT_3D('',#596,#446,#447);
#362=AXIS2_PLACEMENT_3D('',#600,#449,#450);
#363=AXIS2_PLACEMENT_3D('',#601,#451,#452);
#364=AXIS2_PLACEMENT_3D('',#602,#453,#454);
#365=AXIS2_PLACEMENT_3D('',#614,#456,#457);
#366=AXIS2_PLACEMENT_3D('',#624,#458,#459);
#367=AXIS2_PLACEMENT_3D('',#625,#460,#461);
#368=AXIS2_PLACEMENT_3D('',#626,#462,#463);
#369=AXIS2_PLACEMENT_3D('',#627,#464,#465);
#370=AXIS2_PLACEMENT_3D('',#628,#466,#467);
#371=AXIS2_PLACEMENT_3D('',#629,#468,#469);
#372=AXIS2_PLACEMENT_3D('',#630,#470,#471);
#373=AXIS2_PLACEMENT_3D('',#631,#472,#473);
#374=AXIS2_PLACEMENT_3D('',#636,#474,#475);
#375=AXIS2_PLACEMENT_3D('',#637,#476,#477);
#376=DIRECTION('',(0.,0.,1.));
#377=DIRECTION('',(1.,0.,0.));
#378=DIRECTION('',(0.,0.,-1.));
#379=DIRECTION('',(-1.,0.,0.));
#380=DIRECTION('',(0.,0.,1.));
#381=DIRECTION('',(1.,0.,0.));
#382=DIRECTION('',(0.,0.,-1.));
#383=DIRECTION('',(0.,0.,1.));
#384=DIRECTION('',(1.,0.,0.));
#385=DIRECTION('',(0.,0.,-1.));
#386=DIRECTION('',(0.,0.,-1.));
#387=DIRECTION('',(-1.,0.,0.));
#388=DIRECTION('',(0.,0.,1.));
#389=DIRECTION('',(1.,0.,0.));
#390=DIRECTION('',(0.,0.,-1.));
#391=DIRECTION('',(0.,0.,1.));
#392=DIRECTION('',(1.,0.,0.));
#393=DIRECTION('',(0.,0.,-1.));
#394=DIRECTION('',(-1.,0.,0.));
#395=DIRECTION('',(0.,0.,1.));
#396=DIRECTION('',(1.,0.,0.));
#397=DIRECTION('',(0.,0.,-1.));
#398=DIRECTION('',(0.,0.,1.));
#399=DIRECTION('',(1.,0.,0.));
#400=DIRECTION('',(0.,0.,-1.));
#401=DIRECTION('',(-1.,0.,0.));
#402=DIRECTION('',(0.,0.,1.));
#403=DIRECTION('',(1.,0.,0.));
#404=DIRECTION('',(0.,0.,-1.));
#405=DIRECTION('',(0.,0.,1.));
#406=DIRECTION('',(1.,0.,0.));
#407=DIRECTION('',(0.,0.,-1.));
#408=DIRECTION('',(-1.,0.,0.));
#409=DIRECTION('',(0.,0.,1.));
#410=DIRECTION('',(1.,0.,0.));
#411=DIRECTION('',(0.,0.,1.));
#412=DIRECTION('',(1.,0.,0.));
#413=DIRECTION('',(0.,0.,1.));
#414=DIRECTION('',(1.,0.,0.));
#415=DIRECTION('',(0.,0.,1.));
#416=DIRECTION('',(1.,0.,0.));
#417=DIRECTION('',(0.,0.,1.));
#418=DIRECTION('',(1.,0.,0.));
#419=DIRECTION('',(0.,0.,1.));
#420=DIRECTION('',(1.,0.,0.));
#421=DIRECTION('',(0.,0.,1.));
#422=DIRECTION('',(1.,0.,0.));
#423=DIRECTION('',(0.,0.,1.));
#424=DIRECTION('',(1.,0.,0.));
#425=DIRECTION('',(0.,0.,1.));
#426=DIRECTION('',(1.,0.,0.));
#427=DIRECTION('',(0.,0.,1.));
#428=DIRECTION('',(1.,0.,0.));
#429=DIRECTION('',(0.,0.,-1.));
#430=DIRECTION('',(-1.,0.,0.));
#431=DIRECTION('',(0.,0.,1.));
#432=DIRECTION('',(1.,0.,0.));
#433=DIRECTION('',(0.,0.,-1.));
#434=DIRECTION('',(0.,0.,1.));
#435=DIRECTION('',(1.,0.,0.));
#436=DIRECTION('',(0.,0.,-1.));
#437=DIRECTION('',(0.,0.,-1.));
#438=DIRECTION('',(-1.,0.,0.));
#439=DIRECTION('',(0.,0.,1.));
#440=DIRECTION('',(1.,0.,0.));
#441=DIRECTION('',(0.,0.,-1.));
#442=DIRECTION('',(0.,0.,-1.));
#443=DIRECTION('',(-1.,0.,0.));
#444=DIRECTION('',(0.,0.,-1.));
#445=DIRECTION('',(-1.,0.,0.));
#446=DIRECTION('',(0.,0.,1.));
#447=DIRECTION('',(1.,0.,0.));
#448=DIRECTION('',(0.,0.,-1.));
#449=DIRECTION('',(0.,0.,-1.));
#450=DIRECTION('',(-1.,0.,0.));
#451=DIRECTION('',(0.,0.,-1.));
#452=DIRECTION('',(-1.,0.,0.));
#453=DIRECTION('',(0.,0.,1.));
#454=DIRECTION('',(1.,0.,0.));
#455=DIRECTION('',(0.,0.,-1.));
#456=DIRECTION('',(0.,0.,1.));
#457=DIRECTION('',(1.,0.,0.));
#458=DIRECTION('',(0.,0.,-1.));
#459=DIRECTION('',(-1.,0.,0.));
#460=DIRECTION('',(0.,0.,1.));
#461=DIRECTION('',(1.,0.,0.));
#462=DIRECTION('',(0.,0.,-1.));
#463=DIRECTION('',(-1.,0.,0.));
#464=DIRECTION('',(0.,0.,1.));
#465=DIRECTION('',(1.,0.,0.));
#466=DIRECTION('',(0.,0.,1.));
#467=DIRECTION('',(1.,0.,0.));
#468=DIRECTION('',(0.,0.,1.));
#469=DIRECTION('',(1.,0.,0.));
#470=DIRECTION('',(0.,0.,1.));
#471=DIRECTION('',(1.,0.,0.));
#472=DIRECTION('',(0.,0.,1.));
#473=DIRECTION('',(1.,0.,0.));
#474=DIRECTION('',(0.,0.,1.));
#475=DIRECTION('',(1.,0.,0.));
#476=DIRECTION('',(0.,0.,1.));
#477=DIRECTION('',(1.,0.,0.));
#478=CARTESIAN_POINT('',(0.,0.,0.));
#479=CARTESIAN_POINT('',(0.208292517372848,-0.143650636845691,0.02));
#480=CARTESIAN_POINT('',(0.208292517372848,-0.143650636845691,-0.035));
#481=CARTESIAN_POINT('',(0.20791554735907,-0.12896909334981,-0.035));
#482=CARTESIAN_POINT('',(0.19611738854937,-0.135437472781551,-0.035));
#483=CARTESIAN_POINT('',(0.20791554735907,-0.12896909334981,-0.035));
#484=CARTESIAN_POINT('',(0.208779735012007,-0.128946904073081,-0.035));
#485=CARTESIAN_POINT('',(0.210473325078593,-0.129059766913614,-0.0346590417249661));
#486=CARTESIAN_POINT('',(0.212680364006717,-0.129583495844332,-0.0333777385093575));
#487=CARTESIAN_POINT('',(0.214371892862607,-0.130256901126026,-0.031520349132704));
#488=CARTESIAN_POINT('',(0.214923068306158,-0.130546224606544,-0.0298680966327156));
#489=CARTESIAN_POINT('',(0.214923068306158,-0.130546224606544,-0.029));
#490=CARTESIAN_POINT('',(0.214923068306158,-0.130546224606544,-0.029));
#491=CARTESIAN_POINT('',(0.214923068306158,-0.130546224606544,0.02));
#492=CARTESIAN_POINT('',(0.214923068306158,-0.130546224606544,0.02));
#493=CARTESIAN_POINT('',(0.208292517372848,-0.143650636845691,0.02));
#494=CARTESIAN_POINT('',(0.193696080593115,-0.145273553709864,0.02));
#495=CARTESIAN_POINT('',(0.193696080593115,-0.145273553709864,0.02));
#496=CARTESIAN_POINT('',(0.193696080593115,-0.145273553709864,-0.029));
#497=CARTESIAN_POINT('',(0.193696080593115,-0.145273553709864,-0.029));
#498=CARTESIAN_POINT('',(0.193696080593115,-0.145273553709864,-0.0292672178994966));
#499=CARTESIAN_POINT('',(0.193676121695677,-0.145100484455406,-0.0297769872024089));
#500=CARTESIAN_POINT('',(0.193620486274955,-0.144450493067365,-0.0306147659657385));
#501=CARTESIAN_POINT('',(0.193589744521682,-0.143473265226452,-0.0314745992402524));
#502=CARTESIAN_POINT('',(0.193658913932512,-0.142198697344808,-0.0324011978398082));
#503=CARTESIAN_POINT('',(0.193908638656022,-0.140457599529809,-0.0334810992916096));
#504=CARTESIAN_POINT('',(0.194562112481034,-0.138157343971283,-0.0345883838419292));
#505=CARTESIAN_POINT('',(0.195526932870913,-0.136312759564285,-0.035));
#506=CARTESIAN_POINT('',(0.19611738854937,-0.135437472781551,-0.035));
#507=CARTESIAN_POINT('',(0.246862921717603,-0.116472240753975,0.02));
#508=CARTESIAN_POINT('',(0.246862921717603,-0.116472240753975,-0.029));
#509=CARTESIAN_POINT('',(0.213373872269135,-0.126306610304941,-0.029));
#510=CARTESIAN_POINT('',(0.213373872269135,-0.126306610304941,0.02));
#511=CARTESIAN_POINT('',(0.213373872269135,-0.126306610304941,0.02));
#512=CARTESIAN_POINT('',(0.246862921717603,-0.116472240753975,0.02));
#513=CARTESIAN_POINT('',(0.175070208290117,-0.134604813630976,0.02));
#514=CARTESIAN_POINT('',(0.175070208290117,-0.134604813630976,-0.029));
#515=CARTESIAN_POINT('',(0.210987675569207,-0.118921497753484,-0.029));
#516=CARTESIAN_POINT('',(0.210987675569207,-0.118921497753484,0.02));
#517=CARTESIAN_POINT('',(0.210987675569207,-0.118921497753484,0.02));
#518=CARTESIAN_POINT('',(0.175070208290117,-0.134604813630976,0.02));
#519=CARTESIAN_POINT('',(0.200640385735954,-0.129473319394543,0.02));
#520=CARTESIAN_POINT('',(0.210987675569207,-0.118921497753484,-0.029));
#521=CARTESIAN_POINT('',(0.210987675569207,-0.118921497753484,-0.0295467628795275));
#522=CARTESIAN_POINT('',(0.210689817216224,-0.118624454575426,-0.0305772350555698));
#523=CARTESIAN_POINT('',(0.209831927022767,-0.117877942696576,-0.0317411716679456));
#524=CARTESIAN_POINT('',(0.20876883198642,-0.117106157727454,-0.0326895087557845));
#525=CARTESIAN_POINT('',(0.207167636937323,-0.116154163392394,-0.0337222007147307));
#526=CARTESIAN_POINT('',(0.204823927437952,-0.11518486340246,-0.0346763368972337));
#527=CARTESIAN_POINT('',(0.20273373931717,-0.114803737488555,-0.035));
#528=CARTESIAN_POINT('',(0.201653968257042,-0.114729507224313,-0.035));
#529=CARTESIAN_POINT('',(0.201653968257042,-0.114729507224313,-0.035));
#530=CARTESIAN_POINT('',(0.200640385735954,-0.129473319394543,-0.035));
#531=CARTESIAN_POINT('',(0.187715547346623,-0.122307016341522,-0.035));
#532=CARTESIAN_POINT('',(0.187715547346623,-0.122307016341522,-0.035));
#533=CARTESIAN_POINT('',(0.187279588954803,-0.123093292293997,-0.035));
#534=CARTESIAN_POINT('',(0.186574243915773,-0.124709568121303,-0.0346582367042192));
#535=CARTESIAN_POINT('',(0.18600648901111,-0.12703986258136,-0.0333979336696541));
#536=CARTESIAN_POINT('',(0.185838431565317,-0.12902898695166,-0.0315990451119008));
#537=CARTESIAN_POINT('',(0.185865534259943,-0.129806652111053,-0.0299033002382856));
#538=CARTESIAN_POINT('',(0.185865534259943,-0.129806652111053,-0.029));
#539=CARTESIAN_POINT('',(0.185865534259943,-0.129806652111053,-0.029));
#540=CARTESIAN_POINT('',(0.185865534259943,-0.129806652111053,0.02));
#541=CARTESIAN_POINT('',(0.185865534259943,-0.129806652111053,0.02));
#542=CARTESIAN_POINT('',(0.200640385735954,-0.129473319394543,0.02));
#543=CARTESIAN_POINT('',(0.135128950782926,-0.165209115537685,0.02));
#544=CARTESIAN_POINT('',(0.135128950782926,-0.165209115537685,-0.029));
#545=CARTESIAN_POINT('',(0.135128950782926,-0.165209115537685,0.02));
#546=CARTESIAN_POINT('',(0.233402002858431,-0.141733597313975,0.02));
#547=CARTESIAN_POINT('',(0.233402002858431,-0.141733597313975,-0.035));
#548=CARTESIAN_POINT('',(0.175070208290117,-0.134604813630976,-0.035));
#549=CARTESIAN_POINT('',(0.207551531308063,-0.127771969878802,-0.035));
#550=CARTESIAN_POINT('',(0.246862921717603,-0.116472240753975,-0.035));
#551=CARTESIAN_POINT('',(0.135128950782926,-0.165209115537685,-0.035));
#552=CARTESIAN_POINT('',(0.175070208290117,-0.134604813630976,-0.029));
#553=CARTESIAN_POINT('',(0.213373872269135,-0.126306610304941,-0.029));
#554=CARTESIAN_POINT('',(0.213373872269135,-0.126306610304941,-0.0297925992530268));
#555=CARTESIAN_POINT('',(0.213070830639727,-0.126383901105269,-0.0313538262172621));
#556=CARTESIAN_POINT('',(0.211775578731548,-0.126712946827817,-0.0333531968306353));
#557=CARTESIAN_POINT('',(0.209847984529052,-0.127199185806902,-0.034684600401535));
#558=CARTESIAN_POINT('',(0.208309809330643,-0.127583473732279,-0.035));
#559=CARTESIAN_POINT('',(0.207551531308063,-0.127771969878802,-0.035));
#560=CARTESIAN_POINT('',(0.246862921717603,-0.116472240753975,-0.029));
#561=CARTESIAN_POINT('',(0.135128950782926,-0.165209115537685,-0.029));
#562=CARTESIAN_POINT('',(0.208292517372848,-0.143650636845691,0.02));
#563=CARTESIAN_POINT('',(0.208292517372848,-0.143650636845691,-0.0327));
#564=CARTESIAN_POINT('',(0.207305692020652,-0.12669294359942,-0.0327));
#565=CARTESIAN_POINT('',(0.194944177928894,-0.133145446766527,-0.0327));
#566=CARTESIAN_POINT('',(0.192709172988452,-0.136890713598515,-0.029));
#567=CARTESIAN_POINT('',(0.192709172988452,-0.136890713598515,-0.029531864216742));
#568=CARTESIAN_POINT('',(0.192830539059645,-0.136603695547666,-0.0305653874602935));
#569=CARTESIAN_POINT('',(0.193459004253177,-0.135300017902292,-0.0321443215970853));
#570=CARTESIAN_POINT('',(0.194288908871565,-0.133978059383571,-0.0327));
#571=CARTESIAN_POINT('',(0.194944177928894,-0.133145446766527,-0.0327));
#572=CARTESIAN_POINT('',(0.192709172988452,-0.136890713598515,-0.029));
#573=CARTESIAN_POINT('',(0.192709172988452,-0.136890713598515,0.0177));
#574=CARTESIAN_POINT('',(0.192709172988452,-0.136890713598515,0.0177));
#575=CARTESIAN_POINT('',(0.208292517372848,-0.143650636845691,0.0177));
#576=CARTESIAN_POINT('',(0.211153051222715,-0.126906846038227,0.0177));
#577=CARTESIAN_POINT('',(0.211153051222715,-0.126906846038227,0.0177));
#578=CARTESIAN_POINT('',(0.211153051222715,-0.126906846038227,-0.029));
#579=CARTESIAN_POINT('',(0.21106500855774,-0.126892042717899,-0.0297670264573873));
#580=CARTESIAN_POINT('',(0.211123106041662,-0.126901654190127,-0.0295164631953656));
#581=CARTESIAN_POINT('',(0.211153051222715,-0.126906846038227,-0.0292588248577083));
#582=CARTESIAN_POINT('',(0.211153051222715,-0.126906846038227,-0.029));
#583=CARTESIAN_POINT('',(0.211065008557741,-0.126892042717899,-0.0297670264573873));
#584=CARTESIAN_POINT('',(0.211065008557741,-0.126892042717899,-0.0297670264573873));
#585=CARTESIAN_POINT('',(0.2108749498998,-0.126860599987696,-0.0306129243961371));
#586=CARTESIAN_POINT('',(0.209867695789933,-0.126692985379592,-0.0321099242518389));
#587=CARTESIAN_POINT('',(0.208171294907197,-0.126642571248596,-0.0327));
#588=CARTESIAN_POINT('',(0.207305692020652,-0.12669294359942,-0.0327));
#589=CARTESIAN_POINT('',(0.246862921717603,-0.116472240753975,0.02));
#590=CARTESIAN_POINT('',(0.246862921717603,-0.116472240753975,0.0177));
#591=CARTESIAN_POINT('',(0.211142992920594,-0.126872362144442,0.0177));
#592=CARTESIAN_POINT('',(0.211142992920594,-0.126872362144439,0.02));
#593=CARTESIAN_POINT('',(0.211142992920594,-0.126872362144439,-0.029));
#594=CARTESIAN_POINT('',(0.246862921717603,-0.116472240753975,-0.029));
#595=CARTESIAN_POINT('',(0.175070208290117,-0.134604813630976,0.02));
#596=CARTESIAN_POINT('',(0.175070208290117,-0.134604813630976,0.0177));
#597=CARTESIAN_POINT('',(0.209061185517587,-0.120264309312439,0.0177));
#598=CARTESIAN_POINT('',(0.209061185517587,-0.120264309312439,0.0177));
#599=CARTESIAN_POINT('',(0.209061185517587,-0.120264309312439,-0.029));
#600=CARTESIAN_POINT('',(0.175070208290117,-0.134604813630976,-0.029));
#601=CARTESIAN_POINT('',(0.200640385735954,-0.129473319394543,0.02));
#602=CARTESIAN_POINT('',(0.200640385735954,-0.129473319394543,0.0177));
#603=CARTESIAN_POINT('',(0.188167549295053,-0.129093731758809,0.0177));
#604=CARTESIAN_POINT('',(0.188167549295053,-0.129093731758809,0.0177));
#605=CARTESIAN_POINT('',(0.188167549295053,-0.129093731758809,-0.029));
#606=CARTESIAN_POINT('',(0.189283075524548,-0.124303479898336,-0.0327));
#607=CARTESIAN_POINT('',(0.189048461145546,-0.124818890151272,-0.0327));
#608=CARTESIAN_POINT('',(0.188663380270195,-0.125851165765507,-0.0325061262563059));
#609=CARTESIAN_POINT('',(0.188316405877328,-0.127344636419517,-0.0317637487227366));
#610=CARTESIAN_POINT('',(0.188176651151241,-0.128622844469596,-0.0306414777445009));
#611=CARTESIAN_POINT('',(0.188167549295054,-0.129093731758809,-0.0295691450606991));
#612=CARTESIAN_POINT('',(0.188167549295054,-0.129093731758809,-0.029));
#613=CARTESIAN_POINT('',(0.189283075524548,-0.124303479898336,-0.0327));
#614=CARTESIAN_POINT('',(0.200640385735954,-0.129473319394543,-0.0327));
#615=CARTESIAN_POINT('',(0.203396262890972,-0.11730282734364,-0.0327));
#616=CARTESIAN_POINT('',(0.209061185517587,-0.120264309312439,-0.029));
#617=CARTESIAN_POINT('',(0.209061185517587,-0.120264309312439,-0.0293398570582071));
#618=CARTESIAN_POINT('',(0.208888369558186,-0.120103983956677,-0.0299884500239604));
#619=CARTESIAN_POINT('',(0.20818259175632,-0.119509472703416,-0.0309807533461163));
#620=CARTESIAN_POINT('',(0.207004161220326,-0.118686808172756,-0.0318463891541388));
#621=CARTESIAN_POINT('',(0.205299495049874,-0.117843489448422,-0.0325211681263468));
#622=CARTESIAN_POINT('',(0.204052350686568,-0.117451391375398,-0.0327));
#623=CARTESIAN_POINT('',(0.203396262890972,-0.11730282734364,-0.0327));
#624=CARTESIAN_POINT('',(0.135128950782926,-0.165209115537685,0.02));
#625=CARTESIAN_POINT('',(0.135128950782926,-0.165209115537685,0.0177));
#626=CARTESIAN_POINT('',(0.135128950782926,-0.165209115537685,-0.029));
#627=CARTESIAN_POINT('',(0.233402002858431,-0.141733597313975,0.0177));
#628=CARTESIAN_POINT('',(0.233402002858431,-0.141733597313975,-0.0327));
#629=CARTESIAN_POINT('',(0.175070208290117,-0.134604813630976,-0.0327));
#630=CARTESIAN_POINT('',(0.135128950782926,-0.165209115537685,-0.0327));
#631=CARTESIAN_POINT('',(0.175070208290117,-0.134604813630976,-0.029));
#632=CARTESIAN_POINT('',(0.21106500855774,-0.126892042717899,-0.0297670264573873));
#633=CARTESIAN_POINT('',(0.211116651480151,-0.126879011969919,-0.0295158470938583));
#634=CARTESIAN_POINT('',(0.211142992920594,-0.126872362144439,-0.0292602324670133));
#635=CARTESIAN_POINT('',(0.211142992920594,-0.126872362144439,-0.029));
#636=CARTESIAN_POINT('',(0.246862921717603,-0.116472240753975,-0.029));
#637=CARTESIAN_POINT('',(0.135128950782926,-0.165209115537685,-0.029));
#638=MECHANICAL_DESIGN_GEOMETRIC_PRESENTATION_REPRESENTATION('',(#319),
#639);
#639=(
GEOMETRIC_REPRESENTATION_CONTEXT(3)
GLOBAL_UNCERTAINTY_ASSIGNED_CONTEXT((#640))
GLOBAL_UNIT_ASSIGNED_CONTEXT((#643,#642,#641))
REPRESENTATION_CONTEXT('Tail_Part 2_Black','TOP_LEVEL_ASSEMBLY_PART')
);
#640=UNCERTAINTY_MEASURE_WITH_UNIT(LENGTH_MEASURE(2.E-5),#643,
'DISTANCE_ACCURACY_VALUE','Maximum Tolerance applied to model');
#641=(
NAMED_UNIT(*)
SI_UNIT($,.STERADIAN.)
SOLID_ANGLE_UNIT()
);
#642=(
NAMED_UNIT(*)
PLANE_ANGLE_UNIT()
SI_UNIT($,.RADIAN.)
);
#643=(
LENGTH_UNIT()
NAMED_UNIT(*)
SI_UNIT($,.METRE.)
);
#644=PRODUCT_DEFINITION_SHAPE('','',#645);
#645=PRODUCT_DEFINITION('','',#647,#646);
#646=PRODUCT_DEFINITION_CONTEXT('',#653,'design');
#647=PRODUCT_DEFINITION_FORMATION_WITH_SPECIFIED_SOURCE('','',#649,
 .NOT_KNOWN.);
#648=PRODUCT_RELATED_PRODUCT_CATEGORY('','',(#649));
#649=PRODUCT('Tail_Part 2_Black','Tail_Part 2_Black',
'Tail_Part 2_Black',(#651));
#650=PRODUCT_CATEGORY('','');
#651=PRODUCT_CONTEXT('',#653,'mechanical');
#652=APPLICATION_PROTOCOL_DEFINITION('international standard',
'ap242_managed_model_based_3d_engineering',2020,#653);
#653=APPLICATION_CONTEXT('managed model based 3d engineering');
ENDSEC;
END-ISO-10303-21;
