ISO-10303-21;
HEADER;
/* Generated by software containing ST-Developer
 * from STEP Tools, Inc. (www.steptools.com) 
 */
/* OPTION: using custom renumber hook */

FILE_DESCRIPTION(
/* description */ ('STEP AP242 Edition 2',
'CAx-IF Rec.Pracs.---Representation and Presentation of Product Manufa
cturing Information (PMI)---4.0---2014-10-13',
'CAx-IF Rec.Pracs.---3D Tessellated Geometry---0.4---2014-09-14','2;1',
'CAx-IF Rec.Pracs.---User Defined Attributes---1.5---2016-08-15'),
/* implementation_level */ '2;1');

FILE_NAME(
/* name */ 'Part Studio 1 - Tail_Part 3_Black',
/* time_stamp */ '2026-06-21T21:08:51Z',
/* author */ (''),
/* organization */ (''),
/* preprocessor_version */ 'ST-DEVELOPER v20',
/* originating_system */ 'ONSHAPE BY PTC INC, 1.216',
/* authorisation */ '  ');

FILE_SCHEMA (('AP242_MANAGED_MODEL_BASED_3D_ENGINEERING_MIM_LF { 1 0 10303 442 3 1 4 }'));
ENDSEC;

DATA;
#10=SHAPE_REPRESENTATION_RELATIONSHIP('','',#265,#11);
#11=ADVANCED_BREP_SHAPE_REPRESENTATION('',(#263),#534);
#12=ORIENTED_CLOSED_SHELL('',*,#254,.F.);
#13=TOROIDAL_SURFACE('',#283,0.0409031697332331,0.006);
#14=TOROIDAL_SURFACE('',#284,0.0580458897862317,0.006);
#15=TOROIDAL_SURFACE('',#301,0.0409031697332331,0.0037);
#16=TOROIDAL_SURFACE('',#302,0.0580458897862317,0.0037);
#17=PLANE('',#279);
#18=PLANE('',#280);
#19=PLANE('',#297);
#20=PLANE('',#298);
#21=LINE('',#398,#29);
#22=LINE('',#402,#30);
#23=LINE('',#429,#31);
#24=LINE('',#457,#32);
#25=LINE('',#481,#33);
#26=LINE('',#485,#34);
#27=LINE('',#495,#35);
#28=LINE('',#501,#36);
#29=VECTOR('',#309,1.);
#30=VECTOR('',#312,1.);
#31=VECTOR('',#317,1.);
#32=VECTOR('',#324,1.);
#33=VECTOR('',#349,1.);
#34=VECTOR('',#352,1.);
#35=VECTOR('',#357,1.);
#36=VECTOR('',#364,1.);
#37=B_SPLINE_CURVE_WITH_KNOTS('',3,(#390,#391,#392,#393,#394,#395,#396),
 .UNSPECIFIED.,.F.,.F.,(4,1,1,1,4),(0.,0.00251434963109472,0.00502869926218945,
0.00754304889328417,0.0100573985243789),.UNSPECIFIED.);
#38=B_SPLINE_CURVE_WITH_KNOTS('',3,(#404,#405,#406,#407,#408,#409,#410,
#411,#412,#413,#414,#415,#416,#417,#418,#419,#420,#421,#422,#423,#424,#425),
 .UNSPECIFIED.,.F.,.F.,(4,1,1,1,1,1,1,1,1,1,1,1,1,1,1,1,1,1,1,4),(0.,7.51663899516614E-5,
0.000150332779903323,0.000300665559806646,0.000450998339709968,0.000601331119613291,
0.000901996679419937,0.00120266223922658,0.00180399335883987,0.00240532447845316,
0.00300665559806646,0.00360798671767975,0.00481064895690633,0.00601331119613291,
0.00721597343535949,0.00962129791381266,0.0120266223922658,0.014431946870719,
0.0168372713491722,0.0192425958276253),.UNSPECIFIED.);
#39=B_SPLINE_CURVE_WITH_KNOTS('',3,(#433,#434,#435,#436,#437,#438,#439),
 .UNSPECIFIED.,.F.,.F.,(4,1,1,1,4),(0.,0.00252937831550429,0.00505875663100857,
0.00758813494651286,0.0101175132620171),.UNSPECIFIED.);
#40=B_SPLINE_CURVE_WITH_KNOTS('',3,(#443,#444,#445,#446,#447,#448,#449,
#450,#451,#452,#453,#454,#455),.UNSPECIFIED.,.F.,.F.,(4,1,1,1,1,1,1,1,1,
1,4),(0.,0.00394680036684509,0.00592020055026764,0.00789360073369019,0.00986700091711273,
0.0118404011005353,0.0128271011922466,0.0138138012839578,0.0148005013756691,
0.0152938514215247,0.0157872014673804),.UNSPECIFIED.);
#41=B_SPLINE_CURVE_WITH_KNOTS('',3,(#473,#474,#475,#476,#477,#478,#479),
 .UNSPECIFIED.,.F.,.F.,(4,1,1,1,4),(0.,0.0019120561960461,0.00382411239209219,
0.00573616858813829,0.00764822478418439),.UNSPECIFIED.);
#42=B_SPLINE_CURVE_WITH_KNOTS('',3,(#487,#488,#489,#490,#491),
 .UNSPECIFIED.,.F.,.F.,(4,1,4),(0.,0.00296147978478644,0.00592295956957287),
 .UNSPECIFIED.);
#43=B_SPLINE_CURVE_WITH_KNOTS('',3,(#503,#504,#505,#506,#507,#508,#509,
#510,#511,#512,#513,#514),.UNSPECIFIED.,.F.,.F.,(4,1,1,1,1,1,1,1,1,4),(0.,
0.00265044818213099,0.00397567227319648,0.00530089636426198,0.00662612045532747,
0.00795134454639297,0.00861395659192571,0.00927656863745846,0.00993918068299121,
0.010601792728524),.UNSPECIFIED.);
#44=B_SPLINE_CURVE_WITH_KNOTS('',3,(#518,#519,#520,#521,#522,#523),
 .UNSPECIFIED.,.F.,.F.,(4,1,1,4),(0.,0.00158590922720712,0.00317181845441423,
0.00634363690882846),.UNSPECIFIED.);
#45=ORIENTED_EDGE('',*,*,#117,.F.);
#46=ORIENTED_EDGE('',*,*,#118,.T.);
#47=ORIENTED_EDGE('',*,*,#119,.F.);
#48=ORIENTED_EDGE('',*,*,#120,.T.);
#49=ORIENTED_EDGE('',*,*,#121,.T.);
#50=ORIENTED_EDGE('',*,*,#122,.T.);
#51=ORIENTED_EDGE('',*,*,#119,.T.);
#52=ORIENTED_EDGE('',*,*,#123,.T.);
#53=ORIENTED_EDGE('',*,*,#124,.F.);
#54=ORIENTED_EDGE('',*,*,#125,.T.);
#55=ORIENTED_EDGE('',*,*,#124,.T.);
#56=ORIENTED_EDGE('',*,*,#126,.T.);
#57=ORIENTED_EDGE('',*,*,#127,.T.);
#58=ORIENTED_EDGE('',*,*,#128,.T.);
#59=ORIENTED_EDGE('',*,*,#129,.F.);
#60=ORIENTED_EDGE('',*,*,#130,.F.);
#61=ORIENTED_EDGE('',*,*,#129,.T.);
#62=ORIENTED_EDGE('',*,*,#131,.T.);
#63=ORIENTED_EDGE('',*,*,#121,.F.);
#64=ORIENTED_EDGE('',*,*,#132,.F.);
#65=ORIENTED_EDGE('',*,*,#120,.F.);
#66=ORIENTED_EDGE('',*,*,#125,.F.);
#67=ORIENTED_EDGE('',*,*,#130,.T.);
#68=ORIENTED_EDGE('',*,*,#132,.T.);
#69=ORIENTED_EDGE('',*,*,#127,.F.);
#70=ORIENTED_EDGE('',*,*,#133,.T.);
#71=ORIENTED_EDGE('',*,*,#117,.T.);
#72=ORIENTED_EDGE('',*,*,#134,.T.);
#73=ORIENTED_EDGE('',*,*,#126,.F.);
#74=ORIENTED_EDGE('',*,*,#123,.F.);
#75=ORIENTED_EDGE('',*,*,#118,.F.);
#76=ORIENTED_EDGE('',*,*,#133,.F.);
#77=ORIENTED_EDGE('',*,*,#128,.F.);
#78=ORIENTED_EDGE('',*,*,#134,.F.);
#79=ORIENTED_EDGE('',*,*,#122,.F.);
#80=ORIENTED_EDGE('',*,*,#131,.F.);
#81=ORIENTED_EDGE('',*,*,#135,.T.);
#82=ORIENTED_EDGE('',*,*,#136,.F.);
#83=ORIENTED_EDGE('',*,*,#137,.F.);
#84=ORIENTED_EDGE('',*,*,#138,.F.);
#85=ORIENTED_EDGE('',*,*,#139,.T.);
#86=ORIENTED_EDGE('',*,*,#140,.F.);
#87=ORIENTED_EDGE('',*,*,#139,.F.);
#88=ORIENTED_EDGE('',*,*,#141,.F.);
#89=ORIENTED_EDGE('',*,*,#142,.T.);
#90=ORIENTED_EDGE('',*,*,#143,.F.);
#91=ORIENTED_EDGE('',*,*,#142,.F.);
#92=ORIENTED_EDGE('',*,*,#144,.T.);
#93=ORIENTED_EDGE('',*,*,#145,.T.);
#94=ORIENTED_EDGE('',*,*,#146,.F.);
#95=ORIENTED_EDGE('',*,*,#147,.F.);
#96=ORIENTED_EDGE('',*,*,#148,.F.);
#97=ORIENTED_EDGE('',*,*,#145,.F.);
#98=ORIENTED_EDGE('',*,*,#149,.T.);
#99=ORIENTED_EDGE('',*,*,#137,.T.);
#100=ORIENTED_EDGE('',*,*,#150,.F.);
#101=ORIENTED_EDGE('',*,*,#138,.T.);
#102=ORIENTED_EDGE('',*,*,#149,.F.);
#103=ORIENTED_EDGE('',*,*,#144,.F.);
#104=ORIENTED_EDGE('',*,*,#141,.T.);
#105=ORIENTED_EDGE('',*,*,#147,.T.);
#106=ORIENTED_EDGE('',*,*,#151,.F.);
#107=ORIENTED_EDGE('',*,*,#135,.F.);
#108=ORIENTED_EDGE('',*,*,#152,.F.);
#109=ORIENTED_EDGE('',*,*,#148,.T.);
#110=ORIENTED_EDGE('',*,*,#152,.T.);
#111=ORIENTED_EDGE('',*,*,#140,.T.);
#112=ORIENTED_EDGE('',*,*,#143,.T.);
#113=ORIENTED_EDGE('',*,*,#146,.T.);
#114=ORIENTED_EDGE('',*,*,#150,.T.);
#115=ORIENTED_EDGE('',*,*,#136,.T.);
#116=ORIENTED_EDGE('',*,*,#151,.T.);
#117=EDGE_CURVE('',#153,#154,#177,.T.);
#118=EDGE_CURVE('',#153,#155,#37,.T.);
#119=EDGE_CURVE('',#156,#155,#21,.T.);
#120=EDGE_CURVE('',#156,#157,#178,.T.);
#121=EDGE_CURVE('',#157,#158,#22,.T.);
#122=EDGE_CURVE('',#158,#154,#38,.T.);
#123=EDGE_CURVE('',#155,#159,#179,.F.);
#124=EDGE_CURVE('',#160,#159,#23,.T.);
#125=EDGE_CURVE('',#160,#156,#180,.T.);
#126=EDGE_CURVE('',#159,#161,#39,.T.);
#127=EDGE_CURVE('',#161,#162,#181,.T.);
#128=EDGE_CURVE('',#162,#163,#40,.T.);
#129=EDGE_CURVE('',#164,#163,#24,.T.);
#130=EDGE_CURVE('',#160,#164,#182,.T.);
#131=EDGE_CURVE('',#163,#158,#183,.T.);
#132=EDGE_CURVE('',#164,#157,#184,.T.);
#133=EDGE_CURVE('',#161,#153,#185,.T.);
#134=EDGE_CURVE('',#154,#162,#186,.F.);
#135=EDGE_CURVE('',#165,#166,#187,.T.);
#136=EDGE_CURVE('',#167,#166,#41,.T.);
#137=EDGE_CURVE('',#168,#167,#25,.T.);
#138=EDGE_CURVE('',#169,#168,#188,.T.);
#139=EDGE_CURVE('',#169,#170,#26,.T.);
#140=EDGE_CURVE('',#165,#170,#42,.T.);
#141=EDGE_CURVE('',#171,#169,#189,.T.);
#142=EDGE_CURVE('',#171,#172,#27,.T.);
#143=EDGE_CURVE('',#170,#172,#190,.T.);
#144=EDGE_CURVE('',#171,#173,#191,.T.);
#145=EDGE_CURVE('',#173,#174,#28,.T.);
#146=EDGE_CURVE('',#175,#174,#43,.T.);
#147=EDGE_CURVE('',#176,#175,#192,.T.);
#148=EDGE_CURVE('',#172,#176,#44,.T.);
#149=EDGE_CURVE('',#173,#168,#193,.T.);
#150=EDGE_CURVE('',#174,#167,#194,.F.);
#151=EDGE_CURVE('',#166,#175,#195,.F.);
#152=EDGE_CURVE('',#176,#165,#196,.T.);
#153=VERTEX_POINT('',#388);
#154=VERTEX_POINT('',#389);
#155=VERTEX_POINT('',#397);
#156=VERTEX_POINT('',#399);
#157=VERTEX_POINT('',#401);
#158=VERTEX_POINT('',#403);
#159=VERTEX_POINT('',#428);
#160=VERTEX_POINT('',#430);
#161=VERTEX_POINT('',#440);
#162=VERTEX_POINT('',#442);
#163=VERTEX_POINT('',#456);
#164=VERTEX_POINT('',#458);
#165=VERTEX_POINT('',#471);
#166=VERTEX_POINT('',#472);
#167=VERTEX_POINT('',#480);
#168=VERTEX_POINT('',#482);
#169=VERTEX_POINT('',#484);
#170=VERTEX_POINT('',#486);
#171=VERTEX_POINT('',#494);
#172=VERTEX_POINT('',#496);
#173=VERTEX_POINT('',#500);
#174=VERTEX_POINT('',#502);
#175=VERTEX_POINT('',#515);
#176=VERTEX_POINT('',#517);
#177=CIRCLE('',#268,0.018468821248667);
#178=CIRCLE('',#269,0.018468821248667);
#179=CIRCLE('',#271,0.0349031697332331);
#180=CIRCLE('',#272,0.0349031697332331);
#181=CIRCLE('',#274,0.0165475059662871);
#182=CIRCLE('',#275,0.0165475059662871);
#183=CIRCLE('',#277,0.0640458897862316);
#184=CIRCLE('',#278,0.0640458897862316);
#185=CIRCLE('',#281,0.0409031697332331);
#186=CIRCLE('',#282,0.0580458897862317);
#187=CIRCLE('',#286,0.020768821248667);
#188=CIRCLE('',#287,0.020768821248667);
#189=CIRCLE('',#289,0.0372031697332331);
#190=CIRCLE('',#290,0.0372031697332331);
#191=CIRCLE('',#292,0.0142475059662871);
#192=CIRCLE('',#293,0.0142475059662871);
#193=CIRCLE('',#295,0.0617458897862317);
#194=CIRCLE('',#296,0.0617458897862317);
#195=CIRCLE('',#299,0.0580458897862316);
#196=CIRCLE('',#300,0.0409031697332331);
#197=EDGE_LOOP('',(#45,#46,#47,#48,#49,#50));
#198=EDGE_LOOP('',(#51,#52,#53,#54));
#199=EDGE_LOOP('',(#55,#56,#57,#58,#59,#60));
#200=EDGE_LOOP('',(#61,#62,#63,#64));
#201=EDGE_LOOP('',(#65,#66,#67,#68));
#202=EDGE_LOOP('',(#69,#70,#71,#72));
#203=EDGE_LOOP('',(#73,#74,#75,#76));
#204=EDGE_LOOP('',(#77,#78,#79,#80));
#205=EDGE_LOOP('',(#81,#82,#83,#84,#85,#86));
#206=EDGE_LOOP('',(#87,#88,#89,#90));
#207=EDGE_LOOP('',(#91,#92,#93,#94,#95,#96));
#208=EDGE_LOOP('',(#97,#98,#99,#100));
#209=EDGE_LOOP('',(#101,#102,#103,#104));
#210=EDGE_LOOP('',(#105,#106,#107,#108));
#211=EDGE_LOOP('',(#109,#110,#111,#112));
#212=EDGE_LOOP('',(#113,#114,#115,#116));
#213=FACE_BOUND('',#197,.T.);
#214=FACE_BOUND('',#198,.T.);
#215=FACE_BOUND('',#199,.T.);
#216=FACE_BOUND('',#200,.T.);
#217=FACE_BOUND('',#201,.T.);
#218=FACE_BOUND('',#202,.T.);
#219=FACE_BOUND('',#203,.T.);
#220=FACE_BOUND('',#204,.T.);
#221=FACE_BOUND('',#205,.T.);
#222=FACE_BOUND('',#206,.T.);
#223=FACE_BOUND('',#207,.T.);
#224=FACE_BOUND('',#208,.T.);
#225=FACE_BOUND('',#209,.T.);
#226=FACE_BOUND('',#210,.T.);
#227=FACE_BOUND('',#211,.T.);
#228=FACE_BOUND('',#212,.T.);
#229=CYLINDRICAL_SURFACE('',#267,0.018468821248667);
#230=CYLINDRICAL_SURFACE('',#270,0.0349031697332331);
#231=CYLINDRICAL_SURFACE('',#273,0.0165475059662871);
#232=CYLINDRICAL_SURFACE('',#276,0.0640458897862316);
#233=CYLINDRICAL_SURFACE('',#285,0.020768821248667);
#234=CYLINDRICAL_SURFACE('',#288,0.0372031697332331);
#235=CYLINDRICAL_SURFACE('',#291,0.0142475059662871);
#236=CYLINDRICAL_SURFACE('',#294,0.0617458897862317);
#237=ADVANCED_FACE('Face appearance 4',(#213),#229,.F.);
#238=ADVANCED_FACE('Face appearance 4',(#214),#230,.F.);
#239=ADVANCED_FACE('Face appearance 4',(#215),#231,.T.);
#240=ADVANCED_FACE('Face appearance 4',(#216),#232,.T.);
#241=ADVANCED_FACE('Face appearance 4',(#217),#17,.T.);
#242=ADVANCED_FACE('Face appearance 4',(#218),#18,.F.);
#243=ADVANCED_FACE('',(#219),#13,.T.);
#244=ADVANCED_FACE('',(#220),#14,.T.);
#245=ADVANCED_FACE('',(#221),#233,.T.);
#246=ADVANCED_FACE('',(#222),#234,.T.);
#247=ADVANCED_FACE('',(#223),#235,.F.);
#248=ADVANCED_FACE('',(#224),#236,.F.);
#249=ADVANCED_FACE('',(#225),#19,.F.);
#250=ADVANCED_FACE('',(#226),#20,.T.);
#251=ADVANCED_FACE('',(#227),#15,.F.);
#252=ADVANCED_FACE('',(#228),#16,.F.);
#253=CLOSED_SHELL('',(#237,#238,#239,#240,#241,#242,#243,#244));
#254=CLOSED_SHELL('',(#245,#246,#247,#248,#249,#250,#251,#252));
#255=STYLED_ITEM('',(#256),#263);
#256=PRESENTATION_STYLE_ASSIGNMENT((#257));
#257=SURFACE_STYLE_USAGE(.BOTH.,#258);
#258=SURFACE_SIDE_STYLE('',(#259));
#259=SURFACE_STYLE_FILL_AREA(#260);
#260=FILL_AREA_STYLE('',(#261));
#261=FILL_AREA_STYLE_COLOUR('',#262);
#262=DRAUGHTING_PRE_DEFINED_COLOUR('black');
#263=BREP_WITH_VOIDS('Tail_Part 3_Black',#253,(#12));
#264=SHAPE_DEFINITION_REPRESENTATION(#539,#265);
#265=SHAPE_REPRESENTATION('Tail_Part 3_Black',(#266),#534);
#266=AXIS2_PLACEMENT_3D('',#385,#303,#304);
#267=AXIS2_PLACEMENT_3D('',#386,#305,#306);
#268=AXIS2_PLACEMENT_3D('',#387,#307,#308);
#269=AXIS2_PLACEMENT_3D('',#400,#310,#311);
#270=AXIS2_PLACEMENT_3D('',#426,#313,#314);
#271=AXIS2_PLACEMENT_3D('',#427,#315,#316);
#272=AXIS2_PLACEMENT_3D('',#431,#318,#319);
#273=AXIS2_PLACEMENT_3D('',#432,#320,#321);
#274=AXIS2_PLACEMENT_3D('',#441,#322,#323);
#275=AXIS2_PLACEMENT_3D('',#459,#325,#326);
#276=AXIS2_PLACEMENT_3D('',#460,#327,#328);
#277=AXIS2_PLACEMENT_3D('',#461,#329,#330);
#278=AXIS2_PLACEMENT_3D('',#462,#331,#332);
#279=AXIS2_PLACEMENT_3D('',#463,#333,#334);
#280=AXIS2_PLACEMENT_3D('',#464,#335,#336);
#281=AXIS2_PLACEMENT_3D('',#465,#337,#338);
#282=AXIS2_PLACEMENT_3D('',#466,#339,#340);
#283=AXIS2_PLACEMENT_3D('',#467,#341,#342);
#284=AXIS2_PLACEMENT_3D('',#468,#343,#344);
#285=AXIS2_PLACEMENT_3D('',#469,#345,#346);
#286=AXIS2_PLACEMENT_3D('',#470,#347,#348);
#287=AXIS2_PLACEMENT_3D('',#483,#350,#351);
#288=AXIS2_PLACEMENT_3D('',#492,#353,#354);
#289=AXIS2_PLACEMENT_3D('',#493,#355,#356);
#290=AXIS2_PLACEMENT_3D('',#497,#358,#359);
#291=AXIS2_PLACEMENT_3D('',#498,#360,#361);
#292=AXIS2_PLACEMENT_3D('',#499,#362,#363);
#293=AXIS2_PLACEMENT_3D('',#516,#365,#366);
#294=AXIS2_PLACEMENT_3D('',#524,#367,#368);
#295=AXIS2_PLACEMENT_3D('',#525,#369,#370);
#296=AXIS2_PLACEMENT_3D('',#526,#371,#372);
#297=AXIS2_PLACEMENT_3D('',#527,#373,#374);
#298=AXIS2_PLACEMENT_3D('',#528,#375,#376);
#299=AXIS2_PLACEMENT_3D('',#529,#377,#378);
#300=AXIS2_PLACEMENT_3D('',#530,#379,#380);
#301=AXIS2_PLACEMENT_3D('',#531,#381,#382);
#302=AXIS2_PLACEMENT_3D('',#532,#383,#384);
#303=DIRECTION('',(0.,0.,1.));
#304=DIRECTION('',(1.,0.,0.));
#305=DIRECTION('',(0.,0.,-1.));
#306=DIRECTION('',(-1.,0.,0.));
#307=DIRECTION('',(0.,0.,1.));
#308=DIRECTION('',(1.,0.,0.));
#309=DIRECTION('',(0.,0.,-1.));
#310=DIRECTION('',(0.,0.,1.));
#311=DIRECTION('',(1.,0.,0.));
#312=DIRECTION('',(0.,0.,-1.));
#313=DIRECTION('',(0.,0.,-1.));
#314=DIRECTION('',(-1.,0.,0.));
#315=DIRECTION('',(0.,0.,1.));
#316=DIRECTION('',(1.,0.,0.));
#317=DIRECTION('',(0.,0.,-1.));
#318=DIRECTION('',(0.,0.,1.));
#319=DIRECTION('',(1.,0.,0.));
#320=DIRECTION('',(0.,0.,-1.));
#321=DIRECTION('',(-1.,0.,0.));
#322=DIRECTION('',(0.,0.,1.));
#323=DIRECTION('',(1.,0.,0.));
#324=DIRECTION('',(0.,0.,-1.));
#325=DIRECTION('',(0.,0.,1.));
#326=DIRECTION('',(1.,0.,0.));
#327=DIRECTION('',(0.,0.,-1.));
#328=DIRECTION('',(-1.,0.,0.));
#329=DIRECTION('',(0.,0.,1.));
#330=DIRECTION('',(1.,0.,0.));
#331=DIRECTION('',(0.,0.,1.));
#332=DIRECTION('',(1.,0.,0.));
#333=DIRECTION('',(0.,0.,1.));
#334=DIRECTION('',(1.,0.,0.));
#335=DIRECTION('',(0.,0.,1.));
#336=DIRECTION('',(1.,0.,0.));
#337=DIRECTION('',(0.,0.,1.));
#338=DIRECTION('',(1.,0.,0.));
#339=DIRECTION('',(0.,0.,1.));
#340=DIRECTION('',(1.,0.,0.));
#341=DIRECTION('',(0.,0.,1.));
#342=DIRECTION('',(1.,0.,0.));
#343=DIRECTION('',(0.,0.,1.));
#344=DIRECTION('',(1.,0.,0.));
#345=DIRECTION('',(0.,0.,-1.));
#346=DIRECTION('',(-1.,0.,0.));
#347=DIRECTION('',(0.,0.,1.));
#348=DIRECTION('',(1.,0.,0.));
#349=DIRECTION('',(0.,0.,-1.));
#350=DIRECTION('',(0.,0.,1.));
#351=DIRECTION('',(1.,0.,0.));
#352=DIRECTION('',(0.,0.,-1.));
#353=DIRECTION('',(0.,0.,-1.));
#354=DIRECTION('',(-1.,0.,0.));
#355=DIRECTION('',(0.,0.,1.));
#356=DIRECTION('',(1.,0.,0.));
#357=DIRECTION('',(0.,0.,-1.));
#358=DIRECTION('',(0.,0.,-1.));
#359=DIRECTION('',(-1.,0.,0.));
#360=DIRECTION('',(0.,0.,-1.));
#361=DIRECTION('',(-1.,0.,0.));
#362=DIRECTION('',(0.,0.,1.));
#363=DIRECTION('',(1.,0.,0.));
#364=DIRECTION('',(0.,0.,-1.));
#365=DIRECTION('',(0.,0.,1.));
#366=DIRECTION('',(1.,0.,0.));
#367=DIRECTION('',(0.,0.,-1.));
#368=DIRECTION('',(-1.,0.,0.));
#369=DIRECTION('',(0.,0.,1.));
#370=DIRECTION('',(1.,0.,0.));
#371=DIRECTION('',(0.,0.,-1.));
#372=DIRECTION('',(-1.,0.,0.));
#373=DIRECTION('',(0.,0.,1.));
#374=DIRECTION('',(1.,0.,0.));
#375=DIRECTION('',(0.,0.,1.));
#376=DIRECTION('',(1.,0.,0.));
#377=DIRECTION('',(0.,0.,1.));
#378=DIRECTION('',(1.,0.,0.));
#379=DIRECTION('',(0.,0.,1.));
#380=DIRECTION('',(1.,0.,0.));
#381=DIRECTION('',(0.,0.,1.));
#382=DIRECTION('',(1.,0.,0.));
#383=DIRECTION('',(0.,0.,1.));
#384=DIRECTION('',(1.,0.,0.));
#385=CARTESIAN_POINT('',(0.,0.,0.));
#386=CARTESIAN_POINT('',(0.236278513633911,-0.164921601333576,0.02));
#387=CARTESIAN_POINT('',(0.236278513633911,-0.164921601333576,-0.035));
#388=CARTESIAN_POINT('',(0.224483306802976,-0.15070997038809,-0.035));
#389=CARTESIAN_POINT('',(0.218211000788986,-0.168750744568517,-0.035));
#390=CARTESIAN_POINT('',(0.224483306802976,-0.15070997038809,-0.035));
#391=CARTESIAN_POINT('',(0.225138449990967,-0.150166222141611,-0.035));
#392=CARTESIAN_POINT('',(0.226498079411789,-0.149194217587109,-0.034672857225965));
#393=CARTESIAN_POINT('',(0.228467625445602,-0.14814494799166,-0.0334010010461008));
#394=CARTESIAN_POINT('',(0.230079403424365,-0.147508483817846,-0.0315109286085538));
#395=CARTESIAN_POINT('',(0.230591011914929,-0.147350326977065,-0.0298541781476125));
#396=CARTESIAN_POINT('',(0.230591011914929,-0.147350326977065,-0.029));
#397=CARTESIAN_POINT('',(0.230591011914929,-0.147350326977065,-0.029));
#398=CARTESIAN_POINT('',(0.230591011914929,-0.147350326977065,0.02));
#399=CARTESIAN_POINT('',(0.230591011914929,-0.147350326977065,0.02));
#400=CARTESIAN_POINT('',(0.236278513633911,-0.164921601333576,0.02));
#401=CARTESIAN_POINT('',(0.22919020037592,-0.181976019338064,0.02));
#402=CARTESIAN_POINT('',(0.22919020037592,-0.181976019338064,0.02));
#403=CARTESIAN_POINT('',(0.22919020037592,-0.181976019338064,-0.029));
#404=CARTESIAN_POINT('',(0.22919020037592,-0.181976019338064,-0.029));
#405=CARTESIAN_POINT('',(0.22919020037592,-0.181976019338064,-0.0290254882916429));
#406=CARTESIAN_POINT('',(0.229131460684774,-0.181951555130488,-0.0290428907801288));
#407=CARTESIAN_POINT('',(0.22905877011329,-0.181920866715577,-0.0290912375194531));
#408=CARTESIAN_POINT('',(0.228951447910508,-0.181875012358605,-0.0291440636817766));
#409=CARTESIAN_POINT('',(0.228829724078546,-0.181821857413709,-0.0292096828842256));
#410=CARTESIAN_POINT('',(0.228665462137882,-0.181748754682822,-0.029295982141081));
#411=CARTESIAN_POINT('',(0.228461894209695,-0.181655454346129,-0.0294039295141526));
#412=CARTESIAN_POINT('',(0.228137877117222,-0.181501222802458,-0.0295761569479757));
#413=CARTESIAN_POINT('',(0.227736756070341,-0.181299403623128,-0.0297911738659203));
#414=CARTESIAN_POINT('',(0.22726331258829,-0.18104363264714,-0.030047558702326));
#415=CARTESIAN_POINT('',(0.226797994330562,-0.18077446846563,-0.0303021121083456));
#416=CARTESIAN_POINT('',(0.226188225305302,-0.180397658925401,-0.0306389302822702));
#417=CARTESIAN_POINT('',(0.225445846749922,-0.179892856844443,-0.03105478635974));
#418=CARTESIAN_POINT('',(0.224587009058235,-0.179232528190045,-0.0315440135370877));
#419=CARTESIAN_POINT('',(0.223483170807679,-0.178274941774692,-0.0321821851449109));
#420=CARTESIAN_POINT('',(0.222217240673718,-0.176962009156344,-0.0329279854293745));
#421=CARTESIAN_POINT('',(0.220877332518022,-0.175198280944411,-0.0337245471567619));
#422=CARTESIAN_POINT('',(0.219717436702902,-0.173204692837793,-0.0343974348805076));
#423=CARTESIAN_POINT('',(0.21881110207484,-0.171071993493709,-0.0348660020698441));
#424=CARTESIAN_POINT('',(0.218377004335699,-0.16953401931916,-0.035));
#425=CARTESIAN_POINT('',(0.218211000788986,-0.168750744568517,-0.035));
#426=CARTESIAN_POINT('',(0.246862921717603,-0.116472240753975,0.02));
#427=CARTESIAN_POINT('',(0.246862921717603,-0.116472240753975,-0.029));
#428=CARTESIAN_POINT('',(0.221435777778191,-0.140382314122983,-0.029));
#429=CARTESIAN_POINT('',(0.221435777778191,-0.140382314122983,0.02));
#430=CARTESIAN_POINT('',(0.221435777778191,-0.140382314122983,0.02));
#431=CARTESIAN_POINT('',(0.246862921717603,-0.116472240753975,0.02));
#432=CARTESIAN_POINT('',(0.22036333074897,-0.156895030770277,0.02));
#433=CARTESIAN_POINT('',(0.221435777778191,-0.140382314122983,-0.029));
#434=CARTESIAN_POINT('',(0.221435777778191,-0.140382314122983,-0.0298596419624131));
#435=CARTESIAN_POINT('',(0.220872543354691,-0.140337323558216,-0.0315092536917809));
#436=CARTESIAN_POINT('',(0.21909899450526,-0.140353822306841,-0.0333922644656879));
#437=CARTESIAN_POINT('',(0.21688610496824,-0.140657418441284,-0.034662991711648));
#438=CARTESIAN_POINT('',(0.215261143901026,-0.141130477774758,-0.035));
#439=CARTESIAN_POINT('',(0.214461038149776,-0.141435959136515,-0.035));
#440=CARTESIAN_POINT('',(0.214461038149776,-0.141435959136515,-0.035));
#441=CARTESIAN_POINT('',(0.22036333074897,-0.156895030770277,-0.035));
#442=CARTESIAN_POINT('',(0.204230743449257,-0.153212697173026,-0.035));
#443=CARTESIAN_POINT('',(0.204230743449257,-0.153212697173026,-0.035));
#444=CARTESIAN_POINT('',(0.203933577983821,-0.154514601980673,-0.035));
#445=CARTESIAN_POINT('',(0.203734648387941,-0.156475824190138,-0.0346865757171055));
#446=CARTESIAN_POINT('',(0.203915724975769,-0.159006017602194,-0.0339271490838742));
#447=CARTESIAN_POINT('',(0.204251886167554,-0.160814218986871,-0.0332322196817975));
#448=CARTESIAN_POINT('',(0.204781838615304,-0.162561855431025,-0.0324208034247647));
#449=CARTESIAN_POINT('',(0.205356449287555,-0.163908722744207,-0.0316784205083762));
#450=CARTESIAN_POINT('',(0.205885380240914,-0.164922970961576,-0.031028084947604));
#451=CARTESIAN_POINT('',(0.206309440400052,-0.165643695021801,-0.0304990785699057));
#452=CARTESIAN_POINT('',(0.2066785598293,-0.166203542993761,-0.0299901931278481));
#453=CARTESIAN_POINT('',(0.206933054374617,-0.166563100786221,-0.0294940514712226));
#454=CARTESIAN_POINT('',(0.207007428264765,-0.166664361481062,-0.0291695909231468));
#455=CARTESIAN_POINT('',(0.207007428264765,-0.166664361481062,-0.029));
#456=CARTESIAN_POINT('',(0.207007428264765,-0.166664361481062,-0.029));
#457=CARTESIAN_POINT('',(0.207007428264765,-0.166664361481062,0.02));
#458=CARTESIAN_POINT('',(0.207007428264765,-0.166664361481062,0.02));
#459=CARTESIAN_POINT('',(0.22036333074897,-0.156895030770277,0.02));
#460=CARTESIAN_POINT('',(0.253666400054587,-0.122791632479703,0.02));
#461=CARTESIAN_POINT('',(0.253666400054587,-0.122791632479703,-0.029));
#462=CARTESIAN_POINT('',(0.253666400054587,-0.122791632479703,0.02));
#463=CARTESIAN_POINT('',(0.233402002858431,-0.141733597313975,0.02));
#464=CARTESIAN_POINT('',(0.233402002858431,-0.141733597313975,-0.035));
#465=CARTESIAN_POINT('',(0.246862921717603,-0.116472240753975,-0.035));
#466=CARTESIAN_POINT('',(0.253666400054587,-0.122791632479703,-0.035));
#467=CARTESIAN_POINT('',(0.246862921717603,-0.116472240753975,-0.029));
#468=CARTESIAN_POINT('',(0.253666400054587,-0.122791632479703,-0.029));
#469=CARTESIAN_POINT('',(0.236278513633911,-0.164921601333576,0.02));
#470=CARTESIAN_POINT('',(0.236278513633911,-0.164921601333576,-0.0327));
#471=CARTESIAN_POINT('',(0.222532724642707,-0.149352490213528,-0.0327));
#472=CARTESIAN_POINT('',(0.215577023310012,-0.166592599367264,-0.0327));
#473=CARTESIAN_POINT('',(0.216902842090103,-0.172400056273304,-0.029));
#474=CARTESIAN_POINT('',(0.216902842090102,-0.172400056273303,-0.0296474430981087));
#475=CARTESIAN_POINT('',(0.216659116640152,-0.171780399503291,-0.0308274993604861));
#476=CARTESIAN_POINT('',(0.216178290386847,-0.170245517560014,-0.031894504381977));
#477=CARTESIAN_POINT('',(0.215789016323542,-0.168481060514298,-0.0325433089358428));
#478=CARTESIAN_POINT('',(0.215628535487781,-0.167230768191017,-0.0327));
#479=CARTESIAN_POINT('',(0.215577023310012,-0.166592599367264,-0.0327));
#480=CARTESIAN_POINT('',(0.216902842090103,-0.172400056273304,-0.029));
#481=CARTESIAN_POINT('',(0.216902842090103,-0.172400056273304,0.0177));
#482=CARTESIAN_POINT('',(0.216902842090103,-0.172400056273304,0.0177));
#483=CARTESIAN_POINT('',(0.236278513633911,-0.164921601333576,0.0177));
#484=CARTESIAN_POINT('',(0.22568366065672,-0.147058426183262,0.0177));
#485=CARTESIAN_POINT('',(0.22568366065672,-0.147058426183262,0.0177));
#486=CARTESIAN_POINT('',(0.22568366065672,-0.147058426183262,-0.029));
#487=CARTESIAN_POINT('',(0.222532724642707,-0.149352490213528,-0.0327));
#488=CARTESIAN_POINT('',(0.223283732902455,-0.148689433665885,-0.0327));
#489=CARTESIAN_POINT('',(0.224863512210528,-0.147521049569936,-0.0319198242127396));
#490=CARTESIAN_POINT('',(0.22568366065672,-0.147058426183262,-0.0300031418602539));
#491=CARTESIAN_POINT('',(0.22568366065672,-0.147058426183262,-0.029));
#492=CARTESIAN_POINT('',(0.246862921717603,-0.116472240753975,0.02));
#493=CARTESIAN_POINT('',(0.246862921717603,-0.116472240753975,0.0177));
#494=CARTESIAN_POINT('',(0.220425766399386,-0.142647661607904,0.0177));
#495=CARTESIAN_POINT('',(0.220425766399386,-0.142647661607904,0.0177));
#496=CARTESIAN_POINT('',(0.220425766399386,-0.142647661607904,-0.029));
#497=CARTESIAN_POINT('',(0.246862921717603,-0.116472240753975,-0.029));
#498=CARTESIAN_POINT('',(0.22036333074897,-0.156895030770277,0.02));
#499=CARTESIAN_POINT('',(0.22036333074897,-0.156895030770277,0.0177));
#500=CARTESIAN_POINT('',(0.208783020141525,-0.165194900196628,0.0177));
#501=CARTESIAN_POINT('',(0.208783020141525,-0.165194900196628,0.0177));
#502=CARTESIAN_POINT('',(0.208783020141526,-0.165194900196629,-0.029));
#503=CARTESIAN_POINT('',(0.206137305879212,-0.156112954901594,-0.0327));
#504=CARTESIAN_POINT('',(0.206088124759396,-0.15700756354716,-0.0327));
#505=CARTESIAN_POINT('',(0.206140908343007,-0.158321802967666,-0.0325236348756341));
#506=CARTESIAN_POINT('',(0.206444885713297,-0.160027852033608,-0.0320795097489991));
#507=CARTESIAN_POINT('',(0.206775074738727,-0.161237966223342,-0.0316694183001589));
#508=CARTESIAN_POINT('',(0.207201121347533,-0.162395224083961,-0.0311917298309603));
#509=CARTESIAN_POINT('',(0.207634046561191,-0.163316556858979,-0.0307345269244407));
#510=CARTESIAN_POINT('',(0.208015423534049,-0.164010945959323,-0.0303269836467813));
#511=CARTESIAN_POINT('',(0.208314840269089,-0.164506201964426,-0.0299869158340084));
#512=CARTESIAN_POINT('',(0.208611006780515,-0.164955051021135,-0.0296019017508917));
#513=CARTESIAN_POINT('',(0.208783020141526,-0.165194900196629,-0.0292256623525129));
#514=CARTESIAN_POINT('',(0.208783020141526,-0.165194900196629,-0.029));
#515=CARTESIAN_POINT('',(0.206137305879212,-0.156112954901594,-0.0327));
#516=CARTESIAN_POINT('',(0.22036333074897,-0.156895030770277,-0.0327));
#517=CARTESIAN_POINT('',(0.216011438652083,-0.143328437187641,-0.0327));
#518=CARTESIAN_POINT('',(0.220425766399386,-0.142647661607904,-0.029));
#519=CARTESIAN_POINT('',(0.220425766399386,-0.142647661607904,-0.0295384400811704));
#520=CARTESIAN_POINT('',(0.22007934404615,-0.142642451711096,-0.0305767619133904));
#521=CARTESIAN_POINT('',(0.218578149316588,-0.142714245147531,-0.0321315843343223));
#522=CARTESIAN_POINT('',(0.217032261552413,-0.143000977602063,-0.0327));
#523=CARTESIAN_POINT('',(0.216011438652083,-0.143328437187641,-0.0327));
#524=CARTESIAN_POINT('',(0.253666400054587,-0.122791632479703,0.02));
#525=CARTESIAN_POINT('',(0.253666400054587,-0.122791632479703,0.0177));
#526=CARTESIAN_POINT('',(0.253666400054587,-0.122791632479703,-0.029));
#527=CARTESIAN_POINT('',(0.233402002858431,-0.141733597313975,0.0177));
#528=CARTESIAN_POINT('',(0.233402002858431,-0.141733597313975,-0.0327));
#529=CARTESIAN_POINT('',(0.253666400054587,-0.122791632479703,-0.0327));
#530=CARTESIAN_POINT('',(0.246862921717603,-0.116472240753975,-0.0327));
#531=CARTESIAN_POINT('',(0.246862921717603,-0.116472240753975,-0.029));
#532=CARTESIAN_POINT('',(0.253666400054587,-0.122791632479703,-0.029));
#533=MECHANICAL_DESIGN_GEOMETRIC_PRESENTATION_REPRESENTATION('',(#255),
#534);
#534=(
GEOMETRIC_REPRESENTATION_CONTEXT(3)
GLOBAL_UNCERTAINTY_ASSIGNED_CONTEXT((#535))
GLOBAL_UNIT_ASSIGNED_CONTEXT((#538,#537,#536))
REPRESENTATION_CONTEXT('Tail_Part 3_Black','TOP_LEVEL_ASSEMBLY_PART')
);
#535=UNCERTAINTY_MEASURE_WITH_UNIT(LENGTH_MEASURE(2.E-5),#538,
'DISTANCE_ACCURACY_VALUE','Maximum Tolerance applied to model');
#536=(
NAMED_UNIT(*)
SI_UNIT($,.STERADIAN.)
SOLID_ANGLE_UNIT()
);
#537=(
NAMED_UNIT(*)
PLANE_ANGLE_UNIT()
SI_UNIT($,.RADIAN.)
);
#538=(
LENGTH_UNIT()
NAMED_UNIT(*)
SI_UNIT($,.METRE.)
);
#539=PRODUCT_DEFINITION_SHAPE('','',#540);
#540=PRODUCT_DEFINITION('','',#542,#541);
#541=PRODUCT_DEFINITION_CONTEXT('',#548,'design');
#542=PRODUCT_DEFINITION_FORMATION_WITH_SPECIFIED_SOURCE('','',#544,
 .NOT_KNOWN.);
#543=PRODUCT_RELATED_PRODUCT_CATEGORY('','',(#544));
#544=PRODUCT('Tail_Part 3_Black','Tail_Part 3_Black',
'Tail_Part 3_Black',(#546));
#545=PRODUCT_CATEGORY('','');
#546=PRODUCT_CONTEXT('',#548,'mechanical');
#547=APPLICATION_PROTOCOL_DEFINITION('international standard',
'ap242_managed_model_based_3d_engineering',2020,#548);
#548=APPLICATION_CONTEXT('managed model based 3d engineering');
ENDSEC;
END-ISO-10303-21;
