ISO-10303-21;
HEADER;
/* Generated by software containing ST-Developer
 * from STEP Tools, Inc. (www.steptools.com) 
 */
/* OPTION: using custom renumber hook */

FILE_DESCRIPTION(
/* description */ ('STEP AP242 Edition 2',
'CAx-IF Rec.Pracs.---Representation and Presentation of Product Manufa
cturing Information (PMI)---4.0---2014-10-13',
'CAx-IF Rec.Pracs.---3D Tessellated Geometry---0.4---2014-09-14','2;1',
'CAx-IF Rec.Pracs.---User Defined Attributes---1.5---2016-08-15'),
/* implementation_level */ '2;1');

FILE_NAME(
/* name */ 'Part Studio 1 - Face_Eyes_Left_Black',
/* time_stamp */ '2026-06-21T21:08:50Z',
/* author */ (''),
/* organization */ (''),
/* preprocessor_version */ 'ST-DEVELOPER v20',
/* originating_system */ 'ONSHAPE BY PTC INC, 1.216',
/* authorisation */ '  ');

FILE_SCHEMA (('AP242_MANAGED_MODEL_BASED_3D_ENGINEERING_MIM_LF { 1 0 10303 442 3 1 4 }'));
ENDSEC;

DATA;
#10=SHAPE_REPRESENTATION_RELATIONSHIP('','',#98,#11);
#11=ADVANCED_BREP_SHAPE_REPRESENTATION('',(#96),#186);
#12=PLANE('',#100);
#13=PLANE('',#101);
#14=B_SPLINE_CURVE_WITH_KNOTS('',3,(#150,#151,#152,#153,#154,#155,#156),
 .UNSPECIFIED.,.F.,.F.,(4,1,1,1,4),(0.267580971156566,0.435505535912783,
0.641005983520502,0.837121052876442,1.),.UNSPECIFIED.);
#15=B_SPLINE_CURVE_WITH_KNOTS('',3,(#160,#161,#162,#163,#164,#165,#166),
 .UNSPECIFIED.,.F.,.F.,(4,1,1,1,4),(0.267580971156566,0.435505535912783,
0.641005983520502,0.837121052876442,1.),.UNSPECIFIED.);
#16=B_SPLINE_CURVE_WITH_KNOTS('',3,(#175,#176,#177,#178),.UNSPECIFIED.,
 .F.,.F.,(4,4),(0.,0.267580971156566),.UNSPECIFIED.);
#17=B_SPLINE_CURVE_WITH_KNOTS('',3,(#179,#180,#181,#182),.UNSPECIFIED.,
 .F.,.F.,(4,4),(0.,0.267580971156566),.PIECEWISE_BEZIER_KNOTS.);
#18=ORIENTED_EDGE('',*,*,#30,.F.);
#19=ORIENTED_EDGE('',*,*,#31,.F.);
#20=ORIENTED_EDGE('',*,*,#32,.T.);
#21=ORIENTED_EDGE('',*,*,#33,.T.);
#22=ORIENTED_EDGE('',*,*,#34,.F.);
#23=ORIENTED_EDGE('',*,*,#30,.T.);
#24=ORIENTED_EDGE('',*,*,#35,.T.);
#25=ORIENTED_EDGE('',*,*,#32,.F.);
#26=ORIENTED_EDGE('',*,*,#33,.F.);
#27=ORIENTED_EDGE('',*,*,#35,.F.);
#28=ORIENTED_EDGE('',*,*,#31,.T.);
#29=ORIENTED_EDGE('',*,*,#34,.T.);
#30=EDGE_CURVE('',#36,#37,#40,.T.);
#31=EDGE_CURVE('',#38,#36,#14,.T.);
#32=EDGE_CURVE('',#38,#39,#41,.T.);
#33=EDGE_CURVE('',#39,#37,#15,.T.);
#34=EDGE_CURVE('',#36,#38,#16,.T.);
#35=EDGE_CURVE('',#37,#39,#17,.T.);
#36=VERTEX_POINT('',#148);
#37=VERTEX_POINT('',#149);
#38=VERTEX_POINT('',#157);
#39=VERTEX_POINT('',#159);
#40=LINE('',#147,#42);
#41=LINE('',#158,#43);
#42=VECTOR('',#104,1.);
#43=VECTOR('',#105,1.);
#44=EDGE_LOOP('',(#18,#19,#20,#21));
#45=EDGE_LOOP('',(#22,#23,#24,#25));
#46=EDGE_LOOP('',(#26,#27));
#47=EDGE_LOOP('',(#28,#29));
#48=FACE_BOUND('',#44,.T.);
#49=FACE_BOUND('',#45,.T.);
#50=FACE_BOUND('',#46,.T.);
#51=FACE_BOUND('',#47,.T.);
#52=B_SPLINE_SURFACE_WITH_KNOTS('',3,1,((#111,#112),(#113,#114),(#115,#116),
(#117,#118),(#119,#120),(#121,#122),(#123,#124),(#125,#126),(#127,#128),
(#129,#130),(#131,#132),(#133,#134),(#135,#136),(#137,#138),(#139,#140),
(#141,#142),(#143,#144),(#145,#146)),.SURF_OF_LINEAR_EXTRUSION.,.F.,.F.,
 .F.,(4,1,1,1,1,1,1,1,1,1,1,1,1,1,1,4),(2,2),(0.267580971156566,0.359133349761995,
0.40490953906471,0.450685728367424,0.496461917670139,0.542238106972854,
0.588014296275568,0.633790485578283,0.679566674880998,0.725342864183712,
0.771119053486427,0.816895242789141,0.862671432091856,0.908447621394571,
0.954223810697285,1.),(0.,1.),.UNSPECIFIED.);
#53=B_SPLINE_SURFACE_WITH_KNOTS('',3,1,((#167,#168),(#169,#170),(#171,#172),
(#173,#174)),.SURF_OF_LINEAR_EXTRUSION.,.F.,.F.,.F.,(4,4),(2,2),(0.,0.267580971156566),
(0.,1.),.PIECEWISE_BEZIER_KNOTS.);
#54=OVER_RIDING_STYLED_ITEM('',(#66),#59,#64);
#55=OVER_RIDING_STYLED_ITEM('',(#67),#60,#64);
#56=OVER_RIDING_STYLED_ITEM('',(#68),#61,#64);
#57=OVER_RIDING_STYLED_ITEM('',(#69),#62,#64);
#58=DRAUGHTING_PRE_DEFINED_COLOUR('black');
#59=ADVANCED_FACE('Face appearance 11',(#48),#52,.F.);
#60=ADVANCED_FACE('Face appearance 11',(#49),#53,.F.);
#61=ADVANCED_FACE('Face appearance 11',(#50),#12,.T.);
#62=ADVANCED_FACE('Face appearance 11',(#51),#13,.F.);
#63=CLOSED_SHELL('',(#59,#60,#61,#62));
#64=STYLED_ITEM('',(#65),#96);
#65=PRESENTATION_STYLE_ASSIGNMENT((#70));
#66=PRESENTATION_STYLE_ASSIGNMENT((#71));
#67=PRESENTATION_STYLE_ASSIGNMENT((#72));
#68=PRESENTATION_STYLE_ASSIGNMENT((#73));
#69=PRESENTATION_STYLE_ASSIGNMENT((#74));
#70=SURFACE_STYLE_USAGE(.BOTH.,#75);
#71=SURFACE_STYLE_USAGE(.BOTH.,#76);
#72=SURFACE_STYLE_USAGE(.BOTH.,#77);
#73=SURFACE_STYLE_USAGE(.BOTH.,#78);
#74=SURFACE_STYLE_USAGE(.BOTH.,#79);
#75=SURFACE_SIDE_STYLE('',(#80));
#76=SURFACE_SIDE_STYLE('',(#81));
#77=SURFACE_SIDE_STYLE('',(#82));
#78=SURFACE_SIDE_STYLE('',(#83));
#79=SURFACE_SIDE_STYLE('',(#84));
#80=SURFACE_STYLE_FILL_AREA(#85);
#81=SURFACE_STYLE_FILL_AREA(#86);
#82=SURFACE_STYLE_FILL_AREA(#87);
#83=SURFACE_STYLE_FILL_AREA(#88);
#84=SURFACE_STYLE_FILL_AREA(#89);
#85=FILL_AREA_STYLE('',(#90));
#86=FILL_AREA_STYLE('',(#91));
#87=FILL_AREA_STYLE('',(#92));
#88=FILL_AREA_STYLE('',(#93));
#89=FILL_AREA_STYLE('',(#94));
#90=FILL_AREA_STYLE_COLOUR('',#95);
#91=FILL_AREA_STYLE_COLOUR('',#58);
#92=FILL_AREA_STYLE_COLOUR('',#58);
#93=FILL_AREA_STYLE_COLOUR('',#58);
#94=FILL_AREA_STYLE_COLOUR('',#58);
#95=COLOUR_RGB('',0.615686274509804,0.811764705882353,0.929411764705882);
#96=MANIFOLD_SOLID_BREP('Face_Eyes_Left_Black',#63);
#97=SHAPE_DEFINITION_REPRESENTATION(#191,#98);
#98=SHAPE_REPRESENTATION('Face_Eyes_Left_Black',(#99),#186);
#99=AXIS2_PLACEMENT_3D('',#110,#102,#103);
#100=AXIS2_PLACEMENT_3D('',#183,#106,#107);
#101=AXIS2_PLACEMENT_3D('',#184,#108,#109);
#102=DIRECTION('',(0.,0.,1.));
#103=DIRECTION('',(1.,0.,0.));
#104=DIRECTION('',(1.,0.,0.));
#105=DIRECTION('',(1.,0.,0.));
#106=DIRECTION('',(1.,0.,0.));
#107=DIRECTION('',(0.,1.,0.));
#108=DIRECTION('',(1.,0.,0.));
#109=DIRECTION('',(0.,1.,0.));
#110=CARTESIAN_POINT('',(0.,0.,0.));
#111=CARTESIAN_POINT('',(-0.07564,-0.0953678041696532,-0.0176541938900964));
#112=CARTESIAN_POINT('',(-0.00564000000000001,-0.0953678041696532,-0.0176541938900964));
#113=CARTESIAN_POINT('',(-0.07564,-0.0944562154322496,-0.0185698316918459));
#114=CARTESIAN_POINT('',(-0.00564000000000001,-0.0944562154322496,-0.0185698316918459));
#115=CARTESIAN_POINT('',(-0.07564,-0.0938970594657196,-0.0204359166587573));
#116=CARTESIAN_POINT('',(-0.00564000000000001,-0.0938970594657196,-0.0204359166587573));
#117=CARTESIAN_POINT('',(-0.07564,-0.0943479472322151,-0.0221958033353493));
#118=CARTESIAN_POINT('',(-0.00564000000000001,-0.0943479472322151,-0.0221958033353493));
#119=CARTESIAN_POINT('',(-0.07564,-0.0951795912549498,-0.0226554708630655));
#120=CARTESIAN_POINT('',(-0.00563999999999999,-0.0951795912549498,-0.0226554708630655));
#121=CARTESIAN_POINT('',(-0.07564,-0.096398648564971,-0.0220928540136735));
#122=CARTESIAN_POINT('',(-0.00563999999999999,-0.096398648564971,-0.0220928540136735));
#123=CARTESIAN_POINT('',(-0.07564,-0.0978963111672948,-0.0210699865922052));
#124=CARTESIAN_POINT('',(-0.00564000000000001,-0.0978963111672948,-0.0210699865922052));
#125=CARTESIAN_POINT('',(-0.07564,-0.0995638993033931,-0.0200331155685568));
#126=CARTESIAN_POINT('',(-0.00564000000000002,-0.0995638993033931,-0.0200331155685568));
#127=CARTESIAN_POINT('',(-0.07564,-0.101293909707531,-0.0194371582250345));
#128=CARTESIAN_POINT('',(-0.00564000000000002,-0.101293909707531,-0.0194371582250345));
#129=CARTESIAN_POINT('',(-0.07564,-0.102974004906344,-0.0198181374294414));
#130=CARTESIAN_POINT('',(-0.00563999999999999,-0.102974004906344,-0.0198181374294414));
#131=CARTESIAN_POINT('',(-0.07564,-0.104541279796038,-0.0208058844568983));
#132=CARTESIAN_POINT('',(-0.00564000000000002,-0.104541279796038,-0.0208058844568983));
#133=CARTESIAN_POINT('',(-0.07564,-0.105942016471292,-0.0218704783919907));
#134=CARTESIAN_POINT('',(-0.00563999999999999,-0.105942016471292,-0.0218704783919907));
#135=CARTESIAN_POINT('',(-0.07564,-0.107116656839723,-0.022554850202865));
#136=CARTESIAN_POINT('',(-0.00564000000000002,-0.107116656839723,-0.022554850202865));
#137=CARTESIAN_POINT('',(-0.07564,-0.108020021248643,-0.0222665206510111));
#138=CARTESIAN_POINT('',(-0.00563999999999998,-0.108020021248643,-0.0222665206510111));
#139=CARTESIAN_POINT('',(-0.07564,-0.108537356999882,-0.02104368745067));
#140=CARTESIAN_POINT('',(-0.00564000000000001,-0.108537356999882,-0.02104368745067));
#141=CARTESIAN_POINT('',(-0.07564,-0.108500017421698,-0.0194115954692995));
#142=CARTESIAN_POINT('',(-0.00564000000000003,-0.108500017421698,-0.0194115954692995));
#143=CARTESIAN_POINT('',(-0.07564,-0.108000989305686,-0.0183278531318497));
#144=CARTESIAN_POINT('',(-0.00564000000000001,-0.108000989305686,-0.0183278531318497));
#145=CARTESIAN_POINT('',(-0.07564,-0.107606276489432,-0.017861565899849));
#146=CARTESIAN_POINT('',(-0.00564000000000001,-0.107606276489432,-0.017861565899849));
#147=CARTESIAN_POINT('',(-0.00564,-0.107606276489432,-0.017861565899849));
#148=CARTESIAN_POINT('',(-0.07564,-0.107606276489432,-0.017861565899849));
#149=CARTESIAN_POINT('',(-0.00564,-0.107606276489432,-0.017861565899849));
#150=CARTESIAN_POINT('',(-0.07564,-0.0953678041696532,-0.0176541938900964));
#151=CARTESIAN_POINT('',(-0.07564,-0.0936957761535937,-0.0193336486642404));
#152=CARTESIAN_POINT('',(-0.07564,-0.0940085484884525,-0.0255504061347675));
#153=CARTESIAN_POINT('',(-0.07564,-0.101642968882086,-0.0164008101362085));
#154=CARTESIAN_POINT('',(-0.07564,-0.108055868927688,-0.0252744883543736));
#155=CARTESIAN_POINT('',(-0.07564,-0.109010727338375,-0.0195206898802921));
#156=CARTESIAN_POINT('',(-0.07564,-0.107606276489432,-0.017861565899849));
#157=CARTESIAN_POINT('',(-0.07564,-0.0953678041696532,-0.0176541938900964));
#158=CARTESIAN_POINT('',(-0.00564,-0.0953678041696532,-0.0176541938900964));
#159=CARTESIAN_POINT('',(-0.00564,-0.0953678041696532,-0.0176541938900964));
#160=CARTESIAN_POINT('',(-0.00564,-0.0953678041696532,-0.0176541938900964));
#161=CARTESIAN_POINT('',(-0.00564,-0.0936957761535937,-0.0193336486642404));
#162=CARTESIAN_POINT('',(-0.00564,-0.0940085484884525,-0.0255504061347675));
#163=CARTESIAN_POINT('',(-0.00564,-0.101642968882086,-0.0164008101362085));
#164=CARTESIAN_POINT('',(-0.00564,-0.108055868927688,-0.0252744883543736));
#165=CARTESIAN_POINT('',(-0.00564,-0.109010727338375,-0.0195206898802921));
#166=CARTESIAN_POINT('',(-0.00564,-0.107606276489432,-0.017861565899849));
#167=CARTESIAN_POINT('',(-0.07564,-0.107606276489432,-0.017861565899849));
#168=CARTESIAN_POINT('',(-0.00564000000000001,-0.107606276489432,-0.017861565899849));
#169=CARTESIAN_POINT('',(-0.07564,-0.105299015000218,-0.0151359220164842));
#170=CARTESIAN_POINT('',(-0.00564000000000001,-0.105299015000218,-0.0151359220164842));
#171=CARTESIAN_POINT('',(-0.07564,-0.0980321128786735,-0.014978050943818));
#172=CARTESIAN_POINT('',(-0.00564000000000001,-0.0980321128786735,-0.014978050943818));
#173=CARTESIAN_POINT('',(-0.07564,-0.0953678041696532,-0.0176541938900964));
#174=CARTESIAN_POINT('',(-0.00564000000000001,-0.0953678041696532,-0.0176541938900964));
#175=CARTESIAN_POINT('',(-0.07564,-0.107606276489432,-0.017861565899849));
#176=CARTESIAN_POINT('',(-0.07564,-0.105299015000218,-0.0151359220164842));
#177=CARTESIAN_POINT('',(-0.07564,-0.0980321128786735,-0.014978050943818));
#178=CARTESIAN_POINT('',(-0.07564,-0.0953678041696532,-0.0176541938900964));
#179=CARTESIAN_POINT('',(-0.00564,-0.107606276489432,-0.017861565899849));
#180=CARTESIAN_POINT('',(-0.00564,-0.105299015000218,-0.0151359220164842));
#181=CARTESIAN_POINT('',(-0.00564,-0.0980321128786735,-0.014978050943818));
#182=CARTESIAN_POINT('',(-0.00564,-0.0953678041696532,-0.0176541938900964));
#183=CARTESIAN_POINT('',(-0.00564,-0.0785833531866038,-0.024257448981059));
#184=CARTESIAN_POINT('',(-0.07564,-0.0785833531866038,-0.024257448981059));
#185=MECHANICAL_DESIGN_GEOMETRIC_PRESENTATION_REPRESENTATION('',(#64,#54,
#55,#56,#57),#186);
#186=(
GEOMETRIC_REPRESENTATION_CONTEXT(3)
GLOBAL_UNCERTAINTY_ASSIGNED_CONTEXT((#187))
GLOBAL_UNIT_ASSIGNED_CONTEXT((#190,#189,#188))
REPRESENTATION_CONTEXT('Face_Eyes_Left_Black','TOP_LEVEL_ASSEMBLY_PART')
);
#187=UNCERTAINTY_MEASURE_WITH_UNIT(LENGTH_MEASURE(2.E-5),#190,
'DISTANCE_ACCURACY_VALUE','Maximum Tolerance applied to model');
#188=(
NAMED_UNIT(*)
SI_UNIT($,.STERADIAN.)
SOLID_ANGLE_UNIT()
);
#189=(
NAMED_UNIT(*)
PLANE_ANGLE_UNIT()
SI_UNIT($,.RADIAN.)
);
#190=(
LENGTH_UNIT()
NAMED_UNIT(*)
SI_UNIT($,.METRE.)
);
#191=PRODUCT_DEFINITION_SHAPE('','',#192);
#192=PRODUCT_DEFINITION('','',#194,#193);
#193=PRODUCT_DEFINITION_CONTEXT('',#200,'design');
#194=PRODUCT_DEFINITION_FORMATION_WITH_SPECIFIED_SOURCE('','',#196,
 .NOT_KNOWN.);
#195=PRODUCT_RELATED_PRODUCT_CATEGORY('','',(#196));
#196=PRODUCT('Face_Eyes_Left_Black','Face_Eyes_Left_Black',
'Face_Eyes_Left_Black',(#198));
#197=PRODUCT_CATEGORY('','');
#198=PRODUCT_CONTEXT('',#200,'mechanical');
#199=APPLICATION_PROTOCOL_DEFINITION('international standard',
'ap242_managed_model_based_3d_engineering',2020,#200);
#200=APPLICATION_CONTEXT('managed model based 3d engineering');
ENDSEC;
END-ISO-10303-21;
